<svg xmlns="http://www.w3.org/2000/svg" viewBox="0 0 408.68 408.71"><g id="Layer_2" data-name="Layer 2"><g id="Layer_1-2" data-name="Layer 1"><path d="M42.19,408.71c-7.82-2-15.5-4.27-22.22-9.17A49.2,49.2,0,0,1,1.2,349.1Q14.73,288.73,58.38,245a203.31,203.31,0,0,1,76-47.84c1.45-.52,2.9-1.07,4.8-1.78-28.23-22.67-43.27-51.53-43.33-87.28,0-29.66,10.84-55.36,31.81-76.38,42.21-42.31,109.69-42.23,153.05-.37,40.92,39.52,48,118.21-10.78,163.88,7.5,3.12,15,6.07,22.39,9.34s11.32,10.45,9.88,17.69c-2,10.19-12.05,15.46-22,11.76-10.82-4-21.49-8.71-32.62-11.52-42.7-10.79-83.92-6-123.15,14-34,17.32-59.55,43.33-77,77.18a167.61,167.61,0,0,0-15.09,43.13,16.25,16.25,0,0,0,13.54,19.61,37,37,0,0,0,6,.33q95.19,0,190.39.06a25,25,0,0,1,8.6,1.18c6.3,2.36,9.69,7.27,10.16,14a15.73,15.73,0,0,1-9.1,15.15c-1.18.56-2.4,1.06-3.6,1.58ZM280.91,108.49c0-42.21-34.6-76.72-76.75-76.63s-76.67,34.71-76.52,76.85c.15,42.56,34.58,76.38,77.75,76.37C246.53,185.08,281,150.17,280.91,108.49Z"/><path d="M329.63,408.71c-9.54-3.25-13.17-10-12.87-19.93.39-13.14.1-26.29.1-39.95h-4.5c-12.64,0-25.28,0-37.92,0-10.21,0-17.33-6.53-17.44-15.77-.11-9.41,7.09-16.11,17.47-16.15,13.95,0,27.9,0,42.39,0v-4.46c0-12.64,0-25.28,0-37.92,0-10.38,6.73-17.58,16.13-17.47s15.75,7.23,15.78,17.43c.05,13.95,0,27.91,0,42.42h4.43c11.84,0,23.69.31,35.52-.09,9.9-.33,16.68,3.32,19.94,12.87v6.39c-3.26,9.53-10,13.2-19.92,12.86-11.83-.39-23.67-.09-35.51-.09h-4.46c0,13.68-.29,26.83.1,40,.3,9.89-3.34,16.66-12.87,19.91Z"/></g></g></svg>