<svg xmlns="http://www.w3.org/2000/svg" xmlns:xlink="http://www.w3.org/1999/xlink" viewBox="0 0 85.58 110.09"><defs><style>.cls-1{isolation:isolate;}.cls-2{fill:#fcc89c;}.cls-2,.cls-3,.cls-4,.cls-5{fill-rule:evenodd;}.cls-3{fill:#914420;}.cls-4,.cls-6{fill:#4f2212;}.cls-5{mix-blend-mode:multiply;fill:url(#linear-gradient);}.cls-6{stroke:#4f2212;stroke-linejoin:bevel;stroke-width:0.55px;}</style><linearGradient id="linear-gradient" x1="47.63" y1="91.82" x2="47.63" y2="41.71" gradientUnits="userSpaceOnUse"><stop offset="0.18" stop-color="#914420" stop-opacity="0"/><stop offset="0.33" stop-color="#914420" stop-opacity="0.02"/><stop offset="0.44" stop-color="#914420" stop-opacity="0.09"/><stop offset="0.54" stop-color="#914420" stop-opacity="0.2"/><stop offset="0.63" stop-color="#914420" stop-opacity="0.36"/><stop offset="0.72" stop-color="#914420" stop-opacity="0.56"/><stop offset="0.8" stop-color="#914420" stop-opacity="0.81"/><stop offset="0.86" stop-color="#914420"/></linearGradient></defs><g class="cls-1"><g id="Layer_2" data-name="Layer 2"><g id="Layer_2-2" data-name="Layer 2"><path class="cls-2" d="M27,54.82a24,24,0,0,1,16.35,5.85,20,20,0,0,1,7.45,14.48A18.15,18.15,0,0,1,45,89.78,21.94,21.94,0,0,1,29.37,96,23.86,23.86,0,0,1,13,90.15,19.92,19.92,0,0,1,5.57,75.68,18.18,18.18,0,0,1,11.37,61,22,22,0,0,1,27,54.82Z"/><path class="cls-3" d="M67.14,101.23c.28.16.67,0,1.19-.38a1.1,1.1,0,0,1,1.4-.21,7.58,7.58,0,0,0,1.82.87,2.68,2.68,0,0,0,1.19.2c.45-.07.64-.25.56-.55a3,3,0,0,0-1-1.22c2.31.91,3.46,1.13,3.48.65s-.49-1-1.49-1.67c1.38.35,2.18.31,2.38-.11.09-.18,0-.38-.26-.61a4.21,4.21,0,0,0-1.34-.72c1.37,0,1.33-.41-.13-1.37a7.13,7.13,0,0,0-4.21-1.35,5.4,5.4,0,0,0-3.28,1.14l-1.43,1.18c-.43.53-.35,1.1.22,1.7a1.72,1.72,0,0,1,.62,1.58C66.81,100.79,66.89,101.07,67.14,101.23Z"/><path class="cls-3" d="M74.94,96.39a2.9,2.9,0,0,0-1-.91,4,4,0,0,0-1.61-.67,1.56,1.56,0,0,0-1.31.22.8.8,0,0,0-.25,1,2,2,0,0,0,1,1,3.42,3.42,0,0,0,1.61.47,1.83,1.83,0,0,0,1.3-.32C75,96.9,75.07,96.64,74.94,96.39Z"/><path class="cls-3" d="M70.59,98.22a4.64,4.64,0,0,1-2.54-.15,1.66,1.66,0,0,1-1.24-1.26,1.81,1.81,0,0,1,.76-1.66,5,5,0,0,1,2.34-1.07,4.61,4.61,0,0,1,2.53.15,1.7,1.7,0,0,1,1.25,1.27,1.8,1.8,0,0,1-.77,1.65A4.8,4.8,0,0,1,70.59,98.22Z"/><path class="cls-3" d="M67.66,65q1.13,2.06,2.4,4.92a33.24,33.24,0,0,1,1.76,5.42,55.81,55.81,0,0,1,1.51,10c.1,1.66.16,3.1.18,4.3q.08,3.14-.09,6.36-2.49,3.56-7.17,2.16Q63.81,95,61.4,91.33a15.2,15.2,0,0,1-2.63-7.12,8.69,8.69,0,0,1,1-5.36c0-.66,0-1.13,0-1.42A5.13,5.13,0,0,1,60,76.05c.12-.4.26-1,.4-1.67s.29-1.46.37-1.87q.38-1.7,1.21-5a8.47,8.47,0,0,1,2.2-3.78c.9-.8,1.52-1.13,1.85-1A6.34,6.34,0,0,1,67.66,65Z"/><path class="cls-4" d="M63.21,59.69q6.33,5.18,6.34,12.68T63.21,85.15A23.2,23.2,0,0,1,48,90.6a22.51,22.51,0,0,1-15.19-5.13q-6.35-5.18-6.34-12.62T32.77,60A23.11,23.11,0,0,1,48,54.57,22.59,22.59,0,0,1,63.21,59.69Z"/><path class="cls-3" d="M63.37,58.55c6.7,4.47,7.77,14,3.91,20.25a16.44,16.44,0,0,1-1.23,2.08c-4.57,8.56-15.31,10.67-23.9,9.62-6.44-1.06-11.81-6.34-14.82-11.26a15.16,15.16,0,0,1-.88-2.17,15.88,15.88,0,0,1-.7-4.71q0-7.5,6.34-12.84a22.5,22.5,0,0,1,12.29-5.26c.95-.11,1.92-.18,2.93-.21,4.5.52,9.87.52,13.81,3A19.81,19.81,0,0,1,63.37,58.55Z"/><path class="cls-5" d="M63.37,58.55c6.7,4.47,7.77,14,3.91,20.25a16.44,16.44,0,0,1-1.23,2.08c-4.57,8.56-15.31,10.67-23.9,9.62-6.44-1.06-11.81-6.34-14.82-11.26a15.16,15.16,0,0,1-.88-2.17,15.88,15.88,0,0,1-.7-4.71q0-7.5,6.34-12.84a22.5,22.5,0,0,1,12.29-5.26c.95-.11,1.92-.18,2.93-.21,4.5.52,9.87.52,13.81,3A19.81,19.81,0,0,1,63.37,58.55Z"/><path class="cls-3" d="M66.24,1.76A36.44,36.44,0,0,1,80.13,8.87c3.6,3.1,5.42,6.52,5.45,10.23a44.1,44.1,0,0,1-.84,9.23,45,45,0,0,1-3.13,8.34,11.25,11.25,0,0,0-.14,9.59q2,5,1,7.69a12.32,12.32,0,0,1-3.09,4.67,30.34,30.34,0,0,1-4.87,3.67,39.83,39.83,0,0,1-5.45,2.85,17,17,0,0,1-6.51,1.09,63.06,63.06,0,0,1-11.34-1.52A21.75,21.75,0,0,1,39.27,58.4a18.41,18.41,0,0,1-5-11.32c-.49-2.59-1-5.12-1.39-7.59a75,75,0,0,0-2.42-7.34A30.5,30.5,0,0,1,28.8,19q.52-7,7.08-12.37A26.9,26.9,0,0,1,50.1.26,40.4,40.4,0,0,1,66.24,1.76Z"/><path class="cls-3" d="M28.26,48.5a5,5,0,0,1,1.19-4.14A5,5,0,0,1,33,42.85a4.54,4.54,0,0,1,2.59.66l.31.27c.81.93,1.74,3.68,2.77,8.24a8.44,8.44,0,0,1-3.61,1.13,7.42,7.42,0,0,1-4.35-.86A4.4,4.4,0,0,1,28.26,48.5Z"/><path class="cls-4" d="M30.22,46.93a3.33,3.33,0,0,1,2.88-.69,7.65,7.65,0,0,1,2.77,1.54Z"/><path class="cls-4" d="M71.53,39.46a2.94,2.94,0,0,1,2.07-1.33,3.06,3.06,0,0,1,2.42.65,3.54,3.54,0,0,1,1.35,2.27,3.4,3.4,0,0,1-.49,2.55,2.92,2.92,0,0,1-2.07,1.34,3.06,3.06,0,0,1-2.42-.65A3.57,3.57,0,0,1,71,42,3.44,3.44,0,0,1,71.53,39.46Z"/><path class="cls-3" d="M77.26,36l2.24,4.56c-4-1.42-7.93-.89-11.87,1.56l.27-4.66Z"/><path class="cls-4" d="M79.72,41.59h0l-.25-.16a9,9,0,0,0-6.59-.34,15,15,0,0,0-5.32,2.42q2.94-3.67,6.57-4.1a6.42,6.42,0,0,1,5.83,2.31Z"/><path class="cls-4" d="M70.22,31.23l-.54-.75c0-.06,0-.11,0-.13a3.45,3.45,0,0,1,.78-.84c1.41-.06,2.82-.11,4.25-.13a9.75,9.75,0,0,1,1.73.65,7.28,7.28,0,0,1,2,1,4,4,0,0,1,1.25,1.48,9.53,9.53,0,0,0-3.23-1.28,7.13,7.13,0,0,0-2.16-.28C72.92,31,71.54,31.07,70.22,31.23Z"/><path class="cls-4" d="M46.69,33a5.26,5.26,0,0,1,.72-.69,10.19,10.19,0,0,1,2-1.3,25.09,25.09,0,0,1,2.53-1l1.27,0a24.57,24.57,0,0,1,3.29.22.9.9,0,0,1,.62.25,5.12,5.12,0,0,1,.3.57L57,31.7c-1.21,0-2.43-.07-3.68-.18a12.14,12.14,0,0,0-5.16.93c-.32.13-.63.28-.94.44A3.33,3.33,0,0,0,46.69,33Z"/><path class="cls-4" d="M51,41.62a3.36,3.36,0,0,1,2.47-1,3.49,3.49,0,0,1,2.51,1A3.34,3.34,0,0,1,57,44.08a3.21,3.21,0,0,1-1,2.44,3.36,3.36,0,0,1-2.47,1,3.56,3.56,0,0,1-2.5-1A3.44,3.44,0,0,1,50,44.06,3.22,3.22,0,0,1,51,41.62Z"/><path class="cls-3" d="M57.17,38.2,58.66,43C55,41,51,41,46.69,42.77l1-4.57Z"/><path class="cls-4" d="M59.59,44.1a12.8,12.8,0,0,0-7.7-1.55A20.11,20.11,0,0,0,45.25,44a12.38,12.38,0,0,1,8.37-2.85,8.33,8.33,0,0,1,6.49,3.33,1.34,1.34,0,0,0-.22-.16A.89.89,0,0,0,59.59,44.1Z"/><path class="cls-3" d="M44.85,90.44,39.8,91.76l-.38-.11H35.08a28.19,28.19,0,0,0-3.23-.42h-.27a41.39,41.39,0,0,0-.43-5.31,41.21,41.21,0,0,1,.46-10q.91-6.66,6.5-4.15a80.4,80.4,0,0,0,12.53,4.33A81.05,81.05,0,0,0,44.85,90.44Z"/><path class="cls-3" d="M42.74,109.3a5.91,5.91,0,0,1-2.31-1.07,2.85,2.85,0,0,1,.33,1.39c0,.14-.24.29-.59.45q-.22.11-.84-.36a4.54,4.54,0,0,1-1.11-1.2,1.63,1.63,0,0,1-.06,1,.63.63,0,0,1-.6.36c-.64,0-1.18-.53-1.62-1.55.12.92-.11,1.17-.69.74a3.1,3.1,0,0,1-1.16-1.7,2.21,2.21,0,0,1,1.06-2.77,7.76,7.76,0,0,1,3.8-.87q.75,0,2.4-.09a2.4,2.4,0,0,1,2,.86,3.77,3.77,0,0,0,1.47,1.18c.47.23.7.45.71.67s-.19.54-.6.59a13,13,0,0,1-2-.08,6.11,6.11,0,0,0,.69,1.36c.29.47.4.77.34.91S43.47,109.44,42.74,109.3Z"/><path class="cls-3" d="M34.23,107.35a1.54,1.54,0,0,1-.43-.95,1.3,1.3,0,0,1,.33-1.11,1.6,1.6,0,0,1,1.22-.47,2.2,2.2,0,0,1,1.36.41,1.17,1.17,0,0,1,0,2,2.26,2.26,0,0,1-1.36.41A1.65,1.65,0,0,1,34.23,107.35Z"/><path class="cls-3" d="M38.48,106.91a5.11,5.11,0,0,1-2.78-.72,1.91,1.91,0,0,1,0-3.5,5.66,5.66,0,0,1,5.56,0,1.91,1.91,0,0,1,0,3.5A5.16,5.16,0,0,1,38.48,106.91Z"/><path class="cls-4" d="M36,67.18q10.26-4,13.89,8.84-5,9.35-7.37,28.79-3.75,3.59-8.42.93a25.36,25.36,0,0,1-2.85-9.11,51.41,51.41,0,0,1-.29-9.24q.27-4.24,1.19-11.58T36,67.18Z"/><path class="cls-3" d="M36.07,66.47c3.93-2.39,9.3-2.39,11.45,1.84,1,1.65,3.16,5.39,2.35,6.67A41.69,41.69,0,0,0,45,87.89c-.3,1.2-.6,2.45-.88,3.76-.83,3.91-1.55,8.3-2.13,13.16q-3.77,3.59-8.42.93a25.16,25.16,0,0,1-2.85-9.11,52.4,52.4,0,0,1-.3-9.24c.05-.7.11-1.48.18-2.31s.16-1.74.26-2.71c.52-4.55.52-8.78,2.55-12.85A6.05,6.05,0,0,1,36.07,66.47Z"/><path class="cls-3" d="M14.1,81.15a10.25,10.25,0,0,1,7.68,3.31,11.58,11.58,0,0,1,0,16,10.25,10.25,0,0,1-7.68,3.31,10.28,10.28,0,0,1-7.68-3.31,11.6,11.6,0,0,1,0-16A10.28,10.28,0,0,1,14.1,81.15Z"/><path class="cls-3" d="M4.08,81.91c1.13,0,2.09.7,2.89,2.12a10.35,10.35,0,0,1,1.2,5.15A10.26,10.26,0,0,1,7,94.32c-.8,1.43-1.76,2.14-2.89,2.14S2,95.75,1.2,94.32A11.63,11.63,0,0,1,1.2,84C2,82.61,3,81.91,4.08,81.91Z"/><path class="cls-4" d="M67.7,53.9a12.71,12.71,0,0,1,3.75-.35c.56,0,1.13.08,1.69.14a11.49,11.49,0,0,0-1.74,3.66,2.55,2.55,0,0,1-2.35,2.06,6.16,6.16,0,0,1-5.93-1.8,7.9,7.9,0,0,0-3.25-2.51,4.74,4.74,0,0,0,2.39.18C64.32,54.74,66.14,54.28,67.7,53.9Z"/><path class="cls-2" d="M68.25,55.09a.83.83,0,0,1-.43.1,1,1,0,0,1-.44-.06c-.12-.05-.18-.21-.2-.5a2,2,0,0,1,0-.43c.36-.05.73-.09,1.09-.11a1.69,1.69,0,0,1,.11.48C68.42,54.85,68.37,55,68.25,55.09Zm-1.2-.23c0,.28,0,.46-.16.52a.94.94,0,0,1-.43.11,1.16,1.16,0,0,1-.44-.07c-.11-.05-.18-.21-.2-.5a1.48,1.48,0,0,1,0-.43l.25-.06.79-.17A1.56,1.56,0,0,1,67.05,54.86Z"/><path class="cls-4" d="M72.46,53.61a1.05,1.05,0,0,0-.24.06,4.41,4.41,0,0,1-1-2.08s0,0,0,.07a5,5,0,0,0,.84,1.3C72.43,53.4,72.56,53.61,72.46,53.61Z"/><path class="cls-4" d="M71.32,59.73a2.21,2.21,0,0,1-.75,1.19,3.37,3.37,0,0,1-2,.54A5.59,5.59,0,0,1,66.1,61c-.74-.32-1.27-.57-1.58-.74a1.94,1.94,0,0,1-.72-.63,4.38,4.38,0,0,0,1.51.61,13.76,13.76,0,0,0,2.59.37,3.77,3.77,0,0,0,2.56-.68,2.27,2.27,0,0,0,.92-1.14A2,2,0,0,1,71.32,59.73Z"/><path class="cls-4" d="M64,64.76a1.44,1.44,0,0,1-.54-.49,3.36,3.36,0,0,0,1.15.49,10.87,10.87,0,0,0,2,.31A4.63,4.63,0,0,0,69,64.5l.17-.09s-.06.1-.16.28a2.19,2.19,0,0,1-.71.65,2.51,2.51,0,0,1-1.43.38,4,4,0,0,1-1.7-.37C64.64,65.09,64.24,64.9,64,64.76Z"/><path class="cls-3" d="M2.77,94.7a.7.7,0,0,1,.35.55A.94.94,0,0,1,3,96a1,1,0,0,1-.58.44.8.8,0,0,1-.66-.08.8.8,0,0,1-.35-.56,1,1,0,0,1,.16-.7,1,1,0,0,1,.58-.44A.76.76,0,0,1,2.77,94.7Z"/><path class="cls-3" d="M4,95.33a.79.79,0,0,1,.35.53.91.91,0,0,1-.67,1,.79.79,0,0,1-.64-.1.74.74,0,0,1-.35-.52.88.88,0,0,1,.13-.65.84.84,0,0,1,.54-.38A.8.8,0,0,1,4,95.33Z"/><path class="cls-3" d="M12.92,72.36a9.75,9.75,0,0,1,8.39,2,14.27,14.27,0,0,1,5.33,8.27,14.06,14.06,0,0,1-.86,9.76,9.55,9.55,0,0,1-6.52,5.53,9.74,9.74,0,0,1-8.39-1.94,14.27,14.27,0,0,1-5.33-8.27,14.08,14.08,0,0,1,.85-9.77A9.62,9.62,0,0,1,12.92,72.36Z"/><path class="cls-6" d="M68.61,49.81s.83.28,1.16-.24c.51-.79-.19-2.1-.64-2.41C70.77,49.91,68.61,49.81,68.61,49.81Z"/><path class="cls-6" d="M67.41,49A1.43,1.43,0,0,0,67,49a1.15,1.15,0,0,0-.41.08.25.25,0,0,0-.14.11s-.06.12,0,.16a.15.15,0,0,0,.09.06c.16,0,.31-.09.47-.12a2.57,2.57,0,0,1,1.06.17A1.58,1.58,0,0,0,67.41,49Z"/><path class="cls-6" d="M63.14,50.27s-.77.42-1.2,0a2.15,2.15,0,0,1,.22-2.48C61,50.73,63.14,50.27,63.14,50.27Z"/><path class="cls-6" d="M64.18,49.31A1.13,1.13,0,0,1,65,49.2a.29.29,0,0,1,.16.07.14.14,0,0,1,0,.17s0,.05-.08.07-.32,0-.49,0a2.46,2.46,0,0,0-1,.35A1.58,1.58,0,0,1,64.18,49.31Z"/></g></g></g></svg>