<svg width="51" height="165" viewBox="0 0 51 165" fill="none" xmlns="http://www.w3.org/2000/svg">
<g clip-path="url(#clip0_232_711)">
<path fill-rule="evenodd" clip-rule="evenodd" d="M23.0027 0.465101C22.3724 0.676064 21.7691 0.967224 21.2082 1.33327C20.1284 2.03806 19.2393 2.99863 18.62 4.12968C18.3574 4.33579 18.1076 4.55621 17.8715 4.78965L48.9317 74.2099C49.0289 72.3323 49.0517 70.4507 49 68.5697C48.965 68.0483 48.9204 67.4795 48.8661 66.8632C49.5747 66.544 50.256 66.1395 50.91 65.6497C50.872 64.5738 50.8106 63.4993 50.7258 62.4269L41.5833 41.9933C41.1327 41.6537 40.7051 41.3267 40.31 40.9997C40.165 40.9326 40.0092 40.8919 39.85 40.8797C39.2646 40.7825 38.6725 40.7776 38.094 40.8613L38.0711 40.8364C38.6294 40.7469 39.2019 40.7401 39.77 40.8197C39.9292 40.8319 40.085 40.8726 40.23 40.9397L39.07 39.9997C38.7221 39.7232 38.3884 39.4295 38.07 39.1197C37.7 38.7797 37.46 38.6297 37.35 38.6497C36.9987 38.7178 36.6537 38.8099 36.3172 38.9248C36.2847 38.8891 36.2539 38.8552 36.2248 38.8233C36.1947 38.7901 36.1664 38.7589 36.14 38.7297C35.5778 38.1334 35.1843 37.3982 35 36.5997C34.9158 35.9588 34.9133 35.3114 34.9915 34.6728C35.8098 33.7847 36.4738 32.7592 36.9502 31.6381L23.0027 0.465101ZM42.88 27.7305C43.1292 27.2721 43.289 26.7696 43.35 26.2497C43.4857 25.4935 43.3489 24.7164 42.9684 24.0549C44.1398 22.1879 44.8772 19.8628 45.1806 17.0797L38.8099 2.841C38.6487 2.76984 38.4854 2.70269 38.32 2.63968C36.1299 1.58663 33.8146 0.817096 31.43 0.349676C31.1444 0.30194 30.8582 0.258947 30.5715 0.220703L42.88 27.7305ZM47.3343 87.8008L15.3152 16.2372C15.2568 16.8656 15.172 17.491 15.0611 18.1118C14.9818 18.1817 14.9047 18.2544 14.83 18.3297L15 18.2497L15.0402 18.227C14.8042 19.5097 14.4566 20.7721 14 21.9997C12.9571 24.6535 12.6833 27.5474 13.21 30.3497C13.2447 30.4946 13.283 30.6382 13.3249 30.7805L14.5177 30.2468L16.9287 35.6356C16.9984 35.6812 17.0688 35.7259 17.14 35.7697C18.8267 36.7252 20.6571 37.3867 22.5528 37.7322C22.3726 38.4753 22.0464 39.1785 21.59 39.7997C21.5552 39.8358 21.5202 39.8716 21.4849 39.9071C21.2781 39.7383 21.1032 39.7125 20.96 39.8297C20.8313 39.9361 20.6902 40.0268 20.54 40.0997C20.4956 40.1236 20.4408 40.1521 20.3755 40.1861L20.375 40.1863L20.3747 40.1865C20.2487 40.2521 20.0838 40.3379 19.88 40.4497C19.6777 40.5902 19.4732 40.7273 19.2667 40.861L19.4727 41.3215C19.5918 41.0242 19.7277 40.7331 19.88 40.4497C19.7281 40.7342 19.5927 41.0264 19.4742 41.3249L46.9333 102.697C46.9135 102.083 46.9084 101.672 46.92 101.47C46.9129 101.26 46.8396 100.06 46.7002 97.868C46.8864 97.8424 47.073 97.8163 47.26 97.7897C47.096 95.6241 46.9411 93.4528 46.7951 91.2757C46.9876 90.0693 47.1674 88.911 47.3343 87.8008ZM48.2421 122.783L13.6698 45.5127C12.968 46.9946 12.4376 48.5537 12.09 50.1597C11.675 51.9796 11.361 53.8193 11.1486 55.6702L43.1855 127.274C43.1871 127.186 43.1885 127.098 43.19 127.01C43.2005 125.817 43.2115 124.733 43.2227 123.757C44.912 123.526 46.5877 123.201 48.2421 122.783ZM42.4785 142.854L31.6764 118.711C31.6776 118.767 31.6788 118.824 31.68 118.88C31.7305 119.202 31.7754 119.485 31.814 119.727C31.913 120.349 31.97 120.706 31.97 120.8C31.68 120.84 31.62 121.04 31.76 121.39C31.9223 122.002 32.0525 122.623 32.15 123.25C32.6565 123.42 33.1694 123.568 33.6873 123.692C33.7179 124.642 33.7487 125.675 33.78 126.79C34.0189 131.874 34.4421 136.958 35.0494 142.043L41.9649 157.499C41.9567 157.461 41.9484 157.421 41.94 157.38C41.8132 156.778 41.7561 156.164 41.77 155.55C41.7617 155.334 41.8359 153.97 41.9699 151.509L41.9699 151.508L42.0191 150.603L42.06 149.85C42.1505 148.177 42.2388 146.824 42.3064 145.789L42.3065 145.788L42.3065 145.787L42.3065 145.787L42.3066 145.786L42.3066 145.786L42.3066 145.785C42.3808 144.65 42.43 143.896 42.43 143.52C42.4464 143.298 42.4626 143.076 42.4785 142.854ZM36.603 162.676L33.9915 156.839C32.8124 157.771 31.5689 158.62 30.27 159.38C29.7131 159.767 29.1281 160.109 28.5204 160.404L29.3914 162.351C29.4449 162.281 29.5011 162.214 29.56 162.15C29.5324 162.275 29.5022 162.4 29.4693 162.525L30.2352 164.236L30.4715 163.911L30.54 164.06C30.5708 163.973 30.6034 163.893 30.6339 163.818C30.6708 163.727 30.7044 163.644 30.7276 163.569L30.7852 163.558C30.7446 163.695 30.6866 163.857 30.6181 164.049L30.6 164.1V164.16V164.76C30.7722 164.793 30.9495 164.792 31.1213 164.756C31.2931 164.72 31.4558 164.65 31.6 164.55C31.5893 164.517 31.5893 164.482 31.6 164.45L31.7757 164.142C31.7974 164.22 31.8122 164.299 31.82 164.38C31.9432 164.061 32.0293 163.73 32.0769 163.393C32.1014 163.325 32.1241 163.255 32.1448 163.185L32.2061 163.17C32.1715 163.597 32.0753 164.018 31.92 164.42C32.036 164.463 32.1639 164.463 32.28 164.42L32.2852 164.418L32.2583 164.427L32.2356 164.435L32.22 164.44H32.34L32.4628 164.361C32.5374 164.332 32.6099 164.298 32.68 164.26C32.8475 164.204 33.0021 164.115 33.1344 163.998C33.2667 163.881 33.3741 163.739 33.45 163.58C34.5131 163.321 35.5649 163.019 36.603 162.676ZM26.1805 155.174C26.1806 154.811 26.1302 154.45 26.03 154.1C25.878 153.238 25.7977 152.365 25.79 151.49C25.79 151.347 25.7772 151.213 25.7516 151.086C25.7886 150.415 25.9114 148.599 26.12 145.64C26.3026 143.049 26.4377 141.22 26.5253 140.152L18.2063 121.559C18.2109 121.891 18.2155 122.231 18.22 122.58C18.4148 128.455 18.8477 134.357 19.5185 140.284L26.1805 155.174ZM17.3529 152.605L19.1984 156.73C18.6231 156.829 18.0552 156.972 17.5 157.16C16.655 157.421 15.7881 157.605 14.91 157.71C14.3806 157.748 13.8493 157.748 13.32 157.71C12.6 157.96 11.9 158.19 11.21 158.4C9.87996 158.65 9.07996 158.28 8.81996 157.28V156.83L9.79996 156.48L11.18 156.19C11.5508 156.17 11.9159 156.089 12.26 155.95L12.49 155.71L12.4784 155.716L12.4627 155.724L12.4471 155.732L12.4343 155.738L12.27 155.91C11.9259 156.049 11.5608 156.13 11.19 156.15L9.99183 156.401L9.92196 156.425L9.87996 156.44L9.88818 156.423L9.80996 156.44L9.88996 156.4L9.90205 156.396L10.22 155.76L10.68 155.58L10.6925 155.577L10.69 155.58L10.6983 155.575L11.68 155.34L12.13 155.28L11.9984 155.257L11.68 155.3L10.8293 155.506L10.6983 155.575L10.6925 155.577L10.7324 155.529L10.69 155.54L10.7511 155.507L11.07 155.13L11.47 154.99C11.567 154.959 11.6608 154.919 11.75 154.87H12.4L12.3828 154.83H11.75C11.7147 154.847 11.6789 154.863 11.6425 154.877L11.45 154.98L11.5085 154.924C11.4891 154.929 11.4696 154.935 11.45 154.94L11.5439 154.89L11.92 154.53C12.54 154.32 13.05 154.13 13.46 153.96C14.5119 153.473 15.6065 153.085 16.73 152.8C16.9404 152.743 17.1482 152.678 17.3529 152.605ZM1.94172 101L1.08799 99.0916C1.38477 98.5192 1.70911 97.9613 2.05996 97.4197H2.13996V97.3497C1.89596 97.3299 1.65648 97.2725 1.42996 97.1797C1.2635 97.1129 1.11588 97.0065 0.999961 96.8697C0.489961 96.5797 0.229961 96.2597 0.209961 95.8697C0.285565 95.6585 0.429966 95.4789 0.619961 95.3597C0.828351 95.4469 1.05508 95.4813 1.27996 95.4597C1.66241 95.5059 2.05037 95.4579 2.40996 95.3197C2.59541 95.2357 2.79638 95.1914 2.99996 95.1897C3.1409 95.0418 3.30676 94.92 3.48996 94.8297C3.83563 94.6473 4.1696 94.4436 4.48996 94.2197C4.87159 93.9982 5.28192 93.8336 5.70798 93.7299L5.71996 93.6797C5.72176 93.6743 5.72356 93.669 5.72536 93.6636L7.04381 96.6104C6.76026 96.6652 6.46615 96.6551 6.18418 96.5784C6.15276 96.5761 6.12135 96.5732 6.08996 96.5697C6.402 96.6675 6.73135 96.6823 7.04654 96.6165L8.04845 98.8558C8.03573 98.8672 8.02289 98.8785 8.00996 98.8897C7.55087 99.4086 7.14858 99.9752 6.80996 100.58C6.54318 100.933 6.37417 101.35 6.31996 101.79C6.17996 101.99 6.11996 102.12 6.13996 102.17C6.08816 102.399 6.06134 102.634 6.05996 102.87C6.05798 103.033 6.02333 103.194 5.95806 103.343C5.89279 103.493 5.79823 103.627 5.67996 103.74L5.43996 103.68C5.39494 103.602 5.32427 103.542 5.23996 103.51C5.23996 103.51 5.23996 103.36 5.01996 103.16C4.96606 102.955 4.95423 102.741 4.98516 102.531C5.01419 102.334 5.08034 102.145 5.17996 101.973V101.93L5.17568 101.9C4.97826 102.321 4.88695 102.785 4.90996 103.25C4.89398 103.425 4.86388 103.599 4.81996 103.77C4.81996 103.77 4.75996 103.84 4.81996 103.88C4.76069 104.005 4.66941 104.113 4.5553 104.192C4.44119 104.271 4.30829 104.318 4.16996 104.33C4.15494 104.323 4.13873 104.321 4.1225 104.321C4.10626 104.322 4.0904 104.327 4.07605 104.334C4.06171 104.342 4.04924 104.353 4.03954 104.366C4.02984 104.379 4.02315 104.394 4.01996 104.41L3.81996 104.24C3.53101 103.644 3.44328 102.97 3.56996 102.32C3.58139 102.247 3.58139 102.173 3.56996 102.1C3.84972 101.636 4.10021 101.155 4.31996 100.66C4.15323 100.868 4.00255 101.089 3.86909 101.319C3.81488 101.424 3.75924 101.527 3.7022 101.631C3.6553 101.725 3.6112 101.822 3.56996 101.92C3.53025 102.031 3.49687 102.145 3.46996 102.26C3.40232 102.335 3.35203 102.424 3.32265 102.521C3.29327 102.618 3.28553 102.72 3.29996 102.82C3.29996 102.82 3.22996 102.92 3.22996 103.04C3.1835 103.243 3.13321 103.41 3.07818 103.54L1.9617 101.044L1.99996 101C2.04475 100.719 2.16583 100.456 2.34996 100.24C2.32889 100.263 2.30811 100.286 2.28763 100.31C2.13727 100.512 2.03824 100.749 1.99996 101H1.94172ZM12.6777 92.0413C13.4219 89.1784 13.9876 86.1812 14.3747 83.0498C14.2848 83.3333 14.1932 83.6199 14.1 83.9097C13.4066 85.6697 12.7733 87.363 12.2 88.9897C12.0592 89.3679 11.9255 89.7302 11.7986 90.0766L8.17058 81.9678C8.33331 81.2245 8.51314 80.4849 8.70996 79.7497C9.10805 78.1164 9.58866 76.5043 10.15 74.9197C10.386 74.1467 10.7003 73.401 11.0872 72.694L30.3019 115.639L29.85 118.88C29.9686 118.86 30.0902 118.885 30.1916 118.95C30.293 119.014 30.3672 119.114 30.4 119.23C30.1304 119.903 30.001 120.625 30.02 121.35C29.2261 121.428 28.4308 121.487 27.6348 121.527C27.6235 121.936 27.6119 122.361 27.6 122.8C27.5741 123.595 27.5447 124.393 27.5118 125.196L15.4192 98.1686L15.5131 95.8448C15.0562 95.6856 14.6042 95.52 14.157 95.3478L12.6777 92.0413ZM14.6233 113.551L14.35 115.23C14.18 116.23 14.04 116.99 13.94 117.37C13.7 117.29 13.55 117.37 13.47 117.53L13.6 118.69L13.47 119.76C14.9262 120.365 16.4427 120.807 17.9916 121.079L14.6233 113.551ZM9.45206 157.293L9.13996 156.83H9.09251L9.39996 157.32L9.45206 157.293ZM9.43343 157.494L9.44996 157.52L10.61 156.97C10.6148 156.93 10.6148 156.89 10.61 156.85C10.62 156.824 10.62 156.795 10.61 156.77C10.5962 156.702 10.569 156.637 10.53 156.58L10.5075 156.666C10.5218 156.699 10.5328 156.734 10.54 156.77C10.55 156.795 10.55 156.824 10.54 156.85C10.5448 156.89 10.5448 156.93 10.54 156.97L9.43343 157.494ZM30.75 164.33V164.47H31.37V164.43H30.76V164.17L30.7799 164.16H30.75V164.33ZM32.09 164.23V164.14L32.072 164.104L32.04 164.08V164.19L32.06 164.23H32.09ZM32.4 164.128L32.19 164.19L32.1624 164.169L32.4 164.1V164.128ZM5.78459 100.87C5.51298 101.376 5.32088 101.749 5.19996 101.998V102.05C5.31996 101.8 5.51996 101.41 5.80996 100.87H5.78459ZM2.38176 97.2608C2.35452 97.2609 2.32725 97.2605 2.29996 97.2597C3.10785 97.38 3.93157 97.1946 4.60996 96.7397C4.73391 96.6752 4.86474 96.6249 4.99996 96.5897C4.86515 96.6217 4.73434 96.6686 4.60996 96.7297C3.95444 97.1693 3.16327 97.3572 2.38176 97.2608ZM6.09996 99.9997C5.55709 100.04 5.01342 99.9323 4.52722 99.6874C4.04101 99.4425 3.6306 99.07 3.33996 98.6097C3.28597 98.4224 3.21222 98.2414 3.11996 98.0697H3.03996C3.04544 98.0918 3.0512 98.1139 3.05723 98.1358L3.11996 98.1097C3.21222 98.2814 3.28597 98.4624 3.33996 98.6497C3.63559 99.1026 4.04816 99.4672 4.53402 99.7048C5.01988 99.9425 5.56094 100.044 6.09996 99.9997Z" fill="#A1A1A1"/>
</g>
<defs>
<clipPath id="clip0_232_711">
<rect width="50.94" height="164.85" fill="white"/>
</clipPath>
</defs>
</svg>
