<svg width="93" height="300" viewBox="0 0 93 300" fill="none" xmlns="http://www.w3.org/2000/svg">
<g clip-path="url(#clip0_233_1872)">
<path fill-rule="evenodd" clip-rule="evenodd" d="M78.763 213.558C78.6721 214.978 78.5631 220.838 78.4723 231.138C78.3148 240.844 77.8545 250.859 77.0914 261.183C77.0914 262.494 76.7644 266.315 76.4192 272.703C76.0739 279.091 75.8741 282.603 75.8922 283.076C75.8671 284.194 75.9708 285.312 76.2011 286.406C76.3283 287.025 76.4373 287.48 76.5282 287.789C76.8247 288.761 76.9296 289.781 76.837 290.792C76.837 291.866 75.5834 292.812 73.2941 293.649C70.6813 294.561 67.9854 295.213 65.2452 295.597C62.7206 295.958 60.2207 296.474 57.7595 297.143C56.7168 297.535 55.6196 297.762 54.5073 297.817C54.1621 295.997 56.8874 292.812 62.647 288.445C63.1671 287.886 63.6297 287.276 64.0279 286.625C64.9529 285.073 65.5411 283.343 65.7539 281.547C65.9079 279.852 65.9079 278.147 65.7539 276.452C65.5904 273.74 65.2815 270.628 64.8091 267.134C63.0891 255.002 61.9445 242.87 61.3752 230.738C61.0845 220.346 60.8119 213.868 60.5212 211.302L77.2913 211.484L78.763 213.558Z" fill="#914420"/>
<path fill-rule="evenodd" clip-rule="evenodd" d="M49.329 203.821L50.7281 205.896C50.619 207.315 50.4252 213.175 50.1466 223.476C49.8317 233.181 49.2261 243.196 48.3297 253.521C48.1965 254.831 47.9058 258.671 47.4576 265.041C47.0095 271.41 46.7793 274.868 46.7672 275.414C46.7348 276.423 46.7896 277.434 46.9307 278.435C47.0942 279.508 47.2214 280.382 47.3668 281.055C47.5421 281.84 47.5421 282.654 47.3668 283.439C47.0761 284.349 45.132 284.549 41.5345 284.04C37.7735 283.512 34.2669 283.021 31.1055 282.602C31.8141 282.001 32.5772 281.401 33.4311 280.782C33.963 280.229 34.4322 279.619 34.8301 278.962C35.7822 277.415 36.401 275.686 36.647 273.885C36.8457 272.194 36.8823 270.488 36.756 268.789C36.647 266.078 36.3745 262.966 35.9566 259.472C34.4546 247.279 33.5038 235.147 33.1041 223.075C32.9708 212.666 32.7891 206.181 32.559 203.621L49.329 203.821Z" fill="#914420"/>
<path fill-rule="evenodd" clip-rule="evenodd" d="M27.6714 187.17C27.6714 189.882 27.6714 193.212 27.4534 197.143C27.2353 201.074 27.0173 203.713 26.8356 205.005L26.0725 209.7C25.7636 211.52 25.5093 212.903 25.3276 213.594C24.8915 213.449 24.619 213.594 24.4736 213.886L24.7098 215.997L24.4736 217.944C28.3664 219.565 32.496 220.542 36.7014 220.837C42.6345 221.421 48.6103 221.421 54.5434 220.837C54.5091 219.518 54.744 218.205 55.2339 216.979C55.1743 216.769 55.0396 216.588 54.8553 216.47C54.6711 216.353 54.4501 216.307 54.2346 216.342L55.3065 208.645C55.7426 205.878 56.1423 203.713 56.5239 202.148C57.1303 199.345 57.5611 196.506 57.8139 193.649C58.3105 189.5 59.1341 179.63 60.2849 164.04L28.6525 162.857L27.6714 187.17Z" fill="#7D1520"/>
<path fill-rule="evenodd" clip-rule="evenodd" d="M85.3946 189.936C85.5036 192.775 85.6126 195.486 85.7217 198.071C85.9215 203.257 86.6301 209.918 87.7929 218.089C88.8831 218.198 89.4282 218.526 89.4282 219.035C89.1433 219.725 89.0431 220.478 89.1374 221.219C89.173 221.82 89.3743 222.4 89.7189 222.893C83.791 224.556 77.6975 225.557 71.5498 225.878C67.109 226.258 62.6376 225.719 58.4136 224.294C58.2365 223.154 58 222.025 57.705 220.91C57.4506 220.273 57.5596 219.909 58.0865 219.836C58.0865 219.599 57.8867 218.435 57.5596 216.342C57.464 211.54 57.0512 206.749 56.3241 202.001C55.5005 196.263 54.2892 184.094 52.6903 165.496L83.9048 163.421C84.7769 176.863 85.225 183.943 85.2493 184.658C85.2129 185.295 85.2674 187.079 85.3946 189.936Z" fill="#7D1520"/>
<path fill-rule="evenodd" clip-rule="evenodd" d="M16.025 285.405V286.224C16.4974 288.044 17.9509 288.717 20.3674 288.262C21.6211 287.88 22.8929 287.462 24.2011 287.007C25.1628 287.076 26.1283 287.076 27.09 287.007C28.6856 286.816 30.2606 286.481 31.7958 286.006C34.0942 285.229 36.5115 284.866 38.9362 284.932C40.3534 285.114 42.025 285.369 43.969 285.678C44.7566 285.828 45.5713 285.659 46.2352 285.209C46.899 284.759 47.358 284.064 47.512 283.276C47.6315 282.325 47.5574 281.359 47.294 280.437C47.0178 278.869 46.8719 277.28 46.8579 275.687C46.8579 274.031 45.9131 272.976 44.0054 272.539C41.9444 272.13 39.8052 272.527 38.0278 273.649C37.5247 273.973 37.0451 274.332 36.5924 274.723C34.8129 276.303 32.6923 277.449 30.3968 278.071C28.3556 278.59 26.3667 279.297 24.4555 280.182C23.7105 280.492 22.7839 280.838 21.6574 281.22L20.8035 282.039L21.6574 281.584H22.4205L22.5295 281.838H21.3486C21.1866 281.928 21.0162 282.001 20.8398 282.057L20.1131 282.312L19.4226 283.131L20.0404 282.803L21.2941 282.457L22.039 282.585L21.2214 282.694L19.4045 283.131L18.5687 283.458L17.9509 284.696C19.0645 284.31 20.1988 283.988 21.3486 283.731C21.8186 283.714 22.2784 283.589 22.6931 283.367L22.2752 283.804C21.65 284.058 20.9868 284.206 20.3129 284.241L17.8056 284.768L16.025 285.405ZM44.0417 278.126C44.2735 277.473 44.3361 276.772 44.2234 276.088C44.3362 276.483 44.4272 276.884 44.496 277.289C44.5796 277.665 44.542 278.058 44.3885 278.411C44.2351 278.764 43.9737 279.059 43.642 279.254L42.7336 279.109C43.0282 279.119 43.3178 279.03 43.5552 278.854C43.7927 278.679 43.9641 278.429 44.0417 278.144V278.126ZM17.206 286.297L19.0229 285.369L19.1319 284.95C19.2029 285.055 19.2524 285.172 19.2773 285.296C19.2955 285.343 19.2955 285.395 19.2773 285.442C19.286 285.514 19.286 285.588 19.2773 285.66L17.1697 286.661L16.3521 285.405H16.6064L17.206 286.297Z" fill="#914420"/>
<path fill-rule="evenodd" clip-rule="evenodd" d="M17.8239 284.695L20.3312 284.167C21.005 284.132 21.6683 283.985 22.2935 283.731L22.7113 283.294C22.2967 283.516 21.8368 283.641 21.3668 283.658C20.2171 283.915 19.0827 284.237 17.9692 284.622L17.8239 284.695ZM21.3487 281.765H22.5297L22.4206 281.51H21.6575L20.8036 281.965C20.9917 281.918 21.1743 281.851 21.3487 281.765V281.765ZM21.2215 282.621L22.0391 282.511L21.2942 282.384L20.0405 282.73L19.4227 283.057L21.2215 282.621ZM43.6058 279.272C43.9374 279.077 44.1988 278.782 44.3523 278.429C44.5057 278.075 44.5433 277.683 44.4597 277.307C44.3909 276.901 44.3 276.501 44.1872 276.105C44.2998 276.789 44.2373 277.491 44.0055 278.144C43.9313 278.432 43.7614 278.686 43.5236 278.865C43.2858 279.044 42.9944 279.136 42.6973 279.126L43.6058 279.272ZM16.3522 285.405L17.0426 286.661L19.1502 285.66C19.159 285.587 19.159 285.514 19.1502 285.441C19.1685 285.394 19.1685 285.342 19.1502 285.296C19.1253 285.172 19.0759 285.054 19.0049 284.95L18.8958 285.368L17.0789 286.297L16.4975 285.368L16.3522 285.405Z" fill="#60443D"/>
<path fill-rule="evenodd" clip-rule="evenodd" d="M49.5652 296.634L49.0565 296.889L48.1844 296.78C47.9358 296.698 47.7104 296.558 47.527 296.371C47.3436 296.184 47.2077 295.956 47.1306 295.706C47.123 295.621 47.123 295.536 47.1306 295.451C46.9666 294.856 46.9666 294.227 47.1306 293.631V293.631C47.1366 293.589 47.1366 293.546 47.1306 293.504H47.3123C47.3844 293.491 47.4582 293.491 47.5303 293.504C50.2015 292.796 52.7286 291.625 54.9978 290.046C58.6082 287.931 61.9825 285.436 65.0635 282.603C66.6987 280.783 68.1159 280.255 69.3513 280.783C70.0626 281.121 70.805 281.389 71.568 281.584C71.8176 281.61 72.0622 281.671 72.2947 281.766L73.3849 282.257C73.5595 282.347 73.7091 282.479 73.8201 282.641C73.9312 282.803 74.0001 282.99 74.0208 283.185C74.2152 283.714 74.373 284.255 74.4932 284.805C74.6858 286.262 74.9833 287.704 75.3835 289.118V289.118C75.5054 289.79 75.5541 290.474 75.5288 291.156C75.5288 292.03 75.22 292.594 74.8021 292.831L71.1683 294.323C67.7917 295.7 64.318 296.826 60.7756 297.689C60.6376 297.98 60.4426 298.239 60.2022 298.451C59.9618 298.664 59.6809 298.826 59.3765 298.927C59.1472 299.054 58.9031 299.151 58.6498 299.218C58.439 299.298 58.2065 299.298 57.9957 299.218V299.218C58.3392 298.329 58.5237 297.387 58.5408 296.434V296.434C58.39 297.142 58.1326 297.823 57.7777 298.454C57.7746 298.514 57.7746 298.575 57.7777 298.636L57.4143 299.273C57.3949 299.332 57.3949 299.396 57.4143 299.455C57.1524 299.637 56.8567 299.765 56.5446 299.831C56.2324 299.896 55.9103 299.898 55.5974 299.837V298.745V298.636C55.7791 298.126 55.9244 297.726 55.9971 297.416C56.1674 296.822 56.2829 296.213 56.3423 295.597C56.1031 295.999 55.9255 296.434 55.8154 296.889C55.6432 297.304 55.4976 297.729 55.3793 298.163C55.3793 298.163 55.3793 298.163 55.3793 298.272L54.2165 299.873C53.4171 300.031 52.872 299.904 52.5813 299.491C52.4591 299.256 52.411 298.989 52.4435 298.726C52.4759 298.463 52.5873 298.215 52.763 298.017V298.017C52.93 297.656 53.0756 297.285 53.1991 296.907C53.403 296.311 53.5729 295.703 53.7078 295.087C53.7078 295.087 53.7078 295.087 53.7078 295.087C53.2906 295.547 52.9473 296.069 52.6903 296.634C52.5637 297.011 52.4182 297.382 52.2543 297.744V297.744L51.2005 298.945C50.1285 299.255 49.5289 299.145 49.3836 298.599V297.489C49.5289 297.326 49.6561 297.144 49.7833 296.98C49.9105 296.816 49.7833 296.98 49.7833 296.98L50.1103 296.525C50.2557 296.306 50.401 296.088 50.5827 295.851C51.0136 295.207 51.4079 294.539 51.7637 293.85C51.7284 293.862 51.69 293.862 51.6547 293.85C51.0886 294.247 50.6221 294.77 50.292 295.378C49.965 295.888 49.7106 296.325 49.4926 296.67L49.5652 296.634ZM48.2571 294.814C48.2862 294.914 48.3226 295.011 48.3661 295.105C48.567 295.049 48.7547 294.953 48.9184 294.823C49.0821 294.694 49.2186 294.533 49.3199 294.35C49.4213 294.167 49.4855 293.966 49.5089 293.759C49.5323 293.551 49.5144 293.341 49.4562 293.14C49.4651 293.019 49.4651 292.897 49.4562 292.776C49.316 292.902 49.2044 293.056 49.1291 293.229C49.0539 293.401 49.0167 293.588 49.0202 293.777C49.0437 293.935 49.0087 294.096 48.9216 294.23C48.8346 294.365 48.7016 294.462 48.5478 294.505C48.4094 294.063 48.1734 293.659 47.8574 293.322H47.5303L47.4213 293.613C47.7993 293.934 48.0874 294.348 48.2571 294.814V294.814ZM70.4052 287.826L71.3136 287.972C71.6486 287.779 71.9138 287.485 72.0706 287.132C72.2274 286.778 72.2677 286.384 72.1857 286.006C72.1857 285.624 72.0222 285.224 71.895 284.787C72.0169 285.47 71.9542 286.174 71.7133 286.825C71.6323 287.107 71.4594 287.353 71.2223 287.524C70.9851 287.696 70.6974 287.783 70.4052 287.771V287.826ZM55.8699 299.054V299.309H56.9964V298.982L56.8874 298.781L56.742 299.2H56.0516V298.745H55.8699V299.054ZM52.5631 298.454V298.709C52.7119 298.859 52.8999 298.964 53.1055 299.012C53.3111 299.06 53.5261 299.05 53.726 298.982H53.9076V298.581C53.0355 299.109 52.6358 299.018 52.6722 298.272L52.5631 298.454ZM51.146 297.744C50.4555 298.399 50.1285 298.326 50.183 297.489L50.0013 297.835C50.1621 298.083 50.4075 298.264 50.6917 298.345C50.7702 298.369 50.8539 298.372 50.9339 298.353C51.0139 298.334 51.0872 298.293 51.146 298.235V297.835V297.744ZM58.2501 298.872H58.3954H58.8678V298.763V298.636L58.4317 298.763L58.2137 298.599V298.8L58.2501 298.872Z" fill="#914420"/>
<path fill-rule="evenodd" clip-rule="evenodd" d="M59.2675 298.926L58.7588 299.254H58.5408C58.7958 299.175 59.0399 299.065 59.2675 298.926V298.926ZM57.705 298.617C57.7019 298.556 57.7019 298.495 57.705 298.435C58.0274 297.781 58.2479 297.081 58.3591 296.36V296.36C58.342 297.313 58.1575 298.256 57.814 299.144C57.7968 298.965 57.7602 298.788 57.705 298.617V298.617ZM52.6903 296.633C52.8639 296.064 53.121 295.525 53.4534 295.032C53.4534 295.032 53.4534 295.032 53.4534 295.032C53.3185 295.647 53.1486 296.255 52.9447 296.851C52.8213 297.23 52.6756 297.6 52.5086 297.962C52.4228 297.855 52.3098 297.773 52.1816 297.725C52.3696 297.37 52.5394 297.005 52.6903 296.633V296.633ZM55.7064 296.815C55.8165 296.36 55.9941 295.925 56.2333 295.523C56.1739 296.139 56.0584 296.748 55.8881 297.343C55.8881 297.652 55.67 298.053 55.4884 298.562L55.2703 298.089C55.3848 297.674 55.5243 297.267 55.6882 296.87L55.7064 296.815ZM50.4192 295.305C50.7493 294.696 51.2157 294.173 51.7819 293.776C51.8171 293.788 51.8556 293.788 51.8909 293.776C51.5351 294.465 51.1408 295.133 50.7099 295.778C50.5282 296.014 50.3828 296.233 50.2375 296.451L49.6197 296.669C49.8196 296.306 50.074 295.869 50.401 295.359L50.4192 295.305ZM47.5121 293.266H47.8392C48.1552 293.604 48.3912 294.008 48.5296 294.449C48.6835 294.407 48.8165 294.309 48.9035 294.175C48.9905 294.041 49.0255 293.88 49.002 293.721C48.9985 293.533 49.0357 293.346 49.111 293.173C49.1862 293 49.2978 292.846 49.4381 292.72C49.447 292.842 49.447 292.963 49.4381 293.084C49.4962 293.285 49.5141 293.495 49.4907 293.703C49.4673 293.911 49.4031 294.112 49.3018 294.295C49.2004 294.477 49.064 294.638 48.9002 294.768C48.7365 294.897 48.5488 294.993 48.3479 295.05C48.3045 294.956 48.268 294.858 48.2389 294.759C48.0353 294.317 47.7226 293.935 47.3304 293.649V293.649L47.5121 293.266ZM71.9132 284.677C72.0404 285.114 72.1312 285.514 72.2039 285.896C72.2859 286.274 72.2455 286.668 72.0887 287.022C71.9319 287.375 71.6668 287.669 71.3318 287.861L70.4233 287.716C70.7228 287.724 71.0162 287.63 71.2543 287.447C71.4924 287.265 71.6609 287.007 71.7315 286.715C71.9566 286.079 72.013 285.396 71.895 284.731L71.9132 284.677ZM53.9622 298.508V298.908H53.7805C53.5806 298.976 53.3656 298.987 53.16 298.938C52.9544 298.89 52.7664 298.785 52.6176 298.635V298.453L52.763 298.235C52.6903 298.999 53.0719 299.09 53.944 298.562L53.9622 298.508ZM56.0698 298.671V299.126H56.7602L56.9055 298.708L57.0146 298.908V299.235H55.8881V298.762L56.0698 298.671ZM51.1641 298.198C51.1054 298.256 51.0321 298.296 50.9521 298.316C50.8721 298.335 50.7884 298.332 50.7099 298.307C50.4257 298.227 50.1803 298.046 50.0195 297.798L50.2012 297.452C50.2012 298.289 50.4737 298.362 51.1641 297.707V298.198ZM58.2682 298.635L58.4862 298.799L58.9223 298.671V298.799V298.908H58.4499H58.3046V298.708L58.2682 298.635Z" fill="#60443D"/>
<path fill-rule="evenodd" clip-rule="evenodd" d="M1.98043 185.878C1.88739 186.091 1.7513 186.283 1.58071 186.442L1.03563 186.733C0.806317 186.653 0.598518 186.521 0.428366 186.347C0.258213 186.174 0.130283 185.963 0.054505 185.732C-0.0500943 185.195 0.000328608 184.64 0.199857 184.131C0.453518 183.69 0.666379 183.227 0.835774 182.747C1.64871 180.848 2.62123 179.022 3.74282 177.288H3.88818C3.88818 177.142 3.88818 177.106 3.88818 177.161C3.44485 177.124 3.00973 177.02 2.59817 176.851C2.29573 176.73 2.02752 176.536 1.8169 176.287C0.890282 175.759 0.417886 175.177 0.381548 174.467C0.518913 174.083 0.781277 173.756 1.12648 173.539C1.5051 173.698 1.91705 173.76 2.32564 173.721C3.02051 173.805 3.72539 173.718 4.37874 173.466C4.71569 173.313 5.08083 173.233 5.45072 173.23C5.70679 172.961 6.00815 172.739 6.341 172.575C6.96904 172.243 7.57585 171.872 8.15791 171.464C9.26778 170.819 10.5113 170.439 11.7917 170.354C12.7261 170.254 13.6704 170.397 14.5332 170.77C15.3959 171.143 16.1477 171.734 16.7155 172.484C16.9987 172.77 17.2487 173.087 17.4605 173.43C17.4222 174.835 17.0417 176.209 16.3522 177.434C16.2242 177.909 15.9735 178.342 15.6254 178.689C15.3372 179.168 14.9754 179.598 14.5534 179.963C13.7193 180.907 12.9884 181.939 12.3731 183.039C11.8884 183.682 11.5813 184.441 11.4828 185.241C11.2285 185.605 11.1195 185.841 11.1558 185.932C11.0617 186.35 11.013 186.777 11.0104 187.206C11.0068 187.503 10.9439 187.796 10.8253 188.068C10.7067 188.34 10.5349 188.585 10.32 188.789L9.88397 188.68C9.80217 188.538 9.67376 188.429 9.52058 188.371C9.52058 188.371 9.52058 188.098 9.12087 187.734C9.02294 187.361 9.00143 186.972 9.05764 186.59C9.11384 186.209 9.2466 185.842 9.44791 185.514V185.714C9.66594 185.259 10.0293 184.549 10.5562 183.566H10.4109C10.0202 184.136 9.69135 184.746 9.42974 185.386C9.05311 186.168 8.8782 187.031 8.92101 187.898C8.89196 188.217 8.83728 188.533 8.75748 188.844C8.75748 188.844 8.64847 188.971 8.75748 189.044C8.6498 189.272 8.48394 189.468 8.27662 189.612C8.0693 189.756 7.82782 189.842 7.5765 189.863C7.54921 189.852 7.51976 189.847 7.49026 189.848C7.46076 189.849 7.43194 189.857 7.40587 189.871C7.37981 189.885 7.35715 189.905 7.33953 189.928C7.32191 189.952 7.30976 189.98 7.30396 190.009L6.94058 189.699C6.41558 188.614 6.25619 187.388 6.48635 186.205C6.50712 186.072 6.50712 185.937 6.48635 185.805V185.805C6.99465 184.961 7.44976 184.085 7.84903 183.184C7.2917 183.882 6.83315 184.654 6.48635 185.477C6.41421 185.68 6.35355 185.886 6.30466 186.096C6.18176 186.233 6.09038 186.395 6.03701 186.571C5.98363 186.747 5.96956 186.933 5.99579 187.115C5.99579 187.115 5.8686 187.297 5.8686 187.515C5.63241 188.553 5.3417 189.062 4.96015 189.044C4.96015 189.19 4.86931 189.208 4.8148 189.044C4.40297 189.165 4.16677 189.165 4.1062 189.044L3.63381 188.899C3.05002 187.477 2.87384 185.92 3.12508 184.403H3.27043C3.33137 184.234 3.4171 184.075 3.5248 183.93L3.63381 183.803C3.71519 183.292 3.93518 182.814 4.26973 182.42C3.71217 183.033 3.26909 183.742 2.96155 184.513C2.73767 185.034 2.40282 185.5 1.98043 185.878V185.878ZM6.26832 176.524C5.6233 176.857 4.90419 177.019 4.17888 176.997C5.64674 177.216 7.14336 176.878 8.37593 176.05C8.60115 175.933 8.83884 175.841 9.08453 175.777C8.09152 175.73 7.1081 175.991 6.26832 176.524V176.524ZM13.5359 175.577L13.3906 175.322C12.6727 175.686 11.8643 175.832 11.065 175.741C11.8994 176.003 12.802 175.938 13.5905 175.559L13.5359 175.577ZM11.0831 181.983C10.0968 182.057 9.10898 181.86 8.2256 181.415C7.34221 180.969 6.59653 180.291 6.06846 179.454C5.97037 179.113 5.83638 178.783 5.66874 178.471H5.52339C5.81748 179.662 6.56066 180.694 7.59713 181.348C8.6336 182.003 9.88289 182.231 11.0831 181.983V181.983Z" fill="#914420"/>
<path fill-rule="evenodd" clip-rule="evenodd" d="M9.39341 185.368C9.65502 184.729 9.98392 184.119 10.3745 183.549H10.5199C9.99299 184.531 9.62961 185.241 9.41158 185.696V185.496L9.39341 185.368ZM2.97974 184.477C3.28727 183.706 3.73035 182.997 4.28791 182.384C3.94071 182.786 3.71397 183.278 3.63382 183.803H3.48847L2.97974 184.477ZM7.64918 183.094C7.24992 183.995 6.7948 184.87 6.28651 185.714V185.387C6.6333 184.563 7.09185 183.791 7.64918 183.094V183.094ZM5.66876 178.544C5.83639 178.856 5.97038 179.186 6.06848 179.527C6.6056 180.351 7.35521 181.014 8.23797 181.447C9.12073 181.879 10.1038 182.065 11.0831 181.983C9.89453 182.258 8.646 182.063 7.59704 181.44C6.54809 180.816 5.7794 179.812 5.45073 178.635L5.66876 178.544ZM13.4451 175.305L13.5905 175.559C12.8154 175.918 11.935 175.977 11.1195 175.723C11.9189 175.814 12.7272 175.668 13.4451 175.305V175.305ZM8.37595 176.033C7.14337 176.86 5.64675 177.198 4.17889 176.979C4.90263 177.007 5.62165 176.851 6.26834 176.524C7.10811 175.991 8.09153 175.731 9.08454 175.778C8.83961 175.836 8.60193 175.922 8.37595 176.033V176.033Z" fill="#4F2212"/>
<path fill-rule="evenodd" clip-rule="evenodd" d="M25.0914 97.5613C25.0372 102.77 24.5755 107.966 23.7106 113.103C23.0122 116.365 22.4966 119.664 22.1662 122.984C21.6817 126.309 21.2638 128.693 20.9125 130.136C20.7308 131.447 20.64 132.357 20.6218 132.848C20.6287 133.328 20.8246 133.786 21.1669 134.122C21.7003 134.587 22.2716 135.007 22.8748 135.377C23.7595 135.988 24.7729 136.387 25.8363 136.542C26.4814 136.83 27.1859 136.959 27.8909 136.918C28.596 136.877 29.2808 136.667 29.888 136.306C30.8692 133.976 32.0865 130.609 33.5219 126.169C34.9572 121.729 36.0292 116.633 37.2829 111.228C38.6473 106.644 39.4765 101.918 39.7538 97.1427C39.868 94.3688 39.1188 91.628 37.6099 89.2992C36.4226 87.5005 34.7628 86.0647 32.8133 85.15C31.8726 84.7168 30.8012 84.6642 29.8228 85.0033C28.8444 85.3424 28.0346 86.0469 27.5624 86.9698C25.8951 90.248 25.0472 93.8825 25.0914 97.5613V97.5613Z" fill="#914420"/>
<path fill-rule="evenodd" clip-rule="evenodd" d="M13.1181 175.632C13.8918 175.698 14.6703 175.586 15.3944 175.306C16.1186 175.025 16.7693 174.583 17.297 174.012C18.2988 172.79 19.0018 171.351 19.3501 169.808C20.0223 167.843 20.949 165.222 22.1663 161.947C23.208 158.987 24.3587 155.905 25.6184 152.702C26.6359 149.536 27.5443 146.569 28.3619 143.858C29.1644 140.867 29.7713 137.828 30.1789 134.758C30.4574 131.531 29.3491 129.711 26.8539 129.299C25.932 129.034 24.9618 128.983 24.0172 129.15C23.0727 129.317 22.1786 129.698 21.4032 130.263C20.1027 132.121 19.1032 134.172 18.4416 136.342C17.4218 139.225 16.5486 142.159 15.8253 145.131C15.0099 148.183 14.3549 151.275 13.863 154.394C13.209 157.816 12.5912 160.946 12.0461 163.803C11.5011 166.66 10.9015 168.971 10.3927 170.482C10.0892 171.728 10.0521 173.024 10.2837 174.285C10.3746 175.031 11.3194 175.486 13.1181 175.632Z" fill="#914420"/>
<path fill-rule="evenodd" clip-rule="evenodd" d="M26.1815 80.2366C27.5624 78.2166 29.9244 77.4887 33.2675 78.1074C36.6106 78.7262 38.591 81.4741 39.2814 86.3695C39.9703 95.7882 39.867 105.248 38.9726 114.65C31.5959 116.761 25.1641 116.536 19.677 113.976C19.5036 106.346 20.2726 98.7241 21.9663 91.2831C22.8037 87.408 24.225 83.6832 26.1815 80.2366V80.2366Z" fill="#7D1520"/>
<path fill-rule="evenodd" clip-rule="evenodd" d="M74.2386 79.8911C72.232 81.4629 70.4042 83.251 68.7879 85.2232C59.0978 96.6518 50.5765 101.711 43.2241 100.401C40.3512 100.055 37.613 98.9838 35.266 97.2887C33.4685 95.7903 32.1484 93.7975 31.4687 91.5562C30.5161 89.2332 30.0672 86.734 30.1518 84.2241C30.2364 81.7142 30.8525 79.2509 31.9592 76.9975C34.7179 76.0924 37.2132 74.5241 39.2269 72.4297C40.3968 70.8352 41.0956 68.9434 41.2436 66.9702C41.3128 65.4587 41.2703 63.9441 41.1164 62.4388L41.2981 51.8838C42.8243 51.8838 46.222 51.3742 51.4546 50.6645C53.8776 50.421 56.3223 50.5067 58.7223 50.9193C62.6104 51.4652 65.0088 51.7564 65.9899 51.7746L63.9731 61.0922C63.4793 62.8862 63.3495 64.7612 63.5916 66.6063C63.9265 68.0595 64.6414 69.3973 65.6628 70.4825C66.7045 71.6351 69.3451 74.5104 73.5846 79.1085C73.7662 79.3997 74.0206 79.6363 74.2386 79.8911ZM75.3288 78.8538L75.5468 78.9993C75.479 78.9439 75.406 78.8952 75.3288 78.8538Z" fill="#914420"/>
<path fill-rule="evenodd" clip-rule="evenodd" d="M36.1201 73.6123C33.227 75.6247 30.0885 77.2577 26.7812 78.4713C26.6903 79.4176 26.4723 81.4558 26.1634 84.5859C25.8546 87.716 25.7637 95.9235 25.9636 109.172C28.6041 133.109 27.2172 154.013 21.8029 171.883C38.9423 179.587 60.297 181.613 85.867 177.962C84.1954 155.845 83.0386 133.4 82.3967 110.628C82.1241 103.858 82.0333 97.8889 82.1241 93.0299C82.2831 89.0319 82.0029 85.0285 81.2884 81.0918C79.4715 79.5268 77.9816 78.2529 76.7279 77.3066C75.4743 76.3603 74.2933 75.4867 73.2395 74.6132C72.9761 74.4911 72.693 74.4172 72.4037 74.3948C69.9907 73.9935 67.5137 74.4574 65.4086 75.7051C61.8183 78.2283 58.5213 81.1461 55.5791 84.4039C51.2307 88.9171 47.7604 91.4649 45.1683 92.0472C43.3072 92.6509 41.3094 92.6889 39.4268 92.1564C37.9781 91.5394 36.7983 90.4223 36.1019 89.0081C34.644 86.2889 34.0124 83.2017 34.285 80.1273C34.4149 77.8476 35.0412 75.6239 36.1201 73.6123Z" fill="#FCC89C"/>
<path fill-rule="evenodd" clip-rule="evenodd" d="M36.1201 73.6129C35.0476 75.6259 34.4275 77.8495 34.3032 80.1279C34.0306 83.2023 34.6622 86.2895 36.1201 89.0087C36.8166 90.4229 37.9963 91.54 39.4451 92.157C41.3276 92.6894 43.3255 92.6515 45.1865 92.0478C47.7302 91.4655 51.2126 88.9177 55.6337 84.4045C58.5589 81.1498 61.8375 78.2321 65.4087 75.7057C67.4596 74.454 69.88 73.9524 72.2584 74.2862C72.5478 74.3085 72.8308 74.3825 73.0942 74.5046L70.9866 72.794C70.3546 72.2909 69.7482 71.7564 69.1697 71.1925C68.4974 70.5738 68.0613 70.3008 67.8615 70.3372C65.5132 70.7934 63.319 71.8391 61.4842 73.3763C58.8197 75.6533 56.2899 78.0839 53.9077 80.6557C51.2488 83.6674 47.8832 85.969 44.1145 87.3526C41.0258 88.2808 39.1907 87.5528 38.5548 85.1688C38.0043 83.249 37.6393 81.2806 37.4647 79.2908C37.3695 78.1595 37.4306 77.0204 37.6463 75.9059C37.7731 74.6999 38.2679 73.5624 39.0635 72.6484C38.6759 72.3208 38.3489 72.2662 38.0824 72.4846C37.8486 72.6783 37.5924 72.8433 37.3193 72.9759C37.0831 73.1033 36.6834 73.3035 36.1201 73.6129Z" fill="#7D1520"/>
<path fill-rule="evenodd" clip-rule="evenodd" d="M45.0773 0.163843C49.0905 -0.187278 53.1319 -0.028296 57.1053 0.637C61.438 1.48763 65.6447 2.88806 69.6238 4.80443C74.2184 6.55754 77.9303 10.0659 79.9438 14.5587C82.0313 19.5507 82.7949 24.9984 82.1604 30.3731C81.3246 39.3631 78.0784 45.8053 72.4218 49.6998C67.5767 53.0119 61.4477 54.2676 54.0347 53.4668C47.5924 52.8045 41.382 50.6958 35.8656 47.2976C30.4149 43.9309 27.7622 40.2366 27.9984 36.2512C28.2084 31.3443 28.1538 26.4297 27.8349 21.5287C27.5812 18.8768 27.9973 16.2036 29.0451 13.7549C30.0928 11.3063 31.7385 9.16085 33.8307 7.51598C34.956 5.45767 36.5713 3.70957 38.5333 2.42698C40.4953 1.14438 42.7432 0.366984 45.0773 0.163843V0.163843Z" fill="#4F2212"/>
<path fill-rule="evenodd" clip-rule="evenodd" d="M47.9663 9.64579C51.6383 9.85193 55.2857 10.3756 58.8677 11.2109C62.796 11.9379 66.3096 14.1131 68.7153 17.3073C69.8714 18.8661 70.6722 20.6597 71.0615 22.5619C71.4507 24.4642 71.4189 26.4287 70.9683 28.3173C70.1384 32.3322 69.9422 36.4526 70.3869 40.5284C71.5861 42.8578 72.4763 44.0225 73.0396 44.0225C73.6028 44.0225 73.1668 45.26 71.6951 47.6622C70.0063 50.5946 68.5776 53.6698 67.4253 56.8523C65.9845 60.6721 63.3697 63.9349 59.9579 66.1699C55.593 68.7923 50.4656 69.8452 45.4226 69.1544C40.4067 68.9659 35.5092 67.5742 31.1417 65.0962C27.5516 62.885 24.9837 59.3378 24.0013 55.2327C23.0445 50.133 23.5419 44.8665 25.4367 40.0371C27.1939 35.3056 28.0624 30.2896 27.9985 25.2418C27.7988 21.0672 28.9455 16.939 31.2689 13.4674C33.6915 9.58513 36.326 7.95941 39.1725 8.59029C42.0666 9.2034 45.0095 9.55663 47.9663 9.64579V9.64579Z" fill="#914420"/>
<path fill-rule="evenodd" clip-rule="evenodd" d="M71.7859 42.2928C70.9865 43.3301 69.969 46.442 68.6972 51.6649L68.0249 54.5949L68.8425 54.6859C71.1041 55.0179 73.4084 54.4992 75.3107 53.23C76.2579 52.6374 77.0599 51.839 77.6575 50.894C78.255 49.949 78.6328 48.8815 78.7628 47.7705C79.0355 46.2493 78.7029 44.6816 77.8362 43.4029C77.461 42.8787 76.9751 42.4438 76.4129 42.1292C75.8508 41.8147 75.2263 41.6282 74.5839 41.583C73.7187 41.4884 72.8484 41.708 72.1311 42.2018L71.7859 42.2928Z" fill="#914420"/>
<path fill-rule="evenodd" clip-rule="evenodd" d="M75.7832 15.3961C75.7027 13.8852 75.171 12.4333 74.257 11.2287C73.2431 9.70682 71.6803 8.63722 69.8964 8.24414C71.3611 8.98828 72.6737 10.0006 73.7664 11.2287C74.7641 12.4347 75.456 13.8645 75.7832 15.3961ZM73.7847 17.5428C73.743 15.7147 73.1049 13.9506 71.9678 12.52C71.3662 11.586 70.5833 10.7824 69.6657 10.1572C68.7481 9.53199 67.7145 9.09778 66.6261 8.88037C68.4236 9.78027 70.0332 11.0156 71.3682 12.52C72.5709 13.9717 73.4006 15.6961 73.7847 17.5428ZM69.4421 13.904C70.2795 14.9828 70.7733 16.2891 70.8593 17.6529C70.5513 16.2793 69.9294 14.9961 69.0424 13.904C68.0479 12.7865 66.8521 11.8666 65.5176 11.1925C66.321 11.3547 67.0831 11.6786 67.7577 12.1448C68.4324 12.6109 69.0054 13.2094 69.4421 13.904Z" fill="#914420"/>
<path fill-rule="evenodd" clip-rule="evenodd" d="M79.0899 195.232C77.7526 194.514 76.6162 193.471 75.7847 192.2C74.9532 190.928 74.4529 189.468 74.3296 187.953C74.4155 188.097 74.4654 188.259 74.475 188.426C75.051 191.238 76.7088 193.709 79.0899 195.305H79.2353C79.5086 195.39 79.7757 195.493 80.0347 195.615C80.808 195.835 81.6188 195.891 82.4149 195.778C81.8544 195.662 81.3191 195.446 80.8342 195.141C78.5059 193.478 76.8902 190.995 76.3101 188.19C76.5381 188.638 76.7032 189.116 76.8006 189.609C77.9757 192.218 79.9824 194.362 82.5057 195.706H82.6692C82.9881 195.724 83.3045 195.773 83.614 195.851C83.9753 195.961 84.3611 195.961 84.7224 195.851L84.4135 194.759C83.8469 194.194 83.2396 193.671 82.5966 193.194C80.9172 192.06 79.7292 190.33 79.2716 188.353C79.4873 188.574 79.649 188.842 79.744 189.136C80.3757 190.29 81.2369 191.302 82.2744 192.11C83.3119 192.917 84.5037 193.503 85.7762 193.831L86.085 193.667C86.0751 193.55 86.0235 193.44 85.9397 193.358C85.7896 192.455 85.3418 191.629 84.6678 191.01C83.6153 190.18 82.8812 189.011 82.5899 187.702C82.2985 186.392 82.4678 185.021 83.069 183.822C83.5767 182.444 83.7263 180.96 83.5039 179.508C83.2814 178.057 82.6941 176.685 81.7971 175.524C81.491 175.105 81.099 174.757 80.6475 174.502C80.1959 174.247 79.6952 174.093 79.179 174.048C78.6628 174.003 78.143 174.069 77.6544 174.242C77.1659 174.415 76.7199 174.691 76.3464 175.05L76.0375 175.524L74.9292 178.035C74.1309 179.677 73.5214 181.405 73.1123 183.185C72.5991 185.361 72.7061 187.637 73.4212 189.755C73.8245 191.074 74.5565 192.27 75.5482 193.228C76.5399 194.186 77.7587 194.876 79.0899 195.232V195.232Z" fill="#914420"/>
<path fill-rule="evenodd" clip-rule="evenodd" d="M82.4148 193.194C80.7354 192.059 79.5474 190.33 79.0899 188.353C79.3055 188.574 79.4672 188.842 79.5623 189.136C80.1939 190.29 81.0551 191.302 82.0926 192.109C83.1301 192.917 84.3219 193.503 85.5944 193.831C85.2862 193.914 84.9634 193.928 84.6493 193.871C84.3352 193.814 84.0374 193.689 83.7775 193.503C83.6888 193.418 83.5731 193.366 83.4505 193.358L84.4134 194.759C83.7887 194.186 83.1205 193.663 82.4148 193.194ZM80.8341 195.014C78.5322 193.381 76.9195 190.948 76.31 188.189C76.5381 188.638 76.7031 189.115 76.8006 189.609C77.9757 192.218 79.9823 194.362 82.5057 195.705C81.9137 195.599 81.3467 195.383 80.8341 195.068V195.014ZM74.3296 187.734C74.4155 187.878 74.4653 188.04 74.4749 188.208C75.0509 191.019 76.7088 193.49 79.0899 195.087C77.7622 194.375 76.6321 193.343 75.8012 192.085C74.9702 190.827 74.4645 189.382 74.3296 187.88V187.734Z" fill="#914420"/>
<path fill-rule="evenodd" clip-rule="evenodd" d="M86.5028 102.165C87.8473 112.174 88.6891 119.714 89.0283 124.785C89.2222 131.848 88.8394 138.914 87.8836 145.914C86.8298 154.916 85.0129 166.793 82.4329 181.546L74.9836 179.836C75.3833 172.338 75.5832 165.477 75.5832 159.253C75.5832 153.029 75.668 145.374 75.8375 136.287C75.8505 124.482 75.0918 112.688 73.5664 100.982L85.3944 100.563L86.5028 102.165Z" fill="#914420"/>
<path fill-rule="evenodd" clip-rule="evenodd" d="M83.5776 82.4558C85.8064 84.6032 87.696 88.5947 89.2464 94.4303C91.1131 102.656 92.202 111.04 92.4987 119.471C86.6119 123.887 79.5078 124.494 71.1863 121.291C70.3142 110.882 69.9024 100.466 69.9508 90.0445C70.0841 84.9368 71.8283 81.8674 75.1835 80.8361C76.5919 80.2805 78.1291 80.1377 79.6155 80.4245C81.1019 80.7113 82.4761 81.4158 83.5776 82.4558V82.4558Z" fill="#7D1520"/>
<path fill-rule="evenodd" clip-rule="evenodd" d="M44.0599 54.5952H42.6972C42.0924 54.6386 41.4852 54.6386 40.8803 54.5952C40.269 54.5573 39.6616 54.4721 39.0634 54.3405C38.5002 54.2131 37.8461 54.0311 37.1375 53.8127L35.1571 52.7754V52.8846C34.721 53.3395 34.7574 54.1221 35.1571 55.2504C35.5173 55.8892 36.0481 56.4149 36.69 56.7685C37.3318 57.1221 38.0593 57.2896 38.7909 57.2522C39.4835 57.4151 40.2033 57.4246 40.9 57.28C41.5967 57.1354 42.2534 56.8402 42.8244 56.4151C43.6965 55.4687 44.0962 54.8864 44.0599 54.5952Z" fill="#793118"/>
<path fill-rule="evenodd" clip-rule="evenodd" d="M31.0692 27.1162L28.8525 31.8842C30.8682 31.1198 33.0365 30.8466 35.1784 31.0871C37.3204 31.3276 39.3744 32.0749 41.1712 33.2673L40.7714 28.4265L31.0692 27.1162Z" fill="#914420"/>
<path fill-rule="evenodd" clip-rule="evenodd" d="M54.1983 30.3545L51.9999 35.1225C54.0111 34.3556 56.1757 34.0793 58.3147 34.3167C60.4537 34.554 62.5054 35.2981 64.3003 36.4873L63.9188 31.6466L54.1983 30.3545Z" fill="#914420"/>
<path fill-rule="evenodd" clip-rule="evenodd" d="M39.6449 25.9331L39.009 26.6429C37.6644 26.3517 36.3381 26.1151 34.8301 26.0059C34.0829 25.8982 33.3242 25.8982 32.5771 26.0059C31.3702 26.1304 30.195 26.4693 29.1068 27.0068C29.4707 26.4349 29.962 25.9552 30.5422 25.6056C31.2293 25.2304 31.9712 24.9663 32.7406 24.823C33.3283 24.5943 33.9368 24.4237 34.5575 24.3135C36.0232 24.4833 37.4767 24.6653 38.9181 24.8594C39.2153 25.1214 39.4617 25.436 39.6449 25.7875V25.9331ZM36.4917 30.4742C36.9016 30.7093 37.2578 31.0278 37.5373 31.4093C37.6204 31.5154 37.6968 31.6261 37.7664 31.7408C39.4618 32.4515 40.9986 33.525 42.2611 34.9035C40.9849 34.1752 39.6365 33.5877 38.2396 33.1498C38.271 33.4545 38.2611 33.7628 38.2096 34.0663C38.0609 35.0135 37.5451 35.8636 36.7742 36.4321C36.3886 36.7229 35.9489 36.9338 35.481 37.0525C35.0131 37.1713 34.5262 37.1954 34.0488 37.1236C33.5815 37.068 33.13 36.9188 32.7214 36.6847C32.3129 36.4507 31.9555 36.1367 31.6707 35.7614C31.3858 35.3861 31.1794 34.9572 31.0635 34.5002C30.9477 34.0433 30.9249 33.5677 30.9964 33.1018C31.0429 32.774 31.1352 32.4552 31.2702 32.1545C29.9989 32.2653 28.7429 32.5638 27.5442 33.0473L27.2535 33.2111L26.9446 33.3567C27.869 32.4245 28.9903 31.7117 30.226 31.2708C30.9122 31.0259 31.6241 30.8684 32.3449 30.8001C32.3735 30.7783 32.4025 30.7569 32.4318 30.736C33.216 30.1595 34.1935 29.9115 35.1572 30.0444C35.6271 30.0927 36.0817 30.2391 36.4917 30.4742ZM35.1388 52.8119C35.585 52.2176 36.23 51.8041 36.9558 51.6472C37.9252 51.3171 38.95 51.181 39.9718 51.2468C41.0699 51.3353 42.1005 51.8127 42.8789 52.5935C43.7873 53.3942 44.296 54.0494 44.296 54.5953H44.0962C43.5517 54.7216 43.0219 54.9046 42.5155 55.1413C42.0299 55.3825 41.4949 55.5071 40.9529 55.5052C39.5923 55.3635 38.2517 55.0705 36.9558 54.6317L35.1388 52.8119ZM63.41 28.0617C63.156 27.8264 62.8825 27.6133 62.5923 27.4248C61.9333 26.9519 61.2195 26.5608 60.4666 26.2601C59.5782 25.9526 58.6746 25.6914 57.7594 25.4775L56.4512 25.6413C55.3199 25.7385 54.1967 25.9148 53.0899 26.1691C52.8523 26.2033 52.634 26.319 52.4722 26.4966C52.3733 26.6968 52.2883 26.9035 52.2178 27.1154L52.6539 27.6977C53.9075 27.5703 55.1612 27.3884 56.433 27.17C58.2624 26.9171 60.1251 27.0788 61.8838 27.6431C62.2235 27.7454 62.5571 27.8669 62.883 28.0071C63.06 28.0087 63.2364 28.027 63.41 28.0617ZM51.5274 36.1773C52.4699 35.7991 53.4471 35.5334 54.4394 35.3817C54.0611 35.8631 53.8069 36.4369 53.7076 37.0523C53.6285 37.5177 53.6475 37.9944 53.7632 38.452C53.879 38.9096 54.089 39.3378 54.3799 39.7093C54.6609 40.0892 55.0175 40.4066 55.4272 40.6415C55.8368 40.8764 56.2907 41.0237 56.76 41.0742C57.2374 41.146 57.7242 41.1218 58.1922 41.0031C58.6601 40.8843 59.0997 40.6734 59.4854 40.3826C60.2603 39.8099 60.7766 38.9524 60.9207 37.9986C60.9986 37.5374 60.9808 37.065 60.8682 36.611C60.7991 36.332 60.6951 36.0636 60.5592 35.812C62.558 36.2561 64.4807 36.9984 66.2625 38.0154C64.1432 35.7057 61.2555 34.2498 58.1409 33.9207C56.8211 33.7465 55.479 33.8791 54.2186 34.3083C52.9583 34.7376 51.8136 35.4518 50.8733 36.3957C50.9497 36.3337 51.0356 36.2845 51.1277 36.2501C51.2533 36.1947 51.3903 36.1697 51.5274 36.1773ZM36.8287 46.442C37.1739 47.0608 38.155 46.806 38.155 46.806C38.155 46.806 35.684 46.7514 37.7916 43.6759C37.3624 43.9781 37.0385 44.4075 36.8658 44.9038C36.693 45.4 36.68 45.938 36.8287 46.442ZM39.6448 46.0046C39.8005 45.9706 39.9616 45.9706 40.1172 46.0046C40.2747 46.0214 40.4282 46.0644 40.5715 46.132C40.6397 46.1529 40.6979 46.1983 40.735 46.2594C40.7525 46.2898 40.7618 46.3244 40.7618 46.3595C40.7618 46.3946 40.7525 46.4292 40.735 46.4596H40.626C40.4981 46.4596 40.3851 46.4074 40.2727 46.3556C40.2095 46.3264 40.1464 46.2973 40.0809 46.2776C39.6659 46.2352 39.2466 46.2722 38.8454 46.3868C39.0763 46.1953 39.351 46.064 39.6448 46.0046ZM45.8404 47.7526C45.3135 48.2804 44.4596 47.7526 44.4596 47.7526C44.4596 47.7526 46.8761 48.4441 45.8404 44.8773C46.1394 45.2969 46.3001 45.7995 46.3001 46.3149C46.3001 46.8304 46.1394 47.333 45.8404 47.7526ZM43.3331 46.5507C43.1974 46.4733 43.0502 46.418 42.897 46.3869C42.7346 46.3598 42.5689 46.3598 42.4065 46.3869C42.341 46.3691 42.2721 46.3691 42.2066 46.3869C42.1946 46.4157 42.1885 46.4467 42.1885 46.4779C42.1885 46.5091 42.1946 46.5401 42.2066 46.5689C42.2138 46.59 42.2257 46.6092 42.2415 46.625C42.2572 46.6408 42.2764 46.6527 42.2975 46.6599H42.8607C43.2696 46.7504 43.6579 46.9171 44.0054 47.1512C43.8352 46.8977 43.604 46.6912 43.3331 46.5507ZM75.5384 44.8831C76.0096 45.0436 76.4275 45.3311 76.7461 45.714L71.3863 46.4602C72.1408 45.7049 73.0619 45.1377 74.0753 44.8041C74.561 44.6952 75.0672 44.7226 75.5384 44.8831Z" fill="#4F2212"/>
</g>
<defs>
<clipPath id="clip0_233_1872">
<rect width="92.5532" height="300" fill="white"/>
</clipPath>
</defs>
</svg>
