<svg xmlns="http://www.w3.org/2000/svg" xmlns:xlink="http://www.w3.org/1999/xlink" viewBox="0 0 900.58 1714.06"><defs><style>.cls-1{fill:#681319;}.cls-10,.cls-2{fill:none;stroke-miterlimit:10;stroke-width:5px;}.cls-2{stroke:#0b2d4e;}.cls-3{fill:#0b2d4e;}.cls-4{fill:#ab694f;}.cls-5{fill:#794837;}.cls-6{fill:#f16469;}.cls-7{fill:#061f33;}.cls-8{clip-path:url(#clip-path);}.cls-9{fill:#3d1911;}.cls-10{stroke:#f16469;}.cls-11{fill:#73b8d4;}</style><clipPath id="clip-path"><path class="cls-1" d="M56.23,1165.54c-46.56,161.86-23.79,344,32.19,500.58C107,1718,248.1,1704.68,291.77,1707.3a3787,3787,0,0,0,380.47,3.62c107.76-4.4-8-381.48-23-434.84-28.29-100.65-49.7-203.43-39.4-308.88,7.44-76.11,26-150.86,43.57-225.12l.54-2.28c12.39-52.49,18.82-106.19-9.27-141.94-17.22-21.92-49.57-33.36-74.69-43.52-20.84-8.43-42.06-15.91-62.83-24.51-20.47-8.47-40.34-18.68-61.58-25.2a135.74,135.74,0,0,0-21-5c-26.91-3.77-52.11,7.55-75.26,19.83-30.34,16.09-64.73,24.47-94.2,41.93-31.9,18.89-41.67,55.79-54.83,87.9q-20.07,48.9-36.46,99.22c-9.86,30.34-21,62.18-18.8,94.59,2.1,30.29,19.32,50.88,26.23,78.9,7.36,29.88-15.05,57.92-34,82.14C99.13,1052.66,72.94,1107.47,56.23,1165.54Z"/></clipPath></defs><g id="Layer_2" data-name="Layer 2"><g id="Layer_2-2" data-name="Layer 2"><path class="cls-2" d="M708.9,768.07c55-5,114.35-20.71,153.78-61.74s46.69-109,17.9-158A115.68,115.68,0,0,0,866,528.64c-24.11-26.25-61.67-40.23-78.12-71.85-10.66-20.48-11.36-49.68,4.13-67.79,9.86-11.52,17.22-24.16,14.33-39.76-4.25-22.94-23.3-43.56-43.4-54.26-29.47-15.68-64.6-19.1-97.44-20.13-22.23-.69-44.72-4.78-53.77-27.8-4.88-12.42-5.44-26-7.38-39-4.13-27.84-8.84-55.63-15.66-82.95-7.87-31.5-31.57-60.43-56.81-80.24q-5.43-4.27-11.2-8.09c-64.28-42.65-176.36-49.25-237.9,1.82a102.4,102.4,0,0,0-36.93,69.48c-1.64,18.18-6.11,22.49-23,29.56-30.76,12.86-66.07,23.27-89,48.92-17.95,20.06-24.38,48.47-19.24,74.64,6.56,33.41,31.68,47.3,51.11,72.43,19.84,25.64,9.56,61.28-8.31,85.71-13.77,18.81-34.45,33.57-41.11,55.91-6.13,20.55,1.36,42.92,12.86,61,4.65,7.34,10,14.26,14.19,21.86a89.51,89.51,0,0,1,4.4,76.56"/><path class="cls-3" d="M750.18,758.6c-50.79,23.61-114.35,27.74-165.1,1.63-49.88-25.68-94.78-43.37-152.52-36.8C381,729.3,340.89,761.3,291.41,772c-39.25,8.5-81.23-5-112.65-30-30.67-24.41-53.26-63.95-44.58-102.18,4.54-20,17-37.36,23.18-56.93,14.25-45.14-36.67-66.7-29-113.52,6.54-39.82,46.52-71.58,42.06-111.69-3.27-29.36-28.2-50-38.81-76.41-10.7-26.67-11.85-57.58,0-84A99.92,99.92,0,0,1,174.51,151c16.81-9.14,36.37-11.15,48.46-27.75,21.55-29.6,27.59-60,58.83-83.13C308.24,20.58,345.18,16,377.64,15.86c72.14-.27,145.14,30.86,191.15,87.14,16.3,20,28.68,40.76,31.46,66.05,3,27.64,5.67,55.49,24.87,77.4,16.12,18.4,40.08,27.78,63.6,34.54s47.95,11.71,69.18,23.85,39.22,33.56,39.21,58c0,20.47-12.37,39.44-12.31,59.92.12,37.23,38.23,60.65,63,88.45,34.68,38.92,45.41,97.61,26.74,146.28-21.5,56-68.67,72.71-117.38,97.67C754.86,756.37,752.53,757.5,750.18,758.6Z"/><path class="cls-4" d="M319.85,719.11c7.09-26.93,9.67-56.23,1.87-82.41-7.24-24.26-22.34-46.46-43.48-60.39-10.71-7.06-33.13-1.6-45,1.34-14.23,3.52-28.43,9.78-37.54,21.38s-17.27,22.31-23.57,35.86c-30.57,65.74-61.27,131.68-90.58,198.19C63.2,874.77,42,915.33,26.83,958.36,15.59,990.15,3.94,1024.64,4,1058.71c.06,23,7.21,50.81,28,63.55,21.93,13.43,49.69,8.09,71.63-2.54,62.79-30.39,90.82-112.78,120.06-172A2182,2182,0,0,0,312.22,743.1C315.07,735.44,317.68,727.39,319.85,719.11Z"/><path class="cls-5" d="M155.78,1031.9c2.49.94,4.35,2.88,7.1,3.3,6.07.94,5.79-3.36,7.3-8.48a318.48,318.48,0,0,0,10.64-52.32c2-16.13,6.71-31.65,9.27-47.69,2.28-14.28,2.54-29.31-2.73-42.78-3.05-7.83-9.1-15.64-17.48-16.25-6-.44-11.71,3.05-15.59,7.64S148,885.53,145.45,891c-13.33,28.3-32.92,53.84-57.4,73.38-23.72,18.94-53.77,26.88-77.36,45.47C6.68,1026,4,1042.39,4,1058.7c.06,23,7.21,50.82,28,63.56a52.44,52.44,0,0,0,12.41,5.51,13.74,13.74,0,0,0,2.91-1.17c6.69-3.71,11-13,15.8-18.82a218.16,218.16,0,0,1,18.24-19.49c14-13.28,29.18-25.22,41.57-40.33,3.61-4.4,7.08-9,11.73-12.3C140.56,1031.56,148.92,1029.32,155.78,1031.9Z"/><path class="cls-6" d="M169,764.45q1.84-3.37,3.63-6.76c17-32.36,30.18-66.53,43.63-100.47,6.73-17,13.53-34,20.94-50.66,3.69-8.34,7.53-16.62,11.59-24.79,1.25-2.53,8.08-20.88,10.61-21.4l-54.52,11.31c-13.11,2.72-26.32,5.45-39.7,5.62,11.64,16,16.35,34.3,12.52,54-1.94,9.94-5.93,19.39-7.84,29.34-1.8,9.4-1.71,19-1.62,28.63Q168.6,726.83,169,764.45Z"/><path class="cls-7" d="M611.42,513.05c9,44.71,3.92,80.15-33.7,108.94-30,22.92-68.29,35-104.32,41.59-60.43,11.11-130.5,6.19-182.64-29.23-9.46-6.43-18.87-14.65-21.25-25.84-2.17-10.17,1.94-20.73.81-31.06-1.91-17.44-17.63-29.63-26.22-44.92-11.34-20.19-9.74-45-6-67.86s9.13-46.23,4.44-68.91c-6.09-29.42-28-52.47-46.39-76.23s-34.63-53.64-26.74-82.62c5.2-19.11,22.18-35.85,41.4-41.13,20.31-5.57,42.63,15.11,57.94,26A327.76,327.76,0,0,0,335,258.35c32.38,13.24,66.9,21.32,97.95,37.45,18.78,9.77,39.52,24,50.69,42.49,12.58,20.88.17,45,22.57,62.47,14.46,11.29,34.14,12.78,50.71,20.65C592.38,438.24,604.33,477.75,611.42,513.05Z"/><path class="cls-1" d="M56.23,1165.54c-46.56,161.86-23.79,344,32.19,500.58C107,1718,248.1,1704.68,291.77,1707.3a3787,3787,0,0,0,380.47,3.62c107.76-4.4-8-381.48-23-434.84-28.29-100.65-49.7-203.43-39.4-308.88,7.44-76.11,26-150.86,43.57-225.12l.54-2.28c12.39-52.49,18.82-106.19-9.27-141.94-17.22-21.92-49.57-33.36-74.69-43.52-20.84-8.43-42.06-15.91-62.83-24.51-20.47-8.47-40.34-18.68-61.58-25.2a135.74,135.74,0,0,0-21-5c-26.91-3.77-52.11,7.55-75.26,19.83-30.34,16.09-64.73,24.47-94.2,41.93-31.9,18.89-41.67,55.79-54.83,87.9q-20.07,48.9-36.46,99.22c-9.86,30.34-21,62.18-18.8,94.59,2.1,30.29,19.32,50.88,26.23,78.9,7.36,29.88-15.05,57.92-34,82.14C99.13,1052.66,72.94,1107.47,56.23,1165.54Z"/><g class="cls-8"><path class="cls-4" d="M514.46,600c14.34-14.54,25.23-31.92,30.43-51.81,2.26-8.64,3.26-18.33-1.21-26.05-4-6.86-11.46-10.8-18.69-14.06-64.16-28.86-149.43-25.1-213.56,4.29-7.62,3.49-15.32,7.62-20.32,14.36-5.39,7.28-6.94,16.73-6.93,25.79,0,31.41,20.33,60.13,45.71,77.61,33.76,23.26,75.05,24.52,113.11,12.38C469.44,634.08,495.1,619.64,514.46,600Z"/><path class="cls-9" d="M670.9,1060.18l4.78,1.78c-2.14-.81,1.58-76.23,1.58-81.51-.08-16.05,10.06-51.1-1.4-64.49-14.08-16.44-48.76,4.66-69.39,9a423,423,0,0,1-186.88-2.85c-22.24-5.45-44.18-12.74-67-14.91-32.2-3.07-64.36,4.19-96.57,7.08a353.44,353.44,0,0,1-115.75-8.85c-2.88,6.32-27.09,80-25.53,80.59C288.45,1058.24,494.47,995.82,670.9,1060.18Z"/><path class="cls-10" d="M263.93,537.31c-5.2,33.84,10.95,73.75,32.81,99.56,26.75,31.61,71.14,43,111.49,41.48,93.94-3.61,152.33-87.59,181.83-166.43q2.43-6.5,4.72-13.05"/></g><path class="cls-6" d="M713.15,688c-1.69-5-3.58-10-5.29-15a140.79,140.79,0,0,1-7.51-43.28c-.23-9.84-2.51-19.46-4.85-29-1.26-5.1-2.69-17.67-9.16-19-2.45-.49-7.44,2.19-9.85,2.87-18.18,5.17-32.64,18.64-46.33,31.67a12.75,12.75,0,0,0-3.64,4.79c-.75,2.21-.23,4.62.3,6.89q1.71,7.37,3.36,14.72c6.49,28.89,12.46,57.9,18.67,86.85,3.09,14.44,6.24,28.86,9.55,43.25,1.61,7,3.21,14,4.92,21,1.53,6.22,4.4,6.13,9.95,2.92,35.85-20.77,53.37-66.88,40.7-106.27C713.7,689.61,713.43,688.79,713.15,688Z"/><path class="cls-11" d="M300.41,97.14c16.42-11.81,36.17-18.39,56.16-21.1a215.31,215.31,0,0,1,60.52,1,185.22,185.22,0,0,1,106.07,55.8,165.47,165.47,0,0,1,32.65,51.49c7.55,19.11,10.67,39.55,12.36,59.68s2.19,40.34,4.75,60.1c1.35,9.8,3.5,19.51,7.37,28.41s9.73,16.82,17.82,21.6c8,4.95,17.8,6.43,27.59,6.67s20-.69,30.22-.3c20.29.79,41.11,3.61,59.66,13.44,9.12,4.91,17.6,12.16,22.31,21.88s5.11,20.78,3.47,31.07c-2.06,10.45-7,19.52-10.17,28.78a88.22,88.22,0,0,0-4.77,28.91c0,19.78,6.92,39,15.67,56.89,8.63,18.09,18.62,35.79,25.29,55a121.5,121.5,0,0,1,6.49,29.74,95.13,95.13,0,0,1-2.43,30.28,102.31,102.31,0,0,1-30.51,51.39,101.57,101.57,0,0,0,29.13-51.71c4.54-19.61,1.73-40.14-5.33-58.76-6.86-18.8-17-36.27-25.92-54.38S722.29,505.37,722,484.59a92.47,92.47,0,0,1,4.63-30.5c3.29-9.79,8.08-18.72,9.85-28.16,1.44-9.5,1.12-19.43-3.17-27.88s-11.7-15-20.21-19.53c-17.29-9.11-37.59-11.9-57.31-12.54-9.9-.35-19.88.6-30.21.42s-21.12-1.66-30.44-7.37-15.93-14.72-20-24.28-6.31-19.8-7.67-29.93c-2.52-20.24-2.9-40.42-4.52-60.4s-4.56-39.81-11.77-58.31a167.27,167.27,0,0,0-31.26-50.3,182.11,182.11,0,0,0-103.28-56,213.18,213.18,0,0,0-59.89-2.35C336.87,79.66,317.1,85.72,300.41,97.14Z"/><path class="cls-4" d="M790.37,960.09c-24.91-80.71-52.93-160.48-84.67-238.76-17.62-43.47-37.93-129.17-92.84-138.88-21.56-3.81-43.87,7.61-57.38,24.85-41.5,53-21.89,123.8-3.33,181.22C576.78,864.71,615,934.66,642,1009.42c14.73,40.86,41.34,87.16,90.08,91,11.46.89,22.79-2,33.17-6.73,13.1-6,26.22-13.69,33.88-25.91,14.39-23,6.17-55.61-.68-80.19Q794.61,973.76,790.37,960.09Z"/><path class="cls-4" d="M769.52,1108c32.44-33,54.17-72.39,4-98.17-47.95-24.67-90.24-8.33-125,27.77-12.4,12.86-26.86,23.41-40.91,34.36-14.62,11.39-28.27,23.83-42.09,36.18l-89.5,80c-13.62,12.17-27.82,24.35-39,38.92-9.08,11.83-17.18,28-12.28,43.14,5,15.53,20.5,22.58,36,21,11.11-1.12,21.5-5.8,31.7-10.33,66.51-29.57,132-58.05,191.63-100.46A641.37,641.37,0,0,0,769.52,1108Z"/><path class="cls-4" d="M441.65,604.36c19.08-6.67,34.8-19.6,40.69-40.14,5.35-18.65-3.08-39.63-4.58-58.45a389.36,389.36,0,0,1-.54-54.22c1-16.7,2.47-34.09.12-50.73-1.34-9.51-6.13-7.88-15-11.66s-18.74-3.81-28.34-3.79c-19.64.05-70.86-1.5-83,17.28-5.58,8.63-6,19.48-6.28,29.74-.32,12.4-2.33,28.45-4.2,45.74-.83,7.7-.32,15.37-1.4,23-1.21,8.56-4.19,16.76-6.81,25-9.88,31-.63,60.5,30.16,74.7C384.6,611,416.13,613.28,441.65,604.36Z"/><path class="cls-5" d="M477.24,400.82c-1.34-9.51-6.13-7.88-15-11.66s-18.74-3.81-28.34-3.79c-19.64.05-70.86-1.5-83,17.28-5.58,8.63-6,19.48-6.28,29.74-.32,12.4-2.33,28.45-4.2,45.74-.83,7.7-.32,15.37-1.4,23a114.06,114.06,0,0,1-4.9,19.09,96.08,96.08,0,0,0,60.42,4.09c35.79-9.6,62.9-33.87,82.23-65.42.1-2.46.17-4.91.32-7.36C478.13,434.85,479.6,417.46,477.24,400.82Z"/><path class="cls-4" d="M491.77,268.31c-4.64-28.21-12.78-54.37-23.57-75.45-46.56-91-170-95.69-231.15-15.4-68.19,89.55-8.31,268.3,86.57,319.38a96.16,96.16,0,0,0,83.41,3.1C486.67,464.45,506.28,356.41,491.77,268.31Z"/><path class="cls-5" d="M468.2,192.86c-46.56-91-170-95.69-231.15-15.4-13.51,17.74-21.92,39-26.1,62.06a67.29,67.29,0,0,0,6.75,6.6c11.7,9.88,26.54,15.2,41.28,19.37C302,277.67,347,281.7,391.74,283c3.3.09,6.61.17,9.93.3,12.33.46,24.67,1.53,36.09,6,32.28,12.72,25.66,53,49.95,66.35a20.74,20.74,0,0,0,6.41,2.26,326.6,326.6,0,0,0-2.35-89.58C487.13,240.1,479,213.94,468.2,192.86Z"/><path class="cls-3" d="M405.67,271.17c12.1,2.42,24.11,5.44,34.67,11.7,29.84,17.71,16.87,56.43,38.72,73.48,19.36,15.1,40.78-12.31,44.77-29.73,7.34-32.09,1.3-65.55-4.75-97.91-3.37-18-6.82-36.34-14.89-52.83-8.79-18-22.76-33.08-38.5-45.45C420.23,94.7,358.2,82.22,302.05,94.78c-43.91,9.83-115.8,59.44-72.07,110.39,10,11.62,23.77,19.24,37.66,25.71,40.56,18.89,84.32,30,128.28,38.41C399.16,269.91,402.42,270.51,405.67,271.17Z"/><path class="cls-4" d="M476.42,273.17c33.63-26,53.05,23.21,50.74,49.59-1,10.89-3.48,21.77-8.61,31.42-6.92,13-28.92,36.24-45.37,25.82-7.46-4.72-9.69-14.41-11.28-23.1C457.66,333.6,453.62,290.78,476.42,273.17Z"/><path class="cls-4" d="M507.58,1238.81c-7.23-17.87-24-25.34-41.65-29.87a17.24,17.24,0,0,0-6.6-.72c-4.91.67-8.44,4.84-11.94,8.34-10.17,10.16-27,20.14-41.68,15.23-17.77-5.93-31.68-13.64-51.15-11.66-14,1.41-27.65,5.21-41.64,6.39-8.19.69-16.42.47-24.63.4-4.38-.05-9.59,0-11.11,5.08a10.85,10.85,0,0,0,1.09,7.94c5.8,11.28,21.66,12.19,32.74,12.64,8.95.37,17.72-2.6,26.83-2.38,4.19.1,9.2,1.1,10.73,5,1.76,4.49-2.46,9-6.48,11.66-8.62,5.71-18.31,9.58-27.91,13.41a74.59,74.59,0,0,1-11,3.74c-20,4.55-41.49.8-62,3-5.61.62-12.59,2.88-13,8.51-.38,5,5.13,8.54,10.11,9.34-6.43.75-14.28,2.68-15.81,9-1.11,4.6,2.17,9.36,6.38,11.52s9.13,2.34,13.87,2.47c20.94.6,42,1.19,62.77-1.26a110.55,110.55,0,0,1-36.74,7.3c-7.34.18-14.93-.33-21.77,2.32-1.95.75-4,1.92-4.69,3.87-.91,2.41.52,5.2,2.64,6.66s4.77,1.86,7.33,2.18c15.11,1.85,30.39,1.48,45.61,1.1l-19.38,3.72c-2.83.54-5.74,1.11-8.21,2.63s-4.41,4.21-4.21,7.09,2.34,5.11,4.85,6.31a22.18,22.18,0,0,0,8.12,1.66,233,233,0,0,0,73.32-6.56,282.59,282.59,0,0,0,28.57-9.19c9.88-3.7,19.17-9.19,26.38-17,16-17.29,33.66-36.49,55-46.6l15.2-7.21a125.32,125.32,0,0,1,11.73-5.07c4.7-1.66,9.61-2.76,14.13-4.87C517.58,1268.35,512.5,1251,507.58,1238.81Z"/><path class="cls-4" d="M51.88,1135.34l.44,0c5.09.23,13.54.1,13.54.1s3-8.34,4.69-14.08c1.93-6.72,5.29-13.73,9-21.07,13.68-27.35,36.27-69.18,71-73.49,3.6-.44,7.63-1.23,11.18-1.44,4.3-.25,7.42,2.5,11.55,2.65,6.13.21,5.35-4,6.25-9.28a308.21,308.21,0,0,0,4.33-59.9c0-1.13-.13-2.41-1-3.09a3.84,3.84,0,0,0-2.51-.5,231,231,0,0,0-73,14.61c-22.26,8.35-41.66,21-62.34,32.44-17.18,9.46-34.44,21.62-40.38,41.26-7,23.24-7.34,60.76,10.32,80C23.83,1133.35,38.54,1134.71,51.88,1135.34Z"/><path class="cls-4" d="M176,1036.92c-5.36-4.19-12-6.59-17.55-10.57-4-2.86-11.71-6-14.45-10.07a14.7,14.7,0,0,1-1.83-5.1c-2.13-9.59-3.84-19.5-2.3-29.2,5.54-34.83,41-24,65.59-29.26,7.15-1.54,14.18-3.57,21.54-4.83,16.36-2.8,32.74-6.69,49.31-3.66,13.62,2.5,27.3,5,40.36,9.62a131.92,131.92,0,0,1,14.05,5.89,3.54,3.54,0,0,1,2,1.78c.49,1.49-1.08,2.83-2.49,3.52-9.23,4.53-21.06,4.17-31.07,3.57l-36.22-2.14c6.35,9.24,15.95,15.79,26,20.72s20.77,8.41,31,12.89a175.38,175.38,0,0,1,39.31,23.68c5.13,4.09,10.35,9.06,11.16,15.57a4.33,4.33,0,0,1-.48,3,4.4,4.4,0,0,1-1.8,1.32c-5.77,2.72-12.68,1.92-18.58-.49s-11.08-6.27-16.39-9.8a170,170,0,0,0-43-20.57L319.7,1030c11.37,6.62,22.82,13.28,32.79,21.87,6.05,5.21,11.77,11.6,13,19.48a3.69,3.69,0,0,1-.22,2.48,3.6,3.6,0,0,1-2,1.37c-7.45,2.69-15.54-1.1-22.44-5-22.23-12.51-43.45-27-67-36.9l62.39,40.2c4.4,2.83,9.43,7.5,7.4,12.32a7.77,7.77,0,0,1-3.79,3.71c-7.07,3.52-15.39-.56-22.21-4.52-21.72-12.61-44-25.12-68.56-30.42l27.61,26.49c2.25,2.15,4.56,4.41,5.64,7.33s.49,6.7-2.15,8.35c-3.19,2-7.31,0-10.56-1.87C238.06,1076.14,204.93,1059.58,176,1036.92Z"/><path class="cls-1" d="M526.89,751.84c-3.67-11.88-7.49-24.36-8.91-36.75-1-8.92,1.85-17.72,3.15-26.61a219.24,219.24,0,0,1,44-102.66c6.62-8.45,15.64-24.24,28.57-22.11,12.27,2,33.63,12.61,45.25,17a71.39,71.39,0,0,0,47.4,1,112.07,112.07,0,0,1-22,23.62c-8.24,6.6-17.39,12-25.6,18.64-23.4,18.92-33.24,46.85-39.61,75.23-11.45,51-18,105.13-11.73,157.27.74,6.07,3.79,40.65,9.75,42.81-4.2-1.52-7.17-5.22-9.88-8.78-13.49-17.73-28.29-35.63-33.26-57.83C547.78,805.16,535.27,778.93,526.89,751.84Z"/></g></g></svg>