<svg xmlns="http://www.w3.org/2000/svg" xmlns:xlink="http://www.w3.org/1999/xlink" viewBox="0 0 97.25 365.18"><defs><style>.cls-1,.cls-17,.cls-18{fill:none;}.cls-11,.cls-2,.cls-20{isolation:isolate;}.cls-3{fill:#883a20;}.cls-4{fill:#6e2f18;}.cls-5{fill:#f59c10;}.cls-6{fill:#681319;}.cls-7{clip-path:url(#clip-path);}.cls-8{clip-path:url(#clip-path-2);}.cls-9{fill:#3d1911;}.cls-10{fill:#e73d23;}.cls-11{opacity:0.72;}.cls-11,.cls-20{mix-blend-mode:multiply;}.cls-12{clip-path:url(#clip-path-3);}.cls-13{clip-path:url(#clip-path-4);}.cls-14{fill:#9b4325;}.cls-15{fill:#fff;}.cls-16{fill:#3e1910;}.cls-17,.cls-18{stroke:#3e1910;stroke-miterlimit:10;}.cls-17{stroke-width:0.2px;}.cls-18{stroke-width:0.8px;}.cls-19{fill:#7f3316;}.cls-21{clip-path:url(#clip-path-5);}.cls-22{clip-path:url(#clip-path-6);}.cls-23{fill:#e3dec9;}</style><clipPath id="clip-path" transform="translate(1.93)"><path class="cls-1" d="M7,72.43c-2.87,5-4.38,10.9-5.27,17.61,3.16,2.09,9.66,5.93,12.82,8,3.89,2.57,1.79,8.39,2.28,12.82.65,5.95,3.25,11.86,2.17,17.8-1.1,6.1-3.42,11.77-5.34,17.68-4,12.4-3.83,26-3.87,38.81,0,14.25-.43,28.49-.95,42.72-.33,9.2-.81,67.25-1.37,76.65-.27,4.57-.25,9.26-.88,13.8-.6,4.33-3,8.21-3.48,12.55a5.32,5.32,0,0,0,.24,2.69c.79,1.88,3.11,2.65,5.17,3.2,12,3.23,24,7.51,36.57,8,13.53.55,27-2.16,40-5.43A7,7,0,0,0,88.2,338c2-1.82,1-4.94-.29-7.23-3.32-5.92-2.7-13.18-3.18-19.7q-.84-11.18-2.09-22.31c-2.06-18.41-1.56-37-3.29-55.39q-2-21-3.94-41.92c-1.22-13-1.39-26.4-4.3-39.21-1.25-5.53-3.43-10.86-4.55-16.41-2.06-10.12-.57-28.33.93-38.54l14.77-5.66S80.17,78.33,76.69,73c-2.09-3.2-8.76-4.6-14.58-5.31,0,0-11.27,12.64-22.75,11.58s-17.1-13.12-17.1-13.12C18,67.57,9.14,68.66,7,72.43"/></clipPath><clipPath id="clip-path-2" transform="translate(1.93)"><rect class="cls-1" x="1.66" y="66.05" width="88.61" height="279.29"/></clipPath><clipPath id="clip-path-3" transform="translate(1.93)"><rect class="cls-1" x="22.12" y="37.2" width="0.48" height="1.47"/></clipPath><clipPath id="clip-path-4" transform="translate(1.93)"><rect class="cls-1" x="22.11" y="37.18" width="0.54" height="1.61"/></clipPath><clipPath id="clip-path-5" transform="translate(1.93)"><rect class="cls-1" x="23.76" y="37.8" width="0.53" height="1.62"/></clipPath><clipPath id="clip-path-6" transform="translate(1.93)"><rect class="cls-1" x="23.73" y="37.71" width="0.72" height="1.79"/></clipPath></defs><g id="Layer_2" data-name="Layer 2"><g id="Layer_1-2" data-name="Layer 1"><g class="cls-2"><g class="cls-2"><path class="cls-3" d="M14.55,78.94l-3.17.38a6,6,0,0,0-2,.69c-2.59,1.35-6.7,5.33-6.18,16.9.75,16.76,3.41,23.92,2.34,30.56s-5.15,16.7.73,41.83c0,0,1.3,13.61-1.68,21.12A15.26,15.26,0,0,0,3.25,195c0,1.67.69,1.7,1,4.56.22,2,0,4.26,1.48,6.59.61,1,1.46,3.48,2.78,4.46,1.12.84,2.13-.08,3,.36,2.59,1.3,4.06,1,4.78,0,1-1.23-2.84-1.95-3.72-2.63,0,0,3.59,1.58,4.35.27s-3.68-3.06-4.35-3.87a13,13,0,0,1-1.86-6.85A23.4,23.4,0,0,1,12,192.75s1.11,3.18.7,4.71-.48,7.31,2.57,6.94l.77-.09a15,15,0,0,0,0-3c-.14-2,.46-6.93.31-8.2s-1.09-8.9-2.58-11.85-.92-20.69,2-27.58,1-19.35,1.15-20.92.91-8.42.62-11c-.16-1.44.15-14.61-.06-26" transform="translate(1.93)"/><path class="cls-4" d="M9.7,205.61a29.4,29.4,0,0,1-2.18-5.83s.13,3.77,2.18,5.83" transform="translate(1.93)"/><path class="cls-4" d="M5.81,202.88s-.51-5.12-.55-5.38,1,3.55.55,5.38" transform="translate(1.93)"/><path class="cls-5" d="M22.26,66.17C18,67.57,9.14,68.66,7,72.43c-2.87,5-4.38,10.9-5.27,17.61,3.16,2.09,9.66,5.93,12.82,8,3.9,2.57,1.79,8.39,2.28,12.82.65,5.95,3.25,11.86,2.17,17.8-1.1,6.1-3.42,11.77-5.34,17.68-4,12.4-3.83,26-3.87,38.81,0,14.25-.43,28.49-.95,42.72-.33,9.2-.81,67.25-1.36,76.65-.28,4.57-.26,9.26-.89,13.8-.6,4.33-3,8.21-3.48,12.55a5.32,5.32,0,0,0,.24,2.69c.79,1.88,3.11,2.65,5.17,3.2,12,3.23,24,7.51,36.57,8,13.53.55,27-2.16,40-5.43A7,7,0,0,0,88.2,338c2-1.82,1-4.94-.29-7.23-3.31-5.92-2.7-13.18-3.18-19.7q-.84-11.18-2.09-22.31c-2-18.41-1.56-37-3.29-55.39q-2-21-3.94-41.92c-1.22-13-1.39-26.4-4.3-39.21-1.25-5.53-3.43-10.86-4.55-16.42-2.06-10.11-.57-28.32.93-38.53l14.77-5.66S80.17,78.33,76.69,73c-2.09-3.2-8.76-4.6-14.58-5.31,0,0-11.27,12.64-22.75,11.58s-17.1-13.12-17.1-13.12" transform="translate(1.93)"/><path class="cls-6" d="M22.26,66.17C18,67.57,9.14,68.66,7,72.43c-2.87,5-4.38,10.9-5.27,17.61,3.16,2.09,9.66,5.93,12.82,8,3.9,2.57,1.79,8.39,2.28,12.82.65,5.95,3.25,11.86,2.17,17.8-1.1,6.1-3.42,11.77-5.34,17.68-4,12.4-3.83,26-3.87,38.81,0,14.25-.43,28.49-.95,42.72-.33,9.2-.81,67.25-1.36,76.65-.28,4.57-.26,9.26-.89,13.8-.6,4.33-3,8.21-3.48,12.55a5.32,5.32,0,0,0,.24,2.69c.79,1.88,3.11,2.65,5.17,3.2,12,3.23,24,7.51,36.57,8,13.53.55,27-2.16,40-5.43A7,7,0,0,0,88.2,338c2-1.82,1-4.94-.29-7.23-3.31-5.92-2.7-13.18-3.18-19.7q-.84-11.18-2.09-22.31c-2-18.41-1.56-37-3.29-55.39q-2-21-3.94-41.92c-1.22-13-1.39-26.4-4.3-39.21-1.25-5.53-3.43-10.86-4.55-16.42-2.06-10.11-.57-28.32.93-38.53l14.77-5.66S80.17,78.33,76.69,73c-2.09-3.2-8.76-4.6-14.58-5.31,0,0-11.27,12.64-22.75,11.58s-17.1-13.12-17.1-13.12" transform="translate(1.93)"/></g><g class="cls-7"><g class="cls-2"><g class="cls-8"><rect class="cls-9" x="9.73" y="153.96" width="38.9" height="27.55"/><rect class="cls-9" x="9.73" y="227.4" width="38.9" height="27.55"/><rect class="cls-9" x="9.55" y="80.5" width="38.9" height="27.55"/><rect class="cls-9" x="58.35" y="117.24" width="38.9" height="27.55"/><rect class="cls-9" x="58.35" y="190.68" width="38.9" height="27.55"/><rect class="cls-9" x="9.73" y="300.88" width="38.9" height="27.55"/><rect class="cls-9" x="58.35" y="264.16" width="38.9" height="27.55"/><rect class="cls-10" x="87.52" y="264.16" width="9.73" height="9.18"/><rect class="cls-9" x="77.8" y="254.97" width="9.73" height="9.18"/><rect class="cls-9" x="68.07" y="254.97" width="9.73" height="9.18"/><rect class="cls-9" x="58.35" y="264.16" width="9.73" height="9.18"/><rect class="cls-10" x="48.63" y="273.34" width="9.72" height="9.18"/><rect class="cls-9" x="48.63" y="273.34" width="9.72" height="9.18"/><rect class="cls-9" x="58.35" y="282.52" width="9.73" height="9.18"/><rect class="cls-9" x="68.07" y="291.7" width="9.73" height="9.18"/><rect class="cls-9" x="77.8" y="291.7" width="9.73" height="9.18"/><rect class="cls-10" x="87.52" y="282.52" width="9.73" height="9.18"/><rect class="cls-10" x="48.63" y="310.07" width="9.72" height="9.18"/><rect class="cls-9" x="38.9" y="300.89" width="9.73" height="9.18"/><rect class="cls-9" x="29.17" y="291.7" width="9.73" height="9.18"/><rect class="cls-9" x="19.45" y="291.7" width="9.73" height="9.18"/><rect class="cls-9" x="9.72" y="300.89" width="9.73" height="9.18"/><rect class="cls-10" y="310.07" width="9.73" height="9.18"/><rect class="cls-10" y="310.07" width="9.73" height="9.18"/><rect class="cls-9" x="9.72" y="319.25" width="9.73" height="9.18"/><rect class="cls-9" x="19.45" y="328.43" width="9.73" height="9.18"/><rect class="cls-9" x="29.17" y="328.43" width="9.73" height="9.18"/><rect class="cls-9" x="38.9" y="319.25" width="9.73" height="9.18"/><rect class="cls-9" x="48.63" y="310.07" width="9.72" height="9.18"/><rect class="cls-9" x="58" y="337.63" width="38.9" height="27.55"/><rect class="cls-10" x="87.17" y="337.62" width="9.73" height="9.18"/><rect class="cls-9" x="77.45" y="328.43" width="9.73" height="9.18"/><rect class="cls-9" x="67.72" y="328.43" width="9.72" height="9.18"/><rect class="cls-9" x="58" y="337.62" width="9.73" height="9.18"/><rect class="cls-10" x="87.52" y="190.69" width="9.73" height="9.18"/><rect class="cls-10" x="77.8" y="181.51" width="9.73" height="9.18"/><rect class="cls-9" x="68.07" y="181.51" width="9.73" height="9.18"/><rect class="cls-9" x="58.35" y="190.69" width="9.73" height="9.18"/><rect class="cls-10" x="48.63" y="199.88" width="9.72" height="9.18"/><rect class="cls-9" x="48.63" y="199.88" width="9.72" height="9.18"/><rect class="cls-9" x="58.35" y="209.06" width="9.73" height="9.18"/><rect class="cls-9" x="68.07" y="218.24" width="9.73" height="9.18"/><rect class="cls-9" x="77.8" y="218.24" width="9.73" height="9.18"/><rect class="cls-10" x="87.52" y="209.06" width="9.73" height="9.18"/><rect class="cls-10" x="48.63" y="236.61" width="9.72" height="9.18"/><rect class="cls-9" x="38.9" y="227.42" width="9.73" height="9.18"/><rect class="cls-9" x="29.17" y="218.24" width="9.73" height="9.18"/><rect class="cls-9" x="19.45" y="218.24" width="9.73" height="9.18"/><rect class="cls-9" x="9.72" y="227.42" width="9.73" height="9.18"/><rect class="cls-10" y="236.61" width="9.73" height="9.18"/><rect class="cls-10" y="236.61" width="9.73" height="9.18"/><rect class="cls-9" x="9.72" y="245.79" width="9.73" height="9.18"/><rect class="cls-9" x="19.45" y="254.97" width="9.73" height="9.18"/><rect class="cls-9" x="29.17" y="254.97" width="9.73" height="9.18"/><rect class="cls-9" x="38.9" y="245.79" width="9.73" height="9.18"/><rect class="cls-9" x="48.63" y="236.61" width="9.72" height="9.18"/><rect class="cls-10" y="273.34" width="9.73" height="9.18"/><rect class="cls-10" y="273.34" width="9.73" height="9.18"/><rect class="cls-10" x="87.52" y="117.23" width="9.73" height="9.18"/><rect class="cls-10" x="77.8" y="108.05" width="9.73" height="9.18"/><rect class="cls-10" x="68.07" y="108.05" width="9.73" height="9.18"/><rect class="cls-9" x="58.35" y="117.23" width="9.73" height="9.18"/><rect class="cls-10" x="48.63" y="126.42" width="9.72" height="9.18"/><rect class="cls-9" x="48.63" y="126.42" width="9.72" height="9.18"/><rect class="cls-9" x="58.35" y="135.6" width="9.73" height="9.18"/><rect class="cls-9" x="68.07" y="144.78" width="9.73" height="9.18"/><rect class="cls-10" x="77.8" y="144.78" width="9.73" height="9.18"/><rect class="cls-10" x="87.52" y="135.6" width="9.73" height="9.18"/><rect class="cls-10" x="48.63" y="163.15" width="9.72" height="9.18"/><rect class="cls-9" x="38.9" y="153.96" width="9.73" height="9.18"/><rect class="cls-9" x="29.17" y="144.78" width="9.73" height="9.18"/><rect class="cls-9" x="19.45" y="144.78" width="9.73" height="9.18"/><rect class="cls-9" x="9.72" y="153.96" width="9.73" height="9.18"/><rect class="cls-10" y="163.15" width="9.73" height="9.18"/><rect class="cls-10" y="163.15" width="9.73" height="9.18"/><rect class="cls-9" x="9.72" y="172.33" width="9.73" height="9.18"/><rect class="cls-9" x="19.45" y="181.51" width="9.73" height="9.18"/><rect class="cls-9" x="29.17" y="181.51" width="9.73" height="9.18"/><rect class="cls-9" x="38.9" y="172.33" width="9.73" height="9.18"/><rect class="cls-9" x="48.63" y="163.15" width="9.72" height="9.18"/><rect class="cls-10" y="199.88" width="9.73" height="9.18"/><rect class="cls-10" y="199.88" width="9.73" height="9.18"/><rect class="cls-10" x="48.63" y="89.68" width="9.72" height="9.18"/><rect class="cls-10" x="38.9" y="80.5" width="9.73" height="9.18"/><rect class="cls-10" x="29.17" y="71.32" width="9.73" height="9.18"/><rect class="cls-10" x="19.45" y="71.32" width="9.73" height="9.18"/><rect class="cls-10" x="9.72" y="80.5" width="9.73" height="9.18"/><rect class="cls-10" y="89.68" width="9.73" height="9.18"/><rect class="cls-10" y="89.68" width="9.73" height="9.18"/><rect class="cls-9" x="9.72" y="98.87" width="9.73" height="9.18"/><rect class="cls-9" x="19.45" y="108.05" width="9.73" height="9.18"/><rect class="cls-9" x="29.17" y="108.05" width="9.73" height="9.18"/><rect class="cls-9" x="38.9" y="98.87" width="9.73" height="9.18"/><rect class="cls-9" x="41.4" y="89.68" width="16.95" height="9.18"/><rect class="cls-10" y="126.42" width="9.73" height="9.18"/><rect class="cls-10" y="126.42" width="9.73" height="9.18"/><rect class="cls-9" x="68.18" y="199.87" width="19.23" height="9.18"/><rect class="cls-10" x="68.18" y="126.42" width="19.23" height="9.18"/></g></g></g><g class="cls-2"><path class="cls-3" d="M71.65,78.94l3.17.38a6,6,0,0,1,2,.69c2.59,1.35,6.7,5.33,6.18,16.9-.75,16.76-3.41,23.92-2.34,30.56s5.15,16.7-.73,41.83c0,0-1.3,13.61,1.68,21.12A15.26,15.26,0,0,1,83,195c0,1.67-.69,1.7-1,4.56-.22,2,0,4.26-1.48,6.59-.61,1-1.46,3.48-2.78,4.46-1.12.84-2.13-.08-3,.36-2.59,1.3-4.06,1-4.78,0-1-1.23,2.84-1.95,3.72-2.63,0,0-3.59,1.58-4.35.27s3.68-3.06,4.35-3.87a13,13,0,0,0,1.86-6.85,23.4,23.4,0,0,0-1.25-5.12s-1.11,3.18-.7,4.71S74,204.77,71,204.4l-.77-.09a15,15,0,0,1,0-3c.14-2-.46-6.93-.31-8.2s1.09-8.9,2.58-11.85.92-20.69-2-27.58-1-19.35-1.14-20.92-.92-8.42-.63-11c.16-1.44-.15-14.61.06-26" transform="translate(1.93)"/><path class="cls-4" d="M76.5,205.61a29.4,29.4,0,0,0,2.18-5.83s-.13,3.77-2.18,5.83" transform="translate(1.93)"/><path class="cls-4" d="M80.39,202.88s.51-5.12.55-5.38-1,3.55-.55,5.38" transform="translate(1.93)"/><g class="cls-11"><g class="cls-12"><g class="cls-2"><g class="cls-13"><path class="cls-14" d="M22.12,37.2a6.26,6.26,0,0,1,.43,1.47,1.42,1.42,0,0,0-.43-1.47" transform="translate(1.93)"/></g></g></g></g><path class="cls-15" d="M22.21,64.11c1.47.4,3.86-1.54,5.35-1.21a11.29,11.29,0,0,0,4.76-.31,31.29,31.29,0,0,0,6.12-1.75,9.84,9.84,0,0,0,4.72-3.93c1.42-2.53,1.07-5.63.15-8.36a16.74,16.74,0,0,0-3.59-6.23,12.07,12.07,0,0,0-6.36-3.63,6.31,6.31,0,0,0-4.39.54,7.5,7.5,0,0,0-2.73,3.86,9.48,9.48,0,0,0-.68,2.24,10.79,10.79,0,0,0,.14,2.89,56.8,56.8,0,0,1,.5,8.24,4.44,4.44,0,0,1-.79,3.06,2.85,2.85,0,0,1-1.6,1l-1.26-.18" transform="translate(1.93)"/><path class="cls-3" d="M29.57,58.36c.46-2,.66-6.81,0-8.75a2.52,2.52,0,0,0-1.06-1.48,3.25,3.25,0,0,0-2.35.11,22.42,22.42,0,0,1-8.55.75,6.33,6.33,0,0,1-2.68-.76A2.54,2.54,0,0,1,13.58,46c.08-1,.91-2.22.16-2.91a5.24,5.24,0,0,0-.61-.44,1.31,1.31,0,0,1,.13-2.26A2.12,2.12,0,0,1,12,38.57a.56.56,0,0,1,.11-.41c.46-.63,1.31-2,1-2.52-.2-.3-.62-.35-.93-.54a1.44,1.44,0,0,1-.4-1.75,6.46,6.46,0,0,1,1.11-1.6,12,12,0,0,0,2-6,36.52,36.52,0,0,1,.9-6.35c1.36-4.53,5.28-7.89,9.31-10.55C30.89,5,38.33,3.94,45.18,5.24c3.66.7,14.16,3.86,14.42,15.56.09,4.26-2.25,8.18-4.83,11.64s-4.63,5-5.6,9.11a18,18,0,0,0,.16,7.93c1.45,6.51,5.22,12.3,9.28,17.67a30.16,30.16,0,0,1,4.52,7.17c1,2.64,1.11,5.77-.51,8.11C60.18,86,43.43,83,37.09,80.28,34,79,30.81,78,27.85,76.43c-2.23-1.15-6.19-3.15-6.38-5.59-.1-1.24,5.56-7.69,8.1-12.48" transform="translate(1.93)"/><path class="cls-16" d="M16.66,40.18a5.05,5.05,0,0,0-1-1,4.42,4.42,0,0,0-1.42-1c-1.92-.44-2.16-.08-2.24.08a1.91,1.91,0,0,0,.87,1.84,1.32,1.32,0,0,0,.33.18,1.38,1.38,0,0,0,.21,2.5,9.2,9.2,0,0,0,2-1.24,8.05,8.05,0,0,0,1.24-1.3s0,0,0,0l0,0s0,0,0,0" transform="translate(1.93)"/><path class="cls-16" d="M13.45,42.84s4-1.34,5.56-3.11c0,0-1,.88-3.07-.31" transform="translate(1.93)"/><path class="cls-16" d="M15.49,34.94a1.24,1.24,0,0,0-.46-.2,2.48,2.48,0,0,0-.77,0,.62.62,0,0,0-.3.12.18.18,0,0,0-.06.25.24.24,0,0,0,.14.1c.29.09.6-.07.91-.07a2.38,2.38,0,0,1,1,.35s0-.26-.5-.57" transform="translate(1.93)"/><path class="cls-16" d="M18.63,21.14a35.19,35.19,0,0,1,5.16,0,4,4,0,0,1,1.19.24,7,7,0,0,1,3.08,3.36s-1-1-1.4-1.28c-2-1.42-5-.95-7.4-.68-.4,0-.94-1.52-.63-1.65" transform="translate(1.93)"/><path class="cls-16" d="M16,36.12s1,.31,1.43-.12c.69-.65,0-1.84-.52-2.15,1.69,2.52-.91,2.27-.91,2.27" transform="translate(1.93)"/><path class="cls-17" d="M16,36.12s1,.31,1.43-.12c.69-.65,0-1.84-.52-2.15C18.64,36.37,16,36.12,16,36.12Z" transform="translate(1.93)"/><path class="cls-16" d="M21.71,26.63a3.27,3.27,0,0,1-.1,1.8c-.25.66-.94,1.42-1.7,1.31s-1.31-1.42-.51-3.1a5.15,5.15,0,0,1,2.31,0" transform="translate(1.93)"/><path class="cls-16" d="M21.64,26.57a5.19,5.19,0,0,1,3,1.75c.27.21.5.28.77.06a1.34,1.34,0,0,1-.66-.47,4.4,4.4,0,0,0-3.09-1.68c-1.23-.13-2.47.25-3.2-.08.61.81,1.32.21,3.15.42" transform="translate(1.93)"/><path class="cls-18" d="M21.64,26.57a5.19,5.19,0,0,1,3,1.75c.27.21.5.28.77.06a1.34,1.34,0,0,1-.66-.47,4.4,4.4,0,0,0-3.09-1.68c-1.23-.13-2.47.25-3.2-.08C19.1,27,19.81,26.36,21.64,26.57Z" transform="translate(1.93)"/><path class="cls-16" d="M63.59,12.21c.57-1.49-6,2.45-6.65,1s-.55-1.59-2.21-1.43c.9-.66-1.62-10-3.08-9.31,0-1.6-13.58-3-14.19.54l-.31.25a18.61,18.61,0,0,0-13.39,6.2c5.16,2.11,6.91,2.73,9.87,6.74C36.44,20,35.56,21,37,25.43c.38,1.2,1,2.61,2.37,2.76a4.44,4.44,0,0,0,2.26-.65c1.53-.72,3.79-.94,4.57.49.57,1,0,2.28-.76,3.2a7.19,7.19,0,0,0-1.87,2.93c-.13.73.06,1.47,0,2.2s-.64,1.51-1.41,1.48c1,2.87,2.68,15.13,5.44,16.65,5,2.78,4.9,13.22,6.48,12.41a5.25,5.25,0,0,1,1.07-.51,5.82,5.82,0,0,1,1.56,0A4,4,0,0,0,60,64.63a3.37,3.37,0,0,1,1-1.31,3.4,3.4,0,0,1,1.32-.24c2.72-.22,5-17.85,4.72-20.41a2.75,2.75,0,0,1,0-1.34,2.74,2.74,0,0,1,1-1,6.23,6.23,0,0,0-.37-10.43,10.34,10.34,0,0,0,1.92-5.22,4.4,4.4,0,0,0-3-4.35c-.46-.12-1.06-.27-1.08-.72a1,1,0,0,1,.24-.58,4.48,4.48,0,0,0-2-6.32" transform="translate(1.93)"/><path class="cls-15" d="M58.43,64.2a2.63,2.63,0,0,1-1.86,2.69,8.84,8.84,0,0,1-3.63.29l-16.2-1c-2.14-.13-4.27-.27-6.38-.61-2.38-.39-6.29-4.16-6.66-4.39a1.89,1.89,0,0,0-.95-.2c-2.89-.09-5.95.12-8.33,1.66a14.08,14.08,0,0,0-4.09,4.69A86.56,86.56,0,0,0,3,82a3.51,3.51,0,0,0-.33,2.12,3.52,3.52,0,0,0,1.4,1.69c7.05,5.4,16.55,6.92,25.62,7.29S48,92.91,56.79,94.87c4.31,1,8.45,2.5,12.76,3.44s9,1.21,13.07-.34c2.18-.82,4.25-2.28,5-4.39,1-3-1.11-6.27-4-7.82a2.38,2.38,0,0,1-1-.77,2.21,2.21,0,0,1-.07-1.46c.4-2.57-.94-5.75-3.68-6.08-1-.13-2.29.12-3-.61s-.32-1.91-.26-2.92c.17-2.94-2.83-5.06-5.48-6.6-3.86-2.23-8.5-5-13-4.41" transform="translate(1.93)"/><path class="cls-15" d="M73.32,71c-.56-.19-.31-.34,0,0m3.92,2.36a8.37,8.37,0,0,0-2.16-1.65l-.4-.21c.51-1,1.11-2,1.56-2.94a4.38,4.38,0,0,0-1.66-6,2.74,2.74,0,0,0-3.86.31s2.34-1.18,3.07-5.61c1.36-8.22,1.11-24.09-2.07-31.95-1.7-4.19-1.74-6-3.76-10-1.63-3.27-6.6-10-10.24-11.25-4-1.33-6.27-2.87-10.33-3.91-3.73-1-18.12,3.36-18.45,5.28,0,.21,1-.53,2.79-1.15a8.48,8.48,0,0,1,2.15-.5,4.09,4.09,0,0,1,3.19.94C48.42,20.33,46.27,32,47.24,43.59c.54,6.52-2.18,16.85-5.4,18.72-3,1.74-7.79,2-10.85,2.11a9.74,9.74,0,0,1-4.36-.92,6.6,6.6,0,0,1-2.86-2.72,1.36,1.36,0,0,0-1.22-.47c-2.89-.09-7.5.14-9.89,1.68-1.78,1.15-4.09,4.69-4.09,4.69-2.66-.64-3.73,7-5.25,11.14-.49,1.25-.89,2.46-1.23,3.53s-.7,2.34-1,3.56h0a33.14,33.14,0,0,0-1,9.3c.37,6.56,12.76,7.09,17.69,7.37a99.87,99.87,0,0,0,19.93-.83c10.27-1.48,21.1-3.74,29.82-9.34C71.5,88.84,76,85.36,78,81.1a6.74,6.74,0,0,0-.79-7.71" transform="translate(1.93)"/><path class="cls-16" d="M41.63,31.66a.44.44,0,0,0-.33-.13h-.41l.37.17a.48.48,0,0,1,.29.53c0,.23-.2.71-.48.8l-.33.1.35.07h.06c.14,0,.6-.06.69-.91a.94.94,0,0,0-.21-.63" transform="translate(1.93)"/><path class="cls-16" d="M44.51,28.52S40.69,28,40.69,31c0,0-.08.42.26.54,0,0-.2-1.72.9-2.27a6.38,6.38,0,0,1,2.66-.76" transform="translate(1.93)"/><path class="cls-19" d="M41.79,17.06c-.28-.47-1.28-2.57-1.75-3.37a41,41,0,0,0-3-4.33" transform="translate(1.93)"/><path class="cls-19" d="M37.31,13.91a7.2,7.2,0,0,1,1.75,2.6,45.81,45.81,0,0,1,2.49,6.54" transform="translate(1.93)"/><g class="cls-20"><g class="cls-21"><g class="cls-2"><g class="cls-22"><path class="cls-14" d="M23.76,37.8a6.61,6.61,0,0,1,.46,1.62,1.55,1.55,0,0,0-.46-1.62" transform="translate(1.93)"/></g></g></g></g><path class="cls-23" d="M70.72,62.91S62.89,75.56,42.6,78.61c0,0,23,.47,28.12-15.7" transform="translate(1.93)"/><path class="cls-23" d="M56.79,94.87S42.49,87.38,16,86.61c0,0,30.21,5.35,40.8,8.26" transform="translate(1.93)"/><path class="cls-23" d="M8.53,68.62S4.06,73.38,9.84,79.35A13.62,13.62,0,0,1,8.53,68.62" transform="translate(1.93)"/><path class="cls-23" d="M4.43,87.43S9.72,95.84,27,96.27c0,0-22.43,1.66-22.6-8.84" transform="translate(1.93)"/><path class="cls-23" d="M78.81,78.61s-1.12,12.43-23.32,8c0,0,25.34,6.91,23.32-8" transform="translate(1.93)"/><path class="cls-23" d="M20,61.75s-6.35,10.87,13.83,8c0,0-16.5,1.79-13.83-8" transform="translate(1.93)"/><path class="cls-23" d="M52.66,64.31S63.09,56.07,60,36.23c0,0,6.9,19.38-7.32,28.08" transform="translate(1.93)"/></g></g></g></g></svg>