<svg width="114" height="404" viewBox="0 0 114 404" fill="none" xmlns="http://www.w3.org/2000/svg">
<path fill-rule="evenodd" clip-rule="evenodd" d="M86.5801 80.1C85.9001 79.74 83.2301 79.17 82.4601 78.86C78.1101 77.02 75.6901 73.05 72.3701 70.13C69.5201 67.94 69.7901 61.21 69.6401 57.4C69.8001 55.95 69.9101 54.99 69.9101 54.99C68.1001 54.15 64.3301 53.78 59.4801 53.89C59.3201 53.89 59.1701 53.9 59.0201 53.9C58.8601 53.9 58.7101 53.89 58.5501 53.89C58.5501 53.89 58.5501 53.89 58.5401 53.89V53.88C58.4601 53.88 58.3801 53.88 58.3001 53.88C58.2201 53.88 58.1401 53.88 58.0601 53.88V53.89C58.0601 53.89 58.0601 53.89 58.0501 53.89C57.8901 53.89 57.7401 53.9 57.5801 53.9C57.4201 53.9 57.2701 53.89 57.1201 53.89C52.2601 53.79 48.5001 54.15 46.6901 54.99C46.6901 54.99 46.8001 55.95 46.9601 57.4C47.0501 61.59 47.1201 68.03 44.2801 70.21C40.9601 73.13 40.8001 77.02 36.4501 78.85C35.6901 79.16 32.7901 79.21 32.1101 79.56C26.7001 82.41 21.3601 82.62 21.3601 86.67C21.3601 95.66 37.2401 101.21 57.0801 101.21C57.4901 101.21 57.9001 101.2 58.3001 101.2C58.7101 101.21 59.1101 101.21 59.5201 101.21C79.3601 101.21 94.5201 95.66 94.5201 86.67C94.5301 82.62 91.9901 82.94 86.5801 80.1Z" fill="#924520"/>
<path d="M11.8301 129.61C11.8401 122.05 12.1501 110.61 14.0101 103.39L34.6901 110.68C33.9501 113.65 34.6901 110.68 34.6901 110.68C34.0301 115.5 33.3101 115.59 32.0001 120.24C31.5401 121.88 20.7401 120.67 20.2701 122.31C19.8401 123.85 27.8701 128.98 27.6801 130.58" fill="#994E2E"/>
<path d="M29.4999 138.03C29.5799 137.54 29.2399 136.08 30.7599 132.1C33.1799 125.77 34.2899 115.17 34.3199 112.37C34.3699 106.91 30.6099 113.44 27.2199 115.69L21.5799 116.06C19.9499 119.55 18.7799 116.9 17.0699 119.98C14.0999 125.32 19.5199 114.42 17.0699 119.98C16.2099 121.94 15.2899 116.72 14.4299 118.68C13.6199 120.52 12.2699 120.11 11.7999 124.33C11.7999 124.33 11.7699 134.78 11.8299 137.92C11.8699 140.23 11.1399 144 11.3099 145.61C11.5599 147.97 10.5699 155.17 10.5699 155.17C10.5699 155.17 10.5199 157.65 11.1899 161.94C12.9099 172.97 13.2299 186.93 12.6299 191.59L22.7899 192.73C22.7899 192.73 30.9099 153.78 29.4499 145.17C29.4599 145.17 29.1199 140.59 29.4999 138.03Z" fill="#994E2E"/>
<path d="M19.16 215.31C19.16 215.31 19.18 215.99 19.2 216.97C19.64 222.27 18.89 224.49 21.84 228.49C18.08 226.54 16.72 222.34 19.09 216.35C19.12 215.72 19.16 215.31 19.16 215.31Z" fill="#854324"/>
<path d="M23.02 190.32C22.6 193.12 22.62 196.37 23.87 199.44C26.37 205.63 23.16 212.2 23.16 215.96C23.16 217.2 24.57 219.9 24.62 221.18C24.47 222.58 23.66 223.05 23.66 223.05C23.7 223.84 23.54 222.68 23.66 223.05C24.1 224.41 24.04 225.92 24.28 226.75C24.52 227.57 26.16 230.96 24.11 231.47C24.11 231.47 22.88 232.21 22.24 230.95C22.24 230.95 20.93 229.49 20.84 228.98C20.75 228.47 20.05 225.78 19.77 225.23C19.49 224.68 18.63 222.93 18.66 221.46C18.66 221.19 18.6 220.64 18.6 220.64C18.27 220.27 18.26 220.26 18.33 220.48C18.54 221.11 18.39 223.19 18.84 223.93C19.45 224.94 20.59 225.85 21.2 227.77C21.64 229.17 22.37 229.81 22.44 230.26C22.56 231.07 21.54 231.13 21.54 231.13C21.54 231.13 21.18 231.19 20.21 230.66C18.94 229.96 19.51 230.2 18.29 229.09C18.29 229.09 16.49 226.47 15.88 225.7C15.27 224.92 14.78 223.88 14.57 222.6C14.36 221.32 13.68 218.54 14.58 220.23C15.03 221.09 14.18 222.57 15.26 223.28C15.73 223.59 17.78 228.25 17.78 228.25C16.56 227.61 17.62 228.06 16.59 227.74C16.59 227.74 14.82 227.4 13.54 226.04C13.54 226.04 11.33 224.01 11.5 222.64C11.5 222.64 10.79 220.47 10.62 218.52C10.53 217.51 11.69 221.4 11.5 222.64C11.5 222.64 9.64999 220.78 9.43999 219.78C8.99999 217.59 8.48999 214.88 8.35999 214.41C8.22999 213.93 7.53999 211.55 8.77999 208.42C10.02 205.28 12.31 200.54 11.79 198.04C11.27 195.54 12.74 189.45 13.04 180.03L24.7 181.26C24.68 181.25 23.65 186.09 23.02 190.32Z" fill="#994E2E"/>
<path d="M13.8699 213.96C13.8699 213.96 14.1699 219.71 14.2199 221.11C14.2699 222.5 14.6699 223.64 15.2399 224.5C15.8099 225.36 17.5999 228.1 17.5999 228.1C17.5999 228.1 15.6299 225.14 15.1599 224.79C14.0699 223.98 13.9899 220.85 13.8999 219.82C13.6699 217.44 13.8699 213.96 13.8699 213.96Z" fill="#854324"/>
<path d="M10.9701 220.23C10.9701 220.23 10.5501 218.42 10.6501 216.31C10.7601 214.2 11.1001 213.39 10.0701 212.34C10.0701 212.34 10.7101 214.23 10.5201 215.35C10.3301 216.46 10.6601 219.67 10.9701 220.23Z" fill="#854324"/>
<path d="M27.7199 193.69L10.6299 191.59L8.3999 178.42L8.98991 132.82L15.3599 83.0698L25.3099 84.2898L31.5199 104.86L27.7199 193.69Z" fill="#7E1620"/>
<path d="M17.9 103.5C20.18 108.84 22.7001 112.83 25.4901 115.36C27.4801 116.23 29.4701 117.1 31.4501 117.97L30.93 197.51H11.54L13.72 105.72C15.14 105.39 16.54 104.64 17.9 103.5Z" fill="url(#paint0_linear_229_216)"/>
<path d="M24.72 201.97L10.03 201.41L10.73 188.92L25.88 191.08L24.72 201.97Z" fill="#7E1620"/>
<path d="M24.72 201.97L10.03 201.41L10.73 188.92L25.88 191.08L24.72 201.97Z" fill="url(#paint1_linear_229_216)"/>
<path d="M82.9299 25.1899C82.9399 24.6999 82.9699 24.2699 83.0199 23.8299C83.0699 23.3799 83.1499 22.9399 83.2899 22.4299C83.5599 21.4599 83.3599 20.3899 83.4799 19.3899C83.5299 18.9999 83.3199 17.2899 82.9199 16.7299C82.9499 15.9299 82.7499 13.4199 82.1699 12.9399C81.8399 12.6699 81.5499 12.1899 81.4199 11.7899C81.3299 11.4799 79.6999 8.50995 78.7999 7.68995C77.9199 6.85995 76.5099 6.02994 76.2599 5.80994C75.9899 5.57994 74.7499 4.39994 74.4899 4.14994C73.9299 3.58994 71.6399 2.66995 69.4799 2.06995C69.3099 2.01995 69.1299 1.96994 68.9899 1.86994C68.8599 1.77994 68.7699 1.66994 68.6599 1.55994C68.0599 0.889944 63.9399 0.729939 63.5099 0.789939C63.1899 0.809939 62.0299 0.579944 61.7099 0.559944C60.9399 0.499944 59.3499 0.489949 58.2299 0.689949C57.1199 0.489949 55.5199 0.489944 54.7499 0.559944C54.4199 0.589944 53.2699 0.819939 52.9499 0.789939C52.5199 0.739939 48.3999 0.889944 47.7999 1.55994C47.6899 1.66994 47.5999 1.78994 47.4699 1.86994C47.3299 1.96994 47.1599 2.01995 46.9799 2.06995C44.8099 2.66995 42.5299 3.58994 41.9699 4.14994C41.7199 4.39994 40.4699 5.56994 40.1999 5.80994C39.9399 6.01994 38.5399 6.85995 37.6599 7.68995C36.7599 8.50995 35.1299 11.4799 35.0399 11.7899C34.9099 12.1799 34.6199 12.6599 34.2899 12.9399C33.7199 13.4099 33.5099 15.9199 33.5399 16.7299C33.1399 17.2899 32.9299 19.0099 32.9799 19.3899C33.0399 19.8899 33.0199 20.4099 33.0199 20.9199C33.0199 21.4299 33.0399 21.9399 33.1699 22.4299C34.8099 27.0799 36.8099 32.0799 37.2799 36.9899C37.3399 37.3499 37.9799 38.09 37.9399 38.45C37.9199 38.71 38.2499 39.14 38.7599 39.66C39.2699 40.18 39.9399 40.7899 40.6099 41.3999C41.1999 41.7399 41.7999 42.11 42.2999 42.63C43.3099 43.6 44.2199 44.5899 45.1399 45.4399C45.3199 45.6099 45.5099 45.7799 45.6899 45.9299C48.3099 48.5299 52.6299 48.19 56.1199 48.73C56.4199 48.62 56.7199 48.4899 57.0199 48.3599C58.5199 47.6899 60.0699 46.8799 61.6599 46.8299C62.0099 46.8699 62.3499 46.93 62.6799 47.01C63.0199 47.09 63.3499 47.1999 63.6799 47.3399C68.3899 47.4399 69.8299 42.0599 73.6899 41.7099C73.9899 41.5899 74.3099 41.51 74.6299 41.45C74.9399 41.19 75.2499 40.93 75.5499 40.66C75.8599 40.39 76.1599 40.1099 76.4699 39.8099C80.8099 37.0699 78.8099 31.0699 81.8299 27.1699C82.0599 26.7299 82.3399 26.3 82.6999 25.91C82.8399 25.61 82.9199 25.3399 82.9299 25.1899Z" fill="#502313"/>
<path fill-rule="evenodd" clip-rule="evenodd" d="M75.3 38.6699C75.22 38.2199 75.13 37.7699 75.05 37.3199C74.83 36.9899 74.63 36.6599 74.43 36.3099C72.88 34.2699 73.03 32.0499 73.23 29.8499C73.24 29.7699 73.24 29.6898 73.25 29.6098C73.16 29.0698 73.16 29.0699 73.37 27.9699C73.37 27.8899 73.38 27.8099 73.38 27.7399C73.38 27.6599 73.38 27.5898 73.38 27.5098C73.38 27.4298 73.38 27.3499 73.37 27.2799C73.16 27.0899 73.16 26.0899 73.25 25.8599C73.24 25.7799 73.22 25.7099 73.2 25.6299C73.15 25.3999 73.09 25.1699 73.01 24.9399C72.98 24.8599 72.96 24.7899 72.93 24.7099C74.17 24.0899 71.17 24.0899 72.14 23.3599C72.11 23.2899 72.08 23.2299 72.02 23.1599C71.9 23.0199 71.78 22.8698 71.64 22.7298C71.3 22.3998 67.46 21.7598 67.08 21.5098C65.08 20.5098 64.12 21.9698 61.32 21.6798C60.72 21.6098 60.13 21.5599 59.53 21.5199C59.08 21.4899 58.64 21.4799 58.19 21.4699C57.75 21.4699 57.3 21.4699 56.86 21.4899C56.21 21.3599 55.58 21.2799 54.96 21.2399C54.34 21.1999 53.74 21.2099 53.15 21.2499C51.14 21.1499 51.06 19.8899 49.37 20.8499C48.95 21.0899 46.46 22.4199 46.08 22.7199C45.68 22.9199 45.34 23.1498 45.05 23.3998C45 23.4498 44.97 23.4898 44.94 23.5398C46.14 24.0898 43.14 24.0898 44.14 24.6198C44.11 24.6598 44.08 24.6899 44.05 24.7499C43.91 25.0599 43.82 25.3898 43.75 25.7298C43.74 25.7998 43.75 25.8499 43.75 25.9199C44.13 27.0799 44.13 27.0799 43.62 27.3299C43.62 27.4099 43.62 27.4899 43.62 27.5699C43.63 27.9599 43.66 28.3598 43.69 28.7598C43.7 28.8398 43.7 28.9199 43.71 28.9999C44.12 29.0699 44.12 30.0698 43.84 30.2398C43.83 30.3198 43.82 30.3899 43.83 30.4699C43.95 32.4399 43.87 34.3998 42.46 35.9598C42.2 36.4298 41.9 36.8799 41.54 37.3199C41.44 37.7699 41.36 38.2199 41.27 38.6699C40.58 42.2999 41.74 45.5399 42.78 48.3799C43.79 51.2099 44.03 52.3599 45.5 55.8199C46.95 59.2699 49.06 60.6199 51.83 61.8799C53.78 62.7799 55.93 63.1599 58.27 63.0399C60.61 63.1599 62.76 62.7799 64.71 61.8799C67.49 60.6199 69.6 59.2699 71.04 55.8199C72.51 52.3499 72.74 51.2099 73.76 48.3799C74.83 45.5399 76 42.2999 75.3 38.6699Z" fill="#924520"/>
<path fill-rule="evenodd" clip-rule="evenodd" d="M41.1199 37.9299C40.7599 37.4699 40.4199 37.2799 40.0799 37.3699C39.4899 37.5299 39.0699 38.0899 38.8099 39.0299C38.5099 40.0599 39.4399 41.3499 39.5999 42.9199C39.8199 45.0299 39.3599 46.6599 40.2299 47.8299C41.0299 48.9399 41.9399 49.3699 42.9599 49.1299L43.2899 49.0399L42.9099 46.5199C42.1799 41.8899 41.6399 39.1199 41.2599 38.2099L41.1199 37.9299Z" fill="#924520"/>
<path fill-rule="evenodd" clip-rule="evenodd" d="M67.86 37.9804C67.86 38.4804 67.69 38.9004 67.34 39.2504C66.99 39.6004 66.57 39.7704 66.07 39.7704C65.57 39.7704 65.15 39.6004 64.8 39.2504C64.45 38.9004 64.28 38.4804 64.28 37.9804C64.28 37.4804 64.45 37.0604 64.8 36.7104C65.15 36.3604 65.57 36.1904 66.07 36.1904C66.57 36.1904 66.99 36.3604 67.34 36.7104C67.68 37.0604 67.86 37.4904 67.86 37.9804Z" fill="#502313"/>
<path fill-rule="evenodd" clip-rule="evenodd" d="M69.1899 34.0104L70.2999 36.9104C67.1699 35.8004 64.4499 35.9204 62.1499 37.2704L63.4699 33.8204C65.3399 32.9104 67.2499 32.9704 69.1899 34.0104Z" fill="#924520"/>
<path fill-rule="evenodd" clip-rule="evenodd" d="M62.1 37.75C62.05 37.78 62 37.82 61.96 37.86C62.91 36.57 64.22 35.88 65.89 35.79C67.65 35.69 69.37 36.29 71.03 37.58C69.89 37.08 68.53 36.78 66.96 36.69C65 36.56 63.44 36.87 62.28 37.64C62.21 37.67 62.15 37.71 62.1 37.75Z" fill="#502313"/>
<path d="M62.37 33.2902C62.3 32.2902 63.01 32.3402 63.62 32.2102C63.77 32.1802 63.93 32.1502 64.09 32.1202C64.25 32.0902 64.41 32.0702 64.58 32.0402C66.79 31.7202 68.46 31.6102 70.2 32.9102C70.34 33.0602 70.47 33.2202 70.6 33.4102C70.66 33.5302 70.69 33.6202 70.68 33.6602C70.62 33.8202 70.43 33.8802 70.26 33.9202C70.08 33.9602 70.04 33.9502 69.72 33.7802C69.61 33.7202 69.46 33.6502 69.3 33.5802C67.74 33.3502 66.91 33.4002 65.38 33.3802C65.24 33.4202 65.1 33.4602 64.96 33.5002C64.55 33.6202 64.13 33.7402 63.67 33.8302C63.45 33.8702 63.02 34.0602 62.81 34.0002C62.59 33.9502 62.39 33.5102 62.37 33.2902Z" fill="#502110"/>
<path fill-rule="evenodd" clip-rule="evenodd" d="M48.75 37.9101C48.75 38.4101 48.92 38.8301 49.27 39.1801C49.62 39.5301 50.04 39.7001 50.54 39.7001C51.04 39.7001 51.46 39.5301 51.81 39.1801C52.16 38.8301 52.33 38.4101 52.33 37.9101C52.33 37.4101 52.16 36.9901 51.81 36.6401C51.46 36.2901 51.04 36.1201 50.54 36.1201C50.04 36.1201 49.62 36.2901 49.27 36.6401C48.93 36.9801 48.75 37.4101 48.75 37.9101Z" fill="#502313"/>
<path fill-rule="evenodd" clip-rule="evenodd" d="M47.4201 33.9303L46.3101 36.8303C49.4401 35.7203 52.1601 35.8403 54.4601 37.1903L53.1401 33.7403C51.2701 32.8303 49.3601 32.8903 47.4201 33.9303Z" fill="#924520"/>
<path fill-rule="evenodd" clip-rule="evenodd" d="M54.5201 37.67C54.5701 37.7 54.6201 37.7399 54.6601 37.7799C53.7101 36.4899 52.4001 35.7999 50.7301 35.7099C48.9701 35.6099 47.2501 36.2099 45.5901 37.4999C46.7301 36.9999 48.0901 36.6999 49.6601 36.6099C51.6201 36.4799 53.1801 36.7899 54.3401 37.5599C54.4001 37.5899 54.4601 37.63 54.5201 37.67Z" fill="#502313"/>
<path d="M54.2401 33.2101C54.3101 32.2101 53.6001 32.2601 52.9901 32.1301C52.8401 32.1001 52.6801 32.0701 52.5201 32.0401C52.3601 32.0101 52.2001 31.9901 52.0301 31.9601C49.8201 31.6401 48.1501 31.5301 46.4101 32.8301C46.2701 32.9801 46.1401 33.1401 46.0101 33.3301C45.9501 33.4501 45.9201 33.5401 45.9301 33.5801C45.9901 33.7401 46.1801 33.8001 46.3501 33.8401C46.5301 33.8801 46.5701 33.8701 46.9001 33.7001C47.0101 33.6401 47.1601 33.5701 47.3201 33.5001C48.8801 33.2701 49.7101 33.3201 51.2401 33.3001C51.3801 33.3401 51.5201 33.3801 51.6501 33.4201C52.0601 33.5401 52.4801 33.6601 52.9401 33.7501C53.1601 33.7901 53.5901 33.9801 53.8001 33.9201C54.0201 33.8701 54.2301 33.4401 54.2401 33.2101Z" fill="#502110"/>
<path d="M61.3201 47.4498C61.3201 47.4498 62.2001 47.8798 62.6201 47.2798C63.2501 46.3698 62.6201 44.6898 62.1501 44.2598C63.6801 47.7998 61.3201 47.4498 61.3201 47.4498Z" fill="#502110" stroke="#502110" stroke-width="0.1417" stroke-miterlimit="10" stroke-linejoin="bevel"/>
<path d="M60.0801 46.3796C59.9201 46.3096 59.7301 46.2796 59.6401 46.2696C59.4901 46.2596 59.3301 46.2796 59.1901 46.3296C59.1301 46.3496 59.0601 46.3796 59.0201 46.4396C58.9801 46.4996 58.9601 46.5896 59.0001 46.6496C59.0201 46.6896 59.0601 46.7096 59.0901 46.7196C59.2601 46.7796 59.4401 46.6396 59.6201 46.6196C60.0401 46.5696 60.7601 46.9396 60.7601 46.9396C60.7601 46.9396 60.5301 46.5896 60.0801 46.3796Z" fill="#502110" stroke="#502110" stroke-width="0.1417" stroke-miterlimit="10" stroke-linejoin="bevel"/>
<path d="M55.29 47.4498C55.29 47.4498 54.41 47.8798 53.99 47.2798C53.36 46.3698 53.99 44.6898 54.46 44.2598C52.93 47.7998 55.29 47.4498 55.29 47.4498Z" fill="#502110" stroke="#502110" stroke-width="0.1417" stroke-miterlimit="10" stroke-linejoin="bevel"/>
<path d="M56.5301 46.3796C56.6901 46.3096 56.8801 46.2796 56.9701 46.2696C57.1201 46.2596 57.2801 46.2796 57.4201 46.3296C57.4801 46.3496 57.5501 46.3796 57.5901 46.4396C57.6301 46.4996 57.6501 46.5896 57.6101 46.6496C57.5901 46.6896 57.5501 46.7096 57.5201 46.7196C57.3501 46.7796 57.1701 46.6396 56.9901 46.6196C56.5701 46.5696 55.8501 46.9396 55.8501 46.9396C55.8501 46.9396 56.0901 46.5896 56.5301 46.3796Z" fill="#502110" stroke="#502110" stroke-width="0.1417" stroke-miterlimit="10" stroke-linejoin="bevel"/>
<path d="M63.71 51.8899C63.27 51.9899 61.06 51.8499 60.68 51.6499C60.15 51.3799 59.75 49.7799 58.99 49.8699C58.89 49.8799 58.6 49.8899 58.24 49.8899C57.88 49.8899 57.59 49.8799 57.49 49.8699C56.72 49.7899 56.32 51.3799 55.8 51.6499C55.42 51.8499 53.21 51.9899 52.77 51.8899C51.64 51.6299 52.54 52.2399 52.74 52.3299C52.74 52.3299 52.7401 52.3299 52.7501 52.3299C52.7601 52.3399 52.7701 52.3399 52.7801 52.3499C53.4001 52.7499 54.9801 53.9499 55.4401 54.2299C55.9101 54.5199 56.3401 54.7599 57.0901 54.9699C57.1601 54.9899 57.28 54.9699 57.43 54.9699C57.77 54.8899 58.03 54.7299 58.24 54.5299C58.46 54.7299 58.72 54.8899 59.05 54.9699C59.2 54.9699 59.3201 54.9899 59.3901 54.9699C60.1401 54.7599 60.5701 54.5199 61.0401 54.2299C61.4901 53.9399 63.0801 52.7499 63.7001 52.3499C63.7101 52.3399 63.7201 52.3399 63.7301 52.3299C63.7301 52.3299 63.73 52.3299 63.74 52.3299C63.94 52.2399 64.84 51.6199 63.71 51.8899Z" fill="#773017"/>
<path fill-rule="evenodd" clip-rule="evenodd" d="M75.5001 37.9299C75.8601 37.4699 76.2001 37.2799 76.5401 37.3699C77.1301 37.5299 77.5501 38.0899 77.8101 39.0299C78.1101 40.0599 77.1801 41.3499 77.0201 42.9199C76.8001 45.0299 77.2501 46.6599 76.3801 47.8299C75.5801 48.9399 74.6701 49.3699 73.6401 49.1299L73.3101 49.0399L73.6901 46.5199C74.4201 41.8899 74.9701 39.1199 75.3401 38.2099L75.5001 37.9299Z" fill="#924520"/>
<path d="M62.58 51.4897C62 51.3297 59.76 49.7697 58.99 49.8597C58.89 49.8697 58.6 49.8797 58.24 49.8797C57.88 49.8797 57.59 49.8697 57.49 49.8597C56.72 49.7797 54.48 51.3297 53.9 51.4897C53.1 51.7097 52.21 52.0097 52.21 52.0097C53.33 52.3197 54.84 51.9697 55.59 52.1697C55.66 52.1897 57.6 52.3197 58.24 51.9997C58.88 52.3197 60.82 52.1897 60.89 52.1697C61.64 51.9597 63.16 52.3197 64.27 52.0097C64.27 52.0097 63.37 51.7197 62.58 51.4897Z" fill="#6A2910"/>
<path d="M67.3101 50.1001C67.3101 50.1001 67.6301 52.3101 67.5101 53.0401C67.5201 53.0401 68.0901 51.1701 67.3101 50.1001Z" fill="#6E3423"/>
<path d="M71.4501 15.7398C71.0501 15.5198 70.5601 15.3298 70.0001 15.1598C63.1101 13.5398 49.9201 13.5398 45.2301 15.8898C44.8901 16.0998 44.6101 16.3198 44.3901 16.5498C43.5001 17.4698 43.5901 18.7398 44.8201 19.7698C44.9101 20.0198 45.0901 20.2598 45.3301 20.4898C46.0901 21.2198 47.5201 21.8398 49.1601 22.2498C49.2801 22.2798 49.4001 22.3098 49.5201 22.3298C51.1701 22.0798 52.1701 22.0798 53.1501 22.6598C53.2901 22.6698 53.4201 22.6698 53.5601 22.6698C53.7001 22.6698 53.8401 22.6798 53.9801 22.6798C55.1701 23.0898 57.1701 23.0898 58.0201 22.6398C58.1901 22.6498 58.3601 22.6598 58.5301 22.6698C58.8901 22.6898 59.2401 22.6998 59.5801 22.7098C59.7501 22.7098 59.9201 22.7198 60.0901 22.7198C61.1601 23.0798 62.1601 23.0798 63.4801 22.6098C63.6401 22.5998 63.7901 22.5898 63.9501 22.5798C64.0901 22.5698 64.2301 22.5598 64.3701 22.5498C65.1601 22.0998 67.1601 22.0998 68.2601 22.1898C68.3701 22.1598 68.4701 22.1298 68.5701 22.0898C68.8801 21.9898 69.1701 21.8798 69.4501 21.7698C70.5601 21.2998 71.4401 20.6898 71.9901 19.9998C72.2001 19.7398 72.3601 19.4698 72.4701 19.1898C72.5501 18.6698 72.7701 18.1498 72.8001 17.6398C72.8101 17.4698 72.8001 17.2998 72.7501 17.1398C72.6301 16.8998 72.6301 16.4898 72.0001 16.1798C71.8601 16.0098 71.6801 15.8798 71.4501 15.7398Z" fill="#502110"/>
<path d="M43.3299 39.94C42.7799 38.4 42.6599 36.11 42.1199 35.1C41.5099 33.95 41.6499 35.8 41.1199 34.92C40.5999 36.2 40.0499 37.77 41.4899 38.87C42.1199 40.17 42.1899 41.66 42.6499 41.66C42.6499 41.61 43.3299 41.17 43.3299 39.94Z" fill="#502110"/>
<path d="M73.21 39.94C73.76 38.4 73.88 36.11 74.42 35.1C75.03 33.95 74.89 35.8 75.42 34.92C75.63 35.89 76.49 37.77 75.05 38.87C74.42 40.17 74.35 41.66 73.89 41.66C73.9 41.61 73.21 41.17 73.21 39.94Z" fill="#502110"/>
<path d="M52.3501 13.2498C52.6301 12.7998 52.8401 12.6698 53.2501 12.5198C53.6601 12.3698 53.7401 12.3898 54.3001 12.5898C54.3001 12.5898 53.7301 12.5298 53.1601 12.7898C52.7601 12.9698 52.3501 13.2498 52.3501 13.2498Z" fill="#803D1B"/>
<path d="M52.39 13.25C52.5 13.08 52.62 12.91 52.78 12.79C52.92 12.68 53.0799 12.61 53.2399 12.55C53.3899 12.49 53.5499 12.44 53.7099 12.45C53.9099 12.47 54.1 12.55 54.28 12.62C54.29 12.61 54.3 12.59 54.31 12.58C53.59 12.5 52.8999 12.85 52.3299 13.24C52.2899 13.27 52.3499 13.28 52.3699 13.27C52.9299 12.89 53.59 12.55 54.29 12.62C54.31 12.62 54.36 12.59 54.32 12.58C54.13 12.51 53.9199 12.42 53.7099 12.41C53.5399 12.4 53.38 12.45 53.23 12.51C53.05 12.58 52.87 12.65 52.72 12.77C52.56 12.9 52.43 13.07 52.32 13.25C52.3 13.27 52.37 13.27 52.39 13.25Z" fill="#914620"/>
<path d="M65.2 14.8799C65.68 14.6799 65.9299 14.6899 66.3499 14.7999C66.7699 14.9099 66.83 14.9799 67.17 15.4699C67.17 15.4699 66.7399 15.0899 66.1199 14.9699C65.6899 14.8799 65.2 14.8799 65.2 14.8799Z" fill="#803D1B"/>
<path d="M65.22 14.8798C65.44 14.7898 65.68 14.7098 65.92 14.7298C66.11 14.7398 66.3 14.7898 66.48 14.8498C66.79 14.9498 66.95 15.2098 67.13 15.4698C67.15 15.4598 67.17 15.4598 67.2 15.4498C66.66 14.9698 65.91 14.8698 65.22 14.8598C65.21 14.8598 65.14 14.8898 65.18 14.8898C65.87 14.8998 66.61 14.9998 67.14 15.4798C67.15 15.4898 67.21 15.4698 67.21 15.4598C67.1 15.2998 66.99 15.1298 66.85 14.9998C66.74 14.8998 66.6 14.8498 66.46 14.8098C66.26 14.7498 66.06 14.6998 65.85 14.7098C65.62 14.7198 65.4 14.7898 65.19 14.8798C65.14 14.8898 65.2 14.8898 65.22 14.8798Z" fill="#914620"/>
<path d="M55.52 14.7996C55.9 14.4396 56.67 14.1796 57.11 14.1396C57.55 14.0996 57.62 14.1496 58.11 14.4896C58.11 14.4896 57.58 14.2796 56.95 14.3796C56.51 14.4496 55.52 14.7996 55.52 14.7996Z" fill="#803D1B"/>
<path d="M55.5401 14.8097C55.9001 14.4797 56.4101 14.2897 56.8801 14.1997C57.0701 14.1597 57.2901 14.1297 57.4901 14.1697C57.7101 14.2197 57.9001 14.3797 58.0801 14.5097C58.1001 14.4997 58.1201 14.4897 58.1301 14.4797C57.2601 14.1397 56.3301 14.4997 55.5001 14.7897C55.4601 14.8097 55.5001 14.8297 55.5301 14.8197C56.3301 14.5397 57.2401 14.1797 58.0801 14.5097C58.1001 14.5197 58.1601 14.4997 58.1301 14.4797C57.9401 14.3497 57.7401 14.1797 57.5001 14.1297C57.3101 14.0897 57.0901 14.1197 56.9001 14.1597C56.4001 14.2597 55.8701 14.4597 55.4901 14.7997C55.4601 14.8197 55.5301 14.8197 55.5401 14.8097Z" fill="#914620"/>
<path d="M38.46 14.9399C38.62 14.4399 39.15 13.8299 39.52 13.5799C39.88 13.3299 39.97 13.3299 40.56 13.3899C40.56 13.3899 39.99 13.4699 39.5 13.8699C39.15 14.1399 38.46 14.9399 38.46 14.9399Z" fill="#803D1B"/>
<path d="M38.4999 14.9401C38.6599 14.4601 39.0199 14.0201 39.3999 13.7001C39.5399 13.5801 39.71 13.4501 39.89 13.4001C40.1 13.3401 40.3299 13.3901 40.5399 13.4101C40.5499 13.4001 40.5499 13.3801 40.5599 13.3701C40.1999 13.4201 39.8399 13.5901 39.5499 13.8001C39.2199 14.0401 38.9499 14.3601 38.6799 14.6601C38.5999 14.7501 38.5199 14.8401 38.4399 14.9401C38.4099 14.9701 38.4799 14.9701 38.4899 14.9501C39.0499 14.3101 39.6599 13.5401 40.5499 13.4101C40.5699 13.4101 40.6099 13.3701 40.5699 13.3701C40.3499 13.3501 40.1199 13.3101 39.8999 13.3601C39.7199 13.4001 39.5499 13.5201 39.3999 13.6401C39.1899 13.8101 38.9999 14.0101 38.8399 14.2201C38.6699 14.4401 38.5099 14.6801 38.4299 14.9501C38.4199 14.9701 38.4899 14.9601 38.4999 14.9401Z" fill="#914620"/>
<path d="M72.6101 9.2999C73.1301 9.2499 73.9001 9.4999 74.2701 9.7399C74.6401 9.9699 74.6701 10.0499 74.8501 10.6199C74.8501 10.6199 74.5501 10.1299 74.0001 9.8299C73.6201 9.6199 72.6101 9.2999 72.6101 9.2999Z" fill="#803D1B"/>
<path d="M72.6101 9.32C73.1301 9.27 73.7101 9.44999 74.1601 9.70999C74.3101 9.79999 74.4801 9.89998 74.5801 10.04C74.7001 10.21 74.7601 10.43 74.8201 10.63C74.8401 10.62 74.8601 10.61 74.8901 10.61C74.4101 9.81999 73.4601 9.54999 72.6301 9.27999C72.6101 9.26999 72.5501 9.31 72.5901 9.32C73.4101 9.58 74.3501 9.84999 74.8301 10.63C74.8401 10.65 74.9001 10.63 74.9001 10.61C74.8301 10.4 74.7801 10.17 74.6501 9.98999C74.5401 9.83999 74.3601 9.73998 74.2001 9.64998C73.7401 9.39998 73.1501 9.22999 72.6201 9.26999C72.5801 9.27999 72.5601 9.32 72.6101 9.32Z" fill="#914620"/>
<path d="M56.54 3.81997C56.88 3.41997 57.61 3.06996 58.04 2.97996C58.47 2.88996 58.55 2.92997 59.07 3.20997C59.07 3.20997 58.52 3.05996 57.91 3.22996C57.49 3.35996 56.54 3.81997 56.54 3.81997Z" fill="#803D1B"/>
<path d="M56.57 3.82986C56.89 3.45986 57.38 3.20986 57.84 3.05986C58.02 2.99986 58.23 2.94986 58.42 2.96986C58.64 2.98986 58.86 3.12987 59.05 3.23987C59.07 3.22987 59.08 3.21986 59.1 3.19986C58.2 2.95986 57.32 3.42986 56.53 3.80986C56.49 3.82986 56.53 3.85986 56.56 3.83986C57.33 3.45986 58.18 3.00987 59.06 3.23987C59.08 3.23987 59.14 3.21986 59.11 3.19986C58.91 3.08986 58.7 2.95985 58.48 2.92985C58.28 2.89985 58.06 2.95987 57.87 3.01987C57.38 3.16987 56.86 3.42987 56.53 3.81987C56.49 3.84987 56.56 3.84986 56.57 3.82986Z" fill="#914620"/>
<path d="M52.7002 20.2202C53.0202 20.0502 53.2002 20.0602 53.5202 20.1502C53.8502 20.2402 53.8902 20.2902 54.2202 20.6702C54.2202 20.6702 53.8502 20.3702 53.3802 20.2802C53.0502 20.2202 52.7002 20.2202 52.7002 20.2202Z" fill="#803D1B"/>
<path d="M52.7201 20.2201C52.8801 20.1401 53.0501 20.0801 53.2301 20.1001C53.3701 20.1201 53.5101 20.1501 53.6501 20.2001C53.8801 20.2801 54.0301 20.4901 54.1901 20.6701C54.2101 20.6601 54.2401 20.6501 54.2601 20.6401C53.8201 20.2901 53.2601 20.1901 52.7201 20.1901C52.6901 20.1901 52.6401 20.2301 52.6901 20.2301C53.2201 20.2301 53.7701 20.3401 54.1901 20.6701C54.2101 20.6801 54.2801 20.6601 54.2601 20.6401C54.1601 20.5201 54.0501 20.3901 53.9301 20.2901C53.8401 20.2201 53.7401 20.1801 53.6301 20.1401C53.4801 20.0901 53.3101 20.0501 53.1501 20.0601C52.9801 20.0601 52.8201 20.1301 52.6701 20.2001C52.6301 20.2301 52.7001 20.2401 52.7201 20.2201Z" fill="#914620"/>
<path d="M42.0498 24.5501C42.2398 24.2501 42.3798 24.1601 42.6598 24.0601C42.9398 23.9601 42.9898 23.9701 43.3698 24.1101C43.3698 24.1101 42.9898 24.0601 42.5998 24.2401C42.3198 24.3601 42.0498 24.5501 42.0498 24.5501Z" fill="#803D1B"/>
<path d="M42.0899 24.5501C42.1599 24.4401 42.2399 24.3201 42.3499 24.2401C42.4399 24.1701 42.5499 24.1201 42.6599 24.0801C42.7599 24.0401 42.8599 24.0101 42.9699 24.0201C43.0999 24.0301 43.2299 24.0901 43.3499 24.1401C43.3599 24.1301 43.3699 24.1101 43.3799 24.1001C42.8899 24.0401 42.4199 24.2801 42.0299 24.5401C41.9899 24.5701 42.0499 24.5801 42.0699 24.5701C42.4399 24.3201 42.8899 24.0901 43.3499 24.1401C43.3699 24.1401 43.4199 24.1101 43.3799 24.1001C43.2499 24.0501 43.1099 23.9901 42.9699 23.9801C42.8599 23.9701 42.7499 24.0101 42.6399 24.0501C42.5199 24.0901 42.3899 24.1501 42.2899 24.2301C42.1799 24.3201 42.0899 24.4301 42.0199 24.5601C41.9999 24.5801 42.0699 24.5701 42.0899 24.5501Z" fill="#914620"/>
<path d="M46.1001 13.8199C46.1401 13.5699 46.2301 13.4599 46.4301 13.3099C46.6301 13.1599 46.6801 13.1499 47.0601 13.1299C47.0601 13.1299 46.7101 13.2099 46.4501 13.4499C46.2601 13.6199 46.1001 13.8199 46.1001 13.8199Z" fill="#803D1B"/>
<path d="M46.1301 13.8201C46.1501 13.7101 46.1801 13.6001 46.2501 13.5101C46.3201 13.4201 46.4101 13.3501 46.5001 13.2901C46.5601 13.2501 46.6301 13.2101 46.7001 13.1901C46.8101 13.1701 46.9301 13.1601 47.0501 13.1601C47.0501 13.1501 47.0501 13.1301 47.0501 13.1201C46.6501 13.2201 46.3201 13.5001 46.0701 13.8201C46.0401 13.8501 46.1101 13.8601 46.1301 13.8401C46.3701 13.5301 46.6801 13.2601 47.0701 13.1701C47.1001 13.1601 47.1101 13.1301 47.0701 13.1301C46.9501 13.1401 46.8201 13.1401 46.7001 13.1701C46.6101 13.1901 46.5401 13.2301 46.4701 13.2801C46.3701 13.3501 46.2801 13.4201 46.2001 13.5101C46.1301 13.6101 46.0901 13.7201 46.0701 13.8401C46.0601 13.8501 46.1301 13.8401 46.1301 13.8201Z" fill="#914620"/>
<path d="M45.6099 18.7296C45.8699 18.2796 46.0799 18.1396 46.4899 17.9796C46.8999 17.8196 46.9799 17.8396 47.5499 18.0296C47.5499 18.0296 46.9799 17.9796 46.4099 18.2596C46.0099 18.4396 45.6099 18.7296 45.6099 18.7296Z" fill="#803D1B"/>
<path d="M45.6499 18.7198C45.7499 18.5498 45.8599 18.3798 46.0099 18.2498C46.1499 18.1298 46.3099 18.0499 46.4799 17.9899C46.6299 17.9299 46.7799 17.8699 46.9499 17.8799C47.1499 17.8899 47.3399 17.9698 47.5199 18.0298C47.5399 18.0198 47.5499 18.0098 47.5699 17.9998C46.8399 17.9398 46.1599 18.2998 45.5899 18.7198C45.5599 18.7498 45.6299 18.7398 45.6499 18.7198C46.1899 18.3298 46.8299 17.9798 47.5299 18.0298C47.5399 18.0298 47.5999 18.0098 47.5799 17.9998C47.3799 17.9298 47.1699 17.8498 46.9599 17.8398C46.7899 17.8398 46.6399 17.8898 46.4899 17.9498C46.3099 18.0198 46.1299 18.0998 45.9799 18.2298C45.8199 18.3698 45.6999 18.5398 45.5899 18.7198C45.5699 18.7498 45.6399 18.7398 45.6499 18.7198Z" fill="#914620"/>
<path d="M40.5298 28.4297C40.5598 27.9097 40.6698 27.6897 40.9598 27.3597C41.2498 27.0297 41.3298 27.0097 41.9198 26.9097C41.9198 26.9097 41.3898 27.1297 41.0198 27.6397C40.7498 27.9997 40.5298 28.4297 40.5298 28.4297Z" fill="#803D1B"/>
<path d="M40.5699 28.4299C40.5799 28.2199 40.6099 27.9999 40.6999 27.7999C40.7799 27.6199 40.9099 27.4699 41.0299 27.3199C41.1299 27.2099 41.2299 27.1099 41.3599 27.0499C41.5299 26.9799 41.7299 26.9599 41.9199 26.9199C41.9199 26.9099 41.9099 26.8899 41.9099 26.8799C41.2399 27.1599 40.8199 27.7899 40.5099 28.4199C40.4899 28.4599 40.5499 28.4599 40.5699 28.4299C40.8699 27.8299 41.2899 27.1999 41.9399 26.9299C41.9699 26.9199 41.9599 26.8799 41.9299 26.8899C41.6699 26.9299 41.3699 26.9599 41.1499 27.1399C41.0399 27.2299 40.9499 27.3399 40.8599 27.4499C40.7599 27.5699 40.6799 27.6999 40.6199 27.8399C40.5399 28.0299 40.5199 28.2299 40.5099 28.4399C40.4999 28.4699 40.5699 28.4599 40.5699 28.4299Z" fill="#914620"/>
<path d="M71.6401 18.2998C72.0501 18.6298 72.1601 18.8498 72.2601 19.2698C72.3601 19.6898 72.3301 19.7698 72.0701 20.3098C72.0701 20.3098 72.2001 19.7598 72.0001 19.1498C71.8701 18.7298 71.6401 18.2998 71.6401 18.2998Z" fill="#803D1B"/>
<path d="M71.61 18.3098C71.77 18.4398 71.92 18.5798 72.03 18.7498C72.13 18.9098 72.18 19.0899 72.23 19.2699C72.27 19.4299 72.31 19.5898 72.28 19.7498C72.24 19.9498 72.14 20.1398 72.05 20.3098C72.07 20.3098 72.09 20.3098 72.12 20.3098C72.28 19.6098 72.01 18.8998 71.69 18.2898C71.66 18.2698 71.6 18.2898 71.61 18.3098C71.93 18.9098 72.2 19.6198 72.04 20.3098C72.03 20.3398 72.1 20.3198 72.11 20.3098C72.2 20.1298 72.3 19.9498 72.34 19.7498C72.37 19.5898 72.34 19.4299 72.3 19.2699C72.26 19.0899 72.2 18.8999 72.11 18.7399C72 18.5599 71.84 18.4098 71.68 18.2798C71.66 18.2698 71.59 18.2998 71.61 18.3098Z" fill="#914620"/>
<path d="M62.8699 19.4496C63.3199 19.1796 63.6499 18.9496 63.9999 19.2096C64.4199 19.5296 64.4999 19.3196 64.8999 19.7596C64.8999 19.7596 64.4299 19.4396 63.7899 19.4096C63.3599 19.3896 62.8699 19.4496 62.8699 19.4496Z" fill="#803D1B"/>
<path d="M62.8999 19.4498C63.1099 19.3298 63.33 19.1598 63.57 19.1198C63.81 19.0798 63.9599 19.2398 64.1499 19.3398C64.2599 19.3998 64.37 19.4298 64.48 19.4698C64.64 19.5298 64.7599 19.6498 64.8799 19.7698C64.8999 19.7598 64.9199 19.7598 64.9399 19.7498C64.3399 19.3498 63.58 19.3498 62.89 19.4398C62.87 19.4398 62.8199 19.4698 62.8599 19.4598C63.5399 19.3698 64.2899 19.3798 64.8799 19.7698C64.8899 19.7798 64.9499 19.7598 64.9399 19.7498C64.8099 19.6098 64.6699 19.4898 64.4899 19.4298C64.3099 19.3698 64.17 19.2898 64.01 19.1798C63.63 18.9198 63.18 19.2498 62.85 19.4498C62.82 19.4698 62.8899 19.4598 62.8999 19.4498Z" fill="#914620"/>
<path d="M66.1799 21.3799C66.4999 21.1599 66.6699 21.1299 66.9699 21.1299C67.2699 21.1299 67.3199 21.1699 67.6099 21.4399C67.6099 21.4399 67.2799 21.2599 66.8299 21.2799C66.5199 21.2999 66.1799 21.3799 66.1799 21.3799Z" fill="#803D1B"/>
<path d="M66.2099 21.3901C66.3299 21.3101 66.46 21.2301 66.6 21.1901C66.73 21.1501 66.8599 21.1501 66.9999 21.1501C67.0999 21.1501 67.2 21.1601 67.29 21.2101C67.4 21.2701 67.4899 21.3701 67.5899 21.4501C67.6099 21.4401 67.6299 21.4301 67.6499 21.4201C67.1999 21.1801 66.6599 21.2501 66.1899 21.3601C66.1499 21.3701 66.16 21.4101 66.2 21.4001C66.65 21.2901 67.17 21.2301 67.6 21.4601C67.62 21.4701 67.68 21.4501 67.66 21.4301C67.56 21.3401 67.4599 21.2301 67.3399 21.1701C67.2399 21.1201 67.1299 21.1201 67.0199 21.1201C66.8799 21.1201 66.7399 21.1201 66.6099 21.1601C66.4499 21.2001 66.3199 21.2901 66.1799 21.3801C66.1299 21.3901 66.1799 21.4101 66.2099 21.3901Z" fill="#914620"/>
<path d="M73.99 20.1401C74.24 20.4401 74.28 20.6101 74.3 20.9101C74.32 21.2201 74.29 21.2601 74.05 21.5701C74.05 21.5701 74.2 21.2201 74.14 20.7801C74.1 20.4701 73.99 20.1401 73.99 20.1401Z" fill="#803D1B"/>
<path d="M73.9601 20.1501C74.0601 20.2701 74.1501 20.3901 74.2001 20.5401C74.2501 20.6601 74.2601 20.7901 74.2701 20.9201C74.2801 21.0201 74.2801 21.1301 74.2401 21.2301C74.1901 21.3501 74.1001 21.4501 74.0201 21.5501C74.0401 21.5501 74.0601 21.5601 74.0801 21.5601C74.2801 21.1001 74.1701 20.5701 74.0201 20.1101C74.0201 20.1001 73.9501 20.1101 73.9601 20.1501C74.1001 20.5901 74.2101 21.1201 74.0201 21.5601C74.0001 21.6001 74.0701 21.5901 74.0801 21.5701C74.1601 21.4701 74.2601 21.3601 74.3101 21.2301C74.3501 21.1301 74.3501 21.0101 74.3401 20.9001C74.3301 20.7701 74.3201 20.6301 74.2701 20.5001C74.2101 20.3501 74.1201 20.2201 74.0201 20.1001C74.0001 20.1001 73.9401 20.1201 73.9601 20.1501Z" fill="#914620"/>
<path d="M41.6801 45.6701C41.4401 45.5601 41.3401 45.31 41.3301 45.02C41.3101 44.69 41.2701 44.4401 41.4601 44.3101C41.4601 44.3101 41.9501 43.2301 41.9501 43.1001C41.9601 42.7801 41.9501 42.4601 41.9001 42.1401C41.8201 41.6101 41.6401 41.0701 41.3201 40.6801C40.9301 40.2001 40.3001 40.0301 39.7601 40.1001C39.6401 40.1201 39.5101 40.1801 39.3901 40.1801C39.3901 40.1801 40.1001 40.1501 41.1401 41.1401C41.4701 41.4501 41.6301 41.9601 41.7201 42.4301C41.7701 42.7201 41.2301 44.0301 41.1701 44.1201C40.9801 44.3901 41.0001 44.7201 41.0001 44.7501C41.0801 45.8201 41.4701 45.9001 41.6001 45.9001C41.6301 45.9001 41.6501 45.8901 41.6501 45.8901L41.9501 45.8101L41.6801 45.6701Z" fill="#502313"/>
<path d="M74.8699 45.6701C75.1099 45.5601 75.2099 45.31 75.2199 45.02C75.2399 44.69 75.2799 44.4401 75.0899 44.3101C75.0899 44.3101 74.5999 43.2301 74.5999 43.1001C74.5899 42.7801 74.5999 42.4601 74.6499 42.1401C74.7299 41.6101 74.9099 41.0701 75.2299 40.6801C75.6199 40.2001 76.2499 40.0301 76.7899 40.1001C76.9099 40.1201 77.0399 40.1801 77.1599 40.1801C77.1599 40.1801 76.4499 40.1501 75.4099 41.1401C75.0799 41.4501 74.9199 41.9601 74.8299 42.4301C74.7799 42.7201 75.3199 44.0301 75.3799 44.1201C75.5699 44.3901 75.5499 44.7201 75.5499 44.7501C75.4699 45.8201 75.0799 45.9001 74.9499 45.9001C74.9199 45.9001 74.8999 45.8901 74.8999 45.8901L74.5999 45.8101L74.8699 45.6701Z" fill="#502313"/>
<path d="M105.33 129.61C105.32 122.05 105.01 110.61 103.15 103.39L82.47 110.68C83.21 113.65 82.47 110.68 82.47 110.68C83.13 115.5 83.85 115.59 85.16 120.24C85.62 121.88 96.42 120.67 96.89 122.31C97.32 123.85 89.29 128.98 89.48 130.58" fill="#994E2E"/>
<path d="M87.6501 138.03C87.5701 137.54 87.9101 136.08 86.3901 132.1C83.9701 125.77 82.8601 115.17 82.8301 112.37C82.7801 106.91 86.5401 113.44 89.9301 115.69L95.5701 116.06C97.2001 119.55 98.3701 116.9 100.08 119.98C103.05 125.32 97.6301 114.42 100.08 119.98C100.94 121.94 101.86 116.72 102.72 118.68C103.53 120.52 104.88 120.11 105.35 124.33C105.35 124.33 105.38 134.78 105.32 137.92C105.28 140.23 106.01 144 105.84 145.61C105.59 147.97 106.58 155.17 106.58 155.17C106.58 155.17 106.63 157.65 105.96 161.94C104.24 172.97 103.92 186.93 104.52 191.59L94.3601 192.73C94.3601 192.73 86.2401 153.78 87.7001 145.17C87.7001 145.17 88.0401 140.59 87.6501 138.03Z" fill="#994E2E"/>
<path d="M97.9998 215.31C97.9998 215.31 97.9798 215.99 97.9598 216.97C97.5198 222.27 98.2698 224.49 95.3198 228.49C99.0798 226.54 100.44 222.34 98.0698 216.35C98.0298 215.72 97.9998 215.31 97.9998 215.31Z" fill="#854324"/>
<path d="M94.14 190.32C94.56 193.12 94.5299 196.37 93.2899 199.44C90.7899 205.63 93.9999 212.2 93.9999 215.96C93.9999 217.2 92.5899 219.9 92.5399 221.18C92.6899 222.58 93.4999 223.05 93.4999 223.05C93.4599 223.84 93.6199 222.68 93.4999 223.05C93.0599 224.41 93.1199 225.92 92.8799 226.75C92.6399 227.57 90.9999 230.96 93.0499 231.47C93.0499 231.47 94.28 232.21 94.92 230.95C94.92 230.95 96.2299 229.49 96.3199 228.98C96.4099 228.47 97.11 225.78 97.39 225.23C97.67 224.68 98.5299 222.93 98.4999 221.46C98.4999 221.19 98.5599 220.64 98.5599 220.64C98.8899 220.27 98.8999 220.26 98.8299 220.48C98.6199 221.11 98.7699 223.19 98.3199 223.93C97.7099 224.94 96.5699 225.85 95.9599 227.77C95.5199 229.17 94.7899 229.81 94.7199 230.26C94.5999 231.07 95.6099 231.13 95.6099 231.13C95.6099 231.13 95.9699 231.19 96.9399 230.66C98.2099 229.96 97.6399 230.2 98.8599 229.09C98.8599 229.09 100.66 226.47 101.27 225.7C101.88 224.92 102.37 223.88 102.58 222.6C102.79 221.32 103.47 218.54 102.57 220.23C102.12 221.09 102.97 222.57 101.89 223.28C101.42 223.59 99.3699 228.25 99.3699 228.25C100.59 227.61 99.5299 228.06 100.56 227.74C100.56 227.74 102.33 227.4 103.61 226.04C103.61 226.04 105.82 224.01 105.65 222.64C105.65 222.64 106.36 220.47 106.53 218.52C106.62 217.51 105.46 221.4 105.65 222.64C105.65 222.64 107.5 220.78 107.71 219.78C108.15 217.59 108.66 214.88 108.79 214.41C108.92 213.93 109.61 211.55 108.37 208.42C107.13 205.28 104.84 200.54 105.36 198.04C105.88 195.54 104.41 189.45 104.11 180.03L92.45 181.26C92.48 181.25 93.5 186.09 94.14 190.32Z" fill="#994E2E"/>
<path d="M103.28 213.96C103.28 213.96 102.98 219.71 102.93 221.11C102.88 222.5 102.48 223.64 101.91 224.5C101.34 225.36 99.5498 228.1 99.5498 228.1C99.5498 228.1 101.52 225.14 101.99 224.79C103.08 223.98 103.16 220.85 103.25 219.82C103.49 217.44 103.28 213.96 103.28 213.96Z" fill="#854324"/>
<path d="M106.19 220.23C106.19 220.23 106.61 218.42 106.51 216.31C106.4 214.2 106.06 213.39 107.09 212.34C107.09 212.34 106.45 214.23 106.64 215.35C106.83 216.46 106.49 219.67 106.19 220.23Z" fill="#854324"/>
<path fill-rule="evenodd" clip-rule="evenodd" d="M68.28 354.11C68.49 355.41 69.05 359.23 69.97 365.58C70.89 371.98 70.4 375.45 70.45 375.93C70.54 376.85 70.49 377.95 70.31 379.23C70.21 379.85 70.1 380.32 69.99 380.64C69.81 381.36 69.75 382.11 69.8 382.89L92.72 382.19C91.94 381.7 91.1 381.19 90.2 380.67C89.67 380.24 89.09 379.62 88.47 378.83C87.25 377.25 86.44 375.59 86.04 373.86C85.79 372.75 84.73 363 85.03 359.49C86.11 347.27 86.52 335.17 86.27 323.19C85.82 312.83 82.2 314.85 82.3 312.3L73.13 307.02L68.93 306.58C69.15 307.99 63.47 314.01 64.42 324.27C65.33 333.92 66.61 343.88 68.28 354.11Z" fill="#994E2E"/>
<path d="M111.93 392.97C111.93 392.97 114.93 397.69 113.09 399.55C108.65 404.04 99.1 405.73 91.42 400.15C83.75 394.57 69.62 396.57 68.64 395.25C65.44 390.95 69.7 389.72 69.7 389.72L111.93 392.97Z" fill="#502313"/>
<path d="M87.8299 377.72C87.8299 377.72 94.5199 384.15 97.1599 386.94C99.8099 389.73 111.34 391.15 111.98 392.98C114.16 399.12 107.43 402.17 100.36 400.43C93.2899 398.68 84.3799 393.53 81.6599 393.46C78.9399 393.39 69.1699 394.75 67.8499 390.86C66.5199 386.98 69.4299 378.44 70.7799 378.25C72.1299 378.05 79.2599 384.18 81.4599 382C83.6699 379.8 83.6299 373.63 87.8299 377.72Z" fill="#994E2E"/>
<path fill-rule="evenodd" clip-rule="evenodd" d="M46.3799 354.31C46.1499 355.6 45.5099 359.42 44.4899 365.74C43.4599 372.12 43.8799 375.6 43.8199 376.08C43.7199 377 43.7399 378.1 43.8999 379.38C43.9899 380 44.09 380.47 44.2 380.79C44.36 381.51 44.4099 382.26 44.3499 383.04L21.4399 381.93C22.2299 381.45 23.0799 380.96 23.9899 380.45C24.5299 380.03 25.1099 379.42 25.7499 378.64C26.9999 377.08 27.8399 375.43 28.2599 373.71C28.5299 372.61 29.7599 362.88 29.5299 359.36C28.6699 347.13 28.4699 335.02 28.9399 323.04C29.5799 312.69 33.1599 314.78 33.0999 312.22L42.3599 307.1L46.5699 306.74C46.3299 308.14 51.8899 314.27 50.7699 324.51C49.6999 334.18 48.2299 344.11 46.3799 354.31Z" fill="#994E2E"/>
<path d="M2.05011 392.39C2.05011 392.39 -1.02989 397.06 0.78011 398.95C5.14011 403.52 14.6601 405.38 22.4301 399.93C30.2001 394.49 44.2901 396.74 45.2901 395.44C48.5701 391.2 44.3301 389.89 44.3301 389.89L2.05011 392.39Z" fill="#502313"/>
<path d="M26.4201 377.56C26.4201 377.56 19.6201 383.87 16.9201 386.61C14.2201 389.35 2.67011 390.57 1.99011 392.38C-0.29989 398.48 6.37011 401.65 13.4701 400.03C20.5701 398.41 29.5701 393.41 32.2901 393.39C35.0101 393.37 44.7501 394.9 46.1501 391.04C47.5401 387.18 44.7901 378.59 43.4401 378.38C42.0901 378.16 34.8501 384.15 32.7001 381.94C30.5401 379.73 30.6901 373.56 26.4201 377.56Z" fill="#994E2E"/>
<path d="M91.7398 193.79C94.8298 201.08 93.8298 209.08 95.2298 215.84C95.2498 216.24 95.2498 216.65 95.2498 217.06C95.2198 219.1 94.9998 221.17 94.5398 223.5C94.5098 224.1 94.4798 224.7 94.4498 225.31C94.2498 228.94 93.9798 232.64 93.7498 236.42C93.9398 237 94.1298 237.59 94.3098 238.17C94.4998 238.75 94.6798 239.34 94.8598 239.93C95.4398 244.82 94.9598 250.02 94.8098 255.06C94.7898 255.9 94.7698 256.73 94.7698 257.56C94.8198 265.09 95.8198 275.09 90.7898 282.17C90.3598 282.98 89.9998 283.8 89.6798 284.62C87.7698 289.56 87.5998 294.75 86.9098 299.78C86.8298 300.49 86.7598 301.22 86.7098 301.96C86.5398 304.91 86.8098 308 88.6598 310.83C88.6698 311.05 88.6898 313.36 88.6998 316.02C88.6998 316.9 88.7098 317.83 88.7098 318.73C85.8298 327.08 87.8298 336.08 88.1798 344.23C88.0298 345.08 87.8998 345.93 87.7898 346.79C87.2298 351.08 87.1398 355.46 87.4898 359.78C87.5598 360.64 87.6498 361.5 87.7498 362.36C87.8298 367.08 89.8298 375.08 84.8998 377.01C84.2998 377.18 83.6698 377.22 83.0098 377.09C82.4098 377.17 81.7898 377.24 81.1598 377.29C75.5098 377.75 69.4398 377 65.5798 375.94C65.4098 375.46 65.2398 374.92 65.0798 374.33C65.0398 374.18 64.8198 373.33 64.5698 372.07C61.8298 364.08 62.8298 355.08 62.9398 346.79C62.9898 346.02 63.0398 345.3 63.0798 344.67C63.1298 344.04 63.1698 343.5 63.2098 343.1C63.2898 342.3 63.3698 335.51 63.4398 334.72C63.4998 328.29 61.0498 331.56 61.1398 326.52C61.1498 326.18 61.1598 325.81 61.1898 325.4C63.9998 321.94 60.7198 306.69 59.6698 303.37C59.5398 302.95 59.4398 302.54 59.3998 302.12C59.2598 301.31 59.1498 300.46 59.0598 299.59C59.0098 299.15 58.9698 298.71 58.9398 298.26C58.8198 296.08 59.0298 294.22 59.0098 292.39C59.0098 292.02 58.9898 291.66 58.9698 291.29C58.8498 288.94 58.1798 286.84 57.2898 284.9C57.1098 284.51 56.9298 284.13 56.7298 283.75C54.6998 280.08 54.6998 273.08 52.1898 268.85C52.0898 268.4 51.9998 267.95 51.9198 267.48C51.6998 264.07 48.6998 258.07 49.5598 253.8C49.4298 252.57 49.3098 251.3 49.1898 250.03C47.3398 229.65 47.6098 208.52 46.0298 197.71" fill="#7E1620"/>
<path d="M25.3699 193.229C22.8299 200.079 22.8299 207.079 22.3399 214.499C22.3099 215.399 22.2899 216.299 22.2899 217.199C22.2099 217.639 22.1399 218.089 22.0799 218.529C22.0199 218.969 21.9599 219.419 21.9199 219.869C21.7699 223.629 21.7299 227.269 21.8599 230.849C21.8799 231.299 21.8999 231.739 21.9099 232.189C22.3099 234.139 22.5099 236.369 22.6299 238.549C22.6699 239.279 22.6999 239.999 22.7199 240.699C22.8399 250.089 20.8399 259.089 21.7699 267.699C21.8799 268.619 22.0199 269.539 22.1899 270.449C23.8299 279.079 28.8299 287.079 27.9699 296.739C27.9899 297.509 28.0099 298.27 28.0299 299.03C28.1599 304.36 28.2199 309.449 26.7899 314.989C26.7699 315.859 26.7799 316.759 26.7899 317.669C26.8899 323.109 27.4299 328.849 26.7799 330.909C26.6499 331.329 26.4599 331.749 26.2099 332.159C26.2499 332.569 26.2899 333.089 26.3299 333.689C26.3699 334.289 26.3999 334.979 26.4299 335.739C26.4699 336.579 26.5099 337.4 26.5399 338.21C26.5699 339.02 26.5999 339.819 26.6199 340.609C26.8399 347.099 26.8399 353.099 26.6699 358.609C26.6599 359.389 26.6499 360.099 26.6499 360.719C26.6399 361.339 26.6399 361.879 26.6299 362.319C26.5699 362.669 26.4899 363.009 26.3899 363.349C26.2899 363.689 26.1699 364.029 26.0199 364.359C26.0699 364.729 26.1399 365.109 26.2299 365.499C26.4999 366.659 26.8799 373.839 27.4499 375.049C27.7399 375.409 28.0599 375.74 28.3999 376.02C29.4199 376.86 30.6399 377.279 31.9599 377.059C32.5499 377.149 33.1699 377.229 33.7999 377.289C39.4399 377.849 45.5199 377.2 49.4099 376.21C49.5899 375.73 49.7699 375.199 49.9399 374.609C49.9999 374.389 50.4799 372.589 51.0299 370.199C51.2099 369.399 51.4099 368.54 51.5999 367.65C51.8399 363.09 53.8399 357.089 52.8599 351.719C52.7999 350.889 52.7199 349.999 52.6199 349.049C51.9299 342.439 50.5399 333.449 52.4499 329.629C52.5599 329.109 52.6799 328.599 52.8099 328.079C53.5499 324.989 54.3799 309.879 54.0299 306.669C54.1499 306.169 54.2799 305.669 54.4299 305.189C54.5499 304.829 54.6699 304.469 54.8099 304.119C54.9499 303.769 55.0899 303.429 55.2499 303.099C55.3999 302.599 55.5099 302.099 55.5999 301.599C55.6899 301.099 55.7499 300.599 55.7899 300.099C55.1599 297.139 55.5999 294.529 56.3499 292.159C56.4599 291.819 56.5699 291.489 56.6799 291.159C57.3099 288.109 58.2799 285.089 59.4399 282.229C59.6299 281.749 59.8299 281.279 60.0299 280.819C60.7199 279.079 61.7199 275.079 62.3299 273.579C62.4399 273.189 62.5399 272.809 62.6299 272.449C62.6999 271.989 62.7999 271.529 62.9199 271.069C63.2599 269.709 63.7699 268.389 64.2999 267.059C64.4799 266.609 64.6599 266.159 64.8299 265.699C66.7199 261.069 66.7199 253.069 67.5899 248.339C67.6199 248.009 67.6599 246.689 67.6899 246.359C69.5799 227.139 69.7599 208.539 71.4299 198.329" fill="#7E1620"/>
<path d="M94.85 239.93C94.67 239.35 94.4899 238.76 94.2999 238.17C94.1099 237.59 93.9299 237 93.7399 236.42C93.9699 232.64 94.2399 228.94 94.4399 225.31C94.4699 224.71 94.4999 224.1 94.5299 223.5C94.9899 221.17 95.2099 219.1 95.2399 217.06C95.2399 216.65 95.2399 216.25 95.2199 215.84C93.8199 209.08 94.82 201.08 91.73 193.79L57.1799 196.76L25.36 193.22C22.82 200.07 22.82 207.07 22.33 214.49C22.3 215.39 22.2799 216.29 22.2799 217.19C22.1999 217.63 22.13 218.08 22.07 218.52C22.01 218.96 21.95 219.41 21.91 219.86C21.76 223.62 21.72 227.26 21.85 230.84C21.87 231.29 21.8899 231.73 21.8999 232.18C22.2999 234.13 22.4999 236.36 22.6199 238.54C22.6599 239.27 22.69 239.99 22.71 240.69C22.83 250.08 20.83 258.08 22.16 267.22C22.25 268.14 22.35 269.07 22.49 269.99C22.83 279.09 26.8299 287.09 27.8399 295.59C27.8199 296.48 27.7599 297.39 27.6399 298.32C27.5999 299.27 27.56 300.22 27.52 301.18C27.3 305.94 27.07 310.69 27.47 315.02C27.51 315.79 27.5399 316.55 27.5599 317.33C27.6799 321.19 27.6199 325.16 27.3399 329.22C27.2799 330.15 27.2 331.08 27.11 332.02C27.2 332.9 27.29 333.79 27.38 334.67C27.42 335.51 27.4599 336.34 27.4999 337.16C27.5399 337.98 27.56 338.78 27.58 339.58C28.81 345.1 26.81 352.1 26.74 358.12C26.68 358.99 26.6399 359.86 26.6199 360.72C26.6099 361.34 26.61 361.88 26.6 362.32C26.54 362.67 26.46 363.01 26.36 363.35C26.26 363.69 26.14 364.03 25.99 364.36C26.04 364.73 26.1099 365.11 26.1999 365.5C26.4699 366.66 26.8499 373.84 27.4199 375.05C27.7099 375.41 28.0299 375.74 28.3699 376.02C29.3899 376.86 30.6099 377.28 31.9299 377.06C32.5199 377.15 33.1399 377.23 33.7699 377.29C39.4099 377.85 45.49 377.2 49.38 376.21C49.56 375.73 49.74 375.2 49.91 374.61C49.97 374.39 50.4499 372.59 50.9999 370.2C51.1799 369.4 51.38 368.54 51.57 367.65C51.81 363.09 53.8099 357.09 52.8299 351.72C52.7699 350.89 52.6899 350 52.5899 349.05C51.8999 342.44 50.51 333.45 52.42 329.63C52.53 329.11 52.6499 328.6 52.7799 328.08C53.5199 324.99 54.35 309.88 54 306.67C54.12 306.17 54.2499 305.67 54.3999 305.19C54.5199 304.83 54.6399 304.47 54.7799 304.12C54.9199 303.77 55.06 303.43 55.22 303.1C55.37 302.6 55.48 302.1 55.57 301.6C55.66 301.1 55.72 300.6 55.76 300.1C55.13 297.14 55.57 294.53 56.32 292.16C56.43 291.82 56.5399 291.49 56.6499 291.16C56.9799 289.56 57.41 287.97 57.91 286.4C58.48 287.92 58.8799 289.54 58.9599 291.29C58.9899 291.66 59 292.02 59 292.39C59.02 294.22 58.7999 296.08 58.9299 298.26C58.9699 298.71 59.0099 299.15 59.0499 299.59C59.1399 300.46 59.25 301.31 59.39 302.12C59.44 302.54 59.53 302.95 59.66 303.37C60.71 306.69 63.9899 321.94 61.1799 325.4C61.1499 325.81 61.13 326.19 61.13 326.52C61.04 331.55 63.4899 328.29 63.4299 334.72C63.3699 335.51 63.29 342.3 63.2 343.1C63.16 343.5 63.11 344.03 63.07 344.67C63.02 345.3 62.9799 346.02 62.9299 346.79C62.8199 355.07 61.8199 364.07 64.5599 372.07C64.8099 373.33 65.03 374.18 65.07 374.33C65.23 374.92 65.39 375.46 65.57 375.94C69.44 377 75.4999 377.76 81.1499 377.29C81.7799 377.24 82.4 377.17 83 377.09C83.66 377.22 84.3 377.18 84.89 377.01C89.82 375.07 87.8199 367.07 87.7399 362.36C87.6299 361.5 87.55 360.64 87.48 359.78C87.13 355.46 87.2299 351.08 87.7799 346.79C87.8899 345.93 88.02 345.08 88.17 344.23C87.82 336.08 85.82 327.08 88.7 318.73C88.7 317.83 88.6899 316.91 88.6899 316.02C88.6799 313.37 88.6699 311.06 88.6499 310.83C86.8099 307.99 86.53 304.91 86.7 301.96C86.74 301.22 86.8099 300.5 86.8999 299.78C87.5899 294.75 87.76 289.56 89.67 284.62C89.99 283.8 90.3599 282.98 90.7799 282.17C95.8099 275.08 95.81 266.08 94.76 258C94.76 257.26 94.77 256.52 94.79 255.78C94.93 251.36 95.3999 246.97 94.7699 242.3C94.8099 241.51 94.84 240.72 94.85 239.93Z" fill="#502110"/>
<path d="M12.13 401.72C9.97 402.78 2.72 399.18 1.25 397.47C-1.14 394.82 0.910004 391.02 2.77 390.35C5.21 389.63 6.41 392.74 8.53 394.87C8.82 395.21 11.91 397.97 12.46 399.11C12.68 400.21 12.38 401.47 12.13 401.72Z" fill="#FDC99D"/>
<path d="M12.44 386.99C11.83 387.35 6.07004 389.99 5.55004 390.34C3.96004 391.37 4.31004 391.72 5.66004 393.87C6.71004 395.79 8.63004 395.77 10.91 394.96C11.48 394.76 16.77 392.81 17.55 392.43C23.57 388.8 28.46 387.25 32.1 381.79C31.66 380.55 29.47 378.22 28.53 377.83C24.8 376.27 25.46 376.46 23.56 378.39C23.33 378.66 15.76 385.07 12.44 386.99Z" fill="#FDC99D"/>
<path d="M5.58008 390.41C10.5401 389.38 12.8001 392.5 13.6901 395.61C14.2501 397.33 14.5101 399.28 14.0001 401.23C15.0401 401.24 17.0401 401.58 18.2101 400.38C18.9601 398.38 17.5801 393.98 17.4801 393.64C16.3201 389.59 12.5901 384.47 6.84007 388.68C6.24007 389.52 5.58008 390.41 5.58008 390.41Z" fill="#FDC99D"/>
<path d="M12.0901 387.3C16.8801 386.43 19.4501 390.23 20.4101 393.19C21.0101 394.82 21.0301 397.68 20.5901 399.51C21.6001 399.54 23.5401 398.11 24.6501 397C25.3201 395.13 24.0501 392.04 24.0501 391.72C23.9801 391.43 23.8501 390.93 23.7501 390.61C22.5101 386.76 18.7401 381.83 13.2801 385.7C12.7001 386.47 12.0901 387.3 12.0901 387.3Z" fill="#FDC99D"/>
<path d="M16.74 383.88C21.9 383.25 25.81 386.48 27 389.59C27.73 391.32 28.66 394.22 28.27 396.09C29.37 396.17 31.39 395.51 32.54 394.43C32.53 392.32 31.19 388.33 30.43 386.79C28.39 382.63 24.48 377.97 18.74 381.65C17.69 382.29 16.74 383.88 16.74 383.88Z" fill="#FDC99D"/>
<path d="M22.8301 378.5C28.2701 378.05 32.1901 381.57 33.9301 384.85C34.7701 386.64 36.9901 392.73 36.6501 394.61C37.8201 394.74 37.8401 395.15 39.0201 394.08C39.6301 392.16 37.0701 386.79 35.7101 383.77C33.8001 379.52 28.9201 374.8 24.8701 376.28C23.7801 376.91 22.8301 378.5 22.8301 378.5Z" fill="#FDC99D"/>
<path d="M42.0401 381.1C39.5001 382.26 36.96 383.69 34.27 384.55C34.43 383.96 33.1201 382.42 33.2201 381.83C34.8501 381.23 37.17 381.14 39.09 380.16C39.41 379.98 40.41 379.3 40.71 379.12C41.92 378.4 42.6701 377.72 43.7801 376.6C44.6401 376.75 45.3701 379.08 44.4401 379.84C44.1301 380.08 42.4201 380.9 42.0401 381.1Z" fill="#FDC99D"/>
<path d="M89.4401 193.69L106.53 191.59L108.75 178.42L108.17 132.82L101.8 83.0698L91.8501 84.2898L85.6401 104.86L89.4401 193.69Z" fill="#7E1620"/>
<path d="M99.2499 103.5C96.9699 108.84 94.4499 112.83 91.6599 115.36C89.6699 116.23 87.68 117.1 85.7 117.97L86.2199 197.51H105.61L103.43 105.72C102.02 105.39 100.62 104.64 99.2499 103.5Z" fill="url(#paint2_linear_229_216)"/>
<path d="M92.43 201.97L107.13 201.41L106.43 188.92L91.28 191.08L92.43 201.97Z" fill="#7E1620"/>
<path d="M92.43 201.97L107.13 201.41L106.43 188.92L91.28 191.08L92.43 201.97Z" fill="url(#paint3_linear_229_216)"/>
<path d="M77.3099 74.29C77.3099 74.29 71.22 87.4 57.67 87.35C44.11 87.31 39.9399 74.16 39.9399 74.16L42.7599 72.77C44.4199 75.23 47.84 83.73 57.67 83.77C67.49 83.8 72.8799 75.34 74.5099 72.89" fill="#7E1620"/>
<path d="M76.7399 149.55C76.6499 141.01 80.67 132.47 86.92 126.68C87.9 121.78 89.3799 117.22 91.5899 112.26C91.6799 110.37 91.79 108.48 91.95 106.59C92.47 100.52 92.5299 94.5899 93.0299 88.6099C92.1699 88.2399 91.2299 87.7899 90.1599 87.2199C88.1099 86.1399 85.2099 83.6299 84.1299 82.6799C84.1199 82.6699 84.1099 82.6599 84.0999 82.6499C81.8799 81.6199 80.63 80.6399 77.39 77.9299C77.02 77.6199 76.6599 77.2799 76.2999 76.8999C73.8799 80.5899 67.7999 87.9299 57.6499 87.8999H57.5499C47.8399 87.8699 42.94 81.1099 40.95 77.2799L40.0399 78.4399C39.0399 79.2699 38.1499 80.2099 37.2399 81.1299C35.4899 82.8799 33.5599 84.3299 31.5799 85.8099C31.4599 86.0199 31.3499 86.2199 31.2299 86.4199C31.3199 89.3399 31.5499 92.2499 31.6099 95.1799C31.8399 106.58 32.4399 118.01 31.0099 129.36C30.9899 129.54 30.9599 129.73 30.9399 129.91C30.9499 130.38 30.9699 130.83 30.9799 131.3C33.16 132.43 35.17 133.89 36.92 135.65C41.02 139.78 43.4799 145.33 43.8299 151.12C48.5299 151.24 53.2299 151.39 57.9299 151.68C62.9699 152 68.0099 152.42 73.0399 152.91C73.5499 152.48 74.0499 152.05 74.5599 151.62C75.2899 150.99 76.0299 150.35 76.7699 149.72C76.7499 149.67 76.7499 149.61 76.7399 149.55Z" fill="#7E1620"/>
<path d="M72.45 70.3901L72.9 79.8601L57.95 121.75L57.54 199.75L62.08 210.02L95.27 206.24C95.27 206.24 95.12 202.13 94.88 195.58C94.82 193.94 94.76 192.15 94.69 190.24C94.49 188.62 94.3 187 94.13 185.37C93.95 183.74 93.79 182.1 93.63 180.46C89.71 164.08 92.71 147.08 92.56 131.08C92.45 129.58 92.34 128.08 92.24 126.58C91.63 117.62 91.37 108.87 94.31 100.9C94.69 100.01 95.08 99.0601 95.49 98.0901C98.36 91.2601 101.81 83.0701 101.81 83.0701L78.71 75.8001L72.45 70.3901Z" fill="#7E1620"/>
<path d="M75.87 74.26L66.77 85.14L63.29 82.41L58.08 84.13L56.77 84.57L63.69 79.43L71.81 68.5L73.19 72.73L75.87 74.26Z" fill="#FDC99D"/>
<path d="M41.01 74.26L50.12 85.14L53.59 82.41L58.8 84.13L60.11 84.57L53.19 79.43L45.07 68.5L43.69 72.73L41.01 74.26Z" fill="#FDC99D"/>
<path d="M79.9 75.6498L76.9 96.2898L71.23 97.7098L74.97 105.7L68.54 111.69L53.54 127.74L71.92 79.0698L72.25 69.5498L79.9 75.6498Z" fill="#502313"/>
<path d="M83.3201 183.79L77.8701 184.96L69.11 185.34L68.3201 181.86L76.4301 181.45L83.6401 179.62L83.3201 183.79Z" fill="#502313"/>
<path d="M44.4601 70.3901L43.0101 76.8601L61.2701 130.59C61.2701 130.59 61.7501 132.83 61.1101 150.65C61.0601 151.92 61.0201 153.21 60.9701 154.49C60.7001 157.08 60.7001 159.08 60.6901 162.24C60.6401 163.53 60.6001 164.81 60.5501 166.08C59.9201 183.9 59.3601 199.74 59.3601 199.74L54.8201 210.01L21.6301 206.23C21.6301 206.23 21.6801 204.79 21.7701 202.27C21.8201 201.01 21.8701 199.47 21.9501 197.71C22.0201 196.25 22.1001 194.79 22.1801 193.34C22.2601 191.89 22.3401 190.44 22.4301 189C23.0601 181.04 24.1301 172.81 24.7501 164.59C24.8801 162.95 24.9801 161.3 25.0601 159.66C25.1201 158.1 25.1601 156.53 25.1701 154.94C24.6901 138.08 23.6901 122.08 24.4701 105.36C24.0001 104.25 23.3401 102.68 22.5901 100.9C19.5901 93.7701 15.0901 83.0701 15.0901 83.0701L38.1901 75.8001L44.4601 70.3901Z" fill="#7E1620"/>
<path d="M37 76.0198L39.95 97.9298L45.52 99.4298L41.84 107.91L48.15 114.27L62.88 131.3L44.84 79.6498L44.51 69.5498L37 76.0198Z" fill="#502313"/>
<path d="M83.7 126.18L78.2399 127.36L69.4899 127.74L68.6899 124.26L76.8099 123.85L84.0199 122.01L83.7 126.18Z" fill="#502313"/>
<path d="M33.9501 126.18L39.4101 127.36L48.1601 127.74L48.9601 124.26L40.8401 123.85L33.6401 122.01L33.9501 126.18Z" fill="#502313"/>
<path d="M56.0601 141.54C56.0601 142.58 56.9001 143.42 57.9401 143.42C58.9801 143.42 59.8201 142.58 59.8201 141.54C59.8201 140.5 58.9801 139.66 57.9401 139.66C56.9001 139.66 56.0601 140.5 56.0601 141.54Z" fill="#502313"/>
<path d="M56.0601 156.08C56.0601 157.12 56.9001 157.96 57.9401 157.96C58.9801 157.96 59.8201 157.12 59.8201 156.08C59.8201 155.04 58.9801 154.2 57.9401 154.2C56.9001 154.2 56.0601 155.04 56.0601 156.08Z" fill="#502313"/>
<path d="M55.0601 169.93C55.0601 170.97 55.9001 171.81 56.9401 171.81C57.9801 171.81 58.8201 170.97 58.8201 169.93C58.8201 168.89 57.9801 168.05 56.9401 168.05C55.9001 168.05 55.0601 168.89 55.0601 169.93Z" fill="#502313"/>
<path d="M101.68 402.13C103.82 403.23 111.13 399.76 112.64 398.07C115.08 395.46 113.09 391.63 111.24 390.92C108.82 390.15 107.56 393.24 105.4 395.34C105.1 395.67 101.97 398.38 101.4 399.51C101.16 400.61 101.44 401.87 101.68 402.13Z" fill="#FDC99D"/>
<path d="M101.63 387.39C102.23 387.76 107.94 390.51 108.46 390.86C110.03 391.92 109.67 392.26 108.28 394.39C107.2 396.29 105.28 396.24 103.01 395.39C102.44 395.18 97.1901 393.13 96.4201 392.74C90.4601 389 85.6101 387.36 82.0601 381.84C82.5201 380.61 84.7601 378.32 85.7001 377.94C89.4601 376.45 88.7901 376.62 90.6501 378.59C90.8901 378.87 98.3501 385.41 101.63 387.39Z" fill="#FDC99D"/>
<path d="M108.43 390.93C103.49 389.81 101.18 392.9 100.23 395.99C99.6301 397.7 99.3501 399.65 99.8201 401.6C98.7801 401.59 96.7701 401.9 95.6201 400.68C94.9001 398.67 96.3601 394.29 96.4701 393.96C97.7001 389.93 101.53 384.88 107.19 389.19C107.79 390.03 108.43 390.93 108.43 390.93Z" fill="#FDC99D"/>
<path d="M101.98 387.7C97.2101 386.74 94.5701 390.5 93.5601 393.44C92.9301 395.06 92.8601 397.92 93.2701 399.75C92.2601 399.76 90.3501 398.3 89.2601 397.17C88.6201 395.29 89.9501 392.22 89.9501 391.91C90.0301 391.62 90.1601 391.12 90.2701 390.8C91.5801 386.97 95.4401 382.12 100.83 386.08C101.39 386.87 101.98 387.7 101.98 387.7Z" fill="#FDC99D"/>
<path d="M97.3899 384.2C92.2399 383.48 88.2799 386.64 87.0299 389.73C86.2699 391.44 85.2899 394.33 85.6399 396.2C84.5399 396.26 82.5299 395.57 81.3999 394.46C81.4499 392.36 82.8599 388.38 83.6399 386.85C85.7499 382.73 89.7399 378.14 95.4199 381.92C96.4699 382.6 97.3899 384.2 97.3899 384.2Z" fill="#FDC99D"/>
<path d="M91.3899 378.72C85.9599 378.17 81.9799 381.62 80.1799 384.87C79.3099 386.64 76.9799 392.69 77.2899 394.58C76.1199 394.69 76.0899 395.1 74.9299 394.01C74.3599 392.08 77.0099 386.76 78.4199 383.76C80.4099 379.55 85.3699 374.91 89.3899 376.47C90.4799 377.11 91.3899 378.72 91.3899 378.72Z" fill="#FDC99D"/>
<path d="M72.14 380.98C74.66 382.18 77.17 383.66 79.85 384.57C79.7 383.97 81.04 382.46 80.95 381.86C79.33 381.23 77.02 381.1 75.12 380.08C74.81 379.9 73.82 379.19 73.52 379.01C72.33 378.27 71.59 377.58 70.49 376.43C69.63 376.56 68.86 378.88 69.77 379.66C70.07 379.92 71.77 380.77 72.14 380.98Z" fill="#FDC99D"/>
<defs>
<linearGradient id="paint0_linear_229_216" x1="47.7126" y1="148.037" x2="-17.9915" y2="155.008" gradientUnits="userSpaceOnUse">
<stop stop-color="#7E1620"/>
<stop offset="0.5411" stop-color="#7E1620" stop-opacity="0"/>
</linearGradient>
<linearGradient id="paint1_linear_229_216" x1="25.8764" y1="195.445" x2="10.0273" y2="195.445" gradientUnits="userSpaceOnUse">
<stop stop-color="#7E1620"/>
<stop offset="0.5672" stop-color="#7E1620" stop-opacity="0"/>
</linearGradient>
<linearGradient id="paint2_linear_229_216" x1="69.4436" y1="148.037" x2="135.147" y2="155.008" gradientUnits="userSpaceOnUse">
<stop stop-color="#7E1620"/>
<stop offset="0.5411" stop-color="#7E1620" stop-opacity="0"/>
</linearGradient>
<linearGradient id="paint3_linear_229_216" x1="91.2797" y1="195.445" x2="107.129" y2="195.445" gradientUnits="userSpaceOnUse">
<stop stop-color="#7E1620"/>
<stop offset="0.5672" stop-color="#7E1620" stop-opacity="0"/>
</linearGradient>
</defs>
</svg>
