<?xml version="1.0" encoding="utf-8"?>
<!-- Generator: Adobe Illustrator 23.1.0, SVG Export Plug-In . SVG Version: 6.00 Build 0)  -->
<svg version="1.1" id="Layer_1" xmlns="http://www.w3.org/2000/svg" xmlns:xlink="http://www.w3.org/1999/xlink" x="0px" y="0px"
	 viewBox="0 0 595.28 841.89" style="enable-background:new 0 0 595.28 841.89;" xml:space="preserve">
<style type="text/css">
	.st0{fill:#994E2E;}
	.st1{fill:#854324;}
	.st2{fill-rule:evenodd;clip-rule:evenodd;fill:#994E2E;}
	.st3{fill:#502313;}
	.st4{fill:#F06C57;}
	.st5{fill-rule:evenodd;clip-rule:evenodd;fill:#502313;}
	.st6{fill:#502110;}
	.st7{fill-rule:evenodd;clip-rule:evenodd;fill:url(#SVGID_1_);}
	.st8{fill-rule:evenodd;clip-rule:evenodd;fill:#924520;}
	.st9{fill:#502110;stroke:#502110;stroke-width:0.1417;stroke-linejoin:bevel;stroke-miterlimit:10;}
	.st10{fill:#773017;}
	.st11{fill:#6A2910;}
	.st12{fill:#6E3423;}
	.st13{fill:#803D1B;}
	.st14{fill:#914620;}
	.st15{fill-rule:evenodd;clip-rule:evenodd;fill:#FDC99D;}
	.st16{fill-rule:evenodd;clip-rule:evenodd;fill:#502110;}
	.st17{clip-path:url(#SVGID_3_);}
	.st18{fill:#7C161E;}
</style>
<g>
	<g>
		<g>
			<path class="st0" d="M240.39,363.1c0.01-7.56,0.32-19,2.18-26.22l20.68,7.29c-0.74,2.97,0,0,0,0c-0.66,4.82-1.38,4.91-2.7,9.56
				c-0.46,1.64-11.26,0.43-11.72,2.07c-0.43,1.54,7.6,6.67,7.41,8.27"/>
		</g>
		<g>
			<path class="st0" d="M258.06,371.52c0.08-0.49-0.26-1.95,1.26-5.93c2.42-6.33,3.53-16.93,3.56-19.73
				c0.05-5.46-3.71,1.07-7.1,3.32l-5.64,0.37c-1.63,3.49-2.8,0.84-4.51,3.92c-2.97,5.34,2.45-5.56,0,0
				c-0.86,1.96-1.78-3.26-2.64-1.3c-0.81,1.84-2.16,1.43-2.63,5.65c0,0-0.03,10.45,0.03,13.59c0.04,2.31-0.69,6.08-0.52,7.69
				c0.25,2.36-0.74,9.56-0.74,9.56s-0.05,2.48,0.62,6.77c1.71,11.03,2.04,24.99,1.44,29.65l11.16,1.14c0,0,7.12-38.95,5.66-47.56
				C258.01,378.66,257.68,374.07,258.06,371.52z"/>
		</g>
		<g>
			<path class="st1" d="M247.71,448.8c0,0,0.02,0.68,0.04,1.66c0.44,5.3-0.31,7.51,2.64,11.52c-3.76-1.95-5.12-6.15-2.75-12.14
				C247.68,449.21,247.71,448.8,247.71,448.8z"/>
			<path class="st0" d="M252.57,423.81c-0.42,2.8-0.39,6.05,0.85,9.12c2.5,6.19-1.71,12.76-1.71,16.52c0,1.24,1.41,3.94,1.46,5.22
				c-0.15,1.4-0.96,1.87-0.96,1.87c0.04,0.79-0.12-0.37,0,0c0.45,1.36,0.38,2.87,0.62,3.7c0.24,0.82,1.88,4.21-0.17,4.72
				c0,0-1.23,0.74-1.88-0.52c0,0-1.31-1.46-1.4-1.97c-0.09-0.51-0.79-3.2-1.07-3.75c-0.28-0.55-1.13-2.3-1.11-3.77
				c0-0.27-0.07-0.82-0.07-0.82c-0.33-0.37-0.34-0.38-0.27-0.16c0.21,0.63,0.06,2.71,0.51,3.45c0.61,1.01,1.75,1.92,2.36,3.84
				c0.44,1.4,1.17,2.04,1.24,2.49c0.12,0.81-0.9,0.87-0.9,0.87s-0.36,0.06-1.33-0.47c-1.27-0.7-0.7-0.46-1.92-1.57
				c0,0-1.8-2.62-2.41-3.39c-0.61-0.78-1.1-1.82-1.3-3.1c-0.21-1.28-0.89-4.06,0.01-2.37c0.45,0.86-0.4,2.34,0.68,3.05
				c0.47,0.31,2.52,4.97,2.52,4.97c-1.22-0.64-0.16-0.19-1.19-0.51c0,0-1.77-0.34-3.05-1.7c0,0-2.21-2.03-2.04-3.4
				c0,0-0.71-2.17-0.88-4.12c-0.08-1.01,1.07,2.88,0.88,4.12c0,0-1.85-1.86-2.06-2.86c-0.44-2.19-0.95-4.9-1.08-5.37
				c-0.13-0.48-0.82-2.86,0.42-5.99c1.24-3.14,3.53-7.88,3.01-10.38c-0.52-2.5,0.95-8.59,1.25-18.01l12.66,1.23
				C254.23,414.74,253.21,419.58,252.57,423.81"/>
			<path class="st1" d="M242.43,447.45c0,0,0.3,5.75,0.35,7.15c0.05,1.39,0.45,2.53,1.02,3.39c0.57,0.86,2.36,3.6,2.36,3.6
				s-1.97-2.96-2.44-3.31c-1.09-0.81-1.17-3.94-1.26-4.96C242.22,450.93,242.43,447.45,242.43,447.45z"/>
			<path class="st1" d="M239.52,453.71c0,0-0.42-1.8-0.32-3.92c0.11-2.11,0.45-2.92-0.58-3.97c0,0,0.64,1.89,0.45,3.01
				C238.88,449.95,239.22,453.16,239.52,453.71z"/>
		</g>
	</g>
</g>
<g>
	<g>
		<g>
			<path class="st0" d="M332.6,361.81c-0.01-7.56-0.32-19-2.18-26.22l-20.68,7.29c0.74,2.97,0,0,0,0c0.66,4.82,1.38,4.91,2.7,9.56
				c0.46,1.64,11.26,0.43,11.72,2.07c0.43,1.54-7.6,6.67-7.41,8.27"/>
		</g>
		<g>
			<path class="st0" d="M314.93,370.23c-0.08-0.49,0.26-1.95-1.26-5.93c-2.42-6.33-3.53-16.93-3.56-19.73
				c-0.05-5.46,3.71,1.07,7.1,3.32l5.64,0.37c1.63,3.49,2.8,0.84,4.51,3.92c2.97,5.34-2.45-5.56,0,0c0.86,1.96,1.78-3.26,2.64-1.3
				c0.81,1.84,2.16,1.43,2.63,5.65c0,0,0.03,10.45-0.03,13.59c-0.04,2.31,0.69,6.08,0.52,7.69c-0.25,2.36,0.74,9.56,0.74,9.56
				s0.05,2.48-0.62,6.77c-1.71,11.03-2.04,24.99-1.44,29.65l-10.16,1.14c0,0-8.12-38.95-6.66-47.56
				C314.97,377.37,315.31,372.78,314.93,370.23z"/>
		</g>
		<g>
			<path class="st1" d="M325.27,447.51c0,0-0.02,0.68-0.04,1.66c-0.44,5.3,0.31,7.51-2.64,11.52c3.76-1.95,5.12-6.15,2.75-12.13
				C325.31,447.92,325.27,447.51,325.27,447.51z"/>
			<path class="st0" d="M321.41,422.52c0.42,2.8,0.39,6.05-0.85,9.12c-2.5,6.19,0.71,12.76,0.71,16.52c0,1.24-1.41,3.94-1.46,5.22
				c0.15,1.4,0.96,1.87,0.96,1.87c-0.04,0.79,0.12-0.37,0,0c-0.45,1.36-0.38,2.87-0.62,3.7c-0.24,0.82-1.88,4.21,0.17,4.72
				c0,0,1.23,0.74,1.88-0.52c0,0,1.31-1.46,1.4-1.97c0.09-0.51,0.79-3.2,1.07-3.75c0.28-0.55,1.13-2.3,1.11-3.77
				c0-0.27,0.07-0.82,0.07-0.82c0.33-0.37,0.34-0.38,0.27-0.16c-0.21,0.63-0.06,2.71-0.51,3.45c-0.61,1.01-1.75,1.92-2.36,3.84
				c-0.44,1.4-1.17,2.04-1.24,2.48c-0.12,0.81,0.9,0.87,0.9,0.87s0.36,0.06,1.33-0.47c1.27-0.7,0.7-0.46,1.92-1.57
				c0,0,1.8-2.62,2.41-3.39c0.61-0.78,1.1-1.82,1.3-3.1c0.21-1.29,0.89-4.06-0.01-2.37c-0.45,0.86,0.4,2.34-0.68,3.05
				c-0.47,0.31-2.52,4.97-2.52,4.97c1.22-0.64,0.16-0.19,1.19-0.51c0,0,1.77-0.34,3.05-1.7c0,0,2.21-2.03,2.04-3.4
				c0,0,0.71-2.17,0.88-4.12c0.08-1.01-1.07,2.88-0.88,4.12c0,0,1.85-1.86,2.06-2.86c0.44-2.19,0.95-4.9,1.08-5.37
				c0.13-0.48,0.82-2.86-0.42-5.99c-1.24-3.14-3.53-7.88-3.01-10.38c0.52-2.5-0.95-8.59-1.25-18.01l-11.66,1.23
				C319.75,413.45,320.78,418.29,321.41,422.52"/>
			<path class="st1" d="M330.55,446.16c0,0-0.3,5.76-0.35,7.15c-0.05,1.39-0.45,2.53-1.02,3.39c-0.57,0.86-2.36,3.6-2.36,3.6
				s1.97-2.96,2.44-3.31c1.09-0.81,1.17-3.94,1.26-4.96C330.76,449.64,330.55,446.16,330.55,446.16z"/>
			<path class="st1" d="M333.46,452.42c0,0,0.42-1.8,0.32-3.92c-0.11-2.11-0.45-2.92,0.58-3.97c0,0-0.64,1.89-0.45,3.01
				C334.1,448.66,333.77,451.87,333.46,452.42z"/>
		</g>
	</g>
</g>
<path class="st2" d="M298.62,586.99c0.21,1.3,0.77,5.12,1.69,11.47c0.92,6.4,0.43,9.87,0.48,10.35c0.09,0.92,0.04,2.02-0.14,3.3
	c-0.1,0.62-0.21,1.09-0.32,1.41c-0.18,0.72-0.24,1.47-0.19,2.25l22.92-0.7c-0.78-0.49-1.62-1-2.52-1.52
	c-0.53-0.43-1.11-1.05-1.73-1.84c-1.22-1.58-2.03-3.24-2.43-4.97c-0.25-1.11-1.31-10.86-1.01-14.37c1.08-12.22,1.49-24.32,1.24-36.3
	c-0.46-10.36-4.07-8.34-3.97-10.89l-9.17-5.28l-4.2-0.44c0.22,1.41-5.46,7.43-4.51,17.69C295.67,566.8,296.95,576.76,298.62,586.99z
	"/>
<path class="st2" d="M274.72,587.19c-0.23,1.29-0.87,5.11-1.89,11.43c-1.04,6.38-0.61,9.86-0.67,10.34c-0.1,0.92-0.08,2.02,0.08,3.3
	c0.09,0.62,0.19,1.09,0.3,1.41c0.16,0.72,0.21,1.47,0.15,2.25l-22.91-1.11c0.79-0.48,1.64-0.97,2.55-1.48
	c0.54-0.42,1.13-1.03,1.76-1.81c1.25-1.56,2.09-3.21,2.51-4.93c0.27-1.1,1.5-10.83,1.27-14.35c-0.86-12.23-1.05-24.34-0.59-36.32
	c0.64-10.35,4.22-8.26,4.16-10.82l9.26-5.12l4.21-0.36c-0.24,1.4,5.32,7.53,4.2,17.77C278.04,567.06,276.57,576.99,274.72,587.19z"
	/>
<g>
	<path class="st3" d="M229.31,621.96c0,0-2.55,8.36,0,9.24c2.55,0.88,13.39,5.54,20.98-1.41c7.59-6.95,22.02-5.35,23.55-6.11
		c1.54-0.76,1.45-8.55,1.45-8.55L229.31,621.96z"/>
	<path class="st3" d="M254.6,602.86c0,0-6.93,7.93-9.67,11.36c-2.74,3.42-15,5.55-15.63,7.75c-2.12,7.41,5.16,10.82,12.65,8.47
		c7.49-2.34,16.84-8.83,19.74-9.01c2.9-0.18,13.37,1.08,14.66-3.61c1.29-4.69-2.09-14.78-3.54-14.96
		c-1.45-0.18-8.86,7.39-11.28,4.87C259.11,605.2,258.95,597.83,254.6,602.86z"/>
	<path class="st4" d="M245.91,611.03c0,0,4.15-0.22,4.26,3.35c0,0,0.36-3.51-2.13-4.11L245.91,611.03z"/>
	<path class="st4" d="M249.14,607.55c0,0,4.15-0.22,4.26,3.35c0,0,0.36-3.51-2.13-4.11L249.14,607.55z"/>
	<path class="st5" d="M233.56,630.54c0.27,0.91,0.83,1.4,1.68,1.46l-1.18,0.18c-0.93-0.66-1.29-1.59-1.1-2.8
		c0.09-0.58,0.21-1.17,0.36-1.75C233.18,628.61,233.26,629.58,233.56,630.54z"/>
</g>
<g>
	<path class="st3" d="M344.03,624.14c0,0,2.55,8.36,0,9.24c-2.55,0.88-13.39,5.54-20.98-1.41c-7.59-6.95-22.02-5.35-23.55-6.11
		c-1.54-0.76-1.45-8.55-1.45-8.55L344.03,624.14z"/>
	<path class="st3" d="M318.74,605.03c0,0,6.93,7.93,9.67,11.36c2.74,3.42,15,5.55,15.63,7.75c2.12,7.41-5.16,10.82-12.65,8.47
		c-7.49-2.34-16.84-8.83-19.74-9.01c-2.9-0.18-13.37,1.08-14.66-3.61c-1.29-4.69,2.09-14.78,3.54-14.96
		c1.45-0.18,8.86,7.39,11.28,4.87C314.23,607.38,314.39,600.01,318.74,605.03z"/>
	<path class="st4" d="M329.71,616.02c0,0-4.15-0.22-4.26,3.35c0,0-0.36-3.51,2.13-4.11L329.71,616.02z"/>
	<path class="st4" d="M326.15,611.66c0,0-4.15-0.22-4.26,3.35c0,0-0.36-3.51,2.13-4.11L326.15,611.66z"/>
	<path class="st5" d="M339.78,632.71c-0.27,0.91-0.83,1.4-1.68,1.46l1.18,0.18c0.93-0.66,1.29-1.59,1.1-2.8
		c-0.09-0.58-0.21-1.17-0.36-1.75C340.16,630.78,340.08,631.76,339.78,632.71z"/>
</g>
<g>
	<path class="st6" d="M324.01,463.59c-0.76-3.62,2.97-6.71,1.97-8.71c-0.83-2.17-1.47-4.33-1.96-6.5
		c-4.04-10.5,0.54-29.25-6.04-30.5c-4.17-0.79-8.85-0.28-13.75,0.62c-1.63,0.3-3.29,0.64-4.96,0.97
		c-8.29,2.41-17.29,0.41-24.87,0.01c-1.52-0.04-3.04,0.07-4.51,0.34c-4.41,0.81-8.41,3.06-10.91,7.06c-1.5,3.25-2.13,6.5-2.15,9.74
		c-0.01,1.62,0.13,3.24,0.39,4.85c5.76,18.41,13.76,13.41,28.76,26.41c4.58,8.33,2,44,5.86,56.64c0.6,2.22,1.18,4.18,1.43,6.21
		c0.51,4.06,0.85,9.59-0.67,15.4c-1.52,5.81,0.55,8.48-0.39,12.49c-0.94,4.01,0.24,9.11,1.04,12.17c0.8,3.06,0.25,4.46-1.36,7.43
		c-1.61,2.97,8.36,6.38,11.74,6.3c3.39-0.08,8.49-0.61,15.02-0.77c1.63-0.04,2.72-0.19,3.47-0.44s1.14-0.58,1.38-0.99
		c3.47-10.45-1.53-21.45,0.17-31.53c0.06-0.77,0.13-1.54,0.19-2.33c0.12-1.57,0.22-3.17,0.25-4.81c-0.14-0.8-0.32-1.61-0.55-2.41
		c-0.23-0.8-0.5-1.61-0.82-2.41c-0.17-0.77-0.35-1.55-0.5-2.34c-0.16-0.79-0.31-1.59-0.44-2.41c-0.14-0.91-0.25-1.83-0.32-2.79
		c-1.06-5.89,1.08-11.09,2.18-16.18c0.16-0.73,0.29-1.45,0.39-2.18c-0.13-1.01-0.28-2.01-0.44-3.02c-0.08-0.5-0.15-1-0.23-1.51
		c-0.41-4.53-3.41-9.53-0.85-14.77c0.07-0.48,0.14-0.96,0.24-1.44c0.19-0.95,0.44-1.9,0.76-2.84c-0.01-0.91-0.02-1.81-0.01-2.71
		c0.08-6.28-2.53-8.85,1.03-14.28C326.85,467.22,325.44,464.2,324.01,463.59z"/>
	<path class="st6" d="M250.08,455.19c-2.58-15.43,1.4-22.55,1.4-36.55c4,1,9.39-1.53,13.25-0.37c1.93,0.58,3.86,1.14,5.79,1.65
		c14.46,3.97,32.46-1.03,41.46,11.97c15,21-4,23-24,37c-2.27,4.82-2,39-3.45,48.99c-0.32,3.08-0.94,5.55-1.54,7.76
		c-0.6,2.22-1.18,4.18-1.43,6.21c-0.51,4.06-0.85,9.59,0.67,15.4c1.52,5.81-0.55,8.48,0.39,12.49c0.59,2.51,0.35,5.44-0.11,8.03
		c-0.09,0.52-0.2,1.02-0.31,1.51c-0.83,1.35-1.21,2.76-1.27,4.21c-0.02,0.49,0,0.98,0.04,1.48c3.01,5.91,1.01,9.91-6.08,10.09
		c-0.49,0.12-0.96,0.23-1.41,0.32c-0.9,0.18-1.69,0.27-2.29,0.26c-3.39-0.08-8.49-0.61-15.02-0.77c-3.63-0.09-4.58-0.74-4.99-1.71
		c-0.21-0.48-0.28-1.04-0.49-1.65c0.29-3.63,0.29-8.63-0.99-13c-0.04-0.48-0.06-0.97-0.06-1.46c0.01-1.47,0.23-2.99,0.86-4.6
		c0.06-0.46,0.11-0.86,0.15-1.2c0.09-0.68,0.14-1.1,0.14-1.1c-0.12-0.57-0.23-1.12-0.33-1.67c-0.45-2.58-0.49-5.11-0.3-7.64
		c0.07-0.84,0.16-1.69,0.27-2.53c1.52-5.06,2.85-10.33,3.21-15.6c0.06-0.88,0.09-1.76,0.09-2.63c-1.76-8.21-3.76-16.21-2.94-24.41
		c0-0.41-0.01-0.81-0.01-1.21c1.19-5.58,3.19-10.58,0.21-15.85c-0.09-0.48-0.19-0.96-0.29-1.43c-0.01-0.51-0.02-1.01-0.05-1.52
		c-0.05-1.01-0.14-2.01-0.25-3.01c-0.06-0.5-0.11-1-0.14-1.5c-0.28-4.28-0.28-9.28-2.02-13.21c-0.03-0.31-0.06-0.62-0.08-0.93
		c-0.18-3.14-0.18-1.79,0.31-4.56C249.84,461.1,250.78,455.33,250.08,455.19z"/>
</g>
<g>
	<g>
		<path class="st3" d="M306.66,257.46c-0.2-0.78-0.27-1.4-0.21-2.2c0.06-0.78-0.24-1.57-0.28-2.35c-0.02-0.3-0.41-1.59-0.77-1.96
			c-0.09-0.62-0.55-2.52-1.02-2.8c-0.27-0.17-0.54-0.5-0.68-0.79c-0.11-0.22-1.59-2.32-2.29-2.86c-0.7-0.54-1.75-1.05-1.95-1.19
			c-0.21-0.15-1.16-0.95-1.36-1.13c-0.43-0.38-2.06-0.91-3.58-1.26c-0.12-0.03-0.24-0.06-0.34-0.13c-0.09-0.06-0.16-0.15-0.24-0.23
			c-0.44-0.48-3.26-0.44-3.55-0.4c-0.22,0.03-1.01-0.13-1.23-0.14c-0.52-0.03-1.61-0.02-2.37,0.13c-0.76-0.15-1.85-0.17-2.37-0.13
			c-0.22,0.02-1.01,0.17-1.23,0.14c-0.29-0.04-3.1-0.08-3.55,0.4c-0.08,0.08-0.15,0.17-0.24,0.23c-0.1,0.07-0.22,0.1-0.34,0.13
			c-1.51,0.35-3.15,0.87-3.58,1.26c-0.19,0.17-1.15,0.97-1.35,1.13c-0.2,0.14-1.25,0.65-1.95,1.19c-0.7,0.54-2.18,2.63-2.29,2.86
			c-0.14,0.29-0.41,0.62-0.68,0.79c-0.47,0.29-0.93,2.19-1.02,2.8c-0.37,0.38-0.75,1.66-0.77,1.96c-0.05,0.78-0.35,1.57-0.28,2.35
			c0.07,0.81-0.01,1.42-0.21,2.2c-0.12,0.49,0.05,2.7,0.11,2.98c0.12,0.6,0.09,2.48,0.38,3.85c0.12,0.56,0.39,1.29,0.77,1.72
			c0.26,0.29,0.12,0.58,0.12,0.97c0,0.28,0.44,0.94,0.35,1.21c-0.12,0.4,0.91,1.49,1.93,2.61c-0.23,0.73,1.46,1.48,1.54,2.25
			c0.08,0.77,0.59,0.81,0.71,1.23c0.05,0.17,0.5,3.02,0.63,3.11c0.43,0.3-0.49,1.9,0.78,1.97c1.27,0.07,1.36-0.35,1.36-0.69
			c0-2.07,1.65-3.26,1.53-4.53c-0.33-3.35-1.17-6.41-1.68-9.73c-0.4-2.57-0.06-5.19,0.32-7.77c0.29-1.94,0.69-4.04,2.16-5.34
			c1.23-1.09,2.95-1.38,4.57-1.62c1.42-0.21,2.85-0.43,4.27-0.64c1.43,0.21,2.85,0.43,4.28,0.64c1.62,0.24,3.34,0.53,4.57,1.62
			c1.47,1.3,1.87,3.4,2.16,5.34c0.38,2.57,0.72,5.2,0.32,7.77c-0.52,3.32-1.36,6.39-1.69,9.73c-0.12,1.27,1.53,2.46,1.53,4.53
			c0,0.34,0.09,0.76,1.37,0.69c1.27-0.07,0.35-1.67,0.78-1.97c0.14-0.1,0.59-2.95,0.63-3.11c0.13-0.43,0.64-0.47,0.71-1.23
			c0.08-0.76,1.77-1.51,1.54-2.25c1.02-1.12,2.05-2.21,1.93-2.61c-0.08-0.27,0.36-0.93,0.36-1.21c0-0.39-0.14-0.67,0.12-0.97
			c0.38-0.44,0.65-1.16,0.77-1.72c0.29-1.37,0.26-3.25,0.38-3.85C306.6,260.16,306.78,257.95,306.66,257.46z"/>
	</g>
	<linearGradient id="SVGID_1_" gradientUnits="userSpaceOnUse" x1="286.1675" y1="332.0839" x2="287.2442" y2="281.9362">
		<stop  offset="0.6364" style="stop-color:#924520"/>
		<stop  offset="0.8061" style="stop-color:#713311"/>
	</linearGradient>
	<path class="st7" d="M315.16,308.52c-0.68-0.36-1.39-0.7-2.15-1.01c-4.35-1.84-8.77-4.67-12.09-7.58
		c-2.85-2.19-2.58-8.92-2.73-12.73c0.16-1.45,0.27-2.41,0.27-2.41c-1.81-0.84-5.58-1.21-10.43-1.1c-0.16,0-0.31,0.01-0.46,0.01
		c-0.16,0-0.31-0.01-0.46-0.01c0,0,0,0-0.01,0v-0.01c-0.08,0-0.16,0-0.24,0c-0.08,0-0.16,0-0.24,0v0.01c0,0,0,0,0,0
		c-0.16,0-0.31,0.01-0.47,0.01c-0.16,0-0.31-0.01-0.46-0.01c-4.86-0.1-8.62,0.26-10.43,1.1c0,0,0.11,0.96,0.27,2.41
		c0.09,4.19,0.16,10.63-2.69,12.81c-3.32,2.92-6.7,5.05-11.05,6.89c-0.76,0.31-1.47,0.65-2.15,1.01c-5.41,2.85-9.72,4.52-9.72,8.58
		c0,8.99,15.88,14.54,35.72,14.54c0.41,0,0.82-0.01,1.22-0.01c0.41,0.01,0.81,0.01,1.22,0.01c19.84,0,35-5.55,35-14.54
		C323.09,312.43,320.57,311.37,315.16,308.52z"/>
	<path class="st8" d="M303.86,268.48c-0.08-0.45-0.17-0.9-0.25-1.35c-0.22-0.33-0.42-0.66-0.62-1.01c-1.55-2.04-1.4-4.26-1.2-6.46
		c0.01-0.08,0.01-0.16,0.02-0.24c-0.09-0.54-0.09-0.54,0.12-1.64c0-0.08,0-0.16,0.01-0.23c0-0.08,0-0.15,0-0.23
		c0-0.08,0-0.16-0.01-0.23c-0.21-0.19-0.21-1.19-0.12-1.42c-0.01-0.08-0.03-0.15-0.05-0.23c-0.05-0.23-0.12-0.46-0.19-0.69
		c-0.03-0.08-0.05-0.15-0.08-0.23c1.24-0.62-1.76-0.62-0.79-1.35c-0.03-0.07-0.06-0.13-0.12-0.2c-0.12-0.14-0.24-0.29-0.38-0.43
		c-0.34-0.33-4.18-0.97-4.56-1.22c-2-1-2.96,0.46-5.76,0.17c-0.6-0.07-1.19-0.12-1.79-0.16c-0.45-0.03-0.89-0.04-1.34-0.05
		c-0.44,0-0.89,0-1.33,0.02c-0.65-0.13-1.28-0.21-1.9-0.25c-0.62-0.04-1.22-0.03-1.81,0.01c-2.01-0.1-2.09-1.36-3.78-0.4
		c-0.42,0.24-2.91,1.57-3.29,1.87c-0.4,0.2-0.74,0.43-1.03,0.68c-0.05,0.05-0.08,0.09-0.11,0.14c1.2,0.55-1.8,0.55-0.8,1.08
		c-0.03,0.04-0.06,0.07-0.09,0.13c-0.14,0.31-0.23,0.64-0.3,0.98c-0.01,0.07,0,0.12,0,0.19c0.38,1.16,0.38,1.16-0.13,1.41
		c0,0.08,0,0.16,0,0.24c0.01,0.39,0.04,0.79,0.07,1.19c0.01,0.08,0.01,0.16,0.02,0.24c0.41,0.07,0.41,1.07,0.13,1.24
		c-0.01,0.08-0.02,0.15-0.01,0.23c0.12,1.97,0.04,3.93-1.37,5.49c-0.26,0.47-0.56,0.92-0.92,1.36c-0.1,0.45-0.18,0.9-0.27,1.35
		c-0.69,3.63,0.47,6.87,1.51,9.71c1.01,2.83,1.25,3.98,2.71,7.44c1.45,3.45,3.56,4.8,6.33,6.06c1.95,0.9,4.1,1.28,6.44,1.16
		c2.34,0.12,4.49-0.26,6.44-1.16c2.78-1.26,4.89-2.61,6.33-6.06c1.47-3.47,1.71-4.61,2.72-7.44
		C303.38,275.35,304.55,272.11,303.86,268.48z"/>
	<path class="st8" d="M269.67,267.73c-0.36-0.46-0.7-0.65-1.04-0.56c-0.59,0.16-1.01,0.72-1.27,1.66c-0.3,1.03,0.63,2.32,0.79,3.89
		c0.22,2.11-0.24,3.74,0.63,4.91c0.8,1.11,1.71,1.54,2.73,1.3l0.33-0.09l-0.38-2.52c-0.73-4.63-1.27-7.4-1.65-8.31L269.67,267.73z"
		/>
	<g>
		<path class="st5" d="M296.41,267.79c0,0.5-0.17,0.92-0.52,1.27c-0.35,0.35-0.77,0.52-1.27,0.52c-0.5,0-0.92-0.17-1.27-0.52
			c-0.35-0.35-0.52-0.77-0.52-1.27c0-0.5,0.17-0.92,0.52-1.27c0.35-0.35,0.77-0.52,1.27-0.52c0.5,0,0.92,0.17,1.27,0.52
			C296.24,266.87,296.41,267.29,296.41,267.79z"/>
		<path class="st8" d="M297.75,263.81l1.11,2.9c-3.13-1.11-5.85-0.99-8.15,0.36l1.32-3.45C293.9,262.72,295.8,262.78,297.75,263.81z
			"/>
		<g>
			<path class="st5" d="M290.65,267.55c-0.05,0.03-0.1,0.07-0.14,0.11c0.95-1.29,2.26-1.98,3.93-2.07c1.76-0.1,3.47,0.5,5.14,1.79
				c-1.14-0.5-2.5-0.8-4.07-0.89c-1.96-0.13-3.52,0.18-4.68,0.95C290.77,267.47,290.71,267.51,290.65,267.55z"/>
		</g>
		<path class="st6" d="M290.93,263.1c-0.07-1,0.64-0.95,1.24-1.08c0.15-0.03,0.31-0.06,0.47-0.09c0.16-0.03,0.32-0.05,0.49-0.08
			c2.21-0.32,3.88-0.43,5.62,0.87c0.14,0.15,0.27,0.31,0.4,0.5c0.06,0.12,0.09,0.21,0.08,0.25c-0.06,0.16-0.25,0.22-0.42,0.26
			c-0.18,0.04-0.22,0.03-0.54-0.14c-0.11-0.06-0.26-0.13-0.42-0.2c-1.56-0.23-2.39-0.18-3.92-0.2c-0.14,0.04-0.28,0.08-0.42,0.12
			c-0.41,0.12-0.83,0.24-1.29,0.33c-0.22,0.04-0.65,0.23-0.86,0.17C291.14,263.76,290.94,263.32,290.93,263.1z"/>
	</g>
	<g>
		<path class="st5" d="M277.31,267.71c0,0.5,0.17,0.92,0.52,1.27c0.35,0.35,0.77,0.52,1.27,0.52c0.5,0,0.92-0.17,1.27-0.52
			c0.35-0.35,0.52-0.77,0.52-1.27c0-0.5-0.17-0.92-0.52-1.27c-0.35-0.35-0.77-0.52-1.27-0.52c-0.5,0-0.92,0.17-1.27,0.52
			C277.48,266.79,277.31,267.21,277.31,267.71z"/>
		<path class="st8" d="M275.97,263.74l-1.11,2.9c3.13-1.11,5.85-0.99,8.15,0.36l-1.32-3.45
			C279.82,262.64,277.92,262.7,275.97,263.74z"/>
		<g>
			<path class="st5" d="M283.07,267.48c0.05,0.03,0.1,0.07,0.14,0.11c-0.95-1.29-2.26-1.98-3.93-2.07c-1.76-0.1-3.47,0.5-5.14,1.79
				c1.14-0.5,2.5-0.8,4.07-0.89c1.96-0.13,3.52,0.18,4.68,0.95C282.95,267.39,283.01,267.43,283.07,267.48z"/>
		</g>
		<path class="st6" d="M282.79,263.02c0.07-1-0.64-0.95-1.24-1.08c-0.15-0.03-0.31-0.06-0.47-0.09c-0.16-0.03-0.32-0.05-0.49-0.08
			c-2.21-0.32-3.88-0.43-5.62,0.87c-0.14,0.15-0.27,0.31-0.4,0.5c-0.06,0.12-0.09,0.21-0.08,0.25c0.06,0.16,0.25,0.22,0.42,0.26
			c0.18,0.04,0.22,0.03,0.54-0.14c0.11-0.06,0.26-0.13,0.42-0.2c1.56-0.23,2.39-0.18,3.92-0.2c0.14,0.04,0.28,0.08,0.42,0.12
			c0.41,0.12,0.83,0.24,1.29,0.33c0.22,0.04,0.65,0.23,0.86,0.17C282.58,263.68,282.78,263.24,282.79,263.02z"/>
	</g>
	<g>
		<path class="st9" d="M289.88,277.26c0,0,0.88,0.43,1.3-0.17c0.63-0.92,0-2.59-0.47-3.02C292.24,277.6,289.88,277.26,289.88,277.26
			z"/>
		<path class="st9" d="M288.64,276.19c-0.16-0.07-0.35-0.1-0.44-0.11c-0.15-0.01-0.31,0.01-0.45,0.06
			c-0.06,0.02-0.13,0.05-0.17,0.11c-0.04,0.06-0.06,0.15-0.02,0.21c0.02,0.04,0.06,0.06,0.09,0.07c0.17,0.06,0.35-0.08,0.54-0.1
			c0.42-0.05,1.14,0.32,1.14,0.32S289.08,276.39,288.64,276.19z"/>
		<path class="st9" d="M283.84,277.26c0,0-0.88,0.43-1.3-0.17c-0.63-0.92,0-2.59,0.47-3.02
			C281.48,277.6,283.84,277.26,283.84,277.26z"/>
		<path class="st9" d="M285.08,276.19c0.16-0.07,0.35-0.1,0.44-0.11c0.15-0.01,0.31,0.01,0.45,0.06c0.06,0.02,0.13,0.05,0.17,0.11
			c0.04,0.06,0.06,0.15,0.03,0.21c-0.02,0.04-0.06,0.06-0.09,0.07c-0.17,0.06-0.35-0.08-0.53-0.1c-0.42-0.05-1.14,0.32-1.14,0.32
			S284.64,276.39,285.08,276.19z"/>
	</g>
	<path class="st10" d="M292.26,281.69c-0.44,0.1-2.65-0.04-3.03-0.24c-0.53-0.27-0.93-1.87-1.69-1.78c-0.1,0.01-0.39,0.02-0.75,0.02
		c-0.36,0-0.65-0.01-0.75-0.02c-0.77-0.08-1.17,1.51-1.69,1.78c-0.38,0.2-2.58,0.34-3.03,0.24c-1.13-0.26-0.23,0.35-0.03,0.44
		c0,0,0,0,0.01,0c0.01,0.01,0.02,0.01,0.03,0.02c0.62,0.4,2.2,1.6,2.66,1.88c0.47,0.29,0.9,0.53,1.65,0.74c0.07,0.02,0.19,0,0.34,0
		c0.34-0.08,0.6-0.24,0.82-0.44c0.22,0.2,0.48,0.36,0.81,0.44c0.15,0,0.27,0.02,0.34,0c0.75-0.21,1.18-0.45,1.65-0.74
		c0.45-0.29,2.04-1.48,2.66-1.88c0.01-0.01,0.02-0.01,0.03-0.02c0,0,0,0,0.01,0C292.49,282.04,293.39,281.43,292.26,281.69z"/>
	<path class="st8" d="M304.05,267.73c0.36-0.46,0.7-0.65,1.04-0.56c0.59,0.16,1.01,0.72,1.27,1.66c0.3,1.03-0.63,2.32-0.79,3.89
		c-0.22,2.11,0.23,3.74-0.64,4.91c-0.8,1.11-1.71,1.54-2.74,1.3l-0.33-0.09l0.38-2.52c0.73-4.63,1.28-7.4,1.65-8.31L304.05,267.73z"
		/>
	<path class="st11" d="M291.13,281.3c-0.58-0.16-2.82-1.72-3.59-1.63c-0.1,0.01-0.39,0.02-0.75,0.02c-0.36,0-0.65-0.01-0.75-0.02
		c-0.77-0.08-3.01,1.47-3.59,1.63c-0.8,0.22-1.69,0.52-1.69,0.52c1.12,0.31,2.63-0.04,3.38,0.16c0.07,0.02,2.01,0.15,2.65-0.17
		c0.64,0.32,2.58,0.19,2.65,0.17c0.75-0.21,2.27,0.15,3.38-0.16C292.83,281.82,291.93,281.52,291.13,281.3z"/>
	<path class="st12" d="M295.87,279.9c0,0,0.32,2.21,0.2,2.94C296.07,282.84,296.65,280.97,295.87,279.9z"/>
	<g>
		<path class="st6" d="M300.01,245.55c-0.4-0.22-0.89-0.41-1.45-0.58c-6.89-1.62-20.08-1.62-24.77,0.73
			c-0.34,0.21-0.62,0.43-0.84,0.66c-0.89,0.92-0.8,2.19,0.42,3.22c0.09,0.25,0.27,0.49,0.51,0.72c0.76,0.73,2.19,1.35,3.84,1.76
			c0.12,0.03,0.24,0.06,0.36,0.08c1.65-0.25,2.65-0.25,3.63,0.33c0.14,0.01,0.28,0.01,0.41,0.01c0.14,0,0.28,0.01,0.42,0.01
			c1.19,0.41,3.19,0.41,4.04-0.04c0.17,0.01,0.34,0.02,0.51,0.03c0.36,0.02,0.71,0.03,1.05,0.04c0.17,0,0.34,0.01,0.51,0.01
			c1.07,0.36,2.07,0.36,3.39-0.11c0.16-0.01,0.31-0.02,0.47-0.03c0.14-0.01,0.28-0.02,0.42-0.03c0.79-0.45,2.79-0.45,3.89-0.36
			c0.11-0.03,0.21-0.06,0.31-0.1c0.31-0.1,0.6-0.21,0.88-0.32c1.11-0.47,1.99-1.08,2.54-1.77c0.21-0.26,0.37-0.53,0.48-0.81
			c0.08-0.52,0.3-1.04,0.33-1.55c0.01-0.17,0-0.34-0.05-0.5c-0.12-0.24-0.12-0.65-0.75-0.96
			C300.42,245.82,300.23,245.68,300.01,245.55z"/>
	</g>
	<g>
		<path class="st6" d="M271.89,269.74c-0.55-1.54-0.67-3.83-1.21-4.84c-0.61-1.15-0.47,0.7-1-0.18c-0.52,1.28-1.07,2.85,0.37,3.95
			c0.63,1.3,0.7,2.79,1.16,2.79C271.2,271.41,271.89,270.98,271.89,269.74z"/>
	</g>
	<g>
		<path class="st6" d="M301.77,269.74c0.55-1.54,0.67-3.83,1.21-4.84c0.61-1.15,0.47,0.7,1-0.18c0.21,0.97,1.07,2.85-0.37,3.95
			c-0.63,1.3-0.7,2.79-1.16,2.79C302.45,271.41,301.77,270.98,301.77,269.74z"/>
	</g>
	<g>
		<g>
			<path class="st13" d="M280.91,243.05c0.28-0.45,0.49-0.58,0.9-0.73c0.41-0.15,0.49-0.13,1.05,0.07c0,0-0.57-0.06-1.14,0.2
				C281.31,242.77,280.91,243.05,280.91,243.05z"/>
			<g>
				<path class="st14" d="M280.94,243.05c0.11-0.17,0.23-0.34,0.39-0.46c0.14-0.11,0.3-0.18,0.46-0.24c0.15-0.06,0.31-0.11,0.47-0.1
					c0.2,0.02,0.39,0.1,0.57,0.17c0.01-0.01,0.02-0.03,0.03-0.04c-0.72-0.08-1.41,0.27-1.98,0.66c-0.04,0.03,0.02,0.04,0.04,0.03
					c0.56-0.38,1.22-0.72,1.92-0.65c0.02,0,0.07-0.03,0.03-0.04c-0.19-0.07-0.4-0.16-0.61-0.17c-0.17-0.01-0.33,0.04-0.48,0.1
					c-0.18,0.07-0.36,0.14-0.51,0.26c-0.17,0.13-0.29,0.3-0.4,0.48C280.86,243.08,280.93,243.08,280.94,243.05z"/>
			</g>
		</g>
	</g>
	<g>
		<g>
			<path class="st13" d="M293.75,244.68c0.48-0.2,0.73-0.19,1.15-0.08c0.42,0.11,0.48,0.18,0.82,0.67c0,0-0.43-0.38-1.05-0.5
				C294.24,244.69,293.75,244.68,293.75,244.68z"/>
			<g>
				<path class="st14" d="M293.77,244.69c0.22-0.09,0.46-0.17,0.7-0.15c0.19,0.01,0.38,0.06,0.56,0.12c0.31,0.1,0.47,0.36,0.65,0.62
					c0.02-0.01,0.04-0.01,0.07-0.02c-0.54-0.48-1.29-0.58-1.98-0.59c-0.01,0-0.08,0.03-0.04,0.03c0.69,0.01,1.43,0.11,1.96,0.59
					c0.01,0.01,0.07-0.01,0.07-0.02c-0.11-0.16-0.22-0.33-0.36-0.46c-0.11-0.1-0.25-0.15-0.39-0.19c-0.2-0.06-0.4-0.11-0.61-0.1
					c-0.23,0.01-0.45,0.08-0.66,0.17C293.69,244.7,293.76,244.69,293.77,244.69z"/>
			</g>
		</g>
	</g>
	<g>
		<g>
			<path class="st13" d="M284.07,244.6c0.38-0.36,1.15-0.62,1.59-0.66c0.44-0.04,0.51,0.01,1,0.35c0,0-0.53-0.21-1.16-0.11
				C285.07,244.25,284.07,244.6,284.07,244.6z"/>
			<g>
				<path class="st14" d="M284.1,244.61c0.36-0.33,0.87-0.52,1.34-0.61c0.19-0.04,0.41-0.07,0.61-0.03
					c0.22,0.05,0.41,0.21,0.59,0.34c0.02-0.01,0.04-0.02,0.05-0.03c-0.87-0.34-1.8,0.02-2.63,0.31c-0.04,0.02,0,0.04,0.03,0.03
					c0.8-0.28,1.7-0.64,2.55-0.31c0.02,0.01,0.08-0.01,0.05-0.03c-0.19-0.13-0.39-0.3-0.63-0.35c-0.19-0.04-0.41-0.01-0.6,0.03
					c-0.5,0.1-1.03,0.3-1.41,0.64C284.01,244.63,284.08,244.63,284.1,244.61z"/>
			</g>
		</g>
	</g>
	<g>
		<g>
			<path class="st13" d="M281.25,250.02c0.32-0.17,0.5-0.16,0.82-0.07c0.33,0.09,0.37,0.14,0.7,0.52c0,0-0.37-0.3-0.84-0.39
				C281.6,250.02,281.25,250.02,281.25,250.02z"/>
			<g>
				<path class="st14" d="M281.28,250.03c0.16-0.08,0.33-0.14,0.51-0.12c0.14,0.02,0.28,0.05,0.42,0.1
					c0.23,0.08,0.38,0.29,0.54,0.47c0.02-0.01,0.05-0.02,0.07-0.03c-0.44-0.35-1-0.45-1.54-0.45c-0.03,0-0.08,0.04-0.03,0.04
					c0.53,0,1.08,0.11,1.5,0.44c0.02,0.01,0.09-0.01,0.07-0.03c-0.1-0.12-0.21-0.25-0.33-0.35c-0.09-0.07-0.19-0.11-0.3-0.15
					c-0.15-0.05-0.32-0.09-0.48-0.08c-0.17,0-0.33,0.07-0.48,0.14C281.18,250.03,281.25,250.04,281.28,250.03z"/>
			</g>
		</g>
	</g>
	<g>
		<g>
			<path class="st13" d="M270.61,254.35c0.19-0.3,0.33-0.39,0.61-0.49c0.28-0.1,0.33-0.09,0.71,0.05c0,0-0.38-0.05-0.77,0.13
				C270.88,254.17,270.61,254.35,270.61,254.35z"/>
			<g>
				<path class="st14" d="M270.64,254.36c0.07-0.11,0.15-0.23,0.26-0.31c0.09-0.07,0.2-0.12,0.31-0.16c0.1-0.04,0.2-0.07,0.31-0.06
					c0.13,0.01,0.26,0.07,0.38,0.12c0.01-0.01,0.02-0.03,0.03-0.04c-0.49-0.06-0.96,0.18-1.35,0.44c-0.04,0.03,0.02,0.04,0.04,0.03
					c0.37-0.25,0.82-0.48,1.28-0.43c0.02,0,0.07-0.03,0.03-0.04c-0.13-0.05-0.27-0.11-0.41-0.12c-0.12-0.01-0.22,0.03-0.33,0.07
					c-0.12,0.04-0.25,0.1-0.35,0.18c-0.11,0.09-0.2,0.2-0.27,0.33C270.56,254.38,270.63,254.38,270.64,254.36z"/>
			</g>
		</g>
	</g>
	<g>
		<g>
			<path class="st13" d="M274.65,243.62c0.04-0.25,0.13-0.36,0.33-0.51c0.2-0.15,0.25-0.16,0.63-0.18c0,0-0.35,0.08-0.61,0.32
				C274.81,243.42,274.65,243.62,274.65,243.62z"/>
			<g>
				<path class="st14" d="M274.69,243.62c0.02-0.11,0.05-0.22,0.12-0.31c0.07-0.09,0.16-0.16,0.25-0.22c0.06-0.04,0.13-0.08,0.2-0.1
					c0.11-0.02,0.23-0.03,0.34-0.03c0-0.01,0-0.03,0-0.04c-0.4,0.1-0.73,0.38-0.98,0.7c-0.03,0.03,0.04,0.04,0.06,0.02
					c0.24-0.31,0.55-0.58,0.94-0.67c0.03-0.01,0.04-0.04,0-0.04c-0.12,0.01-0.25,0.01-0.37,0.04c-0.09,0.02-0.16,0.06-0.23,0.11
					c-0.1,0.07-0.19,0.14-0.27,0.23c-0.07,0.1-0.11,0.21-0.13,0.33C274.62,243.66,274.68,243.65,274.69,243.62z"/>
			</g>
		</g>
	</g>
	<g>
		<g>
			<path class="st13" d="M274.17,248.53c0.26-0.45,0.47-0.59,0.88-0.75c0.41-0.16,0.49-0.14,1.06,0.05c0,0-0.57-0.05-1.14,0.23
				C274.56,248.24,274.17,248.53,274.17,248.53z"/>
			<g>
				<path class="st14" d="M274.2,248.53c0.1-0.17,0.21-0.34,0.36-0.47c0.14-0.12,0.3-0.2,0.47-0.26c0.15-0.06,0.3-0.12,0.47-0.11
					c0.2,0.01,0.39,0.09,0.57,0.15c0.02-0.01,0.03-0.02,0.05-0.03c-0.73-0.06-1.41,0.3-1.98,0.72
					C274.11,248.55,274.18,248.55,274.2,248.53c0.54-0.39,1.18-0.74,1.88-0.69c0.01,0,0.07-0.02,0.05-0.03
					c-0.2-0.07-0.41-0.15-0.62-0.16c-0.17,0-0.32,0.05-0.47,0.11c-0.18,0.07-0.36,0.15-0.51,0.28c-0.16,0.14-0.28,0.31-0.39,0.49
					C274.13,248.55,274.19,248.55,274.2,248.53z"/>
			</g>
		</g>
	</g>
	<g>
		<g>
			<path class="st13" d="M269.09,258.24c0.03-0.52,0.14-0.74,0.43-1.07c0.29-0.33,0.37-0.35,0.96-0.45c0,0-0.53,0.22-0.9,0.73
				C269.31,257.8,269.09,258.24,269.09,258.24z"/>
			<g>
				<path class="st14" d="M269.12,258.23c0.01-0.21,0.04-0.43,0.13-0.63c0.08-0.18,0.21-0.33,0.33-0.48c0.1-0.11,0.2-0.21,0.33-0.27
					c0.17-0.07,0.37-0.09,0.56-0.13c0-0.01-0.01-0.03-0.01-0.04c-0.67,0.28-1.09,0.91-1.4,1.54
					C269.04,258.27,269.11,258.26,269.12,258.23c0.3-0.6,0.72-1.23,1.37-1.5c0.03-0.01,0.02-0.05-0.01-0.04
					c-0.26,0.04-0.56,0.07-0.78,0.25c-0.11,0.09-0.2,0.2-0.29,0.31c-0.1,0.12-0.18,0.25-0.24,0.39c-0.08,0.19-0.1,0.39-0.11,0.6
					C269.05,258.27,269.12,258.26,269.12,258.23z"/>
			</g>
		</g>
	</g>
	<g>
		<g>
			<path class="st13" d="M300.2,248.1c0.41,0.33,0.52,0.55,0.62,0.97c0.1,0.42,0.07,0.5-0.19,1.04c0,0,0.13-0.55-0.07-1.16
				C300.43,248.53,300.2,248.1,300.2,248.1z"/>
			<g>
				<path class="st14" d="M300.17,248.11c0.16,0.13,0.31,0.27,0.42,0.44c0.1,0.16,0.15,0.34,0.2,0.52c0.04,0.16,0.08,0.32,0.05,0.48
					c-0.04,0.2-0.14,0.39-0.23,0.56c0.02,0,0.04,0,0.07,0c0.16-0.7-0.11-1.41-0.43-2.02C300.22,248.07,300.15,248.09,300.17,248.11
					c0.32,0.6,0.59,1.31,0.43,2c-0.01,0.03,0.06,0.01,0.07,0c0.09-0.18,0.19-0.36,0.23-0.56c0.03-0.16,0-0.32-0.04-0.48
					c-0.04-0.18-0.1-0.37-0.19-0.53c-0.11-0.18-0.27-0.33-0.43-0.46C300.21,248.07,300.15,248.1,300.17,248.11z"/>
			</g>
		</g>
	</g>
	<g>
		<g>
			<path class="st13" d="M291.43,249.25c0.45-0.27,0.78-0.5,1.13-0.24c0.42,0.32,0.5,0.11,0.9,0.55c0,0-0.47-0.32-1.11-0.35
				C291.91,249.19,291.43,249.25,291.43,249.25z"/>
			<g>
				<path class="st14" d="M291.45,249.25c0.21-0.12,0.43-0.29,0.67-0.33c0.24-0.04,0.39,0.12,0.58,0.22
					c0.11,0.06,0.22,0.09,0.33,0.13c0.16,0.06,0.28,0.18,0.39,0.3c0.02-0.01,0.04-0.01,0.06-0.02c-0.6-0.4-1.36-0.4-2.05-0.31
					c-0.02,0-0.07,0.03-0.03,0.02c0.68-0.09,1.43-0.08,2.02,0.31c0.01,0.01,0.07-0.01,0.06-0.02c-0.13-0.14-0.27-0.26-0.45-0.32
					c-0.18-0.06-0.32-0.14-0.48-0.25c-0.38-0.26-0.83,0.07-1.16,0.27C291.37,249.27,291.44,249.26,291.45,249.25z"/>
			</g>
		</g>
	</g>
	<g>
		<g>
			<path class="st13" d="M294.74,251.18c0.32-0.22,0.49-0.25,0.79-0.25c0.3,0,0.35,0.04,0.64,0.31c0,0-0.33-0.18-0.78-0.16
				C295.08,251.1,294.74,251.18,294.74,251.18z"/>
			<g>
				<path class="st14" d="M294.76,251.19c0.12-0.08,0.25-0.16,0.39-0.2c0.13-0.04,0.26-0.04,0.4-0.04c0.1,0,0.2,0.01,0.29,0.06
					c0.11,0.06,0.2,0.16,0.3,0.24c0.02-0.01,0.04-0.02,0.06-0.03c-0.45-0.24-0.99-0.17-1.46-0.06c-0.04,0.01-0.03,0.05,0.01,0.04
					c0.45-0.11,0.97-0.17,1.4,0.06c0.02,0.01,0.08-0.01,0.06-0.03c-0.1-0.09-0.2-0.2-0.32-0.26c-0.1-0.05-0.21-0.05-0.32-0.05
					c-0.14,0-0.28,0-0.41,0.04c-0.16,0.04-0.29,0.13-0.43,0.22C294.68,251.19,294.74,251.21,294.76,251.19z"/>
			</g>
		</g>
	</g>
	<g>
		<g>
			<path class="st13" d="M302.55,249.94c0.25,0.3,0.29,0.47,0.31,0.77c0.02,0.31-0.01,0.35-0.25,0.66c0,0,0.15-0.35,0.09-0.79
				C302.66,250.27,302.55,249.94,302.55,249.94z"/>
			<g>
				<path class="st14" d="M302.52,249.96c0.1,0.12,0.19,0.24,0.24,0.39c0.05,0.12,0.06,0.25,0.07,0.38c0.01,0.1,0.01,0.21-0.03,0.31
					c-0.05,0.12-0.14,0.22-0.22,0.32c0.02,0,0.04,0.01,0.06,0.01c0.2-0.46,0.09-0.99-0.06-1.45
					C302.57,249.9,302.5,249.92,302.52,249.96c0.14,0.44,0.25,0.96,0.06,1.41c-0.02,0.04,0.05,0.03,0.06,0.01
					c0.08-0.1,0.18-0.21,0.23-0.34c0.04-0.1,0.04-0.22,0.03-0.33c-0.01-0.13-0.02-0.27-0.07-0.4c-0.05-0.15-0.15-0.28-0.25-0.4
					C302.56,249.9,302.49,249.93,302.52,249.96z"/>
			</g>
		</g>
	</g>
	<path class="st3" d="M270.24,275.47c-0.24-0.11-0.34-0.36-0.35-0.65c-0.02-0.33-0.06-0.58,0.13-0.71c0,0,0.49-1.08,0.49-1.21
		c0.02-0.32,0-0.64-0.05-0.96c-0.08-0.53-0.26-1.07-0.58-1.46c-0.39-0.48-1.02-0.65-1.56-0.58c-0.12,0.02-0.25,0.08-0.37,0.08
		c0,0,0.71-0.03,1.75,0.96c0.33,0.31,0.49,0.82,0.59,1.29c0.05,0.29-0.49,1.6-0.55,1.69c-0.19,0.27-0.17,0.6-0.17,0.63
		c0.08,1.07,0.47,1.15,0.6,1.15c0.03,0,0.05-0.01,0.05-0.01l0.3-0.08L270.24,275.47z"/>
	<path class="st3" d="M303.42,275.47c0.24-0.11,0.34-0.36,0.35-0.65c0.02-0.33,0.06-0.58-0.13-0.71c0,0-0.49-1.08-0.49-1.21
		c-0.01-0.32,0-0.64,0.05-0.96c0.08-0.53,0.26-1.07,0.57-1.46c0.39-0.48,1.02-0.65,1.56-0.58c0.12,0.02,0.25,0.08,0.37,0.08
		c0,0-0.71-0.03-1.75,0.96c-0.33,0.31-0.49,0.82-0.58,1.29c-0.05,0.29,0.49,1.6,0.55,1.69c0.19,0.27,0.17,0.6,0.17,0.63
		c-0.08,1.07-0.47,1.15-0.6,1.15c-0.03,0-0.05-0.01-0.05-0.01l-0.3-0.08L303.42,275.47z"/>
</g>
<path class="st15" d="M282.74,236.02c4.24-0.64,8.25-0.46,12.02,0.54c3.79,1.01,6.28,2.63,7.49,4.86c1.19,2.25,2.66,4.83,3.69,8.05
	c1.03,3.22,0.54,5.15,0,5.04c-0.76-0.6-1.98-1.48-4.42-2.23c-2.44-0.75-5.8-1.3-10.1-1.67c-4.29-0.37-9.75-0.05-14.68,1.19
	c-4.92,1.24-7.39,2.32-9.11,3.01c-0.31,0.25-0.46-0.02-0.46-0.82c0.9-4.89,2.12-8.58,3.67-11.07c1.66-2.67,3-4.33,4.02-4.97
	C275.87,237.31,278.5,236.66,282.74,236.02z"/>
<path class="st16" d="M271.2,266.74c0.19,0.23,0.41,0.91,0.66,2.05c0.19,0.97,0.32,1.76,0.37,2.39c0.1,0.45,0.28,1.56,0.54,3.33
	c0.19,1.42,0.52,2.89,0.99,4.4c0.58,2.03,1.67,4.22,3.27,6.57c1.7,2.48,3.34,4.17,4.93,5.06c1.28,0.72,3.07,1.02,5.38,0.9
	c2.37-0.11,4.27-0.63,5.7-1.54c1.35-0.85,2.73-2.43,4.12-4.73c1.21-2.02,2.18-4.11,2.9-6.27c0.49-1.59,0.86-3.06,1.12-4.39
	c0.23-1.4,0.44-2.53,0.62-3.39c0.09-1.59,0.14-2.39,0.16-2.39c0.1-1.15,0.26-1.83,0.48-2.03c0.89-0.58,1.55-0.9,1.97-0.98
	c-0.27,1.04-0.51,2.88-0.73,5.52c0.13,0.39,0.16,0.8,0.08,1.24c-0.05,0.14-0.1,0.28-0.15,0.41c0.22,0.41,0.26,0.85,0.12,1.32
	c-0.05,0.28-0.18,0.52-0.39,0.73c0.01,0.05,0.05,0.09,0.12,0.13c0.21,0.53,0.25,1.08,0.13,1.66c-0.17,0.54-0.47,0.93-0.91,1.17
	c-0.05,0.01-0.08,0.02-0.1,0.04c0.05,0.1,0.12,0.23,0.21,0.38c0.32,0.63,0.39,1.28,0.19,1.96c-0.16,0.56-0.45,1-0.87,1.32
	c0.01,0.18,0,0.35-0.04,0.51c-0.1,0.49-0.36,0.85-0.77,1.07c0.03,0.21,0.02,0.45-0.02,0.72c-0.05,0.34-0.18,0.62-0.39,0.85
	c0.13,0.36,0.18,0.75,0.16,1.15c-0.13,0.6-0.44,1.03-0.95,1.28c-0.13,0.05-0.24,0.09-0.33,0.13c0.18,0.29,0.33,0.6,0.46,0.94
	c0.27,0.85,0.28,1.53,0.04,2.03c-0.31,0.48-0.8,0.65-1.47,0.53c0.06,0.29,0.09,0.58,0.08,0.87c-0.03,0.29-0.09,0.51-0.19,0.66
	c-0.31,0.35-0.75,0.38-1.33,0.08h-0.02c-0.01,0.14,0,0.28,0.04,0.43c-0.03,0.45-0.1,0.87-0.23,1.24c-0.14,0.4-0.33,0.69-0.58,0.87
	c-0.53,0.33-1.13,0.31-1.82-0.06l-0.02-0.04c-0.04,0.18-0.07,0.43-0.1,0.77c-0.26,0.99-0.66,1.57-1.2,1.73
	c-0.61,0.21-1.19,0.04-1.76-0.51l-0.14-0.15c-0.37,0.84-0.81,1.31-1.32,1.39c-0.54,0.06-1.06-0.18-1.54-0.73l-0.14-0.24l-0.54,0.88
	c-0.44,0.4-0.81,0.62-1.12,0.66v0.04c-0.41,0.05-0.87-0.25-1.37-0.88c-0.19-0.26-0.37-0.56-0.54-0.9c-0.09,0.04-0.14,0.12-0.15,0.25
	c-0.49,0.56-1,0.8-1.53,0.71c-0.45-0.1-0.86-0.57-1.22-1.41l-0.13,0.13c-0.59,0.51-1.15,0.67-1.66,0.47
	c-0.55-0.24-0.94-0.76-1.14-1.56c-0.05-0.26-0.07-0.51-0.06-0.73c-0.04-0.01-0.06-0.01-0.06,0.02c-0.29,0.14-0.61,0.17-0.93,0.09
	c-0.22-0.06-0.49-0.19-0.81-0.4c-0.49-0.4-0.75-1-0.77-1.81c-0.01-0.16-0.01-0.3,0-0.41h-0.02c-0.59,0.25-1.02,0.22-1.28-0.09
	c-0.12-0.15-0.19-0.37-0.21-0.66c-0.03-0.29-0.01-0.58,0.06-0.87c-0.64,0.13-1.11-0.06-1.39-0.55c-0.32-0.5-0.34-1.15-0.06-1.96
	c0.12-0.35,0.25-0.66,0.41-0.92c-0.1-0.04-0.21-0.08-0.31-0.13c-0.53-0.26-0.85-0.68-0.97-1.24c-0.06-0.43-0.03-0.8,0.1-1.13
	c-0.26-0.23-0.39-0.5-0.41-0.83c-0.05-0.26-0.06-0.5-0.02-0.72c-0.41-0.19-0.68-0.53-0.79-1.04c-0.04-0.16-0.06-0.33-0.06-0.49
	c-0.45-0.34-0.72-0.78-0.81-1.34c-0.19-0.68-0.13-1.33,0.19-1.96c0.04-0.15,0.1-0.28,0.19-0.38c-0.04-0.01-0.06-0.02-0.06-0.04
	c-0.49-0.24-0.8-0.63-0.93-1.17c-0.13-0.59-0.08-1.14,0.13-1.64c0.04-0.05,0.08-0.1,0.12-0.15c-0.21-0.21-0.34-0.46-0.41-0.73
	c-0.13-0.46-0.08-0.9,0.14-1.32h0.02c-0.13-0.14-0.19-0.28-0.17-0.41c-0.15-0.44-0.13-0.85,0.08-1.24c-0.28-2.62-0.52-4.47-0.7-5.53
	c0.22,0.05,0.48,0.16,0.79,0.34C270.31,266.2,270.67,266.42,271.2,266.74z"/>
<polygon class="st6" points="335.44,341.23 317.86,346.99 317.57,350.19 335.42,344.48 "/>
<polygon class="st6" points="237.56,341.23 255.15,346.99 255.44,350.19 237.59,344.48 "/>
<path class="st6" d="M335.42,340.98c0,0,1.51-30.09-17.13-34.52c-2.27-0.54-11.54-3.68-13.83-4.75c0,0-0.5,0.49-1.33,1.31
	c-0.42,0.41-0.92,0.9-1.47,1.47c-3.38,5.35-9.51,9.31-13.83,13.59c-0.83,0.82-1.33,1.31-1.33,1.31s-0.5-0.49-1.34-1.31
	c-4.96-4.57-10.96-8.57-14.68-14.37c-0.39-0.42-0.78-0.84-1.17-1.24c-0.49-0.49-0.77-0.76-0.77-0.76
	c-2.29,1.07-11.55,4.2-13.83,4.75c-18.64,4.43-17.13,34.52-17.13,34.52l16.6,5.25c0,0,0.19,4.42,0.36,9.37
	c0.06,1.65,0.12,3.36,0.16,4.99c1.5,15.91-3.5,27.91-2.67,43.71c-0.12,1.58-0.26,3.15-0.4,4.73c-0.43,4.73-0.93,9.48-1.43,14.48
	c15,1,29,1,44.26,1.02c1.56-0.04,3.13-0.1,4.7-0.17c4.73-0.2,9.52-0.47,14.45-0.73c1.81,0.07,3.4,0.13,4.72,0.17
	c2.64,0.09,4.19,0.12,4.19,0.12s-0.27-3.6-0.68-9.06c-0.13-1.82-0.28-3.83-0.38-5.99c0.22-4.61,0.1-9.19-0.2-13.75
	c-0.1-1.52-0.22-3.04-0.36-4.56c-2.71-15.06-3.71-26.06-2.27-40.92c0.11-2.06,0.17-3.43,0.17-3.43L335.42,340.98z"/>
<g>
	<defs>
		<path id="SVGID_2_" d="M335.42,340.98c0,0,1.51-30.09-17.13-34.52c-2.27-0.54-11.54-3.68-13.83-4.75c0,0-0.5,0.49-1.33,1.31
			c-0.42,0.41-0.92,0.9-1.47,1.47c-3.38,5.35-9.51,9.31-13.83,13.59c-0.83,0.82-1.33,1.31-1.33,1.31s-0.5-0.49-1.34-1.31
			c-4.96-4.57-10.96-8.57-14.68-14.37c-0.39-0.42-0.78-0.84-1.17-1.24c-0.49-0.49-0.77-0.76-0.77-0.76
			c-2.29,1.07-11.55,4.2-13.83,4.75c-18.64,4.43-17.13,34.52-17.13,34.52l16.6,5.25c0,0,0.19,4.42,0.36,9.37
			c0.06,1.65,0.12,3.36,0.16,4.99c1.5,15.91-3.5,28.91-2.67,44.71c-0.12,1.58-0.26,3.15-0.4,4.73c-0.43,4.73-3.21,8.01-1.43,14.48
			c15,1,29,1,44.26,1.02c1.56-0.04,3.13-0.1,4.7-0.17c4.73-0.2,9.52-0.47,14.45-0.73c1.81,0.07,3.4,0.13,4.72,0.17
			c2.64,0.09,4.19,0.12,4.19,0.12s1.33-4.31,0.05-9.38c-0.45-1.76-1.01-3.52-1.11-5.67c0.22-4.61,0.1-5.19-0.2-9.75
			c-0.1-1.52-0.22-3.04-0.36-4.56c-2.71-15.06-3.71-31.06-2.27-45.92c0.11-2.06,0.17-3.43,0.17-3.43L335.42,340.98z"/>
	</defs>
	<clipPath id="SVGID_3_">
		<use xlink:href="#SVGID_2_"  style="overflow:visible;"/>
	</clipPath>
	<g class="st17">
		<g>
			<rect x="274.42" y="330.17" class="st18" width="29.67" height="21.27"/>
			<rect x="274.42" y="386.88" class="st18" width="29.67" height="21.27"/>
			<rect x="311.5" y="301.81" class="st18" width="29.67" height="21.27"/>
			<rect x="311.5" y="358.53" class="st18" width="29.67" height="21.27"/>
			<rect x="237.33" y="301.81" class="st18" width="29.67" height="21.27"/>
			<rect x="237.33" y="358.53" class="st18" width="29.67" height="21.27"/>
			<rect x="311.5" y="415.27" class="st18" width="29.67" height="21.27"/>
			<rect x="237.33" y="415.27" class="st18" width="29.67" height="21.27"/>
			
				<rect x="230.08" y="393.83" transform="matrix(-1.836970e-16 1 -1 -1.836970e-16 631.1641 163.9115)" class="st18" width="7.09" height="7.42"/>
			
				<rect x="229.92" y="393.99" transform="matrix(-1 -1.224647e-16 1.224647e-16 -1 467.2525 795.0756)" class="st18" width="7.42" height="7.09"/>
			<rect x="229.92" y="422.36" class="st18" width="7.42" height="7.09"/>
			<rect x="237.33" y="415.27" class="st18" width="7.42" height="7.09"/>
			<rect x="244.75" y="408.18" class="st18" width="7.42" height="7.09"/>
			
				<rect x="252.33" y="408.01" transform="matrix(-1.836970e-16 1 -1 -1.836970e-16 667.5967 155.8452)" class="st18" width="7.09" height="7.42"/>
			
				<rect x="259.75" y="415.1" transform="matrix(-1.836970e-16 1 -1 -1.836970e-16 682.1048 155.5202)" class="st18" width="7.09" height="7.42"/>
			
				<rect x="267.16" y="422.2" transform="matrix(-1.836970e-16 1 -1 -1.836970e-16 696.6124 155.1958)" class="st18" width="7.09" height="7.42"/>
			
				<rect x="267" y="422.36" transform="matrix(-1 -1.224647e-16 1.224647e-16 -1 541.4166 851.8082)" class="st18" width="7.42" height="7.09"/>
			
				<rect x="259.58" y="429.45" transform="matrix(-1 -1.224647e-16 1.224647e-16 -1 526.5845 865.9913)" class="st18" width="7.42" height="7.09"/>
			
				<rect x="252.17" y="436.54" transform="matrix(-1 -1.224647e-16 1.224647e-16 -1 511.7516 880.1744)" class="st18" width="7.42" height="7.09"/>
			
				<rect x="244.91" y="436.38" transform="matrix(6.123234e-17 -1 1 6.123234e-17 -191.6284 688.546)" class="st18" width="7.09" height="7.42"/>
			
				<rect x="237.5" y="429.29" transform="matrix(6.123234e-17 -1 1 6.123234e-17 -191.9534 674.038)" class="st18" width="7.09" height="7.42"/>
			
				<rect x="230.08" y="422.2" transform="matrix(6.123234e-17 -1 1 6.123234e-17 -192.2778 659.5304)" class="st18" width="7.09" height="7.42"/>
			
				<rect x="230.08" y="337.1" transform="matrix(-1.836970e-16 1 -1 -1.836970e-16 574.4317 107.1792)" class="st18" width="7.09" height="7.42"/>
			
				<rect x="229.92" y="337.26" transform="matrix(-1 -1.224647e-16 1.224647e-16 -1 467.2525 681.6108)" class="st18" width="7.42" height="7.09"/>
			<rect x="229.92" y="365.63" class="st18" width="7.42" height="7.09"/>
			<rect x="237.33" y="358.53" class="st18" width="7.42" height="7.09"/>
			<rect x="244.75" y="351.44" class="st18" width="7.42" height="7.09"/>
			
				<rect x="252.33" y="351.28" transform="matrix(-1.836970e-16 1 -1 -1.836970e-16 610.8643 99.1128)" class="st18" width="7.09" height="7.42"/>
			
				<rect x="259.75" y="358.37" transform="matrix(-1.836970e-16 1 -1 -1.836970e-16 625.3724 98.7878)" class="st18" width="7.09" height="7.42"/>
			
				<rect x="267.16" y="365.46" transform="matrix(-1.836970e-16 1 -1 -1.836970e-16 639.8799 98.4633)" class="st18" width="7.09" height="7.42"/>
			
				<rect x="267" y="365.63" transform="matrix(-1 -1.224647e-16 1.224647e-16 -1 541.4166 738.3433)" class="st18" width="7.42" height="7.09"/>
			
				<rect x="259.58" y="372.72" transform="matrix(-1 -1.224647e-16 1.224647e-16 -1 526.5845 752.5264)" class="st18" width="7.42" height="7.09"/>
			
				<rect x="252.17" y="379.81" transform="matrix(-1 -1.224647e-16 1.224647e-16 -1 511.7516 766.7095)" class="st18" width="7.42" height="7.09"/>
			
				<rect x="244.91" y="379.65" transform="matrix(6.123234e-17 -1 1 6.123234e-17 -134.896 631.8135)" class="st18" width="7.09" height="7.42"/>
			
				<rect x="237.5" y="372.56" transform="matrix(6.123234e-17 -1 1 6.123234e-17 -135.2209 617.3054)" class="st18" width="7.09" height="7.42"/>
			
				<rect x="230.08" y="365.46" transform="matrix(6.123234e-17 -1 1 6.123234e-17 -135.5453 602.7979)" class="st18" width="7.09" height="7.42"/>
			<rect x="267" y="393.99" class="st18" width="7.42" height="7.09"/>
			<rect x="274.42" y="386.9" class="st18" width="7.42" height="7.09"/>
			<rect x="281.83" y="379.81" class="st18" width="7.42" height="7.09"/>
			
				<rect x="289.41" y="379.65" transform="matrix(-1.836970e-16 1 -1 -1.836970e-16 676.313 90.3964)" class="st18" width="7.09" height="7.42"/>
			
				<rect x="296.83" y="386.74" transform="matrix(-1.836970e-16 1 -1 -1.836970e-16 690.8206 90.0719)" class="st18" width="7.09" height="7.42"/>
			
				<rect x="304.24" y="393.83" transform="matrix(-1.836970e-16 1 -1 -1.836970e-16 705.3282 89.7475)" class="st18" width="7.09" height="7.42"/>
			
				<rect x="304.08" y="393.99" transform="matrix(-1 -1.224647e-16 1.224647e-16 -1 615.5807 795.0756)" class="st18" width="7.42" height="7.09"/>
			
				<rect x="296.67" y="401.08" transform="matrix(-1 -1.224647e-16 1.224647e-16 -1 600.7487 809.2589)" class="st18" width="7.42" height="7.09"/>
			
				<rect x="289.25" y="408.18" transform="matrix(-1 -1.224647e-16 1.224647e-16 -1 585.9166 823.442)" class="st18" width="7.42" height="7.09"/>
			
				<rect x="282" y="408.01" transform="matrix(6.123234e-17 -1 1 6.123234e-17 -126.1792 697.2628)" class="st18" width="7.09" height="7.42"/>
			
				<rect x="274.58" y="400.92" transform="matrix(6.123234e-17 -1 1 6.123234e-17 -126.5046 682.7543)" class="st18" width="7.09" height="7.42"/>
			
				<rect x="267.16" y="393.83" transform="matrix(6.123234e-17 -1 1 6.123234e-17 -126.8295 668.2462)" class="st18" width="7.09" height="7.42"/>
			<rect x="304.08" y="422.36" class="st18" width="7.42" height="7.09"/>
			<rect x="311.5" y="415.27" class="st18" width="7.42" height="7.09"/>
			<rect x="318.92" y="408.18" class="st18" width="7.42" height="7.09"/>
			
				<rect x="326.49" y="408.01" transform="matrix(-1.836970e-16 1 -1 -1.836970e-16 741.7614 81.6806)" class="st18" width="7.09" height="7.42"/>
			
				<rect x="333.91" y="415.1" transform="matrix(-1.836970e-16 1 -1 -1.836970e-16 756.2689 81.3562)" class="st18" width="7.09" height="7.42"/>
			
				<rect x="341.33" y="422.2" transform="matrix(-1.836970e-16 1 -1 -1.836970e-16 770.7775 81.0308)" class="st18" width="7.09" height="7.42"/>
			
				<rect x="341.16" y="422.36" transform="matrix(-1 -1.224647e-16 1.224647e-16 -1 689.7468 851.8082)" class="st18" width="7.42" height="7.09"/>
			
				<rect x="333.75" y="429.45" transform="matrix(-1 -1.224647e-16 1.224647e-16 -1 674.9127 865.9913)" class="st18" width="7.42" height="7.09"/>
			
				<rect x="326.33" y="436.54" transform="matrix(-1 -1.224647e-16 1.224647e-16 -1 660.0807 880.1744)" class="st18" width="7.42" height="7.09"/>
			
				<rect x="319.08" y="436.38" transform="matrix(6.123234e-17 -1 1 6.123234e-17 -117.4629 762.7116)" class="st18" width="7.09" height="7.42"/>
			
				<rect x="311.66" y="429.29" transform="matrix(6.123234e-17 -1 1 6.123234e-17 -117.7883 748.2031)" class="st18" width="7.09" height="7.42"/>
			
				<rect x="304.24" y="422.2" transform="matrix(6.123234e-17 -1 1 6.123234e-17 -118.1138 733.6945)" class="st18" width="7.09" height="7.42"/>
			<rect x="229.92" y="308.89" class="st18" width="7.42" height="7.09"/>
			<rect x="237.33" y="301.8" class="st18" width="7.42" height="7.09"/>
			<rect x="244.75" y="294.71" class="st18" width="7.42" height="7.09"/>
			
				<rect x="252.33" y="294.55" transform="matrix(-1.836970e-16 1 -1 -1.836970e-16 554.1321 42.3806)" class="st18" width="7.09" height="7.42"/>
			
				<rect x="259.75" y="301.64" transform="matrix(-1.836970e-16 1 -1 -1.836970e-16 568.6402 42.0557)" class="st18" width="7.09" height="7.42"/>
			
				<rect x="267.16" y="308.73" transform="matrix(-1.836970e-16 1 -1 -1.836970e-16 583.1478 41.7312)" class="st18" width="7.09" height="7.42"/>
			
				<rect x="267" y="308.89" transform="matrix(-1 -1.224647e-16 1.224647e-16 -1 541.4166 624.879)" class="st18" width="7.42" height="7.09"/>
			
				<rect x="259.58" y="315.99" transform="matrix(-1 -1.224647e-16 1.224647e-16 -1 526.5845 639.0621)" class="st18" width="7.42" height="7.09"/>
			
				<rect x="252.17" y="323.08" transform="matrix(-1 -1.224647e-16 1.224647e-16 -1 511.7516 653.2452)" class="st18" width="7.42" height="7.09"/>
			
				<rect x="244.91" y="322.91" transform="matrix(6.123234e-17 -1 1 6.123234e-17 -78.1638 575.0814)" class="st18" width="7.09" height="7.42"/>
			
				<rect x="237.5" y="315.82" transform="matrix(6.123234e-17 -1 1 6.123234e-17 -78.4888 560.5733)" class="st18" width="7.09" height="7.42"/>
			
				<rect x="230.08" y="308.73" transform="matrix(6.123234e-17 -1 1 6.123234e-17 -78.8132 546.0657)" class="st18" width="7.09" height="7.42"/>
			<rect x="267" y="337.26" class="st18" width="7.42" height="7.09"/>
			<rect x="274.42" y="330.17" class="st18" width="7.42" height="7.09"/>
			<rect x="281.83" y="323.08" class="st18" width="7.42" height="7.09"/>
			
				<rect x="289.41" y="322.91" transform="matrix(-1.836970e-16 1 -1 -1.836970e-16 619.5809 33.6643)" class="st18" width="7.09" height="7.42"/>
			
				<rect x="296.83" y="330.01" transform="matrix(-1.836970e-16 1 -1 -1.836970e-16 634.0883 33.3395)" class="st18" width="7.09" height="7.42"/>
			
				<rect x="304.24" y="337.1" transform="matrix(-1.836970e-16 1 -1 -1.836970e-16 648.5958 33.0151)" class="st18" width="7.09" height="7.42"/>
			
				<rect x="304.08" y="337.26" transform="matrix(-1 -1.224647e-16 1.224647e-16 -1 615.5807 681.6108)" class="st18" width="7.42" height="7.09"/>
			
				<rect x="296.67" y="344.35" transform="matrix(-1 -1.224647e-16 1.224647e-16 -1 600.7487 695.7939)" class="st18" width="7.42" height="7.09"/>
			
				<rect x="289.25" y="351.44" transform="matrix(-1 -1.224647e-16 1.224647e-16 -1 585.9166 709.9771)" class="st18" width="7.42" height="7.09"/>
			
				<rect x="282" y="351.28" transform="matrix(6.123234e-17 -1 1 6.123234e-17 -69.4468 640.5303)" class="st18" width="7.09" height="7.42"/>
			
				<rect x="274.58" y="344.19" transform="matrix(6.123234e-17 -1 1 6.123234e-17 -69.7722 626.0218)" class="st18" width="7.09" height="7.42"/>
			
				<rect x="267.16" y="337.1" transform="matrix(6.123234e-17 -1 1 6.123234e-17 -70.0971 611.5137)" class="st18" width="7.09" height="7.42"/>
			<rect x="304.08" y="365.63" class="st18" width="7.42" height="7.09"/>
			<rect x="311.5" y="358.53" class="st18" width="7.42" height="7.09"/>
			<rect x="318.92" y="351.44" class="st18" width="7.42" height="7.09"/>
			
				<rect x="326.49" y="351.28" transform="matrix(-1.836970e-16 1 -1 -1.836970e-16 685.0289 24.9482)" class="st18" width="7.09" height="7.42"/>
			
				<rect x="333.91" y="358.37" transform="matrix(-1.836970e-16 1 -1 -1.836970e-16 699.5364 24.6237)" class="st18" width="7.09" height="7.42"/>
			
				<rect x="341.33" y="365.46" transform="matrix(-1.836970e-16 1 -1 -1.836970e-16 714.045 24.2983)" class="st18" width="7.09" height="7.42"/>
			
				<rect x="341.16" y="365.63" transform="matrix(-1 -1.224647e-16 1.224647e-16 -1 689.7468 738.3433)" class="st18" width="7.42" height="7.09"/>
			
				<rect x="333.75" y="372.72" transform="matrix(-1 -1.224647e-16 1.224647e-16 -1 674.9127 752.5264)" class="st18" width="7.42" height="7.09"/>
			
				<rect x="326.33" y="379.81" transform="matrix(-1 -1.224647e-16 1.224647e-16 -1 660.0807 766.7095)" class="st18" width="7.42" height="7.09"/>
			
				<rect x="319.08" y="379.65" transform="matrix(6.123234e-17 -1 1 6.123234e-17 -60.7304 705.9791)" class="st18" width="7.09" height="7.42"/>
			
				<rect x="311.66" y="372.55" transform="matrix(6.123234e-17 -1 1 6.123234e-17 -61.0558 691.4705)" class="st18" width="7.09" height="7.42"/>
			
				<rect x="304.24" y="365.46" transform="matrix(6.123234e-17 -1 1 6.123234e-17 -61.3813 676.962)" class="st18" width="7.09" height="7.42"/>
			<rect x="304.08" y="308.89" class="st18" width="7.42" height="7.09"/>
			<rect x="311.5" y="301.8" class="st18" width="7.42" height="7.09"/>
			<rect x="318.92" y="294.71" class="st18" width="7.42" height="7.09"/>
			
				<rect x="326.49" y="294.55" transform="matrix(-1.836970e-16 1 -1 -1.836970e-16 628.2968 -31.784)" class="st18" width="7.09" height="7.42"/>
			
				<rect x="333.91" y="301.64" transform="matrix(-1.836970e-16 1 -1 -1.836970e-16 642.8043 -32.1084)" class="st18" width="7.09" height="7.42"/>
			
				<rect x="341.33" y="308.73" transform="matrix(-1.836970e-16 1 -1 -1.836970e-16 657.3129 -32.4339)" class="st18" width="7.09" height="7.42"/>
			
				<rect x="341.16" y="308.89" transform="matrix(-1 -1.224647e-16 1.224647e-16 -1 689.7468 624.879)" class="st18" width="7.42" height="7.09"/>
			
				<rect x="333.75" y="315.99" transform="matrix(-1 -1.224647e-16 1.224647e-16 -1 674.9127 639.0621)" class="st18" width="7.42" height="7.09"/>
			
				<rect x="326.33" y="323.08" transform="matrix(-1 -1.224647e-16 1.224647e-16 -1 660.0807 653.2452)" class="st18" width="7.42" height="7.09"/>
			
				<rect x="319.08" y="322.91" transform="matrix(6.123234e-17 -1 1 6.123234e-17 -3.9982 649.2469)" class="st18" width="7.09" height="7.42"/>
			
				<rect x="311.66" y="315.82" transform="matrix(6.123234e-17 -1 1 6.123234e-17 -4.3237 634.7384)" class="st18" width="7.09" height="7.42"/>
			
				<rect x="304.24" y="308.73" transform="matrix(6.123234e-17 -1 1 6.123234e-17 -4.6491 620.2299)" class="st18" width="7.09" height="7.42"/>
			
				<rect x="248.62" y="361.83" transform="matrix(6.123234e-17 -1 1 6.123234e-17 -116.9957 621.3292)" class="st18" width="7.09" height="14.67"/>
			
				<rect x="248.62" y="305.11" transform="matrix(6.123234e-17 -1 1 6.123234e-17 -60.2727 564.6063)" class="st18" width="7.09" height="14.67"/>
		</g>
	</g>
</g>
</svg>
