<svg width="114" height="404" viewBox="0 0 114 404" fill="none" xmlns="http://www.w3.org/2000/svg">
<path fill-rule="evenodd" clip-rule="evenodd" d="M86.7094 79.6233C86.0294 79.2633 83.3594 78.6933 82.5894 78.3833C78.2394 76.5433 75.8194 72.5733 72.4994 69.6533C69.6494 67.4633 69.9194 60.7333 69.7694 56.9233C69.9294 55.4733 70.0394 54.5133 70.0394 54.5133C68.2294 53.6733 64.4594 53.3033 59.6094 53.4133C59.4494 53.4133 59.2994 53.4233 59.1494 53.4233C58.9894 53.4233 58.8394 53.4133 58.6794 53.4133C58.6794 53.4133 58.6794 53.4133 58.6694 53.4133V53.4033C58.5894 53.4033 58.5094 53.4033 58.4294 53.4033C58.3494 53.4033 58.2694 53.4033 58.1894 53.4033V53.4133C58.1894 53.4133 58.1894 53.4133 58.1794 53.4133C58.0194 53.4133 57.8694 53.4233 57.7094 53.4233C57.5494 53.4233 57.3994 53.4133 57.2494 53.4133C52.3894 53.3133 48.6294 53.6733 46.8194 54.5133C46.8194 54.5133 46.9294 55.4733 47.0894 56.9233C47.1794 61.1133 47.2494 67.5533 44.4094 69.7333C41.0894 72.6533 40.9294 76.5433 36.5794 78.3733C35.8194 78.6833 32.9194 78.7333 32.2394 79.0833C26.8294 81.9333 21.4894 82.1433 21.4894 86.1933C21.4894 95.1833 37.3694 100.733 57.2094 100.733C57.6194 100.733 58.0294 100.723 58.4294 100.723C58.8394 100.733 59.2394 100.733 59.6494 100.733C79.4894 100.733 94.6494 95.1833 94.6494 86.1933C94.6594 82.1433 92.1194 82.4633 86.7094 79.6233Z" fill="url(#paint0_radial_234_1019)"/>
<path d="M19.2894 214.833C19.2894 214.833 19.3094 215.513 19.3294 216.493C19.7694 221.793 19.0194 224.013 21.9694 228.013C18.2094 226.063 16.8494 221.863 19.2194 215.873C19.2494 215.243 19.2894 214.833 19.2894 214.833Z" fill="#854324"/>
<path d="M23.1493 189.843C22.7293 192.643 22.7493 195.893 23.9993 198.963C26.4993 205.153 23.2893 211.723 23.2893 215.483C23.2893 216.723 24.6993 219.423 24.7493 220.703C24.5993 222.103 23.7893 222.573 23.7893 222.573C23.8293 223.363 23.6693 222.203 23.7893 222.573C24.2293 223.933 24.1693 225.443 24.4093 226.273C24.6493 227.093 26.2893 230.483 24.2393 230.993C24.2393 230.993 23.0093 231.733 22.3693 230.473C22.3693 230.473 21.0593 229.013 20.9693 228.503C20.8793 227.993 20.1793 225.303 19.8993 224.753C19.6193 224.203 18.7593 222.453 18.7893 220.983C18.7893 220.713 18.7293 220.163 18.7293 220.163C18.3993 219.793 18.3893 219.783 18.4593 220.003C18.6693 220.633 18.5193 222.713 18.9693 223.453C19.5793 224.463 20.7193 225.373 21.3293 227.293C21.7693 228.693 22.4993 229.333 22.5693 229.783C22.6893 230.593 21.6693 230.653 21.6693 230.653C21.6693 230.653 21.3093 230.713 20.3393 230.183C19.0693 229.483 19.6393 229.723 18.4193 228.613C18.4193 228.613 16.6193 225.993 16.0093 225.223C15.3993 224.443 14.9093 223.403 14.6993 222.123C14.4893 220.843 13.8093 218.063 14.7093 219.753C15.1593 220.613 14.3093 222.093 15.3893 222.803C15.8593 223.113 17.9093 227.773 17.9093 227.773C16.6893 227.133 17.7493 227.583 16.7193 227.263C16.7193 227.263 14.9493 226.923 13.6693 225.563C13.6693 225.563 11.4593 223.533 11.6293 222.163C11.6293 222.163 10.9193 219.993 10.7493 218.043C10.6593 217.033 11.8193 220.923 11.6293 222.163C11.6293 222.163 9.77932 220.303 9.56932 219.303C9.12932 217.113 8.61932 214.403 8.48932 213.933C8.35932 213.453 7.66932 211.073 8.90932 207.943C10.1493 204.803 12.4393 200.063 11.9193 197.563C11.3993 195.063 12.8693 188.973 13.1693 179.553L24.8293 180.783C24.8093 180.773 23.7793 185.613 23.1493 189.843Z" fill="url(#paint1_linear_234_1019)"/>
<path d="M13.9992 213.483C13.9992 213.483 14.2992 219.233 14.3492 220.633C14.3992 222.023 14.7992 223.163 15.3692 224.023C15.9392 224.883 17.7292 227.623 17.7292 227.623C17.7292 227.623 15.7592 224.663 15.2892 224.313C14.1992 223.503 14.1192 220.373 14.0292 219.343C13.7992 216.963 13.9992 213.483 13.9992 213.483Z" fill="#854324"/>
<path d="M11.0995 219.753C11.0995 219.753 10.6795 217.943 10.7795 215.833C10.8895 213.723 11.2295 212.913 10.1995 211.863C10.1995 211.863 10.8395 213.753 10.6495 214.873C10.4595 215.983 10.7895 219.193 11.0995 219.753Z" fill="#854324"/>
<path fill-rule="evenodd" clip-rule="evenodd" d="M25.7587 192.956L27.8492 193.213L31.6492 104.383L25.4392 83.8131L15.4892 82.5931L9.11925 132.343L8.52924 177.943L10.722 190.893L10.1593 200.933L24.8493 201.493L25.7587 192.956Z" fill="url(#paint2_linear_234_1019)"/>
<path d="M83.0592 24.7132C83.0692 24.2232 83.0992 23.7932 83.1492 23.3532C83.1992 22.9032 83.2792 22.4632 83.4192 21.9532C83.6892 20.9832 83.4892 19.9132 83.6092 18.9132C83.6592 18.5232 83.4492 16.8132 83.0492 16.2532C83.0792 15.4532 82.8792 12.9432 82.2992 12.4632C81.9692 12.1932 81.6792 11.7132 81.5492 11.3132C81.4592 11.0032 79.8292 8.03328 78.9292 7.21328C78.0492 6.38328 76.6392 5.55327 76.3892 5.33327C76.1192 5.10327 74.8792 3.92327 74.6192 3.67327C74.0592 3.11327 71.7692 2.19328 69.6092 1.59328C69.4392 1.54328 69.2592 1.49327 69.1192 1.39327C68.9892 1.30327 68.8992 1.19327 68.7892 1.08327C68.1892 0.413274 64.0692 0.253269 63.6392 0.313269C63.3192 0.333269 62.1592 0.103274 61.8392 0.0832744C61.0692 0.0232744 59.4792 0.0132794 58.3592 0.213279C57.2492 0.0132794 55.6492 0.0132744 54.8792 0.0832744C54.5492 0.113274 53.3992 0.343269 53.0792 0.313269C52.6492 0.263269 48.5292 0.413274 47.9292 1.08327C47.8192 1.19327 47.7292 1.31327 47.5992 1.39327C47.4592 1.49327 47.2892 1.54328 47.1092 1.59328C44.9392 2.19328 42.6592 3.11327 42.0992 3.67327C41.8492 3.92327 40.5992 5.09327 40.3292 5.33327C40.0692 5.54327 38.6692 6.38328 37.7892 7.21328C36.8892 8.03328 35.2592 11.0032 35.1692 11.3132C35.0392 11.7032 34.7492 12.1832 34.4192 12.4632C33.8492 12.9332 33.6392 15.4432 33.6692 16.2532C33.2692 16.8132 33.0592 18.5332 33.1092 18.9132C33.1692 19.4132 33.1492 19.9332 33.1492 20.4432C33.1492 20.9532 33.1692 21.4632 33.2992 21.9532C34.9392 26.6032 36.9392 31.6032 37.4092 36.5132C37.4692 36.8732 38.1092 37.6133 38.0692 37.9733C38.0492 38.2333 38.3792 38.6633 38.8892 39.1833C39.3992 39.7033 40.0692 40.3132 40.7392 40.9232C41.3292 41.2632 41.9292 41.6333 42.4292 42.1533C43.4392 43.1233 44.3492 44.1132 45.2692 44.9632C45.4492 45.1332 45.6392 45.3032 45.8192 45.4532C48.4392 48.0532 52.7592 47.7133 56.2492 48.2533C56.5492 48.1433 56.8492 48.0132 57.1492 47.8832C58.6492 47.2132 60.1992 46.4032 61.7892 46.3532C62.1392 46.3932 62.4792 46.4533 62.8092 46.5333C63.1492 46.6133 63.4792 46.7232 63.8092 46.8632C68.5192 46.9632 69.9592 41.5832 73.8192 41.2332C74.1192 41.1132 74.4392 41.0333 74.7592 40.9733C75.0692 40.7133 75.3792 40.4533 75.6792 40.1833C75.9892 39.9133 76.2892 39.6332 76.5992 39.3332C80.9392 36.5932 78.9392 30.5932 81.9592 26.6932C82.1892 26.2532 82.4692 25.8233 82.8292 25.4333C82.9692 25.1333 83.0492 24.8632 83.0592 24.7132Z" fill="url(#paint3_linear_234_1019)"/>
<path fill-rule="evenodd" clip-rule="evenodd" d="M75.4294 38.1932C75.3494 37.7432 75.2594 37.2932 75.1794 36.8432C74.9594 36.5132 74.7594 36.1832 74.5594 35.8332C73.0094 33.7932 73.1594 31.5732 73.3594 29.3732C73.3694 29.2932 73.3694 29.2131 73.3794 29.1331C73.2894 28.5931 73.2894 28.5932 73.4994 27.4932C73.4994 27.4132 73.5093 27.3332 73.5093 27.2632C73.5093 27.1832 73.5093 27.1131 73.5093 27.0331C73.5093 26.9531 73.5094 26.8732 73.4994 26.8032C73.2894 26.6132 73.2894 25.6132 73.3794 25.3832C73.3694 25.3032 73.3493 25.2332 73.3293 25.1532C73.2793 24.9232 73.2194 24.6932 73.1394 24.4632C73.1094 24.3832 73.0894 24.3132 73.0594 24.2332C74.2994 23.6132 71.2994 23.6132 72.2694 22.8832C72.2394 22.8132 72.2093 22.7532 72.1493 22.6832C72.0293 22.5432 71.9094 22.3931 71.7694 22.2531C71.4294 21.9231 67.5894 21.2831 67.2094 21.0331C65.2094 20.0331 64.2494 21.4931 61.4494 21.2031C60.8494 21.1331 60.2593 21.0832 59.6593 21.0432C59.2093 21.0132 58.7693 21.0032 58.3193 20.9932C57.8793 20.9932 57.4294 20.9932 56.9894 21.0132C56.3394 20.8832 55.7093 20.8032 55.0893 20.7632C54.4693 20.7232 53.8694 20.7332 53.2794 20.7732C51.2694 20.6732 51.1893 19.4132 49.4993 20.3732C49.0793 20.6132 46.5894 21.9432 46.2094 22.2432C45.8094 22.4432 45.4694 22.6731 45.1794 22.9231C45.1294 22.9731 45.0993 23.0131 45.0693 23.0631C46.2693 23.6131 43.2694 23.6131 44.2694 24.1431C44.2394 24.1831 44.2094 24.2132 44.1794 24.2732C44.0394 24.5832 43.9494 24.9131 43.8794 25.2531C43.8694 25.3231 43.8794 25.3732 43.8794 25.4432C44.2594 26.6032 44.2593 26.6032 43.7493 26.8532C43.7493 26.9332 43.7493 27.0132 43.7493 27.0932C43.7593 27.4832 43.7893 27.8831 43.8193 28.2831C43.8293 28.3631 43.8293 28.4432 43.8393 28.5232C44.2493 28.5932 44.2494 29.5931 43.9694 29.7631C43.9594 29.8431 43.9494 29.9132 43.9594 29.9932C44.0794 31.9632 43.9994 33.9231 42.5894 35.4831C42.3294 35.9531 42.0294 36.4032 41.6694 36.8432C41.5694 37.2932 41.4894 37.7432 41.3994 38.1932C40.7094 41.8232 41.8693 45.0632 42.9093 47.9032C43.9193 50.7332 44.1594 51.8832 45.6294 55.3432C47.0794 58.7932 49.1894 60.1432 51.9594 61.4032C53.9094 62.3032 56.0594 62.6832 58.3994 62.5632C60.7394 62.6832 62.8893 62.3032 64.8393 61.4032C67.6193 60.1432 69.7294 58.7932 71.1694 55.3432C72.6394 51.8732 72.8694 50.7332 73.8894 47.9032C74.9594 45.0632 76.1294 41.8232 75.4294 38.1932Z" fill="url(#paint4_linear_234_1019)"/>
<path fill-rule="evenodd" clip-rule="evenodd" d="M41.2493 37.4532C40.8893 36.9932 40.5493 36.8032 40.2093 36.8932C39.6193 37.0532 39.1993 37.6132 38.9393 38.5532C38.6393 39.5832 39.5693 40.8732 39.7293 42.4432C39.9493 44.5532 39.4893 46.1832 40.3593 47.3532C41.1593 48.4632 42.0693 48.8932 43.0893 48.6532L43.4193 48.5632L43.0393 46.0432C42.3093 41.4132 41.7693 38.6432 41.3893 37.7332L41.2493 37.4532Z" fill="url(#paint5_linear_234_1019)"/>
<path fill-rule="evenodd" clip-rule="evenodd" d="M53.3844 31.7017C53.9164 31.7906 54.4294 31.8763 54.3694 32.7334C54.3594 32.9634 54.1494 33.3934 53.9294 33.4434C53.7865 33.4843 53.5416 33.4093 53.3305 33.3446C53.2314 33.3143 53.1397 33.2862 53.0694 33.2734C52.6094 33.1834 52.1894 33.0634 51.7794 32.9434C51.6494 32.9034 51.5094 32.8634 51.3694 32.8234C51.0719 32.8273 50.8008 32.8286 50.5457 32.8297H50.5457H50.5457C49.489 32.8346 48.706 32.8382 47.4494 33.0234C47.2894 33.0934 47.1394 33.1634 47.0294 33.2234C46.6994 33.3934 46.6594 33.4034 46.4794 33.3634C46.3094 33.3234 46.1194 33.2634 46.0594 33.1034C46.0494 33.0634 46.0794 32.9734 46.1394 32.8534C46.2694 32.6634 46.3994 32.5034 46.5394 32.3534C48.2794 31.0534 49.9494 31.1634 52.1594 31.4834C52.2373 31.4972 52.3132 31.5088 52.3879 31.5203C52.4761 31.5339 52.5628 31.5472 52.6494 31.5634L52.6495 31.5634L52.6495 31.5634L52.6495 31.5634L52.6495 31.5634L52.6495 31.5634C52.8095 31.5934 52.9694 31.6234 53.1194 31.6534C53.2066 31.672 53.2957 31.6869 53.3844 31.7017ZM62.4993 32.8135C62.4393 31.9564 62.9524 31.8707 63.4843 31.7818C63.573 31.767 63.6622 31.7521 63.7493 31.7335C63.8993 31.7035 64.0593 31.6735 64.2193 31.6435C64.306 31.6273 64.3926 31.614 64.4809 31.6004C64.5556 31.5889 64.6314 31.5773 64.7093 31.5635C66.9193 31.2435 68.5893 31.1335 70.3293 32.4335C70.4693 32.5835 70.5993 32.7435 70.7293 32.9335C70.7893 33.0535 70.8193 33.1435 70.8093 33.1835C70.7493 33.3435 70.5593 33.4035 70.3893 33.4435C70.2093 33.4835 70.1693 33.4735 69.8493 33.3035C69.7393 33.2435 69.5893 33.1735 69.4293 33.1035C68.1727 32.9183 67.3898 32.9147 66.333 32.9098C66.0779 32.9087 65.8069 32.9074 65.5093 32.9035L65.0893 33.0235C64.6793 33.1435 64.2593 33.2635 63.7993 33.3535C63.7291 33.3663 63.6374 33.3944 63.5383 33.4247C63.3271 33.4894 63.0823 33.5644 62.9393 33.5235C62.7193 33.4735 62.5193 33.0335 62.4993 32.8135ZM62.0893 37.3833C62.1293 37.3433 62.1793 37.3033 62.2293 37.2733C62.2793 37.2333 62.3393 37.1933 62.4093 37.1633C63.0957 36.7077 63.9222 36.4131 64.8887 36.2755C64.5662 36.617 64.4093 37.0235 64.4093 37.5037C64.4093 38.0037 64.5793 38.4237 64.9293 38.7737C65.2793 39.1237 65.6993 39.2937 66.1993 39.2937C66.6993 39.2937 67.1193 39.1237 67.4693 38.7737C67.8193 38.4237 67.9893 38.0037 67.9893 37.5037C67.9893 37.0167 67.8115 36.5889 67.4754 36.24C68.8833 36.3545 70.1138 36.6448 71.1593 37.1033C69.4993 35.8133 67.7793 35.2133 66.0193 35.3133C64.3493 35.4033 63.0393 36.0933 62.0893 37.3833ZM49.3993 38.7034C49.0493 38.3534 48.8793 37.9334 48.8793 37.4334C48.8793 36.9334 49.0593 36.5034 49.3993 36.1634L49.4028 36.16C47.9951 36.2744 46.7648 36.5647 45.7194 37.0232C47.3794 35.7332 49.0994 35.1332 50.8594 35.2332C52.5294 35.3232 53.8394 36.0132 54.7894 37.3032C54.7494 37.2632 54.6994 37.2233 54.6494 37.1933L54.6477 37.1922C54.5882 37.1526 54.5288 37.1129 54.4694 37.0832C53.7777 36.6241 52.9438 36.3285 51.9676 36.1922C52.2985 36.5364 52.4593 36.9471 52.4593 37.4334C52.4593 37.9334 52.2893 38.3534 51.9393 38.7034C51.5893 39.0534 51.1693 39.2234 50.6693 39.2234C50.1693 39.2234 49.7493 39.0534 49.3993 38.7034ZM61.4494 46.9731C61.4494 46.9731 62.3294 47.4031 62.7494 46.8031C63.3794 45.8931 62.7494 44.2131 62.2794 43.7831C63.8094 47.3231 61.4494 46.9731 61.4494 46.9731ZM59.7694 45.7929C59.8594 45.8029 60.0494 45.8329 60.2094 45.9029C60.6594 46.1129 60.8894 46.4629 60.8894 46.4629C60.8894 46.4629 60.1694 46.0929 59.7494 46.1429C59.6811 46.1505 59.6129 46.1754 59.5451 46.2L59.5451 46.2C59.4343 46.2404 59.3249 46.2802 59.2194 46.2429C59.1894 46.2329 59.1494 46.2129 59.1294 46.1729C59.0894 46.1129 59.1094 46.0229 59.1494 45.9629C59.1894 45.9029 59.2594 45.8729 59.3194 45.8529C59.4594 45.8029 59.6194 45.7829 59.7694 45.7929ZM55.4193 46.9731C55.4193 46.9731 54.5393 47.4031 54.1193 46.8031C53.4893 45.8931 54.1193 44.2131 54.5893 43.7831C53.0593 47.3231 55.4193 46.9731 55.4193 46.9731ZM57.0994 45.7929C57.0094 45.8029 56.8194 45.8329 56.6594 45.9029C56.2194 46.1129 55.9794 46.4629 55.9794 46.4629C55.9794 46.4629 56.6994 46.0929 57.1194 46.1429C57.1877 46.1505 57.256 46.1754 57.3237 46.2C57.4345 46.2404 57.5439 46.2802 57.6494 46.2429C57.6794 46.2329 57.7194 46.2129 57.7394 46.1729C57.7794 46.1129 57.7594 46.0229 57.7194 45.9629C57.6794 45.9029 57.6094 45.8729 57.5494 45.8529C57.4094 45.8029 57.2494 45.7829 57.0994 45.7929Z" fill="#502110"/>
<path d="M54.3694 32.7334L54.2987 32.7285L54.2986 32.7303L54.3694 32.7334ZM53.3844 31.7017L53.3727 31.7716L53.3844 31.7017ZM53.9294 33.4434L53.9137 33.3742L53.91 33.3753L53.9294 33.4434ZM53.3305 33.3446L53.3512 33.2769L53.3512 33.2769L53.3305 33.3446ZM53.0694 33.2734L53.0558 33.343L53.0567 33.3431L53.0694 33.2734ZM51.7794 32.9434L51.7586 33.0111L51.7595 33.0114L51.7794 32.9434ZM51.3694 32.8234L51.3889 32.7553L51.3685 32.7526L51.3694 32.8234ZM50.5457 32.8297V32.9006L50.546 32.9006L50.5457 32.8297ZM50.5457 32.8297V32.7589L50.5454 32.7589L50.5457 32.8297ZM47.4494 33.0234L47.4391 32.9533L47.421 32.9585L47.4494 33.0234ZM47.0294 33.2234L47.0619 33.2864L47.0633 33.2856L47.0294 33.2234ZM46.4794 33.3634L46.4632 33.4324L46.4641 33.4326L46.4794 33.3634ZM46.0594 33.1034L45.9902 33.1207L45.9931 33.1283L46.0594 33.1034ZM46.1394 32.8534L46.0804 32.813L46.0761 32.8217L46.1394 32.8534ZM46.5394 32.3534L46.4963 32.2958L46.4876 32.3051L46.5394 32.3534ZM52.1594 31.4834L52.1717 31.4136L52.1696 31.4133L52.1594 31.4834ZM52.3879 31.5203L52.3986 31.4503L52.3986 31.4503L52.3879 31.5203ZM52.6494 31.5634L52.6627 31.4938L52.6625 31.4938L52.6494 31.5634ZM52.6495 31.5634L52.6633 31.494L52.6627 31.4938L52.6495 31.5634ZM52.6495 31.5634L52.6356 31.6329L52.6364 31.6331L52.6495 31.5634ZM53.1194 31.6534L53.1342 31.5841L53.1333 31.5839L53.1194 31.6534ZM63.4843 31.7818L63.4727 31.7119L63.4727 31.7119L63.4843 31.7818ZM62.4993 32.8135L62.4286 32.8185L62.4288 32.8199L62.4993 32.8135ZM63.7493 31.7335L63.7354 31.6641L63.7345 31.6642L63.7493 31.7335ZM64.2193 31.6435L64.2324 31.7132L64.2324 31.7132L64.2193 31.6435ZM64.4809 31.6004L64.4916 31.6704L64.4916 31.6704L64.4809 31.6004ZM64.7093 31.5635L64.6992 31.4934L64.697 31.4938L64.7093 31.5635ZM70.3293 32.4335L70.3819 32.3844L70.3717 32.3768L70.3293 32.4335ZM70.7293 32.9335L70.7933 32.9015L70.7878 32.8935L70.7293 32.9335ZM70.8093 33.1835L70.8761 33.2086L70.8781 33.2007L70.8093 33.1835ZM70.3893 33.4435L70.4047 33.5127L70.4055 33.5125L70.3893 33.4435ZM69.8493 33.3035L69.8154 33.3657L69.8161 33.3661L69.8493 33.3035ZM69.4293 33.1035L69.4577 33.0386L69.4397 33.0334L69.4293 33.1035ZM66.333 32.9098L66.3327 32.9807L66.333 32.9098ZM65.5093 32.9035L65.5102 32.8327L65.4899 32.8354L65.5093 32.9035ZM65.0893 33.0235L65.0699 32.9554L65.0694 32.9555L65.0893 33.0235ZM63.7993 33.3535L63.812 33.4232L63.8129 33.4231L63.7993 33.3535ZM63.5383 33.4247L63.559 33.4925L63.559 33.4925L63.5383 33.4247ZM62.9393 33.5235L62.9588 33.4553L62.955 33.4544L62.9393 33.5235ZM62.2293 37.2733L62.2661 37.3346L62.2736 37.3287L62.2293 37.2733ZM62.0893 37.3833L62.0323 37.3413L62.1394 37.4334L62.0893 37.3833ZM62.4093 37.1633L62.4377 37.2295L62.4485 37.2224L62.4093 37.1633ZM64.8887 36.2755L64.9402 36.3241L64.8787 36.2054L64.8887 36.2755ZM67.4754 36.24L67.4812 36.1694L67.4244 36.2892L67.4754 36.24ZM71.1593 37.1033L71.1309 37.1682L71.2028 37.0474L71.1593 37.1033ZM66.0193 35.3133L66.0231 35.3841L66.0233 35.3841L66.0193 35.3133ZM49.3993 36.1634L49.3493 36.1133L49.3492 36.1133L49.3993 36.1634ZM49.4028 36.16L49.4528 36.2101L49.397 36.0894L49.4028 36.16ZM45.7194 37.0232L45.6759 36.9673L45.7479 37.0881L45.7194 37.0232ZM50.8594 35.2332L50.8554 35.304L50.8556 35.304L50.8594 35.2332ZM54.7894 37.3032L54.7393 37.3533L54.8465 37.2612L54.7894 37.3032ZM54.6494 37.1933L54.6101 37.2524L54.613 37.2541L54.6494 37.1933ZM54.6477 37.1922L54.6084 37.2511L54.6084 37.2511L54.6477 37.1922ZM54.4694 37.0832L54.4299 37.1427L54.4377 37.1466L54.4694 37.0832ZM51.9676 36.1922L51.9774 36.1221L51.9165 36.2413L51.9676 36.1922ZM62.7494 46.8031L62.8075 46.8438L62.8077 46.8435L62.7494 46.8031ZM61.4494 46.9731L61.4598 46.903L61.4183 47.0368L61.4494 46.9731ZM62.2794 43.7831L62.3272 43.7309L62.2144 43.8112L62.2794 43.7831ZM60.2094 45.9029L60.2394 45.8387L60.2378 45.838L60.2094 45.9029ZM59.7694 45.7929L59.7773 45.7224L59.7741 45.7222L59.7694 45.7929ZM60.8894 46.4629L60.857 46.5259L60.9486 46.424L60.8894 46.4629ZM59.7494 46.1429L59.7572 46.2133L59.7578 46.2133L59.7494 46.1429ZM59.5451 46.2L59.5676 46.2672L59.5694 46.2666L59.5451 46.2ZM59.5451 46.2L59.5227 46.1328L59.5209 46.1334L59.5451 46.2ZM59.2194 46.2429L59.243 46.1761L59.2418 46.1757L59.2194 46.2429ZM59.1294 46.1729L59.1933 46.141L59.1884 46.1336L59.1294 46.1729ZM59.1494 45.9629L59.0905 45.9236L59.0905 45.9236L59.1494 45.9629ZM59.3194 45.8529L59.3418 45.9202L59.3433 45.9196L59.3194 45.8529ZM54.1193 46.8031L54.0611 46.8435L54.0613 46.8438L54.1193 46.8031ZM55.4193 46.9731L55.4504 47.0368L55.4089 46.903L55.4193 46.9731ZM54.5893 43.7831L54.6543 43.8112L54.5415 43.7309L54.5893 43.7831ZM56.6594 45.9029L56.631 45.838L56.6289 45.839L56.6594 45.9029ZM57.0994 45.7929L57.0947 45.7222L57.0916 45.7225L57.0994 45.7929ZM55.9794 46.4629L55.921 46.4229L56.0118 46.5259L55.9794 46.4629ZM57.1194 46.1429L57.111 46.2133L57.1116 46.2133L57.1194 46.1429ZM57.3237 46.2L57.3479 46.1334L57.3479 46.1334L57.3237 46.2ZM57.6494 46.2429L57.627 46.1757L57.6258 46.1761L57.6494 46.2429ZM57.7394 46.1729L57.68 46.1333L57.676 46.1412L57.7394 46.1729ZM57.7194 45.9629L57.7784 45.9236L57.7784 45.9236L57.7194 45.9629ZM57.5494 45.8529L57.5256 45.9197L57.527 45.9201L57.5494 45.8529ZM54.4401 32.7384C54.4712 32.2945 54.354 32.0313 54.1413 31.8727C53.9375 31.7207 53.6571 31.6754 53.3961 31.6318L53.3727 31.7716C53.6436 31.8168 53.8858 31.8589 54.0565 31.9862C54.2183 32.1069 54.3277 32.3152 54.2987 32.7285L54.4401 32.7384ZM53.9451 33.5125C54.0183 33.4959 54.0841 33.4496 54.1398 33.3938C54.1961 33.3372 54.2469 33.2661 54.2897 33.191C54.3744 33.0425 54.4346 32.8664 54.4402 32.7365L54.2986 32.7303C54.2943 32.8304 54.2445 32.9843 54.1666 33.1208C54.1282 33.1883 54.0846 33.2484 54.0394 33.2937C53.9935 33.3397 53.9505 33.366 53.9137 33.3743L53.9451 33.5125ZM53.3097 33.4124C53.4146 33.4445 53.5319 33.4805 53.6412 33.503C53.7481 33.525 53.8597 33.537 53.9489 33.5115L53.91 33.3753C53.8562 33.3907 53.7739 33.3856 53.6698 33.3642C53.5682 33.3433 53.4575 33.3094 53.3512 33.2769L53.3097 33.4124ZM53.0567 33.3431C53.122 33.355 53.209 33.3815 53.3097 33.4124L53.3512 33.2769C53.2537 33.247 53.1574 33.2174 53.0821 33.2037L53.0567 33.3431ZM51.7595 33.0114C52.1696 33.1314 52.5923 33.2523 53.0558 33.343L53.083 33.2039C52.6265 33.1146 52.2092 32.9954 51.7993 32.8754L51.7595 33.0114ZM51.35 32.8915C51.4901 32.9316 51.6294 32.9714 51.7586 33.0111L51.8003 32.8757C51.6694 32.8355 51.5287 32.7953 51.3889 32.7553L51.35 32.8915ZM50.546 32.9006C50.8011 32.8994 51.0725 32.8982 51.3703 32.8943L51.3685 32.7526C51.0713 32.7565 50.8005 32.7577 50.5454 32.7589L50.546 32.9006ZM50.5457 32.9006H50.5457V32.7589H50.5457V32.9006ZM50.5457 32.9006H50.5457V32.7589H50.5457V32.9006ZM47.4598 33.0935C48.7111 32.909 49.4899 32.9054 50.546 32.9006L50.5454 32.7589C49.4881 32.7637 48.7009 32.7673 47.4391 32.9533L47.4598 33.0935ZM47.0633 33.2856C47.1706 33.2271 47.3183 33.1581 47.4778 33.0883L47.421 32.9585C47.2605 33.0287 47.1082 33.0997 46.9955 33.1612L47.0633 33.2856ZM46.4641 33.4326C46.5567 33.4532 46.6252 33.4638 46.7156 33.4408C46.7989 33.4197 46.8994 33.3701 47.0619 33.2864L46.997 33.1604C46.8295 33.2467 46.7449 33.2872 46.6807 33.3035C46.6236 33.318 46.5821 33.3137 46.4948 33.2943L46.4641 33.4326ZM45.9931 33.1283C46.0313 33.2302 46.1099 33.2964 46.1953 33.3412C46.2799 33.3856 46.3773 33.4122 46.4632 33.4324L46.4956 33.2945C46.4115 33.2747 46.3289 33.2513 46.2611 33.2157C46.1939 33.1805 46.1475 33.1366 46.1258 33.0785L45.9931 33.1283ZM46.0761 32.8217C46.0452 32.8834 46.021 32.9394 46.0058 32.9866C45.9981 33.0102 45.9923 33.033 45.9892 33.0541C45.9862 33.0742 45.985 33.0978 45.9907 33.1206L46.1282 33.0862C46.1289 33.0891 46.1276 33.0864 46.1294 33.0747C46.1309 33.0639 46.1345 33.0492 46.1406 33.0302C46.1528 32.9924 46.1736 32.9434 46.2028 32.8851L46.0761 32.8217ZM46.4876 32.3051C46.3453 32.4576 46.213 32.6204 46.0809 32.8134L46.1979 32.8934C46.3258 32.7065 46.4536 32.5492 46.5912 32.4018L46.4876 32.3051ZM52.1696 31.4133C49.9582 31.0931 48.2618 30.9781 46.497 32.2967L46.5818 32.4102C48.297 31.1287 49.9407 31.2337 52.1493 31.5535L52.1696 31.4133ZM52.3986 31.4503C52.3238 31.4388 52.2488 31.4272 52.1717 31.4137L52.1471 31.5532C52.2259 31.5671 52.3025 31.5789 52.3771 31.5903L52.3986 31.4503ZM52.6625 31.4938C52.5745 31.4773 52.4867 31.4638 52.3986 31.4503L52.3771 31.5903C52.4655 31.6039 52.551 31.6171 52.6364 31.6331L52.6625 31.4938ZM52.6627 31.4938L52.6627 31.4938L52.6362 31.633L52.6362 31.633L52.6627 31.4938ZM52.6634 31.494L52.6633 31.494L52.6356 31.6329L52.6356 31.6329L52.6634 31.494ZM52.6634 31.494L52.6634 31.494L52.6356 31.6329L52.6356 31.6329L52.6634 31.494ZM52.6634 31.494L52.6634 31.494L52.6356 31.6329L52.6356 31.6329L52.6634 31.494ZM52.6634 31.494L52.6634 31.494L52.6356 31.6329L52.6356 31.6329L52.6634 31.494ZM53.1333 31.5839C52.9828 31.5539 52.8224 31.5238 52.6625 31.4938L52.6364 31.6331C52.7965 31.6631 52.956 31.693 53.1055 31.7229L53.1333 31.5839ZM53.3961 31.6318C53.3071 31.617 53.2195 31.6023 53.1342 31.5841L53.1047 31.7227C53.1936 31.7417 53.2843 31.7568 53.3727 31.7716L53.3961 31.6318ZM63.4727 31.7119C63.2116 31.7555 62.9312 31.8008 62.7275 31.9528C62.5148 32.1114 62.3976 32.3746 62.4286 32.8185L62.57 32.8086C62.5411 32.3953 62.6504 32.187 62.8122 32.0664C62.983 31.939 63.2251 31.8969 63.496 31.8517L63.4727 31.7119ZM63.7345 31.6642C63.6492 31.6824 63.5616 31.6971 63.4727 31.7119L63.496 31.8517C63.5844 31.8369 63.6751 31.8218 63.7641 31.8028L63.7345 31.6642ZM64.2063 31.5739C64.0463 31.6039 63.8859 31.634 63.7354 31.6641L63.7632 31.803C63.9127 31.7731 64.0723 31.7432 64.2324 31.7132L64.2063 31.5739ZM64.4701 31.5304C64.3821 31.5439 64.2943 31.5574 64.2063 31.5739L64.2324 31.7132C64.3177 31.6972 64.4032 31.684 64.4916 31.6704L64.4701 31.5304ZM64.697 31.4938C64.62 31.5074 64.5449 31.5189 64.4701 31.5304L64.4916 31.6704C64.5662 31.659 64.6428 31.6472 64.7216 31.6333L64.697 31.4938ZM70.3717 32.3768C68.6069 31.0582 66.9106 31.1732 64.6992 31.4934L64.7195 31.6337C66.9281 31.3139 68.5717 31.2088 70.2869 32.4903L70.3717 32.3768ZM70.7878 32.8935C70.6557 32.7005 70.5235 32.5377 70.3811 32.3852L70.2775 32.4819C70.4152 32.6293 70.5429 32.7866 70.6708 32.9735L70.7878 32.8935ZM70.8781 33.2007C70.8838 33.1779 70.8825 33.1543 70.8796 33.1342C70.8765 33.1131 70.8706 33.0903 70.863 33.0667C70.8477 33.0196 70.8235 32.9635 70.7927 32.9018L70.6659 32.9652C70.6951 33.0235 70.7159 33.0725 70.7282 33.1103C70.7343 33.1293 70.7378 33.144 70.7394 33.1548C70.7411 33.1665 70.7399 33.1692 70.7406 33.1663L70.8781 33.2007ZM70.4055 33.5125C70.4914 33.4923 70.5888 33.4657 70.6735 33.4213C70.7588 33.3765 70.8374 33.3103 70.8757 33.2084L70.743 33.1587C70.7212 33.2167 70.6748 33.2606 70.6077 33.2958C70.5398 33.3314 70.4572 33.3548 70.3731 33.3746L70.4055 33.5125ZM69.8161 33.3661C69.9736 33.4498 70.0717 33.4996 70.1541 33.5209C70.2435 33.544 70.3122 33.5332 70.4047 33.5127L70.374 33.3744C70.2864 33.3938 70.2452 33.3981 70.1896 33.3837C70.1269 33.3675 70.0451 33.3273 69.8826 33.241L69.8161 33.3661ZM69.4009 33.1684C69.5604 33.2382 69.7081 33.3072 69.8154 33.3657L69.8832 33.2413C69.7705 33.1798 69.6182 33.1089 69.4577 33.0386L69.4009 33.1684ZM66.3327 32.9807C67.3888 32.9855 68.1676 32.9891 69.419 33.1736L69.4397 33.0334C68.1778 32.8474 67.3907 32.8438 66.3334 32.839L66.3327 32.9807ZM65.5084 32.9744C65.8063 32.9783 66.0776 32.9795 66.3327 32.9807L66.3334 32.839C66.0782 32.8378 65.8074 32.8366 65.5102 32.8327L65.5084 32.9744ZM65.1088 33.0917L65.5288 32.9717L65.4899 32.8354L65.0699 32.9554L65.1088 33.0917ZM63.8129 33.4231C64.2764 33.3324 64.6991 33.2116 65.1092 33.0915L65.0694 32.9555C64.6595 33.0755 64.2422 33.1947 63.7857 33.284L63.8129 33.4231ZM63.559 33.4925C63.6597 33.4616 63.7468 33.4351 63.812 33.4232L63.7866 33.2838C63.7113 33.2975 63.615 33.3271 63.5175 33.357L63.559 33.4925ZM62.9199 33.5917C63.009 33.6171 63.1206 33.6051 63.2275 33.5831C63.3368 33.5606 63.4542 33.5246 63.559 33.4925L63.5175 33.357C63.4112 33.3895 63.3005 33.4234 63.1989 33.4443C63.0949 33.4657 63.0126 33.4708 62.9588 33.4554L62.9199 33.5917ZM62.4288 32.8199C62.4399 32.9425 62.4992 33.1171 62.5824 33.2667C62.6244 33.3422 62.6741 33.4143 62.7296 33.4717C62.7844 33.5284 62.8498 33.5758 62.9236 33.5926L62.955 33.4544C62.9189 33.4462 62.8767 33.4199 62.8315 33.3732C62.787 33.3272 62.7442 33.2661 62.7062 33.1978C62.6295 33.0599 62.5787 32.9045 62.5699 32.8071L62.4288 32.8199ZM62.1929 37.2126C62.1375 37.2458 62.0829 37.2895 62.0392 37.3332L62.1394 37.4334C62.1757 37.3972 62.2212 37.3609 62.2658 37.3341L62.1929 37.2126ZM62.3814 37.0982C62.304 37.1314 62.2385 37.1752 62.185 37.218L62.2736 37.3287C62.3201 37.2915 62.3746 37.2553 62.4372 37.2285L62.3814 37.0982ZM64.8787 36.2054C63.9038 36.3442 63.0669 36.6418 62.3701 37.1043L62.4485 37.2224C63.1246 36.7736 63.9406 36.4821 64.8987 36.3456L64.8787 36.2054ZM64.4802 37.5037C64.4802 37.0408 64.6306 36.652 64.9402 36.3241L64.8372 36.2269C64.5017 36.582 64.3385 37.0061 64.3385 37.5037H64.4802ZM64.9794 38.7236C64.6431 38.3873 64.4802 37.9855 64.4802 37.5037H64.3385C64.3385 38.022 64.5156 38.4602 64.8792 38.8238L64.9794 38.7236ZM66.1993 39.2229C65.7176 39.2229 65.3158 39.06 64.9794 38.7236L64.8792 38.8238C65.2429 39.1875 65.681 39.3646 66.1993 39.3646V39.2229ZM67.4192 38.7236C67.0829 39.06 66.681 39.2229 66.1993 39.2229V39.3646C66.7176 39.3646 67.1558 39.1875 67.5194 38.8238L67.4192 38.7236ZM67.9185 37.5037C67.9185 37.9855 67.7556 38.3873 67.4192 38.7236L67.5194 38.8238C67.8831 38.4602 68.0602 38.022 68.0602 37.5037H67.9185ZM67.4244 36.2892C67.7481 36.6252 67.9185 37.0355 67.9185 37.5037H68.0602C68.0602 36.9979 67.8749 36.5526 67.5264 36.1909L67.4244 36.2892ZM71.1878 37.0385C70.1337 36.5761 68.8952 36.2843 67.4812 36.1694L67.4697 36.3107C68.8714 36.4246 70.0939 36.7134 71.1309 37.1682L71.1878 37.0385ZM66.0233 35.3841C67.763 35.2852 69.4666 35.8776 71.1158 37.1593L71.2028 37.0474C69.532 35.749 67.7956 35.1415 66.0153 35.2426L66.0233 35.3841ZM62.1464 37.4254C63.0832 36.1533 64.3732 35.473 66.0231 35.3841L66.0155 35.2426C64.3254 35.3337 62.9954 36.0334 62.0323 37.3413L62.1464 37.4254ZM48.8085 37.4334C48.8085 37.9517 48.9856 38.3899 49.3492 38.7535L49.4494 38.6533C49.1131 38.317 48.9502 37.9151 48.9502 37.4334H48.8085ZM49.3492 36.1133C48.9958 36.4668 48.8085 36.9148 48.8085 37.4334H48.9502C48.9502 36.952 49.1229 36.5401 49.4494 36.2135L49.3492 36.1133ZM49.3527 36.1098L49.3493 36.1133L49.4494 36.2136L49.4528 36.2101L49.3527 36.1098ZM45.7479 37.0881C46.7847 36.6334 48.007 36.3445 49.4085 36.2306L49.397 36.0894C47.9832 36.2043 46.7449 36.4961 45.691 36.9584L45.7479 37.0881ZM50.8634 35.1625C49.0831 35.0613 47.3467 35.6689 45.6759 36.9673L45.7629 37.0792C47.4121 35.7975 49.1157 35.2051 50.8554 35.304L50.8634 35.1625ZM54.8465 37.2612C53.8833 35.9533 52.5533 35.2536 50.8632 35.1625L50.8556 35.304C52.5055 35.3929 53.7956 36.0731 54.7324 37.3452L54.8465 37.2612ZM54.613 37.2541C54.6576 37.2809 54.7031 37.3171 54.7393 37.3533L54.8395 37.2531C54.7957 37.2094 54.7412 37.1658 54.6859 37.1326L54.613 37.2541ZM54.6084 37.2511L54.6101 37.2523L54.6887 37.1344L54.6869 37.1332L54.6084 37.2511ZM54.4377 37.1466C54.4925 37.174 54.5481 37.211 54.6084 37.2511L54.687 37.1332C54.6284 37.0941 54.5652 37.0519 54.5011 37.0199L54.4377 37.1466ZM51.9578 36.2624C52.9255 36.3975 53.7489 36.69 54.4302 37.1423L54.5086 37.0242C53.8065 36.5581 52.962 36.2595 51.9774 36.1221L51.9578 36.2624ZM52.5302 37.4334C52.5302 36.9294 52.3627 36.501 52.0186 36.1431L51.9165 36.2413C52.2342 36.5718 52.3885 36.9647 52.3885 37.4334H52.5302ZM51.9894 38.7535C52.3531 38.3899 52.5302 37.9517 52.5302 37.4334H52.3885C52.3885 37.9151 52.2256 38.317 51.8892 38.6533L51.9894 38.7535ZM50.6693 39.2943C51.1876 39.2943 51.6258 39.1172 51.9894 38.7535L51.8892 38.6533C51.5529 38.9897 51.1511 39.1526 50.6693 39.1526V39.2943ZM49.3492 38.7535C49.7129 39.1172 50.1511 39.2943 50.6693 39.2943V39.1526C50.1876 39.1526 49.7858 38.9897 49.4494 38.6533L49.3492 38.7535ZM62.6914 46.7625C62.5031 47.0315 62.2111 47.0739 61.9503 47.0428C61.8206 47.0273 61.7026 46.9938 61.6167 46.964C61.5739 46.9491 61.5394 46.9353 61.5158 46.9252C61.504 46.9202 61.4949 46.9162 61.4889 46.9134C61.4859 46.912 61.4837 46.911 61.4823 46.9103C61.4816 46.91 61.4811 46.9097 61.4808 46.9096C61.4806 46.9095 61.4805 46.9095 61.4805 46.9095C61.4805 46.9094 61.4805 46.9094 61.4805 46.9094C61.4805 46.9094 61.4805 46.9095 61.4805 46.9095C61.4805 46.9095 61.4805 46.9095 61.4494 46.9731C61.4183 47.0368 61.4183 47.0368 61.4184 47.0368C61.4184 47.0368 61.4184 47.0368 61.4184 47.0368C61.4185 47.0369 61.4186 47.0369 61.4187 47.037C61.4188 47.037 61.419 47.0371 61.4193 47.0373C61.4199 47.0375 61.4206 47.0379 61.4216 47.0384C61.4235 47.0393 61.4263 47.0406 61.4299 47.0422C61.437 47.0455 61.4472 47.0501 61.4603 47.0556C61.4865 47.0667 61.524 47.0818 61.5702 47.0979C61.6625 47.1299 61.7907 47.1664 61.9335 47.1835C62.2177 47.2174 62.5757 47.1748 62.8075 46.8438L62.6914 46.7625ZM62.2316 43.8354C62.3399 43.9345 62.4627 44.1114 62.5763 44.34C62.6892 44.5673 62.7904 44.8409 62.8579 45.1293C62.9938 45.7099 62.989 46.3326 62.6912 46.7628L62.8077 46.8435C63.1398 46.3637 63.135 45.6913 62.9959 45.097C62.9259 44.7979 62.8209 44.514 62.7032 44.2769C62.5861 44.0411 62.4539 43.8468 62.3272 43.7309L62.2316 43.8354ZM61.4494 46.9731C61.439 47.0432 61.4391 47.0432 61.4391 47.0432C61.4392 47.0432 61.4393 47.0432 61.4393 47.0433C61.4395 47.0433 61.4396 47.0433 61.4398 47.0433C61.4402 47.0434 61.4408 47.0435 61.4415 47.0436C61.4429 47.0437 61.4448 47.044 61.4473 47.0443C61.4523 47.0449 61.4594 47.0458 61.4685 47.0467C61.4866 47.0485 61.5125 47.0506 61.5448 47.052C61.6092 47.0548 61.6992 47.0546 61.8023 47.0429C62.0074 47.0195 62.2708 46.9494 62.4853 46.7585C62.922 46.3697 63.1108 45.5282 62.3445 43.755L62.2144 43.8112C62.978 45.578 62.7518 46.3315 62.3911 46.6527C62.2067 46.8168 61.9758 46.8805 61.7862 46.9021C61.692 46.9129 61.6096 46.913 61.5509 46.9105C61.5216 46.9092 61.4983 46.9073 61.4826 46.9057C61.4748 46.9049 61.4688 46.9042 61.465 46.9037C61.463 46.9035 61.4616 46.9033 61.4607 46.9032C61.4603 46.9031 61.46 46.9031 61.4599 46.903C61.4598 46.903 61.4597 46.903 61.4597 46.903C61.4597 46.903 61.4597 46.903 61.4597 46.903C61.4598 46.903 61.4598 46.903 61.4494 46.9731ZM60.2378 45.838C60.0681 45.7637 59.8697 45.7328 59.7772 45.7225L59.7616 45.8633C59.8491 45.8731 60.0308 45.9021 60.181 45.9678L60.2378 45.838ZM60.8894 46.4629C60.9486 46.424 60.9486 46.424 60.9486 46.424C60.9486 46.424 60.9486 46.4239 60.9486 46.4239C60.9486 46.4239 60.9485 46.4238 60.9485 46.4238C60.9484 46.4237 60.9484 46.4236 60.9483 46.4235C60.9481 46.4232 60.9479 46.4229 60.9476 46.4224C60.947 46.4216 60.9462 46.4204 60.9451 46.4189C60.9431 46.4158 60.9401 46.4116 60.9362 46.4061C60.9284 46.3953 60.917 46.3799 60.902 46.361C60.8719 46.323 60.8273 46.2706 60.7683 46.2116C60.6503 46.0936 60.4737 45.9481 60.2394 45.8387L60.1795 45.9671C60.3951 46.0678 60.5585 46.2022 60.6681 46.3118C60.7228 46.3665 60.7638 46.4147 60.7909 46.4489C60.8045 46.4661 60.8146 46.4797 60.8211 46.4888C60.8244 46.4934 60.8268 46.4968 60.8283 46.499C60.8291 46.5001 60.8296 46.5009 60.8299 46.5014C60.8301 46.5016 60.8302 46.5018 60.8302 46.5019C60.8303 46.5019 60.8303 46.5019 60.8303 46.5019C60.8303 46.5019 60.8303 46.5019 60.8303 46.5019C60.8302 46.5019 60.8302 46.5019 60.8302 46.5019C60.8302 46.5018 60.8302 46.5018 60.8894 46.4629ZM59.7578 46.2133C59.9492 46.1905 60.2198 46.2643 60.4523 46.3506C60.5665 46.393 60.6679 46.4369 60.7409 46.4703C60.7773 46.487 60.8065 46.501 60.8266 46.5108C60.8366 46.5157 60.8443 46.5195 60.8495 46.5221C60.852 46.5234 60.854 46.5244 60.8553 46.525C60.8559 46.5254 60.8564 46.5256 60.8567 46.5257C60.8568 46.5258 60.8569 46.5259 60.857 46.5259C60.857 46.5259 60.857 46.5259 60.857 46.5259C60.857 46.5259 60.857 46.5259 60.8571 46.5259C60.857 46.5259 60.857 46.5259 60.8894 46.4629C60.9218 46.3999 60.9218 46.3999 60.9218 46.3999C60.9218 46.3999 60.9218 46.3999 60.9217 46.3999C60.9217 46.3999 60.9217 46.3998 60.9216 46.3998C60.9215 46.3997 60.9213 46.3997 60.9211 46.3996C60.9207 46.3994 60.9202 46.3991 60.9194 46.3987C60.918 46.3979 60.9158 46.3969 60.913 46.3955C60.9074 46.3927 60.8993 46.3886 60.8888 46.3835C60.8678 46.3732 60.8375 46.3587 60.7999 46.3415C60.7247 46.307 60.6199 46.2616 60.5016 46.2177C60.2691 46.1315 59.9697 46.0453 59.741 46.0726L59.7578 46.2133ZM59.5694 46.2666C59.6388 46.2413 59.6989 46.2198 59.7572 46.2133L59.7416 46.0725C59.6634 46.0812 59.5869 46.1094 59.5209 46.1334L59.5694 46.2666ZM59.5675 46.2672L59.5676 46.2672L59.5227 46.1328L59.5227 46.1328L59.5675 46.2672ZM59.1958 46.3097C59.3297 46.357 59.4647 46.3047 59.5694 46.2666L59.5209 46.1334C59.404 46.176 59.3202 46.2034 59.243 46.1761L59.1958 46.3097ZM59.0661 46.2046C59.0988 46.27 59.1611 46.2982 59.197 46.3101L59.2418 46.1757C59.2177 46.1677 59.2001 46.1558 59.1928 46.1412L59.0661 46.2046ZM59.0905 45.9236C59.0649 45.9619 59.0457 46.0096 59.0392 46.0586C59.0327 46.1073 59.0381 46.1637 59.0705 46.2122L59.1884 46.1336C59.1807 46.1221 59.1762 46.1035 59.1797 46.0773C59.1831 46.0513 59.1939 46.0239 59.2084 46.0022L59.0905 45.9236ZM59.297 45.7857C59.2359 45.8061 59.1448 45.8421 59.0905 45.9236L59.2084 46.0022C59.234 45.9638 59.2829 45.9398 59.3418 45.9201L59.297 45.7857ZM59.7741 45.7222C59.6152 45.7116 59.4454 45.7327 59.2956 45.7862L59.3433 45.9196C59.4734 45.8732 59.6236 45.8542 59.7647 45.8636L59.7741 45.7222ZM54.0613 46.8438C54.293 47.1748 54.651 47.2174 54.9352 47.1835C55.078 47.1664 55.2063 47.1299 55.2985 47.0979C55.3447 47.0818 55.3823 47.0667 55.4084 47.0556C55.4215 47.0501 55.4318 47.0455 55.4389 47.0422C55.4424 47.0406 55.4452 47.0393 55.4471 47.0384C55.4481 47.0379 55.4489 47.0375 55.4494 47.0373C55.4497 47.0371 55.4499 47.037 55.4501 47.037C55.4502 47.0369 55.4502 47.0369 55.4503 47.0368C55.4503 47.0368 55.4503 47.0368 55.4504 47.0368C55.4504 47.0368 55.4504 47.0368 55.4193 46.9731C55.3882 46.9095 55.3882 46.9095 55.3882 46.9095C55.3882 46.9095 55.3883 46.9094 55.3883 46.9094C55.3883 46.9094 55.3883 46.9094 55.3882 46.9095C55.3882 46.9095 55.3881 46.9095 55.3879 46.9096C55.3876 46.9097 55.3871 46.91 55.3864 46.9103C55.385 46.911 55.3828 46.912 55.3798 46.9134C55.3738 46.9162 55.3647 46.9202 55.3529 46.9252C55.3293 46.9353 55.2948 46.9491 55.252 46.964C55.1661 46.9938 55.0481 47.0273 54.9184 47.0428C54.6576 47.0739 54.3656 47.0315 54.1774 46.7625L54.0613 46.8438ZM54.5415 43.7309C54.4148 43.8468 54.2826 44.0411 54.1655 44.2769C54.0478 44.514 53.9428 44.7979 53.8728 45.097C53.7337 45.6913 53.7289 46.3637 54.0611 46.8435L54.1776 46.7628C53.8797 46.3326 53.8749 45.7099 54.0108 45.1293C54.0783 44.8409 54.1796 44.5673 54.2925 44.34C54.406 44.1114 54.5288 43.9345 54.6371 43.8354L54.5415 43.7309ZM55.4193 46.9731C55.4089 46.903 55.409 46.903 55.409 46.903C55.409 46.903 55.409 46.903 55.409 46.903C55.409 46.903 55.409 46.903 55.4089 46.903C55.4087 46.9031 55.4084 46.9031 55.408 46.9032C55.4071 46.9033 55.4057 46.9035 55.4038 46.9037C55.3999 46.9042 55.394 46.9049 55.3861 46.9057C55.3704 46.9073 55.3471 46.9092 55.3178 46.9105C55.2592 46.913 55.1767 46.9129 55.0825 46.9021C54.893 46.8805 54.662 46.8168 54.4777 46.6527C54.1169 46.3315 53.8907 45.578 54.6543 43.8112L54.5243 43.755C53.7579 45.5282 53.9467 46.3697 54.3835 46.7585C54.5979 46.9494 54.8613 47.0195 55.0664 47.0429C55.1695 47.0546 55.2596 47.0548 55.324 47.052C55.3562 47.0506 55.3822 47.0485 55.4003 47.0467C55.4093 47.0458 55.4164 47.0449 55.4214 47.0443C55.4239 47.044 55.4258 47.0437 55.4272 47.0436C55.4279 47.0435 55.4285 47.0434 55.4289 47.0433C55.4291 47.0433 55.4293 47.0433 55.4294 47.0433C55.4295 47.0432 55.4296 47.0432 55.4296 47.0432C55.4297 47.0432 55.4297 47.0432 55.4193 46.9731ZM56.6878 45.9678C56.8381 45.9021 57.0197 45.8731 57.1072 45.8633L57.0916 45.7225C56.9991 45.7328 56.8008 45.7637 56.631 45.838L56.6878 45.9678ZM55.9794 46.4629C56.0378 46.503 56.0378 46.503 56.0378 46.503C56.0378 46.503 56.0378 46.503 56.0378 46.503C56.0378 46.5031 56.0378 46.5031 56.0378 46.5031C56.0378 46.5031 56.0378 46.503 56.0378 46.503C56.0379 46.5029 56.038 46.5028 56.0382 46.5025C56.0385 46.502 56.0391 46.5012 56.0399 46.5001C56.0415 46.4978 56.044 46.4944 56.0474 46.4898C56.0543 46.4805 56.0647 46.4669 56.0787 46.4497C56.1067 46.4153 56.1488 46.3669 56.2042 46.312C56.3153 46.2022 56.479 46.0675 56.6899 45.9669L56.6289 45.839C56.3998 45.9483 56.2235 46.0937 56.1046 46.2113C56.045 46.2702 55.9996 46.3225 55.9688 46.3602C55.9535 46.3791 55.9417 46.3944 55.9337 46.4052C55.9297 46.4106 55.9267 46.4148 55.9245 46.4178C55.9235 46.4193 55.9226 46.4205 55.9221 46.4213C55.9218 46.4217 55.9215 46.4221 55.9213 46.4223C55.9213 46.4225 55.9212 46.4226 55.9211 46.4227C55.9211 46.4227 55.9211 46.4227 55.921 46.4228C55.921 46.4228 55.921 46.4228 55.921 46.4228C55.921 46.4228 55.921 46.4229 55.9794 46.4629ZM57.1278 46.0726C56.8992 46.0453 56.5997 46.1315 56.3673 46.2177C56.249 46.2616 56.1442 46.307 56.069 46.3415C56.0314 46.3587 56.0011 46.3732 55.9801 46.3835C55.9696 46.3886 55.9614 46.3927 55.9558 46.3955C55.953 46.3969 55.9509 46.3979 55.9494 46.3987C55.9487 46.3991 55.9481 46.3994 55.9477 46.3996C55.9475 46.3997 55.9473 46.3997 55.9472 46.3998C55.9472 46.3998 55.9471 46.3999 55.9471 46.3999C55.9471 46.3999 55.9471 46.3999 55.9471 46.3999C55.947 46.3999 55.947 46.3999 55.9794 46.4629C56.0118 46.5259 56.0118 46.5259 56.0118 46.5259C56.0118 46.5259 56.0118 46.5259 56.0118 46.5259C56.0118 46.5259 56.0118 46.5259 56.0119 46.5259C56.0119 46.5259 56.012 46.5258 56.0122 46.5257C56.0125 46.5256 56.0129 46.5254 56.0136 46.525C56.0149 46.5244 56.0168 46.5234 56.0194 46.5221C56.0245 46.5195 56.0323 46.5157 56.0423 46.5108C56.0623 46.501 56.0915 46.487 56.128 46.4703C56.2009 46.4369 56.3024 46.393 56.4166 46.3506C56.6491 46.2643 56.9197 46.1905 57.111 46.2133L57.1278 46.0726ZM57.3479 46.1334C57.2819 46.1094 57.2055 46.0812 57.1272 46.0725L57.1116 46.2133C57.1699 46.2198 57.23 46.2413 57.2995 46.2666L57.3479 46.1334ZM57.6258 46.1761C57.5486 46.2034 57.4649 46.176 57.3479 46.1334L57.2995 46.2666C57.4042 46.3047 57.5392 46.357 57.673 46.3097L57.6258 46.1761ZM57.676 46.1412C57.6688 46.1558 57.6511 46.1677 57.627 46.1757L57.6718 46.3101C57.7077 46.2982 57.7701 46.27 57.8028 46.2046L57.676 46.1412ZM57.6605 46.0022C57.6749 46.0239 57.6857 46.0513 57.6892 46.0773C57.6927 46.1035 57.6881 46.1221 57.6805 46.1336L57.7984 46.2122C57.8307 46.1637 57.8361 46.1073 57.8296 46.0586C57.8231 46.0096 57.8039 45.9619 57.7784 45.9236L57.6605 46.0022ZM57.527 45.9201C57.5859 45.9398 57.6348 45.9638 57.6605 46.0022L57.7784 45.9236C57.724 45.8421 57.6329 45.8061 57.5718 45.7857L57.527 45.9201ZM57.1041 45.8636C57.2452 45.8542 57.3954 45.8732 57.5256 45.9196L57.5732 45.7862C57.4234 45.7327 57.2536 45.7116 57.0947 45.7222L57.1041 45.8636Z" fill="#502110"/>
<path d="M63.8393 51.4132C63.3993 51.5132 61.1893 51.3732 60.8093 51.1732C60.2793 50.9032 59.8793 49.3032 59.1193 49.3932C59.0193 49.4032 58.7293 49.4132 58.3693 49.4132C58.0093 49.4132 57.7193 49.4032 57.6193 49.3932C56.8493 49.3132 56.4493 50.9032 55.9293 51.1732C55.5493 51.3732 53.3393 51.5132 52.8993 51.4132C51.7693 51.1532 52.6693 51.7632 52.8693 51.8532C52.8693 51.8532 52.8694 51.8532 52.8794 51.8532C52.8894 51.8632 52.8994 51.8632 52.9094 51.8732C53.5294 52.2732 55.1094 53.4732 55.5694 53.7532C56.0394 54.0432 56.4694 54.2832 57.2194 54.4932C57.2894 54.5132 57.4093 54.4932 57.5593 54.4932C57.8993 54.4132 58.1593 54.2532 58.3693 54.0532C58.5893 54.2532 58.8493 54.4132 59.1793 54.4932C59.3293 54.4932 59.4494 54.5132 59.5194 54.4932C60.2694 54.2832 60.6994 54.0432 61.1694 53.7532C61.6194 53.4632 63.2094 52.2732 63.8294 51.8732C63.8394 51.8632 63.8494 51.8632 63.8594 51.8532C63.8594 51.8532 63.8593 51.8532 63.8693 51.8532C64.0693 51.7632 64.9693 51.1432 63.8393 51.4132Z" fill="#773017"/>
<path fill-rule="evenodd" clip-rule="evenodd" d="M75.6295 37.4532C75.9895 36.9932 76.3295 36.8032 76.6695 36.8932C77.2595 37.0532 77.6795 37.6132 77.9395 38.5532C78.2395 39.5832 77.3095 40.8732 77.1495 42.4432C76.9295 44.5532 77.3795 46.1832 76.5095 47.3532C75.7095 48.4632 74.7995 48.8932 73.7695 48.6532L73.4395 48.5632L73.8195 46.0432C74.5495 41.4132 75.0995 38.6432 75.4695 37.7332L75.6295 37.4532Z" fill="url(#paint6_linear_234_1019)"/>
<path d="M62.7094 51.013C62.1294 50.853 59.8894 49.293 59.1194 49.383C59.0194 49.393 58.7294 49.403 58.3694 49.403C58.0094 49.403 57.7194 49.393 57.6194 49.383C56.8494 49.303 54.6094 50.853 54.0294 51.013C53.2294 51.233 52.3394 51.533 52.3394 51.533C53.4594 51.843 54.9694 51.493 55.7194 51.693C55.7894 51.713 57.7294 51.843 58.3694 51.523C59.0094 51.843 60.9494 51.713 61.0194 51.693C61.7694 51.483 63.2894 51.843 64.3994 51.533C64.3994 51.533 63.4994 51.243 62.7094 51.013Z" fill="#6A2910"/>
<path d="M71.5794 15.2631C71.1794 15.0431 70.6894 14.8531 70.1294 14.6831C63.2394 13.0631 50.0494 13.0631 45.3594 15.4131C45.0194 15.6231 44.7394 15.8431 44.5194 16.0731C43.6294 16.9931 43.7194 18.2631 44.9494 19.2931C45.0394 19.5431 45.2194 19.7831 45.4594 20.0131C46.2194 20.7431 47.6494 21.3631 49.2894 21.7731C49.4094 21.8031 49.5294 21.8331 49.6494 21.8531C51.2994 21.6031 52.2994 21.6031 53.2794 22.1831C53.4194 22.1931 53.5494 22.1931 53.6894 22.1931C53.8294 22.1931 53.9694 22.2031 54.1094 22.2031C55.2994 22.6131 57.2994 22.6131 58.1494 22.1631C58.3194 22.1731 58.4894 22.1831 58.6594 22.1931C59.0194 22.2131 59.3694 22.2231 59.7094 22.2331C59.8794 22.2331 60.0494 22.2431 60.2194 22.2431C61.2894 22.6031 62.2894 22.6031 63.6094 22.1331C63.7694 22.1231 63.9194 22.1131 64.0794 22.1031C64.2194 22.0931 64.3594 22.0831 64.4994 22.0731C65.2894 21.6231 67.2894 21.6231 68.3894 21.7131C68.4994 21.6831 68.5994 21.6531 68.6994 21.6131C69.0094 21.5131 69.2994 21.4031 69.5794 21.2931C70.6894 20.8231 71.5694 20.2131 72.1194 19.5231C72.3294 19.2631 72.4894 18.9931 72.5994 18.7131C72.6794 18.1931 72.8994 17.6731 72.9294 17.1631C72.9394 16.9931 72.9294 16.8231 72.8794 16.6631C72.7594 16.4231 72.7594 16.0131 72.1294 15.7031C71.9894 15.5331 71.8094 15.4031 71.5794 15.2631Z" fill="#502110"/>
<path fill-rule="evenodd" clip-rule="evenodd" d="M42.8865 37.0382C43.0414 37.8728 43.204 38.7488 43.4592 39.4633C43.4592 40.487 42.9883 40.9634 42.8302 41.1233C42.7984 41.1556 42.7792 41.175 42.7792 41.1833C42.5176 41.1833 42.3821 40.7014 42.1981 40.0466C42.0585 39.55 41.8909 38.954 41.6192 38.3933C40.1792 37.2933 40.7292 35.7233 41.2492 34.4433C41.5009 34.8613 41.6015 34.6634 41.7031 34.4637C41.8154 34.2428 41.9289 34.0195 42.2492 34.6233C42.5387 35.1647 42.7074 36.0739 42.8865 37.0382ZM73.9121 37.0382C73.7571 37.8728 73.5945 38.7488 73.3393 39.4633C73.3393 40.4703 73.8018 40.9478 73.964 41.1153C73.9999 41.1524 74.0211 41.1743 74.0193 41.1833C74.2809 41.1833 74.4164 40.7014 74.6005 40.0466C74.7401 39.55 74.9076 38.954 75.1793 38.3933C76.39 37.4685 75.9749 35.9923 75.6872 34.9692C75.6327 34.7754 75.5828 34.5978 75.5493 34.4433C75.2976 34.8613 75.197 34.6634 75.0954 34.4637C74.9831 34.2428 74.8696 34.0195 74.5493 34.6233C74.2599 35.1647 74.0911 36.0739 73.9121 37.0382Z" fill="#502110"/>
<path fill-rule="evenodd" clip-rule="evenodd" d="M56.6693 3.3433C57.0093 2.9433 57.7393 2.59329 58.1693 2.50329C58.5993 2.41329 58.6793 2.4533 59.1993 2.7333C59.1993 2.7333 58.6493 2.58329 58.0393 2.75329C57.6193 2.88329 56.6693 3.3433 56.6693 3.3433ZM74.3994 9.26323C74.0294 9.02323 73.2594 8.77323 72.7394 8.82323C72.7394 8.82323 73.7494 9.14323 74.1294 9.35323C74.6794 9.65323 74.9794 10.1432 74.9794 10.1432C74.7994 9.57323 74.7694 9.49323 74.3994 9.26323ZM52.4794 12.7731C52.7594 12.3231 52.9694 12.1931 53.3794 12.0431C53.7894 11.8931 53.8694 11.9131 54.4294 12.1131C54.4294 12.1131 53.8594 12.0531 53.2894 12.3131C52.8894 12.4931 52.4794 12.7731 52.4794 12.7731ZM65.3293 14.4032C65.8093 14.2032 66.0592 14.2132 66.4792 14.3232C66.8992 14.4332 66.9594 14.5032 67.2993 14.9932C67.2993 14.9932 66.8693 14.6132 66.2493 14.4932C65.8193 14.4032 65.3293 14.4032 65.3293 14.4032ZM57.2394 13.6629C56.7994 13.7029 56.0294 13.9629 55.6494 14.3229C55.6494 14.3229 56.6394 13.9729 57.0794 13.9029C57.7094 13.8029 58.2394 14.0129 58.2394 14.0129L58.2333 14.0088C57.7488 13.6725 57.6775 13.6231 57.2394 13.6629ZM38.5894 14.4632C38.7494 13.9632 39.2794 13.3532 39.6494 13.1032C40.0094 12.8532 40.0994 12.8532 40.6894 12.9132C40.6894 12.9132 40.1194 12.9932 39.6294 13.3932C39.2794 13.6632 38.5894 14.4632 38.5894 14.4632ZM53.6495 19.6735C53.3295 19.5835 53.1495 19.5735 52.8295 19.7435C52.8295 19.7435 53.1795 19.7435 53.5095 19.8035C53.9795 19.8935 54.3495 20.1935 54.3495 20.1935L54.3364 20.1784C54.0184 19.8122 53.9751 19.7623 53.6495 19.6735ZM42.1791 24.0734C42.3691 23.7734 42.5091 23.6834 42.7891 23.5834C43.0691 23.4834 43.1191 23.4934 43.4991 23.6334C43.4991 23.6334 43.1191 23.5834 42.7291 23.7634C42.4491 23.8834 42.1791 24.0734 42.1791 24.0734ZM46.5594 12.8332C46.3594 12.9832 46.2694 13.0932 46.2294 13.3432C46.2294 13.3432 46.3894 13.1432 46.5794 12.9732C46.8394 12.7332 47.1894 12.6532 47.1894 12.6532C46.8094 12.6732 46.7594 12.6832 46.5594 12.8332ZM40.6591 27.953C40.6891 27.433 40.7991 27.213 41.0891 26.883C41.3791 26.553 41.4591 26.533 42.0491 26.433C42.0491 26.433 41.5191 26.653 41.1491 27.163C40.8791 27.523 40.6591 27.953 40.6591 27.953ZM72.3894 18.7931C72.2894 18.3731 72.1794 18.1531 71.7694 17.8231C71.7694 17.8231 71.9994 18.2531 72.1294 18.6731C72.3294 19.2831 72.1994 19.8331 72.1994 19.8331C72.4594 19.2931 72.4894 19.2131 72.3894 18.7931ZM62.9992 18.9729L63.08 18.9242C63.4894 18.6768 63.8005 18.4887 64.1292 18.7329C64.3116 18.8719 64.4298 18.9109 64.538 18.9466C64.679 18.9931 64.8029 19.034 65.0292 19.2829C65.0292 19.2829 64.5592 18.9629 63.9192 18.9329C63.4892 18.9129 62.9992 18.9729 62.9992 18.9729ZM67.0992 20.6532C66.7992 20.6532 66.6292 20.6832 66.3092 20.9032C66.3092 20.9032 66.6492 20.8232 66.9592 20.8032C67.4092 20.7832 67.7392 20.9632 67.7392 20.9632C67.4492 20.6932 67.3992 20.6532 67.0992 20.6532ZM74.1193 19.6634C74.3693 19.9634 74.4093 20.1334 74.4293 20.4334C74.4493 20.7434 74.4193 20.7834 74.1793 21.0934C74.1793 21.0934 74.3293 20.7434 74.2693 20.3034C74.2293 19.9934 74.1193 19.6634 74.1193 19.6634ZM46.6193 17.5029C46.2093 17.6629 45.9993 17.8029 45.7393 18.2529C45.7393 18.2529 46.1393 17.9629 46.5393 17.7829C47.1093 17.5029 47.6793 17.5529 47.6793 17.5529C47.1093 17.3629 47.0293 17.3429 46.6193 17.5029Z" fill="#914620"/>
<path fill-rule="evenodd" clip-rule="evenodd" d="M41.8094 45.1934C41.5694 45.0834 41.4694 44.8333 41.4594 44.5433C41.4573 44.5093 41.4551 44.4761 41.4528 44.4439C41.4336 44.1631 41.419 43.95 41.5894 43.8334C41.5894 43.8334 42.0794 42.7534 42.0794 42.6234C42.0894 42.3034 42.0794 41.9834 42.0294 41.6634C41.9494 41.1334 41.7694 40.5934 41.4494 40.2034C41.0594 39.7234 40.4294 39.5534 39.8894 39.6234C39.8421 39.6313 39.7933 39.6454 39.7442 39.6596C39.6717 39.6805 39.5986 39.7016 39.5286 39.7033C39.6149 39.7039 40.2983 39.739 41.2694 40.6634C41.5994 40.9734 41.7594 41.4834 41.8494 41.9534C41.8994 42.2434 41.3594 43.5534 41.2994 43.6434C41.1203 43.8979 41.1278 44.2057 41.1292 44.2654L41.1294 44.2734C41.2094 45.3434 41.5994 45.4234 41.7294 45.4234C41.7594 45.4234 41.7794 45.4134 41.7794 45.4134L42.0794 45.3334L41.8094 45.1934ZM67.4394 49.6234C67.4394 49.6234 67.7594 51.8334 67.6394 52.5634C67.6494 52.5634 68.2194 50.6934 67.4394 49.6234ZM75.3492 44.5433C75.3392 44.8333 75.2392 45.0834 74.9992 45.1934L74.7292 45.3334L75.0292 45.4134C75.0292 45.4134 75.0492 45.4234 75.0792 45.4234C75.2092 45.4234 75.5992 45.3434 75.6792 44.2734C75.6792 44.2717 75.6793 44.269 75.6794 44.2654C75.6808 44.2057 75.6883 43.8979 75.5092 43.6434C75.4492 43.5534 74.9092 42.2434 74.9592 41.9534C75.0492 41.4834 75.2092 40.9734 75.5392 40.6634C76.5103 39.739 77.1937 39.7039 77.28 39.7033C77.2831 39.7034 77.2862 39.7034 77.2892 39.7034C77.2892 39.7034 77.2861 39.7033 77.28 39.7033C77.21 39.7016 77.1369 39.6805 77.0645 39.6596C77.0153 39.6454 76.9665 39.6313 76.9192 39.6234C76.3792 39.5534 75.7492 39.7234 75.3592 40.2034C75.0392 40.5934 74.8592 41.1334 74.7792 41.6634C74.7292 41.9834 74.7192 42.3034 74.7292 42.6234C74.7292 42.7534 75.2192 43.8334 75.2192 43.8334C75.3896 43.95 75.375 44.1631 75.3558 44.4439C75.3536 44.4762 75.3513 44.5093 75.3492 44.5433Z" fill="#502313"/>
<path d="M98.1292 214.833C98.1292 214.833 98.1092 215.513 98.0892 216.493C97.6492 221.793 98.3992 224.013 95.4492 228.013C99.2092 226.063 100.569 221.863 98.1992 215.873C98.1592 215.243 98.1292 214.833 98.1292 214.833Z" fill="#854324"/>
<path d="M94.2693 189.843C94.6893 192.643 94.6592 195.893 93.4192 198.963C90.9192 205.153 94.1292 211.723 94.1292 215.483C94.1292 216.723 92.7192 219.423 92.6692 220.703C92.8192 222.103 93.6292 222.573 93.6292 222.573C93.5892 223.363 93.7492 222.203 93.6292 222.573C93.1892 223.933 93.2492 225.443 93.0092 226.273C92.7692 227.093 91.1292 230.483 93.1792 230.993C93.1792 230.993 94.4093 231.733 95.0493 230.473C95.0493 230.473 96.3592 229.013 96.4492 228.503C96.5392 227.993 97.2393 225.303 97.5193 224.753C97.7993 224.203 98.6592 222.453 98.6292 220.983C98.6292 220.713 98.6892 220.163 98.6892 220.163C99.0192 219.793 99.0292 219.783 98.9592 220.003C98.7492 220.633 98.8992 222.713 98.4492 223.453C97.8392 224.463 96.6992 225.373 96.0892 227.293C95.6492 228.693 94.9192 229.333 94.8492 229.783C94.7292 230.593 95.7392 230.653 95.7392 230.653C95.7392 230.653 96.0992 230.713 97.0692 230.183C98.3392 229.483 97.7692 229.723 98.9892 228.613C98.9892 228.613 100.789 225.993 101.399 225.223C102.009 224.443 102.499 223.403 102.709 222.123C102.919 220.843 103.599 218.063 102.699 219.753C102.249 220.613 103.099 222.093 102.019 222.803C101.549 223.113 99.4992 227.773 99.4992 227.773C100.719 227.133 99.6592 227.583 100.689 227.263C100.689 227.263 102.459 226.923 103.739 225.563C103.739 225.563 105.949 223.533 105.779 222.163C105.779 222.163 106.489 219.993 106.659 218.043C106.749 217.033 105.589 220.923 105.779 222.163C105.779 222.163 107.629 220.303 107.839 219.303C108.279 217.113 108.789 214.403 108.919 213.933C109.049 213.453 109.739 211.073 108.499 207.943C107.259 204.803 104.969 200.063 105.489 197.563C106.009 195.063 104.539 188.973 104.239 179.553L92.5793 180.783C92.6093 180.773 93.6293 185.613 94.2693 189.843Z" fill="url(#paint7_linear_234_1019)"/>
<path d="M103.409 213.483C103.409 213.483 103.109 219.233 103.059 220.633C103.009 222.023 102.609 223.163 102.039 224.023C101.469 224.883 99.6791 227.623 99.6791 227.623C99.6791 227.623 101.649 224.663 102.119 224.313C103.209 223.503 103.289 220.373 103.379 219.343C103.619 216.963 103.409 213.483 103.409 213.483Z" fill="#854324"/>
<path d="M106.319 219.753C106.319 219.753 106.739 217.943 106.639 215.833C106.529 213.723 106.189 212.913 107.219 211.863C107.219 211.863 106.579 213.753 106.769 214.873C106.959 215.983 106.619 219.193 106.319 219.753Z" fill="#854324"/>
<path fill-rule="evenodd" clip-rule="evenodd" d="M113.219 399.073C115.059 397.213 112.059 392.493 112.059 392.493L69.8293 389.243C69.8293 389.243 65.5693 390.473 68.7693 394.773C69.093 395.209 70.8512 395.283 73.3374 395.387C78.3785 395.599 86.4126 395.936 91.5493 399.673C99.2293 405.253 108.779 403.563 113.219 399.073ZM0.909444 398.473C-0.900556 396.583 2.17944 391.913 2.17944 391.913L44.4594 389.413C44.4594 389.413 48.6994 390.723 45.4194 394.963C45.0893 395.393 43.3325 395.435 40.8474 395.495C35.805 395.616 27.7643 395.809 22.5594 399.453C14.7894 404.903 5.26944 403.043 0.909444 398.473Z" fill="#502313"/>
<path fill-rule="evenodd" clip-rule="evenodd" d="M68.4093 353.633C68.6193 354.933 69.1793 358.753 70.0993 365.103C70.8385 370.245 70.6675 373.496 70.5976 374.824L70.5976 374.825C70.5805 375.149 70.5695 375.359 70.5793 375.453C70.6511 376.187 70.6338 377.035 70.5327 377.997C69.093 379.388 66.7628 386.835 67.9792 390.383C69.0565 393.558 75.7621 393.236 79.6702 393.048C80.5506 393.006 81.2891 392.97 81.7892 392.983C83.0857 393.017 85.7885 394.204 89.0281 395.628L89.0283 395.628C92.5853 397.19 96.7893 399.037 100.489 399.953C107.559 401.693 114.289 398.643 112.109 392.503C111.806 391.637 109.064 390.863 105.977 389.992L105.977 389.992C102.544 389.022 98.6849 387.933 97.2892 386.463C96.1705 385.281 94.3246 383.445 92.5686 381.722L92.8493 381.713C92.5928 381.552 92.3299 381.389 92.0604 381.224C89.8748 379.084 87.9592 377.243 87.9592 377.243C87.8446 377.132 87.7331 377.028 87.6247 376.931C86.9362 375.786 86.4511 374.602 86.1693 373.383C85.9193 372.273 84.8593 362.523 85.1593 359.013C86.2393 346.793 86.6493 334.693 86.3993 322.713C86.1021 315.871 84.4221 314.429 83.3443 313.504C82.7903 313.028 82.3954 312.689 82.4293 311.823L73.2593 306.543L69.0593 306.103C69.1209 306.498 68.7196 307.255 68.1308 308.365L68.1307 308.365C66.6174 311.219 63.8654 316.407 64.5493 323.793C65.4593 333.443 66.7393 343.403 68.4093 353.633ZM46.5092 353.833C46.2792 355.123 45.6392 358.943 44.6192 365.263C43.7934 370.379 43.8997 373.63 43.9434 374.965C43.9542 375.295 43.9611 375.508 43.9492 375.603C43.8698 376.335 43.8661 377.179 43.9482 378.138C45.3649 379.566 47.549 387.038 46.2794 390.563C45.1362 393.715 38.4317 393.273 34.5297 393.016C33.6533 392.958 32.9183 392.91 32.4194 392.913C31.124 392.923 28.4043 394.062 25.1437 395.427L25.1436 395.427C21.5578 396.929 17.318 398.705 13.5994 399.553C6.49944 401.173 -0.170557 398.003 2.11944 391.903C2.44088 391.048 5.19126 390.324 8.28758 389.509C11.7414 388.6 15.6257 387.578 17.0494 386.133C18.196 384.97 20.0819 383.163 21.8724 381.468L21.5692 381.453C21.8497 381.283 22.1378 381.111 22.4334 380.938C24.6344 378.86 26.5494 377.083 26.5494 377.083C26.6485 376.991 26.7452 376.903 26.8396 376.821C27.57 375.666 28.0878 374.468 28.3892 373.233C28.6592 372.133 29.8892 362.403 29.6592 358.883C28.7992 346.653 28.5992 334.543 29.0692 322.563C29.4915 315.734 31.1938 314.321 32.2858 313.414C32.8488 312.947 33.2496 312.614 33.2292 311.743L42.4892 306.623L46.6992 306.263C46.6322 306.655 47.0181 307.415 47.5847 308.532C49.0454 311.411 51.7062 316.655 50.8992 324.033C49.8292 333.703 48.3592 343.633 46.5092 353.833Z" fill="#994E2E"/>
<path fill-rule="evenodd" clip-rule="evenodd" d="M22.9594 378.023C23.1797 378.005 23.3975 377.993 23.6128 377.988C23.3356 378.244 22.3787 379.064 21.1074 380.113C20.3953 380.327 19.6492 380.673 18.8693 381.173C17.8193 381.813 16.8693 383.403 16.8693 383.403C16.9168 383.398 16.9641 383.392 17.0113 383.387C16.7854 383.561 16.56 383.733 16.3364 383.902C15.4257 384.069 14.4482 384.487 13.4094 385.223C13.0044 385.761 12.5847 386.328 12.3683 386.621C12.3011 386.656 12.2217 386.696 12.1316 386.74C10.6611 386.416 8.93302 386.766 6.9694 388.203C6.52079 388.831 6.03864 389.487 5.8239 389.778C5.75892 389.814 5.71004 389.843 5.67938 389.863C5.43296 390.023 5.23314 390.166 5.07642 390.302C4.43954 389.834 3.74368 389.624 2.89933 389.873C1.03934 390.543 -1.01067 394.343 1.37933 396.993C2.84933 398.703 10.0993 402.303 12.2593 401.243C12.5093 400.993 12.8093 399.733 12.5893 398.633C12.1725 397.769 10.2964 395.975 9.28633 395.008L9.2863 395.008L9.28625 395.008L9.28621 395.008L9.28618 395.008L9.22719 394.952C9.79589 394.874 10.4036 394.709 11.0393 394.483C11.2596 394.406 12.185 394.067 13.2825 393.659C13.5001 394.139 13.6772 394.636 13.8194 395.133C14.3794 396.853 14.6394 398.803 14.1294 400.753C14.2933 400.755 14.4811 400.765 14.6857 400.775C15.7792 400.832 17.3538 400.914 18.3394 399.903C19.0596 397.983 17.8157 393.849 17.6272 393.223L17.6094 393.163C17.5126 392.825 17.398 392.48 17.2657 392.133C17.4507 392.057 17.5928 391.995 17.6793 391.953C18.3709 391.536 19.0475 391.147 19.709 390.776C20.0616 391.424 20.3365 392.088 20.5394 392.713C21.1394 394.343 21.1594 397.203 20.7194 399.033C21.7294 399.063 23.6694 397.633 24.7794 396.523C25.3032 395.062 24.6414 392.854 24.3276 391.807C24.2399 391.515 24.1794 391.313 24.1794 391.243C24.1094 390.953 23.9794 390.453 23.8794 390.133C23.7367 389.69 23.5605 389.233 23.352 388.776C24.2878 388.257 25.1864 387.741 26.0471 387.193C26.5167 387.814 26.8818 388.467 27.1293 389.113C27.8593 390.843 28.7893 393.743 28.3993 395.613C29.4993 395.693 31.5193 395.033 32.6693 393.953C32.6593 391.843 31.3193 387.853 30.5593 386.313C30.2638 385.711 29.929 385.097 29.555 384.501C30.4378 383.662 31.2666 382.711 32.0403 381.592C32.8823 382.472 33.5605 383.433 34.0594 384.373C34.8994 386.163 37.1194 392.253 36.7794 394.133C37.0535 394.164 37.2644 394.21 37.442 394.248C38.0224 394.374 38.2458 394.423 39.1494 393.603C39.7125 391.831 37.5745 387.119 36.1726 384.029C36.0927 383.853 36.0152 383.683 35.9408 383.518C37.2898 382.982 38.6071 382.339 39.9128 381.701C40.6676 381.333 41.4185 380.966 42.1694 380.623C42.2695 380.571 42.4618 380.475 42.6964 380.358C43.3529 380.032 44.3411 379.54 44.5694 379.363C45.4994 378.603 44.7694 376.273 43.9094 376.123C42.7994 377.243 42.0493 377.923 40.8393 378.643C40.7105 378.721 40.4526 378.89 40.175 379.073C39.8059 379.315 39.4019 379.581 39.2193 379.683C38.0704 380.27 36.7784 380.537 35.5766 380.787C35.2255 380.859 34.8821 380.93 34.5523 381.007C32.2114 377.554 28.3255 374.588 24.9994 375.803C23.9094 376.433 22.9594 378.023 22.9594 378.023Z" fill="url(#paint8_linear_234_1019)"/>
<path fill-rule="evenodd" clip-rule="evenodd" d="M106.697 190.892L108.879 177.943L108.299 132.343L101.929 82.5931L91.9794 83.8131L85.7694 104.383L86.321 117.277L85.8293 117.493L86.3492 197.033H92.0883L92.5593 201.493L107.259 200.933L106.697 190.892Z" fill="url(#paint9_linear_234_1019)"/>
<path fill-rule="evenodd" clip-rule="evenodd" d="M57.7993 86.8733C71.3493 86.9233 77.4392 73.8133 77.4392 73.8133L74.6392 72.4133C74.6034 72.4672 74.5657 72.5241 74.5262 72.5836C72.7699 75.2315 67.4032 83.3227 57.7993 83.2933C49.2818 83.2587 45.5768 76.8723 43.6593 73.5672C43.3639 73.0579 43.1108 72.6218 42.8892 72.2933L40.0692 73.6833C40.0692 73.6833 44.2393 86.8333 57.7993 86.8733ZM87.0493 126.203C80.7993 131.993 76.7792 140.533 76.8692 149.073C76.8724 149.093 76.8746 149.112 76.8767 149.131C76.8813 149.171 76.8856 149.209 76.8992 149.243C76.2484 149.797 75.5976 150.359 74.9536 150.915L74.6892 151.143C74.4342 151.358 74.1817 151.573 73.9292 151.788C73.6767 152.003 73.4242 152.218 73.1692 152.433C68.1392 151.943 63.0992 151.523 58.0592 151.203C53.3592 150.913 48.6592 150.763 43.9592 150.643C43.6092 144.853 41.1493 139.303 37.0493 135.173C35.2993 133.413 33.2893 131.953 31.1092 130.823C31.1042 130.588 31.0967 130.358 31.0892 130.128C31.0817 129.898 31.0742 129.668 31.0692 129.433C31.0792 129.343 31.0917 129.251 31.1042 129.158C31.1167 129.066 31.1292 128.973 31.1392 128.883C32.3489 119.282 32.1059 109.623 31.8631 99.9729C31.8188 98.2159 31.7746 96.4592 31.7392 94.7032C31.7063 93.0947 31.6221 91.4922 31.538 89.8908C31.4689 88.5751 31.3998 87.2602 31.3592 85.9432C31.4428 85.8038 31.5216 85.6645 31.6023 85.5217C31.6374 85.4596 31.6728 85.3969 31.7092 85.3332C33.6892 83.8532 35.6192 82.4032 37.3692 80.6532C37.5092 80.5117 37.6487 80.3697 37.7882 80.2277C38.5556 79.4466 39.323 78.6656 40.1692 77.9632L41.0793 76.8032C43.0693 80.6332 47.9692 87.3932 57.6792 87.4232H57.7792C67.9292 87.4532 74.0092 80.1132 76.4292 76.4232C76.7892 76.8032 77.1493 77.1432 77.5193 77.4532C80.7593 80.1632 82.0092 81.1432 84.2292 82.1732L84.2592 82.2032C85.3392 83.1532 88.2392 85.6632 90.2892 86.7432C91.3592 87.3132 92.2992 87.7632 93.1592 88.1332C92.9136 91.0705 92.7742 93.9958 92.6343 96.9315C92.4894 99.9725 92.3439 103.025 92.0793 106.113C91.9193 108.003 91.8092 109.893 91.7192 111.783C89.5092 116.743 88.0293 121.303 87.0493 126.203Z" fill="#FDC99D"/>
<path fill-rule="evenodd" clip-rule="evenodd" d="M50.2493 84.6633L41.1393 73.7833L43.8193 72.2533L45.1993 68.0233L53.3193 78.9533L58.5693 82.8529L63.8194 78.9533L71.9394 68.0233L73.3194 72.2533L75.9994 73.7833L66.8993 84.6633L63.4194 81.9333L59.2046 83.3248L60.2393 84.0933L58.9293 83.6533L58.5693 83.5345L58.2094 83.6533L56.8994 84.0933L57.9341 83.3248L53.7193 81.9333L50.2493 84.6633Z" fill="#ECB343"/>
<path d="M95.1177 236.869C94.9377 236.289 94.7576 235.699 94.5676 235.109C94.3776 234.529 94.1976 233.939 94.0076 233.359C94.2376 229.579 94.5076 225.879 94.7076 222.249C94.7376 221.649 94.7676 221.039 94.7976 220.439C95.2576 218.109 95.4776 216.039 95.5076 213.999C95.5076 213.589 95.5076 213.189 95.4876 212.779C94.0876 206.019 95.0877 198.019 91.9977 190.729L57.4476 193.699L25.6277 190.159C23.0877 197.009 23.0877 204.009 22.5977 211.429C22.5677 212.329 22.5476 213.229 22.5476 214.129C22.4676 214.569 22.3977 215.019 22.3377 215.459C22.2777 215.899 22.2177 216.349 22.1777 216.799C22.0277 220.559 21.9877 224.199 22.1177 227.779C22.1377 228.229 22.1576 228.669 22.1676 229.119C22.5676 231.069 22.7676 233.299 22.8876 235.479C22.9276 236.209 22.9577 236.929 22.9777 237.629C23.0977 247.019 21.0977 255.019 22.4277 264.159C22.5177 265.079 22.6177 266.009 22.7577 266.929C23.0977 276.029 27.0976 284.029 28.1076 292.529C28.0876 293.419 28.0276 294.329 27.9076 295.259C27.8676 296.209 27.8277 297.159 27.7877 298.119C27.5677 302.879 27.3377 307.629 27.7377 311.959C27.7777 312.729 27.8076 313.489 27.8276 314.269C27.9476 318.129 27.8876 322.099 27.6076 326.159C27.5476 327.089 27.4677 328.019 27.3777 328.959C27.4677 329.839 27.5577 330.729 27.6477 331.609C27.6877 332.449 27.7276 333.279 27.7676 334.099C27.8076 334.919 27.8277 335.719 27.8477 336.519C29.0777 342.039 27.0777 349.039 27.0077 355.059C26.9477 355.929 26.9076 356.799 26.8876 357.659C26.8776 358.279 26.8777 358.819 26.8677 359.259C26.8077 359.609 26.7277 359.949 26.6277 360.289C26.5277 360.629 26.4077 360.969 26.2577 361.299C26.3077 361.669 26.3776 362.049 26.4676 362.439C26.7376 363.599 27.1176 370.779 27.6876 371.989C27.9776 372.349 28.2976 372.679 28.6376 372.959C29.6576 373.799 30.8776 374.219 32.1976 373.999C32.7876 374.089 33.4076 374.169 34.0376 374.229C39.6776 374.789 45.7577 374.139 49.6477 373.149C49.8277 372.669 50.0077 372.139 50.1777 371.549C50.2377 371.329 50.7176 369.529 51.2676 367.139C51.4476 366.339 51.6477 365.479 51.8377 364.589C52.0777 360.029 54.0776 354.029 53.0976 348.659C53.0376 347.829 52.9576 346.939 52.8576 345.989C52.1676 339.379 50.7777 330.389 52.6877 326.569C52.7977 326.049 52.9176 325.539 53.0476 325.019C53.7876 321.929 54.6177 306.819 54.2677 303.609C54.3877 303.109 54.5176 302.609 54.6676 302.129C54.7876 301.769 54.9076 301.409 55.0476 301.059C55.1876 300.709 55.3277 300.369 55.4877 300.039C55.6377 299.539 55.7477 299.039 55.8377 298.539C55.9277 298.039 55.9877 297.539 56.0277 297.039C55.3977 294.079 55.8377 291.469 56.5877 289.099C56.6977 288.759 56.8076 288.429 56.9176 288.099C57.2476 286.499 57.6777 284.909 58.1777 283.339C58.7477 284.859 59.1476 286.479 59.2276 288.229C59.2576 288.599 59.2677 288.959 59.2677 289.329C59.2877 291.159 59.0676 293.019 59.1976 295.199C59.2376 295.649 59.2776 296.089 59.3176 296.529C59.4076 297.399 59.5177 298.249 59.6577 299.059C59.7077 299.479 59.7977 299.889 59.9277 300.309C60.9777 303.629 64.2576 318.879 61.4476 322.339C61.4176 322.749 61.3977 323.129 61.3977 323.459C61.3077 328.489 63.7576 325.229 63.6976 331.659C63.6376 332.449 63.5577 339.239 63.4677 340.039C63.4277 340.439 63.3777 340.969 63.3377 341.609C63.2877 342.239 63.2476 342.959 63.1976 343.729C63.0876 352.009 62.0876 361.009 64.8276 369.009C65.0776 370.269 65.2977 371.119 65.3377 371.269C65.4977 371.859 65.6577 372.399 65.8377 372.879C69.7077 373.939 75.7676 374.699 81.4176 374.229C82.0476 374.179 82.6677 374.109 83.2677 374.029C83.9277 374.159 84.5677 374.119 85.1577 373.949C90.0877 372.009 88.0876 364.009 88.0076 359.299C87.8976 358.439 87.8177 357.579 87.7477 356.719C87.3977 352.399 87.4976 348.019 88.0476 343.729C88.1576 342.869 88.2877 342.019 88.4377 341.169C88.0877 333.019 86.0877 324.019 88.9677 315.669C88.9677 314.769 88.9576 313.849 88.9576 312.959C88.9476 310.309 88.9376 307.999 88.9176 307.769C87.0776 304.929 86.7977 301.849 86.9677 298.899C87.0077 298.159 87.0776 297.439 87.1676 296.719C87.8576 291.689 88.0277 286.499 89.9377 281.559C90.2577 280.739 90.6276 279.919 91.0476 279.109C96.0776 272.019 96.0777 263.019 95.0277 254.939C95.0277 254.199 95.0377 253.459 95.0577 252.719C95.1977 248.299 95.6676 243.909 95.0376 239.239C95.0776 238.449 95.1077 237.659 95.1177 236.869Z" fill="url(#paint10_diamond_234_1019)"/>
<path fill-rule="evenodd" clip-rule="evenodd" d="M43.1394 76.3834L44.5894 69.9134L38.3194 75.3234L15.2194 82.5934C15.2194 82.5934 19.7194 93.2934 22.7194 100.423C22.9431 100.954 23.1588 101.466 23.3638 101.953C23.8462 103.099 24.2696 104.104 24.5994 104.883C24.0018 117.694 24.4491 130.083 24.9069 142.759C25.0466 146.627 25.1872 150.522 25.2994 154.463C25.2894 156.053 25.2494 157.623 25.1894 159.183C25.1094 160.823 25.0094 162.473 24.8794 164.113C24.5561 168.4 24.1104 172.689 23.6685 176.942C23.2631 180.844 22.8609 184.714 22.5594 188.523C22.4694 189.963 22.3894 191.413 22.3094 192.863C22.2294 194.313 22.1494 195.773 22.0794 197.233C22.0252 198.427 21.9847 199.519 21.9487 200.492C21.9316 200.953 21.9155 201.388 21.8994 201.793C21.8094 204.313 21.7594 205.753 21.7594 205.753L54.9494 209.533L58.5772 201.327L62.2093 209.543L95.3993 205.763C95.3993 205.763 95.2493 201.653 95.0093 195.103C94.9808 194.323 94.9522 193.509 94.9226 192.664C94.89 191.733 94.856 190.765 94.8193 189.763C94.6193 188.143 94.4293 186.523 94.2593 184.893C94.0794 183.264 93.9194 181.624 93.7595 179.985L93.7593 179.983C91.0557 168.686 91.6438 157.094 92.2199 145.738C92.4791 140.629 92.7359 135.568 92.6893 130.603C92.5793 129.103 92.4693 127.603 92.3693 126.103C91.7593 117.143 91.4993 108.393 94.4393 100.423C94.6535 99.9217 94.8709 99.4009 95.0933 98.8683C95.2654 98.4561 95.4404 98.0367 95.6193 97.6134C98.4893 90.7834 101.939 82.5934 101.939 82.5934L78.8393 75.3234L72.5793 69.9134L73.0293 79.3834L58.2411 120.82L43.1394 76.3834Z" fill="url(#paint11_linear_234_1019)"/>
<path fill-rule="evenodd" clip-rule="evenodd" d="M37.1293 75.5431L40.0793 97.4531L45.6493 98.9531L41.9693 107.433L48.2793 113.793L55.5721 122.225L53.6693 127.263L56.9208 123.784L63.0093 130.823L59.5632 120.957L68.6693 111.213L75.0993 105.223L71.3593 97.2331L77.0293 95.8131L80.0293 75.1731L72.3793 69.0731L72.0493 78.5931L57.8756 116.125L44.9693 79.1731L44.6393 69.0731L37.1293 75.5431ZM77.9994 184.483L83.4494 183.313L83.7694 179.143L76.5594 180.973L68.4494 181.383L69.2393 184.863L77.9994 184.483ZM78.3692 126.883L83.8293 125.703L84.1492 121.533L76.9392 123.373L68.8192 123.783L69.6192 127.263L78.3692 126.883ZM34.0794 125.703L39.5394 126.883L48.2894 127.263L49.0894 123.783L40.9694 123.373L33.7694 121.533L34.0794 125.703ZM58.0694 142.943C57.0294 142.943 56.1894 142.103 56.1894 141.063C56.1894 140.023 57.0294 139.183 58.0694 139.183C59.1094 139.183 59.9494 140.023 59.9494 141.063C59.9494 142.103 59.1094 142.943 58.0694 142.943ZM56.1894 155.603C56.1894 156.643 57.0294 157.483 58.0694 157.483C59.1094 157.483 59.9494 156.643 59.9494 155.603C59.9494 154.563 59.1094 153.723 58.0694 153.723C57.0294 153.723 56.1894 154.563 56.1894 155.603ZM57.0694 171.333C56.0294 171.333 55.1894 170.493 55.1894 169.453C55.1894 168.413 56.0294 167.573 57.0694 167.573C58.1094 167.573 58.9494 168.413 58.9494 169.453C58.9494 170.493 58.1094 171.333 57.0694 171.333Z" fill="#502313"/>
<path fill-rule="evenodd" clip-rule="evenodd" d="M91.5193 378.243C91.298 378.221 91.0791 378.205 90.8627 378.196C91.1449 378.462 92.0731 379.284 93.3039 380.336C94.0201 380.563 94.7687 380.924 95.5493 381.443C96.5993 382.123 97.5193 383.723 97.5193 383.723C97.4692 383.716 97.4193 383.71 97.3695 383.703C97.5909 383.88 97.8117 384.055 98.0309 384.227C98.9458 384.407 99.9244 384.843 100.959 385.603C101.356 386.163 101.769 386.744 101.975 387.034C102.041 387.07 102.119 387.11 102.207 387.156C103.679 386.864 105.393 387.247 107.319 388.713C107.77 389.344 108.243 390.008 108.45 390.3C108.513 390.335 108.56 390.363 108.589 390.383C108.833 390.547 109.029 390.694 109.183 390.833C109.83 390.374 110.53 390.176 111.369 390.443C113.219 391.153 115.209 394.983 112.769 397.593C111.259 399.283 103.949 402.753 101.809 401.653C101.569 401.393 101.289 400.133 101.529 399.033C101.969 398.162 103.932 396.35 104.944 395.416L104.947 395.413C104.379 395.325 103.773 395.15 103.139 394.913C102.92 394.832 102.007 394.479 100.923 394.052C100.697 394.528 100.511 395.021 100.359 395.513C99.7595 397.223 99.4794 399.173 99.9494 401.123C99.7827 401.122 99.591 401.128 99.382 401.136C98.287 401.173 96.7151 401.228 95.7495 400.203C95.0294 398.193 96.4894 393.813 96.5994 393.483C96.7028 393.145 96.8245 392.799 96.9641 392.452C96.7782 392.372 96.6357 392.307 96.5495 392.263C95.8673 391.835 95.1996 391.435 94.5468 391.053C94.1859 391.691 93.9017 392.346 93.6894 392.963C93.0594 394.583 92.9894 397.443 93.3994 399.273C92.3895 399.283 90.4794 397.823 89.3894 396.693C88.8904 395.227 89.5891 393.038 89.9212 391.998L89.9212 391.998C90.0149 391.704 90.0794 391.502 90.0794 391.433C90.0949 391.377 90.1123 391.313 90.131 391.244L90.1313 391.243C90.2092 390.956 90.3108 390.581 90.3994 390.323C90.5487 389.887 90.731 389.438 90.9449 388.989C90.017 388.453 89.1265 387.919 88.2746 387.355C87.7951 387.967 87.4188 388.612 87.1593 389.253C86.3993 390.963 85.4193 393.853 85.7693 395.723C84.6693 395.783 82.6593 395.093 81.5293 393.983C81.5793 391.883 82.9893 387.903 83.7693 386.373C84.0738 385.779 84.4175 385.174 84.7998 384.587C83.9365 383.736 83.1282 382.775 82.3766 381.649C81.5199 382.514 80.8251 383.462 80.3093 384.393C79.4393 386.163 77.1093 392.213 77.4193 394.103C77.1453 394.129 76.9339 394.171 76.7558 394.207C76.1733 394.323 75.9476 394.368 75.0593 393.533C74.535 391.758 76.7346 387.116 78.1881 384.048L78.1881 384.048C78.2762 383.862 78.3615 383.681 78.4434 383.508C77.1223 382.954 75.8355 382.297 74.56 381.646C73.794 381.255 73.0322 380.867 72.2694 380.503C72.1644 380.444 71.9523 380.333 71.6955 380.198C71.0473 379.858 70.1142 379.37 69.8994 379.183C68.9894 378.403 69.7594 376.083 70.6194 375.953C71.7194 377.103 72.4594 377.793 73.6494 378.533C73.7906 378.618 74.0849 378.82 74.3892 379.03C74.731 379.264 75.0853 379.508 75.2494 379.603C76.3886 380.215 77.6752 380.507 78.8721 380.778C79.2187 380.856 79.5577 380.933 79.8835 381.016C82.2876 377.609 86.22 374.713 89.5193 375.993C90.6093 376.633 91.5193 378.243 91.5193 378.243Z" fill="url(#paint12_linear_234_1019)"/>
<defs>
<radialGradient id="paint0_radial_234_1019" cx="0" cy="0" r="1" gradientUnits="userSpaceOnUse" gradientTransform="translate(59.5306 73.9949) rotate(-26.5651) scale(20.3575 29.4427)">
<stop stop-color="#924520"/>
<stop offset="1" stop-color="#9B5F43"/>
</radialGradient>
<linearGradient id="paint1_linear_234_1019" x1="23.3905" y1="203.725" x2="13.4095" y2="226.291" gradientUnits="userSpaceOnUse">
<stop stop-color="#994E2E"/>
<stop offset="1" stop-color="#9B6046"/>
</linearGradient>
<linearGradient id="paint2_linear_234_1019" x1="24.6436" y1="95.9748" x2="8.52923" y2="201.493" gradientUnits="userSpaceOnUse">
<stop stop-color="#5C2016"/>
<stop offset="0.0001" stop-color="#5C2016"/>
<stop offset="1" stop-color="#7C252E"/>
</linearGradient>
<linearGradient id="paint3_linear_234_1019" x1="58.3592" y1="0.0409088" x2="58.3592" y2="48.2533" gradientUnits="userSpaceOnUse">
<stop stop-color="#502313"/>
<stop offset="1" stop-color="#502313"/>
</linearGradient>
<linearGradient id="paint4_linear_234_1019" x1="58.4162" y1="51.9486" x2="58.4162" y2="74.2007" gradientUnits="userSpaceOnUse">
<stop stop-color="#924520"/>
<stop offset="1" stop-color="#9B5F43"/>
</linearGradient>
<linearGradient id="paint5_linear_234_1019" x1="43.4193" y1="43.2893" x2="40.1372" y2="43.3473" gradientUnits="userSpaceOnUse">
<stop stop-color="#924520"/>
<stop offset="1" stop-color="#9B5F43"/>
</linearGradient>
<linearGradient id="paint6_linear_234_1019" x1="73.4395" y1="44.2064" x2="77.1034" y2="44.4058" gradientUnits="userSpaceOnUse">
<stop stop-color="#924520"/>
<stop offset="1" stop-color="#9B5F43"/>
</linearGradient>
<linearGradient id="paint7_linear_234_1019" x1="95.1626" y1="205.381" x2="103.909" y2="225.934" gradientUnits="userSpaceOnUse">
<stop stop-color="#994E2E"/>
<stop offset="1" stop-color="#9B6046"/>
</linearGradient>
<linearGradient id="paint8_linear_234_1019" x1="22.6499" y1="375.526" x2="22.6499" y2="401.435" gradientUnits="userSpaceOnUse">
<stop stop-color="#FDC99D"/>
<stop offset="1" stop-color="#F2A05A"/>
</linearGradient>
<linearGradient id="paint9_linear_234_1019" x1="114.245" y1="212.828" x2="97.3244" y2="95.508" gradientUnits="userSpaceOnUse">
<stop stop-color="#7C1F27"/>
<stop offset="1" stop-color="#5C2016"/>
</linearGradient>
<radialGradient id="paint10_diamond_234_1019" cx="0" cy="0" r="1" gradientUnits="userSpaceOnUse" gradientTransform="translate(58.7762 282.298) rotate(-88.7669) scale(168.931 67.4835)">
<stop stop-color="#502110"/>
<stop offset="1" stop-color="#7D1E27"/>
</radialGradient>
<linearGradient id="paint11_linear_234_1019" x1="58.5794" y1="11.9551" x2="58.5794" y2="215.003" gradientUnits="userSpaceOnUse">
<stop stop-color="#602018"/>
<stop offset="1" stop-color="#7E1F28"/>
</linearGradient>
<linearGradient id="paint12_linear_234_1019" x1="91.6958" y1="375.684" x2="91.6958" y2="401.865" gradientUnits="userSpaceOnUse">
<stop stop-color="#FDC99D"/>
<stop offset="1" stop-color="#F2A05A"/>
</linearGradient>
</defs>
</svg>