<svg width="596" height="842" viewBox="0 0 596 842" fill="none" xmlns="http://www.w3.org/2000/svg">
<g clip-path="url(#clip0_229_41)">
<path d="M334.22 622.01C334.22 622.01 330.07 621.79 329.96 625.36C329.96 625.36 329.6 621.85 332.09 621.25L334.22 622.01Z" fill="#A1A1A1"/>
<path fill-rule="evenodd" clip-rule="evenodd" d="M336.39 633.79C336.12 634.7 335.56 635.19 334.71 635.25L335.89 635.43C336.82 634.77 337.18 633.84 336.99 632.63C336.9 632.05 336.78 631.46 336.63 630.88C336.78 631.86 336.7 632.83 336.39 633.79Z" fill="#A1A1A1"/>
<mask id="path-3-inside-1_229_41" fill="white">
<path fill-rule="evenodd" clip-rule="evenodd" d="M331.38 309.355L332.409 311.656L338.62 353.381L316.962 304.977L331.38 309.355ZM300.376 240.062L307.508 256.002C307.476 256.509 307.436 256.943 307.42 257.06C307.374 257.294 307.35 257.713 307.321 258.218V258.218V258.218V258.218V258.218V258.218V258.218V258.218C307.275 259.034 307.215 260.074 307.03 260.92C306.91 261.49 306.62 262.21 306.23 262.65C306.033 262.87 306.054 263.078 306.08 263.327L306.08 263.327C306.09 263.419 306.1 263.515 306.1 263.62C306.1 263.682 306.078 263.761 306.044 263.851C306.575 264.06 306.963 264.602 307.21 265.46C307.387 266.048 307.15 266.724 306.883 267.487C306.682 268.062 306.463 268.686 306.39 269.36C306.312 270.076 306.315 270.737 306.317 271.344C306.321 272.527 306.325 273.503 305.73 274.27C305.151 275.045 304.513 275.488 303.82 275.604L286.389 236.644C286.571 236.664 286.748 236.689 286.91 236.72C287.7 236.57 288.83 236.55 289.37 236.59C289.457 236.594 289.63 236.619 289.822 236.648C290.137 236.694 290.507 236.749 290.65 236.73C290.95 236.69 293.87 236.65 294.33 237.13C294.35 237.15 294.369 237.171 294.389 237.191C294.447 237.253 294.505 237.315 294.58 237.36C294.675 237.427 294.797 237.457 294.912 237.486L294.93 237.49C296.5 237.83 298.2 238.36 298.65 238.75C298.85 238.93 299.84 239.73 300.05 239.88C300.105 239.917 300.222 239.98 300.376 240.062ZM270.531 242.357C269.956 243.068 269.428 243.805 269.36 243.93C269.22 244.22 268.94 244.55 268.66 244.72C268.17 245.01 267.69 246.91 267.6 247.53C267.22 247.91 266.82 249.19 266.8 249.5C266.779 249.827 266.714 250.151 266.649 250.476C266.557 250.937 266.465 251.397 266.5 251.86C266.57 252.67 266.49 253.28 266.29 254.07C266.16 254.56 266.35 256.77 266.4 257.06C266.452 257.298 266.476 257.738 266.506 258.268V258.268V258.268V258.268C266.552 259.074 266.609 260.088 266.79 260.92C266.91 261.48 267.2 262.21 267.59 262.65C267.791 262.866 267.765 263.081 267.734 263.337L267.734 263.338C267.724 263.426 267.713 263.52 267.71 263.62C267.71 263.695 267.741 263.795 267.785 263.905C267.766 263.915 267.747 263.925 267.728 263.936L335.101 414.518C334.942 412.958 334.792 411.244 334.682 409.379C334.796 403.463 335.309 395.968 336.316 389.389L270.531 242.357ZM333.891 452.968L265.985 301.196C264.634 301.953 263.207 302.649 261.66 303.305C261.519 303.336 261.374 303.378 261.23 303.43C260.999 303.515 260.788 303.62 260.602 303.74C260.049 303.967 259.521 304.209 259.014 304.462L255.702 305.467C255.61 305.432 255.509 305.404 255.401 305.385L324.065 458.852L324.092 458.454C324.408 458.395 324.735 458.201 324.98 457.74C324.98 457.74 324.998 457.72 325.031 457.685C325.31 457.897 325.72 457.92 325.72 457.92C325.72 457.92 326.09 457.98 327.1 457.45C327.941 457.004 328.003 456.94 328.265 456.664C328.415 456.508 328.63 456.283 329.09 455.88C329.09 455.88 329.36 455.502 329.73 454.989C330.159 454.769 330.269 454.698 330.305 454.675C330.316 454.668 330.32 454.665 330.324 454.664C330.341 454.661 330.363 454.682 330.87 454.53C330.87 454.53 332.585 454.213 333.891 452.968ZM323.317 498.334L241.241 314.893L237.851 335.16L321.19 521.427C321.216 520.836 321.249 520.237 321.29 519.61C321.297 519.264 321.21 517.673 321.15 516.598C321.126 516.15 321.106 515.791 321.1 515.65C321.056 514.696 320.958 513.923 320.871 513.239C320.606 511.148 320.447 509.887 322.24 506.82C322.344 506.662 322.406 505.617 322.469 504.56C322.533 503.474 322.599 502.377 322.71 502.22C322.93 501.905 322.815 501.613 322.703 501.327C322.59 501.04 322.48 500.76 322.71 500.47C322.868 500.285 323.03 499.579 323.185 498.899L323.185 498.898C323.229 498.704 323.273 498.511 323.317 498.334ZM321.233 562.677L237.791 376.183C237.554 378.909 237.14 381.81 237.14 381.81C237.14 381.81 237.09 384.29 237.78 388.6C238.781 394.816 239.327 401.958 239.502 407.852L285.567 510.808C285.858 509.622 286.2 508.443 286.583 507.279C287.169 508.795 287.581 510.408 287.67 512.16C287.7 512.52 287.72 512.89 287.72 513.26C287.728 513.996 287.698 514.736 287.666 515.499L321.661 591.477C322.005 589.237 322.256 586.757 322.397 585.368C322.431 585.026 322.459 584.75 322.48 584.56C322.54 584.02 322.56 583.48 322.55 582.94C322.258 582.012 321.943 581.083 321.627 580.15L321.627 580.149C321.521 579.837 321.415 579.524 321.31 579.21C321.205 578.924 321.11 578.632 321.015 578.34L321.015 578.339L321.014 578.337C320.973 578.212 320.932 578.086 320.89 577.96C320.874 576.952 321.038 570.311 321.233 562.677ZM331.763 614.056L332.069 614.74C332.142 614.753 332.216 614.766 332.29 614.78C332.29 614.78 332.067 614.473 331.763 614.056ZM332.89 616.575L339.677 631.744C340.717 631.425 341.587 631.108 342.225 630.875C342.468 630.786 342.678 630.71 342.85 630.65C343.959 630.268 344.103 628.472 343.913 626.563C345.412 624.884 343.325 621.206 342.756 620.277C342.732 620.205 342.707 620.133 342.68 620.06C342.363 619.194 339.517 618.418 336.315 617.544L336.315 617.544C335.186 617.236 334.012 616.916 332.89 616.575ZM319.287 627.328L292.945 568.453C293.105 569.295 293.29 570.151 293.478 571.025C294.102 573.927 294.767 577.016 294.73 580.4C294.67 581.2 294.59 581.99 294.5 582.79C294.368 583.963 294.18 586.653 293.99 589.375C293.792 592.2 293.593 595.058 293.45 596.29L293.441 596.39C293.414 596.671 293.387 596.951 293.362 597.23L305.167 623.614C309.461 623.924 314.953 624.728 319.287 627.328ZM279.356 565.925C279.312 555.391 279.446 544.858 280.36 540.326L250.054 472.591C250.05 472.644 250.045 472.697 250.04 472.75L250.04 472.75C249.97 473.62 249.9 474.5 249.88 475.41C249.837 475.642 249.797 475.877 249.756 476.113L249.756 476.113C249.722 476.315 249.687 476.518 249.65 476.72C249.51 477.49 249.37 478.28 249.24 479.07C249.17 479.46 249.11 479.86 249.06 480.25C249.019 483.018 249.365 485.897 249.728 488.908C249.979 490.99 250.237 493.135 250.38 495.35C250.53 495.76 250.71 496.18 250.9 496.58C251.118 497.057 251.322 499.581 251.491 501.681C251.573 502.686 251.646 503.594 251.709 504.134L279.356 565.925ZM253.672 549.676L276.935 601.67C276.88 601.726 276.827 601.778 276.777 601.828C276.492 602.112 276.289 602.314 276.25 602.45C276.07 603.03 275.89 603.57 275.7 604.05C275.163 604.182 274.586 604.307 273.975 604.425C275.089 607.795 275.921 612.359 275.17 615.09C275.074 615.44 274.926 615.757 274.735 616.044C274.696 616.821 274.575 617.532 274.35 618.13C274.341 618.155 274.331 618.18 274.321 618.205C274.316 618.217 274.31 618.23 274.305 618.243C274.927 619.107 275.104 620.475 273.46 622.53C273.442 622.553 273.419 622.575 273.392 622.596L252.782 576.533C253.136 567.339 253.516 556.91 253.672 549.676ZM247.825 606.609C247.548 606.934 247.272 607.259 246.999 607.581C246.95 607.566 246.901 607.552 246.85 607.54L244.72 608.3C244.72 608.3 245.419 608.263 246.25 608.466L246.224 608.497C246.117 608.558 246.009 608.623 245.9 608.69C244.81 609.35 243.83 610.94 243.83 610.94C243.884 610.934 243.939 610.928 243.993 610.922C243.76 611.095 243.528 611.266 243.298 611.434C242.345 611.598 241.32 612.016 240.23 612.76C239.806 613.311 239.367 613.887 239.146 614.178C238.787 614.358 238.112 614.671 237.319 615.035C236.411 615.375 235.485 615.702 234.586 616.02L234.585 616.02C233.196 616.511 231.874 616.978 230.789 617.433C230.346 617.287 229.867 617.267 229.33 617.42C227.732 617.983 225.997 620.693 226.855 623.112C226.607 624.057 226.561 625.004 226.997 625.706C227 627.065 227.285 628.178 228.13 628.47C228.302 628.53 228.512 628.606 228.756 628.695C231.879 629.835 240.608 633.022 247.504 628.333C248.257 627.956 249.001 627.523 249.73 627.03C251.506 625.827 253.6 624.999 255.797 624.425L247.825 606.609ZM241.698 453.915L234.559 437.959C234.391 439.634 234.734 440.808 234.835 441.154L234.84 441.17C234.918 441.454 235.142 442.554 235.408 443.863L235.408 443.863L235.408 443.864L235.408 443.864C235.584 444.727 235.777 445.681 235.96 446.55C236.17 447.56 238.09 449.42 238.09 449.42C237.92 450.79 240.21 452.83 240.21 452.83C240.677 453.308 241.207 453.66 241.698 453.915ZM241.226 314.86L241.13 314.645V314.86H241.226Z"/>
</mask>
<path fill-rule="evenodd" clip-rule="evenodd" d="M331.38 309.355L332.409 311.656L338.62 353.381L316.962 304.977L331.38 309.355ZM300.376 240.062L307.508 256.002C307.476 256.509 307.436 256.943 307.42 257.06C307.374 257.294 307.35 257.713 307.321 258.218V258.218V258.218V258.218V258.218V258.218V258.218V258.218C307.275 259.034 307.215 260.074 307.03 260.92C306.91 261.49 306.62 262.21 306.23 262.65C306.033 262.87 306.054 263.078 306.08 263.327L306.08 263.327C306.09 263.419 306.1 263.515 306.1 263.62C306.1 263.682 306.078 263.761 306.044 263.851C306.575 264.06 306.963 264.602 307.21 265.46C307.387 266.048 307.15 266.724 306.883 267.487C306.682 268.062 306.463 268.686 306.39 269.36C306.312 270.076 306.315 270.737 306.317 271.344C306.321 272.527 306.325 273.503 305.73 274.27C305.151 275.045 304.513 275.488 303.82 275.604L286.389 236.644C286.571 236.664 286.748 236.689 286.91 236.72C287.7 236.57 288.83 236.55 289.37 236.59C289.457 236.594 289.63 236.619 289.822 236.648C290.137 236.694 290.507 236.749 290.65 236.73C290.95 236.69 293.87 236.65 294.33 237.13C294.35 237.15 294.369 237.171 294.389 237.191C294.447 237.253 294.505 237.315 294.58 237.36C294.675 237.427 294.797 237.457 294.912 237.486L294.93 237.49C296.5 237.83 298.2 238.36 298.65 238.75C298.85 238.93 299.84 239.73 300.05 239.88C300.105 239.917 300.222 239.98 300.376 240.062ZM270.531 242.357C269.956 243.068 269.428 243.805 269.36 243.93C269.22 244.22 268.94 244.55 268.66 244.72C268.17 245.01 267.69 246.91 267.6 247.53C267.22 247.91 266.82 249.19 266.8 249.5C266.779 249.827 266.714 250.151 266.649 250.476C266.557 250.937 266.465 251.397 266.5 251.86C266.57 252.67 266.49 253.28 266.29 254.07C266.16 254.56 266.35 256.77 266.4 257.06C266.452 257.298 266.476 257.738 266.506 258.268V258.268V258.268V258.268C266.552 259.074 266.609 260.088 266.79 260.92C266.91 261.48 267.2 262.21 267.59 262.65C267.791 262.866 267.765 263.081 267.734 263.337L267.734 263.338C267.724 263.426 267.713 263.52 267.71 263.62C267.71 263.695 267.741 263.795 267.785 263.905C267.766 263.915 267.747 263.925 267.728 263.936L335.101 414.518C334.942 412.958 334.792 411.244 334.682 409.379C334.796 403.463 335.309 395.968 336.316 389.389L270.531 242.357ZM333.891 452.968L265.985 301.196C264.634 301.953 263.207 302.649 261.66 303.305C261.519 303.336 261.374 303.378 261.23 303.43C260.999 303.515 260.788 303.62 260.602 303.74C260.049 303.967 259.521 304.209 259.014 304.462L255.702 305.467C255.61 305.432 255.509 305.404 255.401 305.385L324.065 458.852L324.092 458.454C324.408 458.395 324.735 458.201 324.98 457.74C324.98 457.74 324.998 457.72 325.031 457.685C325.31 457.897 325.72 457.92 325.72 457.92C325.72 457.92 326.09 457.98 327.1 457.45C327.941 457.004 328.003 456.94 328.265 456.664C328.415 456.508 328.63 456.283 329.09 455.88C329.09 455.88 329.36 455.502 329.73 454.989C330.159 454.769 330.269 454.698 330.305 454.675C330.316 454.668 330.32 454.665 330.324 454.664C330.341 454.661 330.363 454.682 330.87 454.53C330.87 454.53 332.585 454.213 333.891 452.968ZM323.317 498.334L241.241 314.893L237.851 335.16L321.19 521.427C321.216 520.836 321.249 520.237 321.29 519.61C321.297 519.264 321.21 517.673 321.15 516.598C321.126 516.15 321.106 515.791 321.1 515.65C321.056 514.696 320.958 513.923 320.871 513.239C320.606 511.148 320.447 509.887 322.24 506.82C322.344 506.662 322.406 505.617 322.469 504.56C322.533 503.474 322.599 502.377 322.71 502.22C322.93 501.905 322.815 501.613 322.703 501.327C322.59 501.04 322.48 500.76 322.71 500.47C322.868 500.285 323.03 499.579 323.185 498.899L323.185 498.898C323.229 498.704 323.273 498.511 323.317 498.334ZM321.233 562.677L237.791 376.183C237.554 378.909 237.14 381.81 237.14 381.81C237.14 381.81 237.09 384.29 237.78 388.6C238.781 394.816 239.327 401.958 239.502 407.852L285.567 510.808C285.858 509.622 286.2 508.443 286.583 507.279C287.169 508.795 287.581 510.408 287.67 512.16C287.7 512.52 287.72 512.89 287.72 513.26C287.728 513.996 287.698 514.736 287.666 515.499L321.661 591.477C322.005 589.237 322.256 586.757 322.397 585.368C322.431 585.026 322.459 584.75 322.48 584.56C322.54 584.02 322.56 583.48 322.55 582.94C322.258 582.012 321.943 581.083 321.627 580.15L321.627 580.149C321.521 579.837 321.415 579.524 321.31 579.21C321.205 578.924 321.11 578.632 321.015 578.34L321.015 578.339L321.014 578.337C320.973 578.212 320.932 578.086 320.89 577.96C320.874 576.952 321.038 570.311 321.233 562.677ZM331.763 614.056L332.069 614.74C332.142 614.753 332.216 614.766 332.29 614.78C332.29 614.78 332.067 614.473 331.763 614.056ZM332.89 616.575L339.677 631.744C340.717 631.425 341.587 631.108 342.225 630.875C342.468 630.786 342.678 630.71 342.85 630.65C343.959 630.268 344.103 628.472 343.913 626.563C345.412 624.884 343.325 621.206 342.756 620.277C342.732 620.205 342.707 620.133 342.68 620.06C342.363 619.194 339.517 618.418 336.315 617.544L336.315 617.544C335.186 617.236 334.012 616.916 332.89 616.575ZM319.287 627.328L292.945 568.453C293.105 569.295 293.29 570.151 293.478 571.025C294.102 573.927 294.767 577.016 294.73 580.4C294.67 581.2 294.59 581.99 294.5 582.79C294.368 583.963 294.18 586.653 293.99 589.375C293.792 592.2 293.593 595.058 293.45 596.29L293.441 596.39C293.414 596.671 293.387 596.951 293.362 597.23L305.167 623.614C309.461 623.924 314.953 624.728 319.287 627.328ZM279.356 565.925C279.312 555.391 279.446 544.858 280.36 540.326L250.054 472.591C250.05 472.644 250.045 472.697 250.04 472.75L250.04 472.75C249.97 473.62 249.9 474.5 249.88 475.41C249.837 475.642 249.797 475.877 249.756 476.113L249.756 476.113C249.722 476.315 249.687 476.518 249.65 476.72C249.51 477.49 249.37 478.28 249.24 479.07C249.17 479.46 249.11 479.86 249.06 480.25C249.019 483.018 249.365 485.897 249.728 488.908C249.979 490.99 250.237 493.135 250.38 495.35C250.53 495.76 250.71 496.18 250.9 496.58C251.118 497.057 251.322 499.581 251.491 501.681C251.573 502.686 251.646 503.594 251.709 504.134L279.356 565.925ZM253.672 549.676L276.935 601.67C276.88 601.726 276.827 601.778 276.777 601.828C276.492 602.112 276.289 602.314 276.25 602.45C276.07 603.03 275.89 603.57 275.7 604.05C275.163 604.182 274.586 604.307 273.975 604.425C275.089 607.795 275.921 612.359 275.17 615.09C275.074 615.44 274.926 615.757 274.735 616.044C274.696 616.821 274.575 617.532 274.35 618.13C274.341 618.155 274.331 618.18 274.321 618.205C274.316 618.217 274.31 618.23 274.305 618.243C274.927 619.107 275.104 620.475 273.46 622.53C273.442 622.553 273.419 622.575 273.392 622.596L252.782 576.533C253.136 567.339 253.516 556.91 253.672 549.676ZM247.825 606.609C247.548 606.934 247.272 607.259 246.999 607.581C246.95 607.566 246.901 607.552 246.85 607.54L244.72 608.3C244.72 608.3 245.419 608.263 246.25 608.466L246.224 608.497C246.117 608.558 246.009 608.623 245.9 608.69C244.81 609.35 243.83 610.94 243.83 610.94C243.884 610.934 243.939 610.928 243.993 610.922C243.76 611.095 243.528 611.266 243.298 611.434C242.345 611.598 241.32 612.016 240.23 612.76C239.806 613.311 239.367 613.887 239.146 614.178C238.787 614.358 238.112 614.671 237.319 615.035C236.411 615.375 235.485 615.702 234.586 616.02L234.585 616.02C233.196 616.511 231.874 616.978 230.789 617.433C230.346 617.287 229.867 617.267 229.33 617.42C227.732 617.983 225.997 620.693 226.855 623.112C226.607 624.057 226.561 625.004 226.997 625.706C227 627.065 227.285 628.178 228.13 628.47C228.302 628.53 228.512 628.606 228.756 628.695C231.879 629.835 240.608 633.022 247.504 628.333C248.257 627.956 249.001 627.523 249.73 627.03C251.506 625.827 253.6 624.999 255.797 624.425L247.825 606.609ZM241.698 453.915L234.559 437.959C234.391 439.634 234.734 440.808 234.835 441.154L234.84 441.17C234.918 441.454 235.142 442.554 235.408 443.863L235.408 443.863L235.408 443.864L235.408 443.864C235.584 444.727 235.777 445.681 235.96 446.55C236.17 447.56 238.09 449.42 238.09 449.42C237.92 450.79 240.21 452.83 240.21 452.83C240.677 453.308 241.207 453.66 241.698 453.915ZM241.226 314.86L241.13 314.645V314.86H241.226Z" fill="#A1A1A1"/>
<path d="M331.38 309.355L332.292 308.947L332.106 308.531L331.67 308.399L331.38 309.355ZM332.409 311.656L333.398 311.509L333.378 311.373L333.322 311.248L332.409 311.656ZM338.62 353.381L337.707 353.79L339.609 353.234L338.62 353.381ZM316.962 304.977L317.253 304.02L315.153 303.382L316.049 305.385L316.962 304.977ZM300.376 240.062L301.289 239.653L301.148 239.339L300.845 239.178L300.376 240.062ZM307.508 256.002L308.506 256.067L308.522 255.82L308.421 255.594L307.508 256.002ZM307.42 257.06L308.401 257.253L308.407 257.225L308.411 257.197L307.42 257.06ZM307.321 258.218L306.323 258.161L306.321 258.189V258.218H307.321ZM307.321 258.218L308.32 258.275L308.321 258.247V258.218H307.321ZM307.03 260.92L306.053 260.706L306.051 260.714L307.03 260.92ZM306.23 262.65L306.973 263.319L306.978 263.314L306.23 262.65ZM306.08 263.327L305.086 263.431L305.088 263.45L305.09 263.468L306.08 263.327ZM306.08 263.327L307.075 263.223L307.073 263.205L307.07 263.186L306.08 263.327ZM306.044 263.851L305.108 263.501L304.764 264.421L305.678 264.781L306.044 263.851ZM307.21 265.46L306.249 265.736L306.252 265.748L307.21 265.46ZM306.883 267.487L305.939 267.157L305.939 267.157L306.883 267.487ZM306.39 269.36L307.384 269.469L307.384 269.468L306.39 269.36ZM306.317 271.344L305.317 271.348L305.317 271.348L306.317 271.344ZM305.73 274.27L304.94 273.657L304.935 273.664L304.929 273.671L305.73 274.27ZM303.82 275.604L302.908 276.012L303.223 276.718L303.985 276.59L303.82 275.604ZM286.389 236.644L286.5 235.65L284.761 235.455L285.476 237.052L286.389 236.644ZM286.91 236.72L286.723 237.703L286.91 237.738L287.097 237.703L286.91 236.72ZM289.37 236.59L289.296 237.587L289.311 237.589L289.327 237.589L289.37 236.59ZM289.822 236.648L289.676 237.637L289.676 237.637L289.822 236.648ZM290.65 236.73L290.779 237.722L290.782 237.721L290.65 236.73ZM294.33 237.13L293.608 237.822L293.615 237.83L293.623 237.837L294.33 237.13ZM294.389 237.191L293.66 237.876L293.66 237.876L294.389 237.191ZM294.58 237.36L295.153 236.541L295.125 236.521L295.095 236.503L294.58 237.36ZM294.912 237.486L295.154 236.515L295.154 236.515L294.912 237.486ZM294.93 237.49L294.688 238.461L294.703 238.464L294.718 238.468L294.93 237.49ZM298.65 238.75L299.319 238.007L299.312 238.001L299.305 237.995L298.65 238.75ZM300.05 239.88L299.469 240.694L299.482 240.703L299.495 240.712L300.05 239.88ZM269.36 243.93L268.482 243.451L268.47 243.473L268.459 243.495L269.36 243.93ZM270.531 242.357L271.444 241.949L270.779 240.463L269.754 241.728L270.531 242.357ZM268.66 244.72L269.169 245.581L269.179 245.575L268.66 244.72ZM267.6 247.53L268.307 248.237L268.542 248.003L268.59 247.674L267.6 247.53ZM266.8 249.5L265.802 249.436L265.802 249.437L266.8 249.5ZM266.649 250.476L265.669 250.279L265.669 250.279L266.649 250.476ZM266.5 251.86L265.503 251.936L265.504 251.946L266.5 251.86ZM266.29 254.07L267.257 254.327L267.259 254.316L266.29 254.07ZM266.4 257.06L265.415 257.23L265.418 257.251L265.423 257.272L266.4 257.06ZM266.506 258.268H267.506V258.24L267.505 258.212L266.506 258.268ZM266.506 258.268H265.506V258.296L265.508 258.324L266.506 258.268ZM266.79 260.92L267.768 260.711L267.767 260.708L266.79 260.92ZM267.59 262.65L266.842 263.314L266.85 263.323L266.858 263.332L267.59 262.65ZM267.734 263.337L268.715 263.534L268.723 263.495L268.727 263.456L267.734 263.337ZM267.734 263.338L266.754 263.141L266.746 263.18L266.741 263.219L267.734 263.338ZM267.71 263.62L266.71 263.595L266.71 263.607V263.62H267.71ZM267.785 263.905L268.241 264.795L269.052 264.38L268.714 263.534L267.785 263.905ZM267.728 263.936L267.23 263.069L266.446 263.519L266.815 264.345L267.728 263.936ZM335.101 414.518L334.189 414.927L336.096 414.417L335.101 414.518ZM334.682 409.379L333.682 409.36L333.682 409.399L333.684 409.438L334.682 409.379ZM336.316 389.389L337.305 389.54L337.349 389.249L337.229 388.98L336.316 389.389ZM265.985 301.196L266.898 300.788L266.451 299.789L265.496 300.324L265.985 301.196ZM333.891 452.968L334.581 453.692L335.092 453.204L334.804 452.56L333.891 452.968ZM261.66 303.305L261.875 304.282L261.965 304.262L262.051 304.226L261.66 303.305ZM261.23 303.43L260.889 302.49L260.886 302.491L261.23 303.43ZM260.602 303.74L260.982 304.665L261.067 304.63L261.144 304.581L260.602 303.74ZM259.014 304.462L259.304 305.418L259.385 305.394L259.46 305.357L259.014 304.462ZM255.702 305.467L255.342 306.4L255.663 306.524L255.992 306.424L255.702 305.467ZM255.401 305.385L255.573 304.4L253.72 304.077L254.488 305.794L255.401 305.385ZM324.065 458.852L323.152 459.26L325.063 458.92L324.065 458.852ZM324.092 458.454L323.906 457.472L323.147 457.615L323.094 458.386L324.092 458.454ZM324.98 457.74L324.248 457.059L324.159 457.155L324.097 457.271L324.98 457.74ZM325.031 457.685L325.637 456.889L324.91 456.335L324.293 457.01L325.031 457.685ZM325.72 457.92L325.88 456.933L325.829 456.925L325.777 456.922L325.72 457.92ZM327.1 457.45L327.565 458.336L327.569 458.334L327.1 457.45ZM328.265 456.664L328.989 457.355L328.989 457.355L328.265 456.664ZM329.09 455.88L329.748 456.633L329.836 456.556L329.904 456.461L329.09 455.88ZM329.73 454.989L329.274 454.099L329.06 454.209L328.919 454.404L329.73 454.989ZM330.305 454.675L330.847 455.515L330.848 455.515L330.305 454.675ZM330.324 454.664L330.109 453.688L330.108 453.688L330.324 454.664ZM330.87 454.53L330.688 453.547L330.635 453.557L330.584 453.572L330.87 454.53ZM323.317 498.334L324.288 498.571L324.369 498.238L324.229 497.926L323.317 498.334ZM241.241 314.893L242.154 314.485L240.801 311.462L240.255 314.728L241.241 314.893ZM237.851 335.16L236.864 334.995L236.815 335.293L236.938 335.569L237.851 335.16ZM321.19 521.427L320.278 521.835L322.19 521.47L321.19 521.427ZM321.29 519.61L322.288 519.675L322.289 519.653L322.29 519.631L321.29 519.61ZM321.15 516.598L322.149 516.543L322.149 516.543L321.15 516.598ZM321.1 515.65L322.099 515.609L322.099 515.604L321.1 515.65ZM320.871 513.239L321.863 513.113L321.863 513.113L320.871 513.239ZM322.24 506.82L321.404 506.272L321.39 506.293L321.377 506.315L322.24 506.82ZM322.469 504.56L323.467 504.619L323.467 504.619L322.469 504.56ZM322.71 502.22L323.526 502.799L323.53 502.793L322.71 502.22ZM322.703 501.327L321.772 501.692L321.772 501.692L322.703 501.327ZM322.71 500.47L321.951 499.819L321.938 499.834L321.927 499.849L322.71 500.47ZM323.185 498.899L322.215 498.656L322.212 498.666L322.21 498.676L323.185 498.899ZM323.185 498.898L324.155 499.141L324.158 499.131L324.16 499.121L323.185 498.898ZM237.791 376.183L238.704 375.774L237.129 372.253L236.795 376.096L237.791 376.183ZM321.233 562.677L322.232 562.702L322.238 562.475L322.146 562.268L321.233 562.677ZM237.14 381.81L236.15 381.669L236.141 381.729L236.14 381.79L237.14 381.81ZM237.78 388.6L236.793 388.758L236.793 388.759L237.78 388.6ZM239.502 407.852L238.503 407.881L238.509 408.079L238.59 408.26L239.502 407.852ZM285.567 510.808L284.654 511.216L285.845 513.876L286.538 511.046L285.567 510.808ZM286.583 507.279L287.516 506.919L286.509 504.31L285.634 506.966L286.583 507.279ZM287.67 512.16L286.671 512.211L286.672 512.227L286.673 512.243L287.67 512.16ZM287.72 513.26H286.72L286.72 513.271L287.72 513.26ZM287.666 515.499L286.667 515.457L286.657 515.692L286.753 515.907L287.666 515.499ZM321.661 591.477L320.748 591.886L322.133 594.983L322.649 591.629L321.661 591.477ZM322.397 585.368L321.402 585.267L322.397 585.368ZM322.48 584.56L321.486 584.45L321.486 584.45L322.48 584.56ZM322.55 582.94L323.55 582.922L323.547 582.778L323.504 582.64L322.55 582.94ZM321.627 580.15L320.676 580.459L320.68 580.471L321.627 580.15ZM321.627 580.149L322.578 579.84L322.574 579.828L321.627 580.149ZM321.31 579.21L322.258 578.892L322.254 578.879L322.249 578.867L321.31 579.21ZM321.015 578.34L321.965 578.03L321.959 578.009L321.951 577.989L321.015 578.34ZM321.015 578.339L320.065 578.653L320.071 578.672L320.078 578.69L321.015 578.339ZM321.014 578.337L320.063 578.647L320.064 578.65L321.014 578.337ZM320.89 577.96L319.89 577.977L319.893 578.13L319.941 578.276L320.89 577.96ZM331.763 614.056L332.571 613.467L330.85 614.464L331.763 614.056ZM332.069 614.74L331.156 615.149L331.375 615.638L331.903 615.726L332.069 614.74ZM332.29 614.78L332.1 615.762L334.59 616.245L333.099 614.193L332.29 614.78ZM332.89 616.575L333.18 615.618L331.081 614.982L331.977 616.984L332.89 616.575ZM339.677 631.744L338.764 632.152L339.125 632.959L339.97 632.7L339.677 631.744ZM342.225 630.875L342.567 631.815L342.567 631.815L342.225 630.875ZM342.85 630.65L342.524 629.705L342.524 629.705L342.85 630.65ZM343.913 626.563L343.167 625.898L342.874 626.225L342.918 626.663L343.913 626.563ZM342.756 620.277L341.808 620.595L341.844 620.702L341.903 620.799L342.756 620.277ZM342.68 620.06L341.741 620.404L341.741 620.405L342.68 620.06ZM336.315 617.544L336.578 616.579L336.55 616.572L336.521 616.566L336.315 617.544ZM336.315 617.544L336.052 618.509L336.08 618.516L336.109 618.523L336.315 617.544ZM319.287 627.328L318.773 628.185L321.497 629.82L320.2 626.919L319.287 627.328ZM292.945 568.453L293.858 568.044L291.963 568.64L292.945 568.453ZM293.478 571.025L292.5 571.235L292.5 571.235L293.478 571.025ZM294.73 580.4L295.727 580.475L295.73 580.443L295.73 580.411L294.73 580.4ZM294.5 582.79L295.494 582.902L295.494 582.902L294.5 582.79ZM293.99 589.375L294.987 589.445L294.987 589.445L293.99 589.375ZM293.45 596.29L292.457 596.175L292.455 596.186L292.454 596.196L293.45 596.29ZM293.441 596.39L292.445 596.296L292.445 596.296L293.441 596.39ZM293.362 597.23L292.366 597.14L292.343 597.4L292.449 597.638L293.362 597.23ZM305.167 623.614L304.254 624.022L304.498 624.568L305.095 624.611L305.167 623.614ZM280.36 540.326L281.341 540.524L281.404 540.21L281.273 539.918L280.36 540.326ZM279.356 565.925L278.443 566.333L280.356 565.921L279.356 565.925ZM250.054 472.591L250.967 472.183L249.404 468.689L249.059 472.501L250.054 472.591ZM250.04 472.75L249.044 472.659L249.043 472.667L250.04 472.75ZM250.04 472.75L249.043 472.667L249.043 472.67L250.04 472.75ZM249.88 475.41L250.863 475.593L250.878 475.513L250.88 475.432L249.88 475.41ZM249.756 476.113L248.771 475.944L248.77 475.949L249.756 476.113ZM249.756 476.113L250.742 476.282L250.743 476.278L249.756 476.113ZM249.65 476.72L250.634 476.899L250.634 476.899L249.65 476.72ZM249.24 479.07L250.224 479.247L250.226 479.24L250.227 479.233L249.24 479.07ZM249.06 480.25L248.068 480.123L248.061 480.179L248.06 480.235L249.06 480.25ZM249.728 488.908L248.735 489.028L248.735 489.028L249.728 488.908ZM250.38 495.35L249.382 495.415L249.391 495.558L249.441 495.694L250.38 495.35ZM250.9 496.58L251.81 496.165L251.807 496.158L251.803 496.151L250.9 496.58ZM251.491 501.681L250.495 501.762L250.495 501.762L251.491 501.681ZM251.709 504.134L250.716 504.25L250.734 504.403L250.796 504.543L251.709 504.134ZM253.672 549.676L254.585 549.268L252.672 549.655L253.672 549.676ZM276.935 601.67L277.644 602.375L278.128 601.889L277.848 601.262L276.935 601.67ZM276.777 601.828L277.482 602.537L277.482 602.537L276.777 601.828ZM276.25 602.45L277.205 602.747L277.208 602.737L277.211 602.727L276.25 602.45ZM275.7 604.05L275.938 605.021L276.44 604.899L276.63 604.418L275.7 604.05ZM273.975 604.425L273.787 603.443L272.669 603.658L273.026 604.738L273.975 604.425ZM275.17 615.09L274.206 614.825L274.206 614.825L275.17 615.09ZM274.735 616.044L273.903 615.488L273.75 615.718L273.736 615.993L274.735 616.044ZM274.35 618.13L273.414 617.779L273.414 617.779L274.35 618.13ZM274.321 618.205L275.246 618.585L275.246 618.585L274.321 618.205ZM274.305 618.243L273.386 617.848L273.163 618.367L273.493 618.827L274.305 618.243ZM273.46 622.53L274.238 623.159L274.241 623.155L273.46 622.53ZM273.392 622.596L272.479 623.004L272.998 624.164L274.004 623.387L273.392 622.596ZM252.782 576.533L251.783 576.495L251.774 576.728L251.87 576.941L252.782 576.533ZM246.999 607.581L246.71 608.538L247.338 608.727L247.761 608.228L246.999 607.581ZM247.825 606.609L248.738 606.201L248.092 604.756L247.065 605.96L247.825 606.609ZM246.85 607.54L247.084 606.568L246.795 606.498L246.514 606.598L246.85 607.54ZM244.72 608.3L244.384 607.358L244.773 609.299L244.72 608.3ZM246.25 608.466L247.014 609.111L248.055 607.877L246.487 607.495L246.25 608.466ZM246.224 608.497L246.723 609.363L246.875 609.276L246.989 609.141L246.224 608.497ZM245.9 608.69L246.418 609.546L246.426 609.54L245.9 608.69ZM243.83 610.94L242.979 610.416L241.894 612.175L243.947 611.933L243.83 610.94ZM243.993 610.922L244.589 611.725L247.514 609.552L243.89 609.928L243.993 610.922ZM243.298 611.434L243.468 612.42L243.699 612.38L243.888 612.242L243.298 611.434ZM240.23 612.76L239.666 611.934L239.535 612.024L239.437 612.151L240.23 612.76ZM239.146 614.178L239.593 615.073L239.801 614.969L239.942 614.784L239.146 614.178ZM237.319 615.035L237.67 615.971L237.703 615.959L237.736 615.944L237.319 615.035ZM234.586 616.02L234.253 615.077L234.248 615.079L234.586 616.02ZM234.585 616.02L234.918 616.963L234.923 616.961L234.585 616.02ZM230.789 617.433L230.476 618.383L230.831 618.5L231.176 618.356L230.789 617.433ZM229.33 617.42L229.056 616.458L229.027 616.467L228.998 616.477L229.33 617.42ZM226.855 623.112L227.822 623.367L227.901 623.069L227.798 622.778L226.855 623.112ZM226.997 625.706L227.997 625.704L227.996 625.42L227.847 625.179L226.997 625.706ZM228.13 628.47L228.456 627.525L228.456 627.525L228.13 628.47ZM228.756 628.695L228.413 629.634L228.413 629.634L228.756 628.695ZM247.504 628.333L247.057 627.439L246.997 627.468L246.941 627.506L247.504 628.333ZM249.73 627.03L250.29 627.859L250.291 627.858L249.73 627.03ZM255.797 624.425L256.049 625.393L257.192 625.094L256.709 624.017L255.797 624.425ZM241.698 453.915L241.237 454.802L243.784 456.127L242.611 453.507L241.698 453.915ZM234.559 437.959L235.472 437.551L233.939 434.125L233.564 437.859L234.559 437.959ZM234.835 441.154L233.875 441.434L233.875 441.434L234.835 441.154ZM234.84 441.17L235.804 440.904L235.802 440.897L235.8 440.89L234.84 441.17ZM235.408 443.863L234.428 444.062L234.43 444.071L235.408 443.863ZM235.408 443.863L236.39 443.674L236.388 443.665L236.386 443.656L235.408 443.863ZM235.408 443.864L234.426 444.054L234.428 444.064L235.408 443.864ZM235.96 446.55L236.939 446.347L236.939 446.345L235.96 446.55ZM238.09 449.42L239.082 449.543L239.144 449.049L238.786 448.702L238.09 449.42ZM240.21 452.83L240.925 452.131L240.901 452.106L240.875 452.084L240.21 452.83ZM241.226 314.86V315.86H242.769L242.139 314.452L241.226 314.86ZM241.13 314.645L242.043 314.237L240.13 314.645H241.13ZM241.13 314.86H240.13V315.86H241.13V314.86ZM330.467 309.764L331.496 312.064L333.322 311.248L332.292 308.947L330.467 309.764ZM331.42 311.803L337.63 353.528L339.609 353.234L333.398 311.509L331.42 311.803ZM316.049 305.385L337.707 353.79L339.532 352.973L317.875 304.568L316.049 305.385ZM316.672 305.933L331.089 310.312L331.67 308.399L317.253 304.02L316.672 305.933ZM299.463 240.47L306.596 256.411L308.421 255.594L301.289 239.653L299.463 240.47ZM306.511 255.938C306.478 256.445 306.44 256.846 306.429 256.924L308.411 257.197C308.432 257.039 308.473 256.573 308.506 256.067L306.511 255.938ZM306.439 256.867C306.376 257.186 306.349 257.696 306.323 258.161L308.32 258.275C308.351 257.729 308.372 257.401 308.401 257.253L306.439 256.867ZM306.321 258.218V258.218H308.321V258.218H306.321ZM306.321 258.218V258.218H308.321V258.218H306.321ZM306.321 258.218V258.218H308.321V258.218H306.321ZM306.321 258.218V258.218H308.321V258.218H306.321ZM306.321 258.218V258.218H308.321V258.218H306.321ZM306.321 258.218V258.218H308.321V258.218H306.321ZM306.321 258.218V258.218H308.321V258.218H306.321ZM306.323 258.161C306.275 258.997 306.218 259.953 306.053 260.706L308.007 261.134C308.212 260.196 308.274 259.071 308.32 258.275L306.323 258.161ZM306.051 260.714C305.952 261.185 305.717 261.722 305.482 261.987L306.978 263.314C307.523 262.699 307.868 261.796 308.009 261.126L306.051 260.714ZM305.487 261.981C304.966 262.56 305.061 263.195 305.086 263.431L307.075 263.223C307.072 263.191 307.069 263.167 307.067 263.146C307.065 263.125 307.064 263.111 307.064 263.102C307.063 263.083 307.065 263.094 307.061 263.121C307.057 263.151 307.046 263.192 307.026 263.236C307.006 263.279 306.984 263.307 306.973 263.319L305.487 261.981ZM305.09 263.468L305.09 263.469L307.07 263.186L307.07 263.186L305.09 263.468ZM305.086 263.431C305.096 263.527 305.1 263.575 305.1 263.62H307.1C307.1 263.456 307.084 263.31 307.075 263.223L305.086 263.431ZM305.1 263.62C305.1 263.577 305.104 263.543 305.107 263.523C305.11 263.502 305.113 263.488 305.115 263.482C305.117 263.472 305.117 263.477 305.108 263.501L306.981 264.201C307.019 264.099 307.1 263.874 307.1 263.62H305.1ZM305.678 264.781C305.782 264.822 306.037 264.999 306.249 265.736L308.171 265.184C307.89 264.204 307.367 263.298 306.411 262.92L305.678 264.781ZM306.252 265.748C306.274 265.82 306.287 265.951 306.234 266.204C306.18 266.465 306.078 266.759 305.939 267.157L307.827 267.818C307.955 267.452 308.106 267.027 308.192 266.612C308.28 266.189 308.323 265.688 308.168 265.172L306.252 265.748ZM305.939 267.157C305.743 267.717 305.483 268.447 305.396 269.253L307.384 269.468C307.443 268.926 307.62 268.407 307.827 267.818L305.939 267.157ZM305.396 269.252C305.311 270.031 305.315 270.745 305.317 271.348L307.317 271.34C307.315 270.728 307.313 270.12 307.384 269.469L305.396 269.252ZM305.317 271.348C305.322 272.626 305.284 273.214 304.94 273.657L306.52 274.883C307.366 273.793 307.321 272.428 307.317 271.34L305.317 271.348ZM304.929 273.671C304.447 274.317 304.013 274.558 303.656 274.618L303.985 276.59C305.013 276.419 305.855 275.773 306.531 274.869L304.929 273.671ZM285.476 237.052L302.908 276.012L304.733 275.196L287.301 236.235L285.476 237.052ZM286.277 237.637C286.441 237.656 286.592 237.678 286.723 237.703L287.097 235.738C286.904 235.701 286.701 235.672 286.5 235.65L286.277 237.637ZM287.097 237.703C287.782 237.573 288.822 237.552 289.296 237.587L289.444 235.593C288.838 235.548 287.618 235.568 286.723 235.738L287.097 237.703ZM289.327 237.589C289.318 237.589 289.322 237.589 289.344 237.591C289.364 237.593 289.391 237.597 289.425 237.601C289.494 237.61 289.578 237.623 289.676 237.637L289.968 235.659C289.808 235.635 289.567 235.598 289.413 235.591L289.327 237.589ZM289.676 237.637C289.83 237.66 290.018 237.688 290.187 237.707C290.314 237.721 290.566 237.75 290.779 237.722L290.521 235.739C290.579 235.731 290.603 235.736 290.559 235.733C290.527 235.731 290.479 235.727 290.414 235.72C290.284 235.705 290.13 235.682 289.968 235.659L289.676 237.637ZM290.782 237.721C290.765 237.724 290.798 237.72 290.912 237.716C291.009 237.712 291.139 237.709 291.293 237.708C291.6 237.707 291.987 237.713 292.376 237.734C292.77 237.755 293.139 237.791 293.422 237.843C293.565 237.869 293.659 237.895 293.714 237.915C293.792 237.943 293.712 237.931 293.608 237.822L295.052 236.438C294.833 236.21 294.562 236.094 294.391 236.033C294.196 235.963 293.985 235.913 293.784 235.876C293.381 235.802 292.915 235.76 292.484 235.737C291.649 235.691 290.766 235.706 290.518 235.739L290.782 237.721ZM293.623 237.837C293.63 237.844 293.639 237.854 293.66 237.876L295.118 236.507C295.1 236.488 295.07 236.456 295.037 236.423L293.623 237.837ZM293.66 237.876C293.703 237.923 293.852 238.09 294.065 238.218L295.095 236.503C295.133 236.526 295.154 236.546 295.157 236.548C295.158 236.549 295.156 236.547 295.149 236.54C295.146 236.537 295.142 236.532 295.136 236.527C295.131 236.521 295.125 236.515 295.118 236.507L293.66 237.876ZM294.007 238.179C294.281 238.372 294.597 238.438 294.67 238.456L295.154 236.515C295.139 236.512 295.127 236.509 295.116 236.506C295.104 236.503 295.095 236.501 295.087 236.498C295.071 236.494 295.065 236.492 295.063 236.491C295.062 236.491 295.07 236.494 295.085 236.501C295.1 236.508 295.124 236.521 295.153 236.541L294.007 238.179ZM294.67 238.456L294.688 238.461L295.172 236.52L295.154 236.515L294.67 238.456ZM294.718 238.468C295.475 238.632 296.258 238.84 296.896 239.051C297.216 239.157 297.487 239.259 297.694 239.35C297.923 239.453 298 239.51 297.995 239.506L299.305 237.995C299.075 237.795 298.77 237.64 298.506 237.523C298.218 237.395 297.881 237.27 297.524 237.152C296.807 236.915 295.955 236.689 295.142 236.513L294.718 238.468ZM297.981 239.494C298.206 239.696 299.225 240.52 299.469 240.694L300.631 239.067C300.455 238.94 299.494 238.164 299.319 238.007L297.981 239.494ZM299.495 240.712C299.603 240.784 299.777 240.876 299.908 240.945L300.845 239.178C300.767 239.137 300.706 239.104 300.659 239.078C300.635 239.065 300.618 239.056 300.607 239.049C300.594 239.042 300.595 239.042 300.605 239.048L299.495 240.712ZM270.238 244.409C270.232 244.419 270.333 244.266 270.561 243.956C270.766 243.677 271.032 243.328 271.308 242.987L269.754 241.728C269.455 242.097 269.17 242.472 268.95 242.771C268.753 243.038 268.556 243.316 268.482 243.451L270.238 244.409ZM269.179 245.575C269.646 245.292 270.048 244.805 270.261 244.365L268.459 243.495C268.392 243.636 268.234 243.809 268.141 243.865L269.179 245.575ZM268.59 247.674C268.625 247.43 268.753 246.856 268.931 246.312C269.019 246.042 269.11 245.81 269.193 245.645C269.235 245.562 269.265 245.516 269.28 245.496C269.301 245.467 269.269 245.522 269.169 245.581L268.151 243.86C267.928 243.991 267.774 244.169 267.675 244.302C267.57 244.444 267.481 244.598 267.408 244.744C267.26 245.036 267.134 245.372 267.03 245.691C266.822 246.324 266.665 247.01 266.61 247.387L268.59 247.674ZM267.798 249.565C267.796 249.597 267.8 249.544 267.845 249.378C267.883 249.238 267.938 249.065 268.003 248.888C268.069 248.71 268.14 248.543 268.208 248.41C268.285 248.259 268.324 248.22 268.307 248.237L266.893 246.823C266.686 247.03 266.533 247.293 266.427 247.499C266.313 247.723 266.211 247.967 266.127 248.195C266.042 248.425 265.969 248.653 265.915 248.852C265.868 249.025 265.814 249.249 265.802 249.436L267.798 249.565ZM267.63 250.672C267.692 250.36 267.772 249.968 267.798 249.563L265.802 249.437C265.786 249.685 265.736 249.943 265.669 250.279L267.63 250.672ZM267.497 251.784C267.474 251.481 267.533 251.158 267.63 250.672L265.669 250.279C265.581 250.715 265.455 251.312 265.503 251.936L267.497 251.784ZM267.259 254.316C267.479 253.448 267.578 252.723 267.496 251.774L265.504 251.946C265.562 252.618 265.501 253.113 265.321 253.825L267.259 254.316ZM267.385 256.89C267.386 256.894 267.385 256.885 267.381 256.858C267.378 256.833 267.374 256.801 267.37 256.76C267.361 256.679 267.35 256.574 267.339 256.451C267.318 256.205 267.294 255.896 267.276 255.583C267.258 255.267 267.246 254.957 267.245 254.702C267.245 254.404 267.263 254.303 267.257 254.327L265.323 253.814C265.252 254.082 265.245 254.442 265.245 254.704C265.246 255.011 265.26 255.363 265.279 255.698C265.316 256.344 265.379 257.022 265.415 257.23L267.385 256.89ZM267.505 258.212C267.478 257.729 267.45 257.185 267.377 256.848L265.423 257.272C265.453 257.412 265.475 257.746 265.508 258.324L267.505 258.212ZM267.506 258.268V258.268H265.506V258.268H267.506ZM267.506 258.268V258.268H265.506V258.268H267.506ZM267.506 258.268V258.268H265.506V258.268H267.506ZM267.767 260.708C267.606 259.967 267.551 259.037 267.505 258.212L265.508 258.324C265.552 259.11 265.612 260.208 265.813 261.133L267.767 260.708ZM268.338 261.987C268.105 261.723 267.868 261.178 267.768 260.711L265.812 261.13C265.952 261.783 266.295 262.697 266.842 263.314L268.338 261.987ZM268.727 263.456C268.754 263.229 268.87 262.558 268.322 261.969L266.858 263.332C266.843 263.315 266.817 263.283 266.795 263.234C266.772 263.185 266.761 263.14 266.757 263.109C266.754 263.081 266.756 263.071 266.755 263.092C266.753 263.117 266.75 263.149 266.741 263.219L268.727 263.456ZM268.715 263.534L268.715 263.534L266.754 263.141L266.754 263.141L268.715 263.534ZM268.71 263.646C268.711 263.599 268.716 263.55 268.727 263.456L266.741 263.219C266.731 263.303 266.714 263.441 266.71 263.595L268.71 263.646ZM268.714 263.534C268.707 263.517 268.702 263.504 268.699 263.494C268.695 263.485 268.694 263.482 268.695 263.484C268.696 263.485 268.699 263.497 268.702 263.517C268.705 263.537 268.71 263.572 268.71 263.62H266.71C266.71 263.907 266.813 264.167 266.856 264.276L268.714 263.534ZM268.226 264.804C268.231 264.801 268.236 264.798 268.241 264.795L267.329 263.015C267.296 263.032 267.263 263.05 267.23 263.069L268.226 264.804ZM336.014 414.11L268.641 263.528L266.815 264.345L334.189 414.927L336.014 414.11ZM333.684 409.438C333.795 411.32 333.946 413.049 334.107 414.62L336.096 414.417C335.938 412.867 335.789 411.168 335.68 409.321L333.684 409.438ZM335.328 389.237C334.312 395.87 333.797 403.41 333.682 409.36L335.682 409.398C335.795 403.515 336.305 396.066 337.305 389.54L335.328 389.237ZM337.229 388.98L271.444 241.949L269.618 242.766L335.403 389.797L337.229 388.98ZM265.072 301.604L332.978 453.376L334.804 452.56L266.898 300.788L265.072 301.604ZM262.051 304.226C263.628 303.556 265.089 302.844 266.474 302.068L265.496 300.324C264.18 301.061 262.785 301.741 261.269 302.385L262.051 304.226ZM261.571 304.37C261.675 304.333 261.777 304.303 261.875 304.282L261.445 302.328C261.261 302.369 261.074 302.423 260.889 302.49L261.571 304.37ZM261.144 304.581C261.265 304.503 261.41 304.429 261.574 304.369L260.886 302.491C260.588 302.6 260.311 302.738 260.061 302.899L261.144 304.581ZM259.46 305.357C259.947 305.114 260.453 304.882 260.982 304.665L260.222 302.815C259.646 303.052 259.095 303.304 258.568 303.566L259.46 305.357ZM255.992 306.424L259.304 305.418L258.723 303.505L255.411 304.51L255.992 306.424ZM255.229 306.371C255.28 306.38 255.318 306.391 255.342 306.4L256.061 304.534C255.902 304.472 255.737 304.429 255.573 304.4L255.229 306.371ZM254.488 305.794L323.152 459.26L324.978 458.443L256.314 304.977L254.488 305.794ZM323.094 458.386L323.067 458.784L325.063 458.92L325.09 458.522L323.094 458.386ZM324.097 457.271C324.035 457.387 323.984 457.432 323.964 457.447C323.945 457.461 323.929 457.467 323.906 457.472L324.278 459.437C324.902 459.319 325.48 458.929 325.863 458.21L324.097 457.271ZM324.293 457.01C324.278 457.026 324.266 457.039 324.259 457.047C324.255 457.052 324.252 457.055 324.25 457.057C324.249 457.057 324.249 457.058 324.248 457.058C324.248 457.059 324.248 457.059 324.248 457.059C324.248 457.059 324.248 457.059 324.248 457.059C324.248 457.059 324.248 457.059 324.248 457.059C324.248 457.059 324.248 457.059 324.248 457.059C324.248 457.059 324.248 457.059 324.248 457.059C324.248 457.059 324.248 457.059 324.248 457.059C324.248 457.059 324.248 457.059 324.98 457.74C325.712 458.422 325.712 458.422 325.712 458.422C325.712 458.422 325.712 458.422 325.712 458.422C325.712 458.422 325.712 458.422 325.712 458.422C325.712 458.422 325.712 458.422 325.712 458.422C325.712 458.422 325.712 458.422 325.712 458.422C325.712 458.421 325.712 458.421 325.712 458.421C325.713 458.421 325.713 458.421 325.713 458.42C325.714 458.419 325.715 458.418 325.717 458.417C325.719 458.414 325.723 458.409 325.728 458.404C325.738 458.394 325.752 458.379 325.769 458.359L324.293 457.01ZM325.72 457.92C325.777 456.922 325.777 456.922 325.777 456.922C325.777 456.922 325.777 456.922 325.778 456.922C325.778 456.922 325.778 456.922 325.778 456.922C325.779 456.922 325.78 456.922 325.78 456.922C325.781 456.922 325.782 456.922 325.783 456.922C325.785 456.922 325.786 456.922 325.787 456.923C325.79 456.923 325.791 456.923 325.791 456.923C325.791 456.923 325.786 456.922 325.779 456.921C325.763 456.919 325.738 456.915 325.709 456.909C325.635 456.891 325.617 456.874 325.637 456.889L324.425 458.48C324.724 458.708 325.051 458.808 325.251 458.855C325.36 458.881 325.454 458.896 325.524 458.905C325.56 458.91 325.59 458.913 325.613 458.915C325.625 458.916 325.635 458.917 325.643 458.917C325.648 458.918 325.651 458.918 325.655 458.918C325.656 458.918 325.658 458.918 325.659 458.918C325.66 458.918 325.661 458.918 325.662 458.919C325.662 458.919 325.662 458.919 325.663 458.919C325.663 458.919 325.663 458.919 325.663 458.919C325.663 458.919 325.663 458.919 325.72 457.92ZM326.635 456.565C326.186 456.8 325.921 456.883 325.803 456.91C325.745 456.924 325.726 456.923 325.741 456.923C325.749 456.922 325.764 456.922 325.788 456.923C325.8 456.924 325.813 456.925 325.829 456.926C325.836 456.927 325.845 456.928 325.853 456.929C325.857 456.93 325.862 456.93 325.866 456.931C325.869 456.931 325.871 456.932 325.873 456.932C325.874 456.932 325.875 456.932 325.877 456.933C325.877 456.933 325.878 456.933 325.878 456.933C325.879 456.933 325.88 456.933 325.72 457.92C325.56 458.907 325.561 458.907 325.562 458.908C325.562 458.908 325.563 458.908 325.564 458.908C325.565 458.908 325.566 458.908 325.567 458.908C325.569 458.909 325.572 458.909 325.574 458.91C325.579 458.91 325.584 458.911 325.589 458.912C325.599 458.913 325.609 458.914 325.62 458.915C325.641 458.918 325.664 458.919 325.688 458.921C325.736 458.923 325.788 458.923 325.846 458.92C325.962 458.914 326.099 458.895 326.259 458.858C326.579 458.783 327.004 458.63 327.565 458.336L326.635 456.565ZM327.542 455.974C327.413 456.109 327.393 456.128 327.33 456.171C327.233 456.239 327.059 456.34 326.632 456.567L327.569 458.334C327.982 458.114 328.26 457.96 328.469 457.815C328.713 457.646 328.855 457.495 328.989 457.355L327.542 455.974ZM328.432 455.127C327.942 455.555 327.705 455.803 327.542 455.974L328.989 457.355C329.125 457.212 329.317 457.01 329.748 456.633L328.432 455.127ZM328.919 454.404C328.734 454.661 328.573 454.885 328.459 455.044C328.402 455.124 328.356 455.188 328.325 455.231C328.309 455.253 328.297 455.27 328.289 455.282C328.285 455.287 328.281 455.292 328.279 455.295C328.278 455.296 328.277 455.297 328.277 455.298C328.277 455.298 328.276 455.299 328.276 455.299C328.276 455.299 328.276 455.299 328.276 455.299C328.276 455.299 328.276 455.299 328.276 455.299C328.276 455.299 328.276 455.299 328.276 455.299C328.276 455.299 328.276 455.299 329.09 455.88C329.904 456.461 329.904 456.461 329.904 456.461C329.904 456.461 329.904 456.461 329.904 456.461C329.904 456.461 329.904 456.461 329.904 456.461C329.904 456.461 329.904 456.461 329.904 456.461C329.904 456.461 329.904 456.461 329.905 456.46C329.905 456.459 329.906 456.458 329.907 456.457C329.909 456.454 329.912 456.45 329.916 456.444C329.924 456.433 329.936 456.416 329.951 456.395C329.982 456.352 330.027 456.289 330.084 456.21C330.197 456.051 330.357 455.83 330.541 455.574L328.919 454.404ZM329.762 453.835C329.759 453.837 329.74 453.85 329.674 453.887C329.604 453.927 329.481 453.993 329.274 454.099L330.186 455.879C330.63 455.652 330.772 455.564 330.847 455.515L329.762 453.835ZM330.108 453.688C329.97 453.719 329.87 453.771 329.823 453.798C329.801 453.81 329.784 453.821 329.777 453.825C329.77 453.83 329.763 453.834 329.762 453.835L330.848 455.515C330.852 455.512 330.849 455.514 330.846 455.516C330.844 455.517 330.83 455.526 330.812 455.537C330.77 455.56 330.674 455.611 330.54 455.641L330.108 453.688ZM330.584 453.572C330.34 453.645 330.243 453.667 330.218 453.672C330.209 453.674 330.232 453.669 330.272 453.666C330.294 453.664 330.312 453.664 330.309 453.664C330.308 453.664 330.301 453.664 330.294 453.664C330.286 453.665 330.273 453.665 330.257 453.666C330.224 453.669 330.172 453.674 330.109 453.688L330.539 455.641C330.479 455.654 330.429 455.659 330.398 455.661C330.383 455.662 330.371 455.663 330.365 455.663C330.362 455.663 330.359 455.663 330.357 455.663C330.356 455.663 330.354 455.663 330.354 455.663C330.353 455.664 330.363 455.663 330.375 455.663C330.388 455.662 330.402 455.662 330.418 455.66C330.484 455.656 330.546 455.646 330.608 455.634C330.726 455.61 330.894 455.567 331.157 455.488L330.584 453.572ZM333.201 452.244C332.67 452.75 332.04 453.081 331.522 453.287C331.266 453.388 331.048 453.455 330.896 453.496C330.821 453.517 330.763 453.53 330.727 453.538C330.709 453.543 330.697 453.545 330.69 453.547C330.687 453.547 330.685 453.548 330.684 453.548C330.684 453.548 330.685 453.548 330.685 453.547C330.685 453.547 330.686 453.547 330.686 453.547C330.687 453.547 330.687 453.547 330.687 453.547C330.687 453.547 330.688 453.547 330.688 453.547C330.688 453.547 330.688 453.547 330.87 454.53C331.052 455.514 331.052 455.514 331.052 455.513C331.052 455.513 331.053 455.513 331.053 455.513C331.053 455.513 331.054 455.513 331.054 455.513C331.055 455.513 331.056 455.513 331.057 455.513C331.06 455.512 331.062 455.512 331.066 455.511C331.072 455.51 331.08 455.508 331.089 455.506C331.108 455.502 331.134 455.497 331.165 455.49C331.228 455.476 331.314 455.455 331.42 455.426C331.631 455.369 331.923 455.279 332.259 455.146C332.925 454.881 333.805 454.431 334.581 453.692L333.201 452.244ZM324.229 497.926L242.154 314.485L240.328 315.302L322.404 498.742L324.229 497.926ZM238.837 335.325L242.227 315.058L240.255 314.728L236.864 334.995L238.837 335.325ZM322.103 521.018L238.764 334.752L236.938 335.569L320.278 521.835L322.103 521.018ZM320.292 519.545C320.251 520.178 320.217 520.784 320.191 521.384L322.19 521.47C322.215 520.887 322.248 520.296 322.288 519.675L320.292 519.545ZM320.152 516.653C320.213 517.764 320.296 519.294 320.29 519.59L322.29 519.631C322.298 519.235 322.206 517.583 322.149 516.543L320.152 516.653ZM320.101 515.692C320.107 515.842 320.127 516.21 320.152 516.653L322.149 516.543C322.124 516.09 322.105 515.741 322.099 515.609L320.101 515.692ZM319.879 513.365C319.966 514.048 320.059 514.786 320.101 515.697L322.099 515.604C322.053 514.606 321.95 513.798 321.863 513.113L319.879 513.365ZM321.377 506.315C320.446 507.907 319.974 509.111 319.796 510.24C319.619 511.362 319.749 512.337 319.879 513.365L321.863 513.113C321.729 512.05 321.646 511.35 321.772 510.551C321.896 509.76 322.241 508.8 323.103 507.325L321.377 506.315ZM321.47 504.5C321.439 505.034 321.408 505.543 321.373 505.939C321.356 506.139 321.339 506.291 321.323 506.395C321.319 506.419 321.315 506.438 321.313 506.453C321.31 506.467 321.308 506.473 321.308 506.473C321.308 506.472 321.309 506.469 321.311 506.462C321.313 506.456 321.316 506.446 321.322 506.432C321.329 506.412 321.353 506.349 321.404 506.272L323.076 507.369C323.186 507.201 323.23 507.029 323.246 506.97C323.269 506.88 323.285 506.788 323.299 506.704C323.325 506.534 323.347 506.329 323.366 506.115C323.404 505.684 323.436 505.143 323.467 504.619L321.47 504.5ZM321.895 501.641C321.769 501.818 321.72 502.004 321.704 502.064C321.679 502.157 321.661 502.253 321.647 502.341C321.619 502.517 321.596 502.731 321.576 502.953C321.536 503.401 321.502 503.963 321.47 504.5L323.467 504.619C323.5 504.072 323.531 503.542 323.568 503.131C323.586 502.923 323.604 502.765 323.622 502.658C323.626 502.633 323.629 502.613 323.632 502.599C323.635 502.584 323.637 502.578 323.636 502.579C323.636 502.58 323.635 502.584 323.633 502.591C323.631 502.598 323.627 502.609 323.621 502.625C323.612 502.646 323.584 502.716 323.526 502.799L321.895 501.641ZM321.772 501.692C321.786 501.729 321.798 501.758 321.808 501.785C321.818 501.811 321.824 501.831 321.829 501.847C321.84 501.879 321.838 501.882 321.836 501.865C321.834 501.845 321.833 501.804 321.845 501.753C321.858 501.701 321.878 501.665 321.89 501.648L323.53 502.793C324.092 501.988 323.722 501.187 323.633 500.961L321.772 501.692ZM321.927 499.849C321.64 500.21 321.548 500.613 321.582 500.99C321.61 501.301 321.727 501.579 321.772 501.692L323.633 500.961C323.603 500.883 323.588 500.844 323.577 500.81C323.567 500.78 323.571 500.784 323.574 500.81C323.577 500.841 323.576 500.894 323.558 500.959C323.54 501.024 323.511 501.069 323.494 501.092L321.927 499.849ZM322.21 498.676C322.131 499.023 322.057 499.344 321.986 499.601C321.95 499.73 321.92 499.822 321.897 499.881C321.863 499.969 321.873 499.911 321.951 499.819L323.469 501.121C323.627 500.937 323.716 500.722 323.762 500.603C323.818 500.457 323.868 500.296 323.912 500.139C323.999 499.827 324.084 499.454 324.16 499.121L322.21 498.676ZM322.215 498.656L322.215 498.656L324.155 499.141L324.155 499.141L322.215 498.656ZM322.345 498.097C322.3 498.283 322.254 498.483 322.21 498.676L324.16 499.121C324.205 498.925 324.247 498.74 324.288 498.571L322.345 498.097ZM236.878 376.591L320.32 563.085L322.146 562.268L238.704 375.774L236.878 376.591ZM237.14 381.81C238.13 381.952 238.13 381.952 238.13 381.952C238.13 381.952 238.13 381.951 238.13 381.951C238.13 381.951 238.13 381.951 238.13 381.951C238.13 381.951 238.13 381.95 238.13 381.949C238.131 381.948 238.131 381.945 238.131 381.942C238.132 381.937 238.133 381.928 238.135 381.917C238.138 381.894 238.143 381.861 238.149 381.818C238.161 381.732 238.178 381.607 238.199 381.448C238.242 381.131 238.302 380.68 238.369 380.143C238.503 379.07 238.668 377.65 238.787 376.269L236.795 376.096C236.678 377.442 236.517 378.835 236.385 379.895C236.318 380.424 236.26 380.868 236.218 381.18C236.196 381.336 236.179 381.459 236.168 381.542C236.162 381.584 236.158 381.616 236.155 381.637C236.153 381.648 236.152 381.656 236.151 381.661C236.151 381.664 236.15 381.666 236.15 381.667C236.15 381.668 236.15 381.668 236.15 381.668C236.15 381.669 236.15 381.669 236.15 381.669C236.15 381.669 236.15 381.669 236.15 381.669C236.15 381.669 236.15 381.669 237.14 381.81ZM238.767 388.442C238.428 386.32 238.271 384.655 238.199 383.525C238.163 382.961 238.149 382.531 238.143 382.245C238.14 382.102 238.139 381.995 238.139 381.925C238.139 381.891 238.139 381.865 238.14 381.849C238.14 381.841 238.14 381.836 238.14 381.833C238.14 381.831 238.14 381.83 238.14 381.83C238.14 381.83 238.14 381.83 238.14 381.83C238.14 381.83 238.14 381.83 238.14 381.83C238.14 381.83 238.14 381.83 238.14 381.83C238.14 381.83 238.14 381.83 237.14 381.81C236.14 381.79 236.14 381.79 236.14 381.79C236.14 381.79 236.14 381.791 236.14 381.791C236.14 381.791 236.14 381.791 236.14 381.792C236.14 381.792 236.14 381.793 236.14 381.794C236.14 381.796 236.14 381.799 236.14 381.802C236.14 381.809 236.14 381.818 236.14 381.829C236.139 381.851 236.139 381.883 236.139 381.925C236.139 382.008 236.14 382.129 236.143 382.285C236.15 382.599 236.165 383.058 236.203 383.653C236.279 384.841 236.442 386.57 236.793 388.758L238.767 388.442ZM240.502 407.822C240.326 401.898 239.777 394.711 238.767 388.441L236.793 388.759C237.785 394.921 238.328 402.019 238.503 407.881L240.502 407.822ZM238.59 408.26L284.654 511.216L286.48 510.399L240.415 407.443L238.59 408.26ZM285.634 506.966C285.242 508.153 284.893 509.357 284.596 510.57L286.538 511.046C286.822 509.888 287.157 508.733 287.533 507.592L285.634 506.966ZM288.669 512.109C288.573 510.229 288.131 508.511 287.516 506.919L285.651 507.639C286.206 509.079 286.588 510.587 286.671 512.211L288.669 512.109ZM288.72 513.26C288.72 512.855 288.698 512.456 288.667 512.077L286.673 512.243C286.702 512.584 286.72 512.925 286.72 513.26H288.72ZM288.665 515.54C288.697 514.782 288.728 514.015 288.72 513.249L286.72 513.271C286.728 513.976 286.699 514.69 286.667 515.457L288.665 515.54ZM286.753 515.907L320.748 591.886L322.573 591.069L288.579 515.09L286.753 515.907ZM321.402 585.267C321.261 586.659 321.012 589.114 320.672 591.325L322.649 591.629C322.998 589.36 323.251 586.855 323.391 585.468L321.402 585.267ZM321.486 584.45C321.464 584.646 321.436 584.927 321.402 585.267L323.391 585.468C323.426 585.125 323.454 584.854 323.474 584.67L321.486 584.45ZM321.55 582.959C321.56 583.462 321.541 583.958 321.486 584.45L323.474 584.671C323.539 584.082 323.561 583.499 323.55 582.922L321.55 582.959ZM320.68 580.471C320.997 581.405 321.308 582.324 321.596 583.24L323.504 582.64C323.208 581.699 322.89 580.76 322.575 579.829L320.68 580.471ZM320.676 580.458L320.676 580.459L322.578 579.841L322.578 579.84L320.676 580.458ZM320.362 579.529C320.468 579.844 320.574 580.158 320.68 580.47L322.574 579.828C322.468 579.516 322.363 579.204 322.258 578.892L320.362 579.529ZM320.064 578.65C320.159 578.94 320.259 579.248 320.371 579.554L322.249 578.867C322.151 578.6 322.062 578.325 321.965 578.03L320.064 578.65ZM320.078 578.69L320.078 578.691L321.951 577.989L321.951 577.988L320.078 578.69ZM320.064 578.65L320.065 578.653L321.964 578.026L321.963 578.024L320.064 578.65ZM319.941 578.276C319.982 578.399 320.022 578.521 320.063 578.647L321.965 578.027C321.924 577.902 321.882 577.773 321.839 577.644L319.941 578.276ZM320.233 562.651C320.039 570.264 319.873 576.94 319.89 577.977L321.89 577.944C321.874 576.963 322.037 570.358 322.232 562.702L320.233 562.651ZM330.85 614.464L331.156 615.149L332.982 614.332L332.675 613.648L330.85 614.464ZM332.481 613.799C332.398 613.783 332.316 613.768 332.234 613.754L331.903 615.726C331.968 615.737 332.034 615.749 332.1 615.762L332.481 613.799ZM330.955 614.645C331.107 614.854 331.238 615.034 331.332 615.163C331.379 615.227 331.416 615.279 331.442 615.314C331.454 615.331 331.464 615.345 331.471 615.354C331.474 615.359 331.477 615.362 331.478 615.364C331.479 615.366 331.48 615.366 331.48 615.367C331.48 615.367 331.481 615.367 331.481 615.368C331.481 615.368 331.481 615.368 331.481 615.368C331.481 615.368 331.481 615.368 331.481 615.368C331.481 615.368 331.481 615.368 331.481 615.368C331.481 615.368 331.481 615.368 332.29 614.78C333.099 614.193 333.099 614.193 333.099 614.193C333.099 614.193 333.099 614.193 333.099 614.193C333.099 614.193 333.099 614.193 333.099 614.193C333.099 614.193 333.099 614.193 333.099 614.192C333.099 614.192 333.099 614.192 333.099 614.192C333.098 614.191 333.097 614.19 333.097 614.189C333.095 614.187 333.092 614.183 333.089 614.179C333.082 614.169 333.072 614.156 333.059 614.138C333.034 614.102 332.996 614.051 332.949 613.986C332.855 613.857 332.723 613.676 332.571 613.467L330.955 614.645ZM331.977 616.984L338.764 632.152L340.59 631.336L333.803 616.167L331.977 616.984ZM341.882 629.936C341.245 630.168 340.397 630.478 339.384 630.788L339.97 632.7C341.038 632.373 341.93 632.047 342.567 631.815L341.882 629.936ZM342.524 629.705C342.342 629.768 342.123 629.848 341.882 629.936L342.567 631.815C342.814 631.724 343.015 631.651 343.176 631.596L342.524 629.705ZM342.918 626.663C343.009 627.581 343.01 628.389 342.889 628.978C342.762 629.597 342.57 629.689 342.524 629.705L343.176 631.596C344.238 631.229 344.673 630.232 344.848 629.38C345.029 628.498 345.007 627.454 344.908 626.464L342.918 626.663ZM341.903 620.799C342.174 621.241 342.79 622.314 343.159 623.448C343.344 624.016 343.449 624.547 343.444 624.993C343.44 625.432 343.331 625.713 343.167 625.898L344.659 627.229C345.244 626.574 345.436 625.765 345.444 625.014C345.452 624.268 345.281 623.507 345.061 622.829C344.619 621.472 343.907 620.242 343.609 619.755L341.903 620.799ZM341.741 620.405C341.765 620.469 341.787 620.533 341.808 620.595L343.704 619.958C343.677 619.877 343.648 619.796 343.619 619.715L341.741 620.405ZM336.052 618.509C337.666 618.949 339.136 619.351 340.243 619.747C340.798 619.945 341.218 620.127 341.503 620.291C341.84 620.485 341.793 620.545 341.741 620.404L343.619 619.716C343.409 619.142 342.887 618.78 342.501 618.558C342.063 618.306 341.512 618.076 340.916 617.863C339.72 617.436 338.166 617.012 336.578 616.579L336.052 618.509ZM336.109 618.523L336.109 618.523L336.521 616.566L336.521 616.565L336.109 618.523ZM332.6 617.532C333.738 617.878 334.925 618.201 336.052 618.509L336.578 616.579C335.446 616.271 334.287 615.954 333.18 615.618L332.6 617.532ZM320.2 626.919L293.858 568.044L292.032 568.861L318.374 627.736L320.2 626.919ZM294.455 570.814C294.267 569.939 294.085 569.094 293.927 568.266L291.963 568.64C292.126 569.496 292.312 570.364 292.5 571.235L294.455 570.814ZM295.73 580.411C295.768 576.899 295.077 573.705 294.455 570.814L292.5 571.235C293.127 574.149 293.765 577.133 293.73 580.389L295.73 580.411ZM295.494 582.902C295.585 582.095 295.666 581.292 295.727 580.475L293.733 580.325C293.674 581.109 293.596 581.885 293.506 582.678L295.494 582.902ZM294.987 589.445C295.178 586.708 295.364 584.048 295.494 582.902L293.506 582.678C293.371 583.878 293.181 586.599 292.992 589.306L294.987 589.445ZM294.443 596.405C294.589 595.144 294.791 592.253 294.987 589.445L292.992 589.306C292.794 592.146 292.596 594.972 292.457 596.175L294.443 596.405ZM294.436 596.485L294.446 596.384L292.454 596.196L292.445 596.296L294.436 596.485ZM294.358 597.32C294.383 597.044 294.409 596.766 294.436 596.485L292.445 596.296C292.418 596.577 292.392 596.859 292.366 597.14L294.358 597.32ZM306.08 623.205L294.275 596.822L292.449 597.638L304.254 624.022L306.08 623.205ZM319.801 626.47C315.255 623.743 309.562 622.929 305.239 622.616L305.095 624.611C309.36 624.919 314.651 625.713 318.773 628.185L319.801 626.47ZM279.38 540.128C278.904 542.487 278.641 546.331 278.499 550.843C278.356 555.378 278.334 560.659 278.356 565.929L280.356 565.921C280.334 560.657 280.356 555.405 280.498 550.906C280.641 546.385 280.902 542.697 281.341 540.524L279.38 540.128ZM281.273 539.918L250.967 472.183L249.142 473L279.448 540.735L281.273 539.918ZM251.036 472.84C251.041 472.788 251.046 472.735 251.05 472.682L249.059 472.501C249.054 472.554 249.049 472.606 249.044 472.659L251.036 472.84ZM251.037 472.833L251.037 472.833L249.043 472.667L249.043 472.667L251.037 472.833ZM250.88 475.432C250.899 474.556 250.967 473.704 251.037 472.83L249.043 472.67C248.973 473.537 248.901 474.445 248.88 475.388L250.88 475.432ZM250.742 476.282C250.782 476.045 250.822 475.817 250.863 475.593L248.897 475.227C248.852 475.467 248.811 475.709 248.771 475.944L250.742 476.282ZM250.743 476.278L250.743 476.278L248.77 475.949L248.77 475.949L250.743 476.278ZM250.634 476.899C250.672 476.691 250.707 476.483 250.742 476.282L248.77 475.944C248.736 476.147 248.702 476.345 248.666 476.541L250.634 476.899ZM250.227 479.233C250.355 478.45 250.494 477.666 250.634 476.899L248.666 476.541C248.526 477.314 248.385 478.11 248.253 478.908L250.227 479.233ZM250.052 480.377C250.1 480.001 250.158 479.618 250.224 479.247L248.256 478.894C248.182 479.302 248.12 479.719 248.068 480.123L250.052 480.377ZM250.721 488.789C250.356 485.763 250.02 482.953 250.06 480.265L248.06 480.235C248.018 483.082 248.374 486.031 248.735 489.028L250.721 488.789ZM251.378 495.286C251.233 493.039 250.971 490.867 250.721 488.789L248.735 489.028C248.986 491.113 249.241 493.232 249.382 495.415L251.378 495.286ZM251.803 496.151C251.624 495.774 251.457 495.383 251.319 495.007L249.441 495.694C249.603 496.138 249.796 496.587 249.997 497.009L251.803 496.151ZM252.488 501.601C252.404 500.554 252.309 499.385 252.208 498.418C252.158 497.935 252.105 497.49 252.049 497.129C252 496.819 251.931 496.431 251.81 496.165L249.99 496.996C249.978 496.968 250.016 497.074 250.072 497.437C250.121 497.749 250.17 498.155 250.219 498.626C250.317 499.565 250.41 500.709 250.495 501.762L252.488 501.601ZM252.702 504.018C252.642 503.5 252.57 502.615 252.488 501.601L250.495 501.762C250.575 502.757 250.65 503.688 250.716 504.25L252.702 504.018ZM280.268 565.516L252.622 503.726L250.796 504.543L278.443 566.333L280.268 565.516ZM252.759 550.085L276.022 602.079L277.848 601.262L254.585 549.268L252.759 550.085ZM276.226 600.965C276.173 601.018 276.122 601.069 276.071 601.12L277.482 602.537C277.532 602.487 277.587 602.433 277.644 602.375L276.226 600.965ZM276.071 601.12C275.937 601.253 275.789 601.4 275.673 601.531C275.587 601.628 275.378 601.864 275.289 602.173L277.211 602.727C277.194 602.786 277.174 602.829 277.161 602.854C277.148 602.879 277.138 602.894 277.135 602.898C277.131 602.904 277.139 602.893 277.17 602.857C277.236 602.783 277.332 602.687 277.482 602.537L276.071 601.12ZM275.295 602.154C275.118 602.724 274.947 603.237 274.77 603.682L276.63 604.418C276.833 603.904 277.022 603.336 277.205 602.747L275.295 602.154ZM275.462 603.079C274.943 603.206 274.382 603.328 273.787 603.443L274.164 605.407C274.79 605.286 275.383 605.157 275.938 605.021L275.462 603.079ZM273.026 604.738C273.566 606.372 274.036 608.295 274.281 610.129C274.528 611.986 274.528 613.652 274.206 614.825L276.134 615.355C276.563 613.797 276.523 611.815 276.263 609.865C276 607.892 275.498 605.848 274.925 604.111L273.026 604.738ZM274.206 614.825C274.138 615.07 274.036 615.289 273.903 615.488L275.567 616.599C275.817 616.225 276.009 615.81 276.134 615.355L274.206 614.825ZM273.736 615.993C273.7 616.705 273.591 617.307 273.414 617.779L275.286 618.482C275.558 617.757 275.691 616.936 275.734 616.094L273.736 615.993ZM273.414 617.779C273.408 617.795 273.402 617.81 273.396 617.825L275.246 618.585C275.26 618.55 275.273 618.516 275.286 618.481L273.414 617.779ZM273.396 617.825C273.393 617.832 273.389 617.84 273.386 617.848L275.223 618.638C275.231 618.62 275.238 618.602 275.246 618.585L273.396 617.825ZM273.493 618.827C273.674 619.078 273.79 619.389 273.739 619.823C273.685 620.284 273.429 620.968 272.679 621.906L274.241 623.155C275.135 622.037 275.613 621.01 275.725 620.057C275.841 619.077 275.558 618.272 275.117 617.659L273.493 618.827ZM272.682 621.902C272.72 621.855 272.755 621.824 272.78 621.805L274.004 623.387C274.082 623.326 274.163 623.251 274.238 623.159L272.682 621.902ZM274.305 622.187L253.695 576.125L251.87 576.941L272.479 623.004L274.305 622.187ZM253.782 576.571C254.135 567.378 254.516 556.941 254.672 549.698L252.672 549.655C252.516 556.879 252.137 567.299 251.783 576.495L253.782 576.571ZM247.761 608.228C248.034 607.907 248.309 607.583 248.586 607.258L247.065 605.96C246.787 606.286 246.51 606.611 246.236 606.934L247.761 608.228ZM246.616 608.512C246.649 608.52 246.68 608.529 246.71 608.538L247.288 606.623C247.221 606.603 247.153 606.585 247.084 606.568L246.616 608.512ZM245.056 609.242L247.186 608.482L246.514 606.598L244.384 607.358L245.056 609.242ZM246.487 607.495C245.998 607.375 245.553 607.327 245.231 607.309C245.069 607.299 244.935 607.297 244.838 607.298C244.79 607.298 244.751 607.299 244.722 607.299C244.708 607.3 244.696 607.3 244.686 607.301C244.682 607.301 244.678 607.301 244.675 607.301C244.673 607.301 244.672 607.301 244.67 607.301C244.67 607.301 244.669 607.302 244.669 607.302C244.668 607.302 244.668 607.302 244.668 607.302C244.668 607.302 244.668 607.302 244.667 607.302C244.667 607.302 244.667 607.302 244.72 608.3C244.773 609.299 244.773 609.299 244.773 609.299C244.773 609.299 244.772 609.299 244.772 609.299C244.772 609.299 244.772 609.299 244.772 609.299C244.771 609.299 244.771 609.299 244.771 609.299C244.77 609.299 244.77 609.299 244.769 609.299C244.769 609.299 244.769 609.299 244.77 609.299C244.771 609.299 244.775 609.299 244.781 609.299C244.794 609.298 244.816 609.298 244.846 609.298C244.906 609.297 244.999 609.299 245.115 609.305C245.351 609.319 245.671 609.354 246.013 609.438L246.487 607.495ZM246.989 609.141L247.014 609.111L245.485 607.821L245.46 607.852L246.989 609.141ZM246.426 609.54C246.526 609.479 246.625 609.42 246.723 609.363L245.726 607.63C245.609 607.697 245.491 607.767 245.374 607.84L246.426 609.54ZM243.83 610.94C244.681 611.465 244.681 611.465 244.681 611.465C244.681 611.465 244.681 611.465 244.681 611.465C244.681 611.466 244.681 611.466 244.681 611.466C244.681 611.466 244.681 611.466 244.681 611.466C244.681 611.466 244.681 611.465 244.682 611.465C244.683 611.463 244.684 611.46 244.687 611.456C244.693 611.447 244.702 611.432 244.714 611.413C244.739 611.375 244.777 611.318 244.826 611.246C244.925 611.101 245.067 610.902 245.239 610.685C245.602 610.228 246.03 609.781 246.418 609.546L245.382 607.835C244.68 608.26 244.073 608.937 243.673 609.441C243.464 609.704 243.294 609.943 243.175 610.117C243.115 610.205 243.067 610.277 243.034 610.328C243.018 610.354 243.005 610.374 242.995 610.389C242.991 610.396 242.987 610.402 242.984 610.407C242.983 610.409 242.982 610.411 242.981 610.412C242.98 610.413 242.98 610.414 242.98 610.414C242.979 610.414 242.979 610.415 242.979 610.415C242.979 610.415 242.979 610.415 242.979 610.415C242.979 610.415 242.979 610.416 243.83 610.94ZM243.89 609.928C243.831 609.934 243.772 609.94 243.713 609.947L243.947 611.933C243.996 611.928 244.046 611.922 244.096 611.917L243.89 609.928ZM243.888 612.242C244.121 612.072 244.355 611.899 244.589 611.725L243.396 610.12C243.166 610.291 242.936 610.46 242.709 610.626L243.888 612.242ZM240.794 613.586C241.787 612.908 242.679 612.555 243.468 612.42L243.129 610.448C242.01 610.641 240.853 611.124 239.666 611.934L240.794 613.586ZM239.942 614.784C240.163 614.493 240.6 613.919 241.023 613.37L239.437 612.151C239.012 612.704 238.572 613.282 238.35 613.573L239.942 614.784ZM237.736 615.944C238.525 615.582 239.216 615.261 239.593 615.073L238.699 613.284C238.358 613.454 237.699 613.76 236.902 614.126L237.736 615.944ZM234.919 616.963C235.817 616.646 236.752 616.315 237.67 615.971L236.968 614.099C236.071 614.435 235.153 614.759 234.253 615.077L234.919 616.963ZM234.923 616.961L234.925 616.961L234.248 615.079L234.246 615.08L234.923 616.961ZM231.176 618.356C232.229 617.914 233.521 617.457 234.918 616.963L234.251 615.078C232.872 615.565 231.519 616.043 230.402 616.511L231.176 618.356ZM229.604 618.382C229.953 618.283 230.228 618.301 230.476 618.383L231.103 616.484C230.465 616.273 229.781 616.252 229.056 616.458L229.604 618.382ZM227.798 622.778C227.482 621.887 227.628 620.892 228.065 620.018C228.516 619.118 229.181 618.533 229.662 618.363L228.998 616.477C227.88 616.871 226.879 617.921 226.277 619.122C225.662 620.349 225.37 621.918 225.913 623.447L227.798 622.778ZM227.847 625.179C227.636 624.839 227.592 624.24 227.822 623.367L225.888 622.858C225.621 623.873 225.487 625.169 226.147 626.233L227.847 625.179ZM228.456 627.525C228.416 627.511 228.302 627.461 228.187 627.145C228.067 626.817 227.998 626.332 227.997 625.704L225.997 625.709C225.998 626.439 226.074 627.19 226.308 627.832C226.547 628.485 226.999 629.138 227.804 629.416L228.456 627.525ZM229.098 627.756C228.858 627.668 228.638 627.588 228.456 627.525L227.804 629.415C227.966 629.471 228.166 629.544 228.413 629.634L229.098 627.756ZM246.941 627.506C243.756 629.672 240.114 630.044 236.817 629.705C233.518 629.366 230.657 628.325 229.098 627.756L228.413 629.634C229.978 630.206 233.043 631.328 236.613 631.695C240.186 632.062 244.356 631.683 248.066 629.16L246.941 627.506ZM249.17 626.202C248.477 626.67 247.771 627.081 247.057 627.439L247.951 629.227C248.743 628.831 249.525 628.376 250.29 627.859L249.17 626.202ZM255.544 623.458C253.275 624.05 251.067 624.917 249.169 626.202L250.291 627.858C251.944 626.738 253.924 625.948 256.049 625.393L255.544 623.458ZM246.913 607.018L254.884 624.834L256.709 624.017L248.738 606.201L246.913 607.018ZM242.611 453.507L235.472 437.551L233.646 438.367L240.786 454.324L242.611 453.507ZM235.795 440.873C235.709 440.58 235.405 439.548 235.554 438.059L233.564 437.859C233.377 439.719 233.759 441.037 233.875 441.434L235.795 440.873ZM235.8 440.89L235.795 440.873L233.875 441.434L233.88 441.451L235.8 440.89ZM236.388 443.664C236.128 442.387 235.894 441.231 235.804 440.904L233.876 441.437C233.942 441.676 234.155 442.721 234.428 444.062L236.388 443.664ZM236.386 443.656L236.386 443.655L234.43 444.071L234.43 444.071L236.386 443.656ZM236.39 443.674L236.39 443.674L234.426 444.053L234.426 444.054L236.39 443.674ZM236.39 443.675L236.39 443.674L234.426 444.054L234.426 444.054L236.39 443.675ZM236.939 446.345C236.757 445.479 236.564 444.529 236.388 443.665L234.428 444.064C234.604 444.926 234.798 445.882 234.981 446.756L236.939 446.345ZM238.09 449.42C238.786 448.702 238.786 448.702 238.786 448.702C238.786 448.702 238.786 448.702 238.786 448.702C238.786 448.702 238.786 448.702 238.786 448.702C238.786 448.702 238.786 448.702 238.786 448.702C238.785 448.701 238.784 448.7 238.783 448.699C238.78 448.696 238.775 448.692 238.769 448.686C238.757 448.674 238.738 448.655 238.714 448.631C238.665 448.582 238.593 448.51 238.507 448.42C238.333 448.239 238.1 447.99 237.863 447.714C237.624 447.434 237.393 447.142 237.215 446.873C237.021 446.58 236.951 446.405 236.939 446.347L234.981 446.754C235.074 447.2 235.322 447.637 235.548 447.977C235.789 448.341 236.077 448.702 236.344 449.014C236.614 449.329 236.874 449.608 237.067 449.808C237.163 449.908 237.244 449.989 237.301 450.046C237.329 450.074 237.352 450.097 237.367 450.112C237.375 450.12 237.382 450.126 237.386 450.131C237.388 450.133 237.39 450.135 237.392 450.136C237.392 450.137 237.393 450.137 237.393 450.138C237.393 450.138 237.394 450.138 237.394 450.138C237.394 450.138 237.394 450.138 237.394 450.138C237.394 450.138 237.394 450.138 238.09 449.42ZM240.21 452.83C240.875 452.084 240.875 452.084 240.875 452.084C240.875 452.084 240.876 452.084 240.876 452.084C240.876 452.084 240.876 452.084 240.876 452.084C240.876 452.084 240.876 452.084 240.876 452.084C240.875 452.084 240.874 452.083 240.873 452.082C240.87 452.079 240.865 452.075 240.859 452.068C240.845 452.056 240.824 452.037 240.796 452.011C240.741 451.959 240.66 451.882 240.563 451.784C240.367 451.588 240.111 451.316 239.864 451.01C239.612 450.699 239.391 450.38 239.245 450.086C239.09 449.774 239.075 449.601 239.082 449.543L237.098 449.297C237.02 449.924 237.228 450.52 237.454 450.976C237.69 451.45 238.009 451.897 238.309 452.268C238.613 452.643 238.919 452.967 239.147 453.196C239.262 453.311 239.358 453.404 239.428 453.469C239.462 453.502 239.49 453.527 239.51 453.545C239.52 453.555 239.528 453.562 239.534 453.567C239.537 453.57 239.539 453.572 239.541 453.573C239.542 453.574 239.543 453.575 239.543 453.576C239.544 453.576 239.544 453.576 239.544 453.576C239.544 453.576 239.545 453.577 239.545 453.577C239.545 453.577 239.545 453.577 240.21 452.83ZM242.16 453.028C241.738 452.809 241.301 452.515 240.925 452.131L239.495 453.529C240.053 454.1 240.677 454.511 241.237 454.802L242.16 453.028ZM242.139 314.452L242.043 314.237L240.217 315.054L240.314 315.269L242.139 314.452ZM242.13 314.86V314.645H240.13V314.86H242.13ZM241.226 313.86H241.13V315.86H241.226V313.86Z" fill="#A1A1A1" mask="url(#path-3-inside-1_229_41)"/>
</g>
<defs>
<clipPath id="clip0_229_41">
<rect width="117.817" height="397.858" fill="white" transform="translate(226.628 237.572)"/>
</clipPath>
</defs>
</svg>
