<svg xmlns="http://www.w3.org/2000/svg" viewBox="0 0 50.94 164.85"><defs><style>.cls-1{fill:#914420;}.cls-1,.cls-2,.cls-3,.cls-4,.cls-5,.cls-6,.cls-7{fill-rule:evenodd;}.cls-2{fill:#7d1520;}.cls-3{fill:#60443d;}.cls-4,.cls-6,.cls-8{fill:#4f2212;}.cls-4,.cls-8{stroke:#4f2212;stroke-linejoin:bevel;stroke-width:0.16px;}.cls-5{fill:#fcc89c;}.cls-7{fill:#793118;}</style></defs><g id="Layer_2" data-name="Layer 2"><g id="Layer_2-2" data-name="Layer 2"><path class="cls-1" d="M43.35,117.35c-.05.78-.11,4-.16,9.66q-.13,8-.76,16.51c0,.72-.18,2.82-.37,6.33s-.3,5.44-.29,5.7a8,8,0,0,0,.17,1.83c.07.34.13.59.18.76a4.3,4.3,0,0,1,.17,1.65c0,.59-.69,1.11-1.95,1.57a23.22,23.22,0,0,1-4.43,1.07,34.19,34.19,0,0,0-4.12.85,5.92,5.92,0,0,1-1.79.37c-.19-1,1.31-2.75,4.48-5.15a6.25,6.25,0,0,0,.76-1,7.07,7.07,0,0,0,.95-2.79,15.45,15.45,0,0,0,0-2.8c-.09-1.49-.26-3.2-.52-5.12q-1.42-10-1.89-20c-.16-5.71-.31-9.27-.47-10.68l9.23.1Z"/><path class="cls-1" d="M27.15,112l.77,1.14q-.09,1.17-.32,9.66-.26,8-1,16.51-.11,1.08-.48,6.33t-.38,5.7a9.65,9.65,0,0,0,.09,1.66c.09.59.16,1.07.24,1.44a3,3,0,0,1,0,1.31q-.24.75-3.21.33c-2.07-.29-4-.56-5.74-.79.39-.33.81-.66,1.28-1a5.72,5.72,0,0,0,.77-1,7.17,7.17,0,0,0,1-2.79,14.65,14.65,0,0,0,.06-2.8c-.06-1.49-.21-3.2-.44-5.12q-1.24-10.05-1.57-20-.11-8.58-.3-10.69Z"/><path class="cls-2" d="M15.23,102.85c0,1.49,0,3.32-.12,5.48s-.24,3.61-.34,4.32l-.42,2.58c-.17,1-.31,1.76-.41,2.14-.24-.08-.39,0-.47.16l.13,1.16-.13,1.07a21.44,21.44,0,0,0,6.73,1.59,50.26,50.26,0,0,0,9.82,0,5.33,5.33,0,0,1,.38-2.12.49.49,0,0,0-.55-.35l.59-4.23c.24-1.52.46-2.71.67-3.57a37.81,37.81,0,0,0,.71-4.67q.41-3.42,1.36-16.27l-17.41-.65Z"/><path class="cls-2" d="M47,104.37q.09,2.34.18,4.47c.11,2.85.5,6.51,1.14,11,.6.06.9.24.9.52a2.36,2.36,0,0,0-.16,1.2,1.79,1.79,0,0,0,.32.92,45.92,45.92,0,0,1-10,1.64,17.89,17.89,0,0,1-7.23-.87,18.16,18.16,0,0,0-.39-1.86c-.14-.35-.08-.55.21-.59,0-.13-.11-.77-.29-1.92A59.84,59.84,0,0,0,31,111q-.68-4.73-2-20.06l17.18-1.14q.72,11.08.74,11.67C46.9,101.82,46.93,102.8,47,104.37Z"/><path class="cls-1" d="M8.82,156.83l0,.45c.26,1,1.06,1.37,2.39,1.12.69-.21,1.39-.44,2.11-.69a11.07,11.07,0,0,0,1.59,0,14.63,14.63,0,0,0,2.59-.55,11.33,11.33,0,0,1,3.93-.59c.78.1,1.7.24,2.77.41a1.67,1.67,0,0,0,1.95-1.32,3.9,3.9,0,0,0-.12-1.56,15.83,15.83,0,0,1-.24-2.61c0-.91-.52-1.49-1.57-1.73a4.52,4.52,0,0,0-3.29.61,7,7,0,0,0-.79.59,8.48,8.48,0,0,1-3.41,1.84,18.79,18.79,0,0,0-3.27,1.16c-.41.17-.92.36-1.54.57l-.47.45h0l.47-.25h.42l.06.14-.65,0a1.55,1.55,0,0,1-.28.12l-.4.14-.38.45.34-.18.69-.19.41.07-.45.06-1,.24-.46.18-.34.68a17.22,17.22,0,0,1,1.87-.53,1.7,1.7,0,0,0,.74-.2l-.23.24a3.33,3.33,0,0,1-1.08.24l-1.38.29Zm15.42-4a2.25,2.25,0,0,0,.1-1.12,6.15,6.15,0,0,1,.15.66,1,1,0,0,1-.47,1.08l-.5-.08A.72.72,0,0,0,24.24,152.84ZM9.47,157.32l1-.51.06-.23a.52.52,0,0,1,.08.19.11.11,0,0,1,0,.08.5.5,0,0,1,0,.12l-1.16.55L9,156.83l.14,0Z"/><path class="cls-3" d="M9.81,156.44l1.38-.29a3.33,3.33,0,0,0,1.08-.24l.23-.24a1.7,1.7,0,0,1-.74.2,17.22,17.22,0,0,0-1.87.53Zm1.94-1.61.65,0-.06-.14h-.42l-.47.25h0A1.55,1.55,0,0,0,11.75,154.83Zm-.07.47.45-.06-.41-.07-.69.19-.34.18ZM24,153.46a1,1,0,0,0,.47-1.08,6.15,6.15,0,0,0-.15-.66,2.25,2.25,0,0,1-.1,1.12.72.72,0,0,1-.72.54ZM9,156.83l.38.69,1.16-.55a.5.5,0,0,0,0-.12.11.11,0,0,0,0-.08.52.52,0,0,0-.08-.19l-.06.23-1,.51-.32-.51Z"/><path class="cls-1" d="M27.28,163l-.28.14-.48-.06a.9.9,0,0,1-.58-.59.78.78,0,0,1,0-.14,1.88,1.88,0,0,1,0-1v0a.25.25,0,0,0,0-.07l.1,0s0,0,0,0,0,0,0,0h0v0a.34.34,0,0,1,.12,0,13.06,13.06,0,0,0,4.11-1.9,32.31,32.31,0,0,0,5.54-4.09c.9-1,1.68-1.29,2.36-1a6.7,6.7,0,0,0,1.22.44,1.47,1.47,0,0,1,.4.1l.6.27a.65.65,0,0,1,.35.51A6.74,6.74,0,0,1,41,156.5a16.76,16.76,0,0,0,.49,2.37h0a5.19,5.19,0,0,1,.08,1.12c0,.48-.17.79-.4.92l-2,.82a40.65,40.65,0,0,1-5.72,1.85,1.31,1.31,0,0,1-.77.68,1.75,1.75,0,0,1-.4.16.51.51,0,0,1-.36,0l0,0,0,0a4.46,4.46,0,0,0,.3-1.53v0A3.93,3.93,0,0,1,31.8,164a1,1,0,0,0,0,.1l-.2.35a.16.16,0,0,0,0,.1,1.31,1.31,0,0,1-1,.21l0-.6v-.06c.1-.28.18-.5.22-.67a5.57,5.57,0,0,0,.19-1,2.57,2.57,0,0,0-.29.71,5.82,5.82,0,0,0-.24.7v0s0,0,0,.06l-.64.88q-.66.13-.9-.21a.72.72,0,0,1,.1-.81v0a5.56,5.56,0,0,0,.24-.61,9.12,9.12,0,0,0,.28-1s0,0,0,0A3.29,3.29,0,0,0,29,163a6.5,6.5,0,0,1-.24.61h0l-.58.66c-.59.17-.92.11-1-.19l0-.61c.08-.09.15-.19.22-.28s0,0,0,0l.18-.25,0,0c.08-.12.16-.24.26-.37a11.35,11.35,0,0,0,.65-1.1.09.09,0,0,1-.06,0,2.46,2.46,0,0,0-.75.84c-.18.28-.32.52-.44.71Zm-.72-1a1.16,1.16,0,0,0,.06.16.87.87,0,0,0,.6-1.08,1.36,1.36,0,0,0,0-.2.72.72,0,0,0-.24.55.36.36,0,0,1-.26.4,1.69,1.69,0,0,0-.38-.65l-.18,0-.06.16,0,0A1.57,1.57,0,0,1,26.56,162Zm12.19-3.84.5.08a1,1,0,0,0,.48-1.08c0-.21-.09-.43-.16-.67a2.14,2.14,0,0,1-.1,1.12A.72.72,0,0,1,38.75,158.13Zm-8,6.17v.14l.62,0,0-.18-.06-.11-.08.23-.38,0,0-.25-.1,0ZM28.93,164v.14a.62.62,0,0,0,.64.15l.1,0,0-.22c-.48.29-.7.24-.68-.17Zm-.78-.39c-.38.36-.56.32-.53-.14l-.1.19a.67.67,0,0,0,.38.28.25.25,0,0,0,.25-.06l0-.22Zm3.91.62h.08l.26,0,0-.06,0-.07-.24.07-.12-.09v.11Z"/><path class="cls-3" d="M32.62,164.26l-.28.18v0h-.12A1.75,1.75,0,0,0,32.62,164.26Zm-.86-.17a1,1,0,0,1,0-.1,3.93,3.93,0,0,0,.36-1.14v0a4.46,4.46,0,0,1-.3,1.53A1.37,1.37,0,0,0,31.76,164.09ZM29,163a3.29,3.29,0,0,1,.42-.88s0,0,0,0a9.12,9.12,0,0,1-.28,1,5.56,5.56,0,0,1-.24.61.42.42,0,0,0-.18-.13A6.5,6.5,0,0,0,29,163Zm1.66.1a2.57,2.57,0,0,1,.29-.71,5.57,5.57,0,0,1-.19,1c0,.17-.12.39-.22.67l-.12-.26A5.82,5.82,0,0,1,30.65,163.13Zm-2.91-.83a2.46,2.46,0,0,1,.75-.84.09.09,0,0,0,.06,0,11.35,11.35,0,0,1-.65,1.1c-.1.13-.18.25-.26.37l-.34.12C27.42,162.82,27.56,162.58,27.74,162.3Zm-1.6-1.12.18,0a1.69,1.69,0,0,1,.38.65.36.36,0,0,0,.26-.4.72.72,0,0,1,.24-.55,1.36,1.36,0,0,1,0,.2.87.87,0,0,1-.6,1.08,1.16,1.16,0,0,1-.06-.16,1.57,1.57,0,0,0-.5-.61h0v0Zm13.43-4.72c.07.24.12.46.16.67a1,1,0,0,1-.48,1.08l-.5-.08a.72.72,0,0,0,.72-.55A2.14,2.14,0,0,0,39.57,156.46Zm-9.88,7.6,0,.22-.1,0a.62.62,0,0,1-.64-.15V164l.08-.12C29,164.3,29.21,164.35,29.69,164.06Zm1.16.09,0,.25.38,0,.08-.23.06.11,0,.18-.62,0v-.26Zm-2.7-.26a.25.25,0,0,1-.25.06.67.67,0,0,1-.38-.28l.1-.19c0,.46.15.5.53.14l0,0Zm3.91.24.12.09.24-.07,0,.07,0,.06-.26,0h-.08v-.11Z"/><path class="cls-1" d="M1.09,102.14a.93.93,0,0,1-.22.31l-.3.16a.87.87,0,0,1-.54-.55,1.58,1.58,0,0,1,.08-.88,4.58,4.58,0,0,0,.35-.76,20.05,20.05,0,0,1,1.6-3l.08,0c0-.08,0-.1,0-.07a2.38,2.38,0,0,1-.71-.17A1.1,1.1,0,0,1,1,96.87c-.51-.29-.77-.61-.79-1a1,1,0,0,1,.41-.51,1.37,1.37,0,0,0,.66.1,2.36,2.36,0,0,0,1.13-.14A1.46,1.46,0,0,1,3,95.19a1.74,1.74,0,0,1,.49-.36,9.42,9.42,0,0,0,1-.61,4.59,4.59,0,0,1,2-.61A3,3,0,0,1,9.2,94.78a2.93,2.93,0,0,1,.41.52A4.74,4.74,0,0,1,9,97.5a1.54,1.54,0,0,1-.4.69,2.92,2.92,0,0,1-.59.7,9.72,9.72,0,0,0-1.2,1.69,2.52,2.52,0,0,0-.49,1.21c-.14.2-.2.33-.18.38a3.27,3.27,0,0,0-.08.7,1.22,1.22,0,0,1-.38.87l-.24-.06a.39.39,0,0,0-.2-.17s0-.15-.22-.35a1.57,1.57,0,0,1,.18-1.22l0,.11c.12-.25.32-.64.61-1.18l-.08,0a5.35,5.35,0,0,0-.54,1,2.85,2.85,0,0,0-.28,1.38,3.28,3.28,0,0,1-.09.52s-.06.07,0,.11a.79.79,0,0,1-.65.45.11.11,0,0,0-.15.08l-.2-.17a3.06,3.06,0,0,1-.25-1.92.71.71,0,0,0,0-.22l0,0a13,13,0,0,0,.75-1.44,5.34,5.34,0,0,0-.75,1.26,3.14,3.14,0,0,0-.1.34.69.69,0,0,0-.17.56s-.07.1-.07.22c-.13.57-.29.85-.5.84,0,.08-.05.09-.08,0q-.34.1-.39,0L2,103.8a4.54,4.54,0,0,1-.28-2.47l.08,0a1,1,0,0,1,.14-.26L2,101a1.55,1.55,0,0,1,.35-.76,3.81,3.81,0,0,0-.72,1.15A2.14,2.14,0,0,1,1.09,102.14ZM3.45,97a2.35,2.35,0,0,1-1.15.26,3.28,3.28,0,0,0,2.31-.52A1.86,1.86,0,0,1,5,96.59,2.66,2.66,0,0,0,3.45,97Zm4-.52-.08-.14a2.27,2.27,0,0,1-1.28.23A1.9,1.9,0,0,0,7.48,96.47ZM6.1,100a3,3,0,0,1-2.76-1.39,2.75,2.75,0,0,0-.22-.54l-.08,0A2.61,2.61,0,0,0,6.1,100Z"/><path class="cls-4" d="M5.17,101.86a5.35,5.35,0,0,1,.54-1l.08,0c-.29.54-.49.93-.61,1.18l0-.11Zm-3.53-.49a3.81,3.81,0,0,1,.72-1.15A1.55,1.55,0,0,0,2,101l-.08,0Zm2.57-.76a13,13,0,0,1-.75,1.44v-.18A5.34,5.34,0,0,1,4.21,100.61Zm-1.09-2.5a2.75,2.75,0,0,1,.22.54A3,3,0,0,0,6.1,100,2.61,2.61,0,0,1,3,98.16ZM7.4,96.33l.08.14a1.9,1.9,0,0,1-1.36.09A2.27,2.27,0,0,0,7.4,96.33Zm-2.79.4a3.28,3.28,0,0,1-2.31.52A2.35,2.35,0,0,0,3.45,97,2.66,2.66,0,0,1,5,96.59,1.86,1.86,0,0,0,4.61,96.73Z"/><path class="cls-1" d="M13.81,53.61a54.78,54.78,0,0,1-.76,8.54,49.15,49.15,0,0,0-.85,5.43q-.4,2.74-.69,3.93c-.1.72-.15,1.22-.16,1.49a1,1,0,0,0,.3.7,7,7,0,0,0,.94.69,3.85,3.85,0,0,0,1.63.64,2.43,2.43,0,0,0,2.23-.13c.54-1.28,1.21-3.13,2-5.57s1.38-5.24,2.07-8.21a34,34,0,0,0,1.36-7.74,7.36,7.36,0,0,0-1.18-4.31,6.44,6.44,0,0,0-2.64-2.28,2.21,2.21,0,0,0-2.89,1A12.49,12.49,0,0,0,13.81,53.61Z"/><path class="cls-1" d="M7.22,96.51a2.81,2.81,0,0,0,2.3-.89,5.58,5.58,0,0,0,1.13-2.31c.37-1.08.88-2.52,1.55-4.32q.86-2.44,1.9-5.08c.56-1.74,1.06-3.37,1.51-4.86a39.14,39.14,0,0,0,1-5q.23-2.66-1.83-3a3.47,3.47,0,0,0-3,.53,11.84,11.84,0,0,0-1.63,3.34,49.75,49.75,0,0,0-1.44,4.83,49.61,49.61,0,0,0-1.08,5.09c-.36,1.88-.7,3.6-1,5.17S6,92.85,5.72,93.68a5,5,0,0,0-.06,2.09C5.71,96.18,6.23,96.43,7.22,96.51Z"/><path class="cls-2" d="M14.41,44.09c.76-1.11,2.06-1.51,3.9-1.17s2.93,1.85,3.31,4.54A92.54,92.54,0,0,1,21.45,63q-6.09,1.74-10.62-.37a50.89,50.89,0,0,1,1.26-12.47A21.47,21.47,0,0,1,14.41,44.09Z"/><path class="cls-1" d="M40.86,43.9a19.12,19.12,0,0,0-3,2.93q-8,9.42-14.07,8.34a9.41,9.41,0,0,1-4.38-1.71,6.59,6.59,0,0,1-2.09-3.15,9.74,9.74,0,0,1,.27-8,9.78,9.78,0,0,0,4-2.51,5.8,5.8,0,0,0,1.11-3,16.86,16.86,0,0,0-.07-2.49l.1-5.8c.84,0,2.71-.28,5.59-.67a14.87,14.87,0,0,1,4,.14c2.14.3,3.46.46,4,.47l-1.11,5.12A7.65,7.65,0,0,0,35,36.6a4.62,4.62,0,0,0,1.14,2.13q.86.95,4.36,4.74C40.6,43.63,40.74,43.76,40.86,43.9Zm.6-.57.12.08,0,0A.75.75,0,0,0,41.46,43.33Z"/><path class="cls-5" d="M19.88,40.45a22.7,22.7,0,0,1-5.14,2.67c-.05.52-.17,1.64-.34,3.36s-.22,6.23-.11,13.51Q16.47,79.72,12,94.45q14.15,6.35,35.26,3.34-1.38-18.23-1.91-37c-.15-3.72-.2-7-.15-9.67a30,30,0,0,0-.46-6.56c-1-.86-1.82-1.56-2.51-2.08s-1.34-1-1.92-1.48h0v0a1.34,1.34,0,0,0-.46-.12A5.72,5.72,0,0,0,36,41.6a32.35,32.35,0,0,0-5.41,4.78Q27,50.1,24.86,50.58a5.45,5.45,0,0,1-3.16.06,3.62,3.62,0,0,1-1.83-1.73,8.69,8.69,0,0,1-1-4.88A8.6,8.6,0,0,1,19.88,40.45Z"/><path class="cls-2" d="M19.88,40.45a8.6,8.6,0,0,0-1,3.58,8.69,8.69,0,0,0,1,4.88,3.62,3.62,0,0,0,1.83,1.73,5.45,5.45,0,0,0,3.16-.06q2.1-.48,5.75-4.2A32.35,32.35,0,0,1,36,41.6a5.72,5.72,0,0,1,3.77-.78,1.34,1.34,0,0,1,.46.12L39.07,40a13.29,13.29,0,0,1-1-.88c-.37-.34-.61-.49-.72-.47a7.78,7.78,0,0,0-3.51,1.67,49.64,49.64,0,0,0-4.17,4A13.31,13.31,0,0,1,24.28,48c-1.7.51-2.71.11-3.06-1.2a17.14,17.14,0,0,1-.6-3.23,6.78,6.78,0,0,1,.1-1.86,3.24,3.24,0,0,1,.78-1.79q-.32-.27-.54-.09a2.09,2.09,0,0,1-.42.27C20.41,40.17,20.19,40.28,19.88,40.45Z"/><path class="cls-6" d="M24.81.09a26.28,26.28,0,0,1,6.62.26,28.59,28.59,0,0,1,6.89,2.29A10.21,10.21,0,0,1,44,8a17.25,17.25,0,0,1,1.22,8.69q-.69,7.41-5.36,10.62-4,2.73-10.12,2.07a23.71,23.71,0,0,1-10-3.39c-3-1.85-4.46-3.88-4.33-6.07a75,75,0,0,0-.09-8.09,8.73,8.73,0,0,1,3.3-7.7A7.83,7.83,0,0,1,24.81.09Z"/><path class="cls-1" d="M26.4,5.3a35.13,35.13,0,0,1,6,.86,8.79,8.79,0,0,1,5.42,3.35,7.3,7.3,0,0,1,1.24,6.05,21.55,21.55,0,0,0-.32,6.71c.66,1.28,1.15,1.92,1.46,1.92s.07.68-.74,2a31.81,31.81,0,0,0-2.35,5.05A10.59,10.59,0,0,1,33,36.36,12.31,12.31,0,0,1,25,38a17.26,17.26,0,0,1-7.86-2.23,8.76,8.76,0,0,1-3.93-5.42A15.17,15.17,0,0,1,14,22a22.5,22.5,0,0,0,1.41-8.13,10.7,10.7,0,0,1,1.8-6.47q2-3.2,4.35-2.68A27.37,27.37,0,0,0,26.4,5.3Z"/><path class="cls-1" d="M39.51,23.24c-.44.57-1,2.28-1.7,5.15L37.44,30l.45.05a5.09,5.09,0,0,0,3.56-.8,4.1,4.1,0,0,0,1.9-3,3.25,3.25,0,0,0-.51-2.4,2.41,2.41,0,0,0-1.79-1,2,2,0,0,0-1.35.34Z"/><path class="cls-4" d="M42.24,25.12a1.49,1.49,0,0,0-1.47-.5,3.75,3.75,0,0,0-1.48.91Z"/><path class="cls-1" d="M40.61,9.64a4.6,4.6,0,0,0-1-2.76,4.56,4.56,0,0,0-2.94-2,8.69,8.69,0,0,1,2.61,2A6.35,6.35,0,0,1,40.61,9.64Z"/><path class="cls-1" d="M41.71,8.46a4.15,4.15,0,0,0-.84-2.29,3.89,3.89,0,0,0-2.4-1.64A7.24,7.24,0,0,1,40.6,6.17,5.34,5.34,0,0,1,41.71,8.46Z"/><path class="cls-1" d="M39,9.7a3.74,3.74,0,0,0-.78-2.06,3.33,3.33,0,0,0-2.16-1.49A6.55,6.55,0,0,1,38,7.64,5,5,0,0,1,39,9.7Z"/><path class="cls-1" d="M43.53,107.28a5,5,0,0,1-2.62-4,.57.57,0,0,1,.08.26,6,6,0,0,0,2.54,3.78h.08a3.41,3.41,0,0,1,.44.17,3.17,3.17,0,0,0,1.31.09,2.65,2.65,0,0,1-.87-.35A6.25,6.25,0,0,1,42,103.41a3,3,0,0,1,.27.78,7.1,7.1,0,0,0,3.14,3.35h.09a2.75,2.75,0,0,1,.52.08,1.05,1.05,0,0,0,.61,0l-.17-.6a9,9,0,0,0-1-.86,4.41,4.41,0,0,1-1.83-2.66,1.1,1.1,0,0,1,.26.43,5.29,5.29,0,0,0,3.32,2.58l.17-.09a.27.27,0,0,0-.08-.17,2.25,2.25,0,0,0-.7-1.29,3.2,3.2,0,0,1-.88-3.95,4.76,4.76,0,0,0-.7-4.56,2,2,0,0,0-3-.26l-.17.26-.61,1.38a13.26,13.26,0,0,0-1,2.83,6.56,6.56,0,0,0,.17,3.61A4.47,4.47,0,0,0,43.53,107.28Z"/><path class="cls-1" d="M45.36,106.16a4.41,4.41,0,0,1-1.83-2.66,1.1,1.1,0,0,1,.26.43,5.29,5.29,0,0,0,3.32,2.58,1.19,1.19,0,0,1-1-.18.29.29,0,0,0-.18-.08l.53.77A9,9,0,0,0,45.36,106.16Zm-.87,1A6.25,6.25,0,0,1,42,103.41a3,3,0,0,1,.27.78,7.1,7.1,0,0,0,3.14,3.35A2.65,2.65,0,0,1,44.49,107.19Zm-3.58-4a.57.57,0,0,1,.08.26,6,6,0,0,0,2.54,3.78A5,5,0,0,1,40.91,103.24Z"/><path class="cls-1" d="M47.61,56.14Q48.72,64.39,49,68.57a71.23,71.23,0,0,1-.63,11.61q-.87,7.42-3,19.58l-4.1-.94q.33-6.18.33-11.31t.14-12.62a148.63,148.63,0,0,0-1.25-19.4L47,55.26Z"/><path class="cls-2" d="M46,45.31q1.84,1.77,3.12,6.58a73.81,73.81,0,0,1,1.79,13.76q-4.86,3.64-11.73,1-.72-8.58-.68-17.17.11-4.21,2.88-5.06A4.39,4.39,0,0,1,46,45.31Z"/><path class="cls-4" d="M20.66,17.26a1.86,1.86,0,0,0-1.31-.75,2.06,2.06,0,0,0-1.5.38,1.93,1.93,0,0,0-.79,1.3,1.93,1.93,0,0,0,1.68,2.21,2,2,0,0,0,1.5-.38,2,2,0,0,0,.79-1.3A1.86,1.86,0,0,0,20.66,17.26Z"/><path class="cls-4" d="M20.34,28.38a1.7,1.7,0,0,0-1,.64l1,1a10.15,10.15,0,0,0,2.2.48,1.92,1.92,0,0,0,.86-.2,4.41,4.41,0,0,1,.87-.3l.11,0c0-.3-.28-.66-.78-1.1A2.55,2.55,0,0,0,22,28.16,4.3,4.3,0,0,0,20.34,28.38Z"/><path class="cls-7" d="M24.25,30l-.75,0a7,7,0,0,1-1,0,6.54,6.54,0,0,1-1-.14c-.31-.07-.67-.17-1.06-.29L19.35,29l0,.06c-.24.25-.22.68,0,1.3a2.17,2.17,0,0,0,2,1.1A2.69,2.69,0,0,0,23.57,31C24.05,30.48,24.27,30.16,24.25,30Z"/><path class="cls-1" d="M17.1,14.9l-1.22,2.62a7.48,7.48,0,0,1,6.78.76l-.22-2.66Z"/><path class="cls-4" d="M15,18.25h0l.16-.09a7.15,7.15,0,0,1,4.46-.29,11.27,11.27,0,0,1,3.64,1.31,7.05,7.05,0,0,0-4.5-2.25,4.83,4.83,0,0,0-3.93,1.4Z"/><path class="cls-4" d="M21.47,14.64l.35-.39s0-.06,0-.08a1.77,1.77,0,0,0-.4-.51q-1.19-.16-2.4-.3a5.33,5.33,0,0,0-1,.28,4.09,4.09,0,0,0-1.21.43,2.41,2.41,0,0,0-.79.77,5.62,5.62,0,0,1,1.91-.55,4.35,4.35,0,0,1,1.24,0C20,14.35,20.73,14.48,21.47,14.64Z"/><path class="cls-4" d="M34.9,15.42a3.34,3.34,0,0,0-.45-.35,5.52,5.52,0,0,0-1.17-.64A15,15,0,0,0,31.79,14l-.72.09a13.39,13.39,0,0,0-1.85.29.57.57,0,0,0-.34.18,2.67,2.67,0,0,0-.14.34l.24.32c.69-.07,1.38-.17,2.08-.29a6.79,6.79,0,0,1,3,.26,5.14,5.14,0,0,1,.55.2A1.55,1.55,0,0,1,34.9,15.42Z"/><path class="cls-4" d="M33.17,19.43a1.9,1.9,0,0,0-1.32-.75,1.94,1.94,0,0,0-1.49.38,2,2,0,0,0-.8,1.3,1.86,1.86,0,0,0,.37,1.46,1.88,1.88,0,0,0,1.31.75,2,2,0,0,0,1.5-.38,2,2,0,0,0,.79-1.31A1.87,1.87,0,0,0,33.17,19.43Z"/><path class="cls-1" d="M29.83,16.68,28.62,19.3a7.46,7.46,0,0,1,6.77.75l-.21-2.66Z"/><path class="cls-4" d="M28.36,19.88a7.25,7.25,0,0,1,4.47-.3,11.27,11.27,0,0,1,3.64,1.31A7.08,7.08,0,0,0,32,18.64,4.77,4.77,0,0,0,28,20a.5.5,0,0,1,.14-.08A.48.48,0,0,1,28.36,19.88Z"/><path class="cls-8" d="M21,25.72s-.54.14-.73-.2A1.38,1.38,0,0,1,20.8,24C19.64,25.69,21,25.72,21,25.72Z"/><path class="cls-8" d="M21.82,25.28a.61.61,0,0,1,.26,0,.78.78,0,0,1,.25.07.16.16,0,0,1,.09.07.11.11,0,0,1,0,.11l-.06,0c-.11,0-.2-.07-.3-.1a1.81,1.81,0,0,0-.68.06A1,1,0,0,1,21.82,25.28Z"/><path class="cls-8" d="M24.47,26.24s.47.29.76,0a1.36,1.36,0,0,0,0-1.58C25.8,26.62,24.47,26.24,24.47,26.24Z"/><path class="cls-8" d="M23.85,25.58a.81.81,0,0,0-.24-.09.82.82,0,0,0-.27,0,.21.21,0,0,0-.11,0,.13.13,0,0,0,0,.1.08.08,0,0,0,.05.05c.09,0,.21,0,.31,0a1.84,1.84,0,0,1,.63.27A1,1,0,0,0,23.85,25.58Z"/></g></g></svg>