<svg xmlns="http://www.w3.org/2000/svg" xmlns:xlink="http://www.w3.org/1999/xlink" viewBox="0 0 191.93 165.87"><defs><style>.cls-1{fill:none;}.cls-2{opacity:0.39;}.cls-3{clip-path:url(#clip-path);}.cls-4{clip-path:url(#clip-path-2);}.cls-5{fill:#fff;}.cls-6{fill:#fffef9;}.cls-7{fill:#f26c56;}.cls-8{clip-path:url(#clip-path-3);}.cls-9{fill:url(#linear-gradient);}.cls-10{fill:#1c1c1c;}.cls-11{opacity:0.65;}.cls-12{clip-path:url(#clip-path-4);}.cls-13{clip-path:url(#clip-path-5);}.cls-14{fill:#dc7927;}.cls-15{fill:#431b10;}.cls-16{clip-path:url(#clip-path-6);}.cls-17{clip-path:url(#clip-path-7);}.cls-18{opacity:0.5;}.cls-19{clip-path:url(#clip-path-8);}</style><clipPath id="clip-path" transform="translate(0 0)"><rect class="cls-1" x="17.27" y="69.43" width="26.32" height="41.26"/></clipPath><clipPath id="clip-path-2" transform="translate(0 0)"><rect class="cls-1" x="17.27" y="69.43" width="26.32" height="41.26"/></clipPath><clipPath id="clip-path-3" transform="translate(0 0)"><path class="cls-1" d="M33.41,62.49l-14.9,2.34a.9.9,0,0,0-.74,1l.84,5.39a.89.89,0,0,0,1,.74l14.9-2.34a.89.89,0,0,0,.74-1l-.84-5.4a.89.89,0,0,0-.88-.75h-.14"/></clipPath><linearGradient id="linear-gradient" x1="-145.99" y1="304.75" x2="-144.99" y2="304.75" gradientTransform="matrix(0, -7.24, -7.22, 0.01, 2226.45, -987.46)" gradientUnits="userSpaceOnUse"><stop offset="0" stop-color="#c7c8ca"/><stop offset="0.14" stop-color="#bbbcbe"/><stop offset="0.4" stop-color="#9d9d9f"/><stop offset="0.74" stop-color="#6c6b6d"/><stop offset="1" stop-color="#414042"/></linearGradient><clipPath id="clip-path-4" transform="translate(0 0)"><rect class="cls-1" x="77.66" y="65.37" width="114.26" height="100.5"/></clipPath><clipPath id="clip-path-5" transform="translate(0 0)"><rect class="cls-1" x="77.66" y="65.37" width="114.26" height="100.5"/></clipPath><clipPath id="clip-path-6" transform="translate(0 0)"><rect class="cls-1" x="54.51" y="45.56" width="11.81" height="12.91"/></clipPath><clipPath id="clip-path-7" transform="translate(0 0)"><rect class="cls-1" x="54.51" y="45.56" width="11.81" height="12.91"/></clipPath><clipPath id="clip-path-8" transform="translate(0 0)"><rect class="cls-1" width="62.31" height="54.78"/></clipPath></defs><g id="Layer_2" data-name="Layer 2"><g id="Layer_1-2" data-name="Layer 1"><g class="cls-2"><g class="cls-3"><g class="cls-4"><path class="cls-5" d="M33.77,72.34l-.45-2.91-12.6,2,.46,3a1.87,1.87,0,0,1-1.14,2,4.09,4.09,0,0,0-2.69,4.79l4,25.68a4.49,4.49,0,0,0,5.11,3.73l13.35-2.1a4.5,4.5,0,0,0,3.72-5.12l-4-25.67c-.47-3-2.5-3.72-4-3.8a1.91,1.91,0,0,1-1.8-1.61" transform="translate(0 0)"/></g></g></g><path class="cls-6" d="M19.06,83.69l3.37,21.82c.48,3,2.17,4.1,4.59,3.72l11.84-1.86c2.42-.38,3.75-1.68,3.24-5L38.73,80.6Z" transform="translate(0 0)"/><path class="cls-7" d="M21.25,106.3l15.39-2.42a1.76,1.76,0,0,0,1.46-2L34.8,80.76a1.76,1.76,0,0,0-2-1.47L17.41,81.71l3.84,24.54v0" transform="translate(0 0)"/><g class="cls-8"><rect class="cls-9" x="17.06" y="61.17" width="18.92" height="12.21" transform="translate(-10.08 4.9) rotate(-8.89)"/></g><path class="cls-5" d="M34.94,64.59,17.7,67.3a.69.69,0,0,1-.79-.58l-.39-2.51a.68.68,0,0,1,.57-.79l17.24-2.71a.69.69,0,0,1,.79.57l.39,2.52a.7.7,0,0,1-.57.79" transform="translate(0 0)"/><polygon class="cls-10" points="49.13 41.55 48.28 42.55 8.09 7.62 6.36 5.31 49.13 41.55"/><polygon class="cls-6" points="163.57 126.49 158.92 122.53 158.09 123.52 76.83 54.4 73.04 57.8 60.18 47.26 55.65 52.6 68.09 63.67 65.43 67.86 146.69 136.99 145.85 137.97 150.51 141.93 145.4 148.88 147.51 150.68 154.26 143.64 158.95 138.12 158.95 138.12 160.07 136.79 161.2 135.47 161.2 135.46 165.87 129.92 171.7 122.1 169.58 120.3 163.57 126.49"/><g class="cls-11"><g class="cls-12"><g class="cls-13"><path class="cls-5" d="M187.56,154.22l-.49.6c-1.14-1-10.17-8.93-11.1-9.73s-2.88-5-4.38-6.29l-86-73.43-8,9.4,86.27,73.09c1.49,1.27,5.91,2.45,6.9,3.3s10.21,8.43,11.38,9.4l-.51.59L178.89,165l1.05.89,3.34-3.49,2.32-2.74h0l.55-.66.56-.65h0l2.32-2.74,2.89-3.88-1.05-.89Z" transform="translate(0 0)"/></g></g></g><polygon class="cls-14" points="69.01 53.26 60.26 46.34 57.54 46.6 51.75 41.66 50.35 43.31 50.21 43.48 48.81 45.13 54.5 50.13 54.81 52.79 63.04 60.31 62.48 60.98 63.27 61.65 70.36 53.27 69.57 52.59 69.01 53.26"/><path class="cls-5" d="M48.07,42.36l.72,2.8,3-3.52-2.87-.26a.79.79,0,0,0-.83,1" transform="translate(0 0)"/><path class="cls-15" d="M71.51,63.64,69.6,69l9.29,7.9,4.5-5.32,4.5-5.32-9.29-7.9L73.66,61.1a4.76,4.76,0,0,0-2.15,2.54" transform="translate(0 0)"/><polygon points="87.37 79.62 83.98 83.63 83.56 83.28 86.95 79.27 87.37 79.62"/><polygon points="90.22 82.05 86.83 86.06 86.41 85.7 89.8 81.69 90.22 82.05"/><polygon points="93.06 84.47 89.67 88.48 89.26 88.12 92.65 84.12 93.06 84.47"/><polygon points="95.91 86.89 92.52 90.9 92.11 90.55 95.5 86.54 95.91 86.89"/><polygon points="101.61 91.74 98.22 95.74 97.8 95.39 101.19 91.39 101.61 91.74"/><polygon points="104.46 94.16 101.07 98.17 100.65 97.81 104.04 93.81 104.46 94.16"/><polygon points="107.31 96.58 103.92 100.59 103.5 100.24 106.89 96.23 107.31 96.58"/><rect x="105.63" y="100.56" width="5.25" height="0.54" transform="matrix(0.65, -0.76, 0.76, 0.65, -38.64, 118.37)"/><polygon points="115.85 103.85 112.46 107.86 112.05 107.51 115.44 103.5 115.85 103.85"/><polygon points="118.7 106.28 115.31 110.28 114.89 109.93 118.28 105.92 118.7 106.28"/><rect x="117.02" y="110.25" width="5.25" height="0.54" transform="translate(-42.01 130.5) rotate(-49.78)"/><polygon points="124.39 111.12 121 115.13 120.59 114.77 123.98 110.77 124.39 111.12"/><rect x="79.01" y="76.64" width="10.8" height="0.54" transform="translate(-28.82 91.67) rotate(-49.77)"/><rect x="93.25" y="88.75" width="10.8" height="0.54" transform="translate(-33.03 106.84) rotate(-49.77)"/><polygon points="116.59 97.19 109.61 105.44 109.2 105.08 116.17 96.84 116.59 97.19"/><polygon points="130.83 109.3 123.85 117.55 123.44 117.2 130.41 108.95 130.83 109.3"/><polygon points="130.22 116.08 126.83 120.08 126.42 119.73 129.81 115.72 130.22 116.08"/><polygon points="133.07 118.5 129.68 122.51 129.26 122.16 132.66 118.15 133.07 118.5"/><polygon points="135.92 120.92 132.53 124.93 132.11 124.58 135.5 120.57 135.92 120.92"/><polygon points="138.77 123.34 135.38 127.35 134.96 127 138.35 122.99 138.77 123.34"/><polygon points="145.2 121.53 138.22 129.78 137.81 129.42 144.79 121.18 145.2 121.53"/><g class="cls-11"><g class="cls-16"><g class="cls-17"><polygon class="cls-5" points="66.32 48.25 57.67 58.47 54.51 55.78 63.16 45.56 66.32 48.25"/></g></g></g><g class="cls-18"><g class="cls-19"><g class="cls-19"><polygon class="cls-5" points="62.31 46.55 55.34 54.78 0 4.41 3.73 0 62.31 46.55"/></g></g></g></g></g></svg>