<svg xmlns="http://www.w3.org/2000/svg" xmlns:xlink="http://www.w3.org/1999/xlink" viewBox="0 0 590.4 595.44"><defs><style>.cls-1{fill:none;}.cls-2{fill:#fff;}.cls-3{clip-path:url(#clip-path);}.cls-4{fill:url(#linear-gradient);}.cls-5{clip-path:url(#clip-path-2);}.cls-6{fill:url(#linear-gradient-2);}.cls-7{clip-path:url(#clip-path-3);}.cls-8{fill:url(#linear-gradient-3);}.cls-9{clip-path:url(#clip-path-4);}.cls-10{fill:url(#linear-gradient-4);}.cls-11{clip-path:url(#clip-path-5);}.cls-12{fill:url(#linear-gradient-5);}.cls-13{clip-path:url(#clip-path-6);}.cls-14{fill:url(#linear-gradient-6);}.cls-15{clip-path:url(#clip-path-7);}.cls-16{fill:url(#linear-gradient-7);}.cls-17{clip-path:url(#clip-path-8);}.cls-18{fill:url(#linear-gradient-8);}.cls-19{clip-path:url(#clip-path-9);}.cls-20{fill:url(#linear-gradient-9);}.cls-21{clip-path:url(#clip-path-10);}.cls-22{fill:url(#linear-gradient-10);}.cls-23{clip-path:url(#clip-path-11);}.cls-24{fill:url(#linear-gradient-11);}.cls-25{clip-path:url(#clip-path-12);}.cls-26{fill:url(#linear-gradient-12);}.cls-27{clip-path:url(#clip-path-13);}.cls-28{fill:url(#linear-gradient-13);}.cls-29{clip-path:url(#clip-path-14);}.cls-30{fill:url(#linear-gradient-14);}.cls-31{clip-path:url(#clip-path-15);}.cls-32{fill:url(#linear-gradient-15);}.cls-33{clip-path:url(#clip-path-16);}.cls-34{fill:url(#linear-gradient-16);}.cls-35{clip-path:url(#clip-path-17);}.cls-36{fill:url(#linear-gradient-17);}.cls-37{clip-path:url(#clip-path-18);}.cls-38{fill:url(#linear-gradient-18);}.cls-39{clip-path:url(#clip-path-19);}.cls-40{fill:url(#linear-gradient-19);}.cls-41{clip-path:url(#clip-path-20);}.cls-42{fill:url(#linear-gradient-20);}.cls-43{clip-path:url(#clip-path-21);}.cls-44{fill:url(#linear-gradient-21);}.cls-45{clip-path:url(#clip-path-22);}.cls-46{fill:url(#linear-gradient-22);}.cls-47{clip-path:url(#clip-path-23);}.cls-48{fill:url(#linear-gradient-23);}.cls-49{clip-path:url(#clip-path-24);}.cls-50{fill:url(#linear-gradient-24);}.cls-51{clip-path:url(#clip-path-25);}.cls-52{fill:url(#linear-gradient-25);}.cls-53{clip-path:url(#clip-path-26);}.cls-54{fill:url(#linear-gradient-26);}.cls-55{clip-path:url(#clip-path-27);}.cls-56{fill:url(#linear-gradient-27);}.cls-57{clip-path:url(#clip-path-28);}.cls-58{fill:url(#linear-gradient-28);}.cls-59{clip-path:url(#clip-path-29);}.cls-60{fill:url(#linear-gradient-29);}.cls-61{clip-path:url(#clip-path-30);}.cls-62{fill:url(#linear-gradient-30);}.cls-63{clip-path:url(#clip-path-31);}.cls-64{fill:url(#linear-gradient-31);}.cls-65{clip-path:url(#clip-path-32);}.cls-66{fill:url(#linear-gradient-32);}.cls-67{clip-path:url(#clip-path-33);}.cls-68{fill:url(#linear-gradient-33);}.cls-69{clip-path:url(#clip-path-34);}.cls-70{fill:url(#linear-gradient-34);}.cls-71{clip-path:url(#clip-path-35);}.cls-72{fill:url(#linear-gradient-35);}.cls-73{clip-path:url(#clip-path-36);}.cls-74{fill:url(#linear-gradient-36);}.cls-75{clip-path:url(#clip-path-37);}.cls-76{fill:url(#linear-gradient-37);}.cls-77{clip-path:url(#clip-path-38);}.cls-78{fill:url(#linear-gradient-38);}.cls-79{clip-path:url(#clip-path-39);}.cls-80{fill:url(#linear-gradient-39);}.cls-81{clip-path:url(#clip-path-40);}.cls-82{fill:url(#linear-gradient-40);}.cls-83{clip-path:url(#clip-path-41);}.cls-84{fill:url(#linear-gradient-41);}.cls-85{clip-path:url(#clip-path-42);}.cls-86{fill:url(#linear-gradient-42);}.cls-87{clip-path:url(#clip-path-43);}.cls-88{fill:url(#linear-gradient-43);}.cls-89{clip-path:url(#clip-path-44);}.cls-90{fill:url(#linear-gradient-44);}.cls-91{clip-path:url(#clip-path-45);}.cls-92{fill:url(#linear-gradient-45);}.cls-93{clip-path:url(#clip-path-46);}.cls-94{fill:url(#linear-gradient-46);}.cls-95{clip-path:url(#clip-path-47);}.cls-96{fill:url(#linear-gradient-47);}.cls-97{clip-path:url(#clip-path-48);}.cls-98{fill:url(#linear-gradient-48);}.cls-99{clip-path:url(#clip-path-49);}.cls-100{fill:url(#linear-gradient-49);}.cls-101{clip-path:url(#clip-path-50);}.cls-102{fill:url(#linear-gradient-50);}.cls-103{clip-path:url(#clip-path-51);}.cls-104{fill:url(#linear-gradient-51);}.cls-105{clip-path:url(#clip-path-52);}.cls-106{fill:url(#linear-gradient-52);}.cls-107{clip-path:url(#clip-path-53);}.cls-108{fill:url(#linear-gradient-53);}.cls-109{clip-path:url(#clip-path-54);}.cls-110{fill:url(#linear-gradient-54);}.cls-111{clip-path:url(#clip-path-55);}.cls-112{fill:url(#linear-gradient-55);}.cls-113{clip-path:url(#clip-path-56);}.cls-114{fill:url(#linear-gradient-56);}.cls-115{clip-path:url(#clip-path-57);}.cls-116{fill:url(#linear-gradient-57);}.cls-117{clip-path:url(#clip-path-58);}.cls-118{fill:url(#linear-gradient-58);}.cls-119{clip-path:url(#clip-path-59);}.cls-120{fill:url(#linear-gradient-59);}.cls-121{clip-path:url(#clip-path-60);}.cls-122{fill:url(#linear-gradient-60);}.cls-123{clip-path:url(#clip-path-61);}.cls-124{fill:url(#linear-gradient-61);}.cls-125{clip-path:url(#clip-path-62);}.cls-126{fill:url(#linear-gradient-62);}.cls-127{clip-path:url(#clip-path-63);}.cls-128{fill:url(#linear-gradient-63);}.cls-129{clip-path:url(#clip-path-64);}.cls-130{fill:url(#linear-gradient-64);}.cls-131{clip-path:url(#clip-path-65);}.cls-132{fill:url(#linear-gradient-65);}.cls-133{clip-path:url(#clip-path-66);}.cls-134{fill:url(#linear-gradient-66);}.cls-135{clip-path:url(#clip-path-67);}.cls-136{fill:url(#linear-gradient-67);}.cls-137{clip-path:url(#clip-path-68);}.cls-138{fill:url(#linear-gradient-68);}.cls-139{clip-path:url(#clip-path-69);}.cls-140{fill:url(#linear-gradient-69);}.cls-141{clip-path:url(#clip-path-70);}.cls-142{fill:url(#linear-gradient-70);}.cls-143{clip-path:url(#clip-path-71);}.cls-144{fill:url(#linear-gradient-71);}.cls-145{clip-path:url(#clip-path-72);}.cls-146{fill:url(#linear-gradient-72);}.cls-147{clip-path:url(#clip-path-73);}.cls-148{fill:url(#linear-gradient-73);}.cls-149{clip-path:url(#clip-path-74);}.cls-150{fill:url(#linear-gradient-74);}</style><clipPath id="clip-path"><polygon class="cls-1" points="507.17 328.28 518.72 339.94 522.46 336.22 510.92 324.55 507.17 328.28"/></clipPath><linearGradient id="linear-gradient" x1="-74.92" y1="552" x2="-73.92" y2="552" gradientTransform="matrix(3.75, -3.73, -3.72, -3.76, 2845.47, 2128.44)" gradientUnits="userSpaceOnUse"><stop offset="0" stop-color="#e07b27"/><stop offset="0.32" stop-color="#c26725"/><stop offset="0.76" stop-color="#9f4f22"/><stop offset="1" stop-color="#924621"/></linearGradient><clipPath id="clip-path-2"><polygon class="cls-1" points="544.69 366.19 556.23 377.86 559.98 374.13 548.43 362.46 544.69 366.19"/></clipPath><linearGradient id="linear-gradient-2" x1="-74.92" y1="552" x2="-73.92" y2="552" gradientTransform="matrix(3.75, -3.73, -3.72, -3.76, 2882.98, 2166.35)" xlink:href="#linear-gradient"/><clipPath id="clip-path-3"><path class="cls-1" d="M524.89,355.59a.47.47,0,0,0,0,.63l0,0,4.2,3.16a.5.5,0,0,0,.67-.13.46.46,0,0,0,0-.66l-4.21-3.16a.41.41,0,0,0-.24-.08.61.61,0,0,0-.43.21"/></clipPath><linearGradient id="linear-gradient-3" x1="-60.71" y1="562.28" x2="-59.71" y2="562.28" gradientTransform="matrix(-4.27, -4.32, -4.31, 4.28, 2691.09, -2310.76)" gradientUnits="userSpaceOnUse"><stop offset="0" stop-color="#e07b27"/><stop offset="0.67" stop-color="#ad5823"/><stop offset="1" stop-color="#924621"/></linearGradient><clipPath id="clip-path-4"><path class="cls-1" d="M524,356.52a.46.46,0,0,0,0,.62l0,0,4.21,3.16a.51.51,0,0,0,.67-.14.46.46,0,0,0,0-.66l-4.21-3.15a.37.37,0,0,0-.24-.08.58.58,0,0,0-.43.21"/></clipPath><linearGradient id="linear-gradient-4" x1="-60.71" y1="562.28" x2="-59.71" y2="562.28" gradientTransform="matrix(-4.27, -4.32, -4.31, 4.28, 2690.16, -2309.83)" xlink:href="#linear-gradient-3"/><clipPath id="clip-path-5"><path class="cls-1" d="M523,357.45a.46.46,0,0,0,0,.62l0,0,4.21,3.16a.51.51,0,0,0,.67-.14.45.45,0,0,0,0-.66l-4.2-3.15a.38.38,0,0,0-.25-.08.54.54,0,0,0-.42.21"/></clipPath><linearGradient id="linear-gradient-5" x1="-60.71" y1="562.28" x2="-59.71" y2="562.28" gradientTransform="matrix(-4.27, -4.32, -4.31, 4.28, 2689.22, -2308.9)" xlink:href="#linear-gradient-3"/><clipPath id="clip-path-6"><path class="cls-1" d="M522.09,358.38a.46.46,0,0,0,0,.62l0,0,4.21,3.16a.51.51,0,0,0,.67-.14.47.47,0,0,0,0-.66l-4.21-3.16a.4.4,0,0,0-.24-.07.57.57,0,0,0-.43.21"/></clipPath><linearGradient id="linear-gradient-6" x1="-60.71" y1="562.28" x2="-59.71" y2="562.28" gradientTransform="matrix(-4.27, -4.32, -4.31, 4.28, 2688.29, -2307.97)" xlink:href="#linear-gradient-3"/><clipPath id="clip-path-7"><path class="cls-1" d="M521.16,359.31a.47.47,0,0,0,0,.62.08.08,0,0,1,0,0l4.21,3.15a.49.49,0,0,0,.67-.13.46.46,0,0,0,0-.66l-4.21-3.16a.43.43,0,0,0-.24-.08.55.55,0,0,0-.43.22"/></clipPath><linearGradient id="linear-gradient-7" x1="-60.71" y1="562.28" x2="-59.71" y2="562.28" gradientTransform="matrix(-4.27, -4.32, -4.31, 4.28, 2687.36, -2307.04)" xlink:href="#linear-gradient-3"/><clipPath id="clip-path-8"><path class="cls-1" d="M520.23,360.24a.46.46,0,0,0,0,.62l0,0,4.21,3.15a.49.49,0,0,0,.67-.13.45.45,0,0,0,0-.66l-4.2-3.16a.44.44,0,0,0-.25-.08.55.55,0,0,0-.42.22"/></clipPath><linearGradient id="linear-gradient-8" x1="-60.71" y1="562.28" x2="-59.71" y2="562.28" gradientTransform="matrix(-4.27, -4.32, -4.31, 4.28, 2686.43, -2306.11)" xlink:href="#linear-gradient-3"/><clipPath id="clip-path-9"><path class="cls-1" d="M519.29,361.17a.47.47,0,0,0,0,.62l0,0,4.21,3.16a.5.5,0,0,0,.67-.13.46.46,0,0,0,0-.66L520,361a.46.46,0,0,0-.25-.08.55.55,0,0,0-.43.22"/></clipPath><linearGradient id="linear-gradient-9" x1="-60.71" y1="562.28" x2="-59.71" y2="562.28" gradientTransform="matrix(-4.27, -4.32, -4.31, 4.28, 2685.49, -2305.19)" xlink:href="#linear-gradient-3"/><clipPath id="clip-path-10"><path class="cls-1" d="M518.36,362.09a.46.46,0,0,0,0,.62.08.08,0,0,0,0,0l4.2,3.16a.5.5,0,0,0,.67-.14.45.45,0,0,0,0-.65L519,362a.35.35,0,0,0-.24-.08.56.56,0,0,0-.43.21"/></clipPath><linearGradient id="linear-gradient-10" x1="-60.71" y1="562.28" x2="-59.71" y2="562.28" gradientTransform="matrix(-4.27, -4.32, -4.31, 4.28, 2684.56, -2304.26)" xlink:href="#linear-gradient-3"/><clipPath id="clip-path-11"><path class="cls-1" d="M517.43,363a.46.46,0,0,0,0,.62s0,0,0,0l4.21,3.16a.51.51,0,0,0,.67-.14.45.45,0,0,0,0-.66l-4.2-3.15a.38.38,0,0,0-.25-.08.54.54,0,0,0-.42.21"/></clipPath><linearGradient id="linear-gradient-11" x1="-60.71" y1="562.28" x2="-59.71" y2="562.28" gradientTransform="matrix(-4.27, -4.32, -4.31, 4.28, 2683.63, -2303.33)" xlink:href="#linear-gradient-3"/><clipPath id="clip-path-12"><path class="cls-1" d="M516.49,364a.47.47,0,0,0,0,.62l0,0,4.21,3.15a.49.49,0,0,0,.67-.13.46.46,0,0,0,0-.66l-4.21-3.16a.38.38,0,0,0-.24-.08.59.59,0,0,0-.43.22"/></clipPath><linearGradient id="linear-gradient-12" x1="-60.71" y1="562.28" x2="-59.71" y2="562.28" gradientTransform="matrix(-4.27, -4.32, -4.31, 4.28, 2682.69, -2302.4)" xlink:href="#linear-gradient-3"/><clipPath id="clip-path-13"><path class="cls-1" d="M515.56,364.88a.47.47,0,0,0,0,.62l.05,0,4.2,3.15a.49.49,0,0,0,.67-.13.46.46,0,0,0,0-.66l-4.21-3.16a.41.41,0,0,0-.24-.08.57.57,0,0,0-.43.22"/></clipPath><linearGradient id="linear-gradient-13" x1="-60.71" y1="562.28" x2="-59.71" y2="562.28" gradientTransform="matrix(-4.27, -4.32, -4.31, 4.28, 2681.76, -2301.47)" xlink:href="#linear-gradient-3"/><clipPath id="clip-path-14"><path class="cls-1" d="M514.63,365.81a.46.46,0,0,0,0,.62l0,0,4.21,3.16a.5.5,0,0,0,.67-.14.45.45,0,0,0,0-.65l-4.21-3.16a.43.43,0,0,0-.24-.08.55.55,0,0,0-.43.22"/></clipPath><linearGradient id="linear-gradient-14" x1="-60.71" y1="562.28" x2="-59.71" y2="562.28" gradientTransform="matrix(-4.27, -4.32, -4.31, 4.28, 2680.82, -2300.54)" xlink:href="#linear-gradient-3"/><clipPath id="clip-path-15"><path class="cls-1" d="M513.7,366.73a.47.47,0,0,0,0,.63l0,0,4.21,3.16a.51.51,0,0,0,.67-.14.45.45,0,0,0,0-.65l-4.2-3.16a.38.38,0,0,0-.25-.08.54.54,0,0,0-.42.21"/></clipPath><linearGradient id="linear-gradient-15" x1="-60.71" y1="562.28" x2="-59.71" y2="562.28" gradientTransform="matrix(-4.27, -4.32, -4.31, 4.28, 2679.89, -2299.62)" xlink:href="#linear-gradient-3"/><clipPath id="clip-path-16"><path class="cls-1" d="M512.76,367.66a.46.46,0,0,0,0,.62.08.08,0,0,0,0,0l4.2,3.16a.5.5,0,0,0,.67-.14.46.46,0,0,0,0-.66l-4.21-3.15a.35.35,0,0,0-.24-.08.57.57,0,0,0-.43.21"/></clipPath><linearGradient id="linear-gradient-16" x1="-60.71" y1="562.28" x2="-59.71" y2="562.28" gradientTransform="matrix(-4.27, -4.32, -4.31, 4.28, 2678.96, -2298.69)" xlink:href="#linear-gradient-3"/><clipPath id="clip-path-17"><path class="cls-1" d="M511.83,368.59a.46.46,0,0,0,0,.62l0,0,4.21,3.15a.49.49,0,0,0,.67-.13.46.46,0,0,0,0-.66l-4.21-3.15a.37.37,0,0,0-.24-.08.54.54,0,0,0-.43.21"/></clipPath><linearGradient id="linear-gradient-17" x1="-60.71" y1="562.28" x2="-59.71" y2="562.28" gradientTransform="matrix(-4.27, -4.32, -4.31, 4.28, 2678.03, -2297.76)" xlink:href="#linear-gradient-3"/><clipPath id="clip-path-18"><path class="cls-1" d="M510.9,369.52a.46.46,0,0,0,0,.62l0,0,4.21,3.15a.49.49,0,0,0,.67-.13.45.45,0,0,0,0-.66l-4.2-3.16a.44.44,0,0,0-.25-.08.55.55,0,0,0-.42.22"/></clipPath><linearGradient id="linear-gradient-18" x1="-60.71" y1="562.28" x2="-59.71" y2="562.28" gradientTransform="matrix(-4.27, -4.32, -4.31, 4.28, 2677.09, -2296.83)" xlink:href="#linear-gradient-3"/><clipPath id="clip-path-19"><path class="cls-1" d="M510,370.45a.46.46,0,0,0,0,.62l0,0,4.2,3.16a.49.49,0,0,0,.67-.13.46.46,0,0,0,0-.66l-4.21-3.16a.41.41,0,0,0-.24-.08.59.59,0,0,0-.43.22"/></clipPath><linearGradient id="linear-gradient-19" x1="-60.71" y1="562.28" x2="-59.71" y2="562.28" gradientTransform="matrix(-4.27, -4.32, -4.31, 4.28, 2676.16, -2295.9)" xlink:href="#linear-gradient-3"/><clipPath id="clip-path-20"><path class="cls-1" d="M509,371.38a.46.46,0,0,0,0,.62l0,0,4.21,3.16a.5.5,0,0,0,.67-.14.45.45,0,0,0,0-.65l-4.21-3.16a.43.43,0,0,0-.24-.08.55.55,0,0,0-.43.22"/></clipPath><linearGradient id="linear-gradient-20" x1="-60.71" y1="562.28" x2="-59.71" y2="562.28" gradientTransform="matrix(-4.27, -4.32, -4.31, 4.28, 2675.23, -2294.98)" xlink:href="#linear-gradient-3"/><clipPath id="clip-path-21"><path class="cls-1" d="M508.1,372.3a.47.47,0,0,0,0,.63l0,0,4.21,3.16A.51.51,0,0,0,513,376a.45.45,0,0,0,0-.65l-4.2-3.16a.38.38,0,0,0-.25-.08.54.54,0,0,0-.42.21"/></clipPath><linearGradient id="linear-gradient-21" x1="-60.71" y1="562.28" x2="-59.71" y2="562.28" gradientTransform="matrix(-4.27, -4.32, -4.31, 4.28, 2674.29, -2294.05)" xlink:href="#linear-gradient-3"/><clipPath id="clip-path-22"><path class="cls-1" d="M507.16,373.23a.46.46,0,0,0,0,.62l0,0,4.2,3.16a.52.52,0,0,0,.68-.14.47.47,0,0,0,0-.66l-4.21-3.15a.35.35,0,0,0-.24-.08.57.57,0,0,0-.43.21"/></clipPath><linearGradient id="linear-gradient-22" x1="-60.71" y1="562.28" x2="-59.71" y2="562.28" gradientTransform="matrix(-4.27, -4.32, -4.31, 4.28, 2673.36, -2293.12)" xlink:href="#linear-gradient-3"/><clipPath id="clip-path-23"><path class="cls-1" d="M506.23,374.16a.47.47,0,0,0,0,.62l0,0,4.21,3.16a.51.51,0,0,0,.67-.14.46.46,0,0,0,0-.66L506.9,374a.42.42,0,0,0-.24-.07.56.56,0,0,0-.43.21"/></clipPath><linearGradient id="linear-gradient-23" x1="-60.71" y1="562.28" x2="-59.71" y2="562.28" gradientTransform="matrix(-4.27, -4.32, -4.31, 4.28, 2672.43, -2292.19)" xlink:href="#linear-gradient-3"/><clipPath id="clip-path-24"><path class="cls-1" d="M505.3,375.09a.46.46,0,0,0,0,.62l0,0,4.21,3.16a.49.49,0,0,0,.67-.13.45.45,0,0,0,0-.66L506,375a.44.44,0,0,0-.25-.08.55.55,0,0,0-.42.22"/></clipPath><linearGradient id="linear-gradient-24" x1="-60.71" y1="562.28" x2="-59.71" y2="562.28" gradientTransform="matrix(-4.27, -4.32, -4.31, 4.28, 2671.49, -2291.26)" xlink:href="#linear-gradient-3"/><clipPath id="clip-path-25"><path class="cls-1" d="M504.36,376a.47.47,0,0,0,0,.62l0,0,4.21,3.16a.49.49,0,0,0,.67-.13.47.47,0,0,0,0-.66L505,375.88a.41.41,0,0,0-.24-.08.59.59,0,0,0-.43.22"/></clipPath><linearGradient id="linear-gradient-25" x1="-60.71" y1="562.28" x2="-59.71" y2="562.28" gradientTransform="matrix(-4.27, -4.32, -4.31, 4.28, 2670.56, -2290.33)" xlink:href="#linear-gradient-3"/><clipPath id="clip-path-26"><path class="cls-1" d="M503.43,377a.47.47,0,0,0,0,.62l0,0,4.2,3.16a.51.51,0,0,0,.67-.14.45.45,0,0,0,0-.65l-4.21-3.16a.41.41,0,0,0-.24-.08.57.57,0,0,0-.43.22"/></clipPath><linearGradient id="linear-gradient-26" x1="-60.71" y1="562.28" x2="-59.71" y2="562.28" gradientTransform="matrix(-4.27, -4.32, -4.31, 4.28, 2669.63, -2289.41)" xlink:href="#linear-gradient-3"/><clipPath id="clip-path-27"><path class="cls-1" d="M502.5,377.87a.47.47,0,0,0,0,.63l0,0,4.21,3.16a.51.51,0,0,0,.67-.14.46.46,0,0,0,0-.66l-4.21-3.15a.38.38,0,0,0-.25-.08.54.54,0,0,0-.42.21"/></clipPath><linearGradient id="linear-gradient-27" x1="-60.71" y1="562.28" x2="-59.71" y2="562.28" gradientTransform="matrix(-4.27, -4.32, -4.31, 4.28, 2668.7, -2288.48)" xlink:href="#linear-gradient-3"/><clipPath id="clip-path-28"><path class="cls-1" d="M501.56,378.8a.47.47,0,0,0,0,.62l0,0,4.2,3.16a.52.52,0,0,0,.68-.14.47.47,0,0,0,0-.66l-4.21-3.15a.35.35,0,0,0-.24-.08.57.57,0,0,0-.43.21"/></clipPath><linearGradient id="linear-gradient-28" x1="-60.71" y1="562.28" x2="-59.71" y2="562.28" gradientTransform="matrix(-4.27, -4.32, -4.31, 4.28, 2667.76, -2287.55)" xlink:href="#linear-gradient-3"/><clipPath id="clip-path-29"><path class="cls-1" d="M500.63,379.73a.47.47,0,0,0,0,.62l.05,0,4.2,3.16a.51.51,0,0,0,.67-.14.46.46,0,0,0,0-.66l-4.21-3.16a.41.41,0,0,0-.24-.08.57.57,0,0,0-.43.22"/></clipPath><linearGradient id="linear-gradient-29" x1="-60.71" y1="562.28" x2="-59.71" y2="562.28" gradientTransform="matrix(-4.27, -4.32, -4.31, 4.28, 2666.83, -2286.62)" xlink:href="#linear-gradient-3"/><clipPath id="clip-path-30"><path class="cls-1" d="M499.7,380.66a.46.46,0,0,0,0,.62l0,0,4.21,3.16a.51.51,0,0,0,.67-.14.46.46,0,0,0,0-.66l-4.21-3.16a.44.44,0,0,0-.25-.08.55.55,0,0,0-.42.22"/></clipPath><linearGradient id="linear-gradient-30" x1="-60.71" y1="562.28" x2="-59.71" y2="562.28" gradientTransform="matrix(-4.27, -4.32, -4.31, 4.28, 2665.9, -2285.69)" xlink:href="#linear-gradient-3"/><clipPath id="clip-path-31"><path class="cls-1" d="M498.77,381.59a.46.46,0,0,0,0,.62l0,0L503,385.4a.49.49,0,0,0,.67-.13.46.46,0,0,0,0-.66l-4.21-3.16a.41.41,0,0,0-.24-.08.55.55,0,0,0-.42.22"/></clipPath><linearGradient id="linear-gradient-31" x1="-60.71" y1="562.28" x2="-59.71" y2="562.28" gradientTransform="matrix(-4.27, -4.32, -4.31, 4.28, 2664.96, -2284.76)" xlink:href="#linear-gradient-3"/><clipPath id="clip-path-32"><path class="cls-1" d="M497.83,382.51a.47.47,0,0,0,0,.63l0,0,4.2,3.16a.5.5,0,0,0,.67-.14.45.45,0,0,0,0-.65l-4.21-3.16a.41.41,0,0,0-.24-.08.61.61,0,0,0-.43.21"/></clipPath><linearGradient id="linear-gradient-32" x1="-60.71" y1="562.28" x2="-59.71" y2="562.28" gradientTransform="matrix(-4.27, -4.32, -4.31, 4.28, 2664.03, -2283.84)" xlink:href="#linear-gradient-3"/><clipPath id="clip-path-33"><path class="cls-1" d="M496.9,383.44a.46.46,0,0,0,0,.62l0,0,4.21,3.16a.51.51,0,0,0,.67-.14.46.46,0,0,0,0-.66l-4.21-3.15a.37.37,0,0,0-.24-.08.54.54,0,0,0-.43.21"/></clipPath><linearGradient id="linear-gradient-33" x1="-60.71" y1="562.28" x2="-59.71" y2="562.28" gradientTransform="matrix(-4.27, -4.32, -4.31, 4.28, 2663.1, -2282.91)" xlink:href="#linear-gradient-3"/><clipPath id="clip-path-34"><path class="cls-1" d="M496,384.37a.46.46,0,0,0,0,.62l0,0,4.21,3.16a.51.51,0,0,0,.67-.14.46.46,0,0,0,0-.66l-4.2-3.16a.43.43,0,0,0-.25-.07.54.54,0,0,0-.42.21"/></clipPath><linearGradient id="linear-gradient-34" x1="-60.71" y1="562.28" x2="-59.71" y2="562.28" gradientTransform="matrix(-4.27, -4.32, -4.31, 4.28, 2662.16, -2281.98)" xlink:href="#linear-gradient-3"/><clipPath id="clip-path-35"><path class="cls-1" d="M495,385.3a.46.46,0,0,0,0,.62l0,0,4.2,3.16a.5.5,0,0,0,.67-.14.46.46,0,0,0,0-.66l-4.21-3.16a.4.4,0,0,0-.24-.07.57.57,0,0,0-.43.21"/></clipPath><linearGradient id="linear-gradient-35" x1="-60.71" y1="562.28" x2="-59.71" y2="562.28" gradientTransform="matrix(-4.27, -4.32, -4.31, 4.28, 2661.23, -2281.05)" xlink:href="#linear-gradient-3"/><clipPath id="clip-path-36"><path class="cls-1" d="M494.1,386.23a.46.46,0,0,0,0,.62l0,0,4.21,3.15a.49.49,0,0,0,.67-.13.46.46,0,0,0,0-.66l-4.21-3.16a.43.43,0,0,0-.24-.08.57.57,0,0,0-.43.22"/></clipPath><linearGradient id="linear-gradient-36" x1="-60.71" y1="562.28" x2="-59.71" y2="562.28" gradientTransform="matrix(-4.27, -4.32, -4.31, 4.28, 2660.3, -2280.12)" xlink:href="#linear-gradient-3"/><clipPath id="clip-path-37"><path class="cls-1" d="M493.17,387.15a.47.47,0,0,0,0,.63l0,0L497.4,391a.49.49,0,0,0,.67-.13.46.46,0,0,0,0-.66l-4.2-3.16a.44.44,0,0,0-.25-.08.57.57,0,0,0-.42.21"/></clipPath><linearGradient id="linear-gradient-37" x1="-60.71" y1="562.28" x2="-59.71" y2="562.28" gradientTransform="matrix(-4.27, -4.32, -4.31, 4.28, 2659.36, -2279.2)" xlink:href="#linear-gradient-3"/><clipPath id="clip-path-38"><path class="cls-1" d="M492.23,388.08a.47.47,0,0,0,0,.63l0,0,4.2,3.16a.52.52,0,0,0,.68-.14.46.46,0,0,0,0-.65L492.9,388a.41.41,0,0,0-.24-.08.57.57,0,0,0-.43.21"/></clipPath><linearGradient id="linear-gradient-38" x1="-60.71" y1="562.28" x2="-59.71" y2="562.28" gradientTransform="matrix(-4.27, -4.32, -4.31, 4.28, 2658.43, -2278.27)" xlink:href="#linear-gradient-3"/><clipPath id="clip-path-39"><path class="cls-1" d="M491.3,389a.47.47,0,0,0,0,.62l0,0,4.21,3.16a.51.51,0,0,0,.67-.14.45.45,0,0,0,0-.65L492,388.88a.35.35,0,0,0-.24-.08.56.56,0,0,0-.43.21"/></clipPath><linearGradient id="linear-gradient-39" x1="-60.71" y1="562.28" x2="-59.71" y2="562.28" gradientTransform="matrix(-4.27, -4.32, -4.31, 4.28, 2657.5, -2277.34)" xlink:href="#linear-gradient-3"/><clipPath id="clip-path-40"><path class="cls-1" d="M490.37,389.94a.46.46,0,0,0,0,.62l0,0,4.21,3.16a.51.51,0,0,0,.67-.14.45.45,0,0,0,0-.66L491,389.8a.43.43,0,0,0-.25-.07.54.54,0,0,0-.42.21"/></clipPath><linearGradient id="linear-gradient-40" x1="-60.71" y1="562.28" x2="-59.71" y2="562.28" gradientTransform="matrix(-4.27, -4.32, -4.31, 4.28, 2656.56, -2276.41)" xlink:href="#linear-gradient-3"/><clipPath id="clip-path-41"><path class="cls-1" d="M489.43,390.87a.47.47,0,0,0,0,.62l0,0,4.21,3.15a.49.49,0,0,0,.67-.13.46.46,0,0,0,0-.66l-4.21-3.16a.41.41,0,0,0-.24-.08.59.59,0,0,0-.43.22"/></clipPath><linearGradient id="linear-gradient-41" x1="-60.71" y1="562.28" x2="-59.71" y2="562.28" gradientTransform="matrix(-4.27, -4.32, -4.31, 4.28, 2655.63, -2275.48)" xlink:href="#linear-gradient-3"/><clipPath id="clip-path-42"><path class="cls-1" d="M488.5,391.8a.47.47,0,0,0,0,.62l0,0,4.2,3.15a.49.49,0,0,0,.67-.13.46.46,0,0,0,0-.66l-4.21-3.16a.41.41,0,0,0-.24-.08.57.57,0,0,0-.43.22"/></clipPath><linearGradient id="linear-gradient-42" x1="-60.71" y1="562.28" x2="-59.71" y2="562.28" gradientTransform="matrix(-4.27, -4.32, -4.31, 4.28, 2654.7, -2274.55)" xlink:href="#linear-gradient-3"/><clipPath id="clip-path-43"><path class="cls-1" d="M487.57,392.73a.46.46,0,0,0,0,.62l0,0,4.21,3.16a.5.5,0,0,0,.67-.14.45.45,0,0,0,0-.65l-4.21-3.16a.44.44,0,0,0-.25-.08.55.55,0,0,0-.42.22"/></clipPath><linearGradient id="linear-gradient-43" x1="-60.71" y1="562.28" x2="-59.71" y2="562.28" gradientTransform="matrix(-4.27, -4.32, -4.31, 4.28, 2653.77, -2273.63)" xlink:href="#linear-gradient-3"/><clipPath id="clip-path-44"><path class="cls-1" d="M486.63,393.65a.48.48,0,0,0,0,.63l0,0,4.21,3.16a.51.51,0,0,0,.67-.14.45.45,0,0,0,0-.65l-4.2-3.16a.38.38,0,0,0-.25-.08.57.57,0,0,0-.43.21"/></clipPath><linearGradient id="linear-gradient-44" x1="-60.71" y1="562.28" x2="-59.71" y2="562.28" gradientTransform="matrix(-4.27, -4.32, -4.31, 4.28, 2652.83, -2272.7)" xlink:href="#linear-gradient-3"/><clipPath id="clip-path-45"><path class="cls-1" d="M485.7,394.58a.46.46,0,0,0,0,.62l0,0,4.21,3.16a.5.5,0,0,0,.67-.14.46.46,0,0,0,0-.66l-4.21-3.16a.4.4,0,0,0-.24-.07.57.57,0,0,0-.43.21"/></clipPath><linearGradient id="linear-gradient-45" x1="-60.71" y1="562.28" x2="-59.71" y2="562.28" gradientTransform="matrix(-4.27, -4.32, -4.31, 4.28, 2651.9, -2271.77)" xlink:href="#linear-gradient-3"/><clipPath id="clip-path-46"><path class="cls-1" d="M484.77,395.51a.46.46,0,0,0,0,.62l0,0,4.21,3.15a.49.49,0,0,0,.67-.13.46.46,0,0,0,0-.66l-4.21-3.15a.38.38,0,0,0-.24-.09.55.55,0,0,0-.43.22"/></clipPath><linearGradient id="linear-gradient-46" x1="-60.71" y1="562.28" x2="-59.71" y2="562.28" gradientTransform="matrix(-4.27, -4.32, -4.31, 4.28, 2650.97, -2270.84)" xlink:href="#linear-gradient-3"/><clipPath id="clip-path-47"><path class="cls-1" d="M483.84,396.44a.46.46,0,0,0,0,.62l0,0,4.21,3.15a.49.49,0,0,0,.67-.13.46.46,0,0,0,0-.66l-4.2-3.16a.44.44,0,0,0-.25-.08.55.55,0,0,0-.42.22"/></clipPath><linearGradient id="linear-gradient-47" x1="-60.71" y1="562.28" x2="-59.71" y2="562.28" gradientTransform="matrix(-4.27, -4.32, -4.31, 4.28, 2650.03, -2269.91)" xlink:href="#linear-gradient-3"/><clipPath id="clip-path-48"><path class="cls-1" d="M482.9,397.37a.46.46,0,0,0,0,.62l0,0,4.2,3.15a.49.49,0,0,0,.67-.14.45.45,0,0,0,0-.65l-4.21-3.16a.41.41,0,0,0-.24-.08.59.59,0,0,0-.43.22"/></clipPath><linearGradient id="linear-gradient-48" x1="-60.71" y1="562.28" x2="-59.71" y2="562.28" gradientTransform="matrix(-4.27, -4.32, -4.31, 4.28, 2649.1, -2268.98)" xlink:href="#linear-gradient-3"/><clipPath id="clip-path-49"><path class="cls-1" d="M482,398.29a.47.47,0,0,0,0,.63l0,0,4.21,3.16a.5.5,0,0,0,.67-.14.45.45,0,0,0,0-.65l-4.21-3.16a.37.37,0,0,0-.24-.08.54.54,0,0,0-.43.21"/></clipPath><linearGradient id="linear-gradient-49" x1="-60.71" y1="562.28" x2="-59.71" y2="562.28" gradientTransform="matrix(-4.27, -4.32, -4.31, 4.28, 2648.17, -2268.05)" xlink:href="#linear-gradient-3"/><clipPath id="clip-path-50"><path class="cls-1" d="M481,399.22a.47.47,0,0,0,0,.63l0,0,4.21,3.16a.51.51,0,0,0,.67-.14.46.46,0,0,0,0-.66l-4.2-3.15a.38.38,0,0,0-.25-.08.54.54,0,0,0-.42.21"/></clipPath><linearGradient id="linear-gradient-50" x1="-60.71" y1="562.28" x2="-59.71" y2="562.28" gradientTransform="matrix(-4.27, -4.32, -4.31, 4.28, 2647.23, -2267.13)" xlink:href="#linear-gradient-3"/><clipPath id="clip-path-51"><path class="cls-1" d="M480.1,400.15a.47.47,0,0,0,0,.62l0,0,4.21,3.16a.51.51,0,0,0,.67-.14.47.47,0,0,0,0-.66L480.77,400a.4.4,0,0,0-.24-.07.57.57,0,0,0-.43.21"/></clipPath><linearGradient id="linear-gradient-51" x1="-60.71" y1="562.28" x2="-59.71" y2="562.28" gradientTransform="matrix(-4.27, -4.32, -4.31, 4.28, 2646.3, -2266.2)" xlink:href="#linear-gradient-3"/><clipPath id="clip-path-52"><path class="cls-1" d="M479.17,401.08a.46.46,0,0,0,0,.62l0,0,4.21,3.15a.49.49,0,0,0,.67-.13.46.46,0,0,0,0-.66l-4.21-3.16a.43.43,0,0,0-.24-.08.55.55,0,0,0-.43.22"/></clipPath><linearGradient id="linear-gradient-52" x1="-60.71" y1="562.28" x2="-59.71" y2="562.28" gradientTransform="matrix(-4.27, -4.32, -4.31, 4.28, 2645.37, -2265.27)" xlink:href="#linear-gradient-3"/><clipPath id="clip-path-53"><path class="cls-1" d="M478.24,402a.46.46,0,0,0,0,.62s0,0,0,0l4.21,3.15a.49.49,0,0,0,.67-.13.46.46,0,0,0,0-.66l-4.2-3.16a.44.44,0,0,0-.25-.08.55.55,0,0,0-.42.22"/></clipPath><linearGradient id="linear-gradient-53" x1="-60.71" y1="562.28" x2="-59.71" y2="562.28" gradientTransform="matrix(-4.27, -4.32, -4.31, 4.28, 2644.43, -2264.34)" xlink:href="#linear-gradient-3"/><clipPath id="clip-path-54"><path class="cls-1" d="M477.3,402.93a.47.47,0,0,0,0,.63l0,0,4.2,3.16a.5.5,0,0,0,.68-.13.47.47,0,0,0,0-.66L478,402.8a.41.41,0,0,0-.24-.08.61.61,0,0,0-.43.21"/></clipPath><linearGradient id="linear-gradient-54" x1="-60.71" y1="562.28" x2="-59.71" y2="562.28" gradientTransform="matrix(-4.27, -4.32, -4.31, 4.28, 2643.5, -2263.42)" xlink:href="#linear-gradient-3"/><clipPath id="clip-path-55"><path class="cls-1" d="M476.37,403.86a.49.49,0,0,0,0,.63l0,0,4.21,3.16a.5.5,0,0,0,.67-.14.45.45,0,0,0,0-.65L477,403.73a.35.35,0,0,0-.24-.08.58.58,0,0,0-.43.21"/></clipPath><linearGradient id="linear-gradient-55" x1="-60.71" y1="562.28" x2="-59.71" y2="562.28" gradientTransform="matrix(-4.27, -4.32, -4.31, 4.28, 2642.57, -2262.49)" xlink:href="#linear-gradient-3"/><clipPath id="clip-path-56"><path class="cls-1" d="M475.44,404.79a.47.47,0,0,0,0,.63l0,0,4.21,3.16a.51.51,0,0,0,.67-.14.45.45,0,0,0,0-.66l-4.2-3.15a.38.38,0,0,0-.25-.08.54.54,0,0,0-.42.21"/></clipPath><linearGradient id="linear-gradient-56" x1="-60.71" y1="562.28" x2="-59.71" y2="562.28" gradientTransform="matrix(-4.27, -4.32, -4.31, 4.28, 2641.63, -2261.56)" xlink:href="#linear-gradient-3"/><clipPath id="clip-path-57"><path class="cls-1" d="M474.5,405.72a.47.47,0,0,0,0,.62l0,0,4.2,3.16a.52.52,0,0,0,.68-.14.47.47,0,0,0,0-.66l-4.21-3.15a.35.35,0,0,0-.24-.08.57.57,0,0,0-.43.21"/></clipPath><linearGradient id="linear-gradient-57" x1="-60.71" y1="562.28" x2="-59.71" y2="562.28" gradientTransform="matrix(-4.27, -4.32, -4.31, 4.28, 2640.7, -2260.63)" xlink:href="#linear-gradient-3"/><clipPath id="clip-path-58"><path class="cls-1" d="M473.57,406.65a.47.47,0,0,0,0,.62l.05,0,4.2,3.15a.49.49,0,0,0,.67-.13.46.46,0,0,0,0-.66l-4.21-3.16a.41.41,0,0,0-.24-.08.57.57,0,0,0-.43.22"/></clipPath><linearGradient id="linear-gradient-58" x1="-60.71" y1="562.28" x2="-59.71" y2="562.28" gradientTransform="matrix(-4.27, -4.32, -4.31, 4.28, 2639.77, -2259.7)" xlink:href="#linear-gradient-3"/><clipPath id="clip-path-59"><path class="cls-1" d="M472.64,407.58a.46.46,0,0,0,0,.62l0,0,4.21,3.16a.49.49,0,0,0,.67-.13.46.46,0,0,0,0-.66l-4.21-3.16a.44.44,0,0,0-.25-.08.55.55,0,0,0-.42.22"/></clipPath><linearGradient id="linear-gradient-59" x1="-60.71" y1="562.28" x2="-59.71" y2="562.28" gradientTransform="matrix(-4.27, -4.32, -4.31, 4.28, 2638.83, -2258.77)" xlink:href="#linear-gradient-3"/><clipPath id="clip-path-60"><path class="cls-1" d="M471.7,408.51a.47.47,0,0,0,0,.62l0,0,4.2,3.16a.51.51,0,0,0,.68-.14.46.46,0,0,0,0-.65l-4.2-3.16a.46.46,0,0,0-.25-.08.59.59,0,0,0-.43.22"/></clipPath><linearGradient id="linear-gradient-60" x1="-60.71" y1="562.28" x2="-59.71" y2="562.28" gradientTransform="matrix(-4.27, -4.32, -4.31, 4.28, 2637.9, -2257.85)" xlink:href="#linear-gradient-3"/><clipPath id="clip-path-61"><path class="cls-1" d="M470.77,409.43a.47.47,0,0,0,0,.63l0,0,4.2,3.16a.5.5,0,0,0,.67-.14.45.45,0,0,0,0-.65l-4.21-3.16a.35.35,0,0,0-.24-.08.56.56,0,0,0-.43.21"/></clipPath><linearGradient id="linear-gradient-61" x1="-60.71" y1="562.28" x2="-59.71" y2="562.28" gradientTransform="matrix(-4.27, -4.32, -4.31, 4.28, 2636.97, -2256.92)" xlink:href="#linear-gradient-3"/><clipPath id="clip-path-62"><path class="cls-1" d="M469.84,410.36a.46.46,0,0,0,0,.62l0,0,4.21,3.16a.51.51,0,0,0,.67-.14.46.46,0,0,0,0-.66l-4.21-3.15a.38.38,0,0,0-.25-.08.54.54,0,0,0-.42.21"/></clipPath><linearGradient id="linear-gradient-62" x1="-60.71" y1="562.28" x2="-59.71" y2="562.28" gradientTransform="matrix(-4.27, -4.32, -4.31, 4.28, 2636.04, -2255.99)" xlink:href="#linear-gradient-3"/><clipPath id="clip-path-63"><path class="cls-1" d="M468.91,411.29a.46.46,0,0,0,0,.62l0,0,4.21,3.16a.51.51,0,0,0,.67-.14.47.47,0,0,0,0-.66l-4.2-3.16a.43.43,0,0,0-.25-.07.54.54,0,0,0-.42.21"/></clipPath><linearGradient id="linear-gradient-63" x1="-60.71" y1="562.28" x2="-59.71" y2="562.28" gradientTransform="matrix(-4.27, -4.32, -4.31, 4.28, 2635.1, -2255.06)" xlink:href="#linear-gradient-3"/><clipPath id="clip-path-64"><path class="cls-1" d="M468,412.22a.46.46,0,0,0,0,.62l0,0,4.2,3.15a.49.49,0,0,0,.67-.13.46.46,0,0,0,0-.66l-4.21-3.16a.4.4,0,0,0-.24-.07.57.57,0,0,0-.43.21"/></clipPath><linearGradient id="linear-gradient-64" x1="-60.71" y1="562.28" x2="-59.71" y2="562.28" gradientTransform="matrix(-4.27, -4.32, -4.31, 4.28, 2634.17, -2254.13)" xlink:href="#linear-gradient-3"/><clipPath id="clip-path-65"><path class="cls-1" d="M467,413.15a.46.46,0,0,0,0,.62l0,0,4.21,3.15a.49.49,0,0,0,.67-.13.46.46,0,0,0,0-.66L467.71,413a.43.43,0,0,0-.24-.08.55.55,0,0,0-.43.22"/></clipPath><linearGradient id="linear-gradient-65" x1="-60.71" y1="562.28" x2="-59.71" y2="562.28" gradientTransform="matrix(-4.27, -4.32, -4.31, 4.28, 2633.24, -2253.2)" xlink:href="#linear-gradient-3"/><clipPath id="clip-path-66"><path class="cls-1" d="M466.1,414.07a.48.48,0,0,0,0,.63l0,0,4.21,3.16a.5.5,0,0,0,.67-.13.46.46,0,0,0,0-.66l-4.2-3.16a.44.44,0,0,0-.25-.08.61.61,0,0,0-.43.21"/></clipPath><linearGradient id="linear-gradient-66" x1="-60.71" y1="562.28" x2="-59.71" y2="562.28" gradientTransform="matrix(-4.27, -4.32, -4.31, 4.28, 2632.3, -2252.27)" xlink:href="#linear-gradient-3"/><clipPath id="clip-path-67"><path class="cls-1" d="M465.17,415a.47.47,0,0,0,0,.62l0,0,4.2,3.16a.5.5,0,0,0,.67-.14.45.45,0,0,0,0-.65l-4.21-3.16a.35.35,0,0,0-.24-.08.56.56,0,0,0-.43.21"/></clipPath><linearGradient id="linear-gradient-67" x1="-60.71" y1="562.28" x2="-59.71" y2="562.28" gradientTransform="matrix(-4.27, -4.32, -4.31, 4.28, 2631.37, -2251.35)" xlink:href="#linear-gradient-3"/><clipPath id="clip-path-68"><path class="cls-1" d="M464.24,415.93a.46.46,0,0,0,0,.62.1.1,0,0,0,0,0l4.2,3.16a.51.51,0,0,0,.67-.14.46.46,0,0,0,0-.66l-4.21-3.16a.4.4,0,0,0-.24-.07.54.54,0,0,0-.43.21"/></clipPath><linearGradient id="linear-gradient-68" x1="-60.71" y1="562.28" x2="-59.71" y2="562.28" gradientTransform="matrix(-4.27, -4.32, -4.31, 4.28, 2630.44, -2250.42)" xlink:href="#linear-gradient-3"/><clipPath id="clip-path-69"><path class="cls-1" d="M463.31,416.86a.46.46,0,0,0,0,.62l0,0,4.21,3.16a.51.51,0,0,0,.67-.14.46.46,0,0,0,0-.66l-4.2-3.16a.43.43,0,0,0-.25-.07.54.54,0,0,0-.42.21"/></clipPath><linearGradient id="linear-gradient-69" x1="-60.71" y1="562.28" x2="-59.71" y2="562.28" gradientTransform="matrix(-4.27, -4.32, -4.31, 4.28, 2629.5, -2249.49)" xlink:href="#linear-gradient-3"/><clipPath id="clip-path-70"><path class="cls-1" d="M462.37,417.79a.47.47,0,0,0,0,.62l0,0,4.2,3.15a.5.5,0,0,0,.68-.13.47.47,0,0,0,0-.66L463,417.65a.41.41,0,0,0-.24-.08.59.59,0,0,0-.43.22"/></clipPath><linearGradient id="linear-gradient-70" x1="-60.71" y1="562.28" x2="-59.71" y2="562.28" gradientTransform="matrix(-4.27, -4.32, -4.31, 4.28, 2628.57, -2248.56)" xlink:href="#linear-gradient-3"/><clipPath id="clip-path-71"><path class="cls-1" d="M461.44,418.71a.49.49,0,0,0,0,.63l.05,0,4.2,3.15a.49.49,0,0,0,.67-.13.46.46,0,0,0,0-.66l-4.21-3.16a.41.41,0,0,0-.24-.08.58.58,0,0,0-.43.21"/></clipPath><linearGradient id="linear-gradient-71" x1="-60.71" y1="562.28" x2="-59.71" y2="562.28" gradientTransform="matrix(-4.27, -4.32, -4.31, 4.28, 2627.64, -2247.63)" xlink:href="#linear-gradient-3"/><clipPath id="clip-path-72"><path class="cls-1" d="M460.51,419.65a.46.46,0,0,0,0,.62l0,0,4.21,3.16a.5.5,0,0,0,.67-.14.44.44,0,0,0,0-.65l-4.2-3.16a.44.44,0,0,0-.25-.08.55.55,0,0,0-.42.22"/></clipPath><linearGradient id="linear-gradient-72" x1="-60.71" y1="562.28" x2="-59.71" y2="562.28" gradientTransform="matrix(-4.27, -4.32, -4.31, 4.28, 2626.7, -2246.7)" xlink:href="#linear-gradient-3"/><clipPath id="clip-path-73"><path class="cls-1" d="M459.57,420.57a.48.48,0,0,0,0,.63l0,0,4.2,3.16a.52.52,0,0,0,.68-.14.47.47,0,0,0,0-.66l-4.21-3.15a.35.35,0,0,0-.24-.08.57.57,0,0,0-.43.21"/></clipPath><linearGradient id="linear-gradient-73" x1="-60.71" y1="562.28" x2="-59.71" y2="562.28" gradientTransform="matrix(-4.27, -4.32, -4.31, 4.28, 2625.77, -2245.78)" xlink:href="#linear-gradient-3"/><clipPath id="clip-path-74"><path class="cls-1" d="M458.64,421.5a.46.46,0,0,0,0,.62l.05,0,4.2,3.16a.51.51,0,0,0,.67-.14.46.46,0,0,0,0-.66l-4.21-3.16a.4.4,0,0,0-.24-.07.54.54,0,0,0-.43.21"/></clipPath><linearGradient id="linear-gradient-74" x1="-60.71" y1="562.28" x2="-59.71" y2="562.28" gradientTransform="matrix(-4.27, -4.32, -4.31, 4.28, 2624.84, -2244.85)" xlink:href="#linear-gradient-3"/></defs><g id="Layer_2" data-name="Layer 2"><g id="Layer_1-2" data-name="Layer 1"><rect class="cls-1" width="590.4" height="595.44"/><rect class="cls-1" width="590.4" height="595.44"/><path class="cls-2" d="M570.33,385l-70-70.72a2.39,2.39,0,1,0-3.39,3.37l33.3,33.66-71.59,71.22-.05.05a4.51,4.51,0,1,0,2.15,7.6A4.54,4.54,0,0,0,462,426L462,426l71.59-71.21,33.31,33.65a2.39,2.39,0,1,0,3.39-3.37m-113.5,42.74a1.09,1.09,0,1,1,1.53,0,1.08,1.08,0,0,1-1.53,0"/><rect class="cls-1" width="590.4" height="595.44"/><g class="cls-3"><polygon class="cls-4" points="499.5 332.19 514.88 316.89 530.14 332.31 514.76 347.61 499.5 332.19"/></g><g class="cls-5"><polygon class="cls-6" points="537.01 370.1 552.39 354.8 567.65 370.22 552.27 385.52 537.01 370.1"/></g><g class="cls-7"><polygon class="cls-8" points="527.33 362.19 522.64 357.45 527.37 352.75 532.06 357.48 527.33 362.19"/></g><g class="cls-9"><polygon class="cls-10" points="526.39 363.12 521.71 358.38 526.44 353.68 531.12 358.41 526.39 363.12"/></g><g class="cls-11"><polygon class="cls-12" points="525.46 364.04 520.78 359.31 525.5 354.61 530.19 359.34 525.46 364.04"/></g><g class="cls-13"><polygon class="cls-14" points="524.53 364.97 519.84 360.24 524.57 355.53 529.25 360.27 524.53 364.97"/></g><g class="cls-15"><polygon class="cls-16" points="523.6 365.9 518.91 361.17 523.64 356.46 528.32 361.2 523.6 365.9"/></g><g class="cls-17"><polygon class="cls-18" points="522.66 366.83 517.98 362.09 522.7 357.39 527.39 362.13 522.66 366.83"/></g><g class="cls-19"><polygon class="cls-20" points="521.73 367.76 517.04 363.02 521.77 358.32 526.46 363.06 521.73 367.76"/></g><g class="cls-21"><polygon class="cls-22" points="520.8 368.68 516.11 363.95 520.84 359.25 525.52 363.98 520.8 368.68"/></g><g class="cls-23"><polygon class="cls-24" points="519.86 369.61 515.18 364.88 519.9 360.18 524.59 364.91 519.86 369.61"/></g><g class="cls-25"><polygon class="cls-26" points="518.93 370.54 514.25 365.81 518.97 361.1 523.66 365.84 518.93 370.54"/></g><g class="cls-27"><polygon class="cls-28" points="518 371.47 513.31 366.74 518.04 362.03 522.72 366.77 518 371.47"/></g><g class="cls-29"><polygon class="cls-30" points="517.06 372.4 512.38 367.66 517.11 362.96 521.79 367.69 517.06 372.4"/></g><g class="cls-31"><polygon class="cls-32" points="516.13 373.32 511.44 368.59 516.17 363.89 520.86 368.62 516.13 373.32"/></g><g class="cls-33"><polygon class="cls-34" points="515.2 374.25 510.51 369.52 515.24 364.82 519.92 369.55 515.2 374.25"/></g><g class="cls-35"><polygon class="cls-36" points="514.26 375.18 509.58 370.45 514.31 365.74 518.99 370.48 514.26 375.18"/></g><g class="cls-37"><polygon class="cls-38" points="513.33 376.11 508.65 371.38 513.37 366.67 518.06 371.41 513.33 376.11"/></g><g class="cls-39"><polygon class="cls-40" points="512.4 377.04 507.71 372.3 512.44 367.6 517.13 372.34 512.4 377.04"/></g><g class="cls-41"><polygon class="cls-42" points="511.46 377.97 506.78 373.23 511.51 368.53 516.19 373.26 511.46 377.97"/></g><g class="cls-43"><polygon class="cls-44" points="510.53 378.89 505.85 374.16 510.57 369.46 515.26 374.19 510.53 378.89"/></g><g class="cls-45"><polygon class="cls-46" points="509.6 379.82 504.91 375.09 509.64 370.39 514.33 375.12 509.6 379.82"/></g><g class="cls-47"><polygon class="cls-48" points="508.67 380.75 503.98 376.02 508.71 371.31 513.39 376.05 508.67 380.75"/></g><g class="cls-49"><polygon class="cls-50" points="507.73 381.68 503.05 376.94 507.77 372.24 512.46 376.98 507.73 381.68"/></g><g class="cls-51"><polygon class="cls-52" points="506.8 382.61 502.11 377.87 506.84 373.17 511.53 377.9 506.8 382.61"/></g><g class="cls-53"><polygon class="cls-54" points="505.87 383.54 501.18 378.8 505.91 374.1 510.59 378.83 505.87 383.54"/></g><g class="cls-55"><polygon class="cls-56" points="504.93 384.46 500.25 379.73 504.98 375.03 509.66 379.76 504.93 384.46"/></g><g class="cls-57"><polygon class="cls-58" points="504 385.39 499.31 380.66 504.04 375.96 508.73 380.69 504 385.39"/></g><g class="cls-59"><polygon class="cls-60" points="503.07 386.32 498.38 381.59 503.11 376.88 507.79 381.62 503.07 386.32"/></g><g class="cls-61"><polygon class="cls-62" points="502.13 387.25 497.45 382.51 502.18 377.81 506.86 382.55 502.13 387.25"/></g><g class="cls-63"><polygon class="cls-64" points="501.2 388.18 496.51 383.44 501.24 378.74 505.93 383.48 501.2 388.18"/></g><g class="cls-65"><polygon class="cls-66" points="500.27 389.11 495.58 384.37 500.31 379.67 504.99 384.4 500.27 389.11"/></g><g class="cls-67"><polygon class="cls-68" points="499.33 390.03 494.65 385.3 499.38 380.6 504.06 385.33 499.33 390.03"/></g><g class="cls-69"><polygon class="cls-70" points="498.4 390.96 493.72 386.23 498.44 381.53 503.13 386.26 498.4 390.96"/></g><g class="cls-71"><polygon class="cls-72" points="497.47 391.89 492.78 387.15 497.51 382.45 502.19 387.19 497.47 391.89"/></g><g class="cls-73"><polygon class="cls-74" points="496.54 392.82 491.85 388.08 496.58 383.38 501.26 388.12 496.54 392.82"/></g><g class="cls-75"><polygon class="cls-76" points="495.6 393.75 490.92 389.01 495.64 384.31 500.33 389.05 495.6 393.75"/></g><g class="cls-77"><polygon class="cls-78" points="494.67 394.68 489.98 389.94 494.71 385.24 499.39 389.97 494.67 394.68"/></g><g class="cls-79"><polygon class="cls-80" points="493.74 395.6 489.05 390.87 493.78 386.17 498.46 390.9 493.74 395.6"/></g><g class="cls-81"><polygon class="cls-82" points="492.8 396.53 488.12 391.8 492.84 387.1 497.53 391.83 492.8 396.53"/></g><g class="cls-83"><polygon class="cls-84" points="491.87 397.46 487.18 392.73 491.91 388.02 496.6 392.76 491.87 397.46"/></g><g class="cls-85"><polygon class="cls-86" points="490.94 398.39 486.25 393.65 490.98 388.95 495.66 393.69 490.94 398.39"/></g><g class="cls-87"><polygon class="cls-88" points="490 399.32 485.32 394.58 490.04 389.88 494.73 394.62 490 399.32"/></g><g class="cls-89"><polygon class="cls-90" points="489.07 400.24 484.38 395.51 489.11 390.81 493.8 395.54 489.07 400.24"/></g><g class="cls-91"><polygon class="cls-92" points="488.14 401.17 483.45 396.44 488.18 391.74 492.87 396.47 488.14 401.17"/></g><g class="cls-93"><polygon class="cls-94" points="487.2 402.1 482.52 397.37 487.25 392.66 491.93 397.4 487.2 402.1"/></g><g class="cls-95"><polygon class="cls-96" points="486.27 403.03 481.58 398.3 486.31 393.59 491 398.33 486.27 403.03"/></g><g class="cls-97"><polygon class="cls-98" points="485.34 403.96 480.65 399.22 485.38 394.52 490.06 399.26 485.34 403.96"/></g><g class="cls-99"><polygon class="cls-100" points="484.4 404.88 479.72 400.15 484.45 395.45 489.13 400.18 484.4 404.88"/></g><g class="cls-101"><polygon class="cls-102" points="483.47 405.81 478.79 401.08 483.51 396.38 488.2 401.11 483.47 405.81"/></g><g class="cls-103"><polygon class="cls-104" points="482.54 406.74 477.85 402.01 482.58 397.31 487.26 402.04 482.54 406.74"/></g><g class="cls-105"><polygon class="cls-106" points="481.61 407.67 476.92 402.94 481.65 398.23 486.33 402.97 481.61 407.67"/></g><g class="cls-107"><polygon class="cls-108" points="480.67 408.6 475.99 403.86 480.71 399.16 485.4 403.9 480.67 408.6"/></g><g class="cls-109"><polygon class="cls-110" points="479.74 409.53 475.05 404.79 479.78 400.09 484.47 404.82 479.74 409.53"/></g><g class="cls-111"><polygon class="cls-112" points="478.81 410.45 474.12 405.72 478.85 401.02 483.53 405.75 478.81 410.45"/></g><g class="cls-113"><polygon class="cls-114" points="477.87 411.38 473.19 406.65 477.91 401.95 482.6 406.68 477.87 411.38"/></g><g class="cls-115"><polygon class="cls-116" points="476.94 412.31 472.25 407.58 476.98 402.88 481.67 407.61 476.94 412.31"/></g><g class="cls-117"><polygon class="cls-118" points="476.01 413.24 471.32 408.51 476.05 403.8 480.73 408.54 476.01 413.24"/></g><g class="cls-119"><polygon class="cls-120" points="475.07 414.17 470.39 409.43 475.11 404.73 479.8 409.47 475.07 414.17"/></g><g class="cls-121"><polygon class="cls-122" points="474.14 415.1 469.45 410.36 474.18 405.66 478.87 410.39 474.14 415.1"/></g><g class="cls-123"><polygon class="cls-124" points="473.21 416.02 468.52 411.29 473.25 406.59 477.93 411.32 473.21 416.02"/></g><g class="cls-125"><polygon class="cls-126" points="472.27 416.95 467.59 412.22 472.31 407.52 477 412.25 472.27 416.95"/></g><g class="cls-127"><polygon class="cls-128" points="471.34 417.88 466.66 413.15 471.38 408.44 476.07 413.18 471.34 417.88"/></g><g class="cls-129"><polygon class="cls-130" points="470.41 418.81 465.72 414.07 470.45 409.37 475.13 414.11 470.41 418.81"/></g><g class="cls-131"><polygon class="cls-132" points="469.47 419.74 464.79 415 469.51 410.3 474.2 415.04 469.47 419.74"/></g><g class="cls-133"><polygon class="cls-134" points="468.54 420.67 463.86 415.93 468.58 411.23 473.27 415.96 468.54 420.67"/></g><g class="cls-135"><polygon class="cls-136" points="467.61 421.59 462.92 416.86 467.65 412.16 472.33 416.89 467.61 421.59"/></g><g class="cls-137"><polygon class="cls-138" points="466.68 422.52 461.99 417.79 466.72 413.08 471.4 417.82 466.68 422.52"/></g><g class="cls-139"><polygon class="cls-140" points="465.74 423.45 461.06 418.72 465.78 414.01 470.47 418.75 465.74 423.45"/></g><g class="cls-141"><polygon class="cls-142" points="464.81 424.38 460.12 419.64 464.85 414.94 469.54 419.68 464.81 424.38"/></g><g class="cls-143"><polygon class="cls-144" points="463.88 425.31 459.19 420.57 463.92 415.87 468.6 420.61 463.88 425.31"/></g><g class="cls-145"><polygon class="cls-146" points="462.94 426.24 458.26 421.5 462.98 416.8 467.67 421.53 462.94 426.24"/></g><g class="cls-147"><polygon class="cls-148" points="462.01 427.16 457.32 422.43 462.05 417.73 466.74 422.46 462.01 427.16"/></g><g class="cls-149"><polygon class="cls-150" points="461.08 428.09 456.39 423.36 461.12 418.65 465.8 423.39 461.08 428.09"/></g><path class="cls-2" d="M460.5,430.45a4.52,4.52,0,0,1-1.56.86,9.94,9.94,0,0,1-8.87,2.9,11.15,11.15,0,0,1,3.46-5.24,7.82,7.82,0,0,1,1.7-1.05,5.19,5.19,0,0,1,1.39-.41,3.87,3.87,0,0,1,1.83.16,1.08,1.08,0,0,0,.23-.66,4.5,4.5,0,0,0-2.17-.18,6.2,6.2,0,0,0-1.55.46,8.11,8.11,0,0,0-1.68,1,11.87,11.87,0,0,0-3.95,6c-.12.15-.3.41-.62.89a58.21,58.21,0,0,1-9.58,11.31c-5.87,5.08-11.52,6.67-16.81,4.75l-.23.64c5.53,2,11.42.38,17.49-4.87a56.62,56.62,0,0,0,9.06-10.51A33.52,33.52,0,0,1,440.76,449a26.7,26.7,0,0,1-15.48,7.76l.08.68a27.31,27.31,0,0,0,15.88-8,34.06,34.06,0,0,0,8.63-14.64,10.45,10.45,0,0,0,10.63-4.42"/></g></g></svg>