<svg xmlns="http://www.w3.org/2000/svg" viewBox="0 0 84.49 82.19"><defs><style>.cls-1{fill:#dd8626;}.cls-2{fill:#fff;}.cls-3{fill:none;stroke:#fff;stroke-linecap:round;stroke-linejoin:round;stroke-width:2px;}</style></defs><g id="Layer_2" data-name="Layer 2"><g id="Layer_1-2" data-name="Layer 1"><path class="cls-1" d="M42.24,82.19c23.33,0,42.25-18.4,42.25-41.1S65.57,0,42.24,0,0,18.4,0,41.09s18.91,41.1,42.24,41.1"/><path class="cls-2" d="M29.52,35.34a5.77,5.77,0,1,0-5.92-5.77,5.84,5.84,0,0,0,5.92,5.77"/><path class="cls-2" d="M55,35.34A5.77,5.77,0,1,0,49,29.57,5.84,5.84,0,0,0,55,35.34"/><path class="cls-3" d="M21.56,64.35s.83-13.3,21.67-13c20.23.28,21.19,13,21.19,13"/></g></g></svg>