<svg width="300" height="301" viewBox="0 0 300 301" fill="none" xmlns="http://www.w3.org/2000/svg">
<g clip-path="url(#clip0_215_1240)">
<path d="M298 150.517C298 232.255 231.738 298.517 150 298.517C68.2618 298.517 2 232.255 2 150.517C2 68.7786 68.2618 2.51678 150 2.51678C231.738 2.51678 298 68.7786 298 150.517Z" fill="#F6B100" stroke="#821A1A" stroke-width="4"/>
<g clip-path="url(#clip1_215_1240)">
<path d="M93.1397 233.634L87.198 234.342C85.8817 234.548 84.6124 234.986 83.4493 235.636C78.595 238.17 70.892 245.629 71.8659 267.315C73.2714 298.729 78.2576 312.149 76.2518 324.594C74.2459 337.04 66.599 355.896 77.6197 402.997C77.6197 402.997 80.0564 428.507 74.4706 442.583C73.1883 445.295 72.3406 448.192 71.9587 451.167C71.9587 454.297 73.2522 454.357 73.8327 459.715C74.2452 463.463 73.8327 467.699 76.6068 472.066C77.7501 473.941 79.3434 478.587 81.8177 480.426C83.9171 482 85.8102 480.275 87.4404 481.1C92.2948 483.537 95.0505 482.974 96.4 481.1C98.274 478.795 91.0771 477.445 89.4278 476.171C89.4278 476.171 96.1569 479.132 97.5787 476.677C99.0005 474.222 90.6809 470.941 89.4278 469.423C87.0975 465.55 85.8906 461.105 85.9421 456.585C86.3805 453.292 87.1916 450.06 88.3597 446.95C88.3597 446.95 90.4399 452.91 89.6716 455.778C88.9033 458.646 88.7722 469.479 94.4913 468.786L95.9343 468.617C96.1222 466.748 96.1222 464.864 95.9343 462.995C95.6721 459.246 96.7962 450.006 96.5155 447.625C96.2349 445.244 94.4728 430.943 91.6796 425.414C88.8863 419.885 89.9551 386.635 95.4283 373.72C100.901 360.806 97.3023 337.452 97.5836 334.509C97.865 331.567 99.2875 318.729 98.7467 313.892C98.4469 311.193 99.0303 286.508 98.634 265.16" fill="#883A20"/>
<path d="M107.546 210.297C99.5714 212.916 82.9804 214.959 78.9769 222.016C73.6042 231.38 70.7774 242.425 69.1108 254.987C75.0272 258.9 87.1963 266.089 93.1106 269.965C100.412 274.779 96.462 285.672 97.3788 293.964C98.5958 305.104 103.464 316.168 101.441 327.289C99.3816 338.709 95.0383 349.325 91.444 360.389C83.9567 383.604 84.2753 409.067 84.2002 433.05C84.2002 459.728 83.3953 486.388 82.4218 513.029C81.8038 530.253 80.9054 638.932 79.8732 656.531C79.355 665.088 79.3889 673.867 78.2095 682.366C77.086 690.473 72.5933 697.737 71.6963 705.862C71.4104 707.551 71.5653 709.286 72.1458 710.898C73.6248 714.418 77.9681 715.86 81.825 716.889C104.291 722.936 126.757 730.949 150.29 731.867C175.621 732.896 200.838 727.823 225.177 721.7C227.292 721.359 229.291 720.504 230.999 719.21C234.744 715.803 232.871 709.962 230.456 705.675C224.259 694.592 225.401 681 224.503 668.79C223.455 654.837 222.15 640.914 220.59 627.021C216.846 592.554 217.67 557.751 214.431 523.322C211.931 497.114 209.471 470.954 207.053 444.843C204.769 420.505 204.45 395.417 199.002 371.435C196.662 361.082 192.581 351.103 190.484 340.694C186.627 321.766 189.417 287.674 192.225 268.559L219.877 257.963C219.877 257.963 215.964 233.063 209.449 223.085C205.536 217.093 193.048 214.474 182.15 213.144C182.15 213.144 161.053 236.808 139.558 234.824C118.063 232.839 107.544 210.258 107.544 210.258" fill="#681319"/>
<path d="M100.5 309.18H165.802C165.802 309.18 166.674 278.443 165.294 262.463C163.679 243.771 97.2891 275.953 97.2891 275.953C98.1262 280.478 97.2891 285.997 97.2891 292.647C97.2891 299.298 98.9491 302.722 100.5 309.18Z" fill="#3D1911"/>
<path d="M151.711 291.682V272.123C151.713 272.068 151.726 272.014 151.749 271.965C151.772 271.915 151.805 271.87 151.846 271.834C151.884 271.79 151.931 271.754 151.985 271.731C152.038 271.708 152.097 271.697 152.155 271.699H181.555C181.664 271.708 181.767 271.755 181.845 271.833C181.923 271.911 181.97 272.013 181.979 272.123V291.682C181.98 291.74 181.968 291.798 181.945 291.851C181.922 291.904 181.887 291.952 181.844 291.991C181.806 292.029 181.761 292.059 181.712 292.079C181.662 292.099 181.609 292.109 181.555 292.107H152.155C152.041 292.109 151.93 292.068 151.846 291.991C151.767 291.907 151.719 291.797 151.711 291.682V291.682Z" fill="#3D1911"/>
<path d="M194.163 233.634L200.105 234.342C201.421 234.548 202.691 234.986 203.854 235.636C208.708 238.166 216.412 245.629 215.437 267.312C214.032 298.726 209.045 312.146 211.051 324.592C213.057 337.037 220.702 355.896 209.683 402.997C209.683 402.997 207.246 428.507 212.832 442.583C214.146 445.29 215.026 448.187 215.437 451.167C215.437 454.297 214.144 454.357 213.563 459.715C213.151 463.463 213.563 467.699 210.789 472.066C209.646 473.941 208.053 478.587 205.578 480.426C203.479 482 201.586 480.275 199.955 481.1C195.101 483.537 192.345 482.974 190.996 481.1C189.122 478.795 196.319 477.445 197.968 476.171C197.968 476.171 191.239 479.132 189.817 476.677C188.395 474.222 196.715 470.941 197.968 469.423C200.299 465.55 201.506 461.105 201.455 456.585C201.037 453.308 200.251 450.088 199.111 446.988C199.111 446.988 197.031 452.949 197.799 455.816C198.568 458.684 198.568 469.48 192.945 468.787L191.502 468.618C191.314 466.749 191.314 464.865 191.502 462.995C191.764 459.247 190.64 450.006 190.921 447.626C191.201 445.245 192.963 430.944 195.757 425.415C198.55 419.886 197.481 386.635 192.008 373.721C186.535 360.808 190.134 337.453 189.871 334.511C189.608 331.569 188.147 318.729 188.69 313.892C188.99 311.193 188.407 286.508 188.803 265.16" fill="#883A20"/>
<path d="M107.497 205.838C110.252 206.588 114.732 202.952 117.525 203.57C120.506 204.014 123.548 203.815 126.447 202.988C130.372 202.288 134.215 201.189 137.918 199.708C141.577 198.26 144.677 195.678 146.764 192.342C149.426 187.6 148.77 181.79 147.048 176.672C145.677 172.339 143.381 168.354 140.319 164.995C137.146 161.548 132.98 159.17 128.398 158.191C125.623 157.523 122.699 157.882 120.168 159.201C117.727 160.998 115.932 163.535 115.051 166.436C114.454 167.777 114.026 169.188 113.775 170.634C113.619 172.444 113.707 174.266 114.038 176.052C114.724 181.17 115.037 186.332 114.975 191.496C115.201 193.524 114.674 195.566 113.494 197.231C112.736 198.178 111.679 198.839 110.495 199.105L108.134 198.768" fill="white"/>
<path d="M121.292 195.059C122.154 191.311 122.529 182.295 121.292 178.659C120.999 177.52 120.291 176.53 119.307 175.885C117.865 175.402 116.294 175.475 114.902 176.091C109.701 177.587 104.26 178.065 98.8771 177.497C97.1177 177.401 95.4018 176.914 93.854 176.072C93.0936 175.669 92.4568 175.067 92.0112 174.331C91.5657 173.594 91.3281 172.751 91.3237 171.89C91.474 170.016 93.029 167.729 91.6235 166.433C91.2627 166.131 90.8806 165.855 90.4803 165.608C90.1224 165.371 89.8329 165.044 89.6407 164.66C89.4486 164.276 89.3604 163.849 89.3851 163.42C89.4098 162.991 89.5464 162.577 89.7813 162.217C90.0163 161.858 90.3413 161.567 90.7241 161.372C90.0553 161.077 89.481 160.602 89.0645 160.002C88.6479 159.401 88.4053 158.697 88.3632 157.967C88.3284 157.693 88.4025 157.417 88.5694 157.198C89.4263 156.018 91.0218 153.45 90.4406 152.474C90.0656 151.912 89.2782 151.818 88.6977 151.462C88.2197 151.081 87.8853 150.549 87.749 149.953C87.6128 149.357 87.6829 148.733 87.9478 148.182C88.4857 147.083 89.1871 146.072 90.0281 145.183C92.2608 141.837 93.5553 137.954 93.7768 133.937C93.9889 129.928 94.5534 125.946 95.4636 122.035C98.0152 113.545 105.36 107.247 112.914 102.261C123.766 95.0454 137.711 93.0587 150.55 95.4955C157.41 96.8074 177.091 102.731 177.578 124.66C177.746 132.644 173.36 139.992 168.524 146.477C163.689 152.963 159.846 155.849 158.028 163.552C157.022 168.468 157.124 173.545 158.328 178.416C161.046 190.618 168.109 201.47 175.722 211.536C179.165 215.594 182.017 220.118 184.194 224.975C186.068 229.922 186.274 235.79 183.238 240.176C178.665 246.867 147.27 241.244 135.387 236.145C129.595 233.746 123.616 231.872 118.068 228.929C113.886 226.774 106.466 223.025 106.109 218.452C105.922 216.128 116.528 204.038 121.291 195.062" fill="#883A20"/>
<path d="M97.0945 160.984C96.5604 160.275 95.9291 159.644 95.2191 159.11C94.4646 158.315 93.56 157.678 92.5577 157.236C88.9592 156.411 88.5092 157.086 88.3589 157.386C88.2779 158.056 88.3879 158.735 88.6764 159.346C88.9648 159.956 89.4199 160.472 89.9891 160.835C90.1782 160.976 90.3865 161.09 90.6078 161.172C90.1765 161.416 89.8241 161.778 89.5925 162.215C89.3609 162.653 89.2597 163.148 89.3012 163.641C89.3426 164.135 89.5248 164.606 89.8262 164.999C90.1275 165.392 90.5354 165.69 91.0012 165.858C92.3451 165.247 93.605 164.466 94.7499 163.534C95.6131 162.811 96.3926 161.994 97.074 161.097V161.097" fill="#3E1910"/>
<path d="M91.0776 165.97C91.0776 165.97 98.575 163.458 101.497 160.141C101.497 160.141 99.6226 161.79 95.7421 159.56" fill="#3E1910"/>
<path d="M94.9017 151.163C94.6429 150.981 94.3497 150.853 94.0398 150.788C93.5617 150.713 93.0749 150.713 92.5968 150.788C92.3929 150.812 92.1989 150.889 92.0347 151.013C91.9962 151.036 91.9627 151.066 91.9361 151.102C91.9095 151.139 91.8905 151.18 91.88 151.223C91.8695 151.267 91.8678 151.312 91.875 151.356C91.8822 151.401 91.8982 151.443 91.922 151.481C91.9834 151.574 92.0768 151.64 92.1843 151.668C92.7279 151.837 93.3091 151.537 93.8896 151.537C94.5556 151.612 95.1961 151.837 95.7636 152.194C95.7636 152.194 95.7636 151.706 94.8266 151.125" fill="#3E1910"/>
<path d="M100.787 125.3C104.006 125.063 107.239 125.063 110.458 125.3C111.22 125.336 111.972 125.487 112.689 125.75C115.262 127.146 117.294 129.363 118.461 132.047C117.629 131.203 116.754 130.402 115.839 129.648C112.09 126.987 106.468 127.868 101.969 128.372C101.219 128.372 100.207 125.523 100.788 125.28" fill="#3E1910"/>
<path d="M95.8579 153.374C95.8579 153.374 97.7319 153.956 98.5385 153.15C99.832 151.931 98.5385 149.701 97.5639 149.12C100.806 153.843 95.8579 153.374 95.8579 153.374Z" stroke="#3E1910" stroke-width="0.2" stroke-miterlimit="10"/>
<path d="M106.56 135.587C106.815 136.707 106.75 137.876 106.373 138.961C105.904 140.198 104.611 141.622 103.184 141.416C101.756 141.21 100.728 138.755 102.227 135.604C103.652 135.276 105.133 135.276 106.557 135.604" fill="#3E1910"/>
<path d="M106.429 135.475C108.623 135.891 110.608 137.049 112.05 138.755C112.556 139.149 112.987 139.28 113.493 138.868C113 138.708 112.569 138.399 112.258 137.983C111.561 137.088 110.687 136.347 109.691 135.805C108.694 135.263 107.597 134.933 106.467 134.834C104.161 134.591 101.837 135.303 100.469 134.684C101.668 136.282 102.999 135.081 106.429 135.475Z" stroke="#3E1910" stroke-width="0.8" stroke-miterlimit="10"/>
<path d="M143.897 145.015C143.816 144.934 143.72 144.87 143.613 144.828C143.507 144.786 143.393 144.767 143.278 144.771H142.51L143.203 145.09C143.394 145.168 143.552 145.31 143.65 145.49C143.749 145.671 143.783 145.88 143.747 146.083C143.732 146.388 143.643 146.685 143.486 146.947C143.329 147.209 143.11 147.428 142.847 147.585L142.229 147.772L142.885 147.903H142.998C143.26 147.903 144.122 147.791 144.291 146.198C144.308 145.77 144.168 145.35 143.898 145.017" fill="#3E1910"/>
<path d="M149.294 139.13C149.294 139.13 142.132 138.154 142.132 143.778C142.132 143.778 141.982 144.566 142.62 144.79C142.62 144.79 142.245 141.567 144.307 140.538C145.844 139.704 147.546 139.218 149.292 139.113" fill="#3E1910"/>
<g style="mix-blend-mode:multiply" opacity="0.72">
<path d="M107.329 155.399C107.709 156.281 107.98 157.206 108.134 158.154C108.278 157.665 108.278 157.146 108.135 156.658C107.992 156.17 107.712 155.733 107.329 155.399" fill="#9B4325"/>
</g>
<path d="M185.057 108.559C186.125 105.767 173.81 113.152 172.592 110.433C171.374 107.715 171.561 107.457 168.45 107.753C170.137 106.516 165.414 89.0095 162.677 90.303C162.677 87.3042 137.224 84.6803 136.08 91.3151L135.499 91.7836C130.745 91.9072 126.066 93.0018 121.75 95.0002C117.434 96.9985 113.572 99.8583 110.402 103.404C120.074 107.359 123.354 108.521 128.901 116.037C134.168 123.159 132.516 125.033 135.218 133.337C135.927 135.586 137.092 138.227 139.66 138.511C141.156 138.493 142.619 138.072 143.896 137.292C146.764 135.946 151 135.53 152.462 138.214C153.53 140.088 152.462 142.487 151.037 144.211C149.437 145.728 148.234 147.613 147.532 149.703C147.288 151.071 147.645 152.458 147.532 153.827C147.419 155.195 146.333 156.657 144.889 156.601C146.763 161.98 149.912 184.959 155.085 187.808C164.457 193.019 164.27 212.587 167.231 211.068C167.861 210.675 168.534 210.354 169.237 210.112C170.207 209.981 171.19 209.981 172.16 210.112C173.379 210.105 174.577 209.801 175.652 209.226C176.726 208.651 177.644 207.823 178.327 206.814C178.739 205.853 179.382 205.009 180.201 204.358C180.987 204.046 181.829 203.893 182.675 203.908C187.773 203.496 192.046 170.454 191.522 165.653C191.315 164.829 191.315 163.966 191.522 163.141C191.972 162.363 192.618 161.717 193.396 161.267C194.984 160.149 196.269 158.653 197.133 156.913C197.997 155.174 198.413 153.246 198.344 151.305C198.275 149.364 197.723 147.47 196.738 145.796C195.753 144.122 194.366 142.721 192.703 141.718C194.773 138.847 196.017 135.465 196.301 131.937C196.373 130.153 195.863 128.394 194.849 126.924C193.835 125.454 192.372 124.353 190.678 123.786C189.817 123.561 188.694 123.28 188.654 122.439C188.684 122.038 188.841 121.657 189.104 121.352C189.693 120.34 190.064 119.217 190.193 118.053C190.322 116.89 190.206 115.712 189.854 114.596C189.501 113.48 188.918 112.45 188.144 111.572C187.369 110.695 186.42 109.988 185.356 109.499" fill="#3E1910"/>
<path d="M95.8579 153.374C95.8579 153.374 97.7319 153.956 98.5385 153.15C99.832 151.931 98.5385 149.701 97.5639 149.12C100.731 153.843 95.8586 153.372 95.8586 153.372" fill="#3E1910"/>
<path d="M106.429 135.475C108.623 135.891 110.608 137.049 112.05 138.755C112.556 139.149 112.987 139.28 113.493 138.868C113 138.708 112.569 138.399 112.258 137.983C111.561 137.088 110.687 136.347 109.691 135.805C108.694 135.263 107.597 134.933 106.467 134.834C104.161 134.591 101.837 135.303 100.469 134.684C101.612 136.202 102.944 135.077 106.373 135.472" fill="#3E1910"/>
<g style="mix-blend-mode:multiply">
<path d="M110.402 156.523C110.818 157.495 111.108 158.515 111.264 159.56C111.428 159.024 111.434 158.453 111.281 157.914C111.129 157.376 110.823 156.893 110.402 156.523Z" fill="#9B4325"/>
</g>
<path d="M144.195 117.649C143.671 116.768 141.796 112.83 140.915 111.333C139.217 108.51 137.339 105.799 135.293 103.217" fill="#7F3316"/>
<path d="M135.799 111.746C137.237 113.11 138.357 114.774 139.079 116.62C140.945 120.581 142.506 124.678 143.747 128.877" fill="#7F3316"/>
<path d="M175.388 206.006C175.462 207.116 175.157 208.219 174.524 209.135C173.891 210.05 172.967 210.724 171.902 211.048C169.696 211.699 167.379 211.884 165.098 211.591L134.731 209.717C130.72 209.473 126.728 209.211 122.773 208.573C118.312 207.843 110.983 200.777 110.29 200.345C109.739 200.068 109.125 199.938 108.509 199.97C103.093 199.802 97.3569 200.195 92.8966 203.082C89.7185 205.404 87.0999 208.407 85.2327 211.871C79.7922 220.583 75.1912 229.791 71.4917 239.372C70.8767 240.598 70.6604 241.986 70.873 243.341C71.3874 244.649 72.3061 245.759 73.4954 246.508C86.7097 256.63 104.515 259.479 121.515 260.172C138.515 260.865 155.834 259.818 172.309 263.49C180.389 265.364 188.148 268.175 196.226 269.94C204.303 271.704 213.094 272.208 220.723 269.302C224.809 267.765 228.689 265.029 230.094 261.074C231.968 255.451 228.014 249.321 222.597 246.416C221.854 246.113 221.206 245.614 220.723 244.973C220.37 244.102 220.324 243.137 220.592 242.237C221.342 237.417 218.83 231.459 213.694 230.841C211.82 230.597 209.402 231.066 208.071 229.698C206.741 228.33 207.472 226.118 207.584 224.225C207.903 218.714 202.279 214.74 197.312 211.854C190.077 207.673 181.38 202.483 172.946 203.589" fill="white"/>
<path d="M203.294 218.751C202.244 218.396 202.713 218.113 203.294 218.751V218.751ZM210.641 223.174C209.469 221.93 208.102 220.885 206.593 220.082L205.843 219.688C206.799 217.814 207.923 215.94 208.766 214.178C209.306 213.236 209.654 212.197 209.789 211.121C209.925 210.044 209.846 208.952 209.556 207.906C209.267 206.86 208.773 205.882 208.104 205.028C207.434 204.174 206.602 203.462 205.655 202.932C204.618 202.05 203.274 201.616 201.917 201.725C200.56 201.834 199.303 202.477 198.42 203.513C198.42 203.513 202.806 201.302 204.174 192.998C206.726 177.591 206.254 147.846 200.294 133.113C197.105 125.26 197.034 121.867 193.247 114.37C190.192 108.241 180.876 95.6266 174.054 93.2841C166.557 90.7913 162.302 87.9045 154.693 85.9554C147.701 84.0814 120.73 92.2528 120.112 95.852C120.112 96.2453 121.986 94.8597 125.341 93.6966C126.638 93.21 127.993 92.895 129.371 92.7596C130.436 92.6182 131.518 92.7019 132.548 93.0054C133.578 93.309 134.533 93.8255 135.35 94.5216C156.624 123.78 152.594 145.653 154.412 167.377C155.424 179.598 150.326 198.959 144.291 202.461C138.668 205.721 129.69 206.21 123.955 206.416C121.134 206.48 118.337 205.89 115.783 204.692C113.518 203.579 111.647 201.8 110.422 199.593C110.146 199.266 109.791 199.014 109.392 198.86C108.992 198.706 108.56 198.656 108.136 198.712C102.719 198.544 94.078 198.975 89.5985 201.861C86.2623 204.017 81.9325 210.65 81.9325 210.65C76.947 209.451 74.9411 223.77 72.0926 231.53C71.1712 233.873 70.4241 236.14 69.787 238.146C69.1498 240.152 68.475 242.532 67.913 244.819C66.4662 250.513 65.8345 256.383 66.0368 262.254C66.73 274.549 89.9536 275.543 99.1917 276.068C111.663 276.797 124.176 276.276 136.544 274.512C155.794 271.738 176.093 267.502 192.436 257.005C199.878 252.186 208.313 245.665 212.061 237.681C213.331 235.412 213.87 232.807 213.605 230.221C213.34 227.635 212.284 225.193 210.58 223.229" fill="white"/>
<path d="M198.421 203.588C198.421 203.588 183.744 227.299 145.714 233.015C145.714 233.015 188.824 233.896 198.421 203.588Z" fill="#E3DEC9"/>
<path d="M172.312 263.491C172.312 263.491 145.509 249.453 95.8579 248.01C95.8579 248.01 152.481 258.037 172.33 263.491" fill="#E3DEC9"/>
<path d="M81.8556 214.291C81.8556 214.291 73.478 223.213 84.3115 234.405C82.5508 231.398 81.4246 228.062 81.0022 224.602C80.5799 221.143 80.8703 217.633 81.8556 214.291" fill="#E3DEC9"/>
<path d="M74.1712 249.546C74.1712 249.546 84.0862 265.309 116.475 266.115C116.475 266.115 74.4342 269.227 74.1152 249.546" fill="#E3DEC9"/>
<path d="M213.584 233.015C213.584 233.015 211.486 256.313 169.875 248.01C169.875 248.01 217.37 260.961 213.584 233.015" fill="#E3DEC9"/>
<path d="M103.355 201.413C103.355 201.413 91.4535 221.791 129.277 216.408C129.277 216.408 98.3506 219.764 103.355 201.413" fill="#E3DEC9"/>
<path d="M164.57 206.212C164.57 206.212 184.12 190.77 178.328 153.581C178.328 153.581 191.26 189.905 164.607 206.212" fill="#E3DEC9"/>
</g>
</g>
<defs>
<clipPath id="clip0_215_1240">
<rect y="0.516785" width="300" height="300" rx="150" fill="white"/>
</clipPath>
<clipPath id="clip1_215_1240">
<rect width="167.311" height="646.32" fill="white" transform="translate(66 85.6799)"/>
</clipPath>
</defs>
</svg>
