<svg width="300" height="301" viewBox="0 0 300 301" fill="none" xmlns="http://www.w3.org/2000/svg">
<g clip-path="url(#clip0_217_244)">
<path d="M298 150.758C298 232.496 231.738 298.758 150 298.758C68.2618 298.758 2 232.496 2 150.758C2 69.0201 68.2618 2.7583 150 2.7583C231.738 2.7583 298 69.0201 298 150.758Z" fill="#F6B100" stroke="#821A1A" stroke-width="4"/>
<path d="M156.875 150.758C176.673 150.758 192.708 134.723 192.708 114.925C192.708 95.127 176.673 79.0916 156.875 79.0916C137.077 79.0916 121.042 95.127 121.042 114.925C121.042 134.723 137.077 150.758 156.875 150.758ZM76.25 132.842V105.967H58.3334V132.842H31.4584V150.758H58.3334V177.633H76.25V150.758H103.125V132.842H76.25ZM156.875 168.675C132.956 168.675 85.2084 180.679 85.2084 204.508V222.425H228.542V204.508C228.542 180.679 180.794 168.675 156.875 168.675Z" fill="#333333"/>
</g>
<defs>
<clipPath id="clip0_217_244">
<rect y="0.758301" width="300" height="300" rx="150" fill="white"/>
</clipPath>
</defs>
</svg>
