<?xml version="1.0" encoding="utf-8"?>
<!-- Generator: Adobe Illustrator 23.1.0, SVG Export Plug-In . SVG Version: 6.00 Build 0)  -->
<svg version="1.1" id="Layer_1" xmlns="http://www.w3.org/2000/svg" xmlns:xlink="http://www.w3.org/1999/xlink" x="0px" y="0px"
	 viewBox="0 0 595.28 841.89" style="enable-background:new 0 0 595.28 841.89;" xml:space="preserve">
<style type="text/css">
	.st0{fill-rule:evenodd;clip-rule:evenodd;fill:#924520;}
	.st1{fill:#994E2E;}
	.st2{fill:#854324;}
	.st3{fill:#7E1620;}
	.st4{fill:url(#SVGID_1_);}
	.st5{fill:url(#SVGID_2_);}
	.st6{fill:#502313;}
	.st7{opacity:0.6;}
	.st8{fill-rule:evenodd;clip-rule:evenodd;fill:#502313;}
	.st9{fill:#502110;}
	.st10{fill:#502110;stroke:#502110;stroke-width:0.1417;stroke-linejoin:bevel;stroke-miterlimit:10;}
	.st11{fill:#773017;}
	.st12{fill:#6A2910;}
	.st13{fill:#6E3423;}
	.st14{fill:#803D1B;}
	.st15{fill:#914620;}
	.st16{fill-rule:evenodd;clip-rule:evenodd;fill:#994E2E;}
	.st17{fill:#FDC99D;}
	.st18{fill:url(#SVGID_3_);}
	.st19{fill:url(#SVGID_4_);}
</style>
<path class="st0" d="M314.58,307.1c-0.68-0.36-3.35-0.93-4.12-1.24c-4.35-1.84-6.77-5.81-10.09-8.73
	c-2.85-2.19-2.58-8.92-2.73-12.73c0.16-1.45,0.27-2.41,0.27-2.41c-1.81-0.84-5.58-1.21-10.43-1.1c-0.16,0-0.31,0.01-0.46,0.01
	c-0.16,0-0.31-0.01-0.47-0.01c0,0,0,0-0.01,0v-0.01c-0.08,0-0.16,0-0.24,0c-0.08,0-0.16,0-0.24,0v0.01c0,0,0,0-0.01,0
	c-0.16,0-0.31,0.01-0.47,0.01c-0.16,0-0.31-0.01-0.46-0.01c-4.86-0.1-8.62,0.26-10.43,1.1c0,0,0.11,0.96,0.27,2.41
	c0.09,4.19,0.16,10.63-2.68,12.81c-3.32,2.92-3.48,6.81-7.83,8.64c-0.76,0.31-3.66,0.36-4.34,0.71c-5.41,2.85-10.75,3.06-10.75,7.11
	c0,8.99,15.88,14.54,35.72,14.54c0.41,0,0.82-0.01,1.22-0.01c0.41,0.01,0.81,0.01,1.22,0.01c19.84,0,35-5.55,35-14.54
	C322.53,309.62,319.99,309.94,314.58,307.1z"/>
<g>
	<g>
		<g>
			<path class="st1" d="M239.83,356.61c0.01-7.56,0.32-19,2.18-26.22l20.68,7.29c-0.74,2.97,0,0,0,0c-0.66,4.82-1.38,4.91-2.69,9.56
				c-0.46,1.64-11.26,0.43-11.73,2.07c-0.43,1.54,7.6,6.67,7.41,8.27"/>
		</g>
		<g>
			<path class="st1" d="M257.5,365.03c0.08-0.49-0.26-1.95,1.26-5.93c2.42-6.33,3.53-16.93,3.56-19.73c0.05-5.46-3.71,1.07-7.1,3.32
				l-5.64,0.37c-1.63,3.49-2.8,0.84-4.51,3.92c-2.97,5.34,2.45-5.56,0,0c-0.86,1.96-1.78-3.26-2.64-1.3
				c-0.81,1.84-2.16,1.43-2.63,5.65c0,0-0.03,10.45,0.03,13.59c0.04,2.31-0.69,6.08-0.52,7.69c0.25,2.36-0.74,9.56-0.74,9.56
				s-0.05,2.48,0.62,6.77c1.72,11.03,2.04,24.99,1.44,29.65l10.16,1.14c0,0,8.12-38.95,6.66-47.56
				C257.46,372.17,257.12,367.59,257.5,365.03z"/>
		</g>
		<g>
			<path class="st2" d="M247.16,442.31c0,0,0.02,0.68,0.04,1.66c0.44,5.3-0.31,7.52,2.64,11.52c-3.76-1.95-5.12-6.15-2.75-12.14
				C247.12,442.72,247.16,442.31,247.16,442.31z"/>
			<path class="st1" d="M251.02,417.32c-0.42,2.8-0.4,6.05,0.85,9.12c2.5,6.19-0.71,12.76-0.71,16.52c0,1.24,1.41,3.94,1.46,5.22
				c-0.15,1.4-0.96,1.87-0.96,1.87c0.04,0.79-0.12-0.37,0,0c0.44,1.36,0.38,2.87,0.62,3.7c0.24,0.82,1.88,4.21-0.17,4.72
				c0,0-1.23,0.74-1.87-0.52c0,0-1.31-1.46-1.4-1.97c-0.09-0.51-0.79-3.2-1.07-3.75c-0.28-0.55-1.14-2.3-1.11-3.77
				c0-0.27-0.06-0.82-0.06-0.82c-0.33-0.37-0.34-0.38-0.27-0.16c0.21,0.63,0.06,2.71,0.51,3.45c0.61,1.01,1.75,1.92,2.36,3.84
				c0.44,1.4,1.17,2.04,1.24,2.49c0.12,0.81-0.9,0.87-0.9,0.87s-0.36,0.06-1.33-0.47c-1.27-0.7-0.7-0.46-1.92-1.57
				c0,0-1.8-2.62-2.41-3.39c-0.61-0.78-1.1-1.82-1.31-3.1c-0.21-1.28-0.89-4.06,0.01-2.37c0.45,0.86-0.4,2.34,0.68,3.05
				c0.47,0.31,2.52,4.97,2.52,4.97c-1.22-0.64-0.16-0.19-1.19-0.51c0,0-1.77-0.34-3.05-1.7c0,0-2.21-2.03-2.04-3.4
				c0,0-0.71-2.17-0.88-4.12c-0.09-1.01,1.07,2.88,0.88,4.12c0,0-1.85-1.86-2.06-2.86c-0.44-2.19-0.95-4.9-1.08-5.37
				c-0.13-0.48-0.82-2.86,0.42-5.99c1.24-3.14,3.53-7.88,3.01-10.38c-0.52-2.5,0.95-8.59,1.25-18.01l11.66,1.23
				C252.68,408.25,251.65,413.09,251.02,417.32"/>
			<path class="st2" d="M241.87,440.96c0,0,0.3,5.75,0.35,7.15c0.05,1.39,0.45,2.53,1.02,3.39c0.57,0.86,2.36,3.6,2.36,3.6
				s-1.97-2.96-2.44-3.31c-1.09-0.81-1.17-3.94-1.26-4.97C241.67,444.44,241.87,440.96,241.87,440.96z"/>
			<path class="st2" d="M238.97,447.23c0,0-0.42-1.81-0.32-3.92c0.11-2.11,0.45-2.92-0.58-3.97c0,0,0.64,1.89,0.45,3.01
				C238.33,443.46,238.66,446.67,238.97,447.23z"/>
		</g>
	</g>
</g>
<polygon class="st3" points="255.72,420.69 238.63,418.59 236.4,405.42 236.99,359.82 243.36,310.07 253.31,311.29 259.52,331.86 
	"/>
<g>
	
		<linearGradient id="SVGID_1_" gradientUnits="userSpaceOnUse" x1="-4.2984" y1="375.0372" x2="61.4056" y2="382.0083" gradientTransform="matrix(-1 0 0 1 271.4141 0)">
		<stop  offset="0" style="stop-color:#7E1620"/>
		<stop  offset="0.5411" style="stop-color:#7E1620;stop-opacity:0"/>
	</linearGradient>
	<path class="st4" d="M245.9,330.5c2.28,5.34,4.8,9.33,7.59,11.86c1.99,0.87,3.98,1.74,5.96,2.61l-0.52,79.54h-19.39l2.18-91.79
		C243.14,332.39,244.54,331.64,245.9,330.5z"/>
</g>
<polygon class="st3" points="252.72,428.97 238.03,428.41 238.73,415.92 253.88,418.08 "/>
<g>
	
		<linearGradient id="SVGID_2_" gradientUnits="userSpaceOnUse" x1="17.5377" y1="422.4449" x2="33.3868" y2="422.4449" gradientTransform="matrix(-1 0 0 1 271.4141 0)">
		<stop  offset="0" style="stop-color:#7E1620"/>
		<stop  offset="0.5672" style="stop-color:#7E1620;stop-opacity:0"/>
	</linearGradient>
	<polygon class="st5" points="252.72,428.97 238.03,428.41 238.73,415.92 253.88,418.08 	"/>
</g>
<path class="st6" d="M310.93,252.19c0.01-0.49,0.04-0.92,0.09-1.36c0.05-0.45,0.13-0.89,0.27-1.4c0.27-0.97,0.07-2.04,0.19-3.04
	c0.05-0.39-0.16-2.1-0.56-2.66c0.03-0.8-0.17-3.31-0.75-3.79c-0.33-0.27-0.62-0.75-0.75-1.15c-0.09-0.31-1.72-3.28-2.62-4.1
	c-0.88-0.83-2.29-1.66-2.54-1.88c-0.27-0.23-1.51-1.41-1.77-1.66c-0.56-0.56-2.85-1.48-5.01-2.08c-0.17-0.05-0.35-0.1-0.49-0.2
	c-0.13-0.09-0.22-0.2-0.33-0.31c-0.6-0.67-4.72-0.83-5.15-0.77c-0.32,0.02-1.48-0.21-1.8-0.23c-0.77-0.06-2.36-0.07-3.48,0.13
	c-1.11-0.2-2.71-0.2-3.48-0.13c-0.33,0.03-1.48,0.26-1.8,0.23c-0.43-0.05-4.55,0.1-5.15,0.77c-0.11,0.11-0.2,0.23-0.33,0.31
	c-0.14,0.1-0.31,0.15-0.49,0.2c-2.17,0.6-4.45,1.52-5.01,2.08c-0.25,0.25-1.5,1.42-1.77,1.66c-0.26,0.21-1.66,1.05-2.54,1.88
	c-0.9,0.82-2.53,3.79-2.62,4.1c-0.13,0.39-0.42,0.87-0.75,1.15c-0.57,0.47-0.78,2.98-0.75,3.79c-0.4,0.56-0.61,2.28-0.56,2.66
	c0.06,0.5,0.04,1.02,0.04,1.53c0,0.51,0.02,1.02,0.15,1.51c1.64,4.65,3.64,9.65,4.11,14.56c0.06,0.36,0.7,1.1,0.66,1.46
	c-0.02,0.26,0.31,0.69,0.82,1.21c0.51,0.52,1.18,1.13,1.85,1.74c0.59,0.34,1.19,0.71,1.69,1.23c1.01,0.97,1.92,1.96,2.84,2.81
	c0.18,0.17,0.37,0.34,0.55,0.49c2.62,2.6,6.94,2.26,10.43,2.8c0.3-0.11,0.6-0.24,0.9-0.37c1.5-0.67,3.05-1.48,4.64-1.53
	c0.35,0.04,0.69,0.1,1.02,0.18c0.34,0.08,0.67,0.19,1,0.33c4.71,0.1,6.15-5.28,10.01-5.63c0.3-0.12,0.62-0.2,0.94-0.26
	c0.31-0.26,0.62-0.52,0.92-0.79c0.31-0.27,0.61-0.55,0.92-0.85c4.34-2.74,2.34-8.74,5.36-12.64c0.23-0.44,0.51-0.87,0.87-1.26
	C310.84,252.61,310.92,252.34,310.93,252.19z"/>
<g class="st7">
</g>
<path class="st0" d="M303.3,265.67c-0.08-0.45-0.17-0.9-0.25-1.35c-0.22-0.33-0.42-0.66-0.62-1.01c-1.55-2.04-1.4-4.26-1.2-6.46
	c0.01-0.08,0.01-0.16,0.02-0.24c-0.09-0.54-0.09-0.54,0.12-1.64c0-0.08,0.01-0.16,0.01-0.23c0-0.08,0-0.15,0-0.23
	c0-0.08,0-0.16-0.01-0.23c-0.21-0.19-0.21-1.19-0.12-1.42c-0.01-0.08-0.03-0.15-0.05-0.23c-0.05-0.23-0.11-0.46-0.19-0.69
	c-0.03-0.08-0.05-0.15-0.08-0.23c1.24-0.62-1.76-0.62-0.79-1.35c-0.03-0.07-0.06-0.13-0.12-0.2c-0.12-0.14-0.24-0.29-0.38-0.43
	c-0.34-0.33-4.18-0.97-4.56-1.22c-2-1-2.96,0.46-5.76,0.17c-0.6-0.07-1.19-0.12-1.79-0.16c-0.45-0.03-0.89-0.04-1.34-0.05
	c-0.44,0-0.89,0-1.33,0.02c-0.65-0.13-1.28-0.21-1.9-0.25c-0.62-0.04-1.22-0.03-1.81,0.01c-2.01-0.1-2.09-1.36-3.78-0.4
	c-0.42,0.24-2.91,1.57-3.29,1.87c-0.4,0.2-0.74,0.43-1.03,0.68c-0.05,0.05-0.08,0.09-0.11,0.14c1.2,0.55-1.8,0.55-0.8,1.08
	c-0.03,0.04-0.06,0.07-0.09,0.13c-0.14,0.31-0.23,0.64-0.3,0.98c-0.01,0.07,0,0.12,0,0.19c0.38,1.16,0.38,1.16-0.13,1.41
	c0,0.08,0,0.16,0,0.24c0.01,0.39,0.04,0.79,0.07,1.19c0.01,0.08,0.01,0.16,0.02,0.24c0.41,0.07,0.41,1.07,0.13,1.24
	c-0.01,0.08-0.02,0.15-0.01,0.23c0.12,1.97,0.04,3.93-1.37,5.49c-0.26,0.47-0.56,0.92-0.92,1.36c-0.1,0.45-0.18,0.9-0.27,1.35
	c-0.69,3.63,0.47,6.87,1.51,9.71c1.01,2.83,1.25,3.98,2.72,7.44c1.45,3.45,3.56,4.8,6.33,6.06c1.95,0.9,4.1,1.28,6.44,1.16
	c2.34,0.12,4.49-0.26,6.44-1.16c2.78-1.26,4.89-2.61,6.33-6.06c1.47-3.47,1.7-4.61,2.72-7.44C302.83,272.54,304,269.3,303.3,265.67z
	"/>
<path class="st0" d="M269.12,264.93c-0.36-0.46-0.7-0.65-1.04-0.56c-0.59,0.16-1.01,0.72-1.27,1.66c-0.3,1.03,0.63,2.32,0.79,3.89
	c0.22,2.11-0.24,3.74,0.63,4.91c0.8,1.11,1.71,1.54,2.73,1.3l0.33-0.09l-0.38-2.52c-0.73-4.63-1.27-7.4-1.65-8.31L269.12,264.93z"/>
<g>
	<path class="st8" d="M295.86,264.98c0,0.5-0.17,0.92-0.52,1.27c-0.35,0.35-0.77,0.52-1.27,0.52c-0.5,0-0.92-0.17-1.27-0.52
		c-0.35-0.35-0.52-0.77-0.52-1.27c0-0.5,0.17-0.92,0.52-1.27c0.35-0.35,0.77-0.52,1.27-0.52c0.5,0,0.92,0.17,1.27,0.52
		C295.68,264.06,295.86,264.49,295.86,264.98z"/>
	<path class="st0" d="M297.19,261.01l1.11,2.9c-3.13-1.11-5.85-0.99-8.15,0.36l1.32-3.45C293.34,259.91,295.25,259.97,297.19,261.01
		z"/>
	<g>
		<path class="st8" d="M290.1,264.75c-0.05,0.03-0.1,0.07-0.14,0.11c0.95-1.29,2.26-1.98,3.93-2.07c1.76-0.1,3.48,0.5,5.14,1.79
			c-1.14-0.5-2.5-0.8-4.07-0.89c-1.96-0.13-3.52,0.18-4.68,0.95C290.21,264.67,290.15,264.71,290.1,264.75z"/>
	</g>
	<path class="st9" d="M290.37,260.29c-0.07-1,0.64-0.95,1.25-1.08c0.15-0.03,0.31-0.06,0.47-0.09c0.16-0.03,0.32-0.05,0.49-0.08
		c2.21-0.32,3.88-0.43,5.62,0.87c0.14,0.15,0.27,0.31,0.4,0.5c0.06,0.12,0.09,0.21,0.08,0.25c-0.06,0.16-0.25,0.22-0.42,0.26
		c-0.18,0.04-0.22,0.03-0.54-0.14c-0.11-0.06-0.26-0.13-0.42-0.2c-1.56-0.23-2.39-0.18-3.92-0.2c-0.14,0.04-0.28,0.08-0.42,0.12
		c-0.41,0.12-0.83,0.24-1.29,0.33c-0.22,0.04-0.65,0.23-0.86,0.17C290.59,260.95,290.39,260.51,290.37,260.29z"/>
</g>
<g>
	<path class="st8" d="M276.75,264.91c0,0.5,0.17,0.92,0.52,1.27c0.35,0.35,0.77,0.52,1.27,0.52c0.5,0,0.92-0.17,1.27-0.52
		c0.35-0.35,0.52-0.77,0.52-1.27c0-0.5-0.17-0.92-0.52-1.27c-0.35-0.35-0.77-0.52-1.27-0.52c-0.5,0-0.92,0.17-1.27,0.52
		C276.93,263.98,276.75,264.41,276.75,264.91z"/>
	<path class="st0" d="M275.42,260.93l-1.11,2.9c3.13-1.11,5.85-0.99,8.15,0.36l-1.32-3.45
		C279.27,259.83,277.36,259.89,275.42,260.93z"/>
	<g>
		<path class="st8" d="M282.52,264.67c0.05,0.03,0.1,0.07,0.14,0.11c-0.95-1.29-2.26-1.98-3.93-2.07c-1.76-0.1-3.48,0.5-5.14,1.79
			c1.14-0.5,2.5-0.8,4.07-0.89c1.96-0.13,3.52,0.18,4.68,0.95C282.4,264.59,282.46,264.63,282.52,264.67z"/>
	</g>
	<path class="st9" d="M282.24,260.21c0.07-1-0.64-0.95-1.25-1.08c-0.15-0.03-0.31-0.06-0.47-0.09c-0.16-0.03-0.32-0.05-0.49-0.08
		c-2.21-0.32-3.88-0.43-5.62,0.87c-0.14,0.15-0.27,0.31-0.4,0.5c-0.06,0.12-0.09,0.21-0.08,0.25c0.06,0.16,0.25,0.22,0.42,0.26
		c0.18,0.04,0.22,0.03,0.55-0.14c0.11-0.06,0.26-0.13,0.42-0.2c1.56-0.23,2.39-0.18,3.92-0.2c0.14,0.04,0.28,0.08,0.41,0.12
		c0.41,0.12,0.83,0.24,1.29,0.33c0.22,0.04,0.65,0.23,0.86,0.17C282.02,260.87,282.23,260.44,282.24,260.21z"/>
</g>
<g>
	<path class="st10" d="M289.32,274.45c0,0,0.88,0.43,1.3-0.17c0.63-0.91,0-2.59-0.47-3.02C291.68,274.8,289.32,274.45,289.32,274.45
		z"/>
	<path class="st10" d="M288.08,273.38c-0.16-0.07-0.35-0.1-0.44-0.11c-0.15-0.01-0.31,0.01-0.45,0.06
		c-0.06,0.02-0.13,0.05-0.17,0.11c-0.04,0.06-0.06,0.15-0.02,0.21c0.02,0.04,0.06,0.06,0.09,0.07c0.17,0.06,0.35-0.08,0.53-0.1
		c0.42-0.05,1.14,0.32,1.14,0.32S288.53,273.59,288.08,273.38z"/>
	<path class="st10" d="M283.29,274.45c0,0-0.88,0.43-1.3-0.17c-0.63-0.91,0-2.59,0.47-3.02
		C280.93,274.8,283.29,274.45,283.29,274.45z"/>
	<path class="st10" d="M284.53,273.38c0.16-0.07,0.35-0.1,0.44-0.11c0.15-0.01,0.31,0.01,0.45,0.06c0.06,0.02,0.13,0.05,0.17,0.11
		c0.04,0.06,0.06,0.15,0.02,0.21c-0.02,0.04-0.06,0.06-0.09,0.07c-0.17,0.06-0.35-0.08-0.53-0.1c-0.42-0.05-1.14,0.32-1.14,0.32
		S284.09,273.59,284.53,273.38z"/>
</g>
<path class="st11" d="M291.71,278.89c-0.44,0.1-2.65-0.04-3.03-0.24c-0.53-0.27-0.93-1.87-1.69-1.78c-0.1,0.01-0.39,0.02-0.75,0.02
	c-0.36,0-0.65-0.01-0.75-0.02c-0.77-0.08-1.17,1.51-1.69,1.78c-0.38,0.2-2.59,0.34-3.03,0.24c-1.13-0.26-0.23,0.35-0.03,0.44
	c0,0,0,0,0.01,0c0.01,0.01,0.02,0.01,0.03,0.02c0.62,0.4,2.2,1.6,2.66,1.88c0.47,0.29,0.9,0.53,1.65,0.74c0.07,0.02,0.19,0,0.34,0
	c0.34-0.08,0.6-0.24,0.81-0.44c0.22,0.2,0.48,0.36,0.81,0.44c0.15,0,0.27,0.02,0.34,0c0.75-0.21,1.18-0.45,1.65-0.74
	c0.45-0.29,2.04-1.48,2.66-1.88c0.01-0.01,0.02-0.01,0.03-0.02c0,0,0,0,0.01,0C291.94,279.24,292.84,278.62,291.71,278.89z"/>
<path class="st0" d="M303.5,264.93c0.36-0.46,0.7-0.65,1.04-0.56c0.59,0.16,1.01,0.72,1.27,1.66c0.3,1.03-0.63,2.32-0.79,3.89
	c-0.22,2.11,0.23,3.74-0.64,4.91c-0.8,1.11-1.71,1.54-2.74,1.3l-0.33-0.09l0.38-2.52c0.73-4.63,1.28-7.4,1.65-8.31L303.5,264.93z"/>
<path class="st12" d="M290.58,278.49c-0.58-0.16-2.82-1.72-3.59-1.63c-0.1,0.01-0.39,0.02-0.75,0.02c-0.36,0-0.65-0.01-0.75-0.02
	c-0.77-0.08-3.01,1.47-3.59,1.63c-0.8,0.22-1.69,0.52-1.69,0.52c1.12,0.31,2.63-0.04,3.38,0.16c0.07,0.02,2.01,0.15,2.65-0.17
	c0.64,0.32,2.58,0.19,2.65,0.17c0.75-0.21,2.27,0.15,3.38-0.16C292.27,279.01,291.37,278.72,290.58,278.49z"/>
<path class="st13" d="M295.31,277.1c0,0,0.32,2.21,0.2,2.94C295.52,280.04,296.09,278.17,295.31,277.1z"/>
<g>
	<path class="st9" d="M299.45,242.74c-0.4-0.22-0.89-0.41-1.45-0.58c-6.89-1.62-20.08-1.62-24.77,0.73
		c-0.34,0.21-0.62,0.43-0.84,0.66c-0.89,0.92-0.8,2.19,0.43,3.22c0.09,0.25,0.27,0.49,0.51,0.72c0.76,0.73,2.19,1.35,3.83,1.76
		c0.12,0.03,0.24,0.06,0.36,0.08c1.65-0.25,2.65-0.25,3.63,0.33c0.14,0.01,0.27,0.01,0.41,0.01c0.14,0,0.28,0.01,0.42,0.01
		c1.19,0.41,3.19,0.41,4.04-0.04c0.17,0.01,0.34,0.02,0.51,0.03c0.36,0.02,0.71,0.03,1.05,0.04c0.17,0,0.34,0.01,0.51,0.01
		c1.07,0.36,2.07,0.36,3.39-0.11c0.16-0.01,0.31-0.02,0.47-0.03c0.14-0.01,0.28-0.02,0.42-0.03c0.79-0.45,2.79-0.45,3.89-0.36
		c0.11-0.03,0.21-0.06,0.31-0.1c0.31-0.1,0.6-0.21,0.88-0.32c1.11-0.47,1.99-1.08,2.54-1.77c0.21-0.26,0.37-0.53,0.48-0.81
		c0.08-0.52,0.3-1.04,0.33-1.55c0.01-0.17,0-0.34-0.05-0.5c-0.12-0.24-0.12-0.65-0.75-0.96
		C299.86,243.01,299.68,242.88,299.45,242.74z"/>
</g>
<g>
	<path class="st9" d="M271.33,266.94c-0.55-1.54-0.67-3.83-1.21-4.84c-0.61-1.15-0.47,0.7-1-0.18c-0.52,1.28-1.07,2.85,0.37,3.95
		c0.63,1.3,0.7,2.79,1.16,2.79C270.65,268.61,271.33,268.17,271.33,266.94z"/>
</g>
<g>
	<path class="st9" d="M301.21,266.94c0.55-1.54,0.67-3.83,1.21-4.84c0.61-1.15,0.47,0.7,1-0.18c0.21,0.97,1.07,2.85-0.37,3.95
		c-0.63,1.3-0.7,2.79-1.16,2.79C301.9,268.61,301.21,268.17,301.21,266.94z"/>
</g>
<g>
	<g>
		<path class="st14" d="M280.35,240.25c0.28-0.45,0.49-0.58,0.9-0.73c0.41-0.15,0.49-0.13,1.05,0.07c0,0-0.57-0.06-1.14,0.2
			C280.76,239.97,280.35,240.25,280.35,240.25z"/>
		<g>
			<path class="st15" d="M280.39,240.25c0.11-0.17,0.23-0.34,0.39-0.46c0.14-0.11,0.3-0.18,0.46-0.24c0.15-0.06,0.31-0.11,0.47-0.1
				c0.2,0.02,0.39,0.1,0.57,0.17c0.01-0.01,0.02-0.03,0.03-0.04c-0.72-0.08-1.41,0.27-1.98,0.66c-0.04,0.03,0.02,0.04,0.04,0.03
				c0.56-0.38,1.22-0.72,1.92-0.65c0.02,0,0.07-0.03,0.03-0.04c-0.19-0.07-0.4-0.16-0.61-0.17c-0.17-0.01-0.33,0.04-0.48,0.1
				c-0.18,0.07-0.36,0.14-0.51,0.26c-0.16,0.13-0.29,0.3-0.4,0.48C280.3,240.27,280.37,240.27,280.39,240.25z"/>
		</g>
	</g>
</g>
<g>
	<g>
		<path class="st14" d="M293.2,241.88c0.48-0.2,0.73-0.19,1.15-0.08c0.42,0.11,0.48,0.18,0.82,0.67c0,0-0.43-0.38-1.05-0.5
			C293.69,241.88,293.2,241.88,293.2,241.88z"/>
		<g>
			<path class="st15" d="M293.22,241.88c0.22-0.09,0.46-0.17,0.7-0.15c0.19,0.01,0.38,0.06,0.56,0.12c0.31,0.1,0.47,0.36,0.65,0.62
				c0.02-0.01,0.04-0.01,0.07-0.02c-0.54-0.48-1.29-0.58-1.98-0.59c-0.01,0-0.08,0.03-0.04,0.03c0.69,0.01,1.43,0.11,1.96,0.59
				c0.01,0.01,0.07-0.01,0.07-0.02c-0.11-0.16-0.22-0.33-0.36-0.46c-0.11-0.1-0.25-0.15-0.39-0.19c-0.2-0.06-0.4-0.11-0.61-0.1
				c-0.23,0.01-0.45,0.08-0.66,0.17C293.14,241.89,293.2,241.89,293.22,241.88z"/>
		</g>
	</g>
</g>
<g>
	<g>
		<path class="st14" d="M283.52,241.8c0.38-0.36,1.15-0.62,1.59-0.66c0.44-0.04,0.51,0.01,1,0.35c0,0-0.53-0.21-1.16-0.11
			C284.51,241.45,283.52,241.8,283.52,241.8z"/>
		<g>
			<path class="st15" d="M283.54,241.81c0.36-0.33,0.87-0.52,1.34-0.61c0.19-0.04,0.41-0.07,0.61-0.03
				c0.22,0.05,0.41,0.21,0.59,0.34c0.02-0.01,0.04-0.02,0.05-0.03c-0.87-0.34-1.8,0.02-2.63,0.31c-0.04,0.02,0,0.04,0.03,0.03
				c0.8-0.28,1.71-0.64,2.55-0.31c0.02,0.01,0.08-0.01,0.05-0.03c-0.19-0.13-0.39-0.3-0.63-0.35c-0.19-0.04-0.41-0.01-0.6,0.03
				c-0.5,0.1-1.03,0.3-1.41,0.64C283.46,241.82,283.53,241.82,283.54,241.81z"/>
		</g>
	</g>
</g>
<g>
	<g>
		<path class="st14" d="M266.46,241.94c0.16-0.5,0.69-1.11,1.06-1.36c0.36-0.25,0.45-0.25,1.04-0.19c0,0-0.57,0.08-1.06,0.48
			C267.15,241.14,266.46,241.94,266.46,241.94z"/>
		<g>
			<path class="st15" d="M266.5,241.94c0.16-0.48,0.52-0.92,0.9-1.24c0.14-0.12,0.31-0.25,0.49-0.3c0.21-0.06,0.44-0.01,0.65,0.01
				c0.01-0.01,0.01-0.03,0.02-0.04c-0.36,0.05-0.72,0.22-1.01,0.43c-0.33,0.24-0.6,0.56-0.87,0.86c-0.08,0.09-0.16,0.18-0.24,0.28
				c-0.03,0.03,0.04,0.03,0.05,0.01c0.56-0.64,1.17-1.41,2.06-1.54c0.02,0,0.06-0.04,0.02-0.04c-0.22-0.02-0.45-0.06-0.67-0.01
				c-0.18,0.04-0.35,0.16-0.5,0.28c-0.21,0.17-0.4,0.37-0.56,0.58c-0.17,0.22-0.33,0.46-0.41,0.73
				C266.42,241.97,266.49,241.96,266.5,241.94z"/>
		</g>
	</g>
</g>
<g>
	<g>
		<path class="st14" d="M300.61,236.3c0.52-0.05,1.29,0.2,1.66,0.44c0.37,0.23,0.4,0.31,0.58,0.88c0,0-0.3-0.49-0.85-0.79
			C301.62,236.62,300.61,236.3,300.61,236.3z"/>
		<g>
			<path class="st15" d="M300.61,236.32c0.52-0.05,1.1,0.13,1.55,0.39c0.15,0.09,0.32,0.19,0.42,0.33c0.12,0.17,0.18,0.39,0.24,0.59
				c0.02-0.01,0.04-0.02,0.07-0.02c-0.48-0.79-1.43-1.06-2.26-1.33c-0.02-0.01-0.08,0.03-0.04,0.04c0.82,0.26,1.76,0.53,2.24,1.31
				c0.01,0.02,0.07,0,0.07-0.02c-0.07-0.21-0.12-0.44-0.25-0.62c-0.11-0.15-0.29-0.25-0.45-0.34c-0.46-0.25-1.05-0.42-1.58-0.38
				C300.58,236.28,300.56,236.32,300.61,236.32z"/>
		</g>
	</g>
</g>
<g>
	<g>
		<path class="st14" d="M284.54,230.82c0.34-0.4,1.07-0.75,1.5-0.84c0.43-0.09,0.51-0.05,1.03,0.23c0,0-0.55-0.15-1.16,0.02
			C285.49,230.36,284.54,230.82,284.54,230.82z"/>
		<g>
			<path class="st15" d="M284.57,230.83c0.32-0.37,0.81-0.62,1.27-0.77c0.18-0.06,0.39-0.11,0.58-0.09
				c0.22,0.02,0.44,0.16,0.63,0.27c0.02-0.01,0.03-0.02,0.05-0.04c-0.9-0.24-1.78,0.23-2.57,0.61c-0.04,0.02,0,0.05,0.03,0.03
				c0.77-0.38,1.62-0.83,2.5-0.6c0.02,0,0.08-0.02,0.05-0.04c-0.2-0.11-0.41-0.24-0.63-0.27c-0.2-0.03-0.42,0.03-0.61,0.09
				c-0.49,0.15-1.01,0.41-1.34,0.8C284.49,230.85,284.56,230.85,284.57,230.83z"/>
		</g>
	</g>
</g>
<g>
	<g>
		<path class="st14" d="M280.7,247.22c0.32-0.17,0.5-0.16,0.82-0.07c0.33,0.09,0.37,0.14,0.7,0.52c0,0-0.37-0.3-0.84-0.39
			C281.05,247.22,280.7,247.22,280.7,247.22z"/>
		<g>
			<path class="st15" d="M280.72,247.22c0.16-0.08,0.33-0.14,0.51-0.12c0.14,0.02,0.28,0.05,0.42,0.1c0.23,0.08,0.38,0.29,0.54,0.47
				c0.02-0.01,0.05-0.02,0.07-0.03c-0.44-0.35-1-0.45-1.54-0.45c-0.03,0-0.08,0.04-0.03,0.04c0.53,0,1.08,0.11,1.5,0.44
				c0.02,0.01,0.09-0.01,0.07-0.03c-0.1-0.12-0.21-0.25-0.33-0.35c-0.09-0.07-0.19-0.11-0.3-0.15c-0.15-0.05-0.32-0.09-0.48-0.08
				c-0.17,0-0.33,0.07-0.48,0.14C280.63,247.23,280.7,247.24,280.72,247.22z"/>
		</g>
	</g>
</g>
<g>
	<g>
		<path class="st14" d="M270.05,251.55c0.19-0.3,0.33-0.39,0.61-0.49c0.28-0.1,0.33-0.09,0.71,0.05c0,0-0.38-0.05-0.77,0.13
			C270.32,251.36,270.05,251.55,270.05,251.55z"/>
		<g>
			<path class="st15" d="M270.09,251.55c0.07-0.11,0.15-0.23,0.26-0.31c0.09-0.07,0.2-0.12,0.31-0.16c0.1-0.04,0.2-0.07,0.31-0.06
				c0.13,0.01,0.26,0.07,0.38,0.12c0.01-0.01,0.02-0.03,0.03-0.04c-0.49-0.06-0.96,0.18-1.35,0.44c-0.04,0.03,0.02,0.04,0.04,0.03
				c0.37-0.25,0.82-0.48,1.28-0.43c0.02,0,0.07-0.03,0.03-0.04c-0.13-0.05-0.27-0.11-0.41-0.12c-0.11-0.01-0.22,0.03-0.33,0.07
				c-0.12,0.04-0.25,0.1-0.35,0.18c-0.11,0.09-0.2,0.2-0.27,0.33C270,251.58,270.07,251.57,270.09,251.55z"/>
		</g>
	</g>
</g>
<g>
	<g>
		<path class="st14" d="M274.1,240.82c0.04-0.25,0.13-0.36,0.33-0.51c0.2-0.15,0.25-0.16,0.63-0.18c0,0-0.35,0.08-0.61,0.32
			C274.26,240.62,274.1,240.82,274.1,240.82z"/>
		<g>
			<path class="st15" d="M274.13,240.82c0.02-0.11,0.05-0.22,0.12-0.31c0.07-0.09,0.16-0.16,0.25-0.22c0.06-0.04,0.13-0.08,0.2-0.1
				c0.11-0.02,0.23-0.03,0.35-0.03c0-0.01,0-0.03,0-0.04c-0.4,0.1-0.73,0.38-0.98,0.7c-0.03,0.03,0.04,0.04,0.06,0.02
				c0.24-0.31,0.55-0.58,0.94-0.67c0.03-0.01,0.04-0.04,0-0.04c-0.12,0.01-0.25,0.01-0.37,0.04c-0.09,0.02-0.16,0.06-0.23,0.11
				c-0.1,0.07-0.19,0.14-0.27,0.23c-0.07,0.1-0.11,0.21-0.13,0.33C274.06,240.85,274.13,240.84,274.13,240.82z"/>
		</g>
	</g>
</g>
<g>
	<g>
		<path class="st14" d="M273.61,245.73c0.26-0.45,0.47-0.59,0.88-0.75c0.41-0.16,0.49-0.14,1.06,0.05c0,0-0.57-0.05-1.14,0.23
			C274.01,245.44,273.61,245.73,273.61,245.73z"/>
		<g>
			<path class="st15" d="M273.65,245.72c0.1-0.17,0.21-0.34,0.36-0.47c0.14-0.12,0.3-0.2,0.47-0.26c0.15-0.06,0.3-0.12,0.47-0.11
				c0.2,0.01,0.39,0.09,0.57,0.15c0.02-0.01,0.03-0.02,0.05-0.03c-0.73-0.06-1.41,0.3-1.98,0.72
				C273.56,245.75,273.63,245.74,273.65,245.72c0.54-0.39,1.18-0.74,1.88-0.69c0.01,0,0.07-0.02,0.05-0.03
				c-0.2-0.07-0.41-0.15-0.62-0.16c-0.17,0-0.32,0.05-0.47,0.11c-0.18,0.07-0.36,0.15-0.51,0.28c-0.16,0.14-0.28,0.31-0.39,0.49
				C273.57,245.75,273.64,245.74,273.65,245.72z"/>
		</g>
	</g>
</g>
<g>
	<g>
		<path class="st14" d="M268.53,255.43c0.03-0.52,0.14-0.74,0.43-1.07c0.29-0.33,0.37-0.35,0.96-0.45c0,0-0.53,0.22-0.9,0.73
			C268.75,255,268.53,255.43,268.53,255.43z"/>
		<g>
			<path class="st15" d="M268.57,255.43c0.01-0.21,0.04-0.43,0.13-0.63c0.08-0.18,0.21-0.33,0.33-0.48c0.1-0.11,0.2-0.21,0.33-0.27
				c0.17-0.07,0.37-0.09,0.56-0.13c0-0.01-0.01-0.03-0.01-0.04c-0.67,0.28-1.09,0.91-1.4,1.54
				C268.49,255.46,268.55,255.46,268.57,255.43c0.3-0.6,0.72-1.23,1.37-1.5c0.03-0.01,0.02-0.05-0.01-0.04
				c-0.26,0.04-0.56,0.07-0.78,0.25c-0.11,0.09-0.2,0.2-0.29,0.31c-0.1,0.12-0.18,0.25-0.24,0.39c-0.08,0.19-0.1,0.39-0.11,0.6
				C268.5,255.47,268.57,255.46,268.57,255.43z"/>
		</g>
	</g>
</g>
<g>
	<g>
		<path class="st14" d="M299.64,245.3c0.41,0.33,0.52,0.55,0.62,0.97c0.1,0.42,0.07,0.5-0.19,1.04c0,0,0.13-0.55-0.07-1.16
			C299.87,245.73,299.64,245.3,299.64,245.3z"/>
		<g>
			<path class="st15" d="M299.61,245.31c0.16,0.13,0.31,0.27,0.42,0.44c0.1,0.16,0.15,0.34,0.2,0.52c0.04,0.16,0.08,0.32,0.05,0.48
				c-0.04,0.2-0.14,0.39-0.23,0.56c0.02,0,0.04,0,0.07,0c0.16-0.7-0.11-1.41-0.43-2.02C299.66,245.27,299.6,245.29,299.61,245.31
				c0.32,0.6,0.59,1.31,0.43,2c-0.01,0.03,0.06,0.01,0.07,0c0.09-0.18,0.19-0.36,0.23-0.56c0.03-0.16,0-0.32-0.04-0.48
				c-0.04-0.18-0.1-0.37-0.19-0.53c-0.11-0.18-0.27-0.33-0.43-0.46C299.66,245.27,299.59,245.3,299.61,245.31z"/>
		</g>
	</g>
</g>
<g>
	<g>
		<path class="st14" d="M290.87,246.45c0.45-0.27,0.78-0.5,1.13-0.24c0.42,0.32,0.5,0.11,0.9,0.55c0,0-0.47-0.32-1.11-0.35
			C291.36,246.39,290.87,246.45,290.87,246.45z"/>
		<g>
			<path class="st15" d="M290.9,246.45c0.21-0.12,0.43-0.29,0.67-0.33c0.24-0.04,0.39,0.12,0.58,0.22c0.11,0.06,0.22,0.09,0.33,0.13
				c0.16,0.06,0.28,0.18,0.4,0.3c0.02-0.01,0.04-0.01,0.06-0.02c-0.6-0.4-1.36-0.4-2.05-0.31c-0.02,0-0.07,0.03-0.03,0.02
				c0.68-0.09,1.43-0.08,2.02,0.31c0.01,0.01,0.07-0.01,0.06-0.02c-0.13-0.14-0.27-0.26-0.45-0.32c-0.18-0.06-0.32-0.14-0.48-0.25
				c-0.38-0.26-0.83,0.07-1.16,0.27C290.82,246.47,290.89,246.46,290.9,246.45z"/>
		</g>
	</g>
</g>
<g>
	<g>
		<path class="st14" d="M294.18,248.38c0.32-0.22,0.49-0.25,0.79-0.25c0.3,0,0.35,0.04,0.64,0.31c0,0-0.33-0.18-0.78-0.16
			C294.52,248.3,294.18,248.38,294.18,248.38z"/>
		<g>
			<path class="st15" d="M294.21,248.39c0.12-0.08,0.25-0.16,0.39-0.2c0.13-0.04,0.26-0.04,0.4-0.04c0.1,0,0.2,0.01,0.29,0.06
				c0.11,0.06,0.2,0.16,0.3,0.24c0.02-0.01,0.04-0.02,0.06-0.03c-0.45-0.24-0.99-0.17-1.46-0.06c-0.04,0.01-0.03,0.05,0.01,0.04
				c0.45-0.11,0.97-0.17,1.4,0.06c0.02,0.01,0.08-0.01,0.06-0.03c-0.1-0.09-0.2-0.2-0.32-0.26c-0.1-0.05-0.21-0.05-0.32-0.05
				c-0.14,0-0.28,0-0.41,0.04c-0.16,0.04-0.29,0.13-0.43,0.22C294.13,248.39,294.18,248.41,294.21,248.39z"/>
		</g>
	</g>
</g>
<g>
	<g>
		<path class="st14" d="M301.99,247.14c0.25,0.3,0.29,0.47,0.31,0.77c0.02,0.31-0.01,0.35-0.25,0.66c0,0,0.15-0.35,0.09-0.79
			C302.1,247.47,301.99,247.14,301.99,247.14z"/>
		<g>
			<path class="st15" d="M301.96,247.15c0.1,0.12,0.19,0.24,0.24,0.39c0.05,0.12,0.06,0.25,0.07,0.38c0.01,0.1,0.01,0.21-0.03,0.31
				c-0.05,0.12-0.14,0.22-0.22,0.32c0.02,0,0.04,0.01,0.06,0.01c0.2-0.46,0.09-0.99-0.06-1.45
				C302.02,247.1,301.95,247.11,301.96,247.15c0.14,0.44,0.25,0.97,0.06,1.41c-0.02,0.04,0.05,0.03,0.06,0.01
				c0.08-0.1,0.18-0.21,0.23-0.34c0.04-0.1,0.04-0.22,0.03-0.33c-0.01-0.13-0.02-0.27-0.07-0.4c-0.06-0.15-0.15-0.28-0.25-0.4
				C302,247.1,301.94,247.12,301.96,247.15z"/>
		</g>
	</g>
</g>
<path class="st6" d="M269.68,272.67c-0.24-0.11-0.34-0.36-0.35-0.65c-0.02-0.33-0.06-0.58,0.13-0.71c0,0,0.49-1.08,0.49-1.21
	c0.01-0.32,0-0.64-0.05-0.96c-0.08-0.53-0.26-1.07-0.58-1.46c-0.39-0.48-1.02-0.65-1.56-0.58c-0.12,0.02-0.25,0.08-0.37,0.08
	c0,0,0.71-0.03,1.75,0.96c0.33,0.31,0.49,0.82,0.58,1.29c0.05,0.29-0.49,1.6-0.55,1.69c-0.19,0.27-0.17,0.6-0.17,0.63
	c0.08,1.07,0.47,1.15,0.6,1.15c0.03,0,0.05-0.01,0.05-0.01l0.3-0.08L269.68,272.67z"/>
<path class="st6" d="M302.87,272.67c0.24-0.11,0.34-0.36,0.35-0.65c0.02-0.33,0.06-0.58-0.13-0.71c0,0-0.49-1.08-0.49-1.21
	c-0.01-0.32,0-0.64,0.05-0.96c0.08-0.53,0.26-1.07,0.58-1.46c0.39-0.48,1.02-0.65,1.56-0.58c0.12,0.02,0.25,0.08,0.37,0.08
	c0,0-0.71-0.03-1.75,0.96c-0.33,0.31-0.49,0.82-0.58,1.29c-0.05,0.29,0.49,1.6,0.55,1.69c0.19,0.27,0.17,0.6,0.17,0.63
	c-0.08,1.07-0.47,1.15-0.6,1.15c-0.03,0-0.05-0.01-0.05-0.01l-0.3-0.08L302.87,272.67z"/>
<g>
	<g>
		<g>
			<path class="st1" d="M333.33,356.61c-0.01-7.56-0.32-19-2.18-26.22l-20.68,7.29c0.74,2.97,0,0,0,0c0.66,4.82,1.38,4.91,2.69,9.56
				c0.46,1.64,11.26,0.43,11.73,2.07c0.43,1.54-7.6,6.67-7.41,8.27"/>
		</g>
		<g>
			<path class="st1" d="M315.65,365.03c-0.08-0.49,0.26-1.95-1.26-5.93c-2.42-6.33-3.53-16.93-3.56-19.73
				c-0.05-5.46,3.71,1.07,7.1,3.32l5.64,0.37c1.63,3.49,2.8,0.84,4.51,3.92c2.97,5.34-2.45-5.56,0,0c0.86,1.96,1.78-3.26,2.64-1.3
				c0.81,1.84,2.16,1.43,2.63,5.65c0,0,0.03,10.45-0.03,13.59c-0.04,2.31,0.69,6.08,0.52,7.69c-0.25,2.36,0.74,9.56,0.74,9.56
				s0.05,2.48-0.62,6.77c-1.72,11.03-2.04,24.99-1.44,29.65l-10.16,1.14c0,0-8.12-38.95-6.66-47.56
				C315.7,372.17,316.04,367.59,315.65,365.03z"/>
		</g>
		<g>
			<path class="st2" d="M326,442.31c0,0-0.02,0.68-0.04,1.66c-0.44,5.3,0.31,7.52-2.64,11.52c3.76-1.95,5.12-6.15,2.75-12.14
				C326.03,442.72,326,442.31,326,442.31z"/>
			<path class="st1" d="M322.14,417.32c0.42,2.8,0.39,6.05-0.85,9.12c-2.5,6.19,0.71,12.76,0.71,16.52c0,1.24-1.41,3.94-1.46,5.22
				c0.15,1.4,0.96,1.87,0.96,1.87c-0.04,0.79,0.12-0.37,0,0c-0.44,1.36-0.38,2.87-0.62,3.7c-0.24,0.82-1.88,4.21,0.17,4.72
				c0,0,1.23,0.74,1.87-0.52c0,0,1.31-1.46,1.4-1.97c0.09-0.51,0.79-3.2,1.07-3.75c0.28-0.55,1.14-2.3,1.11-3.77
				c0-0.27,0.06-0.82,0.06-0.82c0.33-0.37,0.34-0.38,0.27-0.16c-0.21,0.63-0.06,2.71-0.51,3.45c-0.61,1.01-1.75,1.92-2.36,3.84
				c-0.44,1.4-1.17,2.04-1.24,2.49c-0.12,0.81,0.89,0.87,0.89,0.87s0.36,0.06,1.33-0.47c1.27-0.7,0.7-0.46,1.92-1.57
				c0,0,1.8-2.62,2.41-3.39c0.61-0.78,1.1-1.82,1.31-3.1c0.21-1.28,0.89-4.06-0.01-2.37c-0.45,0.86,0.4,2.34-0.68,3.05
				c-0.47,0.31-2.52,4.97-2.52,4.97c1.22-0.64,0.16-0.19,1.19-0.51c0,0,1.77-0.34,3.05-1.7c0,0,2.21-2.03,2.04-3.4
				c0,0,0.71-2.17,0.88-4.12c0.09-1.01-1.07,2.88-0.88,4.12c0,0,1.85-1.86,2.06-2.86c0.44-2.19,0.95-4.9,1.08-5.37
				c0.13-0.48,0.82-2.86-0.42-5.99c-1.24-3.14-3.53-7.88-3.01-10.38c0.52-2.5-0.95-8.59-1.25-18.01l-11.66,1.23
				C320.48,408.25,321.5,413.09,322.14,417.32"/>
			<path class="st2" d="M331.28,440.96c0,0-0.3,5.75-0.35,7.15c-0.05,1.39-0.45,2.53-1.02,3.39c-0.57,0.86-2.36,3.6-2.36,3.6
				s1.97-2.96,2.44-3.31c1.09-0.81,1.17-3.94,1.26-4.97C331.49,444.44,331.28,440.96,331.28,440.96z"/>
			<path class="st2" d="M334.19,447.23c0,0,0.42-1.81,0.32-3.92c-0.11-2.11-0.45-2.92,0.58-3.97c0,0-0.64,1.89-0.45,3.01
				C334.83,443.46,334.49,446.67,334.19,447.23z"/>
		</g>
	</g>
</g>
<path class="st16" d="M296.28,581.11c0.21,1.3,0.77,5.12,1.69,11.47c0.92,6.4,0.43,9.87,0.48,10.35c0.09,0.92,0.04,2.02-0.14,3.3
	c-0.1,0.62-0.21,1.09-0.32,1.41c-0.18,0.72-0.24,1.47-0.19,2.25l22.92-0.7c-0.78-0.49-1.62-1-2.52-1.52
	c-0.53-0.43-1.11-1.05-1.73-1.84c-1.22-1.58-2.03-3.24-2.43-4.97c-0.25-1.11-1.31-10.86-1.01-14.37c1.08-12.22,1.49-24.32,1.24-36.3
	c-0.45-10.36-4.07-8.34-3.97-10.89l-9.17-5.28l-4.2-0.44c0.22,1.41-5.46,7.43-4.51,17.69C293.33,560.92,294.61,570.88,296.28,581.11
	z"/>
<path class="st6" d="M339.93,619.97c0,0,3,4.72,1.16,6.58c-4.44,4.49-13.99,6.18-21.67,0.6c-7.67-5.58-21.8-3.58-22.78-4.9
	c-3.2-4.3,1.06-5.53,1.06-5.53L339.93,619.97z"/>
<path class="st1" d="M315.83,604.72c0,0,6.69,6.43,9.33,9.22c2.65,2.79,14.18,4.21,14.82,6.04c2.18,6.14-4.55,9.19-11.62,7.45
	c-7.07-1.75-15.98-6.9-18.7-6.97c-2.72-0.07-12.49,1.29-13.81-2.6c-1.33-3.88,1.58-12.42,2.93-12.61c1.35-0.2,8.48,5.93,10.68,3.75
	C311.67,606.8,311.63,600.63,315.83,604.72z"/>
<path class="st16" d="M274.38,581.31c-0.23,1.29-0.87,5.11-1.89,11.43c-1.03,6.38-0.61,9.86-0.67,10.34
	c-0.1,0.92-0.08,2.02,0.08,3.3c0.09,0.62,0.19,1.09,0.3,1.41c0.16,0.72,0.21,1.47,0.15,2.25l-22.91-1.11
	c0.79-0.48,1.64-0.97,2.55-1.48c0.54-0.42,1.12-1.03,1.76-1.81c1.25-1.56,2.09-3.21,2.51-4.93c0.27-1.1,1.5-10.83,1.27-14.35
	c-0.86-12.23-1.06-24.34-0.59-36.32c0.64-10.35,4.22-8.26,4.16-10.82l9.26-5.12l4.21-0.36c-0.24,1.4,5.32,7.53,4.2,17.77
	C277.7,561.18,276.23,571.11,274.38,581.31z"/>
<path class="st6" d="M230.05,619.39c0,0-3.08,4.67-1.27,6.56c4.36,4.57,13.88,6.43,21.65,0.98c7.77-5.44,21.86-3.19,22.86-4.49
	c3.28-4.24-0.96-5.55-0.96-5.55L230.05,619.39z"/>
<path class="st1" d="M254.42,604.56c0,0-6.8,6.31-9.5,9.05c-2.7,2.74-14.25,3.96-14.93,5.77c-2.29,6.1,4.38,9.27,11.48,7.65
	c7.1-1.62,16.1-6.62,18.82-6.64c2.72-0.02,12.46,1.51,13.86-2.35c1.39-3.86-1.36-12.45-2.71-12.66c-1.35-0.22-8.59,5.77-10.74,3.56
	C258.54,606.73,258.69,600.56,254.42,604.56z"/>
<g>
	<path class="st3" d="M319.74,420.79c3.09,7.29,2.09,15.29,3.49,22.05c0.02,0.4,0.02,0.81,0.02,1.22c-0.03,2.04-0.25,4.11-0.71,6.44
		c-0.03,0.6-0.06,1.2-0.09,1.81c-0.2,3.63-0.47,7.33-0.7,11.11c0.19,0.58,0.38,1.17,0.56,1.75c0.19,0.58,0.37,1.17,0.55,1.76
		c0.58,4.89,0.1,10.09-0.05,15.13c-0.02,0.84-0.04,1.67-0.04,2.5c0.05,7.53,1.05,17.53-3.98,24.61c-0.43,0.81-0.79,1.63-1.11,2.45
		c-1.91,4.94-2.08,10.13-2.77,15.16c-0.08,0.71-0.15,1.44-0.2,2.18c-0.17,2.95,0.1,6.04,1.95,8.87c0.01,0.22,0.03,2.53,0.04,5.19
		c0,0.88,0.01,1.81,0.01,2.71c-2.88,8.35-0.88,17.35-0.53,25.5c-0.15,0.85-0.28,1.7-0.39,2.56c-0.56,4.29-0.65,8.67-0.3,12.99
		c0.07,0.86,0.16,1.72,0.26,2.58c0.08,4.72,2.08,12.72-2.85,14.65c-0.6,0.17-1.23,0.21-1.89,0.08c-0.6,0.08-1.22,0.15-1.85,0.2
		c-5.65,0.46-11.72-0.29-15.58-1.35c-0.17-0.48-0.34-1.02-0.5-1.61c-0.04-0.15-0.26-1-0.51-2.26c-2.74-7.99-1.74-16.99-1.63-25.28
		c0.05-0.77,0.1-1.49,0.14-2.12c0.05-0.63,0.09-1.17,0.13-1.57c0.08-0.8,0.16-7.59,0.23-8.38c0.06-6.43-2.39-3.16-2.3-8.2
		c0.01-0.34,0.02-0.71,0.05-1.12c2.81-3.46-0.47-18.71-1.52-22.03c-0.13-0.42-0.23-0.83-0.27-1.25c-0.14-0.81-0.25-1.66-0.34-2.53
		c-0.05-0.44-0.09-0.88-0.12-1.33c-0.12-2.18,0.09-4.04,0.07-5.87c0-0.37-0.02-0.73-0.04-1.1c-0.12-2.35-0.79-4.45-1.68-6.39
		c-0.18-0.39-0.36-0.77-0.56-1.15c-2.03-3.67-2.03-10.67-4.54-14.9c-0.1-0.45-0.19-0.9-0.27-1.37c-0.22-3.41-3.22-9.41-2.36-13.68
		c-0.13-1.23-0.25-2.5-0.37-3.77c-1.85-20.38-1.58-41.51-3.16-52.32"/>
	<path class="st3" d="M253.37,420.23c-2.54,6.85-2.54,13.85-3.03,21.27c-0.03,0.9-0.05,1.8-0.05,2.7c-0.08,0.44-0.15,0.89-0.21,1.33
		c-0.06,0.44-0.12,0.89-0.16,1.34c-0.15,3.76-0.19,7.4-0.06,10.98c0.02,0.45,0.04,0.89,0.05,1.34c0.4,1.95,0.6,4.18,0.72,6.36
		c0.04,0.73,0.07,1.45,0.09,2.15c0.12,9.39-1.88,18.39-0.95,27c0.11,0.92,0.25,1.84,0.42,2.75c1.64,8.63,6.64,16.63,5.78,26.29
		c0.02,0.77,0.04,1.53,0.06,2.29c0.13,5.33,0.19,10.42-1.24,15.96c-0.02,0.87-0.01,1.77,0,2.68c0.1,5.44,0.64,11.18-0.01,13.24
		c-0.13,0.42-0.32,0.84-0.57,1.25c0.04,0.41,0.08,0.93,0.12,1.53c0.04,0.6,0.07,1.29,0.1,2.05c0.04,0.84,0.08,1.66,0.11,2.47
		c0.03,0.81,0.06,1.61,0.08,2.4c0.22,6.49,0.22,12.49,0.05,18c-0.01,0.78-0.02,1.49-0.02,2.11c-0.01,0.62-0.01,1.16-0.02,1.6
		c-0.06,0.35-0.14,0.69-0.24,1.03c-0.1,0.34-0.22,0.68-0.37,1.01c0.05,0.37,0.12,0.75,0.21,1.14c0.27,1.16,0.65,8.34,1.22,9.55
		c0.29,0.36,0.61,0.69,0.95,0.97c1.02,0.84,2.24,1.26,3.56,1.04c0.59,0.09,1.21,0.17,1.84,0.23c5.64,0.56,11.72-0.09,15.61-1.08
		c0.18-0.48,0.36-1.01,0.53-1.6c0.06-0.22,0.54-2.02,1.09-4.41c0.18-0.8,0.38-1.66,0.57-2.55c0.24-4.56,2.24-10.56,1.26-15.93
		c-0.06-0.83-0.14-1.72-0.24-2.67c-0.69-6.61-2.08-15.6-0.17-19.42c0.11-0.52,0.23-1.03,0.36-1.55c0.74-3.09,1.57-18.2,1.22-21.41
		c0.12-0.5,0.25-1,0.4-1.48c0.12-0.36,0.24-0.72,0.38-1.07c0.14-0.35,0.28-0.69,0.44-1.02c0.15-0.5,0.26-1,0.35-1.5
		c0.09-0.5,0.15-1,0.19-1.5c-0.63-2.96-0.19-5.57,0.56-7.94c0.11-0.34,0.22-0.67,0.33-1c0.63-3.05,1.6-6.07,2.76-8.93
		c0.19-0.48,0.39-0.95,0.59-1.41c0.69-1.74,1.69-5.74,2.3-7.24c0.11-0.39,0.21-0.77,0.3-1.13c0.07-0.46,0.17-0.92,0.29-1.38
		c0.34-1.36,0.85-2.68,1.38-4.01c0.18-0.45,0.36-0.9,0.53-1.36c1.89-4.63,1.89-12.63,2.76-17.36c0.03-0.33,0.07-1.65,0.1-1.98
		c1.89-19.22,2.07-37.82,3.74-48.03"/>
	<path class="st9" d="M322.85,466.93c-0.18-0.58-0.36-1.17-0.55-1.76c-0.19-0.58-0.37-1.17-0.56-1.75c0.23-3.78,0.5-7.48,0.7-11.11
		c0.03-0.6,0.06-1.21,0.09-1.81c0.46-2.33,0.68-4.4,0.71-6.44c0-0.41,0-0.81-0.02-1.22c-1.4-6.76-0.4-14.76-3.49-22.05l-34.55,2.97
		l-31.82-3.54c-2.54,6.85-2.54,13.85-3.03,21.27c-0.03,0.9-0.05,1.8-0.05,2.7c-0.08,0.44-0.15,0.89-0.21,1.33
		c-0.06,0.44-0.12,0.89-0.16,1.34c-0.15,3.76-0.19,7.4-0.06,10.98c0.02,0.45,0.04,0.89,0.05,1.34c0.4,1.95,0.6,4.18,0.72,6.36
		c0.04,0.73,0.07,1.45,0.09,2.15c0.12,9.39-1.88,17.39-0.55,26.53c0.09,0.92,0.19,1.85,0.33,2.77c0.34,9.1,4.34,17.1,5.35,25.6
		c-0.02,0.89-0.08,1.8-0.2,2.73c-0.04,0.95-0.08,1.9-0.12,2.86c-0.22,4.76-0.45,9.51-0.05,13.84c0.04,0.77,0.07,1.53,0.09,2.31
		c0.12,3.86,0.06,7.83-0.22,11.89c-0.06,0.93-0.14,1.86-0.23,2.8c0.09,0.88,0.18,1.77,0.27,2.65c0.04,0.84,0.08,1.67,0.12,2.49
		s0.06,1.62,0.08,2.42c1.23,5.52-0.77,12.52-0.84,18.54c-0.06,0.87-0.1,1.74-0.12,2.6c-0.01,0.62-0.01,1.16-0.02,1.6
		c-0.06,0.35-0.14,0.69-0.24,1.03c-0.1,0.34-0.22,0.68-0.37,1.01c0.05,0.37,0.12,0.75,0.21,1.14c0.27,1.16,0.65,8.34,1.22,9.55
		c0.29,0.36,0.61,0.69,0.95,0.97c1.02,0.84,2.24,1.26,3.56,1.04c0.59,0.09,1.21,0.17,1.84,0.23c5.64,0.56,11.72-0.09,15.61-1.08
		c0.18-0.48,0.36-1.01,0.53-1.6c0.06-0.22,0.54-2.02,1.09-4.41c0.18-0.8,0.38-1.66,0.57-2.55c0.24-4.56,2.24-10.56,1.26-15.93
		c-0.06-0.83-0.14-1.72-0.24-2.67c-0.69-6.61-2.08-15.6-0.17-19.42c0.11-0.52,0.23-1.03,0.36-1.55c0.74-3.09,1.57-18.2,1.22-21.41
		c0.12-0.5,0.25-1,0.4-1.48c0.12-0.36,0.24-0.72,0.38-1.07c0.14-0.35,0.28-0.69,0.44-1.02c0.15-0.5,0.26-1,0.35-1.5
		c0.09-0.5,0.15-1,0.19-1.5c-0.63-2.96-0.19-5.57,0.56-7.94c0.11-0.34,0.22-0.67,0.33-1c0.33-1.6,0.76-3.19,1.26-4.76
		c0.57,1.52,0.97,3.14,1.05,4.89c0.03,0.37,0.04,0.73,0.04,1.1c0.02,1.83-0.2,3.69-0.07,5.87c0.04,0.45,0.08,0.89,0.12,1.33
		c0.09,0.87,0.2,1.72,0.34,2.53c0.05,0.42,0.14,0.83,0.27,1.25c1.05,3.32,4.33,18.57,1.52,22.03c-0.03,0.41-0.05,0.79-0.05,1.12
		c-0.09,5.03,2.36,1.77,2.3,8.2c-0.06,0.79-0.14,7.58-0.23,8.38c-0.04,0.4-0.09,0.93-0.13,1.57c-0.05,0.63-0.09,1.35-0.14,2.12
		c-0.11,8.28-1.11,17.28,1.63,25.28c0.25,1.26,0.47,2.11,0.51,2.26c0.16,0.59,0.32,1.13,0.5,1.61c3.87,1.06,9.93,1.82,15.58,1.35
		c0.63-0.05,1.25-0.12,1.85-0.2c0.66,0.13,1.3,0.09,1.89-0.08c4.93-1.94,2.93-9.94,2.85-14.65c-0.11-0.86-0.19-1.72-0.26-2.58
		c-0.35-4.32-0.25-8.7,0.3-12.99c0.11-0.86,0.24-1.71,0.39-2.56c-0.35-8.15-2.35-17.15,0.53-25.5c0-0.9-0.01-1.82-0.01-2.71
		c-0.01-2.65-0.02-4.96-0.04-5.19c-1.84-2.84-2.12-5.92-1.95-8.87c0.04-0.74,0.11-1.46,0.2-2.18c0.69-5.03,0.86-10.22,2.77-15.16
		c0.32-0.82,0.69-1.64,1.11-2.45c5.03-7.09,5.03-16.09,3.98-24.17c0-0.74,0.01-1.48,0.03-2.22c0.14-4.42,0.61-8.81-0.02-13.48
		C322.81,468.51,322.84,467.72,322.85,466.93z"/>
</g>
<path class="st17" d="M240.13,628.72c-2.16,1.06-9.41-2.54-10.88-4.25c-2.39-2.65-0.34-6.45,1.52-7.12
	c2.44-0.72,3.64,2.39,5.76,4.52c0.29,0.34,3.38,3.1,3.93,4.24C240.68,627.21,240.38,628.47,240.13,628.72z"/>
<path class="st17" d="M240.44,613.99c-0.61,0.36-6.37,3-6.89,3.35c-1.59,1.03-1.24,1.38,0.11,3.53c1.05,1.92,2.97,1.9,5.25,1.09
	c0.57-0.2,5.86-2.15,6.64-2.53c6.02-3.63,10.91-5.18,14.55-10.64c-0.44-1.24-2.63-3.57-3.57-3.96c-3.73-1.56-3.07-1.37-4.97,0.56
	C251.33,605.66,243.76,612.07,240.44,613.99z"/>
<path class="st17" d="M233.58,617.41c4.96-1.03,7.22,2.09,8.11,5.2c0.56,1.72,0.82,3.67,0.31,5.62c1.04,0.01,3.04,0.35,4.21-0.85
	c0.75-2-0.63-6.4-0.73-6.74c-1.16-4.05-4.89-9.17-10.64-4.96C234.24,616.52,233.58,617.41,233.58,617.41z"/>
<path class="st17" d="M240.09,614.3c4.79-0.87,7.36,2.93,8.32,5.89c0.6,1.63,0.62,4.49,0.18,6.32c1.01,0.03,2.95-1.4,4.06-2.51
	c0.67-1.87-0.6-4.96-0.6-5.28c-0.07-0.29-0.2-0.79-0.3-1.11c-1.24-3.85-5.01-8.78-10.47-4.91
	C240.7,613.47,240.09,614.3,240.09,614.3z"/>
<path class="st17" d="M244.74,610.88c5.16-0.63,9.07,2.6,10.26,5.71c0.73,1.73,1.66,4.63,1.27,6.5c1.1,0.08,3.12-0.58,4.27-1.66
	c-0.01-2.11-1.35-6.1-2.11-7.64c-2.04-4.16-5.95-8.82-11.69-5.14C245.69,609.29,244.74,610.88,244.74,610.88z"/>
<path class="st17" d="M250.83,605.5c5.44-0.45,9.36,3.07,11.1,6.35c0.84,1.79,3.06,7.88,2.72,9.76c1.17,0.13,1.19,0.54,2.37-0.53
	c0.61-1.92-1.95-7.29-3.31-10.31c-1.91-4.25-6.79-8.97-10.84-7.49C251.78,603.91,250.83,605.5,250.83,605.5z"/>
<path class="st17" d="M270.04,608.1c-2.54,1.16-5.08,2.59-7.77,3.45c0.16-0.59-1.15-2.13-1.05-2.72c1.63-0.6,3.95-0.69,5.87-1.67
	c0.32-0.18,1.32-0.86,1.62-1.04c1.21-0.72,1.96-1.4,3.07-2.52c0.86,0.15,1.59,2.48,0.66,3.24
	C272.13,607.08,270.42,607.9,270.04,608.1z"/>
<polygon class="st3" points="317.44,420.69 334.53,418.59 336.75,405.42 336.17,359.82 329.8,310.07 319.85,311.29 313.64,331.86 
	"/>
<g>
	<linearGradient id="SVGID_3_" gradientUnits="userSpaceOnUse" x1="297.4436" y1="375.0372" x2="363.1476" y2="382.0083">
		<stop  offset="0" style="stop-color:#7E1620"/>
		<stop  offset="0.5411" style="stop-color:#7E1620;stop-opacity:0"/>
	</linearGradient>
	<path class="st18" d="M327.25,330.5c-2.28,5.34-4.8,9.33-7.59,11.86c-1.99,0.87-3.98,1.74-5.96,2.61l0.52,79.54h19.39l-2.18-91.79
		C330.02,332.39,328.62,331.64,327.25,330.5z"/>
</g>
<polygon class="st3" points="320.43,428.97 335.13,428.41 334.43,415.92 319.28,418.08 "/>
<g>
	<linearGradient id="SVGID_4_" gradientUnits="userSpaceOnUse" x1="319.2797" y1="422.4449" x2="335.1288" y2="422.4449">
		<stop  offset="0" style="stop-color:#7E1620"/>
		<stop  offset="0.5672" style="stop-color:#7E1620;stop-opacity:0"/>
	</linearGradient>
	<polygon class="st19" points="320.43,428.97 335.13,428.41 334.43,415.92 319.28,418.08 	"/>
</g>
<path class="st3" d="M305.31,301.29c0,0-6.09,13.11-19.64,13.06c-13.56-0.04-17.73-13.19-17.73-13.19l2.82-1.39
	c1.66,2.46,5.08,10.96,14.91,11c9.82,0.03,15.21-8.43,16.84-10.88"/>
<path class="st3" d="M269.27,312.53"/>
<path class="st3" d="M304.74,376.55c-0.09-8.54,3.93-17.08,10.18-22.87c0.98-4.9,2.46-9.46,4.67-14.42c0.09-1.89,0.2-3.78,0.36-5.67
	c0.52-6.07,0.58-12,1.08-17.98c-0.86-0.37-1.8-0.82-2.87-1.39c-2.05-1.08-4.95-3.59-6.03-4.54c-0.01-0.01-0.02-0.02-0.03-0.03
	c-2.22-1.03-3.47-2.01-6.71-4.72c-0.37-0.31-0.73-0.65-1.09-1.03c-2.42,3.69-8.5,11.03-18.65,11l-0.1,0
	c-9.71-0.03-14.61-6.79-16.6-10.62l-0.91,1.16c-1,0.83-1.89,1.77-2.8,2.69c-1.75,1.75-3.68,3.2-5.66,4.68
	c-0.12,0.21-0.23,0.41-0.35,0.61c0.09,2.92,0.32,5.83,0.38,8.76c0.23,11.4,0.83,22.83-0.6,34.18c-0.02,0.18-0.05,0.37-0.07,0.55
	c0.01,0.47,0.03,0.92,0.04,1.39c2.18,1.13,4.19,2.59,5.94,4.35c4.1,4.13,6.56,9.68,6.91,15.47c4.7,0.12,9.4,0.27,14.1,0.56
	c5.04,0.32,10.08,0.74,15.11,1.23c0.51-0.43,1.01-0.86,1.52-1.29c0.73-0.63,1.47-1.27,2.21-1.9
	C304.75,376.67,304.75,376.61,304.74,376.55z"/>
<path class="st3" d="M300.45,297.39l0.45,9.47l-14.95,41.89l-0.41,78l4.54,10.27l33.19-3.78c0,0-0.15-4.11-0.39-10.66
	c-0.06-1.64-0.12-3.43-0.19-5.34c-0.2-1.62-0.39-3.24-0.56-4.87c-0.18-1.63-0.34-3.27-0.5-4.91c-3.92-16.38-0.92-33.38-1.07-49.38
	c-0.11-1.5-0.22-3-0.32-4.5c-0.61-8.96-0.87-17.71,2.07-25.68c0.38-0.89,0.77-1.84,1.18-2.81c2.87-6.83,6.32-15.02,6.32-15.02
	l-23.1-7.27L300.45,297.39z"/>
<polygon class="st17" points="303.87,301.26 294.77,312.14 291.29,309.41 286.08,311.13 284.77,311.57 291.69,306.43 299.81,295.5 
	301.19,299.73 "/>
<polygon class="st17" points="269.01,301.26 278.12,312.14 281.59,309.41 286.8,311.13 288.11,311.57 281.19,306.43 273.07,295.5 
	271.69,299.73 "/>
<polygon class="st6" points="307.9,302.65 304.9,323.29 299.23,324.71 302.97,332.7 296.54,338.69 281.54,354.74 299.92,306.07 
	300.25,296.55 "/>
<polygon class="st6" points="311.32,410.79 305.87,411.96 297.11,412.34 296.32,408.86 304.43,408.45 311.64,406.62 "/>
<path class="st3" d="M272.46,297.39l-1.45,6.47l18.26,53.73c0,0,0.48,2.24-0.16,20.06c-0.05,1.27-0.09,2.56-0.14,3.84
	c-0.27,2.59-0.27,4.59-0.28,7.75c-0.05,1.29-0.09,2.57-0.14,3.84c-0.63,17.82-1.19,33.66-1.19,33.66l-4.54,10.27l-33.19-3.78
	c0,0,0.05-1.44,0.14-3.96c0.05-1.26,0.1-2.8,0.18-4.56c0.07-1.46,0.15-2.92,0.23-4.37c0.08-1.45,0.16-2.9,0.25-4.34
	c0.63-7.96,1.7-16.19,2.32-24.41c0.13-1.64,0.23-3.29,0.31-4.93c0.06-1.56,0.1-3.13,0.11-4.72c-0.48-16.86-1.48-32.86-0.7-49.58
	c-0.47-1.11-1.13-2.68-1.88-4.46c-3-7.13-7.5-17.83-7.5-17.83l23.1-7.27L272.46,297.39z"/>
<polygon class="st6" points="265,303.02 267.95,324.93 273.52,326.43 269.84,334.91 276.15,341.27 290.88,358.3 272.84,306.65 
	272.51,296.55 "/>
<polygon class="st6" points="311.7,353.18 306.24,354.36 297.49,354.74 296.69,351.26 304.81,350.85 312.02,349.01 "/>
<polygon class="st6" points="261.95,353.18 267.41,354.36 276.16,354.74 276.96,351.26 268.84,350.85 261.64,349.01 "/>
<path class="st6" d="M284.06,368.54c0,1.04,0.84,1.88,1.88,1.88c1.04,0,1.88-0.84,1.88-1.88c0-1.04-0.84-1.88-1.88-1.88
	C284.9,366.66,284.06,367.5,284.06,368.54z"/>
<path class="st6" d="M284.06,383.08c0,1.04,0.84,1.88,1.88,1.88c1.04,0,1.88-0.84,1.88-1.88c0-1.04-0.84-1.88-1.88-1.88
	C284.9,381.2,284.06,382.04,284.06,383.08z"/>
<path class="st6" d="M283.06,396.93c0,1.04,0.84,1.88,1.88,1.88c1.04,0,1.88-0.84,1.88-1.88c0-1.04-0.84-1.88-1.88-1.88
	C283.9,395.05,283.06,395.89,283.06,396.93z"/>
<path class="st17" d="M329.68,629.13c2.14,1.1,9.45-2.37,10.96-4.06c2.44-2.61,0.45-6.44-1.4-7.15c-2.42-0.77-3.68,2.32-5.84,4.42
	c-0.3,0.33-3.43,3.04-4,4.17C329.16,627.61,329.44,628.87,329.68,629.13z"/>
<path class="st17" d="M329.63,614.39c0.6,0.37,6.31,3.12,6.83,3.47c1.57,1.06,1.21,1.4-0.18,3.53c-1.08,1.9-3,1.85-5.27,1
	c-0.57-0.21-5.82-2.26-6.59-2.65c-5.96-3.74-10.81-5.38-14.36-10.9c0.46-1.23,2.7-3.52,3.64-3.9c3.76-1.49,3.09-1.32,4.95,0.65
	C318.89,605.87,326.35,612.41,329.63,614.39z"/>
<path class="st17" d="M336.43,617.93c-4.94-1.12-7.25,1.97-8.2,5.06c-0.6,1.71-0.88,3.66-0.41,5.61c-1.04-0.01-3.05,0.3-4.2-0.92
	c-0.72-2.01,0.74-6.39,0.85-6.72c1.23-4.03,5.06-9.08,10.72-4.77C335.79,617.03,336.43,617.93,336.43,617.93z"/>
<path class="st17" d="M329.98,614.7c-4.77-0.96-7.41,2.8-8.42,5.74c-0.63,1.62-0.7,4.48-0.29,6.31c-1.01,0.01-2.92-1.45-4.01-2.58
	c-0.64-1.88,0.69-4.95,0.69-5.26c0.08-0.29,0.21-0.79,0.32-1.11c1.31-3.83,5.17-8.68,10.56-4.72
	C329.39,613.87,329.98,614.7,329.98,614.7z"/>
<path class="st17" d="M325.39,611.2c-5.15-0.72-9.11,2.44-10.36,5.53c-0.76,1.71-1.74,4.6-1.39,6.47c-1.1,0.06-3.11-0.63-4.24-1.74
	c0.05-2.1,1.46-6.08,2.24-7.61c2.11-4.12,6.1-8.71,11.78-4.93C324.47,609.6,325.39,611.2,325.39,611.2z"/>
<path class="st17" d="M319.39,605.72c-5.43-0.55-9.41,2.9-11.21,6.15c-0.87,1.77-3.2,7.82-2.89,9.71c-1.17,0.11-1.2,0.52-2.36-0.57
	c-0.57-1.93,2.08-7.25,3.49-10.25c1.99-4.21,6.95-8.85,10.97-7.29C318.48,604.11,319.39,605.72,319.39,605.72z"/>
<path class="st17" d="M300.14,607.98c2.52,1.2,5.03,2.68,7.71,3.59c-0.15-0.6,1.19-2.11,1.1-2.71c-1.62-0.63-3.93-0.76-5.83-1.78
	c-0.31-0.18-1.3-0.89-1.6-1.07c-1.19-0.74-1.93-1.43-3.03-2.58c-0.86,0.13-1.63,2.45-0.72,3.23
	C298.07,606.92,299.77,607.77,300.14,607.98z"/>
<g>
	<defs>
		<path id="SVGID_5_" d="M310.93,252.19c0.01-0.49,0.04-0.92,0.09-1.36c0.05-0.45,0.13-0.89,0.27-1.4c0.27-0.97,0.07-2.04,0.19-3.04
			c0.05-0.39-0.16-2.1-0.56-2.66c0.03-0.8-0.17-3.31-0.75-3.79c-0.33-0.27-0.62-0.75-0.75-1.15c-0.09-0.31-1.72-3.28-2.62-4.1
			c-0.88-0.83-2.29-1.66-2.54-1.88c-0.27-0.23-1.51-1.41-1.77-1.66c-0.56-0.56-2.85-1.48-5.01-2.08c-0.17-0.05-0.35-0.1-0.49-0.2
			c-0.13-0.09-0.22-0.2-0.33-0.31c-0.6-0.67-4.72-0.83-5.15-0.77c-0.32,0.02-1.48-0.21-1.8-0.23c-0.77-0.06-2.36-0.07-3.48,0.13
			c-1.11-0.2-2.71-0.2-3.48-0.13c-0.33,0.03-1.48,0.26-1.8,0.23c-0.43-0.05-4.55,0.1-5.15,0.77c-0.11,0.11-0.2,0.23-0.33,0.31
			c-0.14,0.1-0.31,0.15-0.49,0.2c-2.17,0.6-4.45,1.52-5.01,2.08c-0.25,0.25-1.5,1.42-1.77,1.66c-0.26,0.21-1.66,1.05-2.54,1.88
			c-0.9,0.82-2.53,3.79-2.62,4.1c-0.13,0.39-0.42,0.87-0.75,1.15c-0.57,0.47-0.78,2.98-0.75,3.79c-0.4,0.56-0.61,2.28-0.56,2.66
			c0.06,0.5,0.04,1.02,0.04,1.53c0,0.51,0.02,1.02,0.15,1.51c1.64,4.65,3.64,9.65,4.11,14.56c0.06,0.36,0.7,1.1,0.66,1.46
			c-0.02,0.26,0.31,0.69,0.82,1.21c0.51,0.52,1.18,1.13,1.85,1.74c0.59,0.34,1.19,0.71,1.69,1.23c1.01,0.97,1.92,1.96,2.84,2.81
			c0.18,0.17,0.37,0.34,0.55,0.49c2.62,2.6,6.94,2.26,10.43,2.8c0.3-0.11,0.6-0.24,0.9-0.37c1.5-0.67,3.05-1.48,4.64-1.53
			c0.35,0.04,0.69,0.1,1.02,0.18c0.34,0.08,0.67,0.19,1,0.33c4.71,0.1,6.15-5.28,10.01-5.63c0.3-0.12,0.62-0.2,0.94-0.26
			c0.31-0.26,0.62-0.52,0.92-0.79c0.31-0.27,0.61-0.55,0.92-0.85c4.34-2.74,2.34-8.74,5.36-12.64c0.23-0.44,0.51-0.87,0.87-1.26
			C310.84,252.61,310.92,252.34,310.93,252.19z"/>
	</defs>
	<clipPath id="SVGID_6_">
		<use xlink:href="#SVGID_5_"  style="overflow:visible;"/>
	</clipPath>
</g>
</svg>
