<?xml version="1.0" encoding="utf-8"?>
<!-- Generator: Adobe Illustrator 23.1.0, SVG Export Plug-In . SVG Version: 6.00 Build 0)  -->
<svg version="1.1" id="Layer_1" xmlns="http://www.w3.org/2000/svg" xmlns:xlink="http://www.w3.org/1999/xlink" x="0px" y="0px"
	 viewBox="0 0 595.28 841.89" style="enable-background:new 0 0 595.28 841.89;" xml:space="preserve">
<style type="text/css">
	.st0{fill:#773017;}
	.st1{fill-rule:evenodd;clip-rule:evenodd;fill:#60443E;}
	.st2{fill:#994E2E;}
	.st3{fill:#854324;}
	.st4{fill:#502313;}
	.st5{fill-rule:evenodd;clip-rule:evenodd;fill:url(#SVGID_1_);}
	.st6{fill-rule:evenodd;clip-rule:evenodd;fill:#924520;}
	.st7{fill-rule:evenodd;clip-rule:evenodd;fill:#502313;}
	.st8{fill:#502110;}
	.st9{fill:#502110;stroke:#502110;stroke-width:0.2252;stroke-linejoin:bevel;stroke-miterlimit:10;}
	.st10{fill:#6A2910;}
	.st11{fill:#6E3423;}
	.st12{fill:#803D1B;}
	.st13{fill:#914620;}
	.st14{fill-rule:evenodd;clip-rule:evenodd;fill:#994E2E;}
	.st15{fill:#FDC99D;}
	.st16{fill:#7E1620;}
	.st17{fill:url(#SVGID_2_);}
	.st18{fill:#F06C57;}
	.st19{fill:url(#SVGID_3_);}
	.st20{fill:#660D1A;}
</style>
<g>
	<path class="st0" d="M334.22,622.01c0,0-4.15-0.22-4.26,3.35c0,0-0.36-3.51,2.13-4.11L334.22,622.01z"/>
	<path class="st1" d="M336.39,633.79c-0.27,0.91-0.83,1.4-1.68,1.46l1.18,0.18c0.93-0.66,1.29-1.59,1.1-2.8
		c-0.09-0.58-0.21-1.17-0.36-1.75C336.78,631.86,336.7,632.83,336.39,633.79z"/>
	<g>
		<g>
			<g>
				<g>
					<g>
						<path class="st2" d="M238.47,357.21c0.01-7.57,0.33-19.03,2.27-26.27l21.46,7.31c-0.76,2.98,0,0,0,0
							c-0.69,4.83-1.43,4.92-2.8,9.58c-0.48,1.64-11.69,0.43-12.17,2.07c-0.45,1.54,7.9,6.68,7.69,8.28"/>
					</g>
					<g>
						<path class="st2" d="M256.81,365.65c0.08-0.49-0.27-1.95,1.31-5.94c2.52-6.34,3.67-16.96,3.69-19.77
							c0.05-5.47-3.85,1.07-7.37,3.32l-5.85,0.37c-1.69,3.49-2.91,0.84-4.69,3.92c-3.09,5.35,2.54-5.57,0,0
							c-0.89,1.96-1.85-3.27-2.74-1.31c-0.84,1.84-2.24,1.43-2.74,5.67c0,0-0.03,10.47,0.03,13.61c0.04,2.31-0.72,6.09-0.54,7.71
							c0.26,2.37-0.77,9.58-0.77,9.58s-0.05,2.48,0.64,6.79c1.78,11.05,2.12,25.03,1.5,29.71l10.55,1.14c0,0,8.43-39.03,6.91-47.65
							C256.76,372.8,256.42,368.21,256.81,365.65z"/>
					</g>
					<g>
						<path class="st3" d="M246.08,443.06c0,0,0.02,0.69,0.04,1.66c0.46,5.31-0.32,7.53,2.74,11.55c-3.9-1.95-5.31-6.16-2.85-12.16
							C246.04,443.47,246.08,443.06,246.08,443.06z"/>
						<path class="st2" d="M250.08,418.03c-0.44,2.8-0.41,6.06,0.88,9.14c2.59,6.2-0.74,12.78-0.74,16.55
							c0,1.24,1.46,3.95,1.52,5.23c-0.16,1.4-0.99,1.88-0.99,1.88c0.04,0.79-0.13-0.37,0,0c0.46,1.36,0.39,2.87,0.64,3.7
							c0.25,0.82,1.95,4.21-0.18,4.73c0,0-1.28,0.74-1.94-0.52c0,0-1.36-1.46-1.45-1.98c-0.09-0.52-0.82-3.21-1.12-3.75
							c-0.29-0.55-1.18-2.3-1.15-3.77c0-0.27-0.07-0.82-0.07-0.82c-0.34-0.37-0.35-0.38-0.28-0.16c0.22,0.63,0.06,2.71,0.53,3.46
							c0.63,1.01,1.82,1.92,2.45,3.84c0.46,1.4,1.21,2.04,1.28,2.49c0.13,0.81-0.93,0.87-0.93,0.87s-0.37,0.06-1.38-0.47
							c-1.32-0.7-0.72-0.46-1.99-1.57c0,0-1.87-2.62-2.5-3.4c-0.63-0.78-1.14-1.82-1.36-3.11c-0.21-1.29-0.92-4.07,0.01-2.37
							c0.47,0.86-0.41,2.35,0.7,3.06c0.48,0.31,2.61,4.98,2.61,4.98c-1.26-0.64-0.17-0.19-1.24-0.51c0,0-1.84-0.34-3.17-1.7
							c0,0-2.29-2.04-2.12-3.41c0,0-0.74-2.17-0.91-4.13c-0.09-1.01,1.1,2.89,0.91,4.13c0,0-1.92-1.86-2.13-2.87
							c-0.46-2.19-0.99-4.91-1.12-5.38c-0.14-0.48-0.86-2.86,0.43-6.01c1.29-3.14,3.66-7.89,3.12-10.4
							c-0.54-2.5,0.99-8.61,1.3-18.04l12.1,1.23C251.8,408.95,250.74,413.79,250.08,418.03"/>
						<path class="st3" d="M240.59,441.72c0,0,0.31,5.77,0.36,7.16c0.05,1.39,0.47,2.53,1.06,3.39c0.59,0.86,2.45,3.61,2.45,3.61
							s-2.04-2.96-2.54-3.31c-1.13-0.81-1.21-3.94-1.31-4.98C240.38,445.2,240.59,441.72,240.59,441.72z"/>
						<path class="st3" d="M237.58,447.99c0,0-0.44-1.81-0.34-3.92c0.11-2.11,0.46-2.92-0.6-3.98c0,0,0.66,1.9,0.46,3.01
							C236.91,444.22,237.26,447.44,237.58,447.99z"/>
					</g>
				</g>
			</g>
			<g>
				<g>
					<path class="st4" d="M307.52,255.07c-0.21-0.79-0.28-1.4-0.22-2.21c0.07-0.78-0.25-1.57-0.29-2.36
						c-0.02-0.3-0.42-1.59-0.8-1.97c-0.09-0.62-0.58-2.52-1.06-2.81c-0.28-0.17-0.56-0.5-0.7-0.79c-0.11-0.22-1.66-2.32-2.38-2.86
						c-0.72-0.54-1.81-1.05-2.02-1.19c-0.21-0.15-1.2-0.95-1.4-1.13c-0.45-0.39-2.15-0.92-3.72-1.26c-0.12-0.03-0.25-0.06-0.35-0.13
						c-0.1-0.06-0.17-0.15-0.25-0.23c-0.46-0.48-3.38-0.44-3.68-0.4c-0.23,0.03-1.05-0.13-1.28-0.14c-0.54-0.04-1.67-0.02-2.46,0.13
						c-0.79-0.15-1.92-0.17-2.46-0.13c-0.23,0.02-1.05,0.17-1.28,0.14c-0.31-0.04-3.22-0.08-3.68,0.4
						c-0.08,0.08-0.15,0.17-0.25,0.23c-0.1,0.07-0.23,0.1-0.36,0.13c-1.57,0.35-3.26,0.88-3.71,1.26c-0.2,0.17-1.19,0.97-1.41,1.13
						c-0.2,0.14-1.29,0.65-2.02,1.19c-0.73,0.54-2.26,2.64-2.38,2.86c-0.14,0.29-0.42,0.62-0.7,0.79c-0.49,0.29-0.97,2.19-1.06,2.81
						c-0.38,0.38-0.78,1.66-0.8,1.97c-0.05,0.79-0.36,1.57-0.3,2.36c0.07,0.81-0.01,1.42-0.21,2.21c-0.13,0.49,0.06,2.7,0.11,2.99
						c0.13,0.6,0.09,2.48,0.39,3.86c0.12,0.56,0.41,1.29,0.8,1.73c0.27,0.29,0.13,0.58,0.12,0.97c0,0.29,0.46,0.94,0.37,1.21
						c-0.13,0.4,0.95,1.5,2,2.61c-0.24,0.74,1.51,1.49,1.6,2.25c0.08,0.77,0.61,0.81,0.74,1.24c0.05,0.17,0.52,3.02,0.66,3.12
						c0.45,0.3-0.51,1.9,0.81,1.97c1.32,0.07,1.42-0.35,1.42-0.69c0-2.07,1.72-3.27,1.59-4.54c-0.34-3.35-1.22-6.42-1.75-9.75
						c-0.41-2.58-0.06-5.2,0.33-7.78c0.3-1.95,0.71-4.05,2.24-5.35c1.28-1.09,3.06-1.38,4.75-1.62c1.48-0.21,2.96-0.43,4.44-0.64
						c1.48,0.21,2.96,0.43,4.44,0.64c1.68,0.24,3.47,0.53,4.75,1.62c1.53,1.3,1.94,3.4,2.24,5.35c0.39,2.58,0.75,5.21,0.33,7.78
						c-0.53,3.33-1.41,6.4-1.75,9.75c-0.13,1.27,1.59,2.47,1.59,4.54c0,0.34,0.1,0.76,1.42,0.69c1.32-0.07,0.36-1.67,0.81-1.97
						c0.15-0.1,0.61-2.95,0.66-3.12c0.13-0.43,0.66-0.47,0.74-1.24c0.08-0.76,1.83-1.51,1.59-2.25c1.06-1.12,2.13-2.22,2-2.61
						c-0.09-0.27,0.37-0.93,0.37-1.21c0-0.39-0.14-0.67,0.13-0.97c0.39-0.44,0.68-1.16,0.8-1.73c0.3-1.37,0.27-3.25,0.39-3.86
						C307.46,257.77,307.64,255.56,307.52,255.07z"/>
				</g>
				<linearGradient id="SVGID_1_" gradientUnits="userSpaceOnUse" x1="286.2605" y1="329.8314" x2="287.3392" y2="279.5847">
					<stop  offset="0.6364" style="stop-color:#924520"/>
					<stop  offset="0.8061" style="stop-color:#713311"/>
				</linearGradient>
				<path class="st5" d="M316.34,306.22c-0.7-0.36-1.44-0.7-2.23-1.01c-4.52-1.84-9.1-4.68-12.55-7.6
					c-2.95-2.19-2.67-8.93-2.83-12.75c0.17-1.45,0.28-2.41,0.28-2.41c-1.89-0.84-5.79-1.21-10.83-1.11c-0.16,0-0.32,0.01-0.48,0.01
					c-0.16,0-0.32-0.01-0.48-0.01c0,0,0,0-0.01,0v-0.01c-0.08,0-0.16,0-0.24,0c-0.08,0-0.16,0-0.25,0v0.01h0
					c-0.16,0-0.32,0.01-0.48,0.01c-0.16,0-0.32-0.01-0.48-0.01c-5.04-0.11-8.95,0.26-10.83,1.11c0,0,0.11,0.97,0.28,2.41
					c0.09,4.2,0.17,10.64-2.79,12.84c-3.45,2.92-6.95,5.06-11.47,6.9c-0.79,0.31-1.53,0.65-2.23,1.01
					c-5.61,2.85-10.09,4.53-10.09,8.59c0,9.01,16.48,14.57,37.07,14.57c0.43,0,0.85-0.01,1.27-0.01c0.42,0.01,0.84,0.01,1.27,0.01
					c20.59,0,36.33-5.56,36.33-14.57C324.57,310.14,321.95,309.07,316.34,306.22z"/>
				<path class="st6" d="M304.61,266.1c-0.08-0.46-0.17-0.91-0.26-1.36c-0.23-0.33-0.44-0.66-0.64-1.01
					c-1.62-2.04-1.45-4.26-1.25-6.47c0.01-0.08,0.02-0.16,0.02-0.23c-0.09-0.54-0.09-0.54,0.12-1.65c0-0.08,0.01-0.16,0.01-0.23
					c0-0.08,0-0.16,0-0.23c0-0.08,0-0.16-0.01-0.23c-0.21-0.19-0.21-1.2-0.13-1.42c-0.02-0.08-0.03-0.15-0.05-0.23
					c-0.05-0.23-0.12-0.46-0.2-0.69c-0.03-0.08-0.05-0.15-0.09-0.23c1.29-0.62-1.82-0.62-0.82-1.35c-0.03-0.07-0.06-0.13-0.12-0.2
					c-0.12-0.14-0.25-0.29-0.39-0.43c-0.35-0.33-4.34-0.97-4.73-1.22c-2.08-1-3.07,0.46-5.97,0.17c-0.62-0.07-1.24-0.12-1.85-0.16
					c-0.46-0.03-0.93-0.04-1.39-0.05c-0.46-0.01-0.92,0-1.38,0.02c-0.67-0.13-1.33-0.21-1.97-0.25c-0.64-0.04-1.27-0.03-1.88,0.01
					c-2.09-0.1-2.17-1.37-3.92-0.4c-0.44,0.24-3.03,1.57-3.41,1.87c-0.42,0.2-0.77,0.43-1.07,0.68c-0.05,0.05-0.08,0.09-0.11,0.14
					c1.25,0.55-1.87,0.55-0.82,1.09c-0.03,0.04-0.06,0.07-0.09,0.13c-0.14,0.31-0.24,0.64-0.31,0.98c-0.01,0.07,0,0.12,0,0.19
					c0.39,1.17,0.39,1.17-0.13,1.42c0,0.08,0,0.16,0.01,0.24c0.01,0.39,0.04,0.79,0.07,1.19c0.01,0.08,0.02,0.16,0.02,0.24
					c0.43,0.07,0.43,1.08,0.13,1.24c-0.01,0.08-0.02,0.15-0.01,0.23c0.13,1.97,0.04,3.94-1.42,5.5c-0.27,0.47-0.58,0.92-0.95,1.36
					c-0.1,0.45-0.19,0.9-0.27,1.36c-0.72,3.64,0.49,6.88,1.56,9.73c1.05,2.83,1.29,3.98,2.82,7.46c1.5,3.45,3.69,4.81,6.57,6.07
					c2.03,0.9,4.26,1.29,6.69,1.16c2.43,0.12,4.66-0.26,6.69-1.16c2.88-1.26,5.07-2.62,6.57-6.07c1.52-3.47,1.77-4.62,2.82-7.46
					C304.11,272.98,305.33,269.74,304.61,266.1z"/>
				<path class="st6" d="M269.13,265.36c-0.37-0.46-0.73-0.65-1.07-0.56c-0.61,0.16-1.05,0.72-1.32,1.66
					c-0.31,1.03,0.65,2.33,0.83,3.9c0.22,2.11-0.25,3.75,0.66,4.91c0.83,1.11,1.77,1.54,2.83,1.3l0.35-0.09l-0.4-2.52
					c-0.76-4.64-1.32-7.41-1.71-8.33L269.13,265.36z"/>
				<g>
					<path class="st7" d="M296.88,265.41c0,0.5-0.18,0.92-0.54,1.27c-0.36,0.35-0.8,0.52-1.32,0.52s-0.96-0.17-1.32-0.52
						c-0.36-0.35-0.54-0.77-0.54-1.27c0-0.5,0.18-0.92,0.54-1.27c0.36-0.35,0.8-0.52,1.32-0.52s0.95,0.18,1.32,0.52
						C296.7,264.49,296.88,264.92,296.88,265.41z"/>
					<path class="st6" d="M298.27,261.43l1.15,2.91c-3.25-1.11-6.07-0.99-8.45,0.36l1.37-3.45
						C294.27,260.33,296.25,260.39,298.27,261.43z"/>
					<g>
						<path class="st7" d="M290.9,265.18c-0.05,0.03-0.1,0.07-0.15,0.11c0.99-1.29,2.35-1.98,4.08-2.07c1.83-0.1,3.61,0.5,5.34,1.79
							c-1.18-0.5-2.59-0.8-4.22-0.89c-2.03-0.13-3.65,0.19-4.85,0.95C291.02,265.1,290.96,265.14,290.9,265.18z"/>
					</g>
					<path class="st8" d="M291.19,260.71c-0.07-1,0.66-0.95,1.29-1.08c0.16-0.03,0.32-0.06,0.49-0.09c0.17-0.03,0.33-0.05,0.51-0.08
						c2.29-0.32,4.03-0.43,5.83,0.87c0.14,0.15,0.28,0.31,0.42,0.5c0.06,0.12,0.09,0.21,0.08,0.25c-0.06,0.16-0.26,0.22-0.43,0.26
						c-0.18,0.04-0.22,0.03-0.57-0.14c-0.11-0.06-0.27-0.13-0.43-0.2c-1.61-0.23-2.48-0.18-4.06-0.2c-0.14,0.04-0.29,0.08-0.43,0.12
						c-0.43,0.12-0.86,0.24-1.34,0.33c-0.22,0.04-0.67,0.23-0.9,0.17C291.41,261.38,291.2,260.94,291.19,260.71z"/>
				</g>
				<g>
					<path class="st7" d="M277.06,265.34c0,0.5,0.18,0.92,0.54,1.27c0.36,0.35,0.8,0.52,1.32,0.52c0.52,0,0.96-0.17,1.32-0.52
						c0.36-0.35,0.54-0.77,0.54-1.27c0-0.5-0.18-0.92-0.54-1.27c-0.36-0.35-0.8-0.52-1.32-0.52c-0.52,0-0.95,0.17-1.32,0.52
						C277.24,264.41,277.06,264.84,277.06,265.34z"/>
					<path class="st6" d="M275.67,261.36l-1.14,2.91c3.25-1.11,6.07-0.99,8.46,0.36l-1.37-3.45
						C279.67,260.25,277.68,260.31,275.67,261.36z"/>
					<g>
						<path class="st7" d="M283.03,265.1c0.05,0.03,0.1,0.07,0.15,0.11c-0.98-1.29-2.34-1.98-4.08-2.07
							c-1.82-0.1-3.61,0.5-5.33,1.79c1.18-0.5,2.59-0.8,4.22-0.89c2.03-0.13,3.65,0.18,4.85,0.95
							C282.91,265.02,282.98,265.06,283.03,265.1z"/>
					</g>
					<path class="st8" d="M282.75,260.64c0.07-1-0.66-0.95-1.29-1.08c-0.16-0.03-0.32-0.06-0.49-0.09
						c-0.17-0.03-0.34-0.05-0.51-0.08c-2.29-0.32-4.03-0.43-5.83,0.87c-0.14,0.15-0.28,0.31-0.41,0.5
						c-0.07,0.12-0.09,0.21-0.08,0.25c0.07,0.16,0.26,0.22,0.43,0.26c0.18,0.04,0.22,0.03,0.56-0.14c0.11-0.06,0.27-0.13,0.43-0.2
						c1.62-0.23,2.49-0.18,4.07-0.2c0.15,0.04,0.29,0.08,0.43,0.12c0.43,0.12,0.86,0.24,1.34,0.33c0.22,0.04,0.67,0.23,0.89,0.17
						C282.52,261.3,282.74,260.86,282.75,260.64z"/>
				</g>
				<g>
					<path class="st9" d="M290.1,274.9c0,0,0.92,0.43,1.35-0.17c0.65-0.92,0-2.59-0.49-3.02C292.55,275.25,290.1,274.9,290.1,274.9z
						"/>
					<path class="st9" d="M288.82,273.83c-0.16-0.07-0.37-0.1-0.46-0.11c-0.16-0.01-0.32,0.01-0.47,0.06
						c-0.07,0.02-0.14,0.05-0.18,0.11c-0.04,0.06-0.06,0.15-0.03,0.21c0.02,0.04,0.06,0.06,0.1,0.07c0.18,0.06,0.36-0.08,0.56-0.1
						c0.44-0.05,1.18,0.32,1.18,0.32S289.27,274.04,288.82,273.83z"/>
					<path class="st9" d="M283.84,274.9c0,0-0.92,0.43-1.34-0.17c-0.65-0.92,0-2.59,0.49-3.02
						C281.39,275.25,283.84,274.9,283.84,274.9z"/>
					<path class="st9" d="M285.13,273.83c0.16-0.07,0.36-0.1,0.46-0.11c0.15-0.01,0.32,0.01,0.47,0.06
						c0.07,0.02,0.13,0.05,0.17,0.11c0.05,0.06,0.07,0.15,0.03,0.21c-0.02,0.04-0.06,0.06-0.09,0.07c-0.18,0.06-0.37-0.08-0.56-0.1
						c-0.44-0.05-1.18,0.32-1.18,0.32S284.66,274.04,285.13,273.83z"/>
				</g>
				<path class="st0" d="M292.58,279.34c-0.46,0.1-2.75-0.04-3.14-0.24c-0.55-0.27-0.96-1.87-1.76-1.79
					c-0.1,0.01-0.41,0.02-0.78,0.02c-0.38,0-0.67-0.01-0.78-0.02c-0.8-0.08-1.21,1.52-1.76,1.79c-0.4,0.2-2.68,0.35-3.14,0.24
					c-1.18-0.27-0.24,0.35-0.03,0.45c0,0,0,0,0.01,0c0.01,0.01,0.02,0.01,0.03,0.02c0.64,0.4,2.29,1.6,2.76,1.88
					c0.48,0.3,0.93,0.54,1.71,0.75c0.07,0.02,0.19,0,0.35,0c0.35-0.08,0.62-0.24,0.85-0.44c0.22,0.2,0.49,0.36,0.85,0.44
					c0.15,0,0.28,0.02,0.35,0c0.78-0.21,1.23-0.45,1.71-0.75c0.47-0.29,2.12-1.48,2.76-1.88c0.01-0.01,0.02-0.01,0.03-0.02
					c0,0,0.01,0,0.01,0C292.81,279.7,293.75,279.08,292.58,279.34z"/>
				<path class="st6" d="M304.82,265.36c0.37-0.46,0.73-0.65,1.07-0.56c0.61,0.16,1.05,0.72,1.32,1.66c0.31,1.03-0.65,2.33-0.82,3.9
					c-0.23,2.11,0.24,3.75-0.66,4.91c-0.83,1.11-1.78,1.54-2.84,1.3l-0.34-0.09l0.4-2.52c0.76-4.64,1.33-7.41,1.71-8.33
					L304.82,265.36z"/>
				<path class="st10" d="M291.4,278.95c-0.61-0.16-2.93-1.72-3.73-1.64c-0.1,0.01-0.41,0.02-0.78,0.02c-0.38,0-0.67-0.01-0.78-0.02
					c-0.8-0.08-3.12,1.47-3.73,1.64c-0.83,0.22-1.76,0.52-1.76,0.52c1.16,0.31,2.74-0.04,3.51,0.16c0.06,0.02,2.08,0.15,2.75-0.17
					c0.67,0.32,2.68,0.19,2.75,0.17c0.78-0.21,2.35,0.15,3.51-0.16C293.16,279.47,292.23,279.17,291.4,278.95z"/>
				<path class="st11" d="M296.32,277.55c0,0,0.33,2.21,0.21,2.95C296.52,280.5,297.13,278.62,296.32,277.55z"/>
				<g>
					<path class="st8" d="M300.62,243.13c-0.42-0.22-0.93-0.41-1.51-0.58c-7.15-1.62-20.84-1.62-25.7,0.73
						c-0.35,0.21-0.65,0.43-0.88,0.66c-0.92,0.92-0.83,2.19,0.44,3.22c0.1,0.25,0.28,0.49,0.53,0.72c0.79,0.73,2.27,1.36,3.98,1.76
						c0.12,0.03,0.25,0.06,0.37,0.08c1.71-0.25,2.75-0.25,3.77,0.33c0.14,0.01,0.29,0.01,0.43,0.01c0.15,0,0.29,0.01,0.44,0.01
						c1.23,0.41,3.3,0.41,4.2-0.04c0.18,0.01,0.36,0.02,0.53,0.03c0.37,0.02,0.74,0.03,1.09,0.04c0.18,0,0.35,0.01,0.53,0.01
						c1.11,0.36,2.15,0.36,3.52-0.11c0.16-0.01,0.33-0.02,0.49-0.03c0.15-0.01,0.29-0.02,0.44-0.03c0.81-0.45,2.89-0.45,4.04-0.36
						c0.11-0.03,0.21-0.06,0.32-0.1c0.32-0.1,0.63-0.21,0.92-0.33c1.15-0.47,2.06-1.08,2.63-1.77c0.21-0.26,0.38-0.54,0.5-0.82
						c0.08-0.52,0.31-1.04,0.34-1.55c0.01-0.17,0-0.34-0.05-0.51c-0.13-0.24-0.13-0.65-0.78-0.96
						C301.04,243.4,300.84,243.26,300.62,243.13z"/>
				</g>
				<g>
					<path class="st8" d="M271.43,267.37c-0.57-1.54-0.7-3.84-1.25-4.85c-0.64-1.15-0.48,0.7-1.04-0.18
						c-0.54,1.28-1.11,2.85,0.39,3.95c0.65,1.3,0.72,2.8,1.2,2.8C270.72,269.05,271.43,268.61,271.43,267.37z"/>
				</g>
				<g>
					<path class="st8" d="M302.44,267.37c0.57-1.54,0.7-3.84,1.26-4.85c0.63-1.15,0.48,0.7,1.04-0.18c0.21,0.97,1.11,2.85-0.39,3.95
						c-0.65,1.3-0.72,2.8-1.2,2.8C303.15,269.05,302.44,268.61,302.44,267.37z"/>
				</g>
				<g>
					<g>
						<path class="st12" d="M280.79,240.63c0.29-0.45,0.51-0.58,0.93-0.73c0.43-0.15,0.51-0.13,1.09,0.07c0,0-0.58-0.06-1.19,0.2
							C281.21,240.36,280.79,240.63,280.79,240.63z"/>
						<g>
							<path class="st13" d="M280.84,240.62c0.11-0.17,0.23-0.33,0.39-0.46c0.15-0.11,0.32-0.18,0.49-0.25
								c0.15-0.05,0.31-0.11,0.47-0.09c0.2,0.02,0.39,0.1,0.58,0.17c0.03-0.01,0.05-0.03,0.08-0.04c-0.76-0.08-1.49,0.27-2.1,0.68
								c-0.04,0.03,0.06,0.02,0.08,0c0.57-0.38,1.24-0.71,1.95-0.64c0.02,0,0.11-0.03,0.08-0.04c-0.2-0.07-0.42-0.16-0.63-0.17
								c-0.18-0.01-0.35,0.04-0.51,0.1c-0.19,0.07-0.38,0.14-0.54,0.26c-0.18,0.13-0.31,0.31-0.44,0.49
								C280.73,240.65,280.83,240.65,280.84,240.62z"/>
						</g>
					</g>
				</g>
				<g>
					<g>
						<path class="st12" d="M294.12,242.27c0.5-0.21,0.76-0.2,1.19-0.08c0.44,0.11,0.49,0.18,0.85,0.67c0,0-0.44-0.38-1.09-0.5
							C294.63,242.27,294.12,242.27,294.12,242.27z"/>
						<g>
							<path class="st13" d="M294.15,242.3c0.22-0.09,0.45-0.16,0.69-0.15c0.2,0.01,0.4,0.06,0.59,0.11
								c0.13,0.04,0.25,0.09,0.35,0.19c0.13,0.13,0.24,0.28,0.35,0.43c0.03-0.02,0.06-0.04,0.09-0.05
								c-0.57-0.49-1.36-0.59-2.08-0.59c-0.06,0-0.08,0.08-0.01,0.08c0.69,0.01,1.46,0.11,2.01,0.58c0.03,0.03,0.12-0.01,0.09-0.05
								c-0.12-0.16-0.23-0.33-0.38-0.46c-0.11-0.1-0.25-0.15-0.4-0.19c-0.21-0.06-0.42-0.11-0.64-0.11c-0.24,0-0.48,0.08-0.7,0.17
								C294.03,242.27,294.09,242.32,294.15,242.3z"/>
						</g>
					</g>
				</g>
				<g>
					<g>
						<path class="st12" d="M284.07,242.19c0.4-0.36,1.2-0.62,1.65-0.66c0.45-0.04,0.53,0.01,1.04,0.35c0,0-0.55-0.21-1.2-0.11
							C285.1,241.84,284.07,242.19,284.07,242.19z"/>
						<g>
							<path class="st13" d="M284.11,242.21c0.37-0.33,0.9-0.52,1.38-0.61c0.19-0.04,0.41-0.07,0.61-0.03
								c0.23,0.05,0.43,0.21,0.62,0.34c0.02-0.02,0.05-0.04,0.07-0.07c-0.91-0.34-1.86,0.01-2.73,0.31
								c-0.06,0.02-0.05,0.09,0.02,0.07c0.84-0.29,1.77-0.64,2.65-0.31c0.03,0.01,0.12-0.03,0.07-0.07c-0.2-0.13-0.4-0.3-0.64-0.35
								c-0.2-0.04-0.43-0.02-0.63,0.02c-0.52,0.09-1.09,0.29-1.5,0.65C283.98,242.21,284.07,242.25,284.11,242.21z"/>
						</g>
					</g>
				</g>
				<g>
					<g>
						<path class="st12" d="M281.15,247.61c0.33-0.17,0.51-0.16,0.85-0.07s0.39,0.14,0.73,0.52c0,0-0.39-0.3-0.88-0.39
							C281.51,247.61,281.15,247.61,281.15,247.61z"/>
						<g>
							<path class="st13" d="M281.19,247.63c0.16-0.08,0.31-0.13,0.49-0.11c0.15,0.01,0.3,0.05,0.44,0.1
								c0.24,0.08,0.4,0.29,0.56,0.47c0.04-0.01,0.08-0.03,0.11-0.04c-0.46-0.35-1.04-0.46-1.61-0.46c-0.04,0-0.13,0.06-0.05,0.06
								c0.54,0,1.11,0.1,1.55,0.44c0.03,0.02,0.14-0.01,0.11-0.04c-0.11-0.12-0.22-0.26-0.35-0.36c-0.09-0.07-0.2-0.12-0.31-0.15
								c-0.16-0.05-0.34-0.09-0.51-0.08c-0.18,0.01-0.34,0.07-0.5,0.15c-0.02,0.01-0.03,0.03-0.01,0.04
								C281.12,247.66,281.17,247.64,281.19,247.63z"/>
						</g>
					</g>
				</g>
				<g>
					<g>
						<path class="st12" d="M270.1,251.95c0.2-0.3,0.34-0.39,0.63-0.49c0.29-0.1,0.34-0.09,0.73,0.05c0,0-0.4-0.05-0.8,0.13
							C270.38,251.77,270.1,251.95,270.1,251.95z"/>
						<g>
							<path class="st13" d="M270.15,251.97c0.07-0.11,0.16-0.22,0.26-0.31c0.1-0.08,0.22-0.12,0.33-0.16
								c0.1-0.03,0.2-0.07,0.3-0.06c0.13,0.01,0.27,0.07,0.39,0.11c0.02-0.03,0.03-0.05,0.05-0.08c-0.51-0.06-1,0.18-1.42,0.45
								C270,251.97,270.09,252.01,270.15,251.97c0.37-0.24,0.83-0.47,1.3-0.41c0.04,0,0.11-0.05,0.05-0.08
								c-0.14-0.05-0.28-0.11-0.42-0.12c-0.12-0.01-0.24,0.03-0.35,0.07c-0.13,0.04-0.25,0.09-0.36,0.17
								c-0.12,0.09-0.22,0.21-0.3,0.34C270.02,252,270.12,252.01,270.15,251.97z"/>
						</g>
					</g>
				</g>
				<g>
					<g>
						<path class="st12" d="M274.3,241.21c0.04-0.25,0.13-0.36,0.34-0.51c0.21-0.15,0.26-0.16,0.66-0.18c0,0-0.36,0.09-0.64,0.32
							C274.46,241,274.3,241.21,274.3,241.21z"/>
						<g>
							<path class="st13" d="M274.36,241.2c0.02-0.11,0.05-0.22,0.13-0.31c0.07-0.09,0.16-0.15,0.26-0.21
								c0.17-0.11,0.36-0.11,0.55-0.12c0-0.03,0-0.05-0.01-0.08c-0.42,0.1-0.76,0.38-1.03,0.71c-0.04,0.05,0.06,0.07,0.09,0.03
								c0.25-0.31,0.57-0.57,0.96-0.66c0.05-0.01,0.06-0.08-0.01-0.08c-0.13,0.01-0.26,0.01-0.39,0.04
								c-0.09,0.02-0.17,0.06-0.25,0.11c-0.1,0.07-0.21,0.14-0.28,0.24c-0.08,0.1-0.12,0.22-0.14,0.34
								C274.24,241.27,274.35,241.25,274.36,241.2z"/>
						</g>
					</g>
				</g>
				<g>
					<g>
						<path class="st12" d="M273.79,246.12c0.27-0.45,0.49-0.59,0.91-0.76c0.42-0.16,0.51-0.14,1.1,0.05c0,0-0.59-0.05-1.18,0.23
							C274.2,245.83,273.79,246.12,273.79,246.12z"/>
						<g>
							<path class="st13" d="M273.84,246.12c0.1-0.17,0.22-0.34,0.38-0.47c0.14-0.12,0.31-0.19,0.48-0.26
								c0.15-0.06,0.3-0.12,0.46-0.11c0.2,0.01,0.41,0.09,0.6,0.15c0.03-0.02,0.05-0.03,0.08-0.05c-0.76-0.06-1.48,0.3-2.08,0.73
								C273.7,246.15,273.81,246.15,273.84,246.12c0.55-0.39,1.23-0.74,1.92-0.68c0.02,0,0.12-0.04,0.08-0.05
								c-0.2-0.06-0.42-0.15-0.63-0.16c-0.17-0.01-0.34,0.05-0.5,0.11c-0.19,0.07-0.37,0.15-0.53,0.27
								c-0.18,0.14-0.32,0.32-0.43,0.52C273.72,246.16,273.83,246.15,273.84,246.12z"/>
						</g>
					</g>
				</g>
				<g>
					<g>
						<path class="st12" d="M268.52,255.84c0.03-0.52,0.15-0.74,0.45-1.07c0.3-0.33,0.38-0.35,1-0.45c0,0-0.55,0.22-0.94,0.73
							C268.75,255.41,268.52,255.84,268.52,255.84z"/>
						<g>
							<path class="st13" d="M268.58,255.84c0.01-0.22,0.04-0.43,0.13-0.63c0.08-0.18,0.21-0.33,0.34-0.47
								c0.1-0.1,0.2-0.2,0.33-0.26c0.18-0.07,0.38-0.09,0.57-0.12c-0.01-0.02-0.01-0.04-0.02-0.06c-0.69,0.28-1.14,0.91-1.47,1.55
								C268.45,255.89,268.56,255.88,268.58,255.84c0.31-0.6,0.75-1.23,1.41-1.49c0.05-0.02,0.03-0.07-0.02-0.06
								c-0.28,0.04-0.59,0.07-0.82,0.25c-0.12,0.09-0.22,0.21-0.31,0.32c-0.1,0.12-0.19,0.25-0.25,0.39
								c-0.08,0.19-0.11,0.4-0.12,0.6C268.47,255.9,268.58,255.88,268.58,255.84z"/>
						</g>
					</g>
				</g>
				<g>
					<g>
						<path class="st12" d="M300.81,245.69c0.43,0.33,0.54,0.55,0.64,0.98c0.11,0.43,0.08,0.5-0.2,1.04c0,0,0.14-0.55-0.07-1.16
							C301.05,246.12,300.81,245.69,300.81,245.69z"/>
						<g>
							<path class="st13" d="M300.76,245.71c0.17,0.13,0.33,0.27,0.45,0.46c0.1,0.16,0.15,0.34,0.2,0.52
								c0.04,0.16,0.08,0.32,0.04,0.48c-0.04,0.19-0.15,0.38-0.24,0.55c0.04-0.01,0.07-0.01,0.11-0.02c0.17-0.7-0.11-1.41-0.44-2.02
								C300.85,245.65,300.75,245.69,300.76,245.71c0.33,0.6,0.61,1.31,0.44,2c-0.01,0.03,0.1,0,0.11-0.02
								c0.09-0.18,0.21-0.37,0.24-0.57c0.03-0.16-0.01-0.32-0.05-0.47c-0.05-0.19-0.1-0.37-0.21-0.54
								c-0.11-0.18-0.27-0.32-0.44-0.44C300.84,245.65,300.74,245.7,300.76,245.71z"/>
						</g>
					</g>
				</g>
				<g>
					<g>
						<path class="st12" d="M291.71,246.85c0.46-0.27,0.81-0.5,1.17-0.24c0.44,0.32,0.51,0.11,0.94,0.55c0,0-0.49-0.32-1.15-0.35
							C292.21,246.78,291.71,246.85,291.71,246.85z"/>
						<g>
							<path class="st13" d="M291.74,246.86c0.2-0.12,0.41-0.26,0.64-0.32c0.12-0.03,0.23-0.02,0.34,0.03
								c0.09,0.04,0.17,0.11,0.26,0.16c0.11,0.07,0.24,0.1,0.36,0.15c0.17,0.06,0.3,0.17,0.43,0.3c0.03-0.02,0.06-0.03,0.09-0.05
								c-0.63-0.41-1.43-0.41-2.15-0.32c-0.05,0.01-0.09,0.07-0.01,0.06c0.7-0.09,1.46-0.08,2.07,0.31
								c0.02,0.02,0.12-0.02,0.09-0.05c-0.13-0.14-0.27-0.25-0.46-0.32c-0.17-0.06-0.33-0.12-0.48-0.23
								c-0.43-0.3-0.88,0.01-1.26,0.24C291.61,246.87,291.71,246.89,291.74,246.86z"/>
						</g>
					</g>
				</g>
				<g>
					<g>
						<path class="st12" d="M295.14,248.78c0.33-0.22,0.51-0.25,0.82-0.25c0.32,0,0.36,0.04,0.66,0.31c0,0-0.35-0.18-0.81-0.16
							C295.5,248.7,295.14,248.78,295.14,248.78z"/>
						<g>
							<path class="st13" d="M295.19,248.78c0.13-0.08,0.26-0.16,0.41-0.2c0.13-0.03,0.28-0.03,0.41-0.03c0.1,0,0.19,0.02,0.28,0.07
								c0.11,0.06,0.2,0.15,0.29,0.24c0.03-0.01,0.07-0.02,0.1-0.04c-0.47-0.24-1.04-0.17-1.54-0.06c-0.06,0.01-0.05,0.05,0.01,0.03
								c-0.02,0,0,0,0.01,0c0.02,0,0.04-0.01,0.06-0.01c0.07-0.01,0.13-0.03,0.2-0.04c0.18-0.03,0.37-0.05,0.56-0.04
								c0.2,0.01,0.42,0.06,0.61,0.15c0.02,0.01,0.12-0.02,0.1-0.04c-0.1-0.09-0.21-0.2-0.34-0.26c-0.11-0.05-0.23-0.05-0.35-0.05
								c-0.15,0-0.29,0.01-0.44,0.05c-0.16,0.05-0.31,0.13-0.45,0.22C295.06,248.8,295.17,248.79,295.19,248.78z"/>
						</g>
					</g>
				</g>
				<g>
					<g>
						<path class="st12" d="M303.25,247.53c0.26,0.3,0.3,0.47,0.32,0.77c0.02,0.31-0.01,0.35-0.26,0.66c0,0,0.16-0.35,0.09-0.79
							C303.36,247.87,303.25,247.53,303.25,247.53z"/>
						<g>
							<path class="st13" d="M303.2,247.56c0.1,0.11,0.19,0.24,0.25,0.38c0.05,0.12,0.06,0.25,0.07,0.38
								c0.01,0.1,0.02,0.21-0.02,0.31c-0.05,0.12-0.15,0.23-0.23,0.33c0.03,0.01,0.06,0.02,0.1,0.02c0.21-0.46,0.1-1-0.06-1.46
								C303.29,247.47,303.18,247.5,303.2,247.56c0.15,0.43,0.26,0.96,0.06,1.4c-0.03,0.06,0.07,0.05,0.1,0.02
								c0.09-0.1,0.19-0.21,0.24-0.34c0.04-0.11,0.04-0.23,0.03-0.34c-0.01-0.14-0.02-0.27-0.07-0.4c-0.06-0.15-0.15-0.27-0.25-0.39
								C303.27,247.47,303.16,247.52,303.2,247.56z"/>
						</g>
					</g>
				</g>
				<path class="st4" d="M269.72,273.11c-0.25-0.11-0.35-0.36-0.37-0.65c-0.02-0.33-0.07-0.58,0.13-0.71c0,0,0.51-1.08,0.51-1.22
					c0.02-0.32,0-0.64-0.05-0.96c-0.09-0.53-0.27-1.07-0.59-1.46c-0.41-0.48-1.06-0.65-1.62-0.58c-0.12,0.02-0.26,0.08-0.38,0.08
					c0,0,0.74-0.03,1.82,0.96c0.34,0.31,0.51,0.82,0.61,1.3c0.05,0.29-0.51,1.61-0.57,1.69c-0.2,0.27-0.17,0.6-0.17,0.63
					c0.08,1.07,0.49,1.15,0.62,1.15c0.03,0,0.05-0.01,0.05-0.01l0.31-0.08L269.72,273.11z"/>
				<path class="st4" d="M304.16,273.11c0.25-0.11,0.35-0.36,0.37-0.65c0.02-0.33,0.07-0.58-0.13-0.71c0,0-0.51-1.08-0.51-1.22
					c-0.02-0.32,0-0.64,0.05-0.96c0.09-0.53,0.27-1.07,0.6-1.46c0.41-0.48,1.06-0.65,1.62-0.58c0.12,0.02,0.26,0.08,0.38,0.08
					c0,0-0.74-0.03-1.82,0.96c-0.34,0.31-0.51,0.82-0.61,1.3c-0.06,0.29,0.51,1.61,0.57,1.69c0.2,0.27,0.17,0.6,0.17,0.63
					c-0.08,1.07-0.49,1.15-0.62,1.15c-0.03,0-0.05-0.01-0.05-0.01l-0.31-0.08L304.16,273.11z"/>
			</g>
			<g>
				<g>
					<g>
						<path class="st2" d="M335.77,357.21c-0.01-7.57-0.33-19.03-2.27-26.27l-21.47,7.31c0.76,2.98,0,0,0,0
							c0.69,4.83,1.44,4.92,2.8,9.58c0.48,1.64,11.69,0.43,12.17,2.07c0.45,1.54-7.89,6.68-7.69,8.28"/>
					</g>
					<g>
						<path class="st2" d="M317.43,365.65c-0.08-0.49,0.28-1.95-1.31-5.94c-2.52-6.34-3.67-16.96-3.7-19.77
							c-0.05-5.47,3.85,1.07,7.37,3.32l5.85,0.37c1.69,3.49,2.91,0.84,4.69,3.92c3.09,5.35-2.54-5.57,0,0
							c0.89,1.96,1.85-3.27,2.74-1.31c0.84,1.84,2.24,1.43,2.73,5.67c0,0,0.03,10.47-0.03,13.61c-0.04,2.31,0.72,6.09,0.54,7.71
							c-0.27,2.37,0.77,9.58,0.77,9.58s0.05,2.48-0.64,6.79c-1.78,11.05-2.12,25.03-1.49,29.71l-10.55,1.14
							c0,0-8.43-39.03-6.92-47.65C317.47,372.8,317.82,368.21,317.43,365.65z"/>
					</g>
					<g>
						<path class="st3" d="M328.16,443.06c0,0-0.02,0.69-0.04,1.66c-0.46,5.31,0.32,7.53-2.74,11.55c3.91-1.95,5.32-6.16,2.85-12.16
							C328.2,443.47,328.16,443.06,328.16,443.06z"/>
						<path class="st2" d="M324.16,418.03c0.44,2.8,0.41,6.06-0.88,9.14c-2.59,6.2,0.74,12.78,0.74,16.55
							c0,1.24-1.46,3.95-1.52,5.23c0.16,1.4,0.99,1.88,0.99,1.88c-0.04,0.79,0.12-0.37,0,0c-0.46,1.36-0.39,2.87-0.64,3.7
							c-0.25,0.82-1.95,4.21,0.18,4.73c0,0,1.28,0.74,1.95-0.52c0,0,1.36-1.46,1.45-1.98c0.09-0.52,0.81-3.21,1.11-3.75
							c0.29-0.55,1.18-2.3,1.16-3.77c0-0.27,0.07-0.82,0.07-0.82c0.34-0.37,0.35-0.38,0.28-0.16c-0.22,0.63-0.06,2.71-0.53,3.46
							c-0.64,1.01-1.82,1.92-2.45,3.84c-0.46,1.4-1.21,2.04-1.28,2.49c-0.13,0.81,0.93,0.87,0.93,0.87s0.37,0.06,1.38-0.47
							c1.32-0.7,0.72-0.46,1.99-1.57c0,0,1.87-2.62,2.5-3.4c0.63-0.78,1.14-1.82,1.35-3.11c0.22-1.29,0.92-4.07,0-2.37
							c-0.47,0.86,0.41,2.35-0.7,3.06c-0.48,0.31-2.61,4.98-2.61,4.98c1.26-0.64,0.17-0.19,1.24-0.51c0,0,1.84-0.34,3.16-1.7
							c0,0,2.29-2.04,2.12-3.41c0,0,0.74-2.17,0.91-4.13c0.09-1.01-1.11,2.89-0.91,4.13c0,0,1.92-1.86,2.14-2.87
							c0.46-2.19,0.99-4.91,1.12-5.38c0.13-0.48,0.86-2.86-0.43-6.01c-1.29-3.14-3.67-7.89-3.12-10.4c0.54-2.5-0.99-8.61-1.3-18.04
							l-12.1,1.23C322.44,408.95,323.5,413.79,324.16,418.03"/>
						<path class="st3" d="M333.65,441.72c0,0-0.31,5.77-0.37,7.16c-0.05,1.39-0.47,2.53-1.06,3.39c-0.59,0.86-2.45,3.61-2.45,3.61
							s2.04-2.96,2.53-3.31c1.13-0.81,1.21-3.94,1.31-4.98C333.86,445.2,333.65,441.72,333.65,441.72z"/>
						<path class="st3" d="M336.67,447.99c0,0,0.44-1.81,0.33-3.92c-0.11-2.11-0.47-2.92,0.6-3.98c0,0-0.66,1.9-0.46,3.01
							C337.33,444.22,336.98,447.44,336.67,447.99z"/>
					</g>
				</g>
			</g>
			<path class="st14" d="M297.32,582.12c0.22,1.3,0.8,5.13,1.75,11.49c0.95,6.41,0.45,9.89,0.5,10.36c0.09,0.92,0.04,2.03-0.14,3.31
				c-0.1,0.62-0.22,1.1-0.34,1.41c-0.18,0.72-0.25,1.47-0.2,2.25l23.79-0.7c-0.81-0.49-1.68-1-2.62-1.52
				c-0.55-0.43-1.14-1.06-1.79-1.85c-1.27-1.59-2.11-3.25-2.52-4.98c-0.26-1.11-1.36-10.88-1.05-14.4
				c1.12-12.24,1.54-24.36,1.29-36.37c-0.47-10.37-4.23-8.35-4.12-10.91l-9.51-5.29l-4.36-0.44c0.22,1.41-5.67,7.45-4.69,17.72
				C294.25,561.9,295.59,571.87,297.32,582.12z"/>
			<path class="st4" d="M342.62,621.06c0,0,3.12,4.73,1.2,6.6c-4.61,4.5-14.52,6.19-22.48,0.6c-7.96-5.59-22.62-3.58-23.64-4.91
				c-3.32-4.31,1.1-5.54,1.1-5.54L342.62,621.06z"/>
			<path class="st2" d="M317.61,605.77c0,0,6.94,6.44,9.69,9.24c2.75,2.79,14.71,4.22,15.38,6.05c2.26,6.15-4.72,9.21-12.06,7.46
				c-7.34-1.75-16.59-6.92-19.41-6.98c-2.82-0.07-12.96,1.29-14.34-2.6c-1.38-3.89,1.64-12.44,3.05-12.64
				c1.4-0.2,8.8,5.94,11.08,3.75C313.29,607.86,313.25,601.68,317.61,605.77z"/>
			<path class="st4" d="M321.36,421.59c0.17,0.46,0.33,0.91,0.47,1.38c-0.34,1.86-0.19,3.75,0.2,5.65c0.09,0.47,0.2,0.95,0.33,1.42
				c1.35,4.79,1.35,8.79,2.94,13.57c0.02,0.4,0.03,0.81,0.03,1.22c-0.03,2.04-0.27,4.12-0.74,6.45c-0.03,0.6-0.06,1.21-0.09,1.81
				c-0.21,3.64-0.48,7.34-0.73,11.13c0.4,1.17,0.78,2.34,1.15,3.52c-0.02,0.79-0.06,1.59-0.11,2.39c-0.4,6.41-1.49,12.96,0.07,20.39
				c-0.15,0.74-0.31,1.46-0.48,2.17c-0.67,2.68,0.72,3.63-0.82,5.84c-0.26,0.37-0.57,2.59-0.87,2.94c-0.46,0.58,0.44,1.12,0,1.75
				c-0.22,0.31-0.26,4.28-0.47,4.6c-2.38,4.07-1.32,4.96-1.14,8.83c0.02,0.48,0.2,3.47,0.19,3.96c-0.29,4.47-0.21,7.55,0.45,16.2
				c0.03,0.54,0.06,1.08,0.07,1.62c0.06,2.7-0.96,38.09-0.92,40.53c0.14,0.42,0.27,0.84,0.42,1.25c0.42,1.25,0.85,2.49,1.24,3.73
				c0.01,0.54-0.01,1.08-0.07,1.62c-0.18,1.63-0.87,9.57-1.91,11.33c-0.05,0.48-0.09,0.97-0.11,1.44c-0.04,1.43,0.11,2.82,0.71,4.17
				c-0.06,0.37-0.14,0.75-0.24,1.14c-0.3,1.16-0.72,2.33-1.34,3.54c-0.31,0.36-0.65,0.68-1,0.95c-1.07,0.82-2.34,1.23-3.72,0.97
				c-0.62,0.09-1.26,0.15-1.91,0.2c-5.86,0.46-12.16-0.3-16.17-1.36c-0.18-0.48-0.35-1.02-0.52-1.61c-0.16-0.59-3.34-2.45-3.01-6.84
				c0.05-0.73,0.12-1.46,0.19-2.2c0.28-2.42,0.78-11.11,1.05-13.5c0.09-0.8,0.17-1.59,0.23-2.39c0.07-6.44-2.4-11.81-2.3-16.86
				c0.01-0.34-0.89-10.6-2.44-29.23c-0.49-6.72-0.49-6.72-1.58-10.05c-0.14-0.41-0.24-0.83-0.28-1.25
				c-0.15-0.81-0.26-1.66-0.36-2.53c-0.05-0.44-0.09-0.88-0.13-1.33c-0.12-2.18,0.1-4.05,0.08-5.89c0-0.37-0.02-0.74-0.05-1.1
				c-0.12-2.35-0.82-4.45-1.74-6.4c-0.18-0.39-0.38-0.77-0.58-1.15c-2.11-3.68-2.11-8.69-4.72-12.92c-0.1-0.45-0.2-0.91-0.28-1.37
				c-0.22-3.42-3.33-6.42-2.44-10.7c-0.13-1.23-0.26-2.5-0.38-3.78c-1.91-20.42-1.64-40.59-3.28-51.41"/>
			<path class="st14" d="M274.59,582.33c-0.24,1.29-0.89,5.11-1.97,11.46c-1.07,6.4-0.63,9.88-0.69,10.35
				c-0.1,0.92-0.08,2.02,0.09,3.31c0.09,0.62,0.2,1.1,0.31,1.42c0.17,0.73,0.22,1.48,0.15,2.25L248.7,610
				c0.82-0.48,1.7-0.97,2.64-1.48c0.56-0.42,1.17-1.03,1.83-1.82c1.3-1.56,2.17-3.21,2.61-4.93c0.28-1.1,1.56-10.85,1.32-14.37
				c-0.89-12.26-1.09-24.39-0.61-36.39c0.66-10.36,4.38-8.28,4.32-10.84l9.61-5.13l4.37-0.36c-0.25,1.4,5.53,7.54,4.36,17.8
				C278.03,562.16,276.52,572.1,274.59,582.33z"/>
			<path class="st4" d="M228.58,620.47c0,0-3.2,4.67-1.32,6.57c4.53,4.58,14.41,6.44,22.47,0.99c8.06-5.46,22.68-3.2,23.73-4.5
				c3.4-4.25-0.99-5.56-0.99-5.56L228.58,620.47z"/>
			<path class="st2" d="M253.87,605.62c0,0-7.06,6.33-9.86,9.07c-2.8,2.74-14.79,3.96-15.49,5.78c-2.37,6.11,4.55,9.29,11.92,7.66
				c7.37-1.62,16.71-6.63,19.53-6.65c2.82-0.02,12.93,1.52,14.38-2.35c1.45-3.86-1.41-12.47-2.81-12.68
				c-1.4-0.22-8.91,5.78-11.15,3.56C258.15,607.78,258.31,601.6,253.87,605.62z"/>
			<path class="st4" d="M253.52,421.4c-0.17,0.46-0.34,0.91-0.49,1.37c0.63,3.89-0.84,7.86-2.19,11.76
				c-0.27,0.78-0.53,1.55-0.77,2.32c-0.22,1.8-0.35,3.6-0.42,5.4c-0.03,0.9-0.06,1.8-0.06,2.7c-0.09,0.44-0.15,0.89-0.22,1.34
				c-0.07,0.44-0.12,0.89-0.17,1.34c-0.15,3.76-0.2,7.41-0.06,11c0.02,0.45,0.03,0.89,0.05,1.34c0.83,3.91,0.83,8.92,0.96,12.47
				c-0.03,0.43-0.07,0.87-0.11,1.31c-0.07,0.87-0.14,1.75-0.16,2.66c-0.08,0.43-0.15,0.87-0.23,1.31c-0.14,0.77-0.28,1.56-0.41,2.35
				c-0.07,0.39-0.13,0.79-0.18,1.18c-0.07,4.68,0.97,9.68,1.32,15.1c0.15,0.41,0.33,0.83,0.52,1.23c0.37,0.81,0.7,7.53,0.89,8.04
				c0.65,1.85,0.88,3.61,0.9,5.4c0.01,0.45,0,0.9-0.01,1.35c-0.3,4.9,2.58,8.64,2.86,13.65c-0.02,0.45-0.94,1.14-1.01,1.59
				c-0.11,0.48,1.64,0.71,1.54,1.19c-3.57,3.79-0.57,8.23-1.82,12.05c-0.14,0.42-0.33,0.84-0.59,1.25
				c0.52,4.94-1.52,49.82-1.61,55.05c-0.06,0.35-0.14,0.69-0.25,1.03c-0.1,0.34-0.23,0.68-0.39,1.01c0.05,0.37,0.13,0.76,0.22,1.14
				c0.27,1.16,0.67,2.34,1.27,3.56c0.3,0.36,0.64,0.69,0.99,0.97c1.06,0.84,2.32,1.27,3.7,1.04c0.62,0.09,1.26,0.17,1.91,0.23
				c5.85,0.56,12.16-0.09,16.2-1.08c0.19-0.48,0.37-1.02,0.55-1.6c0.17-0.59,3.38-2.39,3.14-6.78c-0.02-0.37-0.04-0.73-0.07-1.1
				c-0.02-0.37-0.05-0.74-0.08-1.1c0.94-4.56-1.18-49.44,1.66-54.91c0.11-0.52,0.24-1.03,0.37-1.55c0.77-3.1,1.63-6.21,1.27-9.42
				c0.12-0.5,0.26-1,0.42-1.48c0.12-0.36,0.25-0.72,0.4-1.07c0.14-0.35,0.29-0.69,0.45-1.02c0.15-0.5,0.27-1.01,0.36-1.51
				c0.09-0.5,0.15-1,0.19-1.5c-0.65-2.97-0.19-5.58,0.58-7.95c0.11-0.34,0.23-0.67,0.34-1c0.65-3.05,1.66-6.08,2.87-8.94
				c0.2-0.48,0.41-0.95,0.62-1.42c0.72-1.74,1.76-3.75,2.39-5.25c0.11-0.39,0.22-0.77,0.31-1.13c0.08-0.47,0.18-0.92,0.3-1.38
				c0.36-1.36,0.88-2.69,1.43-4.02c0.18-0.45,0.37-0.9,0.55-1.36c1.96-4.64,1.96-9.65,2.87-14.38c0.03-0.33,0.07-0.65,0.1-0.98
				c1.97-19.26,2.15-37.89,3.88-48.12"/>
			<path class="st15" d="M239.05,629.82c-2.24,1.06-9.77-2.54-11.3-4.26c-2.48-2.65-0.35-6.46,1.58-7.14
				c2.53-0.72,3.78,2.39,5.98,4.53c0.3,0.34,3.51,3.1,4.08,4.25C239.62,628.31,239.3,629.57,239.05,629.82z"/>
			<path class="st15" d="M239.37,615.06c-0.63,0.37-6.61,3.01-7.15,3.35c-1.65,1.03-1.29,1.38,0.12,3.53
				c1.08,1.92,3.08,1.9,5.45,1.09c0.59-0.2,6.08-2.16,6.89-2.53c6.25-3.64,11.32-5.19,15.1-10.66c-0.45-1.24-2.73-3.58-3.7-3.97
				c-3.87-1.56-3.18-1.38-5.16,0.56C250.67,606.72,242.82,613.14,239.37,615.06z"/>
			<path class="st15" d="M239,615.37c4.97-0.88,7.64,2.93,8.63,5.9c0.62,1.64,0.65,4.5,0.19,6.33c1.05,0.02,3.06-1.4,4.21-2.51
				c0.7-1.88-0.62-4.97-0.62-5.29c-0.08-0.29-0.2-0.79-0.31-1.12c-1.29-3.86-5.2-8.79-10.87-4.92
				C239.63,614.54,239,615.37,239,615.37z"/>
			<path class="st15" d="M243.83,611.94c5.36-0.63,9.41,2.6,10.64,5.72c0.76,1.73,1.73,4.64,1.32,6.51
				c1.14,0.08,3.24-0.58,4.43-1.67c-0.02-2.11-1.4-6.11-2.19-7.66c-2.12-4.17-6.17-8.84-12.13-5.15
				C244.81,610.35,243.83,611.94,243.83,611.94z"/>
			<path class="st15" d="M250.16,606.56c5.65-0.45,9.71,3.07,11.52,6.36c0.87,1.79,3.18,7.89,2.82,9.78
				c1.21,0.13,1.24,0.54,2.46-0.53c0.63-1.92-2.02-7.3-3.43-10.33c-1.98-4.25-7.05-8.99-11.25-7.5
				C251.13,604.97,250.16,606.56,250.16,606.56z"/>
			<path class="st15" d="M270.09,609.16c-2.64,1.16-5.27,2.6-8.07,3.46c0.17-0.59-1.2-2.13-1.09-2.73c1.69-0.6,4.09-0.69,6.09-1.67
				c0.33-0.18,1.37-0.87,1.68-1.05c1.25-0.72,2.03-1.4,3.19-2.53c0.89,0.15,1.65,2.48,0.69,3.25
				C272.26,608.14,270.48,608.96,270.09,609.16z"/>
			<polygon class="st16" points="315.94,359.97 338.99,356.87 332.1,310.58 321.78,311.8 315.33,332.41 			"/>
			<polygon class="st16" points="314.57,365.27 338.99,362.57 338.99,356.06 314.57,357.95 			"/>
			<g>
				<linearGradient id="SVGID_2_" gradientUnits="userSpaceOnUse" x1="314.5724" y1="360.6006" x2="337.258" y2="360.6006">
					<stop  offset="0" style="stop-color:#7E1620"/>
					<stop  offset="0.5672" style="stop-color:#7E1620;stop-opacity:0"/>
				</linearGradient>
				<polygon class="st17" points="314.57,365.27 337.26,362.39 337.26,355.93 314.57,357.95 				"/>
			</g>
			<path class="st16" d="M306.7,301.78c0,0-4.52,13.63-20.29,13.63c-14.87,0-18.71-14.24-18.71-14.24l2.97-1.67
				c1.72,2.46,5.45,11.75,15.65,11.78c10.19,0.03,15.79-8.44,17.48-10.9"/>
			<path class="st16" d="M269.28,313.04"/>
			<path class="st16" d="M306.1,377.18c-0.09-8.56,4.09-17.11,10.57-22.91c1.02-4.91,2.55-9.48,4.84-14.45
				c0.09-1.89,0.21-3.79,0.37-5.68c0.54-6.08,0.61-12.02,1.12-18.01c-0.9-0.37-1.87-0.83-2.99-1.4c-2.12-1.08-5.14-3.59-6.25-4.54
				c-0.01-0.01-0.02-0.02-0.03-0.03c-2.31-1.03-3.6-2.01-6.96-4.73c-0.39-0.31-0.76-0.66-1.13-1.03
				c-2.51,3.7-8.82,11.05-19.36,11.02h-0.1c-10.08-0.03-15.16-6.8-17.23-10.64l-0.94,1.17c-1.03,0.83-1.96,1.77-2.9,2.69
				c-1.82,1.76-3.83,3.21-5.87,4.69c-0.12,0.21-0.24,0.41-0.37,0.62c0.09,2.93,0.33,5.84,0.4,8.77c0.24,11.43,0.86,22.87-0.63,34.24
				c-0.02,0.19-0.05,0.37-0.08,0.55c0.01,0.47,0.03,0.93,0.04,1.39c2.26,1.13,4.35,2.6,6.16,4.36c4.26,4.14,6.82,9.7,7.17,15.5
				c4.88,0.12,9.76,0.27,14.63,0.56c5.24,0.32,10.46,0.74,15.68,1.23c0.53-0.43,1.05-0.86,1.57-1.29c0.76-0.63,1.52-1.27,2.29-1.91
				C306.11,377.31,306.1,377.25,306.1,377.18z"/>
			<path class="st16" d="M301.65,297.88l0.46,6.48l-18.99,40.2l3.05,82.91l4.71,10.29l34.44-3.78c0,0-0.15-4.12-0.4-10.68
				c-0.06-1.64-0.13-3.43-0.2-5.35c-0.21-1.62-0.4-3.25-0.58-4.88c-0.19-1.64-0.36-3.28-0.52-4.92c-4.07-16.4-0.95-33.44-1.11-49.47
				c-0.11-1.51-0.23-3.01-0.33-4.5c-0.64-8.98-0.9-17.74,2.15-25.73c0.39-0.89,0.8-1.84,1.23-2.82c2.98-6.84,6.56-15.05,6.56-15.05
				l-23.97-7.28L301.65,297.88z"/>
			<path class="st18" d="M263.48,304.81c0.23,0.58-0.4,1.35-1.42,1.72c-1,0.37-2.01,0.2-2.24-0.38c-0.23-0.58,0.4-1.35,1.41-1.72
				C262.25,304.06,263.25,304.23,263.48,304.81z"/>
			<path class="st18" d="M256.22,306.93c0.23,0.58-0.4,1.35-1.41,1.72c-1.01,0.37-2.01,0.2-2.24-0.38c-0.23-0.58,0.4-1.35,1.41-1.72
				C254.99,306.18,255.99,306.35,256.22,306.93z"/>
			<polygon class="st16" points="258.3,359.97 234.53,356.01 242.13,310.58 252.46,311.8 258.91,332.41 			"/>
			<polygon class="st16" points="259.67,365.27 233.58,362.39 234.53,356.01 259.67,357.95 			"/>
			<g>
				
					<linearGradient id="SVGID_3_" gradientUnits="userSpaceOnUse" x1="-1017.6068" y1="360.6006" x2="-994.9179" y2="360.6006" gradientTransform="matrix(-1 0 0 1 -757.9414 0)">
					<stop  offset="0" style="stop-color:#7E1620"/>
					<stop  offset="0.5672" style="stop-color:#7E1620;stop-opacity:0"/>
				</linearGradient>
				<polygon class="st19" points="259.67,365.27 236.98,362.39 236.98,355.93 259.67,357.95 				"/>
			</g>
			<path class="st16" d="M272.59,297.88l-0.47,6.48l18.99,40.2c0,0-0.58,15.87-1.24,33.72c-0.05,1.28-0.09,2.56-0.14,3.85
				c-0.28,2.59-0.28,4.6-0.29,7.76c-0.04,1.29-0.09,2.58-0.14,3.85c-0.66,17.85,1.57,44.02,1.57,44.02h-7.53l-34.45-3.78
				c0,0,0.05-1.44,0.15-3.97c0.05-1.27,0.11-2.8,0.19-4.57c0.08-1.47,0.16-2.93,0.24-4.38c0.08-1.45,0.16-2.91,0.26-4.35
				c0.65-7.97,1.76-16.22,2.41-24.46c0.13-1.65,0.24-3.3,0.33-4.94c0.06-1.56,0.1-3.14,0.11-4.72c-0.5-16.89-1.54-32.92-0.73-49.67
				c-0.49-1.12-1.17-2.68-1.94-4.47c-3.12-7.15-7.79-17.86-7.79-17.86l23.98-7.28L272.59,297.88z"/>
			<path class="st15" d="M332.29,615.78c-4.95-0.96-7.69,2.8-8.74,5.75c-0.65,1.63-0.73,4.48-0.3,6.32
				c-1.05,0.01-3.04-1.45-4.16-2.58c-0.66-1.89,0.71-4.96,0.72-5.28c0.08-0.29,0.21-0.79,0.33-1.11c1.36-3.84,5.37-8.7,10.96-4.73
				C331.68,614.94,332.29,615.78,332.29,615.78z"/>
			<path class="st15" d="M327.53,612.27c-5.35-0.72-9.45,2.44-10.75,5.54c-0.79,1.72-1.81,4.61-1.44,6.49
				c-1.14,0.06-3.23-0.64-4.4-1.74c0.05-2.11,1.51-6.08,2.33-7.62c2.19-4.13,6.33-8.73,12.22-4.94
				C326.58,610.66,327.53,612.27,327.53,612.27z"/>
			<path class="st15" d="M321.31,606.77c-5.64-0.55-9.76,2.91-11.63,6.16c-0.91,1.78-3.32,7.83-3,9.73
				c-1.21,0.11-1.25,0.52-2.45-0.57c-0.6-1.93,2.15-7.27,3.62-10.27c2.06-4.22,7.21-8.87,11.38-7.31
				C320.36,605.17,321.31,606.77,321.31,606.77z"/>
			<path class="st15" d="M301.33,609.03c2.62,1.2,5.22,2.69,8,3.6c-0.15-0.6,1.24-2.12,1.14-2.71c-1.68-0.63-4.08-0.76-6.06-1.78
				c-0.32-0.18-1.35-0.89-1.66-1.07c-1.24-0.74-2-1.43-3.14-2.58c-0.89,0.13-1.69,2.45-0.75,3.23
				C299.18,607.98,300.94,608.83,301.33,609.03z"/>
			<g>
				<path class="st4" d="M228.13,620.23c0,0-2.55,8.36,0,9.24c2.55,0.88,13.39,5.54,20.98-1.41c7.59-6.95,22.02-5.35,23.55-6.11
					c1.54-0.76,1.45-8.55,1.45-8.55L228.13,620.23z"/>
				<path class="st4" d="M253.42,601.13c0,0-6.93,7.93-9.67,11.36c-2.74,3.42-15,5.55-15.63,7.75c-2.12,7.41,5.16,10.82,12.65,8.47
					c7.49-2.34,16.84-8.83,19.74-9.01c2.9-0.18,13.37,1.08,14.66-3.61c1.29-4.69-2.09-14.78-3.54-14.96
					c-1.45-0.18-8.86,7.39-11.28,4.87C257.93,603.47,257.77,596.1,253.42,601.13z"/>
				<path class="st18" d="M244.72,609.3c0,0,4.15-0.22,4.26,3.35c0,0,0.36-3.51-2.13-4.11L244.72,609.3z"/>
				<path class="st18" d="M247.96,605.82c0,0,4.15-0.22,4.26,3.35c0,0,0.36-3.51-2.13-4.11L247.96,605.82z"/>
				<path class="st7" d="M232.38,628.81c0.27,0.91,0.83,1.4,1.68,1.46l-1.18,0.18c-0.93-0.66-1.29-1.59-1.1-2.8
					c0.09-0.58,0.21-1.17,0.36-1.75C232,626.88,232.08,627.85,232.38,628.81z"/>
			</g>
			<g>
				<path class="st4" d="M342.85,622.41c0,0,2.55,8.36,0,9.24c-2.55,0.88-13.39,5.54-20.98-1.41c-7.59-6.95-22.02-5.35-23.55-6.11
					c-1.54-0.76-1.45-8.55-1.45-8.55L342.85,622.41z"/>
				<path class="st4" d="M317.56,603.3c0,0,6.93,7.93,9.67,11.36c2.74,3.42,15,5.55,15.63,7.75c2.12,7.41-5.16,10.82-12.65,8.47
					c-7.49-2.34-16.84-8.83-19.74-9.01c-2.9-0.18-13.37,1.08-14.66-3.61c-1.29-4.69,2.09-14.78,3.54-14.96
					c1.45-0.18,8.86,7.39,11.28,4.87C313.05,605.65,313.21,598.28,317.56,603.3z"/>
				<path class="st18" d="M328.53,614.29c0,0-4.15-0.22-4.26,3.35c0,0-0.36-3.51,2.13-4.11L328.53,614.29z"/>
				<path class="st18" d="M324.97,609.93c0,0-4.15-0.22-4.26,3.35c0,0-0.36-3.51,2.13-4.11L324.97,609.93z"/>
				<path class="st7" d="M338.6,630.98c-0.27,0.91-0.83,1.4-1.68,1.46l1.18,0.18c0.93-0.66,1.29-1.59,1.1-2.8
					c-0.09-0.58-0.21-1.17-0.36-1.75C338.98,629.05,338.9,630.03,338.6,630.98z"/>
			</g>
		</g>
		<polygon class="st20" points="262.95,324.72 262.95,320.12 268.74,320.12 268.74,315.03 280.58,315.03 280.58,320.12 
			286.1,320.12 286.1,324.72 290.04,324.72 290.04,330.31 286.1,330.31 286.1,335.4 280.31,335.4 280.31,340.98 268.74,340.98 
			268.74,336.29 263.48,336.29 263.48,330.8 257.5,330.8 257.5,325.21 		"/>
		<path class="st20" d="M264.01,304.28c-0.31,0.17-0.63,0.31-0.97,0.44c-1.04,0.39-2.09,0.78-3.17,1.06
			c-2.38,0.61-4.83,0.94-7.2,1.59c-2.28,0.63-4.51,1.43-6.68,2.39c-1.71,0.76-3.58,1.53-4.86,2.94v3.16h5.26v4.69h11.58v-5.59h5.79
			v-5.09h3.94v-5.58H264.01z"/>
		<polygon class="st20" points="279.21,348.95 279.21,344.35 285,344.35 285,339.26 296.85,339.26 296.85,344.35 302.37,344.35 
			302.37,348.95 306.31,348.95 306.31,354.54 302.37,354.54 302.37,359.63 296.58,359.63 296.58,365.22 285,365.22 285,360.52 
			279.75,360.52 279.75,355.03 273.77,355.03 273.77,349.44 		"/>
		<path class="st20" d="M321.98,374.68v-1.21h0.1c0.12-1.86,0.17-3.72,0.19-5.58h-0.29v-4.6h-5.52v-5.09h-11.84v5.09h-5.79v4.6
			l-5.44,0.49v5.59h5.98v5.49h5.26v4.69h11.58v-5.59h5.36C321.72,377.27,321.87,375.97,321.98,374.68z"/>
		<polygon class="st20" points="258.45,368.81 258.45,364.21 264.24,364.21 264.24,359.11 276.09,359.11 276.09,364.21 
			281.61,364.21 281.61,368.81 285.55,368.81 285.55,374.39 281.61,374.39 281.61,379.49 275.82,379.49 275.82,385.07 
			264.24,385.07 264.24,380.38 258.99,380.38 258.99,374.89 253.01,374.89 253.01,369.3 		"/>
		<polygon class="st20" points="277.73,388.94 277.73,384.34 283.52,384.34 283.52,379.25 295.36,379.25 295.36,384.34 
			300.89,384.34 300.89,388.94 304.83,388.94 304.83,394.52 300.89,394.52 300.89,399.62 295.1,399.62 295.1,405.2 283.52,405.2 
			283.52,400.51 278.26,400.51 278.26,395.02 272.29,395.02 272.29,389.43 		"/>
		<path class="st20" d="M323.6,407.49c-0.09-0.32-0.2-0.63-0.3-0.95h-1.32v-4.6h-5.52v-5.09h-11.84v5.09h-5.79v4.6l-5.44,0.49v5.59
			h5.98v5.49h5.26v4.69h11.58v-5.59h5.79v-5.09h2.3C323.91,410.61,323.82,409.04,323.6,407.49z"/>
		<path class="st20" d="M266.72,344.42v-4.6h-5.52v-5.09h-9.23c-0.87,4.32-0.47,8.96-0.4,13.34c0.04,2.51,0.05,5.01-0.04,7.52
			c-0.06,1.71-0.05,3.41,0.1,5.1h9.29v-5.59h5.79v-5.09h3.94v-5.58H266.72z"/>
	</g>
</g>
</svg>
