<svg width="300" height="301" viewBox="0 0 300 301" fill="none" xmlns="http://www.w3.org/2000/svg">
<g clip-path="url(#clip0_217_77)">
<path d="M150 300.242C232.843 300.242 300 233.084 300 150.242C300 67.399 232.843 0.241699 150 0.241699C67.1573 0.241699 0 67.399 0 150.242C0 233.084 67.1573 300.242 150 300.242Z" fill="#EC654E"/>
<path d="M67.9809 130.08L85.3888 125.841L111.501 119.482L107.262 102.074L81.1497 108.433L74.7909 82.3211L57.383 86.5603L63.7417 112.672L67.9809 130.08Z" fill="#333333"/>
<path fill-rule="evenodd" clip-rule="evenodd" d="M67.7782 114.641L71.1123 128.332L82.7124 125.507C92.7803 98.1081 119.099 78.5751 150 78.5751C189.596 78.5751 221.667 110.646 221.667 150.242C221.667 169.049 214.431 186.159 202.59 198.941C202.59 198.941 180.215 186.002 150.809 186.002C122.882 186.002 101.688 196.645 97.9857 198.626L97.9833 198.668L81.6769 208.165C98.1133 227.53 122.63 239.825 150 239.825C199.45 239.825 239.583 199.692 239.583 150.242C239.583 100.792 199.45 60.6584 150 60.6584C113.199 60.6584 81.5571 82.8866 67.7782 114.641ZM150 168.302C169.798 168.302 185.833 152.266 185.833 132.468C185.833 112.67 169.798 96.635 150 96.635C130.202 96.635 114.167 112.67 114.167 132.468C114.167 152.266 130.202 168.302 150 168.302Z" fill="#333333"/>
</g>
<rect x="2" y="2.2417" width="296" height="296" rx="148" stroke="#821A1A" stroke-width="4"/>
<defs>
<clipPath id="clip0_217_77">
<rect y="0.241699" width="300" height="300" rx="150" fill="white"/>
</clipPath>
</defs>
</svg>
