<svg width="300" height="300" viewBox="0 0 300 300" fill="none" xmlns="http://www.w3.org/2000/svg">
<g clip-path="url(#clip0_215_194)">
<path d="M150 300C232.843 300 300 232.843 300 150C300 67.1573 232.843 0 150 0C67.1573 0 0 67.1573 0 150C0 232.843 67.1573 300 150 300Z" fill="#EC654E"/>
<path d="M259.335 271.408C256.689 260.246 255.775 233.07 261.24 215.33L290.221 204.622C290.122 211.367 288.317 209.652 288.622 215.826C289.155 226.534 290.164 232.975 289.764 243.627C289.631 247.438 289.383 252.32 289.25 256.05C289.116 259.78 289.25 264.206 289.383 267.749C289.383 267.749 290.278 274.933 290.278 279.335C289.909 283.484 289.059 287.577 287.746 291.53C285.633 294.274 283.891 297.285 282.566 300.485C274.779 318.092 260.936 334.689 243.074 353.343L228.812 346.96C228.812 346.96 253.128 289.205 261.586 280.745L259.335 271.408Z" fill="#883A20"/>
<path d="M181.779 229.833V230.309C181.77 230.15 181.77 229.991 181.779 229.833ZM181.779 229.394V229.7C181.788 229.598 181.788 229.496 181.779 229.394V229.394ZM141.393 251.764C141.364 251.307 141.416 250.85 141.545 250.411C141.735 238.368 142.477 224.363 144.667 214.645L180.046 227.981C180.184 227.955 180.326 227.968 180.457 228.019C180.588 228.069 180.703 228.155 180.788 228.266L182.006 228.724C181.816 230.362 181.625 231.677 181.414 232.82C181.224 239.032 179.51 256.2 175.949 266.737C174.624 270.088 173.976 273.67 174.045 277.274C173.723 281.485 173.723 285.715 174.045 289.926C176.521 305.17 166.676 374.189 166.676 374.189L150.114 371.999C151.01 363.73 145.258 334.862 142.345 315.331C141.692 311.374 141.329 307.374 141.259 303.364C141.259 303.364 141.259 293.665 140.898 289.473C140.593 286.634 138.099 281.26 138.004 277.183C137.87 271.62 141.412 251.764 141.412 251.764" fill="#883A20"/>
<path d="M193.965 138.408C196.532 133.32 195.298 127.68 194.213 124.059C194.213 124.059 181.264 127.128 174.143 123.259C173.3 122.551 172.674 121.619 172.338 120.57C172.001 119.522 171.966 118.399 172.239 117.332C173.686 112.836 172.6 110.873 172.6 110.873C170.033 110.206 169.858 106.395 171.343 105.785C169.439 105.156 169.991 102.374 170.144 102.165C170.632 101.366 170.953 100.476 171.088 99.5488C171.222 98.6218 171.166 97.6771 170.925 96.7722C170.352 96.8419 169.771 96.7589 169.241 96.5317C168.71 96.3044 168.249 95.941 167.904 95.4781C166.571 93.5726 168.003 90.5241 169.808 88.5632C171.614 86.6024 174.547 80.4629 174.017 76.7872C173.487 73.1114 172.112 73.148 173.769 68.6128C176.533 60.7999 176.263 50.473 189.44 42.7935C201.036 36.0288 211.928 34.792 222.667 38.4875C234.778 42.6602 242.928 51.3117 243.346 73.1855C243.498 81.1692 240.89 93.0974 237.082 95.2312C232.435 97.8223 230.912 114.971 231.026 117.049C231.674 129.453 233.198 140.238 247.84 146.374C252.276 148.279 240.356 166.743 240.223 171.736C240.089 176.728 250.086 178.423 247.496 182.788C243.573 189.419 219.905 183.817 209.718 178.786C204.783 176.328 199.627 174.423 194.867 171.564C191.214 169.41 173.616 154.987 173.312 150.394C173.16 148.07 186.031 149.406 193.972 138.409" fill="#883A20"/>
<path d="M231.021 117.048C231.021 114.973 232.43 97.8027 237.058 95.2304C240.866 93.0966 243.474 81.1684 243.322 73.1847C242.904 51.3099 234.754 42.6978 222.643 38.4867C211.922 34.7902 201.03 36.0279 189.438 42.7927C176.238 50.4149 176.506 60.7991 173.742 68.6119C172.162 73.1471 173.437 72.918 173.99 76.7676C174.542 80.6172 171.324 86.8663 169.781 88.5624C168.238 90.2586 166.563 93.4789 167.877 95.4773C168.222 95.9416 168.685 96.3061 169.216 96.5338C169.748 96.7614 170.331 96.8441 170.905 96.7734C171.147 97.675 171.202 98.6166 171.068 99.5404C170.934 100.464 170.613 101.351 170.124 102.146C169.972 102.356 169.382 105.157 171.323 105.785C169.843 106.378 170.009 110.206 172.58 110.873C172.58 110.873 173.646 112.778 172.218 117.332C171.95 118.4 171.986 119.521 172.323 120.568C172.659 121.616 173.283 122.548 174.122 123.259C181.244 127.071 194.176 124.042 194.176 124.042" fill="#883A20"/>
<path d="M177.266 72.7469C177.399 70.708 178.675 70.9935 179.833 70.8414C180.991 70.6893 182.289 70.8414 183.432 70.7268C184.898 70.7268 186.269 70.7268 187.431 70.8414C188.681 71.0226 189.841 71.5964 190.744 72.4802C191.612 73.3672 192.206 74.485 192.458 75.7005C192.362 75.8319 192.236 75.9374 192.089 76.0073C191.943 76.0772 191.781 76.1092 191.619 76.1006C191.296 76.1006 191.22 76.1006 190.648 75.6818C190.077 75.2629 189.645 74.9192 189.152 74.5754C187.736 73.7326 186.086 73.3714 184.449 73.5461C182.696 73.5461 181.29 74.0222 179.535 74.0983C179.136 74.0983 178.279 74.4035 177.898 74.2316C177.517 74.0597 177.25 73.1262 177.269 72.6689" fill="#3D1911"/>
<path d="M183.303 78.5959C183.314 78.6279 183.314 78.6627 183.303 78.6947C183.437 79.4949 183.722 80.2575 183.855 81.0764C184.007 81.7928 184.007 82.5332 183.855 83.2497C183.742 83.5493 183.534 83.8036 183.263 83.9738C182.234 84.6791 180.864 84.8697 180.197 83.5549C179.627 82.2744 179.487 80.8439 179.797 79.4771C179.797 79.325 180.521 79.1155 180.635 79.0582C181.423 78.7937 182.243 78.6336 183.073 78.5821V78.5821" fill="#3D1911"/>
<path d="M181.209 80.8423C179.856 81.1476 178.695 80.1755 177.533 79.0702C178.541 79.3251 179.606 79.2182 180.542 78.7679" fill="#331510"/>
<path d="M183.094 78.9012C181.884 78.9713 180.725 79.4175 179.781 80.1775V79.8347C180.715 79.0774 181.859 78.6247 183.058 78.5377C184.367 78.3877 185.692 78.6261 186.866 79.2232C187.495 79.5285 190.675 81.3768 188.771 81.9102C189.78 80.8621 187.342 79.7191 186.638 79.4139C185.567 78.9005 184.367 78.7211 183.192 78.8992" fill="#3D1911"/>
<path d="M188.878 82.3497C189.316 82.1976 189.735 81.9684 189.773 81.435C189.773 80.1587 187.108 78.8439 186.993 78.7866C185.753 78.1572 184.356 77.9055 182.975 78.0625C181.69 78.1582 180.466 78.6507 179.472 79.4721L179.357 79.6055V79.7774C179.357 80.1202 179.357 80.4066 179.566 80.5963L179.795 80.7484L180.042 80.5766C180.948 79.9199 182.007 79.5083 183.118 79.3814C184.228 79.2546 185.353 79.4168 186.383 79.8525C186.84 80.0496 187.28 80.2856 187.697 80.5578C187.964 80.7297 188.439 81.0517 188.421 81.434C188.402 81.8163 188.193 81.7956 188.04 81.9279C187.887 82.0603 187.488 82.3665 187.221 82.6135L186.346 83.4324L188.535 82.4801L188.897 82.3468" fill="#331510"/>
<path d="M181.761 84.4845C181.553 84.489 181.347 84.4489 181.156 84.3667C180.966 84.2846 180.795 84.1623 180.656 84.0084C180.405 83.6683 180.23 83.2787 180.142 82.8654C180.027 82.4081 179.894 81.9695 179.779 81.5121C179.694 81.2195 179.694 80.9087 179.779 80.6161C180.084 79.4732 181.493 79.2628 182.407 79.1867C182.76 79.1369 183.119 79.1969 183.436 79.3586C183.773 79.6412 183.985 80.0449 184.028 80.4828C184.237 81.3261 184.237 82.2078 184.028 83.0511C183.878 83.4418 183.619 83.7809 183.281 84.0277C182.943 84.2744 182.541 84.4183 182.124 84.442H181.762" fill="#331510"/>
<path d="M181.836 84.77C180.158 84.4272 179.418 83.2645 179.19 81.359C178.962 79.4534 180.637 78.7679 182.16 78.7679C185.759 78.7679 185.454 84.4845 181.988 84.7937C181.531 84.7937 180.732 84.1457 181.531 84.0696C183.721 83.879 184.444 79.328 182.179 79.573C180.674 79.7251 179.513 83.632 181.665 84.0894C182.216 84.1882 182.636 84.9468 181.836 84.775" fill="#331510"/>
<path d="M181.551 83.4167C181.896 83.2823 182.185 83.0334 182.369 82.7114C182.468 82.4995 182.519 82.2685 182.519 82.0347C182.519 81.8009 182.468 81.5699 182.369 81.358C182.211 80.933 181.933 80.5626 181.57 80.2912C182.008 79.8525 182.598 80.2912 182.845 80.7851C183.105 81.2625 183.179 81.8189 183.054 82.3479C182.99 82.5974 182.866 82.8279 182.695 83.0202C182.523 83.2124 182.308 83.3609 182.067 83.4533C181.915 83.4533 181.591 83.6439 181.496 83.4533" fill="#632212"/>
<path d="M175.058 97.3838C175.058 97.3838 176.962 98.26 177.704 97.041C178.98 95.1354 177.704 91.7629 176.753 90.8867C179.875 98.0881 175.058 97.3838 175.058 97.3838Z" fill="#3D1911"/>
<path d="M175.058 97.3838C175.058 97.3838 176.962 98.26 177.704 97.041C178.98 95.1354 177.704 91.7629 176.753 90.8867C179.856 98.0881 175.058 97.3838 175.058 97.3838Z" stroke="#3D1911" stroke-width="0.08" stroke-linejoin="bevel"/>
<path d="M172.849 95.2116C172.54 95.084 172.211 95.013 171.877 95.0022C171.53 94.9638 171.179 95.0029 170.849 95.1167C170.704 95.148 170.572 95.2208 170.468 95.3261C170.427 95.3921 170.406 95.468 170.406 95.5454C170.406 95.6229 170.427 95.6988 170.468 95.7647C170.52 95.8325 170.594 95.8797 170.677 95.8981C171.058 96.0127 171.477 95.746 171.876 95.6887C172.763 95.7365 173.631 95.9633 174.428 96.3554C174.022 95.8557 173.499 95.4633 172.905 95.2126" fill="#3D1911"/>
<path d="M172.849 95.2116C172.54 95.084 172.211 95.013 171.877 95.0022C171.53 94.9638 171.179 95.0029 170.849 95.1167C170.704 95.148 170.572 95.2208 170.468 95.3261C170.427 95.3921 170.406 95.468 170.406 95.5454C170.406 95.6229 170.427 95.6988 170.468 95.7647C170.52 95.8325 170.594 95.8797 170.677 95.8981C171.058 96.0127 171.477 95.746 171.876 95.6887C172.763 95.7365 173.631 95.9633 174.428 96.3554C174.006 95.8478 173.463 95.4545 172.849 95.2116V95.2116Z" stroke="#3D1911" stroke-width="0.08" stroke-linejoin="bevel"/>
<path d="M179.571 105.558C177.984 105.67 176.39 105.529 174.848 105.139C174.03 104.682 173.401 101.938 172.202 102.071C171.472 102.194 170.733 102.258 169.992 102.262C169.84 102.471 169.021 105.12 171.021 105.768C169.498 106.36 169.669 110.169 172.316 110.855H172.849C173.768 110.57 174.634 110.139 175.416 109.579C176.101 109.085 178.575 107.045 179.548 106.34C179.872 106.168 181.281 105.12 179.548 105.577" fill="#632212"/>
<path d="M184.75 41.7633C186.482 38.6189 189.377 38.9815 192.195 37.4948C192.975 37.2387 193.779 37.0601 194.594 36.9613C195.432 36.7519 198.783 34.6745 200.687 35.0558C202.067 35.0017 203.436 34.7778 204.762 34.389C205.867 34.1756 206.956 33.8828 208.019 33.5128C209.64 33.0813 211.32 32.9204 212.993 33.0366C213.736 33.1822 214.486 33.2903 215.239 33.3607C215.791 33.2619 220.952 33.1888 221.77 34.1608C221.897 34.3255 222.044 34.473 222.209 34.5994C222.389 34.7338 222.597 34.8251 222.818 34.8661C225.138 35.313 227.361 36.1711 229.38 37.3999C229.722 37.7427 231.474 39.3055 231.874 39.672C232.274 40.0385 234.145 40.9868 235.435 42.0724C237.033 43.8214 238.438 45.7381 239.624 47.7891C239.905 48.4074 240.329 48.9494 240.862 49.3696C241.719 49.9624 242.576 53.7715 242.766 55.0863C243.49 56.2959 243.969 57.6362 244.175 59.0308C244.45 60.5984 244.622 62.1823 244.689 63.7724C244.578 65.2631 244.707 66.762 245.07 68.2118C245.185 70.2136 245.12 72.2216 244.878 74.2119C244.65 75.4309 244.706 79.2045 244.173 81.9675C243.951 83.2095 243.471 84.3911 242.764 85.4358C242.289 86.0285 242.536 86.5985 242.536 87.3414C242.536 88.0842 241.737 89.2469 241.889 89.7991C242.041 90.3513 240.211 92.7903 238.347 95.0347C238.785 96.5165 235.682 98.0259 235.548 99.5699C235.415 101.114 234.462 101.19 234.234 102.047C233.981 104.16 233.593 106.253 233.072 108.316C232.273 108.926 233.968 112.127 231.644 112.298C229.32 112.469 229.131 111.593 229.131 110.907C229.131 106.735 226.103 104.333 226.332 101.781C226.941 95.0357 228.464 88.8617 229.417 82.174C229.943 76.9571 229.744 71.6925 228.825 66.5305C228.292 62.6245 227.568 58.3946 224.883 55.763C222.481 53.8458 219.552 52.7085 216.486 52.5031L199.616 49.7589C194.933 49.1921 190.338 48.0556 185.931 46.3745" fill="#3D1911"/>
<path d="M215.274 81.7977C217.178 81.2257 217.959 78.9201 219.882 78.4439C221.094 78.3367 222.311 78.5861 223.384 79.1616C224.456 79.737 225.337 80.6134 225.919 81.6831C226.127 82.5253 226.141 83.4039 225.959 84.2523C225.778 85.1007 225.406 85.8967 224.871 86.5798C223.791 87.9016 222.894 89.3637 222.206 90.9263C221.654 92.6225 221.901 94.5083 221.482 96.2607C221.4 97.1394 221.043 97.9697 220.462 98.6334C219.881 99.2971 219.105 99.7604 218.245 99.9572C229.233 104.607 227.767 111.39 229.803 112.552C229.803 112.552 229.67 115.41 230.889 115.086C232.108 114.762 233.25 105.445 234.088 104.111C240.277 94.8886 242.542 89.4584 243.61 78.1012C244.657 67.7159 244.161 56.4555 238.583 47.9719C235.469 43.3518 231.074 39.7434 225.937 37.5906C220.997 35.5677 215.699 34.5631 210.361 34.637C201.118 34.316 192.001 36.8582 184.255 41.9164C182.676 42.9457 180.561 46.0318 180.771 47.2508C180.98 48.4698 181.189 49.6325 181.189 49.6325C182.161 48.4322 182.598 49.8607 182.922 50.0138C190.082 53.6688 197.546 52.187 205.353 54.225C206.021 54.3331 206.66 54.5744 207.232 54.9345C207.805 55.2946 208.299 55.7661 208.686 56.3212C209.219 57.2547 211.314 58.3601 211.314 59.4457C211.314 64.3998 209.295 69.4111 209.409 74.3622V82.8794C209.324 83.7218 209.324 84.5708 209.409 85.4132C209.676 86.4998 211.656 86.9374 211.941 86.3852C212.534 85.185 214.455 85.4132 214.817 84.937C215.255 83.8944 215.469 82.7714 215.446 81.6406" fill="#3D1911"/>
<path d="M182.466 49.0427C182.824 49.8601 183.442 50.5364 184.223 50.967C185.005 51.3975 185.906 51.5583 186.788 51.4244C187.833 51.3739 188.88 51.4379 189.911 51.615C190.591 51.7023 191.242 51.9435 191.815 52.3203C192.528 52.9464 193.429 53.3179 194.376 53.3765C195.323 53.4351 196.262 53.1776 197.047 52.6443C198.065 53.7207 199.401 54.4413 200.859 54.7001C202.379 54.8434 203.909 54.8434 205.429 54.7001C206.021 54.7001 206.667 54.3948 207.124 54.8334C207.43 55.0684 207.658 55.391 207.777 55.7585C207.896 56.126 207.901 56.5209 207.79 56.8911C207.79 56.8911 209.561 57.463 209.885 58.3007C210.209 59.1384 210.285 61.3878 209.542 62.1118C209.005 62.8074 208.699 63.6536 208.667 64.5321C208.383 65.8331 208.18 67.1504 208.058 68.4765C207.884 69.5683 207.769 70.6687 207.715 71.773C207.601 73.4306 209.22 76.6895 209.105 77.4896C209.277 78.6325 211.847 79.1284 209.277 83.0917C210.439 82.1769 210.324 80.4245 210.534 78.8805C210.648 77.3264 210.648 75.766 210.534 74.2119C210.534 67.2763 212.438 60.0166 210.058 53.5571C209.823 52.7694 209.39 52.0551 208.801 51.4826C208.29 51.0891 207.708 50.798 207.087 50.6252C201.335 48.3779 194.88 46.3745 189.054 48.6989C187.74 49.4625 186.263 49.9004 184.746 49.9762" fill="#3D1911"/>
<path d="M218.853 87.8373C218.791 87.7604 218.713 87.6983 218.624 87.6554C218.535 87.6125 218.438 87.59 218.339 87.5894H217.691L218.263 87.8946C218.432 87.9877 218.567 88.1318 218.649 88.3064C218.731 88.481 218.756 88.6771 218.72 88.8666C218.72 89.2854 218.415 90.1429 217.978 90.296L217.484 90.4866L217.998 90.62H218.113C218.322 90.62 219.027 90.5054 219.16 88.9812C219.182 88.5775 219.076 88.1772 218.855 87.8383" fill="#3D1911"/>
<path d="M223.251 82.1375C223.251 82.1375 217.315 81.1684 217.315 86.6559C217.315 86.6559 217.201 87.3987 217.715 87.6279C217.715 87.6279 217.41 84.5221 219.124 83.5313C220.36 82.7228 221.783 82.244 223.256 82.1405" fill="#3D1911"/>
<path d="M181.437 104.777C180.87 105.031 180.259 105.17 179.638 105.187C179.017 105.204 178.399 105.098 177.819 104.876C177.435 104.731 177.07 104.539 176.733 104.304C176.2 103.998 175.667 103.656 175.134 103.332C174.595 102.968 174.029 102.647 173.44 102.371C172.743 102.094 172 101.952 171.251 101.953C170.927 101.924 170.602 101.924 170.279 101.953C169.517 101.953 169.498 102.905 169.537 103.573C169.537 103.906 169.606 104.236 169.741 104.541C169.875 104.846 170.072 105.12 170.318 105.345C170.517 105.489 170.735 105.604 170.965 105.688C172.316 106.057 173.726 106.161 175.116 105.993C176.278 105.631 178.658 106.241 180.391 105.707C180.391 105.707 181.686 104.545 181.378 104.72" fill="#632212"/>
<path d="M187.396 100.508C187.75 102.134 187.973 103.786 188.062 105.448C188.434 103.757 188.198 101.989 187.396 100.455" fill="#632212"/>
<path d="M221.233 46.9652C221.114 46.291 220.739 45.6891 220.186 45.2859C219.614 44.8285 219.481 44.8285 218.548 44.8858C219.17 45.0416 219.741 45.3569 220.205 45.8005C220.577 46.1606 220.921 46.5493 221.233 46.9632" fill="#6C2D14"/>
<path d="M221.14 46.9465C221.119 46.4795 220.937 46.0343 220.624 45.6868C220.312 45.3393 219.888 45.111 219.427 45.0409C218.57 44.7742 218.475 44.7356 219.103 45.0409C219.275 45.1555 219.484 45.2128 219.655 45.3264C220.296 45.7681 220.851 46.3235 221.292 46.9652H221.159C220.535 46.0104 219.609 45.2922 218.529 44.9253C218.529 44.9253 218.415 44.8107 218.529 44.8107C219.179 44.748 219.828 44.9329 220.347 45.3285C220.866 45.7241 221.217 46.3013 221.329 46.9445H221.157" fill="#6C2D14"/>
<path d="M219.52 70.9886C219.438 70.3793 219.132 69.8223 218.663 69.4259C218.187 68.9873 218.071 68.9685 217.197 68.9685C217.751 69.1421 218.25 69.4574 218.644 69.8832C218.963 70.2291 219.256 70.5986 219.52 70.9886" fill="#6C2D14"/>
<path d="M219.425 70.9748C218.986 69.4121 217.768 69.987 217.368 69.0693C217.368 68.8974 218.454 69.7173 218.207 69.5079C218.742 69.9599 219.21 70.4861 219.596 71.0706H219.425C218.925 70.1963 218.138 69.5228 217.197 69.1651C217.197 69.1651 217.063 69.0663 217.197 69.0663C217.791 69.0477 218.371 69.2526 218.822 69.6406C219.273 70.0286 219.563 70.5715 219.634 71.1625H219.462" fill="#6C2D14"/>
<path d="M229.44 97.8215C229.356 97.341 229.09 96.9114 228.698 96.6212C228.317 96.2971 228.222 96.2971 227.594 96.3544C228.024 96.4583 228.418 96.6756 228.736 96.9837C228.989 97.2468 229.225 97.5271 229.44 97.8225" fill="#6C2D14"/>
<path d="M229.365 97.8213C229.25 97.5359 227.022 95.6482 228.26 96.6024C228.736 96.9671 229.164 97.3895 229.536 97.8598H229.364L227.593 96.4305C228.047 96.3808 228.503 96.5133 228.86 96.799C229.217 97.0847 229.446 97.5002 229.497 97.9547H229.326" fill="#6C2D14"/>
<path d="M202.003 49.0417C201.717 48.8753 201.397 48.7752 201.068 48.7489C200.738 48.7226 200.407 48.7706 200.098 48.8895C199.432 49.099 199.356 49.2136 198.803 50.075C199.269 49.6419 199.84 49.3382 200.46 49.1938C200.948 49.0979 201.443 49.047 201.94 49.0417" fill="#6C2D14"/>
<path d="M201.983 49.099L199.279 49.5929C198.84 49.9357 198.785 49.993 199.088 49.7836C199.318 49.6188 199.56 49.4721 199.812 49.345C200.51 49.0757 201.254 48.9461 202.001 48.9637C202.001 48.9637 202.153 49.097 202.001 49.097C200.882 49.1113 199.798 49.4938 198.916 50.1856C198.916 50.1856 198.726 50.1856 198.783 50.0868C198.928 49.8063 199.127 49.5571 199.368 49.3535C199.609 49.1499 199.888 48.9958 200.188 48.9002C200.489 48.8046 200.806 48.7693 201.12 48.7963C201.434 48.8233 201.74 48.912 202.02 49.0575V49.1721" fill="#6C2D14"/>
<path d="M215.692 48.0133C215.163 47.193 214.419 46.5339 213.54 46.1078C212.893 45.8223 212.76 45.8599 211.862 46.1078C212.522 46.0664 213.18 46.2047 213.766 46.5079C214.467 46.9432 215.141 47.4202 215.784 47.9363" fill="#6C2D14"/>
<path d="M215.596 48.0134C215.237 47.3844 214.705 46.8711 214.065 46.5335C213.424 46.196 212.7 46.0483 211.979 46.1078H212.414C212.742 46.1418 213.063 46.2254 213.366 46.3557C214.222 46.7639 215.016 47.2899 215.727 47.9185V47.9185C214.718 46.8781 213.365 46.2411 211.92 46.1265C211.92 46.1265 211.73 46.1265 211.92 46.1265C213.577 45.5743 214.853 46.5078 215.881 48.0321H215.711" fill="#6C2D14"/>
<path d="M201.107 41.0391C200.918 40.9143 200.7 40.8384 200.474 40.8184C200.248 40.7984 200.021 40.8349 199.812 40.9245C199.279 41.0767 199.203 41.1527 198.67 41.8393C199.06 41.5064 199.523 41.2714 200.022 41.1537C200.379 41.0821 200.743 41.0438 201.107 41.0391Z" fill="#6C2D14"/>
<path d="M201.069 41.0589C200.269 40.7735 199.87 41.0589 199.165 41.3642C198.841 41.4788 198.308 41.5924 199.165 41.3642C199.749 41.1867 200.348 41.0653 200.956 41.0016H201.07C200.212 41.0602 199.382 41.3285 198.651 41.783H198.499C198.737 41.3493 199.135 41.0252 199.607 40.8794C200.08 40.7335 200.591 40.7774 201.032 41.0016C201.165 41.0016 201.032 41.0016 201.032 41.0016" fill="#6C2D14"/>
<path d="M229.765 71.5072C229.563 71.1078 229.215 70.801 228.794 70.6498C228.355 70.4779 228.26 70.5165 227.651 70.7486C228.077 70.7149 228.504 70.7936 228.889 70.9768C229.195 71.1305 229.488 71.3089 229.765 71.5102" fill="#6C2D14"/>
<path d="M229.688 71.5072C229.554 71.2978 226.736 70.0777 228.602 70.8404C229.035 71.0097 229.444 71.2338 229.82 71.5072H229.687L227.782 70.7643H227.668C228.073 70.5844 228.533 70.5671 228.951 70.716C229.369 70.8649 229.714 71.1686 229.915 71.5645H229.763" fill="#6C2D14"/>
<path d="M231.364 103.995C231.534 103.554 231.534 103.065 231.364 102.623C231.23 102.129 231.154 102.071 230.622 101.671C230.904 102.035 231.099 102.459 231.193 102.91C231.254 103.269 231.293 103.632 231.307 103.996" fill="#6C2D14"/>
<path d="M231.268 103.977C231.268 103.977 230.983 100.68 231.116 102.281C231.116 102.853 231.401 103.423 231.44 104.014H231.268C231.3 103.194 231.066 102.385 230.602 101.709H230.754C231.124 101.957 231.396 102.328 231.521 102.756C231.646 103.185 231.617 103.644 231.439 104.053H231.267" fill="#6C2D14"/>
<path d="M240.807 71.6218C240.931 71.1696 240.883 70.6878 240.674 70.2685C240.465 69.7923 240.369 69.7538 239.799 69.4683C240.126 69.7723 240.375 70.1518 240.522 70.5737C240.647 70.9143 240.742 71.265 240.807 71.6218" fill="#6C2D14"/>
<path d="M240.732 71.603C239.745 69.5453 239.609 68.9921 240.294 69.9454C240.37 70.0426 240.428 70.1522 240.466 70.2694C240.655 70.7119 240.802 71.1713 240.904 71.6415H240.732C240.57 70.8659 240.224 70.1406 239.723 69.5265C239.723 69.5265 239.723 69.4277 239.822 69.5265C240.239 69.7073 240.578 70.0314 240.777 70.4403C240.976 70.8492 241.023 71.3159 240.908 71.7561H240.736" fill="#6C2D14"/>
<path d="M235.99 91.591C236.041 91.1255 235.919 90.6574 235.647 90.2762C235.362 89.8573 235.286 89.8188 234.676 89.6469C235.043 89.8943 235.344 90.2281 235.552 90.6189C235.721 90.9318 235.868 91.2567 235.99 91.591" fill="#6C2D14"/>
<path d="M235.99 91.5713C235.805 91.0539 235.583 90.5507 235.324 90.0658C235.651 90.5525 235.932 91.0692 236.162 91.6089H235.99C235.786 90.8458 235.329 90.1743 234.695 89.7033V89.7033C235.647 90.0086 235.99 90.5608 236.085 91.7235H235.913" fill="#6C2D14"/>
<path d="M230.545 51.043C230.577 50.8641 230.568 50.6803 230.519 50.5054C230.469 50.3305 230.381 50.1691 230.26 50.0334C230.032 49.6719 229.955 49.6334 229.385 49.4042C229.734 49.5994 230.039 49.8656 230.28 50.1856C230.418 50.4439 230.539 50.7112 230.642 50.9857" fill="#6C2D14"/>
<path d="M230.45 51.0243C230.45 50.719 229.364 48.6613 229.916 49.7855C230.145 50.2241 230.45 50.5857 230.64 51.0431H230.45C230.257 50.4128 229.87 49.8596 229.345 49.4625V49.4625C229.705 49.5679 230.02 49.7901 230.241 50.094C230.461 50.3979 230.574 50.7665 230.563 51.1418H230.373" fill="#6C2D14"/>
<path d="M240.77 83.5302C240.776 83.353 240.742 83.1767 240.669 83.0149C240.597 82.8531 240.488 82.7101 240.352 82.5967C240.067 82.2727 239.99 82.254 239.4 82.1206C239.749 82.2834 240.056 82.5248 240.296 82.8259C240.473 83.0478 240.632 83.2836 240.771 83.5312" fill="#6C2D14"/>
<path d="M240.695 83.5303C240.885 84.5398 238.79 81.206 239.971 82.4249C240.314 82.7499 240.609 83.1221 240.847 83.5303H240.695C240.39 82.96 239.933 82.4851 239.376 82.1582C239.261 82.1582 239.376 82.0594 239.376 82.1582C239.748 82.2 240.095 82.3685 240.359 82.6355C240.622 82.9025 240.786 83.2518 240.823 83.6251H240.659" fill="#6C2D14"/>
<path d="M226.679 41.6299C226.713 41.4622 226.712 41.2892 226.676 41.1219C226.64 40.9546 226.57 40.7966 226.47 40.6578C226.242 40.3151 226.165 40.2765 225.594 40.0483C225.915 40.2707 226.187 40.5561 226.394 40.887C226.534 41.1418 226.649 41.4098 226.736 41.6872" fill="#6C2D14"/>
<path d="M226.604 41.6111C225.518 40.0483 225.328 39.7056 226.052 40.3536C226.124 40.4175 226.182 40.4951 226.224 40.5818C226.437 40.9081 226.622 41.2525 226.776 41.6111H226.604C226.348 41.0032 225.965 40.4573 225.48 40.0108V40.0108C225.837 40.125 226.147 40.3517 226.364 40.6572C226.582 40.9626 226.694 41.3302 226.685 41.705H226.513" fill="#6C2D14"/>
<path d="M190.635 41.1153C190.371 40.903 190.062 40.7547 189.732 40.6821C189.401 40.6094 189.058 40.6143 188.73 40.6964C188.025 40.7952 187.931 40.9059 187.283 41.6685C187.812 41.3143 188.42 41.0983 189.054 41.0402C189.547 40.9982 190.042 40.9982 190.535 41.0402" fill="#6C2D14"/>
<path d="M190.597 41.1725C190.303 40.9472 189.956 40.8009 189.589 40.7477C189.222 40.6944 188.848 40.7359 188.502 40.8682C188.084 40.9583 187.709 41.1866 187.436 41.5162C187.321 41.5162 188.654 41.0401 188.388 41.1162C189.122 40.9636 189.881 40.9636 190.616 41.1162C190.616 41.1162 190.749 41.2495 190.616 41.2308C189.52 41.0075 188.38 41.1975 187.416 41.7642H187.283C187.657 41.2499 188.218 40.9037 188.846 40.8003C189.473 40.697 190.115 40.8449 190.634 41.212C190.749 41.212 190.634 41.3641 190.634 41.3266" fill="#6C2D14"/>
<path d="M188.993 46.089C188.685 46.0102 188.363 46 188.051 46.0592C187.738 46.1184 187.442 46.2456 187.184 46.4318C186.556 46.7934 186.499 46.9258 186.156 47.8988C186.526 47.3579 187.026 46.919 187.611 46.6225C188.059 46.4071 188.524 46.2287 189.001 46.089" fill="#6C2D14"/>
<path d="M189.015 46.1463C188.478 46.0928 187.938 46.1956 187.458 46.4423C186.978 46.6891 186.58 47.0693 186.311 47.5372C186.006 48.0706 186.805 47.0433 186.904 46.985C187.511 46.5486 188.196 46.2319 188.922 46.0515H189.074C187.936 46.338 186.932 47.0112 186.235 47.9561H186.063C186.214 47.322 186.602 46.7702 187.148 46.4153C187.695 46.0604 188.356 45.9298 188.996 46.0505C188.996 46.0505 189.13 46.0505 188.996 46.0505" fill="#6C2D14"/>
<path d="M232.183 78.3292C232.211 77.6289 231.965 76.9451 231.498 76.4236C231.041 75.8309 230.905 75.7944 229.975 75.6235C230.561 75.9231 231.059 76.3696 231.422 76.9195C231.712 77.362 231.967 77.8271 232.184 78.3104" fill="#6C2D14"/>
<path d="M232.182 78.3105C232.217 77.8378 232.074 77.369 231.782 76.9957C231.672 76.6571 231.469 76.3561 231.196 76.1271C230.924 75.898 230.592 75.7499 230.24 75.6997C230.125 75.4715 231.425 76.6875 231.078 76.3477C231.602 76.9106 232.033 77.554 232.354 78.2533H232.182C231.755 77.1579 230.988 76.2292 229.992 75.6049V75.6049C230.644 75.6984 231.24 76.0271 231.667 76.5291C232.094 77.0312 232.324 77.672 232.312 78.3313H232.14" fill="#6C2D14"/>
<path d="M240.504 58.7225C240.531 58.0225 240.285 57.3395 239.819 56.817C239.362 56.2243 239.227 56.1877 238.296 56.0168C238.875 56.3264 239.371 56.771 239.743 57.3129C240.034 57.7553 240.289 58.2205 240.505 58.7038" fill="#6C2D14"/>
<path d="M240.428 58.7028C240.445 58.0043 240.2 57.3247 239.742 56.7972L238.464 56.0534C238.686 56.1804 238.897 56.3272 239.093 56.492C239.701 57.1377 240.201 57.8776 240.574 58.683H240.422C240.015 57.5863 239.249 56.6595 238.25 56.0534V56.0534C238.904 56.1384 239.503 56.4649 239.929 56.9689C240.356 57.4729 240.578 58.118 240.554 58.7778H240.402" fill="#6C2D14"/>
<path d="M222.662 59.0653C222.527 58.7631 222.325 58.496 222.071 58.2846C221.817 58.0732 221.517 57.9232 221.196 57.8463C220.396 57.6369 220.396 57.6369 219.501 58.0182C220.062 57.7873 220.692 57.7873 221.253 58.0182C221.763 58.2854 222.236 58.6174 222.662 59.006" fill="#6C2D14"/>
<path d="M222.548 59.0466C221.939 58.1506 218.303 57.713 219.958 57.8612H220.587C221.39 58.0477 222.123 58.4589 222.701 59.0466H222.568C222.194 58.6364 221.72 58.3298 221.193 58.1567C220.666 57.9836 220.103 57.9499 219.559 58.0588H219.425C219.711 57.9109 220.024 57.8212 220.345 57.7948C220.665 57.7684 220.988 57.8059 221.295 57.9051C221.601 58.0043 221.885 58.1633 222.129 58.3727C222.374 58.5822 222.574 58.8381 222.72 59.1257H222.548" fill="#6C2D14"/>
<path d="M216.549 59.7124C216.361 59.2727 216.014 58.9201 215.578 58.7245C215.121 58.4963 215.045 58.5151 214.436 58.7245C214.873 58.7211 215.301 58.8398 215.674 59.0673C215.981 59.2621 216.273 59.4787 216.549 59.7153" fill="#6C2D14"/>
<path d="M216.454 59.7134C216.454 59.7134 213.522 58.1674 215.103 58.7601C215.648 58.9793 216.15 59.2956 216.583 59.6936V59.6936C216.017 59.1838 215.316 58.8465 214.565 58.7216C214.565 58.7216 214.374 58.7216 214.565 58.6228C215 58.499 215.466 58.5346 215.878 58.7232C216.289 58.9119 216.62 59.2412 216.811 59.6522H216.64" fill="#6C2D14"/>
<path d="M240.294 53.4821C240.228 52.9935 239.975 52.5494 239.589 52.2433C239.208 51.9193 239.113 51.9193 238.484 51.938C238.915 52.0573 239.304 52.2948 239.608 52.6236C239.856 52.8931 240.085 53.1797 240.293 53.4811" fill="#6C2D14"/>
<path d="M240.217 53.4633C240.217 53.1778 237.946 51.1912 239.151 52.2057C239.615 52.585 240.031 53.0204 240.389 53.5018H240.217C239.831 52.8268 239.227 52.304 238.503 52.02C239.532 52.02 240.083 52.4774 240.408 53.6006H240.232" fill="#6C2D14"/>
<path d="M216.949 168C222.487 167.875 227.873 166.164 232.469 163.071C237.066 159.978 240.68 155.631 242.884 150.546C243.683 148.64 244.579 146.277 246.483 145.858C247.429 145.727 248.392 145.866 249.263 146.258C258.345 149.364 267.733 152.642 274.929 159.483C287.649 171.62 290.638 191.875 291 210.377L259.677 222.648C258.769 241.186 259.348 259.767 261.41 278.212C263.314 296.733 266.379 315.082 269.731 333.355C270.569 337.928 271.444 342.501 272.32 347.055L273.615 353.896C273.9 355.306 274.51 357.098 273.197 358.107C271.883 359.117 269.56 358.641 268.094 358.66C265.962 358.66 263.81 358.66 261.658 358.758H248.787C231.61 358.606 214.473 357.805 197.376 356.358C194.462 356.091 191.551 355.843 188.635 355.539C180.237 354.987 171.93 353.466 163.881 351.004C162.657 350.761 161.504 350.239 160.514 349.479C159.523 348.719 158.72 347.741 158.168 346.621C157.783 345.212 157.698 343.738 157.921 342.295C161.581 302.383 162.115 262.246 159.52 222.251L142.821 216.533C141.875 216.316 141.038 215.769 140.46 214.99C140.07 214.158 139.925 213.233 140.041 212.322C140.399 202.997 141.675 193.73 143.85 184.655C145.887 176.138 148.876 167.621 154.38 161.199C162.243 152.052 173.993 148.565 185.113 145.498C190.673 157.154 201.184 166.229 213.141 167.773C214.403 167.947 215.677 168.023 216.95 168.001" fill="#681319"/>
<g clip-path="url(#clip1_215_194)">
<path d="M36.1397 228.634L30.198 229.342C28.8817 229.548 27.6124 229.986 26.4493 230.636C21.595 233.17 13.892 240.629 14.8659 262.315C16.2714 293.729 21.2576 307.149 19.2518 319.594C17.2459 332.04 9.59899 350.896 20.6197 397.997C20.6197 397.997 23.0564 423.507 17.4706 437.583C16.1883 440.295 15.3406 443.192 14.9587 446.167C14.9587 449.297 16.2522 449.357 16.8327 454.715C17.2452 458.463 16.8327 462.699 19.6068 467.066C20.7501 468.941 22.3434 473.587 24.8177 475.426C26.9171 477 28.8102 475.275 30.4404 476.1C35.2948 478.537 38.0505 477.974 39.4 476.1C41.274 473.795 34.0771 472.445 32.4278 471.171C32.4278 471.171 39.1569 474.132 40.5787 471.677C42.0005 469.222 33.6809 465.941 32.4278 464.423C30.0975 460.55 28.8906 456.105 28.9421 451.585C29.3805 448.292 30.1916 445.06 31.3597 441.95C31.3597 441.95 33.4399 447.91 32.6716 450.778C31.9033 453.646 31.7722 464.479 37.4913 463.786L38.9343 463.617C39.1222 461.748 39.1222 459.864 38.9343 457.995C38.6721 454.246 39.7962 445.006 39.5155 442.625C39.2349 440.244 37.4728 425.943 34.6796 420.414C31.8863 414.885 32.9551 381.635 38.4283 368.72C43.9014 355.806 40.3023 332.452 40.5836 329.509C40.865 326.567 42.2875 313.729 41.7467 308.892C41.4469 306.193 42.0303 281.508 41.634 260.16" fill="#883A20"/>
<path d="M50.5465 205.297C42.5714 207.916 25.9804 209.959 21.9769 217.016C16.6042 226.38 13.7774 237.425 12.1108 249.987C18.0272 253.9 30.1963 261.089 36.1106 264.965C43.4117 269.779 39.462 280.672 40.3788 288.964C41.5958 300.104 46.4637 311.168 44.4411 322.289C42.3816 333.709 38.0383 344.325 34.444 355.389C26.9567 378.604 27.2753 404.067 27.2002 428.05C27.2002 454.728 26.3953 481.388 25.4218 508.029C24.8038 525.253 23.9054 633.932 22.8732 651.531C22.355 660.088 22.3889 668.867 21.2095 677.366C20.086 685.473 15.5933 692.737 14.6963 700.862C14.4104 702.551 14.5653 704.286 15.1458 705.898C16.6248 709.418 20.9681 710.86 24.825 711.889C47.2913 717.936 69.7569 725.949 93.2901 726.867C118.621 727.896 143.838 722.823 168.177 716.7C170.292 716.359 172.291 715.504 173.999 714.21C177.744 710.803 175.871 704.962 173.456 700.675C167.259 689.592 168.401 676 167.503 663.79C166.455 649.837 165.15 635.914 163.59 622.021C159.846 587.554 160.67 552.751 157.431 518.322C154.931 492.114 152.471 465.954 150.053 439.843C147.769 415.505 147.45 390.417 142.002 366.435C139.662 356.082 135.581 346.103 133.484 335.694C129.627 316.766 132.417 282.674 135.225 263.559L162.877 252.963C162.877 252.963 158.964 228.063 152.449 218.085C148.536 212.093 136.048 209.474 125.15 208.144C125.15 208.144 104.053 231.808 82.5581 229.824C61.0632 227.839 50.5444 205.258 50.5444 205.258" fill="#681319"/>
<path d="M43.4998 304.18H108.802C108.802 304.18 109.674 273.443 108.294 257.463C106.679 238.771 40.2891 270.953 40.2891 270.953C41.1262 275.478 40.2891 280.997 40.2891 287.647C40.2891 294.298 41.9491 297.722 43.4998 304.18Z" fill="#3D1911"/>
<path d="M94.7109 286.682V267.123C94.7127 267.068 94.7256 267.014 94.7488 266.965C94.772 266.915 94.805 266.87 94.8459 266.834C94.8839 266.79 94.9314 266.754 94.9849 266.731C95.0384 266.708 95.0966 266.697 95.1549 266.699H124.555C124.664 266.708 124.767 266.755 124.845 266.833C124.923 266.911 124.97 267.013 124.979 267.123V286.682C124.98 286.74 124.968 286.798 124.945 286.851C124.922 286.904 124.887 286.952 124.844 286.991C124.806 287.029 124.761 287.059 124.712 287.079C124.662 287.099 124.609 287.109 124.555 287.107H95.1549C95.0409 287.109 94.9302 287.068 94.8459 286.991C94.7665 286.907 94.7188 286.797 94.7109 286.682V286.682Z" fill="#3D1911"/>
<path d="M137.163 228.634L143.105 229.342C144.421 229.548 145.691 229.986 146.854 230.636C151.708 233.166 159.412 240.629 158.437 262.312C157.032 293.726 152.045 307.146 154.051 319.592C156.057 332.037 163.702 350.896 152.683 397.997C152.683 397.997 150.246 423.507 155.832 437.583C157.146 440.29 158.026 443.187 158.437 446.167C158.437 449.297 157.144 449.357 156.563 454.715C156.151 458.463 156.563 462.699 153.789 467.066C152.646 468.941 151.053 473.587 148.578 475.426C146.479 477 144.586 475.275 142.955 476.1C138.101 478.537 135.345 477.974 133.996 476.1C132.122 473.795 139.319 472.445 140.968 471.171C140.968 471.171 134.239 474.132 132.817 471.677C131.395 469.222 139.715 465.941 140.968 464.423C143.299 460.55 144.506 456.105 144.455 451.585C144.037 448.308 143.251 445.088 142.111 441.988C142.111 441.988 140.031 447.949 140.799 450.816C141.568 453.684 141.568 464.48 135.945 463.787L134.502 463.618C134.314 461.749 134.314 459.865 134.502 457.995C134.764 454.247 133.64 445.006 133.921 442.626C134.201 440.245 135.963 425.944 138.757 420.415C141.55 414.886 140.481 381.635 135.008 368.721C129.535 355.808 133.134 332.453 132.871 329.511C132.608 326.569 131.147 313.729 131.69 308.892C131.99 306.193 131.407 281.508 131.803 260.16" fill="#883A20"/>
<path d="M50.4971 200.838C53.2521 201.588 57.7322 197.952 60.5248 198.57C63.5062 199.014 66.5481 198.815 69.4468 197.988C73.3719 197.288 77.2154 196.189 80.9175 194.708C84.5769 193.26 87.6769 190.678 89.7644 187.342C92.4258 182.6 91.7702 176.79 90.0479 171.672C88.6772 167.339 86.3812 163.354 83.3188 159.995C80.1458 156.548 75.9804 154.17 71.398 153.191C68.6227 152.523 65.6995 152.882 63.1678 154.201C60.7268 155.998 58.9321 158.535 58.0512 161.436C57.454 162.777 57.0255 164.188 56.7754 165.634C56.6192 167.444 56.7074 169.266 57.0376 171.052C57.7241 176.17 58.0373 181.332 57.9746 186.496C58.2011 188.524 57.6742 190.566 56.494 192.231C55.7361 193.178 54.6785 193.839 53.4952 194.105L51.1335 193.768" fill="white"/>
<path d="M64.292 190.059C65.1538 186.311 65.5288 177.295 64.292 173.659C63.9991 172.52 63.2914 171.53 62.3074 170.885C60.8648 170.402 59.2935 170.475 57.9024 171.091C52.701 172.587 47.2595 173.065 41.8771 172.497C40.1177 172.401 38.4018 171.914 36.854 171.072C36.0936 170.669 35.4568 170.067 35.0112 169.331C34.5657 168.594 34.3281 167.751 34.3237 166.89C34.474 165.016 36.029 162.729 34.6235 161.433C34.2627 161.131 33.8806 160.855 33.4803 160.608C33.1224 160.371 32.8329 160.044 32.6407 159.66C32.4486 159.276 32.3604 158.849 32.3851 158.42C32.4098 157.991 32.5464 157.577 32.7813 157.217C33.0163 156.858 33.3413 156.567 33.7241 156.372C33.0553 156.077 32.481 155.602 32.0645 155.002C31.6479 154.401 31.4053 153.697 31.3632 152.967C31.3284 152.693 31.4025 152.417 31.5694 152.198C32.4263 151.018 34.0218 148.45 33.4406 147.474C33.0656 146.912 32.2782 146.818 31.6977 146.462C31.2197 146.081 30.8853 145.549 30.749 144.953C30.6128 144.357 30.6829 143.733 30.9478 143.182C31.4857 142.083 32.1871 141.072 33.0281 140.183C35.2608 136.837 36.5553 132.954 36.7768 128.937C36.9889 124.928 37.5534 120.946 38.4636 117.035C41.0152 108.545 48.3602 102.247 55.9136 97.2607C66.7663 90.0454 80.7114 88.0587 93.55 90.4955C100.41 91.8074 120.091 97.7306 120.578 119.66C120.746 127.644 116.36 134.992 111.524 141.477C106.689 147.963 102.846 150.849 101.028 158.552C100.022 163.468 100.124 168.545 101.328 173.416C104.046 185.618 111.109 196.47 118.722 206.536C122.165 210.594 125.017 215.118 127.194 219.975C129.068 224.922 129.274 230.79 126.238 235.176C121.665 241.867 90.2698 236.244 78.3866 231.145C72.5952 228.746 66.616 226.872 61.0678 223.929C56.886 221.774 49.4659 218.025 49.1094 213.452C48.9223 211.128 59.5283 199.038 64.2913 190.062" fill="#883A20"/>
<path d="M40.0945 155.984C39.5604 155.275 38.9291 154.644 38.2191 154.11C37.4646 153.315 36.56 152.678 35.5577 152.236C31.9592 151.411 31.5092 152.086 31.3589 152.386C31.2779 153.056 31.3879 153.735 31.6764 154.346C31.9648 154.956 32.4199 155.472 32.9891 155.835C33.1782 155.976 33.3865 156.09 33.6078 156.172C33.1765 156.416 32.8241 156.778 32.5925 157.215C32.3609 157.653 32.2597 158.148 32.3012 158.641C32.3426 159.135 32.5248 159.606 32.8262 159.999C33.1275 160.392 33.5354 160.69 34.0012 160.858C35.3451 160.247 36.605 159.466 37.7499 158.534C38.6131 157.811 39.3926 156.994 40.074 156.097V156.097" fill="#3E1910"/>
<path d="M34.0776 160.97C34.0776 160.97 41.575 158.458 44.4966 155.141C44.4966 155.141 42.6226 156.79 38.7421 154.56" fill="#3E1910"/>
<path d="M37.9017 146.163C37.6429 145.981 37.3497 145.853 37.0398 145.788C36.5617 145.713 36.0749 145.713 35.5968 145.788C35.3929 145.812 35.1989 145.889 35.0347 146.013C34.9962 146.036 34.9627 146.066 34.9361 146.102C34.9095 146.139 34.8905 146.18 34.88 146.223C34.8695 146.267 34.8678 146.312 34.875 146.356C34.8822 146.401 34.8982 146.443 34.922 146.481C34.9834 146.574 35.0768 146.64 35.1843 146.668C35.7279 146.837 36.3091 146.537 36.8896 146.537C37.5556 146.612 38.1961 146.837 38.7636 147.194C38.7636 147.194 38.7636 146.706 37.8266 146.125" fill="#3E1910"/>
<path d="M43.7869 120.3C47.0063 120.063 50.2387 120.063 53.4581 120.3C54.2201 120.336 54.9723 120.487 55.6886 120.75C58.2615 122.146 60.2936 124.363 61.4615 127.047C60.6294 126.203 59.7541 125.402 58.839 124.648C55.0904 121.987 49.4677 122.868 44.9691 123.372C44.2192 123.372 43.2071 120.523 43.7883 120.28" fill="#3E1910"/>
<path d="M38.8579 148.374C38.8579 148.374 40.7319 148.956 41.5385 148.15C42.832 146.931 41.5385 144.701 40.5639 144.12C43.8058 148.843 38.8579 148.374 38.8579 148.374Z" stroke="#3E1910" stroke-width="0.2" stroke-miterlimit="10"/>
<path d="M49.5601 130.587C49.8151 131.707 49.7502 132.876 49.373 133.961C48.9045 135.198 47.611 136.622 46.1835 136.416C44.756 136.21 43.7283 133.755 45.2274 130.604C46.652 130.276 48.1326 130.276 49.5573 130.604" fill="#3E1910"/>
<path d="M49.4286 130.475C51.6234 130.891 53.6083 132.049 55.0499 133.755C55.5559 134.149 55.9868 134.28 56.4929 133.868C55.9999 133.708 55.5687 133.399 55.2582 132.983C54.5613 132.088 53.6873 131.347 52.6909 130.805C51.6944 130.263 50.5968 129.933 49.4669 129.834C47.1612 129.591 44.8372 130.303 43.4692 129.684C44.6678 131.282 45.9988 130.081 49.4286 130.475Z" stroke="#3E1910" stroke-width="0.8" stroke-miterlimit="10"/>
<path d="M86.897 140.015C86.8164 139.934 86.7198 139.87 86.6133 139.828C86.5067 139.786 86.3926 139.767 86.2782 139.771H85.5099L86.2031 140.09C86.3936 140.168 86.5515 140.31 86.6505 140.49C86.7494 140.671 86.7834 140.88 86.7467 141.083C86.7324 141.388 86.6428 141.685 86.4859 141.947C86.3289 142.209 86.1095 142.428 85.8473 142.585L85.2285 142.772L85.8848 142.903H85.9975C86.2598 142.903 87.1223 142.791 87.291 141.198C87.3079 140.77 87.1681 140.35 86.8977 140.017" fill="#3E1910"/>
<path d="M92.2942 134.13C92.2942 134.13 85.1321 133.154 85.1321 138.778C85.1321 138.778 84.9818 139.566 85.6197 139.79C85.6197 139.79 85.2448 136.567 87.3066 135.538C88.8443 134.704 90.5461 134.218 92.2921 134.113" fill="#3E1910"/>
<g style="mix-blend-mode:multiply" opacity="0.72">
<path d="M50.3286 150.399C50.709 151.281 50.9796 152.206 51.1345 153.154C51.2775 152.665 51.2776 152.146 51.1348 151.658C50.992 151.17 50.7122 150.733 50.3286 150.399" fill="#9B4325"/>
</g>
<path d="M128.057 103.559C129.125 100.767 116.81 108.152 115.592 105.433C114.374 102.715 114.561 102.457 111.45 102.753C113.137 101.516 108.414 84.0095 105.677 85.303C105.677 82.3042 80.2237 79.6803 79.0804 86.3151L78.4992 86.7836C73.7448 86.9072 69.0658 88.0018 64.7499 90.0002C60.434 91.9985 56.5724 94.8583 53.4023 98.4039C63.0735 102.359 66.3537 103.521 71.9013 111.037C77.1682 118.159 75.516 120.033 78.2178 128.337C78.9266 130.586 80.0918 133.227 82.6597 133.511C84.1557 133.493 85.6191 133.072 86.896 132.292C89.7637 130.946 94 130.53 95.4615 133.214C96.5296 135.088 95.4615 137.487 94.0369 139.211C92.4371 140.728 91.2336 142.613 90.532 144.703C90.2882 146.071 90.6447 147.458 90.532 148.827C90.4193 150.195 89.3328 151.657 87.889 151.601C89.763 156.98 92.9121 179.959 98.0854 182.808C107.457 188.019 107.27 207.587 110.231 206.068C110.861 205.675 111.534 205.354 112.237 205.112C113.207 204.981 114.19 204.981 115.16 205.112C116.379 205.105 117.577 204.801 118.652 204.226C119.726 203.651 120.644 202.823 121.327 201.814C121.739 200.853 122.382 200.009 123.201 199.358C123.987 199.046 124.829 198.893 125.675 198.908C130.773 198.496 135.046 165.454 134.522 160.653C134.315 159.829 134.315 158.966 134.522 158.141C134.972 157.363 135.618 156.717 136.396 156.267C137.984 155.149 139.269 153.653 140.133 151.913C140.997 150.174 141.413 148.246 141.344 146.305C141.275 144.364 140.723 142.47 139.738 140.796C138.753 139.122 137.366 137.721 135.703 136.718C137.773 133.847 139.017 130.465 139.301 126.937C139.373 125.153 138.863 123.394 137.849 121.924C136.835 120.454 135.372 119.353 133.678 118.786C132.817 118.561 131.694 118.28 131.654 117.439C131.684 117.038 131.841 116.657 132.104 116.352C132.693 115.34 133.064 114.217 133.193 113.053C133.322 111.89 133.206 110.712 132.854 109.596C132.501 108.48 131.918 107.45 131.144 106.572C130.369 105.695 129.42 104.988 128.356 104.499" fill="#3E1910"/>
<path d="M38.8579 148.374C38.8579 148.374 40.7319 148.956 41.5385 148.15C42.832 146.931 41.5385 144.701 40.5639 144.12C43.7314 148.843 38.8586 148.372 38.8586 148.372" fill="#3E1910"/>
<path d="M49.4286 130.475C51.6234 130.891 53.6083 132.049 55.0499 133.755C55.5559 134.149 55.9868 134.28 56.4929 133.868C55.9999 133.708 55.5687 133.399 55.2582 132.983C54.5613 132.088 53.6873 131.347 52.6909 130.805C51.6944 130.263 50.5968 129.933 49.4669 129.834C47.1612 129.591 44.8372 130.303 43.4692 129.684C44.6125 131.202 45.9436 130.077 49.3733 130.472" fill="#3E1910"/>
<g style="mix-blend-mode:multiply">
<path d="M53.4023 151.523C53.8179 152.495 54.1075 153.515 54.2642 154.56C54.4284 154.024 54.4344 153.453 54.2815 152.914C54.1285 152.376 53.8233 151.893 53.4023 151.523Z" fill="#9B4325"/>
</g>
<path d="M87.1951 112.649C86.6707 111.768 84.796 107.83 83.9149 106.333C82.2168 103.51 80.339 100.799 78.293 98.2175" fill="#7F3316"/>
<path d="M78.7991 106.746C80.2371 108.11 81.357 109.774 82.0793 111.62C83.9453 115.581 85.5056 119.678 86.7465 123.877" fill="#7F3316"/>
<path d="M118.388 201.006C118.462 202.116 118.157 203.219 117.524 204.135C116.891 205.05 115.967 205.724 114.902 206.048C112.696 206.699 110.379 206.884 108.098 206.591L77.7311 204.717C73.7202 204.473 69.7277 204.211 65.7727 203.573C61.3117 202.843 53.983 195.777 53.2898 195.345C52.7391 195.068 52.1254 194.938 51.5094 194.97C46.093 194.802 40.3569 195.195 35.8966 198.082C32.7185 200.404 30.0999 203.407 28.2327 206.871C22.7922 215.583 18.1912 224.791 14.4917 234.372C13.8767 235.598 13.6604 236.986 13.873 238.341C14.3874 239.649 15.3061 240.759 16.4954 241.508C29.7097 251.63 47.5155 254.479 64.5154 255.172C81.5153 255.865 98.8341 254.818 115.309 258.49C123.389 260.364 131.148 263.175 139.226 264.94C147.303 266.704 156.094 267.208 163.723 264.302C167.809 262.765 171.689 260.029 173.094 256.074C174.968 250.451 171.014 244.321 165.597 241.416C164.854 241.113 164.206 240.614 163.723 239.973C163.37 239.102 163.324 238.137 163.592 237.237C164.342 232.417 161.83 226.459 156.694 225.841C154.82 225.597 152.402 226.066 151.071 224.698C149.741 223.33 150.472 221.118 150.584 219.225C150.903 213.714 145.279 209.74 140.312 206.854C133.077 202.673 124.38 197.483 115.946 198.589" fill="white"/>
<path d="M146.294 213.751C145.244 213.396 145.713 213.113 146.294 213.751V213.751ZM153.641 218.174C152.469 216.93 151.102 215.885 149.593 215.082L148.843 214.688C149.799 212.814 150.923 210.94 151.766 209.178C152.306 208.236 152.654 207.197 152.789 206.121C152.925 205.044 152.846 203.952 152.556 202.906C152.267 201.86 151.773 200.882 151.104 200.028C150.434 199.174 149.602 198.462 148.655 197.932C147.618 197.05 146.274 196.616 144.917 196.725C143.56 196.834 142.303 197.477 141.42 198.513C141.42 198.513 145.806 196.302 147.174 187.998C149.726 172.591 149.254 142.846 143.294 128.113C140.105 120.26 140.034 116.867 136.247 109.37C133.192 103.241 123.876 90.6266 117.054 88.2841C109.557 85.7913 105.302 82.9045 97.6928 80.9554C90.7015 79.0814 63.7299 87.2528 63.1118 90.852C63.1118 91.2453 64.9858 89.8597 68.3412 88.6966C69.6379 88.21 70.9928 87.895 72.3712 87.7596C73.4357 87.6182 74.518 87.7019 75.548 88.0054C76.578 88.309 77.5328 88.8255 78.3504 89.5216C99.6242 118.78 95.5941 140.653 97.4121 162.377C98.4242 174.598 93.3261 193.959 87.2909 197.461C81.6682 200.721 72.6902 201.21 66.9548 201.416C64.1341 201.48 61.3369 200.89 58.7827 199.692C56.5177 198.579 54.6472 196.8 53.4222 194.593C53.1457 194.266 52.7912 194.014 52.3917 193.86C51.9921 193.706 51.5602 193.656 51.1357 193.712C45.7186 193.544 37.078 193.975 32.5985 196.861C29.2623 199.017 24.9325 205.65 24.9325 205.65C19.947 204.451 17.9411 218.77 15.0926 226.53C14.1712 228.873 13.4241 231.14 12.787 233.146C12.1498 235.152 11.475 237.532 10.913 239.819C9.46619 245.513 8.83452 251.383 9.03685 257.254C9.73002 269.549 32.9536 270.543 42.1917 271.068C54.6632 271.797 67.1764 271.276 79.544 269.512C98.7935 266.738 119.093 262.502 135.436 252.005C142.878 247.186 151.313 240.665 155.061 232.681C156.331 230.412 156.87 227.807 156.605 225.221C156.34 222.635 155.284 220.193 153.58 218.229" fill="white"/>
<path d="M141.421 198.588C141.421 198.588 126.744 222.299 88.7144 228.015C88.7144 228.015 131.824 228.896 141.421 198.588Z" fill="#E3DEC9"/>
<path d="M115.312 258.491C115.312 258.491 88.5088 244.453 38.8579 243.01C38.8579 243.01 95.4809 253.037 115.33 258.491" fill="#E3DEC9"/>
<path d="M24.8556 209.291C24.8556 209.291 16.478 218.213 27.3115 229.405C25.5508 226.398 24.4246 223.062 24.0022 219.602C23.5799 216.143 23.8703 212.633 24.8556 209.291" fill="#E3DEC9"/>
<path d="M17.1712 244.546C17.1712 244.546 27.0862 260.309 59.4749 261.115C59.4749 261.115 17.4342 264.227 17.1152 244.546" fill="#E3DEC9"/>
<path d="M156.584 228.015C156.584 228.015 154.486 251.313 112.875 243.01C112.875 243.01 160.37 255.961 156.584 228.015" fill="#E3DEC9"/>
<path d="M46.3552 196.413C46.3552 196.413 34.4535 216.791 72.2771 211.408C72.2771 211.408 41.3506 214.764 46.3552 196.413" fill="#E3DEC9"/>
<path d="M107.57 201.212C107.57 201.212 127.12 185.77 121.328 148.581C121.328 148.581 134.26 184.905 107.607 201.212" fill="#E3DEC9"/>
</g>
</g>
<rect x="2" y="2" width="296" height="296" rx="148" stroke="#821A1A" stroke-width="4"/>
<defs>
<clipPath id="clip0_215_194">
<rect width="300" height="300" rx="150" fill="white"/>
</clipPath>
<clipPath id="clip1_215_194">
<rect width="167.311" height="646.32" fill="white" transform="translate(9 80.6799)"/>
</clipPath>
</defs>
</svg>
