<svg xmlns="http://www.w3.org/2000/svg" viewBox="0 0 317.07 317.36"><g id="Layer_2" data-name="Layer 2"><g id="Layer_1-2" data-name="Layer 1"><path d="M15.43,302.38H168.21c5.47,0,8.56,2.18,9.13,6.3a7.4,7.4,0,0,1-6.42,8.57,19.88,19.88,0,0,1-3,.1H.17c0-6.93-.42-13.63.07-20.27,4-54.51,31.09-94.64,77.3-122.44,9.67-5.81,20.18-10.27,30.42-15.09a7.13,7.13,0,0,1,5.45.26c30.09,15,60.08,15.11,90.13-.07,1.31-.66,3.23-1.24,4.45-.77,13.86,5.32,27.51,11.09,39.3,20.42,3.39,2.69,4.4,6.11,2.78,9.54a7.16,7.16,0,0,1-8,4.12,12,12,0,0,1-4.3-2.11,109.1,109.1,0,0,0-27.89-15,7.67,7.67,0,0,0-5.2,0c-30.85,13.31-61.63,13.45-92.46-.06a5.84,5.84,0,0,0-4.15-.18C77,189.36,50.62,208.7,33,238.42,21.79,257.35,16.37,278,15,299.87a10.57,10.57,0,0,0,0,1.49A5.11,5.11,0,0,0,15.43,302.38Z"/><path d="M15.43,302.38H168.21c5.47,0,8.56,2.18,9.13,6.3a7.4,7.4,0,0,1-6.42,8.57,19.88,19.88,0,0,1-3,.1H.17c0-6.93-.42-13.63.07-20.27,4-54.51,31.09-94.64,77.3-122.44,9.67-5.81,20.18-10.27,30.42-15.09a7.13,7.13,0,0,1,5.45.26c30.09,15,60.08,15.11,90.13-.07,1.31-.66,3.23-1.24,4.45-.77,13.86,5.32,27.51,11.09,39.3,20.42,3.39,2.69,4.4,6.11,2.78,9.54a7.16,7.16,0,0,1-8,4.12,12,12,0,0,1-4.3-2.11,109.1,109.1,0,0,0-27.89-15,7.67,7.67,0,0,0-5.2,0c-30.85,13.31-61.63,13.45-92.46-.06a5.84,5.84,0,0,0-4.15-.18C77,189.36,50.62,208.7,33,238.42,21.79,257.35,16.37,278,15,299.87a10.57,10.57,0,0,0,0,1.49A5.11,5.11,0,0,0,15.43,302.38Z"/><path d="M158.43,149.76a74.88,74.88,0,1,1,75-74.82A74.9,74.9,0,0,1,158.43,149.76ZM98.67,74.94a59.92,59.92,0,1,0,59.84-60A59.87,59.87,0,0,0,98.67,74.94Z"/><path d="M158.43,149.76a74.88,74.88,0,1,1,75-74.82A74.9,74.9,0,0,1,158.43,149.76ZM98.67,74.94a59.92,59.92,0,1,0,59.84-60A59.87,59.87,0,0,0,98.67,74.94Z"/><path d="M196.05,317.25c0-13.69-.29-26.91.21-40.1a15.74,15.74,0,0,1,4.4-9.49q32-32.52,64.56-64.52c9.19-9.08,22.63-8.9,31.9.07q6.74,6.49,13.22,13.23c8.85,9.2,9.08,22.5.1,31.6q-32.2,32.61-64.85,64.75c-2.24,2.2-5.8,4.16-8.82,4.27C223.35,317.51,209.9,317.25,196.05,317.25ZM211,302.37c7.9,0,15.35.05,22.79-.07a4.72,4.72,0,0,0,2.82-1.47q31.36-31.27,62.65-62.65c3.83-3.84,3.71-7.88-.1-11.81s-7.87-8-11.88-11.9-8.12-4-12.08-.06q-31.32,31.07-62.52,62.24a5.62,5.62,0,0,0-1.6,3.49C210.91,287.35,211,294.58,211,302.37Z"/><path d="M196.05,317.25c0-13.69-.29-26.91.21-40.1a15.74,15.74,0,0,1,4.4-9.49q32-32.52,64.56-64.52c9.19-9.08,22.63-8.9,31.9.07q6.74,6.49,13.22,13.23c8.85,9.2,9.08,22.5.1,31.6q-32.2,32.61-64.85,64.75c-2.24,2.2-5.8,4.16-8.82,4.27C223.35,317.51,209.9,317.25,196.05,317.25ZM211,302.37c7.9,0,15.35.05,22.79-.07a4.72,4.72,0,0,0,2.82-1.47q31.36-31.27,62.65-62.65c3.83-3.84,3.71-7.88-.1-11.81s-7.87-8-11.88-11.9-8.12-4-12.08-.06q-31.32,31.07-62.52,62.24a5.62,5.62,0,0,0-1.6,3.49C210.91,287.35,211,294.58,211,302.37Z"/></g></g></svg>