<svg xmlns="http://www.w3.org/2000/svg" viewBox="0 0 384 384"><g id="Layer_2" data-name="Layer 2"><g id="Layer_1-2" data-name="Layer 1"><path d="M0,189.75a2.53,2.53,0,0,0,.53-.5c2.5-4,5.45-5.45,8.89-4.48,3.66,1,5.54,3.91,5.58,8.7a167.69,167.69,0,0,0,7,47.65c14.69,48.45,44.44,84.68,89.23,108.2C142,365.47,175,372.22,209.49,368c69.56-8.53,119.36-45.27,146.33-109.87,28.74-68.83,10.83-145.65-44.14-196.21C274.13,27.37,229.3,11.79,178.32,15.69c-51.14,3.9-92.73,26.46-125,66.27a8.35,8.35,0,0,0-1.93,3.83c5.19-1.64,10.36-3.4,15.6-4.85a11.72,11.72,0,0,1,5.81-.26,6.68,6.68,0,0,1,5,6.71,7,7,0,0,1-4.94,7.2c-4.58,1.63-9.23,3-13.86,4.54-7.84,2.53-15.67,5.08-23.53,7.54-5.87,1.84-9.58-.17-10.91-6.1Q20.43,82,16.52,63.26c-1.08-5.21,1.15-9,5.42-9.95,4.5-1,8,1.67,9.27,7,.12.48.19,1,.3,1.47,1.29,6,2.59,11.94,4,18.4.87-1,1.55-1.62,2.11-2.35q47-61.92,123.51-75.35C167.37,1.4,173.71.82,180,0h24c1,.21,1.92.47,2.89.62,9.86,1.53,19.85,2.44,29.55,4.66,73.94,16.91,132.12,78.8,144.65,153.62,1.17,7,2,14.07,2.91,21.1v24c-.21,1-.48,1.92-.63,2.9-1.3,8.88-2.13,17.87-3.94,26.64C364,308,300.38,368.89,225.45,381c-7.12,1.16-14.3,2-21.45,3H180c-.84-.2-1.66-.47-2.51-.6-8.76-1.28-17.61-2.13-26.28-3.86C76.85,364.71,15.12,300.63,3,225.83,1.83,218.58,1,211.28,0,204Z"/><path d="M192,310.28c-21.32-.37-42.43-2.24-62.43-10.33a76.54,76.54,0,0,1-15-8.23c-9.79-6.83-14-16.38-13.1-28.45,3.15-43.25,33.9-77.37,76.48-84.58,48.13-8.14,95.75,26,103.42,74.29.66,4.18,1.06,8.42,1.34,12.65.68,10.29-3.55,18.43-11.38,24.83-10.54,8.64-23.09,13-36.17,15.31-14.21,2.5-28.65,3.74-43,5.53Zm0-15,.13,1c13.72-1.77,27.5-3.19,41.13-5.44a65.81,65.81,0,0,0,26.34-10.25c6-4,9.19-9.38,8.06-16.83-.46-3.09-.71-6.21-1.25-9.28-6.64-37.83-41.7-64.63-80.61-61.64-38,2.91-68.59,35.35-69.42,73.37-.11,4.9,1.39,9.09,5.22,11.83a67.76,67.76,0,0,0,14.14,8.23C153.69,293.44,172.73,294.94,191.91,295.27Z"/><path d="M237.86,119.73a45.86,45.86,0,1,1-45.64-46A46,46,0,0,1,237.86,119.73Zm-15-.06a30.85,30.85,0,1,0-30.91,31A30.91,30.91,0,0,0,222.85,119.67Z"/></g></g></svg>