<svg xmlns="http://www.w3.org/2000/svg" viewBox="0 0 58.36 39.86"><defs><style>.cls-1{fill:#010101;}.cls-1,.cls-10,.cls-11,.cls-12,.cls-13,.cls-14,.cls-15,.cls-16,.cls-17,.cls-18,.cls-19,.cls-2,.cls-20,.cls-21,.cls-22,.cls-23,.cls-24,.cls-25,.cls-26,.cls-27,.cls-28,.cls-29,.cls-3,.cls-30,.cls-31,.cls-32,.cls-33,.cls-34,.cls-35,.cls-36,.cls-37,.cls-38,.cls-39,.cls-4,.cls-40,.cls-41,.cls-42,.cls-43,.cls-44,.cls-45,.cls-46,.cls-47,.cls-48,.cls-49,.cls-5,.cls-50,.cls-51,.cls-52,.cls-53,.cls-54,.cls-55,.cls-56,.cls-57,.cls-58,.cls-59,.cls-6,.cls-60,.cls-61,.cls-62,.cls-63,.cls-64,.cls-65,.cls-66,.cls-67,.cls-68,.cls-69,.cls-7,.cls-70,.cls-71,.cls-72,.cls-73,.cls-74,.cls-75,.cls-76,.cls-77,.cls-78,.cls-8,.cls-9{fill-rule:evenodd;}.cls-2{fill:#5b5a5a;}.cls-3{fill:#808181;}.cls-4{fill:#1f3f23;}.cls-5{fill:#22171d;}.cls-6{fill:#fee259;}.cls-7{fill:#373634;}.cls-8{fill:#3c883f;}.cls-9{fill:#2d7130;}.cls-10{fill:#318b47;}.cls-11{fill:#409450;}.cls-12{fill:#337941;}.cls-13{fill:#37a451;}.cls-14{fill:#3b7043;}.cls-15{fill:#218f48;}.cls-16{fill:#4fb17a;}.cls-17{fill:#0a0d0b;}.cls-18{fill:#277735;}.cls-19{fill:#4db482;}.cls-20{fill:#2e2c2b;}.cls-21{fill:#295e29;}.cls-22{fill:#2d7436;}.cls-23{fill:#3f9546;}.cls-24{fill:#b8d8a5;}.cls-25{fill:#8ec687;}.cls-26{fill:#2a8a3c;}.cls-27{fill:#3e8343;}.cls-28{fill:#98292e;}.cls-29{fill:#f4a077;}.cls-30{fill:#72141e;}.cls-31{fill:#3c8d44;}.cls-32{fill:#2f6f35;}.cls-33{fill:#215326;}.cls-34{fill:#3a8e43;}.cls-35{fill:#faec54;}.cls-36{fill:#46453b;}.cls-37{fill:#67675e;}.cls-38{fill:#898884;}.cls-39{fill:#0a0b0a;}.cls-40{fill:#343532;}.cls-41{fill:#636462;}.cls-42{fill:#4cac59;}.cls-43{fill:#2d652c;}.cls-44{fill:#373735;}.cls-45{fill:#201f1d;}.cls-46{fill:#64615d;}.cls-47{fill:#3e3a38;}.cls-48{fill:#232723;}.cls-49{fill:#3b3a3a;}.cls-50{fill:#5b5754;}.cls-51{fill:#151413;}.cls-52{fill:#29201c;}.cls-53{fill:#212226;}.cls-54{fill:#17161c;}.cls-55{fill:#545458;}.cls-56{fill:#404851;}.cls-57{fill:#505460;}.cls-58{fill:#262a29;}.cls-59{fill:#daad48;}.cls-60{fill:#c57f1e;}.cls-61{fill:#d48d27;}.cls-62{fill:#bb7521;}.cls-63{fill:#f4c227;}.cls-64{fill:#eaac32;}.cls-65{fill:#ba7912;}.cls-66{fill:#da9f2c;}.cls-67{fill:#232935;}.cls-68{fill:#8f98a3;}.cls-69{fill:#5e6773;}.cls-70{fill:#2f3437;}.cls-71{fill:#26292e;}.cls-72{fill:#fdd040;}.cls-73{fill:#e7ad2b;}.cls-74{fill:#ffe834;}.cls-75{fill:#1d2022;}.cls-76{fill:#998976;}.cls-77{fill:#40382b;}.cls-78{fill:#464e4f;}</style></defs><g id="Layer_2" data-name="Layer 2"><g id="Layer_1-2" data-name="Layer 1"><path class="cls-1" d="M23.92,11.93a2.11,2.11,0,0,0-.09.49,2.88,2.88,0,0,0,0,.72,7.33,7.33,0,0,0,.2.93v.07l-.13,0v-.06c-.08-.32-.16-.63-.21-.95a3.12,3.12,0,0,1,0-.75,2.19,2.19,0,0,1,.1-.51v-.07l.13,0v.06Z"/><path class="cls-2" d="M24,11.24a3.12,3.12,0,0,1-.15.43c0,.11-.06.15,0,.19a.34.34,0,0,0,.15.09c.05,0,.07,0,.11-.08a3.05,3.05,0,0,1,.15-.35.54.54,0,0,1,.23-.24,1.18,1.18,0,0,0,.25-.15.22.22,0,0,0,0-.22.27.27,0,0,0-.2-.15.6.6,0,0,0-.33,0A.29.29,0,0,0,24,11a1.21,1.21,0,0,1-.05.27Z"/><path class="cls-3" d="M24.71,11a.19.19,0,0,0,0-.07.27.27,0,0,0-.2-.15.6.6,0,0,0-.33,0A.29.29,0,0,0,24,11a1.81,1.81,0,0,1,0,.19l0-.08a.5.5,0,0,1,.18-.17.43.43,0,0,1,.3,0l.21.09Z"/><path class="cls-1" d="M22.71,11.17a2.64,2.64,0,0,0,.08.49,3.27,3.27,0,0,0,.28.67,8.48,8.48,0,0,0,.51.81l0,.06-.11.07,0-.06c-.17-.26-.35-.54-.51-.82a3.48,3.48,0,0,1-.29-.69,2.35,2.35,0,0,1-.08-.51v-.07h.14v.06Z"/><path class="cls-2" d="M22.52,10.51c0,.13,0,.33,0,.45s0,.17,0,.19a.37.37,0,0,0,.18,0s.06,0,.07-.11a2.82,2.82,0,0,1,0-.39.64.64,0,0,1,.13-.3,1,1,0,0,0,.19-.23.21.21,0,0,0,0-.21.31.31,0,0,0-.24-.07.5.5,0,0,0-.3.14.26.26,0,0,0-.08.22c0,.07,0,.14,0,.27Z"/><path class="cls-3" d="M23.14,10l0-.06a.31.31,0,0,0-.24-.07.5.5,0,0,0-.3.14.26.26,0,0,0-.08.22s0,.11,0,.19,0,0,0-.09a.41.41,0,0,1,.11-.22.35.35,0,0,1,.28-.12.86.86,0,0,1,.22,0Z"/><path class="cls-4" d="M6.71,14.53l9.81,12h5.22l-.67-1.23h7.37V22.89H27.06v.49c0,.1,0,.12,0,.13h-.77c-.06,0-.09,0-.11-.06s0-.1,0-.19a2.89,2.89,0,0,0-.07-.45,5.79,5.79,0,0,0-.51-1.5,16.93,16.93,0,0,0-1.83-3.09,12.63,12.63,0,0,0-2.78-2.68,14.5,14.5,0,0,0-3.47-1.85A12.07,12.07,0,0,0,13.8,13a14.48,14.48,0,0,0-3.74.27,11.79,11.79,0,0,0-2.9,1,4.54,4.54,0,0,0-.45.25Z"/><path class="cls-1" d="M31.3,22.06c-.18-1-.37-2.16-.48-2.77s-.12-.7-.23-.8-.33-.25-.6-.5a3.12,3.12,0,0,1-.81-1.14,7,7,0,0,1-.38-1.68,1.51,1.51,0,0,1,0-.7c0-.09.09-.1.47-.14l1.59-.12a1.83,1.83,0,0,1,1.21.2c.37.22.79.67,1,.6s.22-.66.3-1,.23-.35.48-.37a9.06,9.06,0,0,1,1,0c.4,0,.88,0,4.55,1.62s10.54,4.83,14,6.55,3.5,1.92,3.42,2.34a5.09,5.09,0,0,1-.55,1.44c-.26.39-.56.55-1.41.64s-2.23.09-6.15.21-10.38.38-13.62.13-3.27-1-3.36-1.78-.26-1.71-.44-2.73Z"/><path class="cls-5" d="M18.51,12.48c-.27-.38-.68-.93-1-1.29a2.88,2.88,0,0,0-.64-.58c-.13-.08-.16-.08-.26,0a1.82,1.82,0,0,0-.37.18c-.09.06-.1.09,0,.3s.21.58.38.95a2.45,2.45,0,0,0,.68,1,2.4,2.4,0,0,0,1.17.5c.32,0,.46-.12.46-.29s-.12-.36-.39-.74Z"/><path class="cls-6" d="M18.51,12.48c-.27-.38-.68-.93-1-1.29a2.88,2.88,0,0,0-.64-.58c-.13-.08-.16-.08-.26,0a1.82,1.82,0,0,0-.37.18h0c.2.24.52.61.89,1.14s.72,1.08,1,1.56l.3.06c.32,0,.46-.12.46-.29s-.12-.36-.39-.74Z"/><path class="cls-7" d="M58.25,16.48c0,.09,0,.28-.06.69-.07.75-.21,2.26-.39,3.61s-.4,2.57-.52,3.22l0,.14H55c-.65,0-1.15,0-1.57,0a3.84,3.84,0,0,1-1-.17,1.46,1.46,0,0,1-.74-.51,2,2,0,0,1-.28-1.16A15.81,15.81,0,0,1,51.53,20a12.37,12.37,0,0,1,.54-2.23,1.81,1.81,0,0,1,.68-.95,2.31,2.31,0,0,1,1-.35,11.54,11.54,0,0,1,1.75,0l2.21.07Z"/><path class="cls-8" d="M58.36,16.47a3,3,0,0,1-.62,0l-2.21-.07a11.54,11.54,0,0,0-1.75,0,2.31,2.31,0,0,0-1,.35,1.81,1.81,0,0,0-.68.95A12.37,12.37,0,0,0,51.53,20a15.81,15.81,0,0,0-.16,2.31,2,2,0,0,0,.28,1.16,1.46,1.46,0,0,0,.74.51,3.84,3.84,0,0,0,1,.17c.42,0,.92,0,1.57,0h1.85c.41,0,.45,0,.5,0a.31.31,0,0,1,.11.14c0,.05,0,.1,0,.22a1.84,1.84,0,0,1-.16.41c-.07.09-.14.09-.27.09H50a11.26,11.26,0,0,1-2.48-.12A5.81,5.81,0,0,1,46,24.28a8.56,8.56,0,0,1-1.27-.91c-.45-.37-1-.82-1.47-1.18a6,6,0,0,0-1.31-.8,4.49,4.49,0,0,0-1.32-.33c-.48,0-1,0-2.08,0H34.25V16c0-1.25,0-1.85,0-2.28a3.78,3.78,0,0,1,.23-.94c2.7.07,5.4.14,8.12.34s5.46.52,7.62.84a39.22,39.22,0,0,1,4.9,1,11,11,0,0,1,2.45,1,2.15,2.15,0,0,1,.75.61Z"/><path class="cls-9" d="M56.78,24.14h.08c.41,0,.45,0,.5,0a.31.31,0,0,1,.11.14c0,.05,0,.1,0,.22a1.84,1.84,0,0,1-.16.41c-.07.09-.14.09-.27.09h-.25a2.77,2.77,0,0,0,.24-.5c.07-.21.06-.3,0-.35a.41.41,0,0,0-.23,0Z"/><path class="cls-10" d="M57.35,24.81a.81.81,0,0,1-.06.13c-.07.09-.14.09-.27.09H50a11.26,11.26,0,0,1-2.48-.12A5.81,5.81,0,0,1,46,24.28a8.56,8.56,0,0,1-1.27-.91c-.45-.37-1-.82-1.47-1.18a6,6,0,0,0-1.31-.8,4.49,4.49,0,0,0-1.32-.33c-.48,0-1,0-2.08,0H34.25v-.55h4.2a10.56,10.56,0,0,1,2.86.22A7.84,7.84,0,0,1,43.57,22c.82.6,1.8,1.34,2.57,1.84a5.44,5.44,0,0,0,2.1.88,23.5,23.5,0,0,0,3.33.12h5.78Z"/><path class="cls-11" d="M57.35,24.81a.81.81,0,0,1-.06.13c-.07.09-.14.09-.27.09H50a11.26,11.26,0,0,1-2.48-.12,4.89,4.89,0,0,1-1.12-.41.49.49,0,0,1-.18-.3c0-.13.12-.16.3-.12l.21.07a4.77,4.77,0,0,0,1.52.54,23.5,23.5,0,0,0,3.33.12h5.78Z"/><path class="cls-12" d="M57.35,24.81h-.06c-.07.09-.14.09-.27.09h-.25a.94.94,0,0,0,.12-.22Z"/><path class="cls-13" d="M34.32,13.5a3.48,3.48,0,0,1,.2-.75c2.7.07,5.4.14,8.12.34s5.46.52,7.62.84a39.22,39.22,0,0,1,4.9,1,11,11,0,0,1,2.45,1l.21.13-.22-.12A6.21,6.21,0,0,0,56,15.35a47.64,47.64,0,0,0-5.37-.86c-2.64-.31-6.21-.61-9.2-.77s-5.37-.2-6.88-.21Z"/><path class="cls-14" d="M46.93,23.5a11.68,11.68,0,0,1-1.59-1,2.31,2.31,0,0,1-.87-1.2,4.57,4.57,0,0,1-.13-1.77,6.9,6.9,0,0,1,.49-1.89,3.88,3.88,0,0,1,.7-1.15,1.21,1.21,0,0,1,.88-.42,8,8,0,0,1,1.62,0,4.4,4.4,0,0,1,1.13.26.91.91,0,0,1,.49.39,1.35,1.35,0,0,1,.17.61,3,3,0,0,1-.11.84c-.08.38-.22.93-.32,1.55s-.14,1.3-.17,1.85a8.19,8.19,0,0,1-.15,1.31,2,2,0,0,1-.46.86A.7.7,0,0,1,48,24a4.1,4.1,0,0,1-1-.45Z"/><path class="cls-15" d="M46.93,23.5a11.68,11.68,0,0,1-1.59-1,2.31,2.31,0,0,1-.87-1.2,4.57,4.57,0,0,1-.13-1.77,6.9,6.9,0,0,1,.49-1.89,3.88,3.88,0,0,1,.7-1.15,1.21,1.21,0,0,1,.88-.42,3.49,3.49,0,0,1,.59,0c.26,0,.52,0,.76,0a4.63,4.63,0,0,1,1.13.26,1,1,0,0,1,.49.39,1.49,1.49,0,0,1,.16.61,3,3,0,0,1-.1.84c-.09.38-.23.93-.33,1.55s-.14,1.3-.17,1.85a8.19,8.19,0,0,1-.15,1.31,1.85,1.85,0,0,1-.46.86A.73.73,0,0,1,48,24h0a4.1,4.1,0,0,1-1-.45Z"/><path class="cls-16" d="M45.38,22.56l0,0a2.31,2.31,0,0,1-.87-1.2,4.57,4.57,0,0,1-.13-1.77,6.9,6.9,0,0,1,.49-1.89,3.88,3.88,0,0,1,.7-1.15,1.21,1.21,0,0,1,.88-.42l.42,0-.11,0a1.57,1.57,0,0,0-.52.11,1.37,1.37,0,0,0-.53.42,5.31,5.31,0,0,0-.55.82,3.85,3.85,0,0,0-.39,1,7.72,7.72,0,0,0-.25,1.32,4.47,4.47,0,0,0,0,1.17,4.57,4.57,0,0,0,.26.89,2.44,2.44,0,0,0,.28.48,1.6,1.6,0,0,0,.27.26l.06,0Z"/><path class="cls-17" d="M45,21.66a3.23,3.23,0,0,1-.06-1,15.76,15.76,0,0,1,.28-1.91,7.59,7.59,0,0,1,.48-1.57,1.88,1.88,0,0,1,.47-.7,1.07,1.07,0,0,1,.65-.15c.34,0,.88,0,1.25,0a2,2,0,0,1,.74.16,1,1,0,0,1,.4.33.69.69,0,0,1,.12.47,4.94,4.94,0,0,1-.15.83c-.08.39-.2.9-.3,1.47a15.88,15.88,0,0,0-.21,1.69c0,.49,0,.87-.07,1.2a1.76,1.76,0,0,1-.22.78.61.61,0,0,1-.42.31,1,1,0,0,1-.67-.12,10.15,10.15,0,0,1-1.18-.65,4.07,4.07,0,0,1-.83-.64,1,1,0,0,1-.28-.54Z"/><path class="cls-18" d="M49,21c0,.23,0,.44,0,.64l0,.24a2.09,2.09,0,0,0-1.07-.55c-.65-.2-1.83-.53-2.48-.72a3.3,3.3,0,0,1-.85-.31c-.07-.06-.11-.13-.08-.16s.12,0,.59.11l1.95.5a8.8,8.8,0,0,0,1.33.27A3.48,3.48,0,0,0,49,21Z"/><path class="cls-19" d="M49,21.08a3.89,3.89,0,0,1-.47,0,4.14,4.14,0,0,1-1.29-.24c-.72-.17-1.9-.48-2.76-.7,0,0,0-.06,0-.08s.12,0,.59.11l1.95.5a8.8,8.8,0,0,0,1.33.27A3.48,3.48,0,0,0,49,21v.12Z"/><path class="cls-18" d="M49.43,18.21c0,.18-.09.39-.14.63a5,5,0,0,0-.87-.21c-.68-.12-1.82-.25-2.46-.33a2.41,2.41,0,0,1-.92-.22c-.12-.06-.2-.14-.19-.17s.11,0,.24,0l1,.1c.65.08,1.78.19,2.42.23a3.71,3.71,0,0,0,1,0Z"/><path class="cls-19" d="M49.4,18.36c-.25,0-.62,0-1,0s-.86-.07-1.6-.16L44.89,18s0,0,0-.06.11,0,.24,0l1,.1c.65.08,1.78.19,2.42.23a3.71,3.71,0,0,0,1,0l0,.15Z"/><path class="cls-20" d="M29.62,14.49l-2.29-1.74c-.58-.44-.59-.45-.59-.48a.39.39,0,0,1,.09-.23,3.13,3.13,0,0,1,.3-.32c.09-.08.11-.09.14-.1s.05,0,.7.49l2.63,2c.7.54.83.62.69.69a2.83,2.83,0,0,1-.8.16c-.23,0-.28,0-.87-.47Z"/><path class="cls-8" d="M32.55,21.64H34V14.88c0-1.41,0-1.56,0-1.65a.19.19,0,0,0-.12-.15l-.62-.29L31.65,12c-.42-.19-.47-.2-.51-.13a1.72,1.72,0,0,0-.13.43,3.43,3.43,0,0,1-.32.93,18.57,18.57,0,0,1-.93,1.63,4.65,4.65,0,0,0-.47.79.77.77,0,0,0,0,.52c.05.14.16.22.62.54s1.28.86,1.78,1.22a3.24,3.24,0,0,1,.77.67.58.58,0,0,1,.09.39v2.61Z"/><path class="cls-21" d="M31.16,17.6l.53.37a3.24,3.24,0,0,1,.77.67.57.57,0,0,1,.09.36V15.21a.69.69,0,0,0-.69-.69h0a.7.7,0,0,0-.7.69V17.6Z"/><path class="cls-8" d="M31.46,17.8l.23.17c.27.2.45.34.57.45V15.21a.4.4,0,0,0-.4-.4h0a.4.4,0,0,0-.4.4V17.8Z"/><path class="cls-13" d="M34,13.53c0-.2,0-.26,0-.3a.19.19,0,0,0-.12-.15l-.62-.29L31.65,12c-.42-.19-.47-.2-.51-.13a1.27,1.27,0,0,0-.11.37c.79.35,1.66.71,2.28,1l.72.28Z"/><path class="cls-22" d="M29.72,15a4.76,4.76,0,0,0-.43.73.77.77,0,0,0,0,.52c.05.14.16.22.62.54l.22.15a8.1,8.1,0,0,1-.26-.79A6.61,6.61,0,0,1,29.72,15Z"/><path class="cls-23" d="M5.73,15.21a8.8,8.8,0,0,1,1.43-.93,11.79,11.79,0,0,1,2.9-1A14.48,14.48,0,0,1,13.8,13a12.07,12.07,0,0,1,3.65.72,14.5,14.5,0,0,1,3.47,1.85,12.63,12.63,0,0,1,2.78,2.68,16.93,16.93,0,0,1,1.83,3.09,5.79,5.79,0,0,1,.51,1.5,2.89,2.89,0,0,1,.07.45c0,.09,0,.15,0,.19s.05.05.11.06H27s0,0,0-.13V23a2.93,2.93,0,0,0,0-.34c0-.06-.05-.06-.15-.06h-.38c-.12,0-.17,0-.21-.05a6,6,0,0,1-.31-1,24.77,24.77,0,0,0-1.42-3.77,16.77,16.77,0,0,0-2.11-3.16,3.74,3.74,0,0,0-1.08-1,6.42,6.42,0,0,0-1.49-.44A28.42,28.42,0,0,0,16,12.52a40,40,0,0,0-4.88,0A8.86,8.86,0,0,0,8.18,13a13.42,13.42,0,0,0-2.1,1.14c-.46.3-.54.39-.61.58a3.19,3.19,0,0,0-.14.62c0,.15,0,.15,0,.13l.38-.28Z"/><path class="cls-24" d="M16.36,12.56l-.38,0-.72,0h0a1.21,1.21,0,0,0-.29.1c-.06,0-.09.09,0,.12a2.22,2.22,0,0,0,.5.06,12.63,12.63,0,0,1,1.4.21,10,10,0,0,1,1.83.6c.63.27,1.27.62,1.34.63a8,8,0,0,0-1-.61,14.58,14.58,0,0,0-1.61-.71,6.48,6.48,0,0,0-1-.3Z"/><path class="cls-25" d="M5.73,15.21l.07-.06a4.54,4.54,0,0,1,.09-.51c0-.14.07-.29.1-.42-.38.25-.45.34-.52.52a3.19,3.19,0,0,0-.14.62c0,.15,0,.15,0,.13l.38-.28Z"/><path class="cls-26" d="M10.42,12.54a.77.77,0,0,0-.27-.3,1.44,1.44,0,0,0-.78-.12c-.37,0-.89.05-1.16.08s-.28.05-.3.11a1.74,1.74,0,0,1-.13.31,2.09,2.09,0,0,1-.41.52,5.17,5.17,0,0,1-.73.49l-.58.28a.5.5,0,0,1-.2.05s0,0-.06.15,0,.16,0,.26a2.45,2.45,0,0,1,.3-.21A13.42,13.42,0,0,1,8.18,13a7.77,7.77,0,0,1,2.24-.48Z"/><path class="cls-27" d="M10.42,12.54a.77.77,0,0,0-.27-.3,1.44,1.44,0,0,0-.78-.12c-.37,0-.89.05-1.16.08H8.13a2.56,2.56,0,0,1-.23.65,3.37,3.37,0,0,1-.33.44L8.18,13a7.77,7.77,0,0,1,2.24-.48Z"/><path class="cls-28" d="M6,14a2.16,2.16,0,0,1,.08-.6,1.42,1.42,0,0,1,.35-.61A1.6,1.6,0,0,1,7,12.39a1.65,1.65,0,0,1,.68-.11l.28,0h0a1.74,1.74,0,0,1-.13.31,2.09,2.09,0,0,1-.41.52,5.17,5.17,0,0,1-.73.49l-.58.28L6,14Z"/><path class="cls-29" d="M6.4,12.72A1.55,1.55,0,0,1,7,12.39l.28-.08h.06a.39.39,0,0,1,.16,0s0,.09-.09.17a3,3,0,0,1-.42.29,1.53,1.53,0,0,1-.46.18c-.12,0-.16,0-.17-.08a.2.2,0,0,1,.06-.12l0,0Z"/><path class="cls-30" d="M7.28,13a2.53,2.53,0,0,1-.47.38c-.13.09-.21.12-.23.08s0-.11.11-.21A4,4,0,0,1,7,13a2.82,2.82,0,0,1,.35-.29,1.41,1.41,0,0,1,.26-.14s.06,0,0,.09a2.61,2.61,0,0,1-.32.4Z"/><path class="cls-31" d="M55.41,27.36V25.25H21.07l3,5.58,10.78-1.62c3.25-.5,6-.93,8.16-1.22s3.85-.43,5.5-.51,3.27-.1,4.41-.11Z"/><polygon class="cls-32" points="54.99 25.25 54.75 25.25 54.75 27.36 54.99 27.36 54.99 25.25 54.99 25.25"/><polygon class="cls-9" points="55.41 25.53 55.41 25.25 23.78 25.25 23.78 25.53 55.41 25.53 55.41 25.53"/><polygon class="cls-33" points="54.99 25.25 54.75 25.25 54.75 25.53 54.99 25.53 54.99 25.25 54.99 25.25"/><polygon class="cls-34" points="54.99 27.58 56.7 27.58 56.7 25.18 54.99 25.18 54.99 27.58 54.99 27.58"/><path class="cls-35" d="M34.55,13.93v1c1.45,0,2.89,0,4.73.11s4.07.22,6.13.37,4,.29,5.15.4,1.71.16,2,.15.38-.11.18-.23a5.56,5.56,0,0,0-1.45-.41c-.76-.14-1.81-.28-3.47-.46s-3.94-.4-6.26-.56-4.66-.26-7-.36Z"/><path class="cls-1" d="M34.86,25.75a.16.16,0,0,1,.16.16.17.17,0,0,1-.16.16.16.16,0,0,1-.16-.16.16.16,0,0,1,.16-.16Z"/><path class="cls-1" d="M36.84,25.75a.16.16,0,0,1,.16.16.16.16,0,1,1-.32,0,.16.16,0,0,1,.16-.16Z"/><path class="cls-1" d="M38.1,25.75a.16.16,0,0,1,.16.16.16.16,0,0,1-.16.16.17.17,0,0,1-.16-.16.16.16,0,0,1,.16-.16Z"/><path class="cls-1" d="M39.4,25.75a.16.16,0,0,1,.16.16.16.16,0,1,1-.32,0,.16.16,0,0,1,.16-.16Z"/><path class="cls-1" d="M40.7,25.75a.16.16,0,0,1,.16.16.16.16,0,0,1-.32,0,.16.16,0,0,1,.16-.16Z"/><path class="cls-1" d="M43.22,25.75a.16.16,0,0,1,.16.16.16.16,0,1,1-.32,0,.16.16,0,0,1,.16-.16Z"/><path class="cls-1" d="M41.33,25.75a.16.16,0,0,1,.16.16.16.16,0,1,1-.32,0,.16.16,0,0,1,.16-.16Z"/><path class="cls-1" d="M42,25.75a.16.16,0,0,1,.16.16.16.16,0,0,1-.32,0,.16.16,0,0,1,.16-.16Z"/><path class="cls-1" d="M42.59,25.75a.16.16,0,0,1,.16.16.16.16,0,0,1-.32,0,.16.16,0,0,1,.16-.16Z"/><path class="cls-1" d="M40.7,27.19a.16.16,0,1,1-.16.16.16.16,0,0,1,.16-.16Z"/><path class="cls-1" d="M41.33,27.19a.16.16,0,1,1-.16.16.16.16,0,0,1,.16-.16Z"/><path class="cls-1" d="M42,27.19a.16.16,0,1,1-.16.16.16.16,0,0,1,.16-.16Z"/><path class="cls-1" d="M42.59,27.19a.16.16,0,1,1-.16.16.16.16,0,0,1,.16-.16Z"/><path class="cls-1" d="M38.1,27.19a.16.16,0,1,1,0,.32.16.16,0,1,1,0-.32Z"/><path class="cls-1" d="M39.4,27.19a.16.16,0,1,1-.16.16.16.16,0,0,1,.16-.16Z"/><path class="cls-1" d="M36.27,27.94a.17.17,0,0,1,.16.17.16.16,0,1,1-.32,0,.17.17,0,0,1,.16-.17Z"/><path class="cls-1" d="M51.53,26a.16.16,0,1,1-.16.16.16.16,0,0,1,.16-.16Z"/><path class="cls-1" d="M50,26a.16.16,0,0,1,0,.32A.16.16,0,1,1,50,26Z"/><path class="cls-36" d="M26.16,22.05q0-.26-.06-.69c-.07-.89-.19-2.43-.4-3.94s-.54-3-.71-3.8-.2-.87-.28-.92a9.11,9.11,0,0,0-1.81,0H17.26c1.09.15,2,.34,2.64.48a6.42,6.42,0,0,1,1.49.44,3.74,3.74,0,0,1,1.08,1,16.77,16.77,0,0,1,2.11,3.16A24.77,24.77,0,0,1,26,21.52l.16.53Z"/><path class="cls-37" d="M26.16,22.05q0-.26-.06-.69c-.07-.89-.19-2.43-.4-3.94s-.54-3-.71-3.8-.2-.87-.28-.92a9.11,9.11,0,0,0-1.81,0H17.26c.69.09,1.31.21,1.84.31h3.32a13.86,13.86,0,0,1,1.9,0c.1,0,.12.06.22.48s.28,1.21.46,2.12.36,2,.55,3.39c.07.55.14,1.14.2,1.74.1.3.18.57.25.79l.16.53Z"/><path class="cls-38" d="M26.16,22.05q0-.26-.06-.69c-.07-.89-.19-2.43-.4-3.94s-.54-3-.71-3.8a3.61,3.61,0,0,0-.24-.88.5.5,0,0,0-.14.1.38.38,0,0,0-.14.25.57.57,0,0,0,0,.13c0,.06,0,.15.07.26.1.42.28,1.21.46,2.12s.36,2,.55,3.39c.07.55.14,1.14.2,1.74.1.3.18.57.25.79l.16.53Z"/><path class="cls-31" d="M33.59,22.89H27.17v-.22a.63.63,0,0,0,0-.17.14.14,0,0,0-.1-.08H26.4V22h7.19v.92Z"/><polygon class="cls-9" points="33.59 21.97 32.38 21.97 32.38 22.89 33.59 22.89 33.59 21.97 33.59 21.97"/><path class="cls-24" d="M22.79,16.48a9.48,9.48,0,0,1,.94,1.05,3.56,3.56,0,0,1,.51.86,5.22,5.22,0,0,1-.57-.64c-.26-.29-.5-.5-.73-.78a4.11,4.11,0,0,1-.52-.76c0-.11.11,0,.37.27Z"/><path class="cls-39" d="M53.33,16.53,52.46,24l-.07,0a2.09,2.09,0,0,1-.37-.17l.82-7a2.39,2.39,0,0,1,.49-.2Z"/><path class="cls-7" d="M53.24,16.55,52.38,24l-.28-.13.83-7.14.31-.13Z"/><path class="cls-39" d="M54.39,16.4l-.91,7.72h0l-.42,0,.9-7.66.47,0Z"/><path class="cls-7" d="M54.3,16.4l-.9,7.71-.3,0,.9-7.67.3,0Z"/><path class="cls-39" d="M55.39,16.4l-.91,7.74H54l.91-7.74Z"/><path class="cls-7" d="M55.31,16.4l-.91,7.74h-.3L55,16.39Z"/><path class="cls-39" d="M56.49,16.43l-.9,7.71h-.47L56,16.42Z"/><path class="cls-7" d="M56.41,16.43l-.91,7.71h-.29l.9-7.72Z"/><path class="cls-39" d="M57.47,16.46l-.9,7.68h-.46l.9-7.69Z"/><polygon class="cls-7" points="57.39 16.46 56.49 24.14 56.19 24.14 57.09 16.45 57.39 16.46 57.39 16.46"/><path class="cls-40" d="M37.23,21.75h0a.37.37,0,0,0,0-.11c0-.14,0-.29,0-.43l0-2.78q.08-5.94.17-11.87l0-1.7c0-.33,0-.66,0-1a2.15,2.15,0,0,1,.2-.9l0,0a5.67,5.67,0,0,1,1-1.13c.13-.11.11.12.19.13s.3.09-.06.75c-.1.18-.34.45-.49.7a1.48,1.48,0,0,0-.09.55c0,.32,0,.64,0,1,0,.56,0,1.13,0,1.69-.07,4-.11,7.92-.16,11.87,0,.93,0,1.86,0,2.78a4.05,4.05,0,0,1,0,.7.73.73,0,0,1-.46.56,2.79,2.79,0,0,1-.82.06h-1l-.1-.08c-.08-.07-.1-.1-.11-.14a1.88,1.88,0,0,1,0-.31v-.24h1.22a4.68,4.68,0,0,0,.52,0Z"/><path class="cls-41" d="M38.31,3.81v.1c0,.32,0,.64,0,1,0,.56,0,1.13,0,1.69-.07,4-.11,7.92-.16,11.87,0,.93,0,1.86,0,2.78a4.05,4.05,0,0,1,0,.7.76.76,0,0,1-.32.49c-.19,0-.28-.1-.3-.18s.07-.19.13-.3.1-.23.16-3.29.15-9.07.24-12.15.17-3.23.24-3.22.13.19.16.33a1.62,1.62,0,0,1,0,.22Z"/><path class="cls-1" d="M39,1.71c.15.06.18.34.07.65s-.31.5-.46.45-.18-.34-.08-.64.32-.51.47-.46Z"/><path class="cls-31" d="M34.15,21.31h1.34V22a1.88,1.88,0,0,0,0,.31s0,.07.11.14l.32.26c.08.06.1.06.24.06h1a.46.46,0,0,0,.26-.06,2.26,2.26,0,0,0,.5-.37,2.4,2.4,0,0,0,.37-.55.49.49,0,0,0,.07-.3v-.17h.74a13.61,13.61,0,0,1,1.8.05,3.66,3.66,0,0,1,1,.28,4.79,4.79,0,0,1,1.09.66c.43.32.94.76,1.44,1.15s1,.74,1.32.95a2.68,2.68,0,0,0,.65.33,1.93,1.93,0,0,1,.2.06s0,.07,0,.1,0,.07,0,.08a.73.73,0,0,1-.28,0H43.78c-2.05,0-5.84,0-9.63,0V21.31Z"/><path class="cls-42" d="M34.15,23.14v-.22h5.57a7,7,0,0,1,.79.05,1.71,1.71,0,0,1,1,.47c.43.37.85.77,1.26,1.16a.11.11,0,0,1,0,.16.12.12,0,0,1-.16,0c-.41-.38-.82-.79-1.25-1.15a1.59,1.59,0,0,0-.86-.42,6.47,6.47,0,0,0-.76-.05H34.15Z"/><path class="cls-42" d="M35.62,22.46l.28.22H34.15v-.22Zm1.83.22a2.06,2.06,0,0,0,.32-.22H40a7,7,0,0,1,.79.05,4.58,4.58,0,0,1,1.51.93c.43.37.85.77,1.26,1.16a.11.11,0,0,1,0,.16.12.12,0,0,1-.16,0c-.41-.38-.82-.79-1.25-1.15a4.71,4.71,0,0,0-1.4-.88,6.64,6.64,0,0,0-.77,0H37.45Z"/><polygon class="cls-43" points="33.39 22.89 28.44 22.89 28.44 25.25 33.39 25.25 33.39 22.89 33.39 22.89"/><path class="cls-44" d="M23,12.58v1.93a2,2,0,0,1-.56-.06,2.58,2.58,0,0,1-.73-.29,1.59,1.59,0,0,1-.48-.39.33.33,0,0,1,0-.45,1.59,1.59,0,0,1,.48-.39,2.92,2.92,0,0,1,.73-.29,2,2,0,0,1,.56-.06Z"/><path class="cls-45" d="M23,12.58v.67a2.69,2.69,0,0,1-.78.11c-.25,0-.37-.09-.39-.2a.42.42,0,0,1,.16-.32.64.64,0,0,1,.25-.14l.07,0,.13,0a2,2,0,0,1,.56-.06Z"/><path class="cls-45" d="M23,14.14v.37a2,2,0,0,1-.56-.06,2.58,2.58,0,0,1-.73-.29,1.59,1.59,0,0,1-.48-.39.33.33,0,0,1-.09-.29l.19.12a3.65,3.65,0,0,0,1.09.46,2.75,2.75,0,0,0,.58.08Z"/><path class="cls-46" d="M23,12.58v1.93H22.8V12.59Z"/><path class="cls-47" d="M23,12.58v.67l-.19.05v-.71H23Z"/><path class="cls-47" d="M23,14.14v.37H22.8v-.37Z"/><polygon class="cls-48" points="12.73 0 13.96 0 13.96 12.66 12.73 12.66 12.73 0 12.73 0"/><path class="cls-49" d="M28.29,9.48h0a.31.31,0,0,1,0,.42l-2.68,3.38a.3.3,0,0,1-.41,0h0a.29.29,0,0,1,0-.41l2.68-3.38a.3.3,0,0,1,.42,0Z"/><path class="cls-50" d="M25.13,13.13a.3.3,0,0,1,.06-.22l2.68-3.38a.27.27,0,0,1,.17-.1h.07a.1.1,0,0,1,.1.05s0,.12-.06.24a8.43,8.43,0,0,1-.66.85l-1.66,2c-.41.51-.46.56-.51.59a.16.16,0,0,1-.15,0,.07.07,0,0,1,0,0Z"/><path class="cls-51" d="M27.48,11.13c0,.24,0,.62,0,.83s0,.23-.06.24a.18.18,0,0,1-.12,0s-.06-.06-.07-.27,0-.41,0-.62l.24-.31s0,.09,0,.15Z"/><path class="cls-52" d="M26.9,12.7l-1.11.44h0l.27-.34.89-.38h0l.23.18-.24.09Z"/><path class="cls-53" d="M12.37,15.47a12,12,0,1,0,12,12,12,12,0,0,0-12-12Z"/><path class="cls-54" d="M.4,26.54c0,.31,0,.63,0,.95A12,12,0,0,0,20.54,36.3a5.94,5.94,0,0,0,.08-.68,2.76,2.76,0,0,0-.5-1.83A10,10,0,0,1,2.47,28.73l-.26-.17a5.16,5.16,0,0,1-1.81-2Z"/><path class="cls-55" d="M12.37,15.47A12,12,0,0,0,4.29,18.6a7.21,7.21,0,0,0,0,1.86,3.77,3.77,0,0,0,.19.89,10,10,0,0,1,17.81,5.19,4.6,4.6,0,0,1,1.59.9l.48.43c0-.13,0-.25,0-.38a12,12,0,0,0-12-12Z"/><path class="cls-56" d="M12.37,17.51a10,10,0,1,0,10,10,10,10,0,0,0-10-10Z"/><path class="cls-57" d="M12.37,18.68a8.81,8.81,0,1,0,8.81,8.81,8.81,8.81,0,0,0-8.81-8.81Z"/><path class="cls-58" d="M12.37,18.68a8.82,8.82,0,0,0-8.2,5.6,10,10,0,0,0,.23,1.19,4.79,4.79,0,0,0,1.85,2.94,7,7,0,0,1-.06-.92,6.19,6.19,0,1,1,12.37,0,5.92,5.92,0,0,1-.15,1.34.86.86,0,0,0,.07.1c.44.61.81.95,1.23.91A1.77,1.77,0,0,0,20.84,29a2.38,2.38,0,0,0,.31-1.26,1.5,1.5,0,0,1,0-.37,8.81,8.81,0,0,0-8.81-8.66Z"/><path class="cls-59" d="M12.37,21.3a6.19,6.19,0,1,0,6.19,6.19,6.19,6.19,0,0,0-6.19-6.19Z"/><path class="cls-60" d="M12.37,21.64a5.85,5.85,0,1,0,5.85,5.85,5.85,5.85,0,0,0-5.85-5.85Z"/><path class="cls-61" d="M12.37,21.84A5.65,5.65,0,1,0,18,27.49a5.64,5.64,0,0,0-5.65-5.65Z"/><path class="cls-62" d="M12.37,22.3a5.19,5.19,0,1,0,5.19,5.19,5.18,5.18,0,0,0-5.19-5.19Z"/><path class="cls-63" d="M7.19,27.51a5.19,5.19,0,0,0,10.37,0,9.64,9.64,0,0,0-.91-.45c0,.14,0,.28,0,.43a4.3,4.3,0,1,1-8.59,0,3,3,0,0,1,0-.43,8.57,8.57,0,0,0-.91.45Z"/><path class="cls-64" d="M12.37,23.19a4.3,4.3,0,1,0,4.3,4.3,4.3,4.3,0,0,0-4.3-4.3Z"/><path class="cls-65" d="M12.37,26a1.46,1.46,0,1,0,1.46,1.46A1.45,1.45,0,0,0,12.37,26Z"/><path class="cls-66" d="M12.37,26.22a1.27,1.27,0,1,0,1.27,1.27,1.26,1.26,0,0,0-1.27-1.27Z"/><path class="cls-67" d="M12.15,17.51l0-.08a1.69,1.69,0,0,1,.39-.68,4.39,4.39,0,0,1,1.08-.8,2.24,2.24,0,0,1,.87-.24,1.44,1.44,0,0,1,.35,0h.05a12,12,0,0,0-1.7-.24,2.84,2.84,0,0,0-.34.15,1.19,1.19,0,0,0-.5.58,5.87,5.87,0,0,0-.36.92,2.66,2.66,0,0,0-.07.37Z"/><path class="cls-68" d="M15.19,15.27c-.45,0-.91-.1-1.41-.12a5,5,0,0,0-1.51.13,2.88,2.88,0,0,0-1.1.64,2.83,2.83,0,0,0-.6.83,2.17,2.17,0,0,0-.18.72c0,.08,0,.16,0,.23a10.07,10.07,0,0,1,1.56-.18,2.66,2.66,0,0,1,.07-.37,5.87,5.87,0,0,1,.36-.92,1.19,1.19,0,0,1,.5-.58,3.39,3.39,0,0,1,1-.31,12.23,12.23,0,0,1,1.33-.07Z"/><path class="cls-69" d="M10.84,16.29a3.22,3.22,0,0,0-.27.46,2.17,2.17,0,0,0-.18.72c0,.08,0,.16,0,.23a10.07,10.07,0,0,1,1.56-.18,2.66,2.66,0,0,1,.07-.37,5.87,5.87,0,0,1,.36-.92,2.29,2.29,0,0,1,.17-.28l-.25,0a3.74,3.74,0,0,0-.67,0,1.25,1.25,0,0,0-.48.12.79.79,0,0,0-.25.21s0,0-.05.05Z"/><path class="cls-67" d="M15.19,15.28a.85.85,0,0,1,.24.09.31.31,0,0,1,.14.16.33.33,0,0,1,0,.22.83.83,0,0,1,0,.15,11.92,11.92,0,0,0-2.34-.4,4.88,4.88,0,0,1,.66-.16,11.27,11.27,0,0,1,1.29-.07Z"/><path class="cls-67" d="M12.59,37.47l0,.07a1.5,1.5,0,0,1-.38.69,4.59,4.59,0,0,1-1.08.8,2.55,2.55,0,0,1-.87.24,1,1,0,0,1-.36,0h0a11.79,11.79,0,0,0,1.7.24,2.18,2.18,0,0,0,.34-.14,1.21,1.21,0,0,0,.49-.58,5,5,0,0,0,.36-.92,2.74,2.74,0,0,0,.08-.37Z"/><path class="cls-68" d="M9.55,39.7c.46.06.91.11,1.41.13a5,5,0,0,0,1.51-.14,2.72,2.72,0,0,0,1.11-.63,2.61,2.61,0,0,0,.59-.83,2.23,2.23,0,0,0,.18-.72c0-.09,0-.16,0-.24a9,9,0,0,1-1.56.19,2.74,2.74,0,0,1-.08.37,5,5,0,0,1-.36.92,1.21,1.21,0,0,1-.49.58,3.11,3.11,0,0,1-1,.3,8.86,8.86,0,0,1-1.34.07Z"/><path class="cls-69" d="M13.9,38.69a2.28,2.28,0,0,0,.27-.46,2.23,2.23,0,0,0,.18-.72c0-.09,0-.16,0-.24a9,9,0,0,1-1.56.19,2.74,2.74,0,0,1-.08.37,5,5,0,0,1-.36.92,1.47,1.47,0,0,1-.16.28l.24,0a3,3,0,0,0,.67,0,1.46,1.46,0,0,0,.49-.12.79.79,0,0,0,.25-.21l0-.05Z"/><path class="cls-67" d="M9.55,39.69a.57.57,0,0,1-.23-.08.38.38,0,0,1-.15-.16.54.54,0,0,1,0-.22.88.88,0,0,1,.05-.15,11.23,11.23,0,0,0,2.33.39,2.94,2.94,0,0,1-.65.16,8,8,0,0,1-1.29.07Z"/><path class="cls-67" d="M22.35,27.27l.08,0a1.43,1.43,0,0,1,.68.39,4.21,4.21,0,0,1,.8,1.08,2.08,2.08,0,0,1,.24.86,1.53,1.53,0,0,1,0,.36V30a12.14,12.14,0,0,0,.24-1.71c-.05-.13-.1-.24-.15-.34a1.17,1.17,0,0,0-.58-.49,4.93,4.93,0,0,0-.91-.36l-.37-.08v.22Z"/><path class="cls-68" d="M24.59,30.31c.05-.46.11-.91.12-1.41a5,5,0,0,0-.13-1.51,2.59,2.59,0,0,0-.64-1.1,2.55,2.55,0,0,0-.83-.6,2.17,2.17,0,0,0-.72-.18h-.23a11.13,11.13,0,0,1,.19,1.55l.37.08a4.93,4.93,0,0,1,.91.36,1.17,1.17,0,0,1,.58.49,3.09,3.09,0,0,1,.31,1,12.23,12.23,0,0,1,.07,1.33Z"/><path class="cls-69" d="M23.57,26a2,2,0,0,0-.46-.27,2.17,2.17,0,0,0-.72-.18h-.23a11.13,11.13,0,0,1,.19,1.55l.37.08a4.93,4.93,0,0,1,.91.36,1.47,1.47,0,0,1,.28.16,2,2,0,0,0,0-.24,3.74,3.74,0,0,0,0-.67,1.48,1.48,0,0,0-.11-.49.87.87,0,0,0-.21-.24L23.57,26Z"/><path class="cls-67" d="M24.58,30.31a1,1,0,0,1-.09.24.36.36,0,0,1-.16.14.53.53,0,0,1-.22,0l-.14,0a13,13,0,0,0,.39-2.34,3.53,3.53,0,0,1,.16.66,11,11,0,0,1,.07,1.28v0Z"/><path class="cls-67" d="M2.39,27.71l-.07,0a1.63,1.63,0,0,1-.68-.39,3.8,3.8,0,0,1-.8-1.08,2.08,2.08,0,0,1-.24-.87.83.83,0,0,1,0-.35V25a12.14,12.14,0,0,0-.24,1.71A1.75,1.75,0,0,0,.54,27a1.14,1.14,0,0,0,.57.49,5.87,5.87,0,0,0,.92.36,2.66,2.66,0,0,0,.37.07c0-.07,0-.14,0-.21Z"/><path class="cls-68" d="M.16,24.67c-.06.45-.11.91-.13,1.41a5.38,5.38,0,0,0,.14,1.51,2.59,2.59,0,0,0,.64,1.1,2.6,2.6,0,0,0,.83.6,2.11,2.11,0,0,0,.72.18h.23a9.79,9.79,0,0,1-.19-1.56A2.66,2.66,0,0,1,2,27.85a5.87,5.87,0,0,1-.92-.36A1.14,1.14,0,0,1,.54,27a2.94,2.94,0,0,1-.31-1,8.66,8.66,0,0,1-.07-1.33Z"/><path class="cls-69" d="M1.18,29a2.75,2.75,0,0,0,.46.27,2.11,2.11,0,0,0,.72.18h.23a9.79,9.79,0,0,1-.19-1.56A2.66,2.66,0,0,1,2,27.85a5.87,5.87,0,0,1-.92-.36l-.28-.16,0,.24a3,3,0,0,0,0,.67,1.4,1.4,0,0,0,.12.48.69.69,0,0,0,.21.25l.06.05Z"/><path class="cls-67" d="M.17,24.67a1,1,0,0,1,.08-.24.29.29,0,0,1,.17-.14.3.3,0,0,1,.21,0l.15,0a12,12,0,0,0-.39,2.34A3.74,3.74,0,0,1,.23,26a9.3,9.3,0,0,1-.07-1.29v0Z"/><path class="cls-67" d="M19.27,20.28l.07,0A1.44,1.44,0,0,1,20.1,20a3.91,3.91,0,0,1,1.33.2,2.22,2.22,0,0,1,.78.44,1.52,1.52,0,0,1,.24.27l0,0a12.37,12.37,0,0,0-1-1.38,1.89,1.89,0,0,0-.35-.13,1.08,1.08,0,0,0-.75.06,5.09,5.09,0,0,0-.91.39l-.31.21.15.15Z"/><path class="cls-68" d="M23,20.85c-.28-.36-.56-.72-.9-1.09a5.08,5.08,0,0,0-1.17-1,2.64,2.64,0,0,0-1.23-.33,2.74,2.74,0,0,0-1,.16,2.2,2.2,0,0,0-.63.39l-.18.15a10.37,10.37,0,0,1,1.24,1l.31-.21a5.09,5.09,0,0,1,.91-.39,1.08,1.08,0,0,1,.75-.06A3,3,0,0,1,22,20a9.65,9.65,0,0,1,1,.9Z"/><path class="cls-69" d="M19.21,18.49a2.47,2.47,0,0,0-.52.13,2.2,2.2,0,0,0-.63.39l-.18.15a10.37,10.37,0,0,1,1.24,1l.31-.21a5.09,5.09,0,0,1,.91-.39l.31-.09-.15-.19a3.58,3.58,0,0,0-.47-.48,1.26,1.26,0,0,0-.43-.26,1,1,0,0,0-.32,0Z"/><path class="cls-67" d="M23,20.85a.67.67,0,0,1,.1.23.33.33,0,0,1,0,.22.45.45,0,0,1-.15.16l-.13.07a12.77,12.77,0,0,0-1.37-1.93A4.85,4.85,0,0,1,22,20a10,10,0,0,1,1,.86l0,0Z"/><path class="cls-67" d="M5.47,34.7l-.07,0a1.61,1.61,0,0,1-.75.21,4.43,4.43,0,0,1-1.33-.2,2.13,2.13,0,0,1-.78-.44A1.14,1.14,0,0,1,2.3,34l0,0a12.46,12.46,0,0,0,1,1.38l.34.13a1.17,1.17,0,0,0,.76-.06,5,5,0,0,0,.9-.39,3,3,0,0,0,.32-.21l-.16-.15Z"/><path class="cls-68" d="M1.74,34.13c.29.36.57.72.91,1.09a5.3,5.3,0,0,0,1.16,1,2.76,2.76,0,0,0,2.24.17A2.26,2.26,0,0,0,6.69,36l.17-.15a10.27,10.27,0,0,1-1.23-1,3,3,0,0,1-.32.21,5,5,0,0,1-.9.39,1.17,1.17,0,0,1-.76.06A3.4,3.4,0,0,1,2.73,35a12.5,12.5,0,0,1-1-.9Z"/><path class="cls-69" d="M5.54,36.49a3.15,3.15,0,0,0,.51-.13A2.26,2.26,0,0,0,6.69,36l.17-.15a10.27,10.27,0,0,1-1.23-1,3,3,0,0,1-.32.21,5,5,0,0,1-.9.39l-.31.09.14.19a4.31,4.31,0,0,0,.47.48,1.58,1.58,0,0,0,.43.26.74.74,0,0,0,.32,0Z"/><path class="cls-67" d="M1.75,34.13a.8.8,0,0,1-.11-.23.4.4,0,0,1,0-.22.45.45,0,0,1,.15-.16l.14-.07a11.92,11.92,0,0,0,1.37,1.93A4.25,4.25,0,0,1,2.73,35c-.27-.21-.72-.63-1-.87l0,0Z"/><path class="cls-67" d="M19.59,34.39l0,.07a1.4,1.4,0,0,1,.21.75,4.08,4.08,0,0,1-.19,1.33,2.34,2.34,0,0,1-.45.79,1.07,1.07,0,0,1-.27.23l0,0a12.46,12.46,0,0,0,1.38-1,2.11,2.11,0,0,0,.13-.34,1.11,1.11,0,0,0-.06-.76,5.33,5.33,0,0,0-.39-.9c-.07-.12-.14-.22-.21-.32l-.14.16Z"/><path class="cls-68" d="M19,38.12c.36-.28.71-.57,1.08-.91a5,5,0,0,0,1-1.16,2.7,2.7,0,0,0,.33-1.23,2.74,2.74,0,0,0-.16-1,2.17,2.17,0,0,0-.38-.64L20.7,33a9.35,9.35,0,0,1-1,1.23c.07.1.14.2.21.32a5.33,5.33,0,0,1,.39.9,1.11,1.11,0,0,1,.06.76,3,3,0,0,1-.48.92,10.9,10.9,0,0,1-.89,1Z"/><path class="cls-69" d="M21.37,34.33a2.32,2.32,0,0,0-.13-.52,2.17,2.17,0,0,0-.38-.64L20.7,33a9.35,9.35,0,0,1-1,1.23c.07.1.14.2.21.32a5.33,5.33,0,0,1,.39.9,3.19,3.19,0,0,1,.09.31,1.33,1.33,0,0,0,.19-.14,4.31,4.31,0,0,0,.48-.47,1.36,1.36,0,0,0,.26-.43.77.77,0,0,0,0-.32s0,0,0-.07Z"/><path class="cls-67" d="M19,38.11a.7.7,0,0,1-.23.11.33.33,0,0,1-.22,0,.36.36,0,0,1-.15-.15.64.64,0,0,1-.08-.14,11.5,11.5,0,0,0,1.93-1.37,3.44,3.44,0,0,1-.35.58,11.3,11.3,0,0,1-.86,1l0,0Z"/><path class="cls-67" d="M5.16,20.59l0-.07a1.66,1.66,0,0,1-.21-.76,4.36,4.36,0,0,1,.2-1.32,2.18,2.18,0,0,1,.45-.79,1.08,1.08,0,0,1,.26-.23l0,0a10.51,10.51,0,0,0-1.37,1,1.88,1.88,0,0,0-.14.34,1.24,1.24,0,0,0,.06.76,5.4,5.4,0,0,0,.4.9,1.84,1.84,0,0,0,.2.31l.15-.15Z"/><path class="cls-68" d="M5.73,16.86a14.2,14.2,0,0,0-1.09.91,5.07,5.07,0,0,0-1,1.16,2.67,2.67,0,0,0-.33,1.23,2.54,2.54,0,0,0,.17,1,2.17,2.17,0,0,0,.38.64L4,22a11.24,11.24,0,0,1,1-1.24,1.84,1.84,0,0,1-.2-.31,5.4,5.4,0,0,1-.4-.9,1.24,1.24,0,0,1-.06-.76,3.06,3.06,0,0,1,.49-.92,9.59,9.59,0,0,1,.89-1Z"/><path class="cls-69" d="M3.37,20.65a2.46,2.46,0,0,0,.14.52,2.17,2.17,0,0,0,.38.64L4,22a11.24,11.24,0,0,1,1-1.24,1.84,1.84,0,0,1-.2-.31,5.4,5.4,0,0,1-.4-.9,1.49,1.49,0,0,1-.08-.32l-.2.15a3.58,3.58,0,0,0-.48.47,1.7,1.7,0,0,0-.26.43.73.73,0,0,0,0,.32v.07Z"/><path class="cls-67" d="M5.74,16.86a1.07,1.07,0,0,1,.22-.1.33.33,0,0,1,.22,0,.45.45,0,0,1,.16.15.83.83,0,0,1,.07.13,12.09,12.09,0,0,0-1.92,1.38,2.89,2.89,0,0,1,.35-.58,9.81,9.81,0,0,1,.86-1l0,0Z"/><path class="cls-67" d="M16,18.18l0-.06a1.49,1.49,0,0,1,.61-.48A4.06,4.06,0,0,1,18,17.32a2.06,2.06,0,0,1,.89.11,1.05,1.05,0,0,1,.32.15l0,0a12.83,12.83,0,0,0-1.48-.88h-.37a1.15,1.15,0,0,0-.68.35,5.13,5.13,0,0,0-.68.71,2.82,2.82,0,0,0-.21.31l.2.07Z"/><path class="cls-68" d="M19.65,17.28c-.4-.22-.79-.44-1.25-.65A5.31,5.31,0,0,0,17,16.17a2.69,2.69,0,0,0-1.26.17,2.59,2.59,0,0,0-.87.54,2.09,2.09,0,0,0-.44.6,2,2,0,0,0-.1.21,10.64,10.64,0,0,1,1.51.42A2.82,2.82,0,0,1,16,17.8a5.13,5.13,0,0,1,.68-.71,1.15,1.15,0,0,1,.68-.35,3.15,3.15,0,0,1,1,.1,10.32,10.32,0,0,1,1.26.44Z"/><path class="cls-69" d="M15.24,16.56a2.89,2.89,0,0,0-.42.32,2.09,2.09,0,0,0-.44.6,2,2,0,0,0-.1.21,10.64,10.64,0,0,1,1.51.42A2.82,2.82,0,0,1,16,17.8a5.13,5.13,0,0,1,.68-.71,1.51,1.51,0,0,1,.26-.2l-.21-.13a3.93,3.93,0,0,0-.62-.26,1.34,1.34,0,0,0-.49-.07.7.7,0,0,0-.31.1l-.07,0Z"/><path class="cls-67" d="M19.65,17.29a1,1,0,0,1,.19.17.44.44,0,0,1,.07.21.42.42,0,0,1-.08.2l-.1.12a11.66,11.66,0,0,0-2-1.26,3.79,3.79,0,0,1,.66.11,9.77,9.77,0,0,1,1.22.43l0,0Z"/><path class="cls-67" d="M8.76,36.79l0,.07a1.54,1.54,0,0,1-.62.48,4.28,4.28,0,0,1-1.3.32,2.11,2.11,0,0,1-.9-.11,1.39,1.39,0,0,1-.32-.15l0,0A11.6,11.6,0,0,0,7,38.24h.37a1.21,1.21,0,0,0,.67-.35,5.18,5.18,0,0,0,.69-.71c.08-.11.15-.21.21-.31l-.2-.08Z"/><path class="cls-68" d="M5.1,37.69a13.22,13.22,0,0,0,1.25.66,4.9,4.9,0,0,0,1.44.45,2.7,2.7,0,0,0,2.14-.7,2.23,2.23,0,0,0,.44-.6,2,2,0,0,0,.1-.21A10.28,10.28,0,0,1,9,36.87c-.06.1-.13.2-.21.31a5.18,5.18,0,0,1-.69.71,1.21,1.21,0,0,1-.67.35,3.21,3.21,0,0,1-1-.1,9.2,9.2,0,0,1-1.25-.45Z"/><path class="cls-69" d="M9.5,38.42a2.53,2.53,0,0,0,.43-.32,2.23,2.23,0,0,0,.44-.6,2,2,0,0,0,.1-.21A10.28,10.28,0,0,1,9,36.87c-.06.1-.13.2-.21.31a5.18,5.18,0,0,1-.69.71,2,2,0,0,1-.25.2l.21.12a2.6,2.6,0,0,0,.61.26,1.4,1.4,0,0,0,.5.08.75.75,0,0,0,.31-.1l.06,0Z"/><path class="cls-67" d="M5.1,37.69a1,1,0,0,1-.19-.17.35.35,0,0,1-.07-.21.34.34,0,0,1,.08-.2A.94.94,0,0,1,5,37a12.1,12.1,0,0,0,2,1.25,3.87,3.87,0,0,1-.67-.1,9.63,9.63,0,0,1-1.21-.43l0,0Z"/><path class="cls-67" d="M21.68,31.11l.06,0a1.62,1.62,0,0,1,.48.62,4.29,4.29,0,0,1,.33,1.3,2.29,2.29,0,0,1-.11.9,1.81,1.81,0,0,1-.16.32l0,0a11,11,0,0,0,.88-1.49,2.22,2.22,0,0,0,0-.37,1.2,1.2,0,0,0-.34-.67,5.11,5.11,0,0,0-.71-.68,2.64,2.64,0,0,0-.32-.22c0,.07-.05.14-.07.21Z"/><path class="cls-68" d="M22.58,34.77c.22-.4.45-.8.65-1.26a5.14,5.14,0,0,0,.46-1.44,2.73,2.73,0,0,0-.17-1.27,2.81,2.81,0,0,0-.54-.87,2.3,2.3,0,0,0-.6-.44l-.2-.1a9.22,9.22,0,0,1-.43,1.51,2.64,2.64,0,0,1,.32.22,5.11,5.11,0,0,1,.71.68,1.2,1.2,0,0,1,.34.67,3.19,3.19,0,0,1-.09,1,10.32,10.32,0,0,1-.45,1.26Z"/><path class="cls-69" d="M23.3,30.36a2.53,2.53,0,0,0-.32-.43,2.3,2.3,0,0,0-.6-.44l-.2-.1a9.22,9.22,0,0,1-.43,1.51,2.64,2.64,0,0,1,.32.22,5.11,5.11,0,0,1,.71.68,2.14,2.14,0,0,1,.19.26l.13-.22a3.84,3.84,0,0,0,.26-.61,1.4,1.4,0,0,0,.08-.5.8.8,0,0,0-.1-.3l0-.07Z"/><path class="cls-67" d="M22.57,34.76a.79.79,0,0,1-.17.19.32.32,0,0,1-.2.07A.44.44,0,0,1,22,35l-.12-.1a12.15,12.15,0,0,0,1.26-2,3.74,3.74,0,0,1-.1.67,12.58,12.58,0,0,1-.43,1.22l0,0Z"/><path class="cls-67" d="M3.07,23.87l-.06,0a1.62,1.62,0,0,1-.49-.62A4.27,4.27,0,0,1,2.2,21.9,2.23,2.23,0,0,1,2.31,21a.91.91,0,0,1,.16-.32l0,0a12.76,12.76,0,0,0-.87,1.48,1.48,1.48,0,0,0,0,.37,1.14,1.14,0,0,0,.34.68,4.61,4.61,0,0,0,.71.68l.31.21c0-.06,0-.13.08-.2Z"/><path class="cls-68" d="M2.17,20.21c-.23.4-.45.8-.66,1.25a5,5,0,0,0-.45,1.45,2.56,2.56,0,0,0,.17,1.26,2.58,2.58,0,0,0,.53.87,2,2,0,0,0,.6.44l.21.11A10.41,10.41,0,0,1,3,24.07l-.31-.21A4.61,4.61,0,0,1,2,23.18a1.14,1.14,0,0,1-.34-.68,2.88,2.88,0,0,1,.09-1,10.32,10.32,0,0,1,.45-1.26Z"/><path class="cls-69" d="M1.44,24.62a2.43,2.43,0,0,0,.32.42,2,2,0,0,0,.6.44l.21.11A10.41,10.41,0,0,1,3,24.07l-.31-.21A4.61,4.61,0,0,1,2,23.18a2.26,2.26,0,0,1-.2-.26l-.12.21a3.44,3.44,0,0,0-.26.62,1.38,1.38,0,0,0-.08.49.7.7,0,0,0,.1.31l0,.07Z"/><path class="cls-67" d="M2.18,20.21A.49.49,0,0,1,2.35,20a.26.26,0,0,1,.2-.07.37.37,0,0,1,.2.07.58.58,0,0,1,.12.1,12.26,12.26,0,0,0-1.25,2,3.76,3.76,0,0,1,.1-.66,10.38,10.38,0,0,1,.43-1.22l0,0Z"/><path class="cls-67" d="M21.51,23.47h.08a1.55,1.55,0,0,1,.77.09,4.45,4.45,0,0,1,1.16.69,2.46,2.46,0,0,1,.55.71,2,2,0,0,1,.12.34v.05a14.12,14.12,0,0,0-.43-1.67,3.18,3.18,0,0,0-.27-.26,1.21,1.21,0,0,0-.72-.23,5.51,5.51,0,0,0-1,0l-.37.07.09.2Z"/><path class="cls-68" d="M24.74,25.42c-.13-.44-.25-.88-.43-1.35a4.75,4.75,0,0,0-.7-1.34,2.68,2.68,0,0,0-1-.78,2.48,2.48,0,0,0-1-.23,2,2,0,0,0-.73.11l-.22.07a9.64,9.64,0,0,1,.77,1.37l.37-.07a5.51,5.51,0,0,1,1,0,1.21,1.21,0,0,1,.72.23,3.14,3.14,0,0,1,.66.8,10.21,10.21,0,0,1,.58,1.21Z"/><path class="cls-69" d="M22.13,21.79a2,2,0,0,0-.53-.07,2,2,0,0,0-.73.11l-.22.07a9.64,9.64,0,0,1,.77,1.37l.37-.07a5.51,5.51,0,0,1,1,0l.32,0L23,23a3.06,3.06,0,0,0-.26-.63,1.48,1.48,0,0,0-.29-.4.81.81,0,0,0-.29-.15l-.07,0Z"/><path class="cls-67" d="M24.73,25.42a1.09,1.09,0,0,1,0,.25.34.34,0,0,1-.09.2.41.41,0,0,1-.2.09l-.16,0a11.18,11.18,0,0,0-.53-2.31,3.43,3.43,0,0,1,.4.54,9.61,9.61,0,0,1,.56,1.17s0,0,0,0Z"/><path class="cls-67" d="M3.24,31.51H3.16a1.58,1.58,0,0,1-.78-.09,4.18,4.18,0,0,1-1.15-.7A2.08,2.08,0,0,1,.68,30a.94.94,0,0,1-.12-.33v-.05A12.41,12.41,0,0,0,1,31.31a1.54,1.54,0,0,0,.27.25A1.16,1.16,0,0,0,2,31.8a5.39,5.39,0,0,0,1,0l.37-.07a1.67,1.67,0,0,1-.08-.2Z"/><path class="cls-68" d="M0,29.56c.12.44.25.88.42,1.35a5,5,0,0,0,.71,1.34,2.63,2.63,0,0,0,1,.78,2.82,2.82,0,0,0,1,.23,2.06,2.06,0,0,0,.74-.11l.22-.07a10.79,10.79,0,0,1-.78-1.37L3,31.78a5.39,5.39,0,0,1-1,0,1.16,1.16,0,0,1-.72-.24,3,3,0,0,1-.67-.8A11.79,11.79,0,0,1,0,29.56Z"/><path class="cls-69" d="M2.61,33.19a2.67,2.67,0,0,0,.53.07,2.06,2.06,0,0,0,.74-.11l.22-.07a10.79,10.79,0,0,1-.78-1.37L3,31.78a5.39,5.39,0,0,1-1,0l-.32,0,.06.23a3.33,3.33,0,0,0,.25.62,1.4,1.4,0,0,0,.29.41,1,1,0,0,0,.29.15l.07,0Z"/><path class="cls-67" d="M0,29.55a.53.53,0,0,1,0-.25.31.31,0,0,1,.09-.19A.34.34,0,0,1,.3,29l.15,0A12.64,12.64,0,0,0,1,31.31a4.56,4.56,0,0,1-.4-.55A10.23,10.23,0,0,1,0,29.6v-.05Z"/><path class="cls-67" d="M16.4,36.63a.2.2,0,0,0,0,.07,1.61,1.61,0,0,1-.1.78,4.14,4.14,0,0,1-.69,1.15,2.36,2.36,0,0,1-.71.56,1.12,1.12,0,0,1-.34.11h-.05a11.07,11.07,0,0,0,1.67-.43,2.17,2.17,0,0,0,.26-.27,1.19,1.19,0,0,0,.23-.72,5.4,5.4,0,0,0,0-1,3.06,3.06,0,0,0-.07-.37l-.19.09Z"/><path class="cls-68" d="M14.44,39.85a13.77,13.77,0,0,0,1.35-.42,5.57,5.57,0,0,0,1.35-.7,2.7,2.7,0,0,0,.77-1,2.64,2.64,0,0,0,.24-1A2.18,2.18,0,0,0,18,36c0-.08-.05-.16-.07-.22a12.1,12.1,0,0,1-1.37.77,3.06,3.06,0,0,1,.07.37,5.4,5.4,0,0,1,0,1,1.19,1.19,0,0,1-.23.72,3.38,3.38,0,0,1-.8.67,10.1,10.1,0,0,1-1.21.57Z"/><path class="cls-69" d="M18.07,37.25a2.73,2.73,0,0,0,.08-.53A2.18,2.18,0,0,0,18,36c0-.08-.05-.16-.07-.22a12.1,12.1,0,0,1-1.37.77,3.06,3.06,0,0,1,.07.37,5.4,5.4,0,0,1,0,1,2.53,2.53,0,0,1,0,.32l.24-.06a4,4,0,0,0,.62-.25,1.48,1.48,0,0,0,.4-.29.8.8,0,0,0,.15-.29.64.64,0,0,1,0-.07Z"/><path class="cls-67" d="M14.44,39.84a.72.72,0,0,1-.25,0,.42.42,0,0,1-.2-.1.41.41,0,0,1-.09-.2s0-.1,0-.15a11.7,11.7,0,0,0,2.31-.53,4.44,4.44,0,0,1-.54.4,12.55,12.55,0,0,1-1.17.56Z"/><path class="cls-67" d="M8.35,18.35s0-.05,0-.07a1.5,1.5,0,0,1,.1-.78,3.91,3.91,0,0,1,.69-1.15,2.14,2.14,0,0,1,.71-.56,1,1,0,0,1,.34-.11h0a11.39,11.39,0,0,0-1.67.43,2.94,2.94,0,0,0-.25.26,1.18,1.18,0,0,0-.24.73,5.42,5.42,0,0,0,0,1c0,.13.05.26.07.37l.2-.09Z"/><path class="cls-68" d="M10.3,15.13A13.77,13.77,0,0,0,9,15.55a5.32,5.32,0,0,0-1.34.7,2.79,2.79,0,0,0-.78,1,2.91,2.91,0,0,0-.23,1,2.24,2.24,0,0,0,.11.73c0,.08,0,.15.08.22a10.61,10.61,0,0,1,1.36-.77c0-.11-.05-.24-.07-.37a5.42,5.42,0,0,1,0-1,1.18,1.18,0,0,1,.24-.73,3.17,3.17,0,0,1,.8-.66,10,10,0,0,1,1.2-.57Z"/><path class="cls-69" d="M6.67,17.73a2.67,2.67,0,0,0-.07.53,2.24,2.24,0,0,0,.11.73c0,.08,0,.15.08.22a10.61,10.61,0,0,1,1.36-.77c0-.11-.05-.24-.07-.37a5.42,5.42,0,0,1,0-1,1.63,1.63,0,0,1,0-.33l-.24.07a2.51,2.51,0,0,0-.62.25,1.4,1.4,0,0,0-.41.29.84.84,0,0,0-.14.29l0,.07Z"/><path class="cls-67" d="M10.31,15.13a1,1,0,0,1,.25,0,.29.29,0,0,1,.19.1.31.31,0,0,1,.09.19.88.88,0,0,1,0,.16,12,12,0,0,0-2.31.53,3.5,3.5,0,0,1,.55-.4,11.21,11.21,0,0,1,1.16-.56Z"/><path class="cls-65" d="M12.37,24.75a.52.52,0,1,0,.51.51.51.51,0,0,0-.51-.51Z"/><path class="cls-66" d="M12.37,24.82a.45.45,0,1,0,.45.44.44.44,0,0,0-.45-.44Z"/><path class="cls-65" d="M12.37,30.22a.5.5,0,0,0,.51-.51.51.51,0,0,0-.51-.51.51.51,0,0,0-.51.51.51.51,0,0,0,.51.51Z"/><path class="cls-66" d="M12.37,30.16a.45.45,0,1,0-.44-.45.45.45,0,0,0,.44.45Z"/><path class="cls-65" d="M15.11,27.49a.51.51,0,1,0-.51.51.51.51,0,0,0,.51-.51Z"/><path class="cls-66" d="M15,27.49a.45.45,0,1,0-.44.44.45.45,0,0,0,.44-.44Z"/><path class="cls-65" d="M9.64,27.49a.51.51,0,1,0,.51-.51.51.51,0,0,0-.51.51Z"/><path class="cls-66" d="M9.7,27.49a.45.45,0,1,0,.45-.45.45.45,0,0,0-.45.45Z"/><path class="cls-65" d="M14.31,25.55a.54.54,0,0,0-.73,0,.52.52,0,1,0,.73,0Z"/><path class="cls-66" d="M14.26,25.6a.45.45,0,1,0,0,.63.45.45,0,0,0,0-.63Z"/><path class="cls-65" d="M10.44,29.42a.51.51,0,1,0,0-.72.51.51,0,0,0,0,.72Z"/><path class="cls-66" d="M10.49,29.38a.44.44,0,0,0,.62,0,.43.43,0,0,0,0-.63.42.42,0,0,0-.62,0,.43.43,0,0,0,0,.63Z"/><path class="cls-65" d="M14.31,29.42a.51.51,0,0,0,0-.72.52.52,0,0,0-.73,0,.51.51,0,0,0,0,.72.52.52,0,0,0,.73,0Z"/><path class="cls-66" d="M14.26,29.38a.45.45,0,0,0,0-.63.43.43,0,0,0-.63,0,.45.45,0,0,0,.63.63Z"/><path class="cls-65" d="M10.44,25.55a.52.52,0,0,0,0,.73.51.51,0,0,0,.72,0,.52.52,0,0,0,0-.73.53.53,0,0,0-.72,0Z"/><path class="cls-66" d="M10.49,25.6a.43.43,0,0,0,0,.63.44.44,0,0,0,.62,0,.43.43,0,0,0,0-.63.44.44,0,0,0-.62,0Z"/><path class="cls-70" d="M50.71,26.81a6.51,6.51,0,1,1-6.5,6.5,6.5,6.5,0,0,1,6.5-6.5Z"/><path class="cls-71" d="M47.73,29.85a4.2,4.2,0,0,1,1.23-.7,5,5,0,0,1,1.71-.28,5,5,0,0,1,1.73.32,4.46,4.46,0,0,1,2.41,2.24,4.93,4.93,0,0,1,.41,1.66,3,3,0,0,1-.09,1.25c-.11.23-.28.2-.41,0a2.69,2.69,0,0,1-.29-.87,3.23,3.23,0,0,0-.27-1,2.79,2.79,0,0,0-1.53-1.26,13.81,13.81,0,0,0-3.48-.81,3.76,3.76,0,0,0-1.54.14c-.22.05-.29,0-.27-.18s.12-.31.39-.54Z"/><path class="cls-72" d="M50.71,29.3a4,4,0,1,1-4,4,4,4,0,0,1,4-4Z"/><path class="cls-73" d="M50.71,30a3.3,3.3,0,1,1-3.3,3.29A3.29,3.29,0,0,1,50.71,30Z"/><path class="cls-74" d="M50.71,30.36a3,3,0,1,1-3,3,3,3,0,0,1,3-3Z"/><path class="cls-75" d="M50.71,26.81h0a4.37,4.37,0,0,1,.43.32.93.93,0,0,1,.31.36.72.72,0,0,1,0,.26,1.67,1.67,0,0,1,0,.33c0,.09,0,.13-.07.15a.15.15,0,0,1-.13,0s-.06,0-.07-.14,0-.22,0-.32a.78.78,0,0,0,0-.24.84.84,0,0,0-.21-.25,3.8,3.8,0,0,0-.59-.47Z"/><path class="cls-75" d="M50.71,39.82h0c-.16-.11-.32-.22-.44-.32a.79.79,0,0,1-.3-.36.72.72,0,0,1,0-.26c0-.11,0-.25,0-.33s0-.13.07-.15a.15.15,0,0,1,.13,0s.06,0,.07.14,0,.22,0,.32a.77.77,0,0,0,.06.24.93.93,0,0,0,.2.25,3.48,3.48,0,0,0,.6.47Z"/><path class="cls-75" d="M44.21,33.31h0c.1-.16.22-.32.31-.44a.87.87,0,0,1,.36-.3.77.77,0,0,1,.27,0h.33c.09,0,.13,0,.15.08a.15.15,0,0,1,0,.13s-.06.05-.14.06l-.32,0a.7.7,0,0,0-.24.06.84.84,0,0,0-.25.21,3,3,0,0,0-.47.59c0-.13,0-.26,0-.39Z"/><path class="cls-75" d="M57.21,33.31h0c-.1.16-.22.32-.31.44a.87.87,0,0,1-.36.3.77.77,0,0,1-.27,0h-.33a.2.2,0,0,1-.15-.08.2.2,0,0,1,0-.13s.06,0,.15-.06l.32,0a.64.64,0,0,0,.23-.06.73.73,0,0,0,.25-.21,2.7,2.7,0,0,0,.47-.59c0,.13,0,.26,0,.38Z"/><path class="cls-75" d="M46.11,28.72h0c.18,0,.38-.07.53-.08a.84.84,0,0,1,.47,0,1,1,0,0,1,.21.16,2.46,2.46,0,0,1,.22.25c.06.07.07.11.05.15a.12.12,0,0,1-.08.1s-.08,0-.15,0-.16-.15-.24-.21a.71.71,0,0,0-.21-.13,1,1,0,0,0-.32,0,3,3,0,0,0-.75.09,3.45,3.45,0,0,1,.26-.28Z"/><path class="cls-75" d="M55.31,37.91h0c-.19,0-.39.07-.53.08a.81.81,0,0,1-.47,0,.65.65,0,0,1-.21-.16,1.74,1.74,0,0,1-.23-.25c0-.07-.06-.11,0-.15a.14.14,0,0,1,.08-.1s.08,0,.15.05.16.15.24.21a.71.71,0,0,0,.21.13,1,1,0,0,0,.32,0,3,3,0,0,0,.75-.09,3.45,3.45,0,0,1-.26.28Z"/><path class="cls-75" d="M46.11,37.91h0c0-.19-.07-.38-.09-.53a.93.93,0,0,1,0-.47.83.83,0,0,1,.17-.21l.24-.23a.2.2,0,0,1,.16,0,.15.15,0,0,1,.1.09s0,.08,0,.14l-.22.24a.78.78,0,0,0-.12.21.68.68,0,0,0,0,.33,3,3,0,0,0,.08.75l-.28-.27Z"/><path class="cls-75" d="M55.31,28.72h0c0,.19.07.38.09.53a.82.82,0,0,1,0,.47.66.66,0,0,1-.17.21l-.24.23a.2.2,0,0,1-.16.05.22.22,0,0,1-.1-.09s0-.08.06-.14a2.25,2.25,0,0,1,.21-.24.73.73,0,0,0,.16-.54,3.1,3.1,0,0,0-.09-.75l.28.27Z"/><path class="cls-75" d="M48.22,27.31h0a5.06,5.06,0,0,1,.52.12.89.89,0,0,1,.42.22.63.63,0,0,1,.13.23,2.33,2.33,0,0,1,.11.31c0,.09,0,.13,0,.17a.13.13,0,0,1-.11.05s-.08,0-.12-.1-.09-.2-.14-.29a.62.62,0,0,0-.14-.19.85.85,0,0,0-.29-.16,3.2,3.2,0,0,0-.73-.2l.35-.16Z"/><path class="cls-75" d="M53.2,39.32h0a5.29,5.29,0,0,1-.53-.12.84.84,0,0,1-.41-.22.53.53,0,0,1-.14-.23,2.33,2.33,0,0,1-.11-.31c0-.09,0-.13,0-.17a.15.15,0,0,1,.12-.05s.07,0,.11.1l.14.29a.63.63,0,0,0,.15.19.77.77,0,0,0,.28.16,3.2,3.2,0,0,0,.73.2l-.35.16Z"/><path class="cls-75" d="M44.7,35.8h0a4.37,4.37,0,0,1,.13-.52.77.77,0,0,1,.21-.42.78.78,0,0,1,.24-.13,2,2,0,0,1,.31-.12.2.2,0,0,1,.16,0,.16.16,0,0,1,.06.12s0,.07-.1.12l-.29.14a.64.64,0,0,0-.2.14.79.79,0,0,0-.15.29,2.9,2.9,0,0,0-.21.73l-.16-.36Z"/><path class="cls-75" d="M56.72,30.83h0c0,.19-.08.38-.12.52a.84.84,0,0,1-.22.42.86.86,0,0,1-.23.13,3.21,3.21,0,0,1-.31.12.18.18,0,0,1-.17,0,.13.13,0,0,1-.06-.11s0-.07.11-.12l.28-.14a.54.54,0,0,0,.2-.14.75.75,0,0,0,.16-.29,2.93,2.93,0,0,0,.2-.73c.06.12.11.24.16.36Z"/><path class="cls-75" d="M44.7,30.83h0c.15-.1.32-.21.45-.28a.78.78,0,0,1,.45-.14.68.68,0,0,1,.26.07,2.09,2.09,0,0,1,.3.14.17.17,0,0,1,.11.12.18.18,0,0,1,0,.13s-.08,0-.16,0l-.3-.11a.8.8,0,0,0-.24,0,.92.92,0,0,0-.31.1,2.78,2.78,0,0,0-.66.37c0-.12.08-.24.13-.36Z"/><path class="cls-75" d="M56.72,35.8h0l-.46.28a.76.76,0,0,1-.45.14.68.68,0,0,1-.26-.07,2.75,2.75,0,0,1-.3-.14.2.2,0,0,1-.11-.12.18.18,0,0,1,0-.13s.08,0,.16,0l.3.11a.8.8,0,0,0,.24,0,1,1,0,0,0,.32-.1,3.23,3.23,0,0,0,.66-.37l-.14.36Z"/><path class="cls-75" d="M48.22,39.32h0a4.06,4.06,0,0,1-.28-.46.87.87,0,0,1-.15-.44.79.79,0,0,1,.08-.26,3,3,0,0,1,.13-.3c0-.08.09-.11.13-.11a.12.12,0,0,1,.12,0s0,.07,0,.15-.07.21-.1.31a.75.75,0,0,0,0,.24.88.88,0,0,0,.09.31,3.79,3.79,0,0,0,.37.66l-.36-.14Z"/><path class="cls-75" d="M53.2,27.31h0a4.25,4.25,0,0,1,.29.46.93.93,0,0,1,.14.44.77.77,0,0,1-.07.26,2.87,2.87,0,0,1-.14.3c-.05.08-.08.11-.13.11a.14.14,0,0,1-.12,0s0-.07,0-.15.08-.21.11-.31a.53.53,0,0,0,0-.24.88.88,0,0,0-.09-.31,3.79,3.79,0,0,0-.37-.66l.36.14Z"/><path class="cls-75" d="M49.44,26.94h0l.49.22a.76.76,0,0,1,.36.29.73.73,0,0,1,.09.26c0,.1,0,.24,0,.32s0,.14,0,.17a.13.13,0,0,1-.12,0s-.07,0-.09-.13a2.63,2.63,0,0,1-.08-.3.82.82,0,0,0-.11-.23.88.88,0,0,0-.25-.2,3.2,3.2,0,0,0-.67-.35l.37-.08Z"/><path class="cls-75" d="M52,39.69h0a4.68,4.68,0,0,1-.49-.22.81.81,0,0,1-.37-.29.72.72,0,0,1-.08-.26c0-.1,0-.24-.06-.32s0-.14.05-.17a.13.13,0,0,1,.12,0s.07,0,.1.13,0,.21.08.3a.83.83,0,0,0,.1.23.88.88,0,0,0,.25.2,3.3,3.3,0,0,0,.68.35l-.38.08Z"/><path class="cls-75" d="M44.33,34.58h0c.08-.18.16-.36.23-.49a.81.81,0,0,1,.29-.37.67.67,0,0,1,.25-.08,2.21,2.21,0,0,1,.33,0,.17.17,0,0,1,.16,0,.17.17,0,0,1,0,.13s-.05.06-.13.09l-.31.08A.76.76,0,0,0,45,34a1.15,1.15,0,0,0-.21.26,3,3,0,0,0-.34.67l-.09-.38Z"/><path class="cls-75" d="M57.09,32.05h0a4.68,4.68,0,0,1-.22.49.88.88,0,0,1-.3.37.67.67,0,0,1-.25.08A2.21,2.21,0,0,1,56,33a.17.17,0,0,1-.16,0,.16.16,0,0,1,0-.13s0-.06.12-.09l.31-.08a.76.76,0,0,0,.22-.1.93.93,0,0,0,.21-.26,3,3,0,0,0,.34-.67l.09.38Z"/><path class="cls-75" d="M45.3,29.7h0a3.56,3.56,0,0,1,.5-.19.86.86,0,0,1,.47-.05.68.68,0,0,1,.24.12c.08.06.2.13.27.19a.2.2,0,0,1,.08.15.16.16,0,0,1-.07.11s-.07,0-.15,0l-.28-.16a1,1,0,0,0-.23-.09.92.92,0,0,0-.32,0,2.7,2.7,0,0,0-.72.23c.06-.11.13-.22.2-.33Z"/><path class="cls-75" d="M56.12,36.93h0a3.65,3.65,0,0,1-.51.19.85.85,0,0,1-.47.05.57.57,0,0,1-.23-.12,2.1,2.1,0,0,1-.27-.19c-.07-.06-.09-.1-.08-.15a.13.13,0,0,1,.06-.11s.08,0,.15,0l.28.16a1,1,0,0,0,.23.09.9.9,0,0,0,.32,0,3,3,0,0,0,.72-.23c-.06.11-.13.22-.2.33Z"/><path class="cls-75" d="M47.1,38.72h0a4.1,4.1,0,0,1-.19-.5.9.9,0,0,1-.06-.47.94.94,0,0,1,.13-.24,1.85,1.85,0,0,1,.19-.27.17.17,0,0,1,.15-.08.15.15,0,0,1,.11.06s0,.08,0,.16-.12.18-.17.27a.91.91,0,0,0-.08.23.87.87,0,0,0,0,.33,3.36,3.36,0,0,0,.24.72l-.33-.21Z"/><path class="cls-75" d="M54.32,27.91h0l.19.5a1,1,0,0,1,0,.47.9.9,0,0,1-.12.24,3.16,3.16,0,0,1-.2.27c-.06.07-.1.08-.14.08a.16.16,0,0,1-.12-.06s0-.08,0-.16l.16-.27a.63.63,0,0,0,.08-.23.87.87,0,0,0,0-.33A3.92,3.92,0,0,0,54,27.7l.32.21Z"/><path class="cls-75" d="M47.1,27.91h0a4.68,4.68,0,0,1,.54,0,.79.79,0,0,1,.45.14.59.59,0,0,1,.18.2c0,.09.13.2.17.28a.18.18,0,0,1,0,.17.16.16,0,0,1-.1.08s-.08,0-.14-.08L48,28.45a.52.52,0,0,0-.18-.16.82.82,0,0,0-.31-.1,3.44,3.44,0,0,0-.76-.06l.32-.22Z"/><path class="cls-75" d="M54.32,38.72h-.54a.86.86,0,0,1-.45-.14.69.69,0,0,1-.17-.2,3.23,3.23,0,0,1-.18-.28.18.18,0,0,1,0-.17.18.18,0,0,1,.11-.08s.07,0,.13.08.13.18.19.26a.63.63,0,0,0,.18.16.9.9,0,0,0,.31.1,3.5,3.5,0,0,0,.76.06l-.32.22Z"/><path class="cls-75" d="M45.3,36.93h0c0-.19,0-.38,0-.53a1,1,0,0,1,.13-.46.92.92,0,0,1,.21-.17,2.09,2.09,0,0,1,.28-.17c.08,0,.12,0,.16,0a.13.13,0,0,1,.08.1s0,.08-.08.13-.17.13-.25.2a.7.7,0,0,0-.17.18.89.89,0,0,0-.09.31,2.85,2.85,0,0,0-.06.75l-.23-.31Z"/><path class="cls-75" d="M56.12,29.7h0a4.35,4.35,0,0,1,0,.53.73.73,0,0,1-.13.45.7.7,0,0,1-.2.18l-.28.17a.18.18,0,0,1-.17,0,.16.16,0,0,1-.08-.1s0-.08.08-.13l.26-.2a.86.86,0,0,0,.16-.18.82.82,0,0,0,.1-.31,3.4,3.4,0,0,0,0-.75,3.55,3.55,0,0,1,.23.31Z"/><path class="cls-75" d="M44.33,32.05h0c.14-.13.28-.27.4-.36a.74.74,0,0,1,.41-.23.64.64,0,0,1,.27,0l.32.08c.08,0,.12.06.13.1a.15.15,0,0,1,0,.13s-.06,0-.15,0l-.31-.05a.63.63,0,0,0-.54.17,3,3,0,0,0-.57.49l.06-.38Z"/><path class="cls-75" d="M57.09,34.58h0c-.14.13-.28.27-.39.36a.75.75,0,0,1-.42.23.59.59,0,0,1-.26,0l-.33-.08a.18.18,0,0,1-.13-.1.15.15,0,0,1,0-.13s.06,0,.15,0l.32,0a.9.9,0,0,0,.24,0,1,1,0,0,0,.29-.16,3,3,0,0,0,.57-.49c0,.13,0,.26-.06.38Z"/><path class="cls-75" d="M49.44,39.69h0c-.14-.13-.27-.28-.37-.39a1,1,0,0,1-.23-.41.83.83,0,0,1,0-.27,2.55,2.55,0,0,1,.07-.32c0-.09.06-.12.11-.13a.13.13,0,0,1,.12,0s0,.07,0,.15,0,.22,0,.32a.61.61,0,0,0,0,.24.86.86,0,0,0,.15.29,3.43,3.43,0,0,0,.49.58l-.38-.07Z"/><path class="cls-75" d="M52,26.94h0a4.26,4.26,0,0,1,.37.39,1,1,0,0,1,.23.41.82.82,0,0,1,0,.27,2.49,2.49,0,0,1-.08.32c0,.09-.06.12-.1.13a.14.14,0,0,1-.13,0,.16.16,0,0,1,0-.15c0-.09,0-.22,0-.32a.61.61,0,0,0,0-.24.7.7,0,0,0-.15-.29,3.43,3.43,0,0,0-.49-.58l.38.07Z"/><polygon class="cls-76" points="50.71 32.59 51.02 32.77 51.34 32.95 51.34 33.68 51.02 33.86 50.71 34.04 50.4 33.86 50.09 33.68 50.09 32.95 50.4 32.77 50.71 32.59 50.71 32.59"/><path class="cls-77" d="M50.71,32.86a.46.46,0,1,1,0,.91.46.46,0,0,1,0-.91Z"/><path class="cls-76" d="M50.71,33a.31.31,0,1,1-.31.3.3.3,0,0,1,.31-.3Z"/><path class="cls-78" d="M45.92,33.33a4.31,4.31,0,0,0,0,1.21A5.32,5.32,0,0,0,46.44,36a3,3,0,0,0,.85,1,7.42,7.42,0,0,0,1.12.73,5.25,5.25,0,0,0,1.19.42,4.86,4.86,0,0,0,1.43.14,2.43,2.43,0,0,0,1-.35c.16-.13.09-.21,0-.21s-.32.07-.66.11a5.26,5.26,0,0,1-1.39,0,5,5,0,0,1-1.83-.67,3.75,3.75,0,0,1-1.32-1.48A4.6,4.6,0,0,1,46.4,34c0-.46,0-.77,0-.85s-.1.1-.18.12-.2-.09-.25.1Z"/><polygon class="cls-76" points="13.1 1.05 13.23 0.99 13.36 0.92 13.61 1.08 13.6 1.23 13.59 1.38 13.46 1.44 13.33 1.51 13.08 1.35 13.09 1.2 13.1 1.05 13.1 1.05"/><path class="cls-77" d="M13.19,1.11a.19.19,0,0,1,.26-.05.19.19,0,1,1-.21.31.19.19,0,0,1-.05-.26Z"/><path class="cls-76" d="M13.24,1.15a.12.12,0,0,1,.17,0,.12.12,0,1,1-.13.21.12.12,0,0,1,0-.17Z"/><polygon class="cls-76" points="13.58 2.41 13.44 2.46 13.3 2.52 13.07 2.34 13.09 2.19 13.11 2.04 13.25 1.99 13.39 1.94 13.62 2.12 13.6 2.26 13.58 2.41 13.58 2.41"/><path class="cls-77" d="M13.49,2.34a.18.18,0,0,1-.26,0,.19.19,0,1,1,.26,0Z"/><path class="cls-76" d="M13.44,2.31a.12.12,0,0,1-.17,0,.12.12,0,0,1,0-.18.11.11,0,0,1,.17,0,.12.12,0,0,1,0,.18Z"/></g></g></svg>